<svg width="245" height="46" viewBox="0 0 245 46" fill="none" xmlns="http://www.w3.org/2000/svg">
<g clip-path="url(#clip0_597_3594)">
<path d="M74.7062 4.43075C74.7062 6.88592 72.7156 8.86157 70.2848 8.86157C67.8539 8.86157 65.8633 6.86674 65.8633 4.43075C65.8633 1.99475 67.8539 -7.60307e-05 70.2848 -7.60307e-05C72.7348 -0.0192571 74.7062 1.97557 74.7062 4.43075Z" fill="#F9007B"/>
<path d="M210.356 11.7194H203.676C203.637 11.2782 203.599 10.4726 203.58 9.8013C203.561 9.45604 203.561 9.16832 203.542 8.95733V8.86143H199.656V8.97651C199.675 9.20668 199.695 9.59031 199.714 10.0123C199.733 10.6261 199.771 11.3166 199.809 11.7194H193.436V15.3254H210.375V11.7194H210.356Z" fill="#002FA7"/>
<path d="M208.844 35.8491C208.366 35.8491 207.983 35.4655 207.983 34.986V20.5618C207.983 19.3343 206.987 18.3368 205.762 18.3368H197.398C196.173 18.3368 195.159 19.3343 195.159 20.581V27.5629C195.159 31.4375 194.374 34.0269 193.723 35.5231C193.015 37.1343 192.307 37.844 192.287 37.8632L192.211 37.9399L194.852 39.8772L194.91 39.9155L194.967 39.8772C195.12 39.7813 198.776 37.3069 198.776 27.5437V22.5183C198.776 22.1922 199.044 21.9237 199.37 21.9237H203.829C204.136 21.9237 204.384 22.1731 204.384 22.48V35.5806C204.384 37.7097 206.107 39.4168 208.232 39.4168L211.122 39.3785V35.7532L208.844 35.8491Z" fill="#002FA7"/>
<path d="M192.383 13.3691C192.383 12.1607 191.407 11.2016 190.22 11.2016H186.564C187.138 10.3768 187.349 9.05332 187.368 8.9766L187.387 8.86151H183.482V8.95742C183.482 8.9766 183.368 9.95483 182.621 11.2016H181.511C180.305 11.2016 179.348 12.1798 179.348 13.3691V22.2499H177.549V25.8751H179.348V27.563C179.348 31.2266 178.563 33.8736 177.913 35.4656C177.204 37.1727 176.477 38.0167 176.477 38.0167L176.4 38.1126L179.348 39.8965L179.405 39.9348L179.463 39.8965C179.616 39.8005 182.985 37.3262 182.985 27.5822V25.8943H188.804V35.0245C188.804 35.4848 188.421 35.8684 187.961 35.8684H185.99V39.4937H189.11C190.909 39.4937 192.383 38.0167 192.383 36.2137V13.3691ZM182.946 15.2488C182.946 15.0186 183.138 14.8076 183.387 14.8076H188.344C188.574 14.8076 188.784 14.9994 188.784 15.2488V22.2499H182.966V15.2488H182.946Z" fill="#002FA7"/>
<path d="M187.482 18.1452C187.463 17.2628 187.444 16.4956 187.444 16.2654V16.1695H184.133V16.2846C184.152 16.5531 184.171 17.4547 184.19 18.4137C184.209 19.6988 184.248 21.1758 184.286 21.521V21.6169H187.578L187.559 21.5019C187.54 21.1182 187.502 19.4687 187.482 18.1452Z" fill="#002FA7"/>
<path d="M187.732 32.0706C187.693 31.7061 187.655 30.0566 187.636 28.7331C187.617 27.8507 187.598 27.0835 187.598 26.8533V26.7574H184.152V26.8725C184.171 27.141 184.191 28.0425 184.21 29.0016C184.229 30.2867 184.267 31.7637 184.305 32.1089V32.2048H187.77L187.732 32.0706Z" fill="#002FA7"/>
<path d="M169.777 15.2297H143.822V11.0674H169.777V15.2297Z" fill="#002FA7"/>
<path d="M165.93 35.3123C165.452 35.3123 165.069 34.9287 165.069 34.4492V24.7244H172.055V20.5621H141.526V24.7244H148.742C148.665 32.3776 140.76 36.4824 140.684 36.5399L140.588 36.5974L142.923 39.9158L143 39.8774C143.095 39.839 152.991 35.1972 153.048 24.7244H160.934V35.6192C160.934 37.7483 162.657 39.4746 164.782 39.4746H172.974V35.3315H165.93V35.3123Z" fill="#002FA7"/>
<path d="M131.803 35.1588C131.343 35.1588 130.96 34.7751 130.96 34.3148V17.2437C130.96 15.4598 129.506 14.0212 127.745 14.0212H116.835V8.86154H112.528V14.0021H105.542V18.2986H112.394C111.265 31.8596 102.938 36.3672 102.862 36.4247L102.747 36.4823L105.331 39.8965L105.408 39.8581C105.427 39.8389 107.992 38.7648 110.652 35.5616C113.102 32.6269 116.126 27.2562 116.701 18.2986H126.06C126.367 18.2986 126.635 18.548 126.635 18.8741V35.5999C126.635 37.729 128.357 39.4553 130.482 39.4553H135.746V35.1396H131.803V35.1588Z" fill="#002FA7"/>
<path d="M231.908 29.6539H243.22V26.0287H216.691V29.6539H228.003V35.8494H214.911V39.4746H245V35.8494H231.908V29.6539Z" fill="#002FA7"/>
<path d="M241.708 11.5854H231.946C231.908 11.1251 231.889 10.3962 231.851 9.80158C231.831 9.4755 231.831 9.1686 231.812 8.97679V8.88089H227.927V8.99597C227.946 9.22615 227.965 9.60977 227.984 10.0318C228.003 10.5688 228.042 11.1826 228.061 11.5854H218.203C216.385 11.5854 214.911 13.0624 214.911 14.8846V18.5865H218.797V16.0354C218.797 15.7285 219.045 15.4792 219.352 15.4792H224.156C223.658 20.9841 215.543 21.6363 215.466 21.6363H215.351L216.098 25.2231H216.174C216.289 25.2231 227.927 24.7053 228.118 15.4792H232.367V20.2361C232.367 22.3652 234.09 24.0915 236.215 24.0915H243.89V20.1977H237.114C236.636 20.1977 236.253 19.8141 236.253 19.3346V15.4792H240.54C240.847 15.4792 241.095 15.7285 241.095 16.0354V18.5865H244.981V14.8846C245 13.0624 243.526 11.5854 241.708 11.5854Z" fill="#002FA7"/>
<path d="M73.7486 11.6429H66.858C66.6475 11.6429 66.4561 11.8155 66.4561 12.0457V39.0718C66.4561 39.2828 66.6283 39.4746 66.858 39.4746H73.7486C73.9592 39.4746 74.1506 39.302 74.1506 39.0718V12.0265C74.1506 11.8155 73.9783 11.6429 73.7486 11.6429Z" fill="#F9007B"/>
<path d="M62.5519 12.0265C62.5519 11.8155 62.3797 11.6429 62.1691 11.6429H56.5227C56.3121 11.6429 56.1207 11.7388 56.0441 12.0457L55.5848 13.2733C55.4316 13.1582 55.5273 13.2349 55.3551 13.1199C53.0391 11.6621 50.5316 10.8181 47.5648 10.8181C39.277 10.8181 32.5586 17.4164 32.5586 25.5492C32.5586 33.6819 38.6836 39.6089 46.9523 39.6089C49.5172 39.6089 52.8477 39.0143 54.7426 36.9811L55.1828 38.9951C55.2019 39.1677 55.3551 39.4363 55.623 39.4363H62.15C62.2648 39.4363 62.3605 39.3979 62.4371 39.3212C62.5137 39.2444 62.5519 39.1485 62.5519 39.0335V12.0265ZM46.9141 33.26C42.7223 33.26 39.3344 29.8074 39.3344 25.53C39.3344 21.2526 42.7223 17.8 46.9141 17.8C51.1059 17.8 54.4938 21.2526 54.4938 25.53C54.4938 29.8074 51.1059 33.26 46.9141 33.26Z" fill="#F9007B"/>
<path d="M94.8223 19.488V12.1416C94.8223 11.9306 94.6691 11.7772 94.4586 11.7388C92.1809 11.4127 88.659 11.3168 85.3668 13.8487L84.9457 12.1032C84.8117 11.758 84.7352 11.6429 84.5055 11.6429H78.4762C78.2656 11.6429 78.0742 11.8155 78.0742 12.0457V39.0718C78.0742 39.2828 78.2465 39.4746 78.4762 39.4746H85.3477C85.5582 39.4746 85.7496 39.302 85.7496 39.0718V22.2884C87.1852 19.1811 92.4871 19.5455 94.3629 19.8908C94.5926 19.9099 94.8223 19.7181 94.8223 19.488Z" fill="#F9007B"/>
<path d="M30.223 23.3433C29.8976 16.1312 24.1363 9.78231 16.9777 8.95753C7.7902 7.92175 0.803869 14.5009 0.0382441 22.883C-0.0957403 24.4175 0.114807 26.0095 0.650744 27.4481C1.8566 30.6513 5.20621 32.8188 8.61324 32.7229C9.93395 32.6845 11.1972 32.2817 12.4222 31.7638C12.7476 31.6679 12.9964 31.361 12.9964 30.9966C12.9964 30.6321 12.7668 30.3636 12.4222 30.2101C9.6277 29.0593 7.73278 26.1437 8.17301 22.8446C8.57496 19.7373 11.1398 17.2246 14.2406 16.8793C18.4324 16.3998 21.9734 19.6797 21.9734 23.7845C21.9734 25.7218 21.0738 27.6782 19.8871 28.7524C19.8871 28.7524 11.9629 37.3647 9.45543 40.0116C9.03434 40.4528 9.07262 41.1242 9.51285 41.527L13.475 45.4591C14.3554 46.2647 15.4273 46.1879 16.4992 45.1138L25.725 34.756C28.8449 31.6487 30.4144 27.8125 30.223 23.3433Z" fill="#F9007B"/>
</g>
<defs>
<clipPath id="clip0_597_3594">
<rect width="245" height="46" fill="white" transform="matrix(1 0 0 -1 0 46)"/>
</clipPath>
</defs>
</svg>
