<svg width="73" height="46" viewBox="0 0 73 46" fill="none" xmlns="http://www.w3.org/2000/svg">
<path d="M42.3247 2.53595C42.3247 3.93464 41.1987 5.0719 39.8137 5.0719C38.4288 5.0719 37.3027 3.93464 37.3027 2.53595C37.3027 1.13725 38.4288 0 39.8137 0C41.1987 0 42.3247 1.13725 42.3247 2.53595Z" fill="#D61F6D"/>
<path d="M55.2291 31.4052H51.8056C51.7862 31.1764 51.7668 30.7581 51.7539 30.4182C51.7474 30.2418 51.7409 30.0914 51.7344 29.9869V29.9346H49.7347V29.9934C49.7476 30.1176 49.7541 30.3137 49.7606 30.5293C49.7735 30.8431 49.7865 31.2025 49.8059 31.4117H46.5312V33.281H55.2291V31.4117V31.4052Z" fill="#083684"/>
<path d="M54.4525 43.8889C54.213 43.8889 54.0124 43.6928 54.0124 43.4445V35.9804C54.0124 35.3464 53.5011 34.8301 52.8734 34.8301H48.5827C47.9485 34.8301 47.4372 35.353 47.4372 35.9869V39.6013C47.4372 41.6079 47.036 42.9477 46.6995 43.719C46.337 44.5556 45.9682 44.9216 45.9682 44.9281L45.9229 44.9739L47.2819 45.9804L47.3078 46L47.3401 45.9804C47.4178 45.9281 49.2946 44.6536 49.2946 39.6079V37.0131C49.2946 36.8432 49.4305 36.7124 49.5923 36.7124H51.8832C52.0385 36.7124 52.168 36.8431 52.168 37V43.7778C52.168 44.8758 53.0481 45.7647 54.1354 45.7647L55.6238 45.7451V43.8693L54.4589 43.8889H54.4525Z" fill="#083684"/>
<path d="M46.0002 32.268C46.0002 31.647 45.5019 31.1438 44.8871 31.1438H43.0103C43.308 30.7189 43.418 30.0261 43.4245 30V29.9412H41.4313V29.9869C41.4313 29.9869 41.3665 30.5033 40.9912 31.1438H40.4217C39.8069 31.1438 39.3086 31.647 39.3086 32.268V36.8562H38.3896V38.7255H39.3086V39.6013C39.3086 41.5033 38.9073 42.8693 38.5643 43.6863C38.1954 44.5686 37.8266 45.0065 37.8201 45.0131L37.7812 45.0588L39.2891 45.9804L39.3215 46L39.3474 45.9804C39.4186 45.9281 41.1594 44.6536 41.1594 39.6078V38.732H44.1493V43.4575C44.1493 43.6993 43.9552 43.8954 43.7157 43.8954H42.7062V45.7712H44.3305C45.256 45.7712 46.0067 45.0131 46.0067 44.0784V32.268H46.0002ZM41.1594 33.2418C41.1594 33.1176 41.2565 33.0196 41.3795 33.0196H43.9228C44.0458 33.0196 44.1429 33.1176 44.1429 33.2418V36.8627H41.153V33.2418H41.1594Z" fill="#083684"/>
<path d="M43.4832 34.732C43.4767 34.2744 43.4638 33.8823 43.4573 33.7581V33.7058H41.7617V33.7646C41.7747 33.9019 41.7811 34.3659 41.7941 34.8627C41.807 35.5293 41.82 36.2875 41.8394 36.4705V36.5163H43.5349V36.4574C43.5091 36.2679 43.4896 35.4182 43.4767 34.732" fill="#083684"/>
<path d="M43.6185 41.9346C43.5991 41.745 43.5796 40.8953 43.5667 40.2091C43.5602 39.7515 43.5473 39.3594 43.5408 39.2352V39.1895H41.7676V39.2417C41.7805 39.379 41.787 39.843 41.7999 40.3398C41.8129 41.0064 41.8323 41.7646 41.8452 41.9476V41.9934H43.6249V41.9346H43.6185Z" fill="#083684"/>
<path d="M34.4032 31.0718H21.0781V33.2286H34.4032V31.0718Z" fill="#083684"/>
<path d="M32.4289 43.6144C32.1894 43.6144 31.9888 43.4183 31.9888 43.17V38.1307H35.5741V35.9739H19.9063V38.1307H23.608C23.5757 42.0915 19.518 44.2157 19.4727 44.2353L19.4209 44.2615L20.6182 45.9804L20.657 45.9608C20.7088 45.9347 25.7825 43.5425 25.8149 38.1242H29.8596V43.7647C29.8596 44.8628 30.7398 45.7517 31.827 45.7517H36.0336V43.6079H32.4289V43.6144Z" fill="#083684"/>
<path d="M14.9106 43.5294C14.6712 43.5294 14.477 43.3333 14.477 43.0915V34.268C14.477 33.3464 13.7328 32.6013 12.8268 32.6013H7.22881V29.9412H5.02199V32.6013H1.43023V34.8301H4.9508C4.36835 41.8497 0.103546 44.1765 0.0582447 44.2026L0 44.2287L1.33316 45.9869L1.37199 45.9738C1.37199 45.9738 2.70514 45.4118 4.06418 43.7516C5.31968 42.2353 6.87287 39.451 7.17057 34.8301H11.979C12.1408 34.8301 12.2702 34.9608 12.2702 35.1242V43.7778C12.2702 44.8758 13.1568 45.7712 14.2441 45.7712H16.9492V43.5425H14.9106V43.5294Z" fill="#083684"/>
<path d="M66.2827 40.6862H72.0878V38.8169H58.4844V40.6862H64.2895V43.8888H57.5654V45.7581H73.0067V43.8888H66.2827V40.6862Z" fill="#083684"/>
<path d="M71.3173 31.3334H66.3082C66.2888 31.0982 66.2759 30.7191 66.2629 30.4119C66.2565 30.2419 66.25 30.0851 66.2435 29.9805V29.9282H64.2438V29.9805C64.2567 30.1047 64.2632 30.3008 64.2697 30.5165C64.2826 30.7975 64.2956 31.1112 64.3085 31.3204H59.2477C58.3158 31.3204 57.5586 32.0851 57.5586 33.0263V34.9413H59.5519V33.6276C59.5519 33.4707 59.6813 33.34 59.8366 33.34H62.3088C62.0499 36.1897 57.8886 36.523 57.8498 36.523H57.7916L58.1734 38.3792H58.2187C58.2769 38.3792 64.2438 38.1047 64.3473 33.34H66.5283V35.7975C66.5283 36.8955 67.4149 37.7844 68.4957 37.7844H72.4369V35.7714H68.9616C68.7222 35.7714 68.5215 35.5753 68.5215 35.3269V33.3335H70.7219C70.8772 33.3335 71.0066 33.4642 71.0066 33.621V34.9348H72.9999V33.0197C72.9999 32.0785 72.2427 31.3138 71.3108 31.3138" fill="#083684"/>
<path d="M41.7871 6.65351H37.8847C37.7617 6.65351 37.6582 6.75808 37.6582 6.88227V22.3071C37.6582 22.4313 37.7553 22.5359 37.8847 22.5359H41.7871C41.9101 22.5359 42.0071 22.4378 42.0071 22.3071V6.87573C42.0071 6.75155 41.9101 6.64697 41.7871 6.64697" fill="#D61F6D"/>
<path d="M35.432 6.87592C35.432 6.75173 35.3349 6.65369 35.212 6.65369H32.015C31.892 6.65369 31.7885 6.71252 31.7432 6.88245L31.4778 7.5818C31.3872 7.52298 31.439 7.55565 31.3484 7.49683C30.0282 6.66677 28.6109 6.18311 26.9348 6.18311C22.2428 6.18311 18.4375 9.94781 18.4375 14.5883C18.4375 19.2289 21.8998 22.6145 26.5918 22.6145C28.0414 22.6145 29.9311 22.2811 31.0119 21.1177L31.2643 22.2681C31.2772 22.3727 31.3613 22.523 31.5102 22.523H35.2055C35.2702 22.523 35.322 22.4968 35.3608 22.4576C35.3996 22.4184 35.4255 22.3596 35.4255 22.3008V6.87592H35.432ZM26.5788 19.0001C24.2037 19.0001 22.2881 17.0328 22.2881 14.5883C22.2881 12.1439 24.2037 10.1766 26.5788 10.1766C28.9539 10.1766 30.8695 12.1439 30.8695 14.5883C30.8695 17.0328 28.9539 19.0001 26.5788 19.0001Z" fill="#D61F6D"/>
<path d="M53.7147 11.1306V6.93453C53.7147 6.81689 53.6241 6.72538 53.5141 6.70577C52.2198 6.51623 50.2265 6.47048 48.3691 7.90185L48.1232 6.90839C48.052 6.71231 48.0067 6.64695 47.8708 6.64695H44.4603C44.3373 6.64695 44.2402 6.75153 44.2402 6.87571V22.3005C44.2402 22.4247 44.3373 22.5293 44.4603 22.5293H48.3562C48.4792 22.5293 48.5827 22.4313 48.5827 22.3005V12.7123C49.3981 10.9345 52.401 11.1502 53.4623 11.3463C53.5982 11.3724 53.7212 11.2613 53.7212 11.1241" fill="#D61F6D"/>
<path d="M17.124 13.3398C16.9428 9.22216 13.6747 5.59471 9.61694 5.13066C4.41375 4.53589 0.459582 8.29406 0.0324547 13.0784C-0.0452048 13.9542 0.0777561 14.8692 0.381923 15.6862C1.06792 17.5097 2.95763 18.7581 4.88618 18.6993C5.63689 18.6797 6.35524 18.4509 7.04123 18.1503C7.22891 18.0914 7.37128 17.9215 7.37128 17.7124C7.37128 17.5032 7.23538 17.3529 7.04123 17.2679C5.45568 16.6143 4.38786 14.9477 4.63378 13.0653C4.86029 11.2875 6.30994 9.85615 8.07669 9.65354C10.4518 9.38556 12.458 11.2548 12.458 13.5947C12.458 14.7058 11.9467 15.8169 11.2802 16.4248C11.2802 16.4248 6.79531 21.3398 5.36508 22.8496C5.1321 23.098 5.14504 23.4901 5.39744 23.7189L7.64309 25.9673C8.14141 26.4248 8.74974 26.379 9.3516 25.7712L14.5742 19.8561C16.3345 18.0784 17.2276 15.8823 17.1176 13.3398" fill="#D61F6D"/>
</svg>
