<svg width="36" height="46" viewBox="0 0 36 46" fill="none" xmlns="http://www.w3.org/2000/svg">
<g clip-path="url(#clip0_583_2151)">
<mask id="mask0_583_2151" style="mask-type:luminance" maskUnits="userSpaceOnUse" x="0" y="9" width="36" height="37">
<path d="M17.9993 45.9985C27.94 45.9985 35.9986 37.8278 35.9986 27.7487C35.9986 17.6696 27.94 9.4989 17.9993 9.4989C8.05856 9.4989 0 17.6696 0 27.7487C0 37.8278 8.05856 45.9985 17.9993 45.9985Z" fill="white"/>
</mask>
<g mask="url(#mask0_583_2151)">
<path d="M0 9.4989H36V46H0V9.4989Z" fill="url(#paint0_radial_583_2151)"/>
</g>
<mask id="mask1_583_2151" style="mask-type:luminance" maskUnits="userSpaceOnUse" x="17" y="7" width="16" height="19">
<path d="M31.732 7.10327C33.2134 9.21495 33.701 13.8088 30.8293 18.0912C27.9221 22.4169 22.6009 24.9797 17.1973 25.5304C17.3863 25.4583 17.574 25.3848 17.7631 25.3084L17.901 25.2507L17.9365 25.2349C24.766 22.3809 31.3681 15.5442 31.732 7.10471V7.10327Z" fill="white"/>
</mask>
<g mask="url(#mask1_583_2151)">
<path d="M17.1973 7.10327H32.9177V25.5289H17.1973V7.10327Z" fill="url(#paint1_radial_583_2151)"/>
</g>
<mask id="mask2_583_2151" style="mask-type:luminance" maskUnits="userSpaceOnUse" x="4" y="30" width="23" height="15">
<path d="M16.353 33.3054C17.6338 31.7803 21.8447 29.7782 24.8685 31.8193C27.3479 33.4942 27.9108 37.7665 23.7796 41.1697C22.3736 42.3286 18.6162 44.6061 13.3107 44.1117C9.58314 43.7657 6.69154 42.4612 4.97705 40.338C6.99293 42.1643 9.83761 43.1286 12.4349 43.2944C14.6242 43.4212 17.4306 43.3708 20.2056 41.4984C24.2743 38.751 23.7199 35.0235 21.9883 33.6499C20.7287 32.6524 18.6674 32.3425 16.4994 33.4553L16.353 33.3068V33.3054Z" fill="white"/>
</mask>
<g mask="url(#mask2_583_2151)">
<path d="M4.97705 30.953H26.8062V44.1809H4.97705V30.953Z" fill="#898989"/>
</g>
<mask id="mask3_583_2151" style="mask-type:luminance" maskUnits="userSpaceOnUse" x="17" y="0" width="15" height="26">
<path d="M29.7093 0.0273438C30.4756 0.740846 31.9768 3.66693 31.8773 7.25174C31.6285 16.4624 23.5764 23.5239 17.3454 25.6702L17.1904 25.5217C23.1371 21.6371 28.9914 13.3446 29.7093 0.0273438Z" fill="white"/>
</mask>
<g mask="url(#mask3_583_2151)">
<path d="M17.1904 0.0273438H31.8816V25.6702H17.1904V0.0273438Z" fill="#898989"/>
</g>
<mask id="mask4_583_2151" style="mask-type:luminance" maskUnits="userSpaceOnUse" x="0" y="11" width="32" height="27">
<path d="M18.5794 11.5126C19.6868 11.4232 20.6962 12.1626 20.9606 13.2567C21.2904 14.5972 20.4218 15.7619 19.8006 16.2779C19.04 16.9092 17.5785 17.5824 14.8703 17.3085C15.9181 17.4512 16.845 18.0681 17.3895 18.9863C18.6519 21.0547 17.3354 24.161 15.7645 27.7977C24.0029 25.7869 29.0966 21.5347 31.9001 16.1698C32.2796 25.7149 24.5929 29.3054 14.903 29.9036C13.797 32.9003 13.9036 34.6891 15.756 35.6477C16.7767 36.1781 18.6732 35.8178 19.3542 35.0379L19.5006 35.1864C16.6531 38.4109 12.59 37.3341 11.2352 36.0988C9.37714 34.3951 9.37714 32.2805 10.3382 29.9872C6.92056 29.9051 3.51433 29.5663 0.146484 28.9739L0.361151 28.984C4.21662 29.1714 7.89723 29.1007 10.9694 28.6986C11.3447 28.0226 11.7527 27.3653 12.1934 26.7325C15.3736 22.1012 16.1086 20.0385 15.4745 18.7369C14.9386 17.6443 13.7003 17.3849 12.6895 17.4699L12.5431 17.3215C13.1516 17.2364 13.7657 17.1946 14.3799 17.1975C16.1896 17.1312 17.3738 16.928 18.1586 16.497C19.3371 15.8541 19.9839 15.0138 19.9839 13.888C19.9839 12.7623 19.3172 12.3471 18.7969 12.2405C18.2396 12.0848 17.6468 12.3068 17.3198 12.7896C17.0085 13.3201 17.1336 14.1143 17.8458 14.2786C18.3363 14.3939 18.8097 13.8058 18.8097 13.8058L18.9589 13.9457C18.9675 14.2902 18.8296 14.6231 18.5794 14.8566C18.3292 15.0902 17.9922 15.204 17.6525 15.168C17.0426 15.1348 16.2522 14.6894 16.3901 13.4354C16.528 12.1799 17.6255 11.5587 18.5765 11.5126H18.5794Z" fill="white"/>
</mask>
<g mask="url(#mask4_583_2151)">
<path d="M0.146484 11.5054H31.9143V37.3169H0.146484V11.5054Z" fill="#898989"/>
</g>
<mask id="mask5_583_2151" style="mask-type:luminance" maskUnits="userSpaceOnUse" x="14" y="11" width="7" height="7">
<path d="M18.43 11.3857C19.5375 11.2964 20.5468 12.0358 20.8113 13.1298C21.1411 14.4704 20.2753 15.635 19.6512 16.1511C18.8437 16.8184 17.2259 17.555 14.2163 17.1283C16.026 17.062 17.2231 16.7853 18.0092 16.3572C19.1878 15.7143 19.8346 14.874 19.8346 13.7482C19.8346 12.6225 19.1679 12.2073 18.6504 12.1007C18.0917 11.945 17.4974 12.1655 17.1705 12.6498C16.8591 13.1803 16.9842 13.9745 17.6965 14.1388C18.1002 14.2412 18.5253 14.1143 18.8096 13.8059C18.8224 14.1532 18.6859 14.4891 18.4357 14.7269C18.1855 14.9648 17.8457 15.0786 17.5045 15.0426C16.8947 15.0094 16.0744 14.564 16.2151 13.31C16.3559 12.0545 17.4775 11.4333 18.4286 11.3872L18.43 11.3857Z" fill="white"/>
</mask>
<g mask="url(#mask5_583_2151)">
<path d="M14.2178 11.3785H20.8852V17.2552H14.2178V11.3785Z" fill="url(#paint2_linear_583_2151)"/>
</g>
<mask id="mask6_583_2151" style="mask-type:luminance" maskUnits="userSpaceOnUse" x="14" y="11" width="7" height="7">
<path d="M18.3476 11.7922C18.8665 11.798 19.3627 12.0157 19.7209 12.3962C20.4715 13.2207 20.4872 14.8163 19.1921 15.8743C17.7022 17.0909 15.6778 17.1269 14.6372 17.1269H14.4225C14.3457 17.1269 14.2775 17.1269 14.2178 17.1298C16.0275 17.0635 17.2245 16.7868 18.0107 16.3587C19.1892 15.7158 19.8361 14.8754 19.8361 13.7497C19.8361 12.6239 19.1693 12.2088 18.6518 12.1021C18.0931 11.9465 17.4989 12.167 17.1719 12.6513C16.8606 13.1818 16.9857 13.976 17.6979 14.1403C18.1017 14.2426 18.5267 14.1158 18.8111 13.8073C18.6632 14.3767 18.1358 14.7587 17.5572 14.7169C16.444 14.6434 16.1483 13.2164 16.9615 12.3717C17.3269 11.9984 17.8273 11.7894 18.3462 11.7951L18.3476 11.7922Z" fill="white"/>
</mask>
<g mask="url(#mask6_583_2151)">
<path d="M14.2178 11.7922H20.2355V17.1298H14.2178V11.7922Z" fill="url(#paint3_linear_583_2151)"/>
</g>
<mask id="mask7_583_2151" style="mask-type:luminance" maskUnits="userSpaceOnUse" x="14" y="11" width="7" height="7">
<path d="M18.349 11.7792C18.8793 11.7792 19.3868 12.0012 19.7521 12.3918C20.1331 12.8315 20.3194 13.4109 20.2668 13.9933C20.2014 14.7543 19.8218 15.4534 19.2205 15.9161C17.8329 17.0145 15.9834 17.1413 14.9044 17.1413C14.7423 17.1413 14.4679 17.1413 14.2163 17.1082C14.5191 17.1082 14.7281 17.0923 14.893 17.0923C15.9763 17.0923 17.8102 16.9712 19.1764 15.8556C19.7621 15.403 20.1331 14.7226 20.2028 13.9788C20.2554 13.4095 20.0749 12.843 19.701 12.4135C19.347 12.0372 18.8594 11.8225 18.3462 11.8167C17.8358 11.8052 17.3439 12.0113 16.9913 12.3846C16.5776 12.8055 16.4369 13.4297 16.6288 13.9918C16.7738 14.3954 17.1449 14.6722 17.5685 14.6923C17.8457 14.7183 18.1244 14.639 18.349 14.4732C18.5637 14.3017 18.7271 14.074 18.821 13.8145C18.7584 14.0797 18.6134 14.3161 18.4059 14.4905C18.1684 14.6808 17.8671 14.7716 17.5657 14.7399C17.1221 14.724 16.7326 14.4358 16.5819 14.012C16.3886 13.4354 16.5336 12.7969 16.9558 12.3644C17.3197 11.9839 17.823 11.772 18.3462 11.7792H18.349Z" fill="white"/>
</mask>
<g mask="url(#mask7_583_2151)">
<path d="M14.2178 11.7778H20.2768V17.1399H14.2178V11.7778Z" fill="#FFF361"/>
</g>
<mask id="mask8_583_2151" style="mask-type:luminance" maskUnits="userSpaceOnUse" x="17" y="0" width="15" height="26">
<path d="M29.7062 0.00292969C30.1668 0.340222 31.8273 3.51567 31.732 7.10336C31.4804 16.314 23.4311 23.3755 17.1973 25.5218C22.9336 21.4757 28.9854 13.375 29.7062 0.00292969Z" fill="white"/>
</mask>
<g mask="url(#mask8_583_2151)">
<path d="M17.1973 0.00292969H31.7363V25.5218H17.1973V0.00292969Z" fill="url(#paint4_linear_583_2151)"/>
</g>
<mask id="mask9_583_2151" style="mask-type:luminance" maskUnits="userSpaceOnUse" x="17" y="0" width="15" height="26">
<path d="M29.7062 0.00292969C30.1668 0.340222 31.8273 3.51567 31.732 7.10336C31.4804 16.314 23.4311 23.3755 17.1973 25.5218C22.554 23.0051 27.996 17.372 30.0659 10.5368C31.9766 4.22773 29.7062 0.00292969 29.7062 0.00292969Z" fill="white"/>
</mask>
<g mask="url(#mask9_583_2151)">
<path d="M17.1973 0.00292969H31.7363V25.5218H17.1973V0.00292969Z" fill="url(#paint5_linear_583_2151)"/>
</g>
<mask id="mask10_583_2151" style="mask-type:luminance" maskUnits="userSpaceOnUse" x="17" y="0" width="14" height="26">
<path d="M29.7166 0C29.8687 0.25369 29.9924 0.524676 30.0848 0.807195C30.3251 1.4861 30.507 2.18663 30.6265 2.89725C31.0487 5.45145 30.8639 8.07195 30.0848 10.5397C29.0186 13.927 27.2415 17.039 24.8745 19.6624C22.9056 21.8937 20.5641 23.7531 17.9554 25.1556C17.7095 25.3012 17.4493 25.405 17.1963 25.5203L17.9441 25.1225C20.5457 23.7185 22.8828 21.8591 24.8447 19.6292C27.206 17.0116 28.9802 13.9054 30.0436 10.5267C30.8212 8.06762 31.0074 5.45577 30.5852 2.91022C30.4644 2.20537 30.2838 1.51349 30.0436 0.841789C29.8517 0.308464 29.718 0.017297 29.7152 0.00144142L29.7166 0Z" fill="white"/>
</mask>
<g mask="url(#mask10_583_2151)">
<path d="M17.1978 0H30.8483V25.5218H17.1978V0Z" fill="#FFF361"/>
</g>
<mask id="mask11_583_2151" style="mask-type:luminance" maskUnits="userSpaceOnUse" x="0" y="16" width="32" height="14">
<path d="M31.8984 16.1598C31.8984 30.2569 15.308 31.1059 0.13916 28.9682C17.6537 29.5967 27.6293 24.3557 31.8984 16.1598Z" fill="white"/>
</mask>
<g mask="url(#mask11_583_2151)">
<path d="M0.137695 16.1598H31.8984V29.8518H0.137695V16.1598Z" fill="url(#paint6_linear_583_2151)"/>
</g>
<mask id="mask12_583_2151" style="mask-type:luminance" maskUnits="userSpaceOnUse" x="0" y="16" width="32" height="14">
<path d="M31.8984 16.1598C31.8984 30.2569 15.308 31.1059 0.13916 28.974C3.4274 29.3171 15.6492 30.3116 23.8506 26.5985C31.1805 23.2746 31.8473 16.8459 31.8956 16.2117L31.8984 16.18C31.8984 16.1684 31.8984 16.1612 31.8984 16.1612V16.1598Z" fill="white"/>
</mask>
<g mask="url(#mask12_583_2151)">
<path d="M0.137695 16.1598H31.8984V29.8533H0.137695V16.1598Z" fill="url(#paint7_linear_583_2151)"/>
</g>
<mask id="mask13_583_2151" style="mask-type:luminance" maskUnits="userSpaceOnUse" x="0" y="16" width="32" height="14">
<path d="M31.8986 16.1655C31.8972 16.536 31.8503 16.905 31.7607 17.2639C31.5503 18.2412 31.2247 19.1896 30.7911 20.0876C29.8315 22.0739 27.8541 24.8184 23.8607 26.6259C21.2079 27.8295 16.4028 29.2824 8.52128 29.3949L7.56452 29.3891C5.4406 29.3891 3.58679 29.2983 2.26325 29.1916C1.08472 29.0979 0.14502 28.9725 0.14502 28.9725L1.90358 29.1152C3.41762 29.2392 5.7889 29.3732 8.5227 29.3343C12.8573 29.2709 19.0428 28.7433 23.8408 26.5711C27.8199 24.7694 29.8017 22.0335 30.7485 20.0559C31.1835 19.1565 31.5091 18.208 31.7181 17.2293C31.7991 16.879 31.8602 16.5244 31.9 16.167L31.8986 16.1655Z" fill="white"/>
</mask>
<g mask="url(#mask13_583_2151)">
<path d="M0.143555 16.1655H31.8986V29.3949H0.143555V16.1655Z" fill="#FFF361"/>
</g>
<mask id="mask14_583_2151" style="mask-type:luminance" maskUnits="userSpaceOnUse" x="4" y="30" width="23" height="15">
<path d="M24.7207 31.6723C27.2 33.3501 27.763 37.6196 23.6374 41.0112C22.2286 42.173 18.4741 44.4476 13.1671 43.9532C9.44243 43.6072 6.56504 42.3215 4.8335 40.1796C6.79251 42.0174 9.63151 42.8548 12.2246 43.1027C14.1807 43.2873 17.4505 43.1215 20.0805 41.3557C24.0796 38.6689 23.5806 34.8622 21.849 33.4914C20.5809 32.5054 18.5082 32.1955 16.3516 33.3069C17.486 31.7689 21.596 29.5635 24.7207 31.6723Z" fill="white"/>
</mask>
<g mask="url(#mask14_583_2151)">
<path d="M4.8335 30.8031H26.6598V44.0224H4.8335V30.8031Z" fill="url(#paint8_linear_583_2151)"/>
</g>
<mask id="mask15_583_2151" style="mask-type:luminance" maskUnits="userSpaceOnUse" x="4" y="31" width="22" height="13">
<path d="M16.3474 33.3054C18.2225 31.4705 22.4163 30.6546 24.2033 32.723C25.905 34.6848 25.2596 38.3316 21.7808 41.0026C17.0312 44.6537 8.59804 43.8753 4.81934 40.1896C6.79114 42.0274 9.61735 42.8649 12.2104 43.1128C14.1723 43.2886 17.442 43.1315 20.0663 41.3658C24.0654 38.679 23.5664 34.8751 21.8349 33.5014C20.5753 32.504 18.5139 32.207 16.3459 33.3068L16.3474 33.3054Z" fill="white"/>
</mask>
<g mask="url(#mask15_583_2151)">
<path d="M4.81934 31.505H25.1075V43.3794H4.81934V31.505Z" fill="url(#paint9_linear_583_2151)"/>
</g>
<mask id="mask16_583_2151" style="mask-type:luminance" maskUnits="userSpaceOnUse" x="4" y="31" width="22" height="13">
<path d="M21.3289 31.4704C22.5728 31.5223 23.5722 31.9461 24.2191 32.6928C24.9242 33.5475 25.2455 34.6632 25.1019 35.7688C24.9171 37.6253 23.7087 39.5381 21.7938 41.0069C19.7992 42.5564 16.9872 43.4025 13.962 43.4025C13.6208 43.4025 13.2796 43.4025 12.9356 43.3722C9.70136 43.169 6.70741 41.9928 4.86924 40.2472L4.80811 40.1881C6.62922 41.9323 9.66582 43.1157 12.9356 43.3218C16.3361 43.5366 19.5519 42.6818 21.7653 40.9809C23.6618 39.5164 24.8702 37.6181 25.0564 35.7615C25.1972 34.6704 24.8816 33.5677 24.1835 32.723C23.5438 31.9836 22.5586 31.5699 21.3275 31.5166C19.5064 31.4517 17.7293 32.083 16.3475 33.2881C16.6091 33.0228 16.8977 32.7865 17.209 32.5818C18.4487 31.8193 19.8774 31.4315 21.3275 31.4661L21.3289 31.4704Z" fill="white"/>
</mask>
<g mask="url(#mask16_583_2151)">
<path d="M4.80957 31.469H25.1361V43.4039H4.80957V31.469Z" fill="#FFF361"/>
</g>
<mask id="mask17_583_2151" style="mask-type:luminance" maskUnits="userSpaceOnUse" x="9" y="17" width="11" height="21">
<path d="M17.2418 18.838C18.5966 21.0361 17.0257 24.386 15.3453 28.3038C13.665 32.2215 13.4844 34.3938 15.6169 35.4979C16.7229 36.0716 18.6208 35.8164 19.3614 35.0366C16.5168 38.2611 12.448 37.1843 11.0961 35.949C8.38644 33.477 9.63606 30.0926 12.0557 26.5712C15.2288 21.9399 15.9623 19.8772 15.3368 18.5857C14.7952 17.4874 13.5541 17.212 12.5433 17.3086C13.9365 16.9266 16.0647 16.905 17.2432 18.838H17.2418Z" fill="white"/>
</mask>
<g mask="url(#mask17_583_2151)">
<path d="M9.56494 17.1039H19.36V37.1655H9.56494V17.1039Z" fill="url(#paint10_linear_583_2151)"/>
</g>
<mask id="mask18_583_2151" style="mask-type:luminance" maskUnits="userSpaceOnUse" x="12" y="17" width="8" height="20">
<path d="M12.5332 17.3085C13.9264 16.915 16.0503 16.915 17.2331 18.8379C18.5879 21.0274 17.017 24.4061 15.3366 28.3037C13.6563 32.2013 13.4757 34.3994 15.6082 35.4978C16.7142 36.0715 18.6121 35.8163 19.3527 35.0365C17.199 37.4178 11.9489 36.9507 12.1024 32.7865C12.1977 30.1717 13.7387 28.0644 15.0182 25.5203C15.0409 25.4742 15.0651 25.428 15.0878 25.3805L15.1575 25.2406L15.2272 25.0994C15.321 24.9106 15.4134 24.7189 15.5058 24.5271L15.574 24.383C16.5294 22.3549 17.2857 20.1899 16.454 18.7499C15.2272 16.6296 12.5389 17.3085 12.5318 17.3085H12.5332Z" fill="white"/>
</mask>
<g mask="url(#mask18_583_2151)">
<path d="M12.0981 17.101H19.3513V36.4736H12.0981V17.101Z" fill="url(#paint11_linear_583_2151)"/>
</g>
<mask id="mask19_583_2151" style="mask-type:luminance" maskUnits="userSpaceOnUse" x="12" y="17" width="8" height="20">
<path d="M16.4879 18.75C17.4191 20.3572 16.3756 22.8768 15.2326 25.1831L15.1601 25.3286C15.1488 25.3531 15.136 25.3776 15.1246 25.4007L15.0521 25.5449C14.7649 26.1157 14.4621 26.6677 14.1693 27.1924C13.1642 29.0302 12.2131 30.7628 12.1377 32.788C12.0809 34.3678 12.8017 35.5512 14.1693 36.1205C15.6819 36.6928 17.3736 36.4881 18.71 35.5714C18.9474 35.4142 19.1677 35.2297 19.3653 35.0222C19.1748 35.2355 18.9644 35.4301 18.7398 35.6045C17.8939 36.1854 16.8974 36.4953 15.8766 36.4939C15.2852 36.4996 14.6995 36.3872 14.1508 36.1638C12.7633 35.5872 12.0325 34.3865 12.0923 32.7851C12.1648 30.7498 13.1187 29.0115 14.1266 27.1679C14.4195 26.6346 14.7223 26.0695 15.0094 25.5203C15.045 25.4483 15.082 25.3762 15.1175 25.3041L15.19 25.16C15.2142 25.1124 15.2383 25.0634 15.2611 25.0144L15.3322 24.8688C16.4112 22.6577 17.3281 20.2952 16.4481 18.7731C15.6677 17.4239 14.2801 17.2178 13.3888 17.2437C13.1087 17.2509 12.8301 17.2754 12.5543 17.3172C12.8272 17.2495 13.1073 17.2091 13.3888 17.1962C14.2915 17.1745 15.7004 17.3807 16.4879 18.7486V18.75Z" fill="white"/>
</mask>
<g mask="url(#mask19_583_2151)">
<path d="M12.0879 17.1962H19.3652V36.4953H12.0879V17.1962Z" fill="#FFF361"/>
</g>
</g>
<defs>
<radialGradient id="paint0_radial_583_2151" cx="0" cy="0" r="1" gradientUnits="userSpaceOnUse" gradientTransform="translate(17.951 27.5181) scale(17.4278 17.6704)">
<stop stop-color="#E60012"/>
<stop offset="0.7" stop-color="#C7000A"/>
<stop offset="1" stop-color="#7C0000"/>
</radialGradient>
<radialGradient id="paint1_radial_583_2151" cx="0" cy="0" r="1" gradientUnits="userSpaceOnUse" gradientTransform="translate(17.9507 27.5195) scale(0.0710816 0.0720709)">
<stop stop-color="#E60012"/>
<stop offset="0.7" stop-color="#C7000A"/>
<stop offset="1" stop-color="#7C0000"/>
</radialGradient>
<linearGradient id="paint2_linear_583_2151" x1="17.2231" y1="10.7933" x2="17.6264" y2="15.007" gradientUnits="userSpaceOnUse">
<stop stop-color="#FFF100"/>
<stop offset="1" stop-color="#F6AB00"/>
</linearGradient>
<linearGradient id="paint3_linear_583_2151" x1="17.2345" y1="15.2084" x2="17.2009" y2="12.154" gradientUnits="userSpaceOnUse">
<stop stop-color="#FFF100"/>
<stop offset="1" stop-color="#F6AB00"/>
</linearGradient>
<linearGradient id="paint4_linear_583_2151" x1="24.5372" y1="3.01838" x2="24.3954" y2="22.0624" gradientUnits="userSpaceOnUse">
<stop stop-color="#FFF100"/>
<stop offset="1" stop-color="#F6AB00"/>
</linearGradient>
<linearGradient id="paint5_linear_583_2151" x1="17.1973" y1="12.7609" x2="31.7363" y2="12.7609" gradientUnits="userSpaceOnUse">
<stop stop-color="#FFF100"/>
<stop offset="1" stop-color="#F6AB00"/>
</linearGradient>
<linearGradient id="paint6_linear_583_2151" x1="25.8508" y1="15.6683" x2="12.2175" y2="25.5639" gradientUnits="userSpaceOnUse">
<stop stop-color="#FFF100"/>
<stop offset="1" stop-color="#F6AB00"/>
</linearGradient>
<linearGradient id="paint7_linear_583_2151" x1="0.137695" y1="23.008" x2="31.897" y2="23.008" gradientUnits="userSpaceOnUse">
<stop stop-color="#FFF100"/>
<stop offset="1" stop-color="#F6AB00"/>
</linearGradient>
<linearGradient id="paint8_linear_583_2151" x1="23.5095" y1="27.7329" x2="16.5385" y2="36.1905" gradientUnits="userSpaceOnUse">
<stop stop-color="#FFF100"/>
<stop offset="1" stop-color="#F6AB00"/>
</linearGradient>
<linearGradient id="paint9_linear_583_2151" x1="15.6038" y1="43.3837" x2="14.4993" y2="33.424" gradientUnits="userSpaceOnUse">
<stop stop-color="#FFF100"/>
<stop offset="1" stop-color="#F6AB00"/>
</linearGradient>
<linearGradient id="paint10_linear_583_2151" x1="15.4875" y1="39.4877" x2="14.2937" y2="25.487" gradientUnits="userSpaceOnUse">
<stop stop-color="#FFF100"/>
<stop offset="1" stop-color="#F6AB00"/>
</linearGradient>
<linearGradient id="paint11_linear_583_2151" x1="15.4305" y1="18.7427" x2="15.8294" y2="29.3454" gradientUnits="userSpaceOnUse">
<stop stop-color="#FFF100"/>
<stop offset="1" stop-color="#F6AB00"/>
</linearGradient>
<clipPath id="clip0_583_2151">
<rect width="36" height="46" fill="white"/>
</clipPath>
</defs>
</svg>
