<svg width="148" height="46" viewBox="0 0 148 46" fill="none" xmlns="http://www.w3.org/2000/svg">
<g clip-path="url(#clip0_572_2017)">
<path d="M41.6756 0C41.592 0.324533 41.5503 0.544379 41.4772 0.753755C40.0988 4.98316 36.3082 7.97724 31.8806 8.32271C30.3769 8.43787 28.8523 8.43787 27.38 8.90897C21.9081 10.6677 18.6397 14.3842 17.6059 20.0478C17.4701 20.8225 17.4597 21.6391 17.4597 22.4347C17.4388 25.6067 17.4806 28.7788 17.4388 31.9508C17.397 34.8716 16.0395 37.0387 13.4289 38.3264C8.98046 40.5143 3.64439 37.2271 3.58174 32.2649C3.52953 27.8366 3.5713 23.3978 3.56086 18.9695C3.56086 18.6659 3.56086 18.3414 3.47732 18.0482C3.2267 17.1584 2.43308 16.5617 1.47238 16.5198C0.992027 16.4989 0.501235 16.5198 0.0208848 16.5198C0.0208848 16.4675 0.0104424 16.4151 0 16.3628C0.146193 16.3314 0.292387 16.2581 0.449023 16.2581C1.76476 16.2581 3.07006 16.2581 4.3858 16.2581H5.26297C5.33606 15.9545 5.37783 15.7137 5.45093 15.4624C5.85818 14.0282 7.21569 13.0756 8.67763 13.3059C9.92027 13.4943 10.9436 13.0756 11.9043 12.3741C12.0714 12.259 12.228 12.1334 12.3951 12.0077C12.4056 11.9973 12.4473 12.0077 12.4995 12.0077C12.5413 12.9185 12.1549 13.6618 11.5075 14.2585C10.5259 15.1589 9.38771 15.452 8.08241 15.0542C7.10083 14.7506 6.4534 15.096 6.11924 15.9964C6.09836 16.0382 6.11924 16.101 6.11924 16.1848C6.22367 16.2162 6.34897 16.2581 6.46384 16.3C7.65427 16.635 8.21816 17.3364 8.27037 18.5717C8.29126 19.0323 8.27037 19.5034 8.27037 19.964C8.27037 23.7014 8.27037 27.4388 8.27037 31.1762C8.27037 32.1812 8.70895 32.8407 9.51302 33.0815C10.6512 33.4269 11.7999 32.6941 11.9565 31.5112C11.9983 31.2076 11.9879 30.8935 11.9879 30.5899C11.9983 27.3969 11.8939 24.1934 12.0505 21.0005C12.4891 12.1438 19.0574 4.99363 27.3695 3.51752C28.8732 3.24533 30.3874 3.23487 31.9015 3.2244C35.264 3.20346 38.3236 2.24033 41.1013 0.35594C41.2474 0.261721 41.4041 0.17797 41.6651 0.0209376" fill="#DD2525"/>
<path d="M39.8065 6.35461C39.7021 7.6004 39.3993 8.60541 38.9085 9.5476C37.1855 12.8453 34.4496 14.625 30.753 14.7611C27.5159 14.8762 24.498 17.1584 23.8088 20.6027C23.6835 21.2517 23.6522 21.9322 23.6522 22.6022C23.6417 26.1093 23.6313 29.6059 23.6522 33.1129C23.6522 35.3637 23.0987 37.4365 21.8143 39.3C17.794 45.1102 9.09548 45.0369 5.16914 39.1534C5.0856 39.0278 5.02295 38.8917 5.02295 38.6719C5.22135 38.7975 5.4302 38.9126 5.61817 39.0487C10.1397 42.0742 16.2068 40.2841 18.2848 35.3114C18.7443 34.2017 18.9635 33.0501 18.9635 31.8462C18.9635 28.6218 18.9949 25.4079 18.9635 22.1835C18.9009 16.6873 22.7228 11.4425 28.6645 10.27C29.2911 10.1443 29.9385 10.0606 30.5755 10.0501C33.9275 9.99776 36.8514 8.8776 39.3784 6.67915C39.4724 6.5954 39.5768 6.53258 39.8065 6.35461Z" fill="#DD2525"/>
<path d="M11.6433 44.995C12.3533 45.0473 12.9381 45.1206 13.5229 45.1206C19.3393 45.1415 24.289 40.797 25.0304 35.0077C25.1139 34.3691 25.1453 33.7305 25.1557 33.0814C25.1662 30.4224 25.1557 27.7737 25.1557 25.1147C25.1662 21.995 27.2651 19.4301 30.3247 18.9067C33.8751 18.2995 37.1853 20.8957 37.4464 24.4865C37.5195 25.5544 37.4255 26.5908 36.9661 27.5853C36.2142 29.208 34.8254 29.8989 33.1128 29.4802C31.6718 29.1242 30.8259 27.8366 30.899 26.0255C31.1705 26.4337 31.4734 26.6641 31.9224 26.6117C32.4027 26.5594 32.7264 26.2662 32.7891 25.7847C32.9144 24.7378 32.3087 23.7956 31.3794 23.5967C30.3769 23.3873 29.552 23.9212 29.2596 25.01C29.1343 25.4706 29.0507 25.9626 29.0507 26.4442C29.0194 28.9148 29.1029 31.396 28.9985 33.8666C28.7688 39.3941 25.0095 44.0528 19.6943 45.5603C17.1046 46.2931 14.5671 46.0942 12.0401 45.2462C11.9252 45.2043 11.8312 45.1311 11.6328 45.0159" fill="#DD2525"/>
<path d="M103.526 5.76831H107.515C107.275 7.62129 106.753 9.38005 106.471 11.2435H108.789C109.175 9.4324 109.562 7.61082 109.948 5.77878H113.989C112.945 11.076 111.901 16.3209 110.867 21.5762H106.826C107.285 19.1998 107.734 16.8653 108.194 14.4679H105.844C105.374 16.8339 104.915 19.1998 104.445 21.5762H100.404C101.448 16.279 102.492 11.0446 103.537 5.76831" fill="black"/>
<path d="M126.666 14.3214C126.217 16.7292 125.768 19.1475 125.319 21.5658H121.654C122.698 16.2686 123.742 11.0342 124.787 5.75791H128.431C128.859 8.3437 129.11 10.9295 129.684 13.4839C130.164 10.9086 130.634 8.3437 131.125 5.74744H134.686C133.642 11.0342 132.608 16.2686 131.564 21.5554H127.982C127.585 19.1371 127.188 16.7292 126.802 14.3319C126.76 14.3319 126.718 14.3319 126.677 14.3214" fill="black"/>
<path d="M59.6259 21.5658H56.1486C56.4723 19.472 56.7856 17.4201 57.1093 15.3159H53.893C53.5275 17.4201 53.1725 19.4825 52.807 21.5762H49.3506C49.4655 20.8958 49.5594 20.2572 49.6743 19.6081C50.2382 16.3104 50.7916 13.0127 51.3555 9.71506C51.5017 8.86709 51.815 8.08193 52.3267 7.39098C53.1307 6.31269 54.1854 5.72644 55.5534 5.72644C57.6627 5.72644 59.7617 5.72644 61.871 5.72644C62.1007 5.72644 62.32 5.74738 62.6542 5.76832C61.6413 11.0655 60.6284 16.3 59.6259 21.5762M57.976 12.3218C58.2475 11.1598 58.4981 10.071 58.7696 8.9299C57.7463 8.9299 56.8273 8.90896 55.9084 8.94037C55.355 8.96131 54.812 9.12881 54.624 9.736C54.4465 10.3013 54.3212 10.8771 54.2376 11.4634C54.1645 12.0287 54.4465 12.3218 55.0417 12.3323C55.9815 12.3427 56.9318 12.3323 57.976 12.3323" fill="black"/>
<path d="M74.5481 16.0173C74.0991 17.8703 73.671 19.6918 73.2219 21.5553H69.7446C70.8828 16.2895 72.0211 11.0341 73.1593 5.75785C73.4517 5.74738 73.671 5.72644 73.9007 5.72644C75.9787 5.72644 78.0672 5.72644 80.1452 5.72644C81.9936 5.72644 83.0587 6.87801 82.9438 8.72052C82.9125 9.14975 82.8289 9.58944 82.7454 10.0082C82.5679 10.8666 82.359 11.7146 82.1815 12.5626C81.7638 14.4784 81.0851 15.2845 79.101 16.1429C79.4874 17.9226 79.8842 19.7233 80.2914 21.5658H76.647C76.2085 19.7547 75.7594 17.9226 75.3 16.0487C75.0494 16.0382 74.8301 16.0278 74.5586 16.0068M75.9578 8.91943C75.6237 10.2908 75.3 11.5785 74.9554 12.9499C75.8952 12.9499 76.7619 12.9499 77.6286 12.9499C78.5058 12.9499 78.8922 12.7301 79.1741 11.8821C79.3621 11.3273 79.4978 10.7515 79.6336 10.1757C79.8424 9.33818 79.5709 8.95084 78.7146 8.91943C77.8166 8.88803 76.929 8.91943 75.9578 8.91943Z" fill="black"/>
<path d="M145.066 21.5658H141.599C141.922 19.4615 142.236 17.4096 142.559 15.3159H139.249C138.884 17.3887 138.529 19.4615 138.163 21.5658H134.832C134.905 21.0528 134.957 20.5503 135.041 20.0583C135.605 16.7292 136.158 13.4106 136.722 10.0815C136.868 9.21256 137.088 8.36458 137.578 7.6213C138.382 6.39645 139.51 5.72644 140.993 5.72644C143.071 5.72644 145.16 5.72644 147.238 5.72644C147.457 5.72644 147.687 5.74738 148.01 5.76832C147.029 11.0865 146.047 16.3314 145.076 21.5658M143.332 12.3218C143.604 11.1493 143.854 10.071 144.115 8.91943C143.102 8.91943 142.204 8.89849 141.306 8.91943C140.398 8.95084 140.022 9.31725 139.876 10.1966C139.803 10.6049 139.709 11.0027 139.646 11.411C139.552 11.9973 139.803 12.3009 140.398 12.3113C141.348 12.3323 142.298 12.3113 143.332 12.3113" fill="black"/>
<path d="M99.1713 12.1543H95.4747C95.694 11.0864 95.9028 10.0605 96.1221 8.9822H93.3131C92.7074 12.06 92.1435 15.1797 91.5588 18.3623H94.2738C94.4722 17.3782 94.6706 16.4046 94.869 15.4101H98.5969C98.4716 16.0487 98.3672 16.614 98.2523 17.1898C98.1061 17.8912 97.9704 18.603 97.8033 19.3045C97.4901 20.6759 96.3309 21.6076 94.9108 21.6076C93.0103 21.6076 91.0993 21.5762 89.1988 21.6181C87.7891 21.6495 87.0059 20.3932 87.2461 19.2626C88.0292 15.5357 88.7707 11.7983 89.5225 8.06094C89.8253 6.58484 91.1411 5.60077 92.4881 5.64264C94.4095 5.71593 96.3414 5.65311 98.2732 5.66358C99.2339 5.66358 99.8814 6.17655 100.059 7.04547C100.101 7.26531 100.111 7.51656 100.069 7.73641C99.8187 9.07642 99.5576 10.4164 99.2966 11.7564C99.2757 11.8821 99.213 11.9972 99.1608 12.1333" fill="black"/>
<path d="M117.174 5.77881H121.56C120.505 11.0865 119.472 16.3209 118.427 21.5763H114.24C114.167 20.9586 116.569 8.01914 117.174 5.77881Z" fill="black"/>
<path d="M65.9856 5.76831H70.0268C68.9825 11.0655 67.9383 16.2895 66.894 21.5658H62.8633C63.8762 16.279 64.9309 11.0446 65.9856 5.76831Z" fill="black"/>
<path d="M106.742 31.9822C106.042 32.3382 105.332 32.6732 104.633 33.0396C104.173 33.2908 103.954 33.6782 103.944 34.2435C103.944 34.8821 103.86 35.5312 103.787 36.1698C103.682 37.0806 103.766 37.9704 104.121 38.8288C103.985 39.0382 103.85 39.2371 103.693 39.4884C103.233 38.5462 103.004 37.6459 103.359 36.6513C103.484 36.2954 103.536 35.8976 103.568 35.5207C103.588 35.2904 103.505 35.0496 103.474 34.8193C103.411 34.8088 103.348 34.7879 103.296 34.7774C103.098 35.0182 102.899 35.2694 102.711 35.4998C102.304 35.3637 102.419 35.1752 102.607 34.9868C102.91 34.6832 102.826 34.4529 102.419 34.1598C102.262 34.5471 102.074 34.8821 102.001 35.238C101.761 36.3687 101.563 37.5098 101.364 38.6509C101.302 38.9963 101.239 39.2581 100.748 39.2162C100.539 37.9809 101.563 36.9759 101.479 35.7719C101.208 35.5835 100.999 35.594 100.759 35.7824C100.08 36.3268 99.9963 36.2954 99.7144 35.4684C99.965 35.0915 100.404 35.0601 100.779 34.9449C101.364 34.7669 101.698 34.4633 101.719 33.8038C101.782 31.9822 101.907 30.1502 101.97 28.3286C102.001 27.4492 102.294 26.6641 102.805 25.9627C102.993 25.7009 103.265 25.502 103.463 25.3136C103.599 25.3345 103.662 25.3136 103.703 25.345C104.344 25.7358 104.4 26.2069 103.87 26.7583C103.672 26.9572 103.484 27.177 103.265 27.355C102.774 27.7633 102.523 28.2239 102.701 28.9044C102.774 29.1975 102.628 29.5535 102.565 29.8885C102.534 30.0874 102.461 30.2863 102.429 30.4852C102.377 30.8516 102.346 31.2285 102.294 31.6472C102.753 31.574 102.91 31.2599 103.025 30.9668C103.16 30.6108 103.244 30.2339 103.359 29.8571C103.453 29.5639 103.515 29.2603 103.662 28.9882C103.86 28.5903 104.184 28.5903 104.424 28.9672C104.758 29.4907 104.873 30.0664 104.664 30.6632C104.56 30.9772 104.393 31.2808 104.288 31.5949C104.225 31.7833 104.173 32.0032 104.215 32.1811C104.278 32.4847 104.591 32.5476 104.8 32.3277C104.925 32.2021 104.998 32.0241 105.134 31.9299C106.147 31.1866 107.17 30.4538 108.194 29.7314C108.288 29.6686 108.423 29.6686 108.559 29.6372C108.768 30.0664 108.716 30.4119 108.434 30.7364C108.162 31.0505 107.901 31.3646 107.651 31.6891C107.369 32.066 107.191 32.4743 107.222 32.9768C107.661 32.8826 108.058 32.7883 108.549 32.6732C108.538 32.9768 108.549 33.1443 108.517 33.3118C108.413 33.919 108.246 34.5262 108.204 35.1334C108.173 35.7405 108.204 36.3687 108.319 36.9654C108.423 37.4679 108.716 37.9076 109.342 38.0018C109.843 37.3527 109.311 36.4943 109.823 35.6673C110.084 36.5571 110.366 37.2795 110.501 38.0227C110.585 38.4938 110.125 38.8917 109.614 38.8917C108.945 38.8917 108.34 38.6718 107.912 38.1484C107.755 37.9495 107.682 37.6354 107.682 37.3632C107.661 36.4315 107.682 35.5102 107.682 34.5785V33.7096C107.431 33.8143 107.243 33.8457 107.139 33.9504C106.982 34.1179 106.847 34.3273 106.784 34.5366C106.397 35.8871 105.781 37.1852 105.75 38.6299C105.75 38.8707 105.771 39.1115 105.416 39.1638C105.155 38.8603 105.217 38.4834 105.28 38.1484C105.468 37.1643 105.687 36.1907 105.938 35.2171C106.22 34.1493 106.544 33.1024 106.857 32.0451C106.815 32.0032 106.773 31.9613 106.721 31.9299M103.87 32.4115C103.797 31.6891 103.808 31.0714 104.225 30.5166C104.424 30.2549 104.257 29.9932 103.86 29.8152C103.599 30.5061 103.327 31.1552 103.119 31.8147C103.077 31.9613 103.223 32.2126 103.359 32.3382C103.442 32.4219 103.662 32.3905 103.881 32.4115M102.774 34.0132C103.327 33.1547 103.286 32.7569 102.659 32.3277C102.095 33.0396 102.116 33.5421 102.774 34.0132Z" fill="black"/>
<path d="M143.343 38.3158C143.51 38.41 143.677 38.4938 143.834 38.5985C143.98 38.6927 144.116 38.8288 144.272 38.9125C144.753 39.1952 144.993 39.0801 145.034 38.5357C145.034 38.431 145.034 38.3263 145.034 38.2216C145.034 34.6727 145.034 31.1237 145.034 27.5643C145.034 27.4911 145.066 27.3968 145.034 27.334C144.94 27.1351 144.878 26.8525 144.721 26.7897C144.575 26.7268 144.272 26.8211 144.126 26.9467C143.447 27.5748 142.8 28.2344 142.163 28.9044C141.944 29.1347 141.735 29.3126 141.401 29.3545C141.045 29.4069 140.795 29.3126 140.617 29.009C140.408 28.6531 140.429 28.3181 140.732 28.0354C141.87 26.9362 143.113 25.994 144.585 25.4078C145.379 25.0937 146.026 25.3764 146.319 26.172C146.444 26.5175 146.486 26.9257 146.476 27.3026C146.371 29.8989 146.235 32.4952 146.12 35.0914C146.047 36.6303 146.006 38.1797 145.933 39.7186C145.912 40.0955 145.849 40.4933 145.724 40.8493C145.577 41.2785 145.275 41.3308 144.972 40.9958C144.262 40.2212 143.771 39.3104 143.353 38.3054" fill="black"/>
<path d="M53.0681 41.3519C52.5564 41.0483 52.4729 40.7028 52.4624 40.3364C52.4207 39.0488 52.358 37.7716 52.358 36.4839C52.358 35.7197 52.4624 34.945 52.5251 34.1808C52.5564 33.8457 52.5877 33.5107 52.1805 33.3223C51.8359 33.584 51.5122 33.8772 51.1467 34.097C50.8752 34.2645 50.4993 34.4843 50.2382 34.1389C50.0085 33.8248 50.2278 33.4584 50.4679 33.249C50.8021 32.9454 51.1989 32.6628 51.6166 32.4953C52.3998 32.1812 52.6191 31.595 52.546 30.8307C52.5042 30.3806 52.4207 29.9409 52.3476 29.3651C51.5226 29.8048 51.1258 30.6528 50.2069 30.7784C50.186 30.3178 50.4053 29.9828 50.6663 29.6792C50.8856 29.4279 51.1258 29.1976 51.3869 28.9882C52.0447 28.4648 52.3058 27.7634 52.3162 26.9573C52.3162 26.3187 52.2745 25.6696 52.2536 25.031C52.2431 24.7483 52.2118 24.4762 52.1909 24.204C52.6086 23.9841 52.8592 24.1202 53.0681 24.4447C53.3918 24.9577 53.4753 25.4812 53.2874 26.0674C53.183 26.4024 52.9845 26.7898 53.3187 27.0829C53.6633 27.376 53.9975 27.0724 54.3003 26.9154C55.1357 26.4966 55.4698 26.528 56.0024 27.2713C56.3052 27.7005 56.5245 28.2135 56.6603 28.716C56.8273 29.2918 56.6394 29.8362 56.1799 30.2549C55.7622 30.6318 55.355 31.0296 54.9059 31.3751C53.2665 32.6418 52.6817 34.3273 52.8488 36.3373C52.9323 37.3633 53.0472 38.3892 53.1099 39.4152C53.1412 40.0224 53.0994 40.6295 53.0785 41.3624M55.4176 28.7788C55.4176 28.2031 55.1774 27.8785 54.6762 27.7634C54.1645 27.6377 53.6111 27.7843 53.4753 28.1926C53.2769 28.8207 53.1307 29.4802 53.089 30.1398C53.0576 30.7156 53.4649 30.9459 54.0288 30.7889C54.8224 30.569 55.4176 29.7001 55.4176 28.7788Z" fill="black"/>
<path d="M73.0757 37.8448C72.6267 37.3109 72.4909 36.7979 72.5118 36.243C72.5431 35.4683 72.6058 34.7041 72.6684 33.9294C72.8146 32.3172 72.9608 30.705 73.1175 29.0928C73.1383 28.8939 73.2219 28.7055 73.4203 28.4961C73.4621 28.7159 73.556 28.9358 73.5352 29.1452C73.389 30.9144 73.201 32.6732 73.0548 34.4424C73.013 34.9135 73.107 35.4055 73.2741 35.9185C73.3576 35.7929 73.483 35.6672 73.5143 35.5207C73.65 34.9763 73.8067 34.4215 73.8589 33.8561C74.0677 31.6891 75.0702 29.8361 76.1249 28.0041C76.4173 27.4911 76.835 27.0514 77.4093 26.8211C78.2656 26.4652 79.0487 26.6536 79.1636 27.7947C79.1949 28.0983 79.2367 28.4124 79.3411 28.7055C79.5604 29.365 79.5813 29.9931 79.2576 30.6422C79.1218 30.9249 79.1427 31.2913 79.1218 31.6263C78.9756 33.9713 79.1845 36.3058 79.4978 38.6299C79.5604 39.0696 79.4978 39.5302 79.4978 39.9909C79.1323 40.0432 79.1427 39.8234 79.1323 39.614C79.0279 38.2845 78.9234 36.9444 78.8086 35.6149C78.7772 35.2276 78.6937 34.8507 78.6728 34.4633C78.6206 33.563 78.6102 32.6522 77.8792 31.9613C77.9627 31.8357 78.0045 31.71 78.0776 31.6786C78.7355 31.4378 78.8608 30.883 78.8086 30.3072C78.7564 29.7524 78.6728 29.1766 78.464 28.6636C78.0985 27.7842 77.2631 27.6481 76.6261 28.3391C76.2815 28.7159 75.9996 29.1556 75.7385 29.5953C75.4252 30.1292 75.1537 30.6841 74.9031 31.2494C74.7883 31.5111 74.8718 31.9508 74.6943 32.0869C74.3706 32.3382 74.3914 32.6522 74.3183 32.9663C73.9633 34.411 73.6187 35.8662 73.2637 37.3109C73.2323 37.4574 73.1592 37.5935 73.0653 37.8343" fill="black"/>
<path d="M60.7537 39.436C60.9312 35.6044 60.3777 31.7519 60.503 27.847C61.2236 28.1716 61.4951 28.6741 61.3489 29.3964C61.2549 29.8466 61.0983 30.2863 61.0356 30.7469C60.9625 31.2494 60.9625 31.7729 60.9625 32.2858C60.9625 32.4429 61.0669 32.5894 61.1922 32.9349C61.5055 32.3696 61.7248 31.9613 61.9545 31.553C62.5602 32.1079 62.8943 32.066 63.3225 31.3541C63.5104 31.04 63.688 30.7155 63.8759 30.391C63.9386 30.391 64.0012 30.4014 64.0639 30.4119C64.1474 30.7155 64.2519 31.0191 64.3145 31.3227C64.3563 31.5216 64.3354 31.731 64.3354 31.9404C64.3458 32.8511 64.3458 32.8511 65.2334 33.1024C65.5676 33.1966 65.6094 33.3955 65.5258 33.6886C65.4318 34.0341 65.3379 34.3796 65.2543 34.7251C65.1499 35.1647 65.1499 35.5835 65.4214 35.9813C65.4632 36.0441 65.4318 36.1593 65.4423 36.3477C65.1499 36.1907 64.9515 36.0651 64.7218 35.9394C64.5338 36.0755 64.3563 36.2012 64.1892 36.3268C64.3458 35.6987 64.8888 35.2276 64.7113 34.5471C64.6696 34.4005 64.5338 34.2644 64.4189 34.0865C63.9073 34.4215 63.7715 34.9449 63.5 35.3637C63.2285 35.7824 63.0092 36.2744 62.3305 36.4524C62.3931 36.1069 62.4453 35.8557 62.4975 35.594C63.3747 35.6149 63.3643 34.7565 63.8342 34.4319C63.5731 33.9294 63.2285 34.4738 62.8943 34.1702C62.8839 34.076 62.8421 33.8876 62.8421 33.6886C62.8421 33.563 62.9048 33.4374 62.9257 33.3118C63.0823 32.4429 62.863 32.2335 61.9232 32.3277C61.4742 32.9663 61.2653 33.7096 61.2653 34.4947C61.2653 35.2799 61.3489 36.1384 61.3489 36.9654C61.3489 37.7087 61.3071 38.452 61.2653 39.1952C61.2549 39.436 61.1505 39.5931 60.7745 39.436M63.7506 33.7305C63.9073 33.3432 64.043 33.0291 64.1683 32.715C63.7088 32.4219 63.5522 32.4429 63.3329 32.7779C63.0927 33.1338 63.1658 33.3327 63.7506 33.7305Z" fill="black"/>
<path d="M62.4351 30.4433C62.7588 28.9986 63.1765 27.6062 64.2625 26.5279C64.889 25.8998 65.6304 25.5439 66.5389 25.6171C66.6956 25.6276 66.8522 25.6486 66.9879 25.6904C67.6667 25.9103 67.8024 26.1301 67.6667 26.8315C67.5727 27.3131 67.4892 27.7947 67.343 28.2553C66.6956 30.2548 66.7895 32.2544 67.1446 34.2853C67.4161 35.8033 67.6145 37.3318 67.7816 38.8707C67.8651 39.6035 67.792 40.3572 67.7816 41.1005C67.7816 41.268 67.698 41.4355 67.6563 41.603C66.9566 41.3727 66.8104 41.1843 66.8 40.5038C66.7791 38.9021 66.7791 37.3108 66.7478 35.7091C66.7269 34.7355 66.6747 33.7514 66.6225 32.7778C66.612 32.4742 66.5494 32.1811 66.4971 31.7519C66.2465 31.9194 66.1108 32.0659 65.9437 32.1288C65.7662 32.1916 65.5051 32.2439 65.4007 32.1602C65.2963 32.0764 65.2963 31.8042 65.3172 31.6158C65.3276 31.4797 65.4529 31.3541 65.526 31.2284C65.8602 31.2075 66.163 31.197 66.518 31.1761C66.8 29.8151 66.9984 28.4751 66.7895 27.1037C66.7164 26.6117 66.351 26.3814 65.881 26.5593C65.4111 26.7478 64.9517 26.999 64.5549 27.3131C63.8657 27.8575 63.3122 28.538 62.9676 29.365C62.811 29.7314 62.6126 30.0769 62.4351 30.4328" fill="black"/>
<path d="M141.129 30.213C141.547 30.2863 141.86 30.2968 142.131 30.391C142.727 30.6004 142.831 30.7993 142.758 31.4379C142.758 31.5426 142.727 31.6472 142.727 31.7415C142.747 32.4115 142.476 32.8721 141.808 33.0815C141.16 33.2908 140.836 33.8248 140.607 34.411C140.481 34.7251 140.419 35.0496 140.784 35.4055C141.014 35.2066 141.244 35.0287 141.463 34.8298C141.766 34.5576 142.027 34.2226 142.361 33.9923C142.946 33.5735 143.447 33.7829 143.614 34.4843C143.781 35.1962 143.844 35.9081 143.687 36.6199C143.552 37.3004 143.092 37.5935 142.403 37.4993C142.058 37.4574 141.693 37.4365 141.348 37.4784C140.586 37.5726 140.273 37.4051 140.179 36.6409C140.116 36.1384 140.095 35.6045 140.179 35.102C140.45 33.5107 140.784 31.9299 141.118 30.213M142.267 35.1124C141.63 35.1648 141.338 35.5207 141.15 35.9918C141.035 36.2849 141.077 36.5467 141.4 36.6827C141.682 36.8084 141.902 36.6932 142.016 36.3163C142.121 35.9604 142.173 35.5835 142.267 35.1124Z" fill="black"/>
<path d="M85.0635 28.4543C84.9277 28.5381 84.8024 28.6323 84.6667 28.6951C84.4056 28.8312 84.0715 28.9673 83.9148 28.6532C83.7895 28.4229 83.8104 28.0565 83.8835 27.7948C83.9357 27.6063 84.1863 27.4598 84.3638 27.3237C85.053 26.8212 85.7631 26.371 86.421 25.8371C86.8074 25.523 87.2564 25.4497 87.7054 25.3765C88.0396 25.3241 88.2589 25.4916 88.238 25.8476C88.2275 26.0988 88.1753 26.3605 88.0918 26.5908C88.0187 26.8107 87.8934 27.0201 87.7472 27.1876C87.152 27.889 87.1311 28.6113 87.6114 29.3965C87.7054 29.5535 87.7263 29.7734 87.7367 29.9618C87.7785 30.4748 87.5801 30.8517 87.0893 31.061C86.515 31.3018 86.2852 31.7624 86.2017 32.3906C86.0033 33.8876 86.066 35.3637 86.1599 36.8608C86.233 37.9914 86.2226 39.122 86.2435 40.2527C86.2435 40.4202 86.2017 40.5877 86.1808 40.8075C85.6483 40.64 85.5752 40.2736 85.596 39.8863C85.6796 38.5986 85.784 37.3214 85.8571 36.0337C85.8989 35.3742 85.8989 34.7042 85.878 34.0342C85.8571 33.2595 85.784 32.4953 85.784 31.7206C85.784 31.3646 85.7005 31.061 85.4812 30.7993C85.2514 30.5271 85.3245 30.2968 85.5334 30.0456C86.1077 29.3651 86.066 29.1034 85.335 28.5904C85.2515 28.538 85.1575 28.4857 85.0635 28.4334M87.4861 26.2768C86.87 25.9837 86.5463 26.0151 86.1391 26.4652C85.7527 26.884 85.5961 27.3865 85.5647 27.9413C85.5438 28.3077 85.7318 28.4438 86.1077 28.3705C86.6612 28.2554 86.8805 27.8366 87.058 27.3655C87.1833 27.0201 87.3295 26.6746 87.4861 26.2873M87.152 29.407C86.515 29.3232 86.3375 29.4488 86.0973 29.9827C85.9824 30.2549 85.9824 30.4643 86.2748 30.6213C86.5776 30.7888 86.8074 30.6528 86.9013 30.4015C87.0267 30.0874 87.0684 29.742 87.1415 29.3965" fill="black"/>
<path d="M121.236 30.7051C121.383 30.1502 121.758 29.9513 122.103 29.7524C122.657 29.4488 122.698 29.0196 122.103 28.6532C121.299 28.1402 120.464 28.0251 119.639 28.559C118.511 29.2813 117.414 30.0351 116.339 30.8307C116.046 31.0401 115.9 31.4484 115.691 31.7624C115.472 32.0974 115.263 32.4429 115.044 32.7779C114.668 32.6418 114.376 32.5371 114.094 32.4324C113.687 31.0191 114.271 29.7001 115.671 28.9254C115.733 29.5535 115.608 30.1188 115.232 30.6004C115.054 30.8307 115.013 30.9982 115.347 31.1867C115.639 30.9354 115.942 30.6737 116.255 30.412C116.997 29.7734 117.717 29.1138 118.48 28.5066C119.242 27.8994 120.15 27.6168 121.121 27.5749C122.082 27.533 123.356 28.3496 123.701 29.2395C123.993 29.9932 123.659 30.6109 122.865 30.7051C122.364 30.7574 121.842 30.7051 121.236 30.7051Z" fill="black"/>
<path d="M92.6866 32.0555C92.5926 32.2754 92.4568 32.579 92.3315 32.8826C92.248 33.0919 92.154 33.3118 92.0914 33.5316C91.8303 34.4948 92.1436 35.0706 93.1147 35.1752C93.9188 35.259 94.2947 35.6777 94.4931 36.3792C94.5662 36.6409 94.5244 36.8398 94.2947 36.9759C94.0441 37.1224 93.8248 37.0178 93.6995 36.8084C93.5428 36.5467 93.4802 36.2326 93.3236 35.9709C93.2087 35.7615 93.0625 35.4893 92.8641 35.3951C92.4464 35.1857 92.0496 35.5521 92.0496 36.0965C92.0496 36.9445 92.06 37.7924 92.0496 38.6404C92.0496 38.8707 92.1227 39.1639 91.7572 39.3523C91.5692 39.0906 91.4022 38.8184 91.1933 38.5776C90.8383 38.1693 90.4519 37.7924 90.1073 37.3842C89.9298 37.1748 89.7836 36.9131 89.7105 36.6513C89.5852 36.2012 89.6792 36.086 90.1595 35.9709C90.3057 35.929 90.4623 35.8976 90.6085 35.8557C91.5066 35.5835 91.8616 35.0706 91.7676 34.1284C91.7363 33.8248 91.6632 33.5212 91.611 33.2595C91.256 33.0919 91.0889 33.2909 90.9218 33.4898C90.7861 33.6573 90.6294 33.8143 90.4832 33.9818C89.8567 33.3013 89.888 33.071 90.5772 32.5162C90.6503 32.6209 90.7025 32.7779 90.7965 32.8302C90.88 32.8721 91.068 32.8512 91.1411 32.7779C91.4335 32.5057 91.705 32.2021 91.9452 31.9508C91.7781 31.3855 91.4753 31.4483 91.162 31.6577C91.0158 31.4169 90.9009 31.2285 90.7861 31.0296C91.2455 30.5899 91.4753 30.6004 91.8721 31.0924C92.1018 31.3751 92.342 31.6577 92.6657 32.0346M91.6214 36.107C91.1411 35.9081 90.8696 36.0546 90.7443 36.3582C90.6503 36.5676 90.6085 36.8712 90.6921 37.0701C90.7547 37.2271 91.0367 37.3737 91.2246 37.3842C91.3499 37.3842 91.5797 37.1643 91.611 37.0073C91.6737 36.7246 91.6319 36.4106 91.6319 36.107" fill="black"/>
<path d="M134.049 32.8093C133.673 32.9244 133.422 32.9663 133.214 33.071C133.026 33.1652 132.869 33.3222 132.545 33.563C132.838 33.7096 133.015 33.7933 133.193 33.8875C132.493 35.2799 131.313 36.2221 130.781 37.6144C131.198 37.8238 131.522 37.6877 131.804 37.4574C132.284 37.0701 132.712 36.6408 132.942 36.0337C133.182 35.4369 133.673 35.3741 134.028 35.908C134.268 36.264 134.498 36.6513 134.665 37.0491C134.822 37.4155 134.801 37.8343 134.529 38.1484C134.394 38.3054 134.143 38.431 133.945 38.4205C133.819 38.4205 133.673 38.1693 133.579 38.0018C133.454 37.7715 133.36 37.5098 133.214 37.1643C132.859 37.4051 132.566 37.5621 132.326 37.7715C132.055 38.0018 131.825 38.2845 131.564 38.5357C131.438 38.6613 131.292 38.7765 131.146 38.8812C130.812 39.122 130.446 39.2266 130.06 39.0382C129.841 38.9231 129.82 38.3682 129.966 37.9494C130.29 36.9863 130.791 36.1174 131.407 35.3218C131.856 34.7355 132.159 34.1074 132.399 33.4269C132.524 33.071 132.744 32.7464 132.994 32.4533C133.099 32.3277 133.381 32.2753 133.548 32.3068C133.694 32.3382 133.809 32.558 134.039 32.7988" fill="black"/>
<path d="M116.725 39.122C116.61 38.6928 116.527 38.3787 116.433 38.0228C116.6 37.9495 116.746 37.9076 116.871 37.8448C117.101 37.7296 117.393 37.6563 117.519 37.4679C117.874 36.9549 118.312 36.4838 118.5 35.8557C118.699 35.2066 118.646 35.0705 117.978 34.8716C117.915 34.8507 117.853 34.8088 117.665 34.7041C118.27 34.3796 118.782 34.0551 119.325 33.8248C119.68 33.6782 119.941 33.898 119.92 34.2854C119.879 34.8507 119.806 35.416 119.701 35.9709C119.628 36.3792 119.315 36.6199 118.991 36.8398C118.751 37.0073 118.427 37.1748 118.709 37.6354C118.981 37.5412 119.252 37.426 119.534 37.3318C120.067 37.1434 120.307 37.3004 120.359 37.8657C120.432 38.6823 120.119 39.0382 119.283 39.0906C118.824 39.122 118.364 39.1953 117.905 39.2057C117.529 39.2057 117.143 39.1534 116.735 39.122" fill="black"/>
<path d="M75.446 34.4634C75.3938 33.6991 75.6027 32.9349 75.3834 32.1602C75.6027 31.8462 75.8533 31.5112 76.0935 31.1552C76.2292 30.9458 76.4067 30.7469 76.6469 30.8621C76.814 30.9458 76.9602 31.1971 76.9811 31.3855C77.0228 31.7624 76.9811 32.1602 76.9289 32.5371C76.7931 33.4584 76.7827 33.4479 77.6494 33.8771C77.1482 34.8821 77.0646 35.9499 77.3779 37.0492C76.4276 36.9549 76.3754 37.0596 76.8036 38.0123C76.0726 38.5148 75.2894 38.7451 74.3705 38.609C74.3496 38.2007 74.642 38.1065 74.8717 37.9704C75.2685 37.7401 75.6967 37.5517 76.0726 37.2795C76.72 36.8084 76.8349 36.3792 76.5947 35.6149C76.1875 35.5731 75.9264 35.8138 75.6967 36.0965C75.5191 36.3163 75.3834 36.5676 75.185 36.7665C75.0597 36.8921 74.736 37.0387 74.6942 36.9968C74.548 36.8189 74.4436 36.5885 74.3705 36.3687C74.3392 36.2745 74.4436 36.1279 74.5062 36.0232C74.8195 35.4893 75.1432 34.9659 75.4565 34.4424C75.4356 34.9554 74.9552 35.3951 75.1745 35.9709C76.532 35.3218 76.9706 34.3482 76.5112 33.1129C76.4381 32.914 76.3754 32.7255 76.1039 32.7465C75.8011 32.7779 75.7698 32.9768 75.728 33.228C75.6653 33.6468 75.54 34.0551 75.4356 34.4738" fill="black"/>
<path d="M127.982 33.6258C128.149 33.3013 128.201 33.0919 128.337 32.9663C128.807 32.5161 128.995 31.9403 129.193 31.3645C129.371 30.8516 129.538 30.3491 129.757 29.857C129.914 29.5116 130.102 29.1661 130.321 28.8625C130.77 28.2553 131.585 28.3181 131.971 28.9672C132.326 29.5639 132.117 30.3805 131.47 30.6422C131.01 30.8202 130.791 31.1761 130.593 31.553C130.279 32.1706 129.882 32.6313 129.172 32.8406C128.796 32.9558 128.483 33.2908 127.982 33.6363" fill="black"/>
<path d="M92.927 24.026C93.564 24.6436 93.8877 25.2299 94.1278 25.8266C94.2845 26.2349 94.0443 26.6327 93.731 26.9258C93.5222 27.1143 93.282 27.2608 93.0418 27.4179C92.551 27.7529 92.5093 27.9204 92.7912 28.4333C93.0941 28.9882 93.6266 29.2604 94.1905 29.4593C94.4516 29.5535 94.7335 29.5954 95.0154 29.6373C95.6838 29.7524 95.7569 29.878 95.5793 30.7051C95.4123 30.6423 95.2556 30.6004 95.1094 30.5271C94.7648 30.3805 94.4098 30.2445 94.0861 30.056C93.7624 29.8676 93.4387 29.6477 93.1776 29.386C92.4466 28.6218 92.4571 28.6113 91.5068 28.4857C91.4024 28.1612 91.5695 27.9518 91.8096 27.7633C91.9767 27.6377 92.1438 27.5226 92.3004 27.3969C92.8643 26.9363 92.8643 26.8735 92.4988 26.214C92.4257 26.0883 92.3735 25.9104 92.4049 25.7847C92.5406 25.2508 92.7181 24.7274 92.9374 24.0155" fill="black"/>
<path d="M90.7129 26.2977C89.8462 26.1616 89.7627 26.2035 89.5329 26.8839C89.4494 27.1247 89.3659 27.3655 89.2614 27.6691C88.896 27.3341 88.9899 27.02 89.1152 26.7164C89.3032 26.2453 89.5225 25.7743 89.7522 25.3241C89.8149 25.2089 90.0028 25.031 90.0864 25.0624C90.4727 25.188 90.8487 25.3346 91.1933 25.5544C91.3186 25.6382 91.3604 25.9313 91.3395 26.1093C91.2873 26.6432 91.2664 27.198 91.0993 27.7005C90.5667 29.3127 90.0551 30.9249 89.251 32.4324C89.0735 32.7674 89.0108 33.1652 88.8646 33.5212C88.6662 33.9923 88.3634 34.2121 88.0814 34.1284C87.8204 34.0551 87.6011 33.6363 87.622 33.2281C87.622 33.071 87.6533 32.914 87.716 32.7779C87.9561 32.2754 88.2172 31.7729 88.5305 31.1552C88.6244 31.8985 87.883 32.3487 88.2381 33.1234C89.9402 31.1134 90.6189 28.8521 90.7234 26.3082" fill="black"/>
<path d="M49.8104 31.7519C49.6016 32.2335 49.4658 32.5894 49.2987 32.9244C49.1317 33.2385 48.7557 33.2908 48.5469 33.0082C48.0979 32.4219 47.6802 31.7938 47.5966 31.0295C47.5653 30.8097 47.6906 30.527 47.8368 30.3386C48.1188 29.9827 48.4634 30.0455 48.6931 30.4328C48.7453 30.5166 48.7766 30.6213 48.808 30.7155C48.9437 31.2285 49.0168 31.8042 49.8313 31.7414" fill="black"/>
<path d="M106.659 28.381C106.544 27.8889 106.617 27.4911 106.857 27.1352C107.076 26.8106 107.369 26.6536 107.776 26.7059C108.152 26.7478 108.361 26.9677 108.497 27.3027C108.726 27.8785 108.664 28.4438 108.309 28.8206C108.121 29.0091 107.933 29.0719 107.703 28.9149C107.536 28.7997 107.358 28.695 107.181 28.6008C107.024 28.517 106.847 28.4647 106.659 28.3914" fill="black"/>
<path d="M116.621 33.0501C117.32 32.2544 118.218 31.5635 118.208 30.3491C119.116 30.6108 119.45 31.6682 118.887 32.3382C118.814 32.4324 118.678 32.5476 118.584 32.5371C117.999 32.4848 117.571 32.8407 117.091 33.0605C116.986 33.1129 116.861 33.1338 116.735 33.1652C116.694 33.1234 116.662 33.0815 116.621 33.0396" fill="black"/>
<path d="M65.2336 37.604C65.2336 37.604 65.4529 37.6877 65.4738 37.7924C65.5051 37.9704 65.4529 38.1902 65.3694 38.3473C65.3067 38.4624 65.1188 38.5043 64.983 38.5671C64.5549 38.787 64.1163 38.9963 63.709 39.2371C63.2809 39.4884 63.0825 39.4151 62.9467 38.923C62.7901 38.3787 62.905 38.1588 63.448 38.0227C64.0119 37.8762 64.5758 37.7505 65.2545 37.5935" fill="black"/>
<path d="M134.415 28.4752C135.709 29.208 135.824 29.7315 134.895 30.6004C134.665 30.5271 134.425 30.4538 134.154 30.3701C133.997 29.7315 134.164 29.1348 134.415 28.4857" fill="black"/>
<path d="M118.156 25.7952C118.218 25.6905 118.302 25.4707 118.469 25.3555C118.688 25.2089 118.918 25.3241 119.064 25.5335C119.231 25.7847 119.451 26.0255 119.534 26.3082C119.586 26.4757 119.492 26.7688 119.357 26.9049C119.263 26.9991 118.97 26.9677 118.814 26.8944C118.417 26.706 118.218 26.3501 118.166 25.7952" fill="black"/>
<path d="M120.787 31.8357C120.171 31.7938 120.025 31.4169 119.91 31.0191C119.837 30.7678 120.067 30.5689 120.234 30.6422C120.484 30.7678 120.714 31.0086 120.86 31.2599C120.933 31.396 120.818 31.6368 120.787 31.8357Z" fill="black"/>
</g>
<defs>
<clipPath id="clip0_572_2017">
<rect width="148" height="46" fill="white"/>
</clipPath>
</defs>
</svg>
