<svg width="179" height="46" viewBox="0 0 179 46" fill="none" xmlns="http://www.w3.org/2000/svg">
<g clip-path="url(#clip0_572_2081)">
<path d="M0 16.7891H5.36678C5.36678 15.8205 6.17942 13.9853 8.2618 13.9853C9.09136 13.9853 9.2268 14.1552 10.2765 13.9343C11.6478 13.4755 12.2742 12.6768 12.562 12.0311C12.562 12.0311 13.1038 14.3081 10.9367 15.4977C9.71777 16.1604 7.83855 15.6336 7.83855 15.6336C7.83855 15.6336 6.33179 15.4127 6.14556 16.7721C6.99206 16.7721 8.31259 17.6388 8.31259 19.1172V31.624C8.31259 32.5246 9.04057 33.4592 10.141 33.4592C11.106 33.4592 11.9525 32.6776 11.9525 31.624V22.8386C11.9525 9.87297 21.992 4.4862 27.8497 4.06137C32.6917 3.70452 35.9422 4.12934 41.8677 -0.0339355C41.8677 -0.0339355 40.0054 7.22207 31.642 8.97234C30.0845 9.29521 25.4795 8.75144 21.1116 13.3056C17.6748 16.8911 17.3024 20.2217 17.3024 24.6059V32.3377C17.3024 35.7193 14.5936 39.1349 10.4627 39.1349C6.33179 39.1349 3.63993 35.9402 3.63993 32.3377V19.2191C3.63993 18.1316 2.86116 17.146 1.6422 17.146H0V16.7551L0 16.7891Z" fill="#E60012"/>
<path d="M4.70638 38.3192C4.70638 38.3192 9.10816 42.7883 14.8982 39.4067C18.7413 37.1636 18.8429 32.5246 18.8429 32.5246V22.1249C18.8429 22.1249 18.6905 16.891 23.3801 13.1696C26.6645 10.5696 29.678 10.7396 31.7942 10.4847C37.161 9.82194 39.5143 6.42334 39.5143 6.42334C39.582 7.01809 38.9895 13.2545 32.2852 15.0218C30.9308 15.3786 23.5494 14.6649 23.5494 23.2294V33.5271C23.5494 35.6853 23.0246 39.4917 18.9783 42.1936C14.8474 44.9464 8.12623 44.5216 4.68945 38.2852" fill="#E60012"/>
<path d="M10.9028 44.8105C17.4547 46.6458 24.9885 42.0407 24.9885 34.3768V25.3706C24.9885 22.7366 27.1725 19.2361 31.1171 19.2361C35.0618 19.2361 37.2288 22.9745 37.2288 25.3706C37.2288 26.8999 36.6363 29.9247 33.7751 29.9247C31.5065 29.9247 30.0675 27.5966 30.7616 25.7104C30.6093 26.3561 30.9479 26.9679 31.625 26.9679C32.3022 26.9679 32.6408 26.3561 32.5223 25.5745C32.5054 25.4045 32.3022 23.9771 30.7278 23.9771C29.3903 23.9771 28.9501 25.2006 28.9501 25.7954V33.8161C28.9501 42.4145 19.6217 48.7529 10.9028 44.8275" fill="#E60012"/>
<path d="M62.048 29.126H59.5254L57.3584 38.812H59.864L62.048 29.126Z" fill="black"/>
<path d="M95.366 29.126H92.8435L90.6934 38.812H93.199L95.366 29.126Z" fill="black"/>
<path d="M67.3813 34.2578H65.519L66.2639 30.4684H68.0754L67.3813 34.2578ZM69.4129 29.109H64.0292L61.8452 38.795H64.3508L65.045 35.7192C65.4851 35.7192 65.5867 36.0761 65.5867 36.0761L66.2978 38.795H68.7865L67.8384 35.5493C69.1928 35.5493 69.4129 34.5977 69.4129 34.5977L70.4118 30.2135C70.4456 29.9926 70.4118 29.8057 70.4118 29.8057C70.2932 29.041 69.4298 29.109 69.396 29.109" fill="black"/>
<path d="M81.0603 33.0174H78.5716L79.0625 30.8253C79.0625 30.8253 79.198 30.4345 78.7408 30.4345H77.488C77.488 30.4345 77.2172 30.4175 77.1325 30.6894L75.7104 37.0957C75.7104 37.0957 75.6257 37.5035 76.0998 37.5035H77.2002C77.2002 37.5035 77.5219 37.5885 77.6065 37.1807L77.9959 35.5154H80.5693L80.0445 37.7075C80.0445 37.7075 79.672 38.795 78.3345 38.795H74.3729C74.3729 38.795 73.3402 38.71 73.4249 37.4016L74.9655 30.4515C74.9655 30.4515 75.3041 29.109 76.3707 29.109H80.6201C80.6201 29.109 81.8052 29.109 81.4666 30.8423C81.1449 32.5756 81.0603 33.0174 81.0603 33.0174Z" fill="black"/>
<path d="M88.3064 29.126L87.4261 33.0514H85.5638L86.4441 29.126H83.9216L81.7715 38.812H84.2771L85.2929 34.2749H87.1552L86.1563 38.812H88.662L90.8121 29.126H88.3064Z" fill="black"/>
<path d="M101.664 29.126L100.53 34.5128L99.6493 29.126H97.313L95.2983 38.812H97.6347L98.7013 33.7141L99.6493 38.812H101.986L104 29.126H101.664Z" fill="black"/>
<path d="M53.9386 33.2213H52.1609L52.7874 30.5534H54.5989L53.9386 33.2213ZM52.144 29.126C50.7727 29.126 50.4172 30.6553 50.4172 30.6553L48.4194 38.812H50.8573L51.9578 34.4448H53.7185L53.3799 35.8552L52.6688 38.812H55.2591L57.4431 29.126H52.144Z" fill="black"/>
<path d="M109.13 33.2213H107.353L107.979 30.5534H109.791L109.13 33.2213ZM107.319 29.126C105.947 29.126 105.592 30.6553 105.592 30.6553L103.594 38.812H106.032L107.133 34.4448H108.893L108.555 35.8552L107.844 38.812H110.434L112.618 29.126H107.302H107.319Z" fill="black"/>
<path d="M177.104 33.8331C177.104 33.8331 177.087 34.02 177.002 34.3599C176.951 34.6828 176.901 34.9037 176.884 34.9547L176.697 35.3115L176.613 35.5664L176.494 35.7363C176.494 35.7363 176.443 35.8043 176.41 35.9233C176.359 36.0422 176.173 36.2461 175.868 36.535C175.563 36.8239 175.343 36.9768 175.258 37.0278L175.072 37.0958L174.886 37.2147L174.598 37.2827L174.107 37.4186H173.887L173.582 37.5376H173.328L172.956 37.5206C172.583 37.5036 172.33 37.4696 172.16 37.4526C171.974 37.4016 171.754 37.3167 171.517 37.1977L170.907 36.9088C170.823 36.8579 170.721 36.8409 170.704 36.7899L170.518 36.6709L170.281 36.501L169.875 36.0762C169.621 35.8383 169.502 35.7193 169.468 35.7193C169.468 35.7193 169.451 35.6514 169.367 35.4814L169.045 34.8867L168.91 34.2919L168.842 34.054C168.842 34.054 168.825 33.9181 168.825 33.7482V33.1534C168.825 33.1534 168.774 32.9835 168.808 32.7796C168.808 32.5417 168.825 32.3547 168.876 32.2188C168.927 32.0489 169.011 31.8449 169.164 31.5561C169.282 31.2672 169.35 31.0803 169.367 31.0463L169.57 30.6894C169.705 30.4515 169.807 30.3156 169.858 30.2646C169.909 30.2136 170.027 30.0947 170.213 29.9077C170.4 29.7378 170.535 29.6019 170.637 29.5509L171.297 29.194C171.5 29.0751 171.652 29.0071 171.669 28.9901C171.72 28.9901 171.889 28.9731 172.194 28.9222C172.499 28.9052 172.668 28.8712 172.685 28.8712C172.685 28.8882 172.787 28.8882 172.973 28.9222H173.024L173.278 28.9731L173.769 29.1091L174.09 29.177L174.26 29.279L174.666 29.4149C174.666 29.4149 174.734 29.4829 174.852 29.5849L175.462 29.9757C175.462 29.9757 175.58 30.0947 175.716 30.2306C175.851 30.3666 175.953 30.4685 176.037 30.5365C176.105 30.6045 176.223 30.8254 176.41 31.1482C176.596 31.4711 176.731 31.692 176.782 31.777L176.951 32.3887C177.036 32.7456 177.087 32.8985 177.087 32.9495V33.3743L177.104 33.7991V33.8331ZM178.949 32.5756V31.9639C178.949 31.9639 178.848 31.777 178.763 31.4881C178.661 31.1822 178.594 31.0123 178.56 30.9443L178.39 30.7064L178.136 30.0947L177.95 29.9247L177.781 29.6868L177.527 29.4659L177.341 29.262L177.205 29.177L176.833 28.8542L176.596 28.7862L176.003 28.4803L175.021 28.2254C174.937 28.1915 174.886 28.1745 174.852 28.1235L174.649 27.9196C174.649 27.9196 174.463 27.9026 174.175 27.9026L173.752 27.8346C173.633 27.8176 173.464 27.8176 173.227 27.8346H172.939L172.346 27.9026C171.923 27.9196 171.602 28.0045 171.331 28.0725L170.484 28.3614C170.078 28.4803 169.705 28.7182 169.316 29.0411C168.944 29.398 168.639 29.6698 168.436 29.8907C168.249 30.1287 168.063 30.3666 167.911 30.5875C167.775 30.8254 167.657 31.1312 167.555 31.4881L167.267 32.3038C167.149 32.5926 167.098 32.7796 167.098 32.8475V33.2044L167.014 33.9011V34.2919C167.014 34.5298 167.03 34.6998 167.064 34.8187L167.251 35.3285L167.318 35.7023L167.505 36.0762C167.572 36.2121 167.623 36.2801 167.623 36.2801L167.809 36.484L167.979 36.8069C167.979 36.8069 168.063 36.9258 168.216 37.0108L168.503 37.2657C168.673 37.4526 168.876 37.5886 169.096 37.6905L169.722 37.9964C169.959 38.1323 170.095 38.2003 170.129 38.2003C170.146 38.2003 170.332 38.2513 170.687 38.2853L171.974 38.5232H172.296L172.465 38.5912C172.482 38.6081 172.651 38.5742 172.939 38.5062C173.041 38.4892 173.159 38.4552 173.295 38.4382L173.921 38.3363C174.023 38.3363 174.243 38.2683 174.649 38.1323L175.208 37.9454L176.054 37.5206C176.41 37.3507 176.596 37.2657 176.647 37.2317C176.664 37.1807 176.85 37.0278 177.205 36.6879C177.561 36.3651 177.747 36.1951 177.747 36.1782C177.764 36.1782 177.849 36.0592 178.001 35.8213C178.17 35.5834 178.255 35.4644 178.289 35.4135L178.34 35.2775L178.577 34.8017C178.577 34.8017 178.594 34.7168 178.644 34.5128L178.864 33.9011C178.915 33.7652 178.932 33.6462 178.932 33.5272V33.2044L179 33.0005C179 32.9835 178.983 32.8305 178.949 32.5247M148.949 32.3377C148.763 32.4567 148.594 32.5077 148.475 32.4737C148.408 32.4737 148.34 32.4567 148.272 32.4057L147.9 32.0489L147.781 31.9809L147.578 31.8959L147.155 31.658H146.715L146.545 31.641L146.359 31.709L146.071 31.76L145.36 32.0149C145.242 31.9469 145.191 31.8959 145.191 31.8279C145.208 31.76 145.208 31.692 145.208 31.641C145.225 31.5731 145.309 31.4541 145.394 31.2672L145.817 29.9077C145.919 29.6528 146.004 29.4829 146.139 29.4149C146.274 29.347 146.393 29.296 146.545 29.296H146.596L147.087 29.364C147.426 29.381 147.646 29.4319 147.764 29.4659C147.815 29.4659 147.832 29.4659 147.866 29.4829L148.052 29.5679L148.543 29.6359L148.865 29.7208L149.271 29.7718L149.576 29.9417L149.694 30.0097C149.694 30.0097 149.762 30.0607 149.83 30.1287L150.084 30.3326C150.253 30.5025 150.338 30.7064 150.338 30.9613C150.338 31.2162 150.236 31.4541 150.084 31.675C149.897 31.9129 149.779 32.0319 149.728 32.0319C149.677 32.0659 149.593 32.0828 149.44 32.0998C149.305 32.1338 149.136 32.2188 148.932 32.3377M152.843 36.8919C152.843 36.8919 152.708 36.9258 152.589 36.9598C152.454 37.0108 152.335 37.0448 152.217 37.0958C152.081 37.1468 151.963 37.1468 151.844 37.1468C151.675 37.1298 151.54 37.0788 151.421 36.9768C151.32 36.9089 151.218 36.7729 151.099 36.569L149.948 34.6148L149.389 33.6462C149.271 33.4593 149.22 33.2893 149.22 33.1704C149.237 33.0514 149.271 32.9835 149.288 32.9155C149.339 32.8645 149.508 32.7965 149.728 32.6776L150.321 32.3547L150.456 32.2698C150.575 32.2188 150.744 32.0828 150.947 31.8959C151.15 31.692 151.32 31.5391 151.387 31.4201C151.472 31.2842 151.557 31.1652 151.624 31.0463C151.81 30.6384 151.912 30.3156 151.827 30.0607C151.777 29.8228 151.76 29.6528 151.709 29.5679L151.573 29.279C151.506 29.1431 151.455 29.0411 151.438 29.0241C151.421 29.0071 151.252 28.8882 150.947 28.7182C150.676 28.5313 150.507 28.4294 150.473 28.4294C150.456 28.4124 150.338 28.4124 150.101 28.3614L149.119 28.1065C149.017 28.0895 148.678 28.0555 148.069 28.0215C147.984 28.0045 147.883 28.0045 147.781 28.0045C147.358 27.9535 147.138 27.9536 147.121 27.9536H144.581L144.344 28.0385L142.838 28.1745L141.365 28.5483L140.213 29.33L139.892 29.5169L139.706 29.7548L139.587 29.8738C139.587 29.8738 139.57 29.9587 139.536 30.0437C139.519 30.3835 139.536 30.6045 139.604 30.7064L139.824 30.9613C139.943 31.0973 139.993 31.1652 140.01 31.1652L140.671 31.2672L141.822 31.76C141.822 31.76 141.94 31.624 141.94 31.5561C141.94 31.4881 141.923 31.3861 141.839 31.3012L141.466 30.7914C141.297 30.5875 141.178 30.3496 141.094 30.0947C141.077 30.0267 141.077 29.9587 141.077 29.8568C141.077 29.7548 141.145 29.6868 141.314 29.6189H141.686L142.194 29.4829C142.194 29.4829 142.431 29.4659 142.753 29.4149L143.786 29.245H144.209C144.344 29.228 144.463 29.228 144.497 29.245C144.548 29.296 144.564 29.313 144.615 29.381C144.666 29.4319 144.683 29.4999 144.683 29.6189V29.7378L144.378 30.5365L143.955 31.692L143.836 32.0998L143.278 33.5612L143.109 34.054L142.448 35.7873L142.008 37.0788L141.94 37.3677L141.873 37.5716L141.805 37.9624L141.686 38.3363C141.703 38.4382 141.805 38.5062 141.94 38.5742C142.11 38.6421 142.296 38.6931 142.448 38.6591C142.634 38.6421 142.804 38.5912 142.922 38.4722L143.21 38.2173L143.769 37.9624C143.769 37.9624 143.836 37.7925 143.87 37.6735C143.87 37.6056 143.853 37.5376 143.82 37.4696L143.633 36.9768C143.633 36.9768 143.616 36.8919 143.616 36.8069C143.616 36.7219 143.667 36.569 143.735 36.3311L144.649 33.5103C144.717 33.3403 144.768 33.2214 144.785 33.1534C144.835 33.1024 144.903 33.0854 144.988 33.0514L145.496 33.2554L145.919 33.3233L146.427 33.4423L146.867 33.3403C147.002 33.3403 147.138 33.3913 147.29 33.4593C147.409 33.5272 147.527 33.6972 147.646 33.9011L147.764 34.156L147.9 34.4279L148.137 34.7847C148.137 34.7847 148.204 34.9547 148.272 35.0906C148.34 35.2265 148.441 35.4475 148.56 35.6854C148.678 35.9403 148.797 36.1272 148.865 36.2461L149.186 36.7389L149.813 37.6735C149.931 37.8605 150.067 37.9964 150.236 38.1154C150.405 38.2173 150.642 38.2853 150.896 38.2853C151.032 38.2853 151.184 38.2683 151.37 38.2173C151.54 38.1663 151.658 38.1493 151.692 38.1154C151.709 38.0984 151.861 38.0134 152.115 37.9114C152.352 37.7755 152.488 37.6735 152.555 37.6226L152.843 37.2147C152.945 37.1298 152.962 37.0448 152.979 37.0108C152.979 36.9428 152.962 36.8919 152.928 36.8749C152.877 36.8409 152.86 36.8239 152.809 36.8409M163.069 30.9443C162.9 31.1142 162.815 31.2332 162.764 31.3182C162.713 31.4201 162.713 31.4881 162.713 31.5221C162.73 31.5731 162.781 31.607 162.883 31.641C162.984 31.692 163.137 31.658 163.357 31.641C163.594 31.59 163.763 31.5391 163.865 31.4711C163.983 31.4031 164.22 31.2162 164.525 30.9103L164.948 30.5195C165.151 30.3156 165.354 30.0267 165.541 29.7038C165.727 29.364 165.828 29.0751 165.795 28.8372C165.778 28.5823 165.71 28.3954 165.558 28.2764C165.422 28.1915 165.304 28.0895 165.151 28.0385C165.033 27.9875 164.948 27.9705 164.897 27.9705H164.356L163.882 27.9026L163.644 28.0045H163.458L163.17 28.0725L162.798 28.1235L162.375 28.2934L161.037 28.6673L158.786 29.9417L156.906 31.4881L155.518 32.9155L154.672 34.3259C154.502 34.5808 154.367 34.9377 154.265 35.3625C154.147 35.7873 154.13 36.1102 154.147 36.3311C154.164 36.535 154.248 36.8069 154.384 37.1298C154.519 37.4356 154.672 37.6735 154.79 37.7925C154.926 37.9284 155.078 38.0474 155.264 38.1493C155.45 38.2173 155.637 38.2853 155.789 38.2853C155.958 38.3023 156.212 38.2853 156.619 38.2343C157.025 38.1663 157.33 38.1154 157.482 38.0984C157.668 38.0474 157.888 37.9794 158.142 37.8944L158.819 37.6056L159.531 37.2487L160.208 36.8069C160.563 36.62 160.733 36.501 160.749 36.484L161.19 36.1272L162.392 35.4475L163.712 34.4789L163.543 35.2945L163.458 35.7363C163.407 36.1102 163.357 36.3311 163.323 36.3991C163.221 36.501 163.187 36.535 163.103 36.518L162.815 36.3821C162.815 36.3821 162.679 36.3991 162.629 36.45L162.527 36.8749L162.273 37.6226C162.256 37.7245 162.222 37.8095 162.222 37.9114C162.239 38.0304 162.29 38.1154 162.392 38.2683C162.493 38.3872 162.595 38.4552 162.747 38.5062C162.798 38.5062 162.866 38.5232 162.933 38.5062C162.984 38.4892 163.137 38.4382 163.407 38.3193C163.695 38.2343 163.831 38.1493 163.882 38.1323C163.932 38.1154 164 38.0474 164.119 37.9454C164.203 37.8265 164.305 37.6905 164.406 37.4696C164.474 37.2827 164.593 36.8409 164.779 36.1782L165.422 33.8501L165.625 32.9835C165.693 32.7286 165.727 32.4907 165.693 32.3207C165.642 32.1338 165.574 32.0149 165.49 31.9979C165.388 31.9469 165.185 32.0149 164.863 32.2018L164.423 32.4057C164.322 32.4567 164.22 32.5756 164.051 32.7286C163.882 32.9155 163.56 33.2214 163.069 33.6462C162.578 34.071 162.239 34.3429 162.053 34.4449L161.02 35.0396L160.699 35.2775C160.58 35.3625 160.377 35.4644 160.089 35.5834L159.378 35.8893C159.26 35.9572 159.09 36.0082 158.904 36.0762C158.701 36.1442 158.549 36.1782 158.464 36.1951C158.362 36.2291 158.159 36.2461 157.871 36.2631L157.262 36.3311C156.889 36.3481 156.619 36.3141 156.466 36.2121C156.331 36.1102 156.178 35.9912 156.06 35.8043C155.941 35.6344 155.874 35.4984 155.874 35.4305C155.874 35.3625 155.874 35.2605 155.924 35.1246C155.975 35.0056 155.992 34.9377 155.992 34.8867L156.06 34.5978L156.263 34.224L156.5 33.6802L156.94 33.1874C156.94 33.1874 157.042 33.0514 157.177 32.8645C157.313 32.6776 157.516 32.4567 157.719 32.2358C157.956 31.9979 158.159 31.811 158.328 31.675L158.684 31.4201C159.09 31.1142 159.31 30.9273 159.412 30.8593L159.581 30.7744L160.936 30.0777C161.173 29.9587 161.427 29.8738 161.714 29.7888L161.968 29.7208L163.052 29.4659H163.221C163.357 29.4829 163.458 29.5339 163.526 29.6359C163.577 29.7548 163.611 29.8398 163.611 29.9587C163.611 30.1626 163.56 30.3835 163.441 30.5195C163.34 30.6894 163.238 30.8254 163.086 30.9953M136.252 29.5849C136.252 29.7548 136.235 29.9077 136.201 30.0777C136.201 30.2476 136.184 30.5875 136.133 31.1142C136.116 31.624 136.083 32.0659 136.066 32.4057C136.049 32.7286 136.015 33.0684 135.964 33.3573L135.896 34.02L134.576 34.071H134.508C134.322 34.105 133.78 34.105 132.917 34.122L133.171 33.6292C133.221 33.5103 133.255 33.4253 133.289 33.3743L133.594 32.9495C133.695 32.8305 133.797 32.6436 133.916 32.4397C134.034 32.2018 134.119 32.0659 134.203 31.9639C134.305 31.8789 134.339 31.8279 134.339 31.794L134.44 31.5561L134.576 31.4201L134.999 30.9783C134.999 30.9783 135.135 30.7404 135.355 30.3666L135.778 29.7548C135.964 29.4319 136.116 29.296 136.184 29.313C136.252 29.364 136.286 29.4489 136.252 29.5849ZM138.114 34.19L137.86 34.0031C137.759 33.9521 137.725 33.8331 137.742 33.6972V33.4423L137.996 30.8933L138.063 29.8738C138.131 29.211 138.165 28.8202 138.165 28.6503V28.3444C138.165 28.2084 138.097 28.0895 137.996 27.9875C137.877 27.8686 137.742 27.8176 137.572 27.8006C137.318 27.8006 137.048 27.8686 136.794 28.0555L136.438 28.3104L135.084 29.262C135.084 29.262 134.982 29.381 134.847 29.5849L134.559 29.8568L134.474 29.9417C134.474 29.9417 134.288 30.1966 133.983 30.6384L132.578 32.6266L131.986 33.6632L131.884 33.8671C131.782 34.0031 131.715 34.105 131.63 34.122C131.562 34.173 131.376 34.19 131.088 34.19C130.716 34.19 130.479 34.19 130.411 34.173C130.326 34.173 130.242 34.122 130.225 34.054L130.106 33.7991C130.106 33.7991 130.005 33.7142 129.937 33.6802C129.886 33.6802 129.768 33.7312 129.582 33.7821L129.463 33.8331L129.057 34.2579L128.633 34.5808C128.633 34.5808 128.532 34.7507 128.515 34.8867C128.447 35.1926 128.447 35.4305 128.532 35.5324C128.6 35.6514 128.769 35.7193 129.023 35.7363C129.277 35.7533 129.463 35.7533 129.615 35.7533C129.734 35.7533 129.903 35.7533 130.14 35.7363C130.343 35.7193 130.58 35.7193 130.8 35.6854L130.682 35.9742L129.954 37.2147L129.819 37.5886L129.277 38.5062L128.904 39.2369L128.65 39.6277L128.532 39.8656C128.413 40.0695 128.346 40.2225 128.363 40.2395C128.363 40.2905 128.447 40.3244 128.65 40.4264C128.837 40.4944 128.955 40.5453 129.057 40.5284C129.192 40.5284 129.294 40.4774 129.378 40.3924L129.48 40.2225L129.666 40.0865L130.022 39.3219C130.022 39.3219 130.089 39.2369 130.123 39.2369L130.174 39.1009L131.444 36.7219L131.816 35.9233C131.884 35.8043 131.935 35.7363 131.986 35.6854C132.053 35.6344 132.121 35.6174 132.189 35.6004C132.256 35.5834 132.477 35.5494 132.832 35.5324H133.628L134.593 35.4644H134.999L135.236 35.4984C135.439 35.5154 135.575 35.5494 135.609 35.5664C135.625 35.5834 135.659 35.6684 135.676 35.7533C135.693 35.8723 135.693 35.9912 135.727 36.1272C135.727 36.6709 135.71 37.1637 135.659 37.6056C135.609 38.0474 135.642 38.3363 135.676 38.4552C135.744 38.5742 135.795 38.6421 135.846 38.6931C135.896 38.7441 135.964 38.7781 136.049 38.8121C136.184 38.8291 136.421 38.7951 136.709 38.6761L137.251 38.4212C137.589 38.2853 137.776 38.1663 137.809 38.0644C137.86 37.9794 137.877 37.8944 137.877 37.8605C137.877 37.8265 137.86 37.7245 137.776 37.5546C137.691 37.3847 137.674 37.2487 137.674 37.1298V36.8919L137.623 36.0762C137.623 35.9572 137.64 35.7703 137.674 35.5324L137.911 35.3625C138.08 35.2435 138.148 35.1756 138.165 35.1756C138.267 35.0566 138.3 34.8697 138.267 34.6658C138.25 34.4279 138.199 34.2919 138.131 34.224M125.146 29.7718C125.146 29.7718 124.977 29.9757 124.824 30.1796C124.655 30.3666 124.536 30.4855 124.519 30.5025L124.028 30.8593L123.063 31.709C123.063 31.709 122.894 31.811 122.589 31.9639C122.285 32.0998 122.115 32.2528 122.065 32.3547V32.6096L121.861 33.0175C121.861 33.1024 121.912 33.1534 121.963 33.2044C122.014 33.2554 122.082 33.2724 122.2 33.3063C122.335 33.3233 122.488 33.3233 122.64 33.3063C122.81 33.2724 122.996 33.2384 123.199 33.1704C123.402 33.1024 123.622 33.0345 123.808 32.9155C123.995 32.8135 124.249 32.6606 124.536 32.4397C124.841 32.2358 125.061 32.0319 125.214 31.8959C125.383 31.76 125.637 31.5221 126.009 31.1482C126.365 30.7914 126.653 30.4175 126.839 30.0607C127.025 29.6868 127.127 29.33 127.076 29.0241C127.059 28.7012 126.957 28.4633 126.822 28.2934C126.653 28.1235 126.466 28.0045 126.212 27.9196C125.925 27.8346 125.552 27.7836 125.061 27.7496C124.807 27.7496 124.536 27.7496 124.316 27.7666C124.079 27.7666 123.791 27.8176 123.47 27.8856C123.165 27.9875 122.793 28.0895 122.369 28.2424L121.269 28.6163C121.167 28.6333 121.032 28.7182 120.846 28.8202C120.659 28.9052 120.422 29.0581 120.101 29.211C119.779 29.381 119.542 29.5169 119.373 29.6189L118.34 30.2816L117.257 31.2502C116.85 31.624 116.529 31.9809 116.241 32.3547C115.953 32.7286 115.733 33.0854 115.547 33.4593C115.36 33.8331 115.242 34.207 115.208 34.6148C115.208 34.7338 115.208 34.9886 115.225 35.3965C115.225 35.8043 115.293 36.1442 115.411 36.484C115.547 36.8069 115.733 37.1128 116.055 37.4186C116.342 37.7245 116.664 37.9624 117.02 38.1323C117.392 38.3023 117.798 38.4212 118.222 38.5062C118.645 38.5742 119 38.6251 119.254 38.6421H120.236C120.727 38.6251 121.15 38.6251 121.489 38.5912C121.811 38.5742 122.149 38.4892 122.471 38.4042L123.944 37.9284C124.062 37.9114 124.367 37.7585 124.841 37.5036L125.823 37.0108L126.67 36.4161C126.788 36.3311 126.856 36.2801 126.873 36.2291C126.89 36.2121 126.924 36.1612 126.924 36.1102C126.924 35.9403 126.907 35.8553 126.822 35.8043C126.72 35.7363 126.636 35.7363 126.517 35.7533C126.416 35.8043 126.263 35.8723 126.077 36.0082C125.891 36.1442 125.654 36.3141 125.383 36.45C125.078 36.62 124.74 36.7729 124.401 36.9258C124.028 37.0618 123.656 37.2147 123.267 37.2997C122.877 37.4186 122.437 37.4696 121.997 37.4866H121.218C120.795 37.4866 120.389 37.4696 120.067 37.4356C119.745 37.4186 119.457 37.3507 119.22 37.2487C118.966 37.1637 118.729 37.0448 118.442 36.8919C118.188 36.7559 117.968 36.552 117.798 36.3481C117.629 36.1442 117.51 35.8723 117.443 35.5494C117.375 35.1926 117.341 34.8867 117.341 34.5638C117.324 34.19 117.358 33.8501 117.443 33.5782C117.51 33.3233 117.612 33.0684 117.731 32.8305C117.849 32.5926 117.985 32.3547 118.205 32.0998C118.408 31.8449 118.746 31.5051 119.17 31.0803L120.016 30.3835C120.304 30.1456 120.643 29.8907 121.066 29.6019C121.489 29.347 121.845 29.1601 122.098 29.0411C122.352 28.9561 122.606 28.8542 122.877 28.7862C123.131 28.7182 123.436 28.6503 123.775 28.5823C124.079 28.5143 124.384 28.5143 124.638 28.5653C124.875 28.6163 125.061 28.6842 125.163 28.8032C125.264 28.9222 125.332 29.0581 125.332 29.194C125.332 29.313 125.315 29.398 125.281 29.5169C125.264 29.6189 125.214 29.7038 125.163 29.7548" fill="#E60012"/>
<path d="M59.6441 13.5264H56.1058V16.3643H59.6441V13.5264ZM50.502 16.3813H53.9726V13.5434H50.502V16.3813ZM48.4196 18.6074L48.4704 16.7041V13.1356L48.4196 11.5213L50.0618 11.5893H53.9557V10.5867L53.888 8.61548H56.1566L56.0889 10.5867V11.5893H60.0843L61.7942 11.5213L61.7434 13.1356V16.7041L61.7942 18.6413H59.6103V18.3695H56.0889V21.6151L56.1566 23.4843H53.888L53.9557 21.6151V18.3695H50.4851L50.5189 18.6074H48.3857H48.4196Z" fill="black"/>
<path d="M74.2883 18.7603C74.1867 18.6244 74.0851 18.4715 73.9497 18.3185C73.8143 18.1486 73.4926 17.8427 72.9508 17.3839C73.2387 17.214 73.5265 16.9761 73.8312 16.6702H72.7477V18.7603H74.2883ZM67.3301 18.7263L68.7184 18.7603H70.9023V16.6702H69.294L67.9396 16.7042V15.0049L69.294 15.0389H70.9023V13.5095H68.8877L67.5333 13.5605V11.8442L68.8877 11.8782H74.7285L76.1845 11.8442V13.5775L74.8131 13.5095H72.7646V15.0389H74.7116L75.7273 15.0049V16.7212L74.5592 16.6532C74.7116 16.8401 74.847 16.9761 74.9316 17.061L75.4734 17.5878L75.8628 17.9787C75.6258 18.2166 75.3888 18.4715 75.1348 18.7603L76.303 18.7263V20.3917L74.847 20.3577H68.7184L67.347 20.3917V18.7263H67.3301ZM67.0592 21.3093H76.5569V10.9945H67.0592V21.3093ZM65.1631 9.24426L66.7376 9.29524H76.9463L78.5039 9.24426L78.4531 10.9266V21.4962L78.5039 23.3145H76.5738V22.9916H67.0762V23.2125H65.18L65.2308 21.3942V10.9266L65.18 9.24426H65.1631Z" fill="black"/>
<path d="M90.9646 18.7603C90.863 18.6244 90.7614 18.4715 90.626 18.3185C90.4905 18.1486 90.1689 17.8427 89.6271 17.3839C89.9149 17.214 90.2027 16.9761 90.5075 16.6702H89.424V18.7603H90.9477H90.9646ZM83.9895 18.7263L85.3777 18.7603H87.5617V16.6702H85.9533L84.5989 16.7042V15.0049L85.9533 15.0389H87.5617V13.5095H85.547L84.1926 13.5605V11.8442L85.547 11.8782H91.3878L92.8438 11.8442V13.5775L91.4725 13.5095H89.424V15.0389H91.3709L92.3867 15.0049V16.7212L91.2185 16.6532C91.3709 16.8401 91.5063 16.9761 91.591 17.061L92.1327 17.5878L92.5052 17.9787C92.2851 18.2166 92.0312 18.4715 91.7772 18.7603L92.9454 18.7263V20.3917L91.4894 20.3577H85.3608L83.9895 20.3917V18.7263ZM83.7355 21.3093H93.2332V10.9945H83.7355V21.3093ZM81.8394 9.24426L83.4138 9.29524H93.6226L95.1801 9.24426L95.1293 10.9266V21.4962L95.1801 23.3145H93.2501V22.9916H83.7524V23.2125H81.8563L81.9071 21.3942V10.9266L81.8563 9.24426H81.8394Z" fill="black"/>
<path d="M110.535 16.8231C111.433 18.3864 112.177 19.8308 112.77 21.1223C112.533 21.2582 112.279 21.3772 112.008 21.5301C111.737 21.6661 111.585 21.751 111.568 21.768L111.077 22.1249C110.772 21.3772 110.468 20.6465 110.146 19.9498C109.824 19.2531 109.553 18.7433 109.384 18.4374L108.893 17.6217C109.503 17.3838 110.061 17.1289 110.535 16.8401M103.865 11.2154V9.38014L105.185 9.41413H110.061L111.466 9.38014V11.2154L110.061 11.1644H105.185L103.865 11.2154ZM106.15 17.5878C105.507 18.9642 104.999 19.9498 104.627 20.5615C104.254 21.1563 103.713 21.887 102.985 22.7366C102.798 22.5497 102.663 22.4138 102.578 22.3288L101.935 21.751L101.461 21.3262C102.172 20.6635 102.748 20.0008 103.171 19.338C103.611 18.6753 103.916 18.0126 104.102 17.3668L104.271 16.7891C104.83 17.095 105.439 17.3668 106.134 17.6047M103.255 15.8375C103.272 15.9734 103.306 16.1603 103.357 16.3813C103.391 16.6022 103.425 16.874 103.425 17.1969C103.425 17.5028 103.357 17.8426 103.222 18.1995C103.018 18.7093 102.731 19.0831 102.375 19.321C102.02 19.5589 101.41 19.7629 100.564 19.9498C100.462 19.355 100.36 18.9472 100.242 18.7093L99.9202 18.0636C100.445 18.0296 100.885 17.9106 101.258 17.7067C101.63 17.5028 101.749 17.1969 101.647 16.7721C101.529 16.3473 101.41 16.0244 101.258 15.7865C101.105 15.5486 100.767 15.1578 100.242 14.631V13.7643C100.597 12.8297 100.801 12.252 100.868 12.0141L101.224 10.7226H99.9202V21.4112L99.971 23.2804H98.041L98.0918 21.4282V10.7566L98.041 9.04028L99.6155 9.07427H102.764L103.476 10.2298L101.901 13.9173C102.121 14.1892 102.257 14.3251 102.273 14.3591L103.154 15.6336V13.9852L104.83 14.0022H112.381V15.8375L110.925 15.7865H108.588V21.87C108.588 22.1759 108.554 22.4138 108.47 22.5667C108.402 22.7196 108.131 22.8896 107.691 23.1105C107.251 23.3144 106.574 23.4163 105.693 23.4163C105.659 23.2294 105.626 23.0085 105.575 22.7706C105.524 22.5327 105.456 22.2948 105.372 22.0399L105.084 21.2752C105.439 21.3262 105.778 21.3432 106.066 21.3092C106.371 21.2752 106.54 21.2243 106.608 21.1563C106.675 21.0713 106.692 20.9184 106.692 20.6805V15.7865H104.779L103.255 15.8205V15.8375Z" fill="black"/>
<path d="M128.904 21.887C128.735 22.1589 128.6 22.3968 128.464 22.6177C128.346 22.8386 128.193 23.1954 127.99 23.7052C126.094 22.8046 124.164 22.0739 122.2 21.4961C122.37 21.2922 122.522 21.1223 122.657 20.9524C122.776 20.7824 122.979 20.4426 123.233 19.9498C123.893 20.1877 124.807 20.4936 125.976 20.9014C127.144 21.2922 128.126 21.6321 128.904 21.921M121.811 10.7226V9.38014L121.777 8.46252H123.707L123.673 9.38014V10.1618C124.046 10.0429 124.553 9.85594 125.146 9.58406C125.755 9.31217 126.111 9.12525 126.23 9.05727L126.839 8.68343C127.228 9.29518 127.516 9.68601 127.685 9.85594L128.126 10.3148C127.364 10.6206 126.788 10.8585 126.365 11.0115C125.942 11.1644 125.044 11.4703 123.656 11.9291V12.4559C123.656 12.5578 123.69 12.6258 123.741 12.6938C123.792 12.7617 123.961 12.8127 124.249 12.8467C124.537 12.8807 125.281 12.8977 126.467 12.8807C126.636 12.8807 126.754 12.8637 126.856 12.8127C126.958 12.7787 127.042 12.6938 127.161 12.5408C127.262 12.4049 127.347 12.252 127.381 12.082L127.533 11.4533C128.075 11.7762 128.667 12.048 129.328 12.2859C129.091 12.8127 128.904 13.2545 128.752 13.5774C128.6 13.9003 128.43 14.1382 128.261 14.2911C128.075 14.444 127.906 14.529 127.736 14.563C127.567 14.597 126.856 14.614 125.62 14.614C124.384 14.614 123.538 14.597 123.114 14.529C122.691 14.461 122.386 14.3761 122.217 14.2401C122.048 14.1042 121.946 13.9513 121.895 13.7473C121.845 13.5604 121.828 13.3565 121.828 13.1526V12.4729L120.609 12.7957C120.389 12.218 120.253 11.8611 120.169 11.7422L119.796 11.1134C120.507 11.0455 121.184 10.9095 121.828 10.7056M116.732 15.1747L118.611 15.2257H125.298L127.059 15.1747L127.025 16.3643V19.423L127.059 20.5105H125.095L125.163 19.491V16.874H118.679V19.7119L118.73 20.7994H116.732L116.783 19.7119V16.3303L116.732 15.1747ZM123.114 17.6217C122.996 18.2675 122.86 18.8622 122.708 19.406C122.556 19.9498 122.285 20.4936 121.879 21.0373C121.472 21.5811 120.947 22.0229 120.27 22.3798C119.61 22.7366 118.95 22.9745 118.289 23.1275C117.629 23.2634 116.833 23.3993 115.902 23.5013C115.767 22.9235 115.648 22.5497 115.564 22.3968L115.157 21.6491C115.885 21.6491 116.816 21.5641 117.968 21.3772C119.119 21.1903 119.898 20.7484 120.321 20.0517C120.727 19.355 120.964 18.6583 121.032 17.9616L121.1 17.3159C121.32 17.3838 121.523 17.4348 121.675 17.4688C121.828 17.5028 122.302 17.5538 123.097 17.6387M119.999 9.14224C119.474 9.65203 118.95 10.1448 118.459 10.6206H118.933L118.899 11.7082V13.7983L118.933 14.7669H117.054L117.104 13.8323V11.6742C116.884 11.8271 116.715 11.9631 116.579 12.048C116.444 12.133 116.004 12.3879 115.293 12.7957C115.191 12.5578 115.107 12.3709 115.022 12.201C114.937 12.031 114.717 11.6742 114.345 11.1474C115.005 10.8925 115.564 10.6036 115.987 10.3148C116.427 10.0089 116.833 9.68601 117.223 9.31217C117.629 8.93832 117.883 8.66644 118.002 8.49651L118.306 8.05469C118.493 8.20762 118.696 8.36056 118.899 8.5135C119.102 8.66644 119.474 8.87035 120.016 9.14224" fill="black"/>
<path d="M136.591 11.1134V9.2782L138.047 9.31219H142.973L144.378 9.2782V11.1134L142.973 11.0795H138.047L136.591 11.1134ZM135.626 13.2206L137.589 13.2716H143.396L145.377 13.2206V15.0898L143.396 15.0388H140.264L140.891 15.4636C140.197 16.4322 139.435 17.4518 138.605 18.5394C139.926 18.4884 141.263 18.4034 142.618 18.3355C142.245 17.7917 141.788 17.2139 141.263 16.6022C141.551 16.4832 141.788 16.3813 141.94 16.3133C142.093 16.2453 142.448 16.0414 143.007 15.7185C143.515 16.4153 144.057 17.146 144.632 17.9276C145.208 18.7093 145.597 19.2531 145.834 19.5759C145.259 19.9838 144.937 20.2387 144.835 20.3236L144.209 20.8844C144.023 20.5445 143.837 20.2387 143.65 19.9668C140.095 20.1707 138.064 20.3236 137.556 20.4086L136.828 20.5276C136.523 19.8648 136.235 19.2361 135.947 18.6243C136.167 18.4714 136.354 18.3355 136.506 18.2165C136.658 18.0976 136.878 17.8766 137.149 17.5708C137.42 17.2649 137.708 16.908 137.979 16.5002C138.267 16.0924 138.538 15.6166 138.791 15.0898H137.589L135.626 15.1408V13.2716V13.2206ZM131.749 10.0089C132.24 9.66904 132.595 9.39715 132.798 9.19324L133.289 8.70044C133.628 9.02331 133.865 9.2782 134.034 9.43114L134.915 10.3318L135.626 11.0625C135.372 11.3174 135.185 11.5043 135.084 11.6232L134.61 12.184L134.203 12.6428C133.865 12.235 133.543 11.8611 133.255 11.5213C132.968 11.1984 132.46 10.6886 131.749 9.99191M133.12 15.8035H132.104L131.139 15.8375V14.0022L132.104 14.0362H133.916L134.999 14.0022L134.965 15.2088V19.6099C135.118 19.7289 135.236 19.8138 135.321 19.8648L136.066 20.5276C136.472 20.8504 136.963 21.1223 137.556 21.3092C138.148 21.4962 139.029 21.5811 140.197 21.5811C141.348 21.5811 142.33 21.5301 143.142 21.4792C143.955 21.4282 144.869 21.2922 145.919 21.0883C145.817 21.4282 145.733 21.7341 145.665 21.972C145.597 22.2099 145.563 22.4308 145.547 22.6177L145.445 23.3144C143.955 23.3484 142.601 23.3654 141.416 23.3654C139.333 23.3654 137.979 23.3144 137.369 23.1955C136.76 23.0765 136.303 22.9236 136.015 22.7366C135.71 22.5497 135.422 22.3118 135.152 22.0399C134.881 21.751 134.661 21.5811 134.525 21.4962C134.373 21.4112 134.22 21.3772 134.068 21.3942C133.882 21.3942 133.679 21.5131 133.442 21.6831C133.205 21.87 132.731 22.3798 132.003 23.2464C131.698 22.3798 131.512 21.904 131.461 21.802L131.088 20.9864C131.461 20.8504 131.783 20.6975 132.07 20.5276L132.714 20.1197L133.103 19.8818V15.7695L133.12 15.8035Z" fill="black"/>
<path d="M154.13 12.4389V10.6716L155.62 10.7396H157.414C157.245 10.2978 157.076 9.95791 156.923 9.75399L156.534 9.24421C157.194 9.0233 157.635 8.83637 157.821 8.71742L158.244 8.46253C158.752 9.31218 159.141 9.9919 159.412 10.5187C159.226 10.5867 159.04 10.6716 158.837 10.7736H160.851L162.426 10.7056V12.4729L160.8 12.4219H155.62L154.113 12.4729L154.13 12.4389ZM154.452 21.836C154.672 21.6321 154.875 21.2922 155.061 20.7994C155.247 20.3236 155.366 19.6439 155.4 18.7943C155.434 17.9446 155.467 17.2819 155.467 16.8061C155.467 16.1603 155.467 15.5656 155.451 15.0218L155.4 13.5604L156.551 13.5944H159.09L160.479 13.5604L160.428 15.0898V21.4112C160.428 21.5641 160.462 21.6831 160.513 21.768C160.563 21.853 160.648 21.819 160.767 21.6661C160.834 21.5811 160.885 21.4622 160.919 21.3262C160.953 21.1733 160.987 21.0033 161.004 20.7994L161.054 20.1707C161.274 20.3066 161.495 20.4086 161.715 20.5106C161.935 20.6125 162.29 20.7145 162.798 20.8334C162.73 21.1393 162.663 21.4282 162.595 21.734C162.527 22.0399 162.443 22.3458 162.324 22.6177C162.223 22.8896 162.07 23.1105 161.884 23.2634C161.698 23.4164 161.376 23.5013 160.936 23.5353C160.648 23.5523 160.259 23.5353 159.768 23.5013C159.277 23.4673 158.989 23.3314 158.887 23.1275C158.786 22.9236 158.735 22.7366 158.735 22.5837V15.2087H157.194C157.194 15.6845 157.16 16.2453 157.16 16.908C157.16 17.5708 157.144 18.1145 157.11 18.5564C157.11 18.9982 157.042 19.5589 156.94 20.2047C156.839 20.8674 156.67 21.4622 156.399 21.9889C156.145 22.5157 155.857 22.9405 155.535 23.2464L155.095 23.6882C154.79 23.2294 154.587 22.9236 154.435 22.8046L153.893 22.3118C154.045 22.1929 154.232 22.0229 154.452 21.819M150.219 12.7787C150.659 12.6428 151.049 12.4899 151.387 12.3029C151.523 12.6428 151.624 12.9147 151.709 13.1016C151.777 13.3055 151.946 13.7473 152.183 14.4611C151.726 14.58 151.252 14.7839 150.727 15.0728C150.676 14.8519 150.626 14.614 150.575 14.3591C150.524 14.1042 150.49 13.9513 150.456 13.8833L150.219 13.3395V15.2427H152.2V11.7762H150.219V12.7787ZM147.477 22.4308C147.595 22.2778 147.714 22.0909 147.832 21.904C147.951 21.7001 148.086 21.3772 148.221 20.9354C148.357 20.4936 148.442 19.9668 148.492 19.355C148.543 18.7603 148.56 18.1655 148.56 17.5878V16.8061L147.646 16.8401V15.1917L148.56 15.2257V11.7592L148.509 10.1958L149.288 10.2298H150.033C150.118 9.83896 150.151 9.60106 150.168 9.55008L150.338 8.37756C150.896 8.5305 151.54 8.66644 152.268 8.7684C152.098 9.27819 151.946 9.754 151.811 10.2298H153.08L153.876 10.1958L153.825 11.7762V22.6347C153.825 22.7366 153.774 22.8726 153.656 23.0765C153.537 23.2634 152.809 23.4333 151.455 23.5693C151.438 23.3314 151.387 23.1275 151.354 22.9405C151.32 22.7536 151.252 22.5497 151.15 22.3458L150.846 21.6831C151.1 21.7171 151.32 21.7171 151.506 21.7001C151.844 21.7001 152.048 21.6491 152.115 21.5641C152.183 21.4792 152.217 21.3432 152.217 21.1733V16.7721H150.236V17.5028C150.71 17.3838 151.116 17.2309 151.438 17.061C151.591 17.4688 151.692 17.8257 151.777 18.0806C151.861 18.3524 151.98 18.8962 152.149 19.7119C151.709 19.8308 151.455 19.9158 151.354 19.9838L150.812 20.2896C150.659 19.406 150.558 18.8622 150.473 18.6243L150.202 17.8596C150.202 18.0636 150.202 18.3524 150.202 18.6753C150.202 19.0152 150.168 19.457 150.118 19.9838C150.067 20.5275 149.948 21.0883 149.796 21.6831C149.627 22.2778 149.356 22.9066 148.966 23.5863C148.797 23.3994 148.628 23.2294 148.475 23.0935C148.323 22.9575 147.984 22.7026 147.493 22.3798" fill="black"/>
<path d="M164.61 14.0702L164.66 12.8467V11.6232L164.61 10.5357L166.269 10.5696H171.094C170.907 10.0768 170.755 9.73698 170.62 9.53307L170.298 9.00628C171.077 8.76838 171.534 8.61544 171.669 8.54747L172.126 8.30957C172.296 8.63244 172.465 8.9553 172.634 9.27817C172.821 9.60104 172.905 9.77097 172.922 9.78796L173.159 10.2977C172.956 10.3827 172.753 10.4847 172.567 10.5696H177.561L178.915 10.5187L178.865 11.6232V13.0336L178.915 14.0872H177.002L177.036 13.2035V12.2859H166.59V13.2035L166.624 14.0702H164.61ZM170.891 18.4374H168.402L166.76 18.4714V16.7721C166.506 16.925 166.235 17.0779 165.964 17.2479C165.862 17.027 165.761 16.84 165.659 16.6701C165.575 16.5172 165.27 16.1433 164.745 15.5826C165.321 15.3956 165.795 15.2087 166.201 15.0218C166.607 14.8349 167.031 14.58 167.471 14.2741C167.928 13.9682 168.3 13.6963 168.588 13.4415C168.893 13.1866 169.214 12.8467 169.57 12.4389C169.773 12.6768 169.959 12.8807 170.129 13.0166C170.281 13.1696 170.637 13.4075 171.161 13.7813C170.01 14.648 169.231 15.2087 168.842 15.4806C168.453 15.7525 167.809 16.1433 166.912 16.6871L168.368 16.7211H175.428L176.596 16.6871C176.359 16.5512 176.173 16.4492 176.054 16.3642L174.277 15.1577L172.871 14.2911L172.313 13.9512C172.499 13.7983 172.685 13.6454 172.837 13.4754C173.007 13.3225 173.227 13.0166 173.515 12.5578C173.515 12.5578 175.191 13.6114 178.492 15.7015C178.357 15.9054 178.238 16.0754 178.137 16.2453C178.035 16.4152 177.815 16.8061 177.476 17.4688C177.256 17.2649 177.019 17.061 176.765 16.84V18.4884L175.411 18.4544H172.736V21.3092H177.493L178.949 21.2412V23.0935L177.493 23.0425H166.184L164.525 23.0935V21.2412L166.184 21.3092H170.84V18.4544L170.891 18.4374Z" fill="black"/>
</g>
<defs>
<clipPath id="clip0_572_2081">
<rect width="179" height="46" fill="white"/>
</clipPath>
</defs>
</svg>
