<svg width="113" height="46" viewBox="0 0 113 46" fill="none" xmlns="http://www.w3.org/2000/svg">
<g clip-path="url(#clip0_583_3353)">
<path fill-rule="evenodd" clip-rule="evenodd" d="M54.8055 21.8739C44.4616 25.5556 40.2459 26.7251 28.4243 25.3824L27.7289 25.2957L12.9955 23.1733C8.82318 23.0001 5.47664 24.3428 2.47779 26.6818C1.73895 27.2882 0.0439453 28.9341 0.0439453 28.9341C4.25971 28.1978 5.47664 28.1545 9.99664 29.324C18.2543 31.4031 27.0336 36.5575 34.987 38.3334C39.4201 39.1997 42.5493 40.0226 47.417 39.8494C55.8051 39.5462 62.6286 36.2976 70.1039 32.9624C75.6236 30.4068 79.5351 28.6743 85.7066 27.2882C89.8789 26.4219 94.1382 25.9454 98.3974 25.9021C97.4847 25.5989 96.6155 25.2091 95.7897 24.7759C91.487 22.7835 87.0974 21.484 82.5774 20.1846C78.2313 19.3616 74.6674 18.7552 70.0605 18.8419C67.9309 18.8852 65.8447 19.1017 63.7586 19.4483C60.7163 20.0547 57.7609 20.8776 54.8489 21.9172L54.8055 21.8739Z" fill="url(#paint0_linear_583_3353)"/>
<path fill-rule="evenodd" clip-rule="evenodd" d="M113 28.5442C107.915 28.6309 102.83 29.2806 97.8756 30.3635C92.6168 31.4463 87.4449 32.8757 82.4033 34.6949C79.1003 34.0019 75.8841 32.9623 72.8418 31.6196C76.8403 29.8437 80.7518 28.2844 85.7064 27.2015C89.8787 26.3352 94.1379 25.8587 98.3972 25.8154C103.569 25.8154 108.741 26.5518 113 28.5009V28.5442Z" fill="url(#paint1_linear_583_3353)"/>
<path fill-rule="evenodd" clip-rule="evenodd" d="M35.7256 38.4199H35.6387C39.2025 42.015 45.0698 45.9133 50.8067 45.9566C59.4556 46.3465 70.7991 39.5894 82.4033 34.7382C79.1002 34.0018 75.9275 33.0056 72.8418 31.6628C71.9725 32.0527 71.0598 32.4858 70.1037 32.919C62.6283 36.2109 55.7614 39.4595 47.4167 39.806C42.8098 39.9359 39.7675 39.2429 35.7256 38.4199Z" fill="url(#paint2_linear_583_3353)"/>
<path fill-rule="evenodd" clip-rule="evenodd" d="M83.3593 20.3578C74.1889 12.6045 70.3208 0.736347 61.9327 0C56.7608 0 52.0669 4.54802 46.8516 10.1789C48.7204 11.2618 50.4154 12.6045 51.9366 14.1638C54.1096 16.2863 56.2393 18.5819 58.4123 20.7476C60.1508 20.2279 61.9327 19.7947 63.7581 19.4482C65.8443 19.1017 67.9739 18.9284 70.06 18.8418C74.7104 18.7552 78.2308 19.3616 82.5769 20.1846L83.3593 20.4011V20.3578Z" fill="url(#paint3_linear_583_3353)"/>
<path fill-rule="evenodd" clip-rule="evenodd" d="M51.8927 14.1205C36.6812 -0.996231 25.8592 17.1092 13.125 23.1733L22.3823 24.516C22.3823 24.2994 22.3823 24.0396 22.3823 23.823C22.3823 20.7476 23.9904 18.2787 25.9462 18.2787C27.9019 18.2787 29.51 20.7476 29.51 23.823C29.51 24.3861 29.4665 24.9492 29.3362 25.5122C33.5519 25.9454 37.6373 26.2486 41.5054 25.6855C47.8508 24.7759 53.5877 22.4369 58.4119 20.7476C56.2388 18.4087 54.1092 16.3296 51.9362 14.1638L51.8927 14.1205Z" fill="url(#paint4_linear_583_3353)"/>
<path fill-rule="evenodd" clip-rule="evenodd" d="M0 28.8907C4.21577 28.1544 5.43269 28.1111 9.95269 29.2806C14.0815 30.3201 18.3842 32.1393 22.6 33.9152L22.6869 29.5838C19.1231 28.5875 15.82 27.2015 12.6038 26.3352C8.60538 25.2956 3.56385 25.0357 0 28.8907Z" fill="url(#paint5_linear_583_3353)"/>
</g>
<defs>
<linearGradient id="paint0_linear_583_3353" x1="-10.6059" y1="26.7446" x2="90.5433" y2="31.3443" gradientUnits="userSpaceOnUse">
<stop stop-color="#E60018"/>
<stop offset="0.49" stop-color="#E60018"/>
<stop offset="0.85" stop-color="#F8BB59"/>
<stop offset="1" stop-color="#F9BE37"/>
</linearGradient>
<linearGradient id="paint1_linear_583_3353" x1="85.9185" y1="29.3001" x2="85.863" y2="28.9235" gradientUnits="userSpaceOnUse">
<stop stop-color="#88D1F5"/>
<stop offset="0.79" stop-color="#538CC9"/>
<stop offset="1" stop-color="#4478BD"/>
</linearGradient>
<linearGradient id="paint2_linear_583_3353" x1="37.0055" y1="43.0892" x2="37.2832" y2="41.4528" gradientUnits="userSpaceOnUse">
<stop stop-color="#D4E27C"/>
<stop offset="1" stop-color="#B5CC1E"/>
</linearGradient>
<linearGradient id="paint3_linear_583_3353" x1="72.4591" y1="13.9395" x2="68.8561" y2="6.43116" gradientUnits="userSpaceOnUse">
<stop stop-color="#88D1F5"/>
<stop offset="1" stop-color="#4478BD"/>
</linearGradient>
<linearGradient id="paint4_linear_583_3353" x1="9.04222" y1="13.7714" x2="11.192" y2="18.1678" gradientUnits="userSpaceOnUse">
<stop stop-color="#009C74"/>
<stop offset="1" stop-color="#B8DFD5"/>
</linearGradient>
<linearGradient id="paint5_linear_583_3353" x1="54.8867" y1="33.0013" x2="15.3972" y2="36.1116" gradientUnits="userSpaceOnUse">
<stop stop-color="#E60018"/>
<stop offset="0.49" stop-color="#E60018"/>
<stop offset="0.85" stop-color="#F8BB59"/>
<stop offset="1" stop-color="#F9BE37"/>
</linearGradient>
<clipPath id="clip0_583_3353">
<rect width="113" height="46" fill="white"/>
</clipPath>
</defs>
</svg>
