<svg width="178" height="46" viewBox="0 0 178 46" fill="none" xmlns="http://www.w3.org/2000/svg">
<g clip-path="url(#clip0_583_3529)">
<mask id="mask0_583_3529" style="mask-type:luminance" maskUnits="userSpaceOnUse" x="0" y="0" width="178" height="46">
<path d="M178 0H0V46H178V0Z" fill="white"/>
</mask>
<g mask="url(#mask0_583_3529)">
<path d="M0 45.9594V0.283936H46.5844C46.5844 0.283936 38.935 0.365064 32.4593 7.46383C25.9836 14.6032 26.3884 20.0793 26.3884 20.0793C26.3884 20.0793 25.8217 15.455 21.4507 15.5361C18.3747 15.7795 17.6462 18.9841 17.6462 18.9841C17.6462 18.9841 20.3174 18.9841 20.1151 20.9718C19.9127 23 20.1151 27.9894 20.1151 27.9894C20.1151 27.9894 20.6007 34.2363 24.648 38.8201C28.6953 43.3633 33.0664 45.3915 39.5825 46C28.412 46 0 45.9594 0 45.9594Z" fill="#1D2A60"/>
<path d="M26.3481 23.7707C26.3481 23.7707 26.1052 32.2892 31.1643 37.8871C36.2235 43.485 41.323 45.1887 46.8678 45.9999C46.8678 37.9276 46.8678 1.66309 46.8678 1.66309C46.8678 1.66309 39.7446 4.21864 36.5472 11.2363C33.5522 17.8077 36.3449 25.1499 36.3449 25.1499C36.3449 25.1499 30.7596 22.6349 26.3481 23.8112" fill="#D71519"/>
<path d="M54.9624 19.3492C54.9624 19.3492 55.4076 19.1869 56.1361 17.6861C56.9051 16.1852 63.826 0 63.826 0L71.4349 17.2399C71.4349 17.2399 72.2443 18.9436 72.7705 19.3898H67.9137C67.9137 19.3898 68.3994 18.4974 68.3185 17.97C68.2375 17.4427 67.0233 15.2116 67.0233 15.2116H60.7905L59.374 18.3757C59.374 18.3757 59.4954 19.3898 59.8192 19.3898H55.0029L54.9624 19.3492Z" fill="#1D2A60"/>
<path d="M74.1465 19.3491C74.1465 19.3491 74.9964 18.7812 75.0369 17.1992C75.0774 15.6172 75.0369 4.9488 75.0369 4.9488L74.2274 3.00171H78.5176C78.5176 3.00171 77.9509 4.05638 77.9105 4.86767C77.9105 5.67896 77.9105 17.2398 77.9105 17.2398C77.9105 17.2398 78.1938 19.0246 78.5985 19.3491H74.187H74.1465Z" fill="#1D2A60"/>
<path d="M81.5126 19.3493C81.5126 19.3493 82.403 18.6191 82.3625 17.321C82.322 16.023 82.3625 5.15173 82.3625 5.15173C82.3625 5.15173 81.9578 3.48859 81.4316 3.00181H88.0692C88.0692 3.00181 92.8855 2.92069 93.0474 7.26107C92.8045 11.2769 90.0119 12.0071 90.0119 12.0071L93.533 18.1323C93.533 18.1323 94.1401 19.1059 94.7877 19.3087H92.2784C92.2784 19.3087 91.2261 19.3087 90.4571 18.2135C89.6476 17.0777 86.086 10.9524 86.086 10.9524C86.086 10.9524 89.081 10.5874 89.6476 9.28929C90.2143 7.95067 90.0928 5.84132 88.0692 5.39511C86.2884 5.39511 85.1147 5.39511 85.1147 5.39511V17.1993C85.1147 17.1993 85.5599 19.0653 85.8027 19.3087H81.5531L81.5126 19.3493Z" fill="#1D2A60"/>
<path d="M98.4301 19.3491H103.165C103.165 19.3491 102.477 18.6595 102.639 17.4426C102.801 16.2256 103.975 9.04574 103.975 9.04574L108.629 17.2397L113.607 9.08631L114.903 18.1322C114.903 18.1322 114.984 18.984 114.376 19.3491H118.909C118.909 19.3491 118.019 19.0246 117.695 17.3209C117.371 15.6577 114.66 0.121582 114.66 0.121582L108.71 11.0334L102.477 0.243275L100.049 16.1445C100.049 16.1445 99.5229 17.7265 99.1586 18.3756C98.7944 18.984 98.3896 19.3897 98.3896 19.3897" fill="#1D2A60"/>
<path d="M120.205 18.8625H124.333C124.333 18.8625 123.726 18.4569 123.888 18.0918C124.05 17.7267 125.021 15.2928 125.021 15.2928H130.282L131.375 17.605C131.375 17.605 131.416 18.7002 131.092 18.8625C132.67 18.8625 135.18 18.8625 135.18 18.8625C135.18 18.8625 134.572 18.2946 133.925 16.8343C133.277 15.4145 127.652 2.59619 127.652 2.59619L121.459 16.9154C121.459 16.9154 120.812 18.6597 120.245 18.8625" fill="#1D2A60"/>
<path d="M125.709 13.0213L127.571 8.4375L129.513 13.0213H125.709Z" fill="white"/>
<path d="M61.4785 13.0212L63.745 7.46387L66.052 13.0212H61.4785Z" fill="white"/>
<path d="M148.01 6.97714C148.01 6.97714 147.888 5.80077 144.934 5.23287C142.02 4.66497 138.539 5.27343 138.094 10.4251C137.649 15.5768 140.846 17.1994 143.193 17.5239C146.31 17.9701 148.05 15.4551 148.05 15.4551V18.0512C148.05 18.0512 145.865 19.9983 143.072 19.9983C140.279 19.9983 135.908 17.8484 135.301 13.1429C134.694 8.39689 136.88 3.73199 139.996 3.08296C143.112 2.43393 145.298 3.08296 146.229 3.4886C146.796 3.73199 148.01 3.08296 148.01 3.08296V7.0177V6.97714Z" fill="#1D2A60"/>
<path d="M149.102 18.8625C149.102 18.8625 149.791 18.1729 150.155 17.3616C150.519 16.5503 156.509 2.63672 156.509 2.63672L162.985 17.4427C162.985 17.4427 163.592 18.6596 163.916 18.8219C162.378 18.9436 159.909 18.9436 159.909 18.9436C159.909 18.9436 160.273 18.254 160.233 17.8889C160.233 17.4833 159.099 15.2928 159.099 15.2928H153.838L152.745 17.8889C152.745 17.8889 152.664 18.4163 153.109 18.8219C151.369 18.8219 149.062 18.8219 149.062 18.8219" fill="#1D2A60"/>
<path d="M154.566 13.0213L156.388 8.4375L158.371 13.0618L154.566 13.0213Z" fill="white"/>
<path d="M163.713 3.04227C163.713 3.04227 164.441 4.3809 164.441 5.71952C164.441 7.05815 164.441 14.238 164.441 14.238C164.441 14.238 164.806 19.6331 171.119 19.6331C177.433 19.6331 177.069 14.2786 177.069 14.2786V5.39501C177.069 5.39501 177.312 3.77243 177.959 3.08284C175.126 3.08284 173.264 3.08284 173.264 3.08284C173.264 3.08284 174.074 3.32622 174.074 4.9488V14.1975C174.074 14.1975 174.074 17.5643 171.079 17.5643C167.315 17.5238 167.396 14.2786 167.396 14.2786V5.35444C167.396 5.35444 167.801 3.36679 168.327 3.04227C165.615 3.04227 163.672 3.00171 163.672 3.00171" fill="#1D2A60"/>
<path d="M57.3096 26.2856C57.3096 26.2856 59.4546 26.529 60.5069 27.3403C61.5592 28.1516 61.7211 28.8818 61.5188 29.3685C61.3164 29.8147 60.7093 30.7072 60.5069 30.7883C60.3046 30.8694 60.0617 30.9911 59.8594 30.6666C59.657 30.3421 57.35 26.3262 57.35 26.3262" fill="#1D2A60"/>
<path d="M55.124 31.3967C55.124 31.3967 56.7429 33.5466 56.9453 34.0334C57.1477 34.4796 57.6738 35.7777 58.0786 35.8994C58.4833 36.0211 59.6975 34.5608 59.6975 34.5608C59.6975 34.5608 60.1022 33.9117 59.1713 33.0599C57.5119 31.5184 55.124 31.3967 55.124 31.3967Z" fill="#1D2A60"/>
<path d="M55.6909 38.3738C55.6909 38.3738 56.7837 40.402 57.067 41.1728C57.3503 41.9435 57.9574 44.8235 59.293 44.8641C60.6691 44.9047 60.062 42.4302 60.1834 40.5643C60.3048 38.6578 60.5072 37.4814 60.8715 36.8324C61.2357 36.1428 62.6927 32.6542 62.6927 32.6542V38.82L65.4044 37.522V34.1551H67.7923C67.7923 34.1551 67.509 35.0475 67.0233 35.6966C66.4972 36.4267 65.6068 36.9946 65.6068 36.9946C65.6068 36.9946 67.4685 36.6295 68.1971 36.3862C68.8851 36.1428 69.2898 35.7371 69.2898 35.7371V37.238H71.8396V35.5343C71.8396 35.5343 72.9729 36.5078 73.3371 36.9541C73.7014 37.4003 73.8228 37.7653 74.4704 37.5625C75.1584 37.3597 75.037 37.3597 75.037 37.3597V38.7389L78.0725 37.8059L78.1534 29.5308C78.1534 29.5308 78.3153 28.5978 78.6795 28.2327C76.3321 28.2327 70.504 28.2327 70.504 28.2327L71.0302 26.5696H67.2662L67.4281 28.1922H65.4449C65.4449 28.1922 64.1902 27.7459 63.5022 27.6648C62.8142 27.6243 62.7737 28.1922 62.7737 28.1922V31.1534C62.7737 31.1534 61.3976 33.4655 60.75 34.8041C60.1025 36.1833 58.5645 38.6578 58.5645 38.6578L55.7719 38.3738H55.6909Z" fill="#1D2A60"/>
<path d="M65.3638 29.1252H70.3824C70.3824 29.1252 69.2492 29.7337 68.0755 30.0177C66.8613 30.3016 65.6876 30.3422 65.6876 30.3422C65.6876 30.3422 67.7112 30.7073 68.1159 30.7073C68.5207 30.7073 69.2492 30.3827 69.2492 30.3827V33.2628H68.3992C68.3992 33.2628 69.0063 31.7214 68.1159 31.3968C67.2255 31.1129 66.5375 30.7884 66.5375 30.7884C66.5375 30.7884 66.8208 31.8025 66.8208 32.0053C66.8208 32.2081 67.2255 32.9789 67.5493 33.2628H65.3638V29.1658V29.1252Z" fill="white"/>
<path d="M71.7988 32.8977V30.7072C71.7988 30.7072 72.4464 30.3016 72.9321 30.3016C73.5392 30.3016 73.5796 30.6667 73.9034 30.6261C74.2272 30.5855 74.1463 30.3827 74.1463 30.3827V29.1658H74.9557V33.2628H72.6083C72.6083 33.2628 73.2154 32.492 73.6201 32.3704C74.0248 32.2892 74.7129 32.0864 74.7129 32.0864C74.7129 32.0864 74.1058 31.6402 73.9034 31.4374C73.7415 31.2346 73.3368 30.8289 73.3368 30.8289C73.3368 30.8289 72.5678 31.5591 72.325 32.0053C72.1226 32.2892 71.7988 32.8571 71.7988 32.8571" fill="white"/>
<path d="M61.0736 39.9964V39.104H67.5088L67.7921 37.1975L71.1513 38.2522L70.7061 39.104H79.2054V39.9964H71.8394C71.8394 39.9964 73.4178 41.4568 74.9963 42.1464C76.5747 42.836 79.8125 43.1199 79.8125 43.1199C79.8125 43.1199 78.5983 43.8501 78.1531 44.3774C77.7079 44.9047 77.7079 45.7972 76.089 45.3104C74.5106 44.8236 71.7989 42.836 71.7989 42.836L69.7348 40.7672C69.7348 40.7672 68.9658 42.552 66.2541 43.7689C63.5019 44.9859 60.9521 45.1481 60.9521 45.1481C60.9521 45.1481 64.7566 43.4444 65.9303 42.0652C67.104 40.686 67.1445 39.9964 67.1445 39.9964H61.0736Z" fill="#1D2A60"/>
<path d="M89.1216 25.8396C89.1216 25.8396 91.2666 26.7726 91.7523 26.8537C92.238 26.8943 96.2448 26.8537 96.2448 26.8537L98.8351 26.6103V34.5204L95.9615 35.5751V34.5204H92.4808V44.337L89.1216 45.2699V25.8396Z" fill="#1D2A60"/>
<path d="M96.0017 27.7056H92.521V30.0177H96.0017V27.7056Z" fill="white"/>
<path d="M96.0017 31.3562H92.521V33.5467H96.0017V31.3562Z" fill="white"/>
<path d="M101.061 35.5344V26.2451C101.061 26.2451 103.287 26.813 104.097 26.8536C104.906 26.8536 111.584 26.8536 111.584 26.8536C111.584 26.8536 110.653 27.7054 110.694 28.5979C110.694 29.4497 110.694 42.552 110.694 42.552C110.694 42.552 110.855 44.0123 109.398 44.6208C107.941 45.2698 106.201 45.5538 105.675 45.4321C105.149 45.3509 105.108 44.8642 105.108 44.2963C105.108 43.7284 103.287 42.5926 103.287 42.5926L106.93 42.7548C106.93 42.7548 107.739 42.9982 107.699 41.903C107.699 40.8077 107.699 34.4391 107.699 34.4391H103.894V34.8853L101.142 35.4532L101.061 35.5344Z" fill="#1D2A60"/>
<path d="M107.334 31.3562H103.813V33.5467H107.334V31.3562Z" fill="white"/>
<path d="M107.294 27.7866H103.813V30.0582H107.294V27.7866Z" fill="white"/>
<path d="M121.985 28.03V34.9665H120.488V35.7372H122.026V40.4427C122.026 40.4427 121.985 42.0247 121.054 43.0794C120.123 44.1341 119.354 44.8237 119.354 44.8237C119.354 44.8237 121.581 44.4991 122.673 43.1605C123.766 41.7813 124.454 39.5908 124.495 37.2787C125.425 38.1305 125.587 38.2117 125.79 38.6173C125.992 39.0635 126.356 40.1588 126.963 40.2804C127.611 39.4692 127.854 39.1041 127.854 39.1041V42.4709C127.854 42.4709 127.692 43.2011 127.449 43.2822C127.206 43.3228 125.264 42.9171 125.264 42.9171C125.264 42.9171 125.992 43.7284 126.235 44.0935C126.478 44.418 126.721 45.4321 127.49 45.3916C128.259 45.3916 130.039 44.0529 130.039 44.0529C130.039 44.0529 130.727 43.3633 130.808 42.9577C130.849 42.5115 130.808 35.7372 130.808 35.7372H132.589V34.9665H130.808V30.1394C130.808 30.1394 131.173 29.5715 131.901 29.612C132.67 29.612 144.529 29.612 144.529 29.612L144.003 28.9224H139.146V27.9083C139.146 27.9083 138.903 27.2998 140.239 26.5697H136.272V28.963H127.287V27.7055L128.218 26.7725C128.218 26.7725 128.42 26.3263 128.056 26.3669C127.651 26.3669 124.333 26.3669 124.333 26.3669V28.9224L121.985 28.03Z" fill="#1D2A60"/>
<path d="M125.143 29.9771H127.976V32.4515C127.976 32.4515 127.004 31.2751 126.438 30.8289C125.831 30.3827 125.183 29.9771 125.183 29.9771" fill="white"/>
<path d="M127.976 33.2628V34.9665H124.778V31.0317C124.778 31.0317 125.507 31.9242 125.628 32.3298C125.75 32.7354 126.357 34.5203 126.883 34.5203C127.409 34.5203 127.976 33.3033 127.976 33.3033" fill="white"/>
<path d="M125.264 36.2646H127.894V37.9684C127.894 37.9684 127.004 36.9948 126.599 36.7514C126.195 36.508 125.264 36.2646 125.264 36.2646Z" fill="white"/>
<path d="M133.682 30.6668C133.682 30.6668 135.625 31.113 135.989 31.2753C136.354 31.4375 137.082 31.4375 137.082 31.4375H140.684L142.586 31.1941C142.586 31.1941 141.817 31.762 141.777 32.2894C141.736 32.8167 141.777 42.1465 141.777 42.1465C141.777 42.1465 142.141 42.6738 142.667 42.0654C143.193 41.4569 142.708 40.7673 143.274 40.1183C144.043 40.6862 143.922 41.538 144.043 41.9031C144.165 42.3088 144.974 42.7144 144.974 42.7144C144.974 42.7144 144.57 44.337 143.315 44.4992C142.06 44.6615 140.118 44.4992 140.118 44.4992C140.118 44.4992 138.782 44.1747 138.741 42.1059C138.741 40.0372 138.741 32.6139 138.741 32.6139H136.515L136.434 39.1853C136.434 39.1853 136.313 41.4975 134.249 43.6474C132.509 45.0266 131.294 45.1483 131.294 45.1483C131.294 45.1483 132.994 43.12 133.52 40.9296C133.844 38.7391 133.682 37.4005 133.682 37.4005V30.6262V30.6668Z" fill="#1D2A60"/>
<path d="M153.554 33.3035V27.9084C153.554 27.9084 156.468 29.0037 157.278 29.0037H163.794L163.551 26.6104H167.517C167.517 26.6104 166.667 27.7867 166.546 28.1924C166.425 28.598 166.546 29.0442 166.546 29.0442H177.271C177.271 29.0442 175.855 30.18 175.855 30.7479V32.4516L172.86 32.7356V29.8961H156.428V32.8573L153.595 33.3035H153.554Z" fill="#1D2A60"/>
<path d="M154.445 37.1165C154.445 37.1165 157.642 35.5751 158.33 34.4798C159.018 33.3846 160.475 30.6262 160.475 30.6262L163.915 31.2753C163.915 31.2753 163.227 31.762 162.782 32.4922C162.337 33.2223 161.285 35.1694 159.99 35.9807C157.723 37.3193 154.445 37.076 154.445 37.076" fill="#1D2A60"/>
<path d="M165.979 31.1533C165.979 31.1533 165.98 34.0334 166.02 34.5202C166.02 34.9664 166.222 37.0352 168.286 37.2785C170.108 37.2785 174.115 37.2785 174.115 37.2785C174.115 37.2785 175.167 37.0352 175.733 36.021C175.531 34.5202 174.236 33.8306 174.236 33.8306C174.236 33.8306 174.034 34.7635 173.062 35.2909C171.767 35.2909 169.986 35.2909 169.986 35.2909C169.986 35.2909 169.298 35.2503 169.298 34.5202C169.298 33.79 169.298 32.6136 169.298 32.6136C169.298 32.6136 169.622 31.4778 170.229 31.1939C167.841 31.1939 165.979 31.1939 165.979 31.1939" fill="#1D2A60"/>
<path d="M156.954 39.2258V38.4551H172.779V39.2258H166.991V44.2964H176.26V45.0671H153.676V44.2964H163.066V39.2258H156.954Z" fill="#1D2A60"/>
<path d="M72.5679 33.993H74.9558V35.7372C74.9558 35.7372 74.0249 34.6014 73.7416 34.4392C73.4583 34.2769 72.5679 33.9524 72.5679 33.9524" fill="white"/>
</g>
</g>
<defs>
<clipPath id="clip0_583_3529">
<rect width="178" height="46" fill="white"/>
</clipPath>
</defs>
</svg>
