<svg width="407" height="46" viewBox="0 0 407 46" fill="none" xmlns="http://www.w3.org/2000/svg">
<g clip-path="url(#clip0_583_3143)">
<path d="M378.221 25.1407L351.733 2.92395C349.467 1.01816 346.628 0 343.685 0H329.152L348.269 25.1407H378.247H378.221Z" fill="#BD1838"/>
<path d="M399.707 21.303C398.457 20.4937 396.816 20.5982 395.67 21.538L394.837 22.2429C392.597 24.1226 389.758 25.1407 386.815 25.1407H363.245L347.748 45.5301H359.598C361.942 45.5301 364.234 44.6946 366.057 43.1805L378.767 32.5289C383.794 28.2996 390.175 25.9761 396.738 25.9761H407.026L399.759 21.2769L399.707 21.303Z" fill="#8F969C"/>
<path d="M180.671 29.2395V45.5823H184.292V24.9058L178.979 26.185V26.9943C179.89 27.1509 180.671 28.1169 180.671 29.2656" fill="#525457"/>
<path d="M203.617 26.8638C202.966 26.4461 197.965 24.723 195.204 29.8138V25.8717C192.548 26.8899 190.985 27.5425 189.631 27.9863V28.8218C190.36 28.9262 191.636 29.7616 191.636 31.5369V45.5562H195.204V32.2678C195.204 31.7196 197.861 28.8218 202.497 30.3359L203.617 26.8377V26.8638Z" fill="#525457"/>
<path d="M256.514 26.8638C255.863 26.4461 250.863 24.723 248.102 29.8138V25.8717C245.445 26.8899 243.883 27.5425 242.528 27.9863V28.8218C243.232 28.9262 244.534 29.7616 244.534 31.5369V45.5562H248.102V32.2678C248.102 31.7196 250.758 28.8218 255.394 30.3359L256.514 26.8377V26.8638Z" fill="#525457"/>
<path d="M220.884 19.2407H226.041V45.5562H230.417V19.2407H235.365C238.152 19.2407 239.011 20.9115 239.428 22.8695H240.522V17.3871H216.118V22.8695H217.212C217.499 21.8252 218.566 19.2407 220.884 19.2407Z" fill="#525457"/>
<path d="M182 21.9819C183.276 21.9819 184.292 20.9637 184.292 19.6845C184.292 18.4052 183.276 17.3871 182 17.3871C180.724 17.3871 179.708 18.4052 179.708 19.6845C179.708 20.9637 180.75 21.9819 182 21.9819Z" fill="#525457"/>
<path d="M293.133 26.3939L286.934 42.2929L282.038 26.3939H276.725V27.2554C278.444 27.647 279.017 28.5608 279.798 31.2237L284.173 45.5562H287.637L295.086 26.3939H293.107H293.133Z" fill="#525457"/>
<path d="M317.354 17.361V18.5097C319.803 19.4234 320.324 21.277 320.324 23.6788V45.5562H323.944V17.361H317.381H317.354Z" fill="#525457"/>
<path d="M175.879 45.5823V44.4597C174.317 44.0681 173.431 42.6584 172.728 41.0659C172.52 40.5698 162.44 17.3871 162.44 17.3871H156.268V18.5358C157.804 18.6924 158.69 19.58 159.159 20.6765L148.793 45.6084H150.929L154.731 36.4711H166.008L169.967 45.6084H175.879V45.5823ZM155.486 34.5914L160.227 23.1828L165.201 34.5914H155.486Z" fill="#525457"/>
<path d="M273.157 41.6141V31.9546C273.157 27.9603 271.047 25.9762 266.88 25.9762C265.239 25.9762 263.677 26.3939 262.635 26.9944C261.046 27.9081 259.952 29.2134 259.952 30.7537C259.952 31.2759 260.135 31.6936 260.473 32.0591C260.812 32.4245 261.254 32.5812 261.775 32.5812C262.296 32.5812 262.739 32.3984 263.104 32.033C263.494 31.6675 263.677 31.2497 263.677 30.7537C263.677 30.5449 263.651 30.2838 263.572 29.9183C263.494 29.5528 263.468 29.2917 263.468 29.0829C263.468 28.4302 263.833 27.9081 264.536 27.5165C265.135 27.1771 265.786 26.9944 266.489 26.9944C268.651 26.9944 269.719 28.1953 269.719 30.571V33.025C266.359 33.8343 259.093 36.8366 259.093 41.3791C259.093 42.7106 259.509 43.8071 260.343 44.6686C261.176 45.5301 262.27 45.9739 263.598 45.9739C265.396 45.9739 267.479 45.5562 269.771 42.8672V45.5562H275.006V44.6947C273.365 44.0681 273.157 42.6845 273.157 41.588M269.719 38.1158C269.745 39.8389 268.234 43.2066 265.552 43.4938C263.546 43.7026 262.635 42.084 262.869 40.126C263.13 37.7764 265.187 35.7923 269.719 34.1998V38.1158Z" fill="#525457"/>
<path d="M311.728 28.0647C310.426 26.6289 308.655 25.9762 306.546 25.9762C304.045 25.9762 301.988 26.8899 300.321 28.6913C298.68 30.4927 297.847 33.025 297.847 36.2361C297.847 39.2123 298.654 41.588 300.269 43.3633C301.884 45.1385 303.811 46 306.077 46C311.755 46 313.213 41.4575 313.656 39.1862L312.64 38.6902C312.041 40.2043 310.504 42.6323 307.613 42.6323C305.764 42.6323 304.149 41.823 302.795 40.2305C301.493 38.7163 300.79 36.6277 300.738 34.0171H313.786C313.786 34.0171 313.968 30.4665 311.755 28.0386M302.326 28.7696C303.212 27.882 304.228 27.4382 305.374 27.4382C306.702 27.4382 309.358 28.2214 309.463 32.4507H300.764C300.764 31.563 301.441 29.6311 302.326 28.7435" fill="#525457"/>
<path d="M1.77104 23.0262H4.11506L2.37006 17.8309H0L1.77104 23.0262Z" fill="#525457"/>
<path d="M2.10925 30.7798H4.45327L2.70828 25.5585H0.364258L2.10925 30.7798Z" fill="#525457"/>
<path d="M2.34402 45.5823H0L2.00544 33.9126H4.3755L2.34402 45.5823Z" fill="#525457"/>
<path d="M27.2691 26.3417H19.4297V28.6391H27.2691V26.3417Z" fill="#525457"/>
<path d="M27.2691 33.9126H19.4297V36.21H27.2691V33.9126Z" fill="#525457"/>
<path d="M16.1477 25.2974H6.64136L5.91211 23.0261H16.1477V25.2974Z" fill="#525457"/>
<path d="M12.2145 17.7526H9.81836V31.5108H12.2145V17.7526Z" fill="#525457"/>
<path d="M5.88574 34.0953V42.5539C5.88574 44.2247 7.24006 45.5561 8.88088 45.5561H13.1262C14.793 45.5561 16.1213 44.1986 16.1213 42.5539V34.0953C16.1213 32.4245 14.767 31.093 13.1262 31.093H8.88088C7.21402 31.093 5.88574 32.4506 5.88574 34.0953ZM12.5271 43.311H9.50595C8.85483 43.311 8.3079 42.7627 8.3079 42.11V34.5391C8.3079 33.8864 8.85483 33.3382 9.50595 33.3382H12.5271C13.1782 33.3382 13.7252 33.8864 13.7252 34.5391V42.11C13.7252 42.7627 13.1782 43.311 12.5271 43.311Z" fill="#525457"/>
<path d="M25.0031 17.8309H21.1746C19.5598 17.8309 18.2055 19.1363 18.1794 20.7549L17.5283 45.5823H19.9505L20.5755 21.3031C20.5755 20.6504 21.1225 20.1283 21.7736 20.1283H24.4041C25.0552 20.1283 25.6022 20.6765 25.6022 21.3292V42.1101C25.6022 42.7628 25.0552 43.3111 24.4041 43.3111H22.0861L23.1019 45.6084H25.0031C26.67 45.6084 28.0243 44.277 28.0243 42.6062V20.8332C28.0243 19.1624 26.67 17.8048 25.0292 17.8048" fill="#525457"/>
<path d="M37.9727 26.1067C36.0194 26.1067 34.4307 27.6992 34.4307 29.6572V45.5823H36.8528V29.6311C36.8528 28.874 37.4779 28.2474 38.2592 28.2474H57.376C58.1574 28.2474 58.7824 28.874 58.7824 29.6311V42.3973C58.7824 42.8933 58.3657 43.311 57.8709 43.311H54.0683L55.1362 45.5823H58.2876C59.9023 45.5823 61.2306 44.2769 61.2306 42.6322V29.6572C61.2306 27.6992 59.6419 26.1067 57.6885 26.1067H38.0248H37.9727Z" fill="#525457"/>
<path d="M44.3802 33.9125H41.9581L41.2549 29.9182H43.677L44.3802 33.9125Z" fill="#525457"/>
<path d="M51.2041 33.9125H53.6263L54.3555 29.9182H51.9334L51.2041 33.9125Z" fill="#525457"/>
<path d="M56.7778 33.3383H38.833V35.6356H56.7778V33.3383Z" fill="#525457"/>
<path d="M56.7778 41.1181H39.5362L38.833 38.8207H56.7778V41.1181Z" fill="#525457"/>
<path d="M61.1525 20.0499H34.4307V22.3473H61.1525V20.0499Z" fill="#525457"/>
<path d="M49.0159 34.252H46.5938V45.5562H49.0159V34.252Z" fill="#525457"/>
<path d="M49.0159 17.3871H46.5938V27.1249H49.0159V17.3871Z" fill="#525457"/>
<path d="M74.983 23.9398H72.7432V28.4041H74.983V23.9398Z" fill="#525457"/>
<path d="M74.983 34.7219H72.7432V39.1862H74.983V34.7219Z" fill="#525457"/>
<path d="M95.1412 43.3109C94.1775 43.3109 93.3702 42.5016 93.3702 41.5096V28.3518C93.3702 26.185 91.5991 24.4619 89.4635 24.4619H86.1818C84.0462 24.4619 82.4314 26.2111 82.2751 28.2474C82.2751 28.2474 81.9886 40.1781 81.7021 45.5561H84.0983C84.3587 40.1259 84.6452 28.4301 84.6452 28.4301C84.6973 27.4381 85.4526 26.5766 86.4423 26.5766H89.1509C90.1406 26.5766 90.948 27.3859 90.948 28.3518V41.614C90.948 43.7548 92.6669 45.53 94.8287 45.53H96.782V43.3109H95.1412Z" fill="#525457"/>
<path d="M75.9205 19.5278H75.1392L75.9466 17.361H73.5765L72.7691 19.5278H72.1441C70.4251 19.5278 68.9926 20.8854 68.9145 22.6084L67.8467 45.5562H70.1907L71.2325 23.0261C71.2585 22.2951 71.8576 21.7469 72.5868 21.7469H75.3996C76.0508 21.7469 76.5716 22.269 76.5716 22.9478V42.1884C76.5716 42.815 76.0768 43.311 75.4517 43.311H73.0556L73.7588 45.5301H75.8424C77.5613 45.5301 78.9678 44.1203 78.9678 42.3973V32.7117V30.4926V22.6606C78.9678 20.9376 77.5874 19.5539 75.8684 19.5539" fill="#525457"/>
<path d="M80.2701 32.7639H67.2999L66.5967 30.4666H80.2701V32.7639Z" fill="#525457"/>
<path d="M95.2194 19.9717H80.7646V22.2691H95.2194V19.9717Z" fill="#525457"/>
<path d="M89.2034 17.361H86.7812V21.3553H89.2034V17.361Z" fill="#525457"/>
<path d="M107.955 31.5108L111.315 25.5323H108.476L105.116 31.5108H107.955Z" fill="#525457"/>
<path d="M119.779 25.5323L123.139 31.5108H125.978L122.618 25.5323H119.779Z" fill="#525457"/>
<path d="M104.648 24.3053C104.648 23.2611 105.455 22.3995 106.445 22.3995H124.676C125.666 22.3995 126.473 23.235 126.473 24.3053V26.3678H129.026V24.0965C129.026 21.9035 127.255 20.076 125.119 20.076H105.976C103.84 20.076 102.069 21.8774 102.069 24.0965V26.3678H104.648V24.3053Z" fill="#525457"/>
<path d="M116.836 17.4132H114.258V21.1465H116.836V17.4132Z" fill="#525457"/>
<path d="M129.573 45.5823H102.226L101.522 43.2327H129.573V45.5823Z" fill="#525457"/>
<path d="M127.724 33.4949H103.346V35.8184H127.724V33.4949Z" fill="#525457"/>
<path d="M116.836 34.3303H114.258V45.1124H116.836V34.3303Z" fill="#525457"/>
</g>
<defs>
<clipPath id="clip0_583_3143">
<rect width="407" height="46" fill="white"/>
</clipPath>
</defs>
</svg>
