<svg width="43" height="46" viewBox="0 0 43 46" fill="none" xmlns="http://www.w3.org/2000/svg">
<g clip-path="url(#clip0_597_3585)">
<path d="M24.1559 8.68526H24.1434C22.1638 8.63455 21.0111 9.07832 20.1967 9.40797C19.896 9.52209 19.6204 9.6362 19.3698 9.69959C18.1545 10.0039 17.5155 9.40797 17.2524 8.81205C17.1146 9.04028 17.0645 9.29386 17.0645 9.54744C17.1146 10.3843 17.8413 11.0309 18.8185 10.9802C19.1443 10.9675 19.6455 10.8407 20.0339 10.6252L20.1842 10.5364C21.0487 10.0419 22.3142 9.10367 24.1309 8.71062H24.1434" fill="#D7000F"/>
<path d="M20.1849 21.8335C21.2122 21.5799 22.0893 21.2502 22.841 20.9586C23.3798 20.7304 23.8058 20.5656 24.1441 20.4134C24.8332 20.1091 25.1589 19.9189 25.3594 19.8048C25.5473 19.678 25.6476 19.5385 25.5473 19.5893C25.4596 19.6527 24.4322 20.1218 24.1566 20.2105H24.1441C23.8684 20.2866 23.9812 20.2105 23.9185 20.2105C23.8559 20.2105 24.0062 20.1598 24.1441 20.1091C24.2568 20.0584 24.3821 20.0077 24.4448 19.9823C24.6076 19.9189 24.8332 19.7287 24.5951 19.8302C24.5074 19.8682 24.332 19.9316 24.1441 19.9823C23.8559 20.0838 23.5552 20.1725 23.48 20.1852C23.3547 20.2232 23.3422 20.0964 23.6178 20.0204C23.8058 19.9443 23.9937 19.8936 24.1441 19.8302C25.1213 19.4878 25.6225 19.2469 25.8355 19.1455C26.0861 19.0187 25.9232 18.9426 25.9232 18.9426C25.3343 19.1835 24.7455 19.3864 24.1566 19.5766C22.9037 19.9696 21.6508 20.2486 20.2099 20.5148C19.4456 20.667 18.6187 20.8065 17.7291 20.9586C13.8451 21.656 12.2539 22.8858 12.2539 22.8858C14.6219 22.4294 16.376 22.5435 18.9069 22.1124C19.3579 22.049 19.809 21.9476 20.2099 21.8462" fill="#D7000F"/>
<path d="M34.4929 5.50281L34.2548 5.65496L34.0042 5.79443L33.9541 5.89586C33.9541 5.89586 34.0167 5.8705 34.142 5.79443L34.2673 5.74371L34.5054 5.59156L34.5931 5.52817H34.5054" fill="#D7000F"/>
<path d="M21.4122 3.35998C21.1366 3.35998 20.9236 3.15711 20.9236 2.89085V2.84013C20.9236 2.40904 21.2493 2.10474 21.6628 2.0667C21.7881 2.0667 22.3143 1.97795 23.1913 2.61191C23.3292 2.70066 23.4419 2.78942 23.5672 2.86549C23.7552 3.00496 23.9306 3.11907 24.1185 3.22051C24.6447 3.52481 25.1584 3.80375 25.7348 4.01929C25.1584 4.13341 24.6071 4.13341 24.1185 4.12073C23.3417 4.07001 22.7779 3.8925 22.7779 3.8925C22.8781 3.74035 22.9282 3.56284 22.9282 3.35998C22.9282 2.85281 22.5022 2.42172 21.9885 2.42172L21.7004 2.45976C21.8006 2.54851 21.8883 2.6753 21.8883 2.85281C21.8883 3.10639 21.6628 3.33462 21.3997 3.33462M16.2502 5.65491C16.8015 5.65491 17.2651 5.22381 17.2651 4.69129L17.2275 4.43771C17.3402 4.62789 17.4154 4.83076 17.4154 5.05899C17.4029 5.61687 16.9769 6.06064 16.3504 6.09868C16.2001 6.09868 16.0497 6.086 15.9119 6.03528C15.8743 6.14939 15.8743 6.28886 15.8743 6.40298C15.8743 7.10033 16.3254 7.68357 16.9518 7.88644C16.8516 7.73429 16.7764 7.56946 16.7764 7.35391C16.7764 6.92282 17.0771 6.58048 17.5031 6.50441C17.8665 6.44101 18.2173 6.45369 19.2572 6.77067C19.5454 6.85943 19.8586 6.94818 20.1718 6.9989C20.8484 7.13837 21.4874 7.22712 21.8883 7.25248C21.3997 7.58214 20.7857 7.78501 20.1718 7.88644C19.8335 7.93716 19.4952 7.93716 19.1695 7.9118C18.092 7.81036 17.4781 7.17641 17.4781 7.17641C17.5908 7.62018 18.2047 8.22878 19.3324 8.40628C19.608 8.457 19.8836 8.46968 20.1593 8.49504C21.5124 8.5204 22.8906 8.08931 24.106 7.46803C24.9078 7.06229 25.6345 6.54245 26.2359 6.03528H26.1858C25.5343 6.22547 24.8201 6.33958 24.1185 6.37762C23.9556 6.37762 23.7802 6.3903 23.6048 6.3903C22.3895 6.3903 21.2368 6.16207 20.1593 5.79438C19.8335 5.68026 19.5203 5.54079 19.1945 5.38864C19.5203 5.49008 19.8335 5.57883 20.1593 5.64223C20.8609 5.79438 21.6127 5.88313 22.3644 5.88313C22.9533 5.88313 23.5547 5.83241 24.106 5.73098C24.9329 5.61687 25.7097 5.37596 26.4489 5.07166C26.8123 4.93219 27.138 4.76737 27.4763 4.57718C28.1529 4.72933 28.842 4.81808 29.5561 4.83076H29.9947C30.4708 4.83076 30.9218 4.79272 31.3729 4.72933C31.4982 4.72933 31.5984 4.71665 31.6986 4.69129C32.4253 4.57718 33.1269 4.38699 33.7785 4.14609C33.9288 4.09537 34.0666 4.03197 34.217 3.98126C34.5929 3.82911 34.9687 3.63892 35.3195 3.44873C36.6226 2.72602 37.7502 1.77508 38.6648 0.633958C37.6374 1.29327 36.5223 1.8258 35.3195 2.20617C34.9687 2.30761 34.5929 2.40904 34.217 2.48512C34.0666 2.52315 33.9288 2.54851 33.7785 2.57387C33.1019 2.68798 32.4128 2.76406 31.6986 2.77674H31.3729C30.9218 2.77674 30.4457 2.76406 29.9947 2.71334H29.9571L29.9947 2.6753C30.5209 2.1301 30.9845 1.53418 31.3729 0.900221C31.4982 0.722712 31.5984 0.545204 31.6986 0.355017C31.7613 0.228225 31.8364 0.114112 31.8866 0C31.8866 0 31.8114 0.0507166 31.6986 0.114112C31.6234 0.164829 31.5232 0.228225 31.3729 0.3043C31.0471 0.494487 30.5835 0.735391 29.9947 0.938258C29.8568 0.988975 29.7065 1.03969 29.5561 1.07773C28.867 1.2806 28.0401 1.44542 27.0879 1.44542C26.8874 1.44542 26.6619 1.44542 26.4489 1.43275C25.5844 1.38203 24.7825 1.20452 24.106 1.07773H24.0057C22.164 0.671996 21.4373 0.988975 21.0864 1.16648C20.6354 1.40739 20.2721 1.8258 20.1593 2.33297C20.1217 2.47244 20.1092 2.58655 20.1092 2.72602C19.6205 2.75138 19.1945 3.05568 19.0442 3.49945C19.3825 3.77839 19.7584 4.00662 20.1593 4.1968C20.5978 4.39967 21.0739 4.53914 21.5626 4.60254H21.3997C20.9737 4.60254 20.5602 4.5645 20.1718 4.48842C19.3449 4.32359 18.5806 3.99394 17.8289 3.6516C17.3402 3.43605 16.9017 3.32194 16.576 3.3473C15.9996 3.35998 15.5235 3.67696 15.3105 4.09537C15.1727 4.38699 15.1602 4.57718 15.1727 4.72933C15.1852 5.31257 15.6989 5.7183 16.2377 5.7183" fill="#D7000F"/>
<path d="M29.5936 6.92282L29.4557 6.96086H29.2929L29.3305 6.91014H29.5685L29.6061 6.89746H29.6437L29.6061 6.9355M37.1236 3.00496C36.5723 3.41069 35.9709 3.79106 35.3444 4.09536C34.9936 4.28555 34.6177 4.45038 34.2419 4.60253C34.0915 4.65325 33.9537 4.71664 33.8034 4.78004C33.1518 5.02094 32.4377 5.22381 31.7235 5.36328C31.6233 5.37596 31.5231 5.40132 31.4103 5.414C30.9592 5.47739 30.4957 5.52811 30.0321 5.56615C29.8943 5.57883 29.7439 5.57883 29.5936 5.57883C29.4557 5.59151 29.3179 5.59151 29.1926 5.59151C28.8919 5.59151 28.5662 5.57883 28.278 5.55347C27.8896 6.31422 27.2631 7.22712 26.4863 8.12734C25.8098 8.91345 25.0204 9.68688 24.1434 10.3335H24.1309L24.1434 10.3462C24.9703 10.2701 25.7596 10.156 26.4863 10.0039C27.7017 9.72491 28.7666 9.38258 29.5936 9.07828C29.7439 9.02756 29.8943 8.96416 30.0321 8.91345C30.7337 8.6345 31.2098 8.3936 31.4103 8.29217L31.5105 8.24145C31.6483 8.19073 31.6985 8.07662 31.4604 8.1527H31.4103C30.8841 8.35556 30.408 8.48235 30.0321 8.57111C29.8817 8.60915 29.7314 8.6345 29.5936 8.65986C29.2302 8.72326 29.0172 8.74862 28.9546 8.7613C28.8293 8.79933 28.6664 8.71058 28.942 8.65986C29.1676 8.62183 29.3806 8.57111 29.6061 8.52039C29.7564 8.48235 29.9068 8.457 30.0446 8.41896C30.5332 8.27949 31.0094 8.11466 31.4228 7.96251C31.5481 7.92447 31.6483 7.87375 31.736 7.83572C32.6632 7.46802 33.3398 7.113 33.4275 7.06229C33.6029 6.96086 33.4651 6.96086 33.4651 6.96086C33.4651 6.96086 32.8762 7.26515 32.7509 7.30319C32.6381 7.35391 32.6006 7.30319 32.6632 7.27783C32.7509 7.25248 32.9639 7.07497 32.6381 7.20176C32.3374 7.31587 32.0242 7.44266 31.736 7.51874L31.4228 7.62017C30.9843 7.77232 30.6335 7.86108 30.4455 7.89911C30.0947 7.94983 30.3453 7.83572 30.3453 7.83572C30.3453 7.83572 30.7964 7.7216 30.9843 7.64553C31.2725 7.55678 31.285 7.46802 31.0219 7.5441C30.6836 7.63285 30.3453 7.69625 30.0446 7.77232C29.8943 7.785 29.7564 7.82304 29.6061 7.83572C28.8418 7.97519 28.2905 8.01323 28.065 8.03858C27.8144 8.05126 28.0149 7.94983 28.0149 7.94983C28.0149 7.94983 28.5161 7.89911 28.8919 7.8484C29.1425 7.81036 29.3806 7.75964 29.6061 7.7216C29.7564 7.68357 29.9068 7.65821 30.0446 7.62017C30.5959 7.50606 31.072 7.36659 31.4228 7.25248C31.5481 7.21444 31.6483 7.18908 31.736 7.15104C32.1244 7.01157 32.3374 6.91014 32.3625 6.91014V6.79603C32.3625 6.79603 32.0743 6.9355 31.736 7.03693L31.6233 7.07497L31.4228 7.12568C31.0469 7.22712 30.6335 7.32855 30.5082 7.32855C30.3704 7.34123 30.4455 7.29051 30.9342 7.1764C31.0971 7.12568 31.2725 7.08765 31.4228 7.03693C31.5481 6.99889 31.6483 6.97353 31.736 6.9355C33.0265 6.50441 33.7282 6.00992 33.8034 5.97188H33.8159V5.87045L33.7532 5.92116C33.3272 6.18743 32.7384 6.42833 32.6256 6.46637C32.5129 6.51708 32.5379 6.46637 32.5379 6.46637C32.5379 6.46637 32.776 6.27618 32.4001 6.46637C32.2122 6.55512 31.9616 6.64388 31.736 6.70727C31.6233 6.74531 31.498 6.77067 31.4228 6.79603L31.3101 6.83406L31.3978 6.74531H31.4353C31.498 6.73263 31.6358 6.68191 31.7486 6.64388H31.8363C31.9866 6.59316 31.8864 6.51708 31.8864 6.51708C31.8864 6.51708 31.8613 6.52976 31.7486 6.5678C31.6859 6.58048 31.5982 6.60584 31.4604 6.6312H31.4228C30.9217 6.77067 30.3453 6.83406 30.0446 6.8721C29.9068 6.88478 29.8191 6.88478 29.8191 6.88478C29.8191 6.88478 29.5434 6.84674 30.0446 6.75799H30.0822C30.5583 6.66923 31.0094 6.5678 31.4353 6.46637C31.5606 6.42833 31.6609 6.41565 31.7486 6.37761C32.5504 6.13671 33.2395 5.85777 33.8284 5.54079C33.9788 5.47739 34.1291 5.38864 34.2669 5.32524C34.6679 5.08434 35.0437 4.83076 35.3695 4.57717C36.1087 4.01929 36.6725 3.43605 37.1486 2.96692" fill="#D7000F"/>
<path d="M31.5229 7.41736L31.4101 7.4554L31.2848 7.50611L31.2598 7.55683L31.4101 7.51879H31.4352L31.5855 7.43004L31.5229 7.41736Z" fill="#D7000F"/>
<path d="M26.1104 18.9934C26.173 18.9807 26.3233 18.9047 26.4737 18.8413C26.6742 18.7525 26.8997 18.6638 26.9373 18.6257C26.9874 18.5243 26.9247 18.5243 26.7368 18.5877L26.4862 18.6891C26.2858 18.7525 26.0728 18.8413 26.0728 18.8413C26.0728 18.8413 25.9725 19.0568 26.1229 18.9934" fill="#D7000F"/>
<path d="M35.3568 10.9041C35.1313 11.0055 34.9183 11.0942 34.9183 11.0942C34.9183 11.0942 34.8181 11.2844 35.006 11.221C35.0937 11.183 35.2315 11.1323 35.3568 11.0689C35.4696 11.0182 35.5949 10.9421 35.645 10.9294C35.7828 10.8787 35.8329 10.7139 35.8329 10.7139C35.7828 10.7139 35.7703 10.7139 35.6199 10.8026L35.3694 10.9294" fill="#D7000F"/>
<path d="M30.0325 11.5887L29.9323 11.6014L29.9072 11.6775L30.0325 11.6521L30.1202 11.6267L30.1453 11.5507L30.0325 11.5887Z" fill="#D7000F"/>
<path d="M27.401 13.2244C28.4159 12.9834 29.3431 12.7299 29.5936 12.6665H29.6438C29.8192 12.6158 29.8442 12.5777 29.8943 12.6158C29.8943 12.6158 29.9946 12.6665 29.7315 12.7806L29.5936 12.8313C29.2554 12.9581 28.5662 13.161 27.7894 13.3638C27.4887 13.4272 27.2131 13.2751 27.401 13.2244ZM20.8232 17.231C22.0386 16.9267 23.1411 16.635 24.1309 16.3561C24.9704 16.1152 25.7472 15.8743 26.4739 15.6334C27.6266 15.2784 28.6414 14.898 29.5811 14.4923C29.7315 14.4416 29.8818 14.3655 30.0196 14.3021C30.4957 14.0992 30.9593 13.871 31.3978 13.6301C31.5231 13.5794 31.6234 13.5287 31.7111 13.4779C32.0869 13.2751 32.4628 13.0595 32.8136 12.8567L32.964 12.7425C32.964 12.7425 33.1394 12.6031 32.8262 12.7679C32.4753 12.9708 32.0995 13.161 31.7111 13.3511L31.3978 13.5033C30.9092 13.7442 30.4206 13.9471 30.0196 14.0992C29.8693 14.1626 29.7189 14.2387 29.5811 14.2894C29.318 14.3655 29.1426 14.4416 29.0674 14.4796C28.7542 14.581 28.679 14.581 28.6164 14.581C28.5788 14.581 29.0925 14.3782 29.5811 14.1753C29.7315 14.1246 29.8818 14.0485 30.0196 14.0105C30.1449 13.9597 30.2577 13.909 30.3454 13.871C30.6962 13.7315 31.0721 13.5667 31.4104 13.3892C31.5357 13.3511 31.6359 13.3004 31.7236 13.2497C32.5255 12.8693 33.1644 12.527 33.2521 12.5016C33.3649 12.4129 33.9162 12.0705 33.2897 12.3748C32.6883 12.6538 32.1245 12.8947 31.7361 13.0468C31.6234 13.0976 31.5106 13.1356 31.4229 13.1736C31.2851 13.2244 31.1848 13.2624 31.1598 13.2751L31.1097 13.237C31.1097 13.237 31.26 13.1736 31.4354 13.0849C31.5607 13.0468 31.6609 12.9961 31.7486 12.9708L31.9491 12.8693C32.0744 12.8313 32.2874 12.6411 32.0995 12.7299C32.0493 12.7552 31.9115 12.8186 31.7361 12.882C31.6359 12.9074 31.5357 12.9454 31.4229 13.0088C30.9217 13.1863 30.2702 13.4526 30.0447 13.5413L29.982 13.5794C29.7565 13.6681 29.5185 13.7188 30.0447 13.4526L30.1073 13.4145C30.2201 13.3638 30.17 13.3258 30.1324 13.3638L30.0322 13.4019C29.9319 13.4399 29.744 13.5033 29.5936 13.554L29.4057 13.6301C29.2679 13.6681 29.1551 13.6301 29.4558 13.5413L29.5936 13.4906C29.6939 13.4526 29.8442 13.3892 30.0322 13.3131C30.4206 13.1736 30.9092 12.9834 31.4104 12.8059C31.5357 12.7552 31.6359 12.7172 31.7236 12.6665C32.538 12.3622 33.2647 12.0832 33.3774 12.0325C33.4651 11.9945 33.628 11.9311 33.8034 11.8423C33.9538 11.7916 34.1041 11.7282 34.2419 11.6521C34.48 11.5507 34.6679 11.4493 34.6679 11.4239L34.7181 11.3225C34.7807 11.2337 34.8684 11.1323 34.6429 11.2337C34.4925 11.2971 34.3547 11.3732 34.2419 11.4239C34.0791 11.4873 33.9412 11.5634 33.8034 11.6141C32.8011 12.0579 32.7009 12.0452 32.5756 12.0959C32.3876 12.1593 32.0869 12.1593 32.4378 12.0452C32.7886 11.9438 33.603 11.5887 33.6656 11.5507L33.8034 11.4619C33.9663 11.3605 34.0665 11.2591 33.8034 11.3605L33.7157 11.4112C33.177 11.6521 32.3876 11.9184 31.7236 12.1466C31.6108 12.1847 31.5106 12.21 31.4104 12.2481C30.9593 12.3875 30.596 12.5016 30.5333 12.527H30.3955C30.3955 12.527 30.2452 12.527 30.1073 12.565C29.982 12.5777 30.0572 12.5016 30.2953 12.4256C30.6837 12.2988 31.0595 12.172 31.4104 12.0452C31.5357 12.0072 31.6359 11.9818 31.7236 11.9311C32.5255 11.6648 33.2521 11.3605 33.8034 11.1196C33.9663 11.0562 34.1041 10.9801 34.2419 10.9294C34.693 10.7266 34.9937 10.5998 35.0062 10.5871L34.9436 10.5237C34.5301 10.6758 34.3297 10.7266 34.2545 10.7392H34.1918L34.2545 10.6885C34.6304 10.5364 35.0438 10.3589 35.357 10.2321C35.4949 10.1687 35.6076 10.1053 35.6828 10.0799C36.3093 9.77562 36.3218 9.73758 36.3343 9.68687C36.3468 9.64883 36.0837 9.81366 35.9334 9.87705C35.7956 9.92777 35.6828 9.91509 35.9209 9.77562C36.4721 9.47132 36.6977 9.31917 36.7979 9.2431C36.8981 9.19238 36.8981 9.09094 36.6601 9.23042C36.2216 9.45864 35.783 9.67419 35.357 9.86437C34.9686 10.0292 34.6178 10.1814 34.2545 10.3208C34.1041 10.3842 33.9663 10.4349 33.816 10.4857C33.0016 10.79 32.2999 11.0182 31.7361 11.183C31.6234 11.221 31.5231 11.2337 31.4229 11.2718C30.8215 11.4493 30.4456 11.5253 30.3955 11.5507C30.2953 11.6141 30.408 11.6014 30.2452 11.6902L30.0447 11.7789C29.9194 11.8043 29.7816 11.855 29.6062 11.9184C29.4809 11.9564 29.3431 11.9945 29.2303 12.0198C28.9922 12.0705 29.0298 12.0325 29.0298 12.0325C29.0298 12.0325 29.4558 11.855 29.6062 11.8296C29.7565 11.817 30.0196 11.5761 29.6062 11.7282H29.5686C29.3305 11.8296 27.9774 12.1339 26.4989 12.5143C25.7221 12.7045 24.8827 12.9201 24.156 13.1229C23.7801 13.2244 23.4418 13.3258 23.1411 13.4145C22.6525 13.592 22.9281 13.3638 22.9281 13.3638C23.279 13.2497 23.6924 13.1102 24.1685 12.9581C24.8326 12.7552 25.5968 12.527 26.5115 12.3115C26.6618 12.2607 26.8122 12.2227 26.9876 12.1973C27.7268 12.0072 28.7291 11.7536 29.6312 11.5C29.7816 11.4493 29.9319 11.4112 30.0697 11.3605C30.408 11.2591 30.7087 11.1703 30.9844 11.0689C31.1473 11.0182 31.3101 10.9675 31.4605 10.9167C31.5858 10.866 31.686 10.828 31.7737 10.79C32.5505 10.511 33.2521 10.2447 33.8535 9.96581C34.0039 9.91509 34.1417 9.85169 34.2921 9.77562C34.6805 9.61079 35.0563 9.43328 35.3946 9.28113C37.7752 8.11465 38.6397 7.2905 38.7775 7.17639C37.6624 7.62016 36.5348 8.0259 35.3946 8.40627C35.0188 8.52038 34.6679 8.64717 34.2921 8.76129C34.1417 8.79932 34.0039 8.85004 33.8535 8.90076C33.1519 9.10362 32.4628 9.30649 31.7737 9.49668C31.6735 9.53472 31.5732 9.56007 31.4605 9.58543C31.0094 9.7249 30.5459 9.83902 30.0823 9.95313C29.9445 9.99117 29.7941 10.0419 29.6438 10.0799C29.0173 10.2321 28.3783 10.3842 27.7393 10.5364C27.4386 10.5998 27.0252 10.7012 26.5365 10.828C25.885 10.9801 25.0831 11.1957 24.1936 11.4239C23.4042 11.6268 22.5272 11.8804 21.6376 12.1593C21.1615 12.2988 20.6854 12.4636 20.2344 12.6158C13.6315 15.0375 8.10617 19.6527 4.69824 25.6753C8.85792 21.5926 14.1076 18.9934 20.2344 17.3704C20.4348 17.3197 20.6604 17.269 20.8734 17.2183" fill="#D7000F"/>
<path d="M31.7364 15.3798C31.9118 15.2403 32.1123 15.0755 32.1123 15.0374C32.0872 14.9867 32.1373 14.9487 31.9744 15.0501C31.8742 15.1008 31.9118 15.1008 31.7364 15.2276L31.6737 15.2657C31.5359 15.3671 31.4733 15.4178 31.4232 15.4558L31.373 15.5066L31.4232 15.57H31.4858C31.4858 15.57 31.6236 15.4685 31.7364 15.3798Z" fill="#D7000F"/>
<path d="M29.4686 16.3942L29.5939 16.3181H29.644L29.7317 16.3054V16.3435L29.5939 16.4069H29.5563L29.4686 16.3942ZM34.2046 12.6792C34.0793 12.768 33.954 12.8567 33.8162 12.9201C33.0895 13.3766 32.4129 13.795 31.7363 14.1627L31.4231 14.3402C30.9721 14.5938 30.5085 14.822 30.0449 15.0375C29.9071 15.1009 29.7567 15.177 29.6064 15.2404C28.6792 15.6715 27.6644 16.0645 26.4992 16.4576C25.8602 16.6858 25.1711 16.9014 24.4068 17.1169L24.1562 17.2057C22.9158 17.5607 21.5501 17.9284 20.2095 18.3087C18.1798 18.93 16.1376 19.6401 14.4336 20.7051C14.4336 20.7051 16.0248 20.2233 20.0216 19.6654L20.2095 19.6274C21.8258 19.3865 23.1664 19.1329 24.1562 18.892C24.5321 18.7906 24.8704 18.7018 25.1335 18.6257C25.4843 18.4989 25.9604 18.3468 26.4992 18.1693C27.4263 17.8396 28.5539 17.3832 29.6064 16.7999C29.7567 16.7365 29.9071 16.6478 30.0449 16.559C30.521 16.2801 30.9595 16.0011 31.373 15.6715L31.1725 15.5827C31.0973 15.6461 30.4834 15.9758 30.0449 16.1786L29.8695 16.2674C29.7317 16.2928 29.7317 16.2674 29.7317 16.2674C29.7317 16.2674 29.8695 16.204 30.0324 16.1026C30.283 15.9758 30.6087 15.7983 30.8342 15.6588L31.1099 15.4686C31.1099 15.4686 31.1725 15.3672 31.4106 15.215V15.1897C31.4983 15.139 31.611 15.0756 31.7238 14.9995C31.9619 14.8473 32.2626 14.6191 32.676 14.3402L32.8765 14.0866C32.8765 14.0866 32.4756 14.3528 32.2375 14.505C31.9994 14.6825 31.8616 14.7459 31.7238 14.8347C31.6236 14.8854 31.5359 14.9488 31.4106 15.0248L31.3103 15.1136C30.9846 15.3291 30.4959 15.5954 30.0324 15.8236C29.882 15.9124 29.7317 15.9758 29.5939 16.0519C29.1804 16.242 28.8797 16.3815 28.8672 16.3815L28.9799 16.242C29.1804 16.1406 29.3934 16.0392 29.5939 15.9377C29.7442 15.849 29.8945 15.7856 30.0324 15.6968C30.5586 15.4306 31.0096 15.1516 31.4106 14.8981C31.5359 14.822 31.6361 14.7586 31.7238 14.6952C32.7387 14.0359 33.4152 13.4653 33.8036 13.0849C34.0041 12.8947 34.1294 12.7553 34.192 12.6919" fill="#D7000F"/>
<path d="M33.816 12.1846L33.9664 12.0959L33.9789 12.0452L33.816 12.0959L33.6907 12.172L33.6406 12.2734L33.816 12.1846Z" fill="#D7000F"/>
<path d="M42.7622 38.7095H0.238281V38.9123H42.7622V38.7095Z" fill="#D7000F"/>
<path d="M38.8277 43.236H37.9005C37.9757 43.0712 38.0384 42.9317 38.1135 42.8429L38.3641 42.6781L38.5521 42.6401C38.6648 42.6401 38.765 42.6908 38.8277 42.7795C38.8778 42.881 38.8778 43.0204 38.8277 43.236ZM39.4917 42.1963C39.3414 42.0568 39.0657 42.0061 38.7149 42.0061C38.6022 42.0061 38.4894 42.0061 38.3766 42.0441C38.0885 42.0949 37.8003 42.209 37.5622 42.4118C37.224 42.6781 36.9859 43.0458 36.8481 43.4896C36.7479 43.7939 36.7103 44.0728 36.7604 44.2884C36.8105 44.5293 36.9107 44.6814 37.0611 44.8082C37.2114 44.9096 37.4745 44.9604 37.7878 44.9604C38.0133 44.9604 38.1887 44.9477 38.3641 44.897C38.5019 44.8843 38.6147 44.8336 38.7149 44.7828C38.953 44.656 39.1785 44.4532 39.4291 44.1616L38.527 44.0728L38.3516 44.2123L38.3015 44.2503L38.0008 44.3391C37.8629 44.3391 37.7627 44.2757 37.7126 44.1489C37.6625 44.0601 37.6625 43.9207 37.7126 43.7558H39.6045L39.6421 43.6417C39.7674 43.2613 39.8175 42.957 39.7799 42.7288C39.7548 42.4879 39.6421 42.3231 39.4792 42.1963" fill="#D7000F"/>
<path d="M31.6613 40.9917H31.4859H30.7091L29.6066 44.4531L29.4688 44.8842H29.6066H30.421L31.4859 41.5623L31.6613 40.9917Z" fill="#D7000F"/>
<path d="M33.1522 42.0695H33.1146H32.2125L31.4858 44.3264L31.2979 44.8842H31.4858H32.2375L33.1146 42.1582L33.1522 42.0695Z" fill="#D7000F"/>
<path d="M35.7836 42.0061C35.5957 42.0061 35.4077 42.0441 35.2574 42.1202C35.0945 42.209 34.9191 42.3357 34.7186 42.5259L34.869 42.0695H33.9919L33.1149 44.8082L33.0898 44.8843H34.0546L34.4806 43.5276C34.5683 43.274 34.6685 43.0838 34.7687 42.9824C34.869 42.8936 34.9692 42.8429 35.0945 42.8429L35.295 42.9443C35.3326 43.0204 35.3326 43.1472 35.2574 43.3247L34.7687 44.8843H35.721L36.2973 43.0965C36.4226 42.7161 36.4351 42.4372 36.3474 42.2723C36.2472 42.0822 36.0718 41.9934 35.8087 41.9934" fill="#D7000F"/>
<path d="M29.7437 42.1582L29.6059 42.0695L29.3302 41.9934C29.1924 41.9934 29.0797 42.0314 28.9544 42.1075C28.8416 42.1836 28.7038 42.3231 28.566 42.5259L28.7038 42.0695H27.8267L26.9497 44.8209L26.9121 44.8843H27.8769L28.1776 43.946C28.3154 43.4769 28.4657 43.1726 28.6161 43.0077C28.7163 42.9063 28.8416 42.8302 28.9544 42.8302L29.1924 42.919L29.5933 42.3357L29.7312 42.1456L29.7437 42.1582Z" fill="#D7000F"/>
<path d="M42.4609 43.2106C42.3231 43.1472 42.1101 43.0965 41.7968 43.0458C41.5964 43.0331 41.4711 42.9951 41.421 42.9571L41.3834 42.7922L41.4961 42.6401L41.7467 42.5767L41.9848 42.6654L42.0349 42.8683L42.9746 42.7669C42.9621 42.5767 42.9245 42.4372 42.8744 42.3231C42.8117 42.2217 42.724 42.1329 42.5987 42.0822C42.4609 42.0315 42.2604 42.0188 41.9723 42.0188C41.6841 42.0188 41.446 42.0568 41.2581 42.1202C41.0702 42.1963 40.8947 42.2977 40.7695 42.4119C40.6316 42.5513 40.5314 42.7162 40.4813 42.9063C40.4312 43.0838 40.4186 43.2233 40.4688 43.3501C40.5189 43.4896 40.5815 43.591 40.7068 43.6417C40.807 43.6925 41.0326 43.7558 41.3333 43.8319C41.5337 43.87 41.659 43.908 41.7091 43.9334L41.7593 44.1235L41.634 44.2884C41.5337 44.3391 41.4335 44.3771 41.2957 44.3771C41.1829 44.3771 41.1077 44.3644 41.0451 44.2884C40.995 44.2377 40.9824 44.1616 40.9824 44.0221L40.0052 44.1235C39.9801 44.3898 40.0302 44.6054 40.1806 44.7575C40.3309 44.9097 40.6316 44.973 41.0702 44.973C41.3959 44.973 41.659 44.9223 41.8845 44.8336C42.085 44.7448 42.2729 44.618 42.4108 44.4659C42.5486 44.3137 42.6238 44.1616 42.6864 43.9968C42.7365 43.8319 42.7491 43.6671 42.724 43.553C42.6739 43.4135 42.5862 43.3121 42.4734 43.2233" fill="#D7000F"/>
<path d="M26.95 40.9917H26.3611L26.123 41.7271H26.95H27.0753L27.3133 40.9917H26.95Z" fill="#D7000F"/>
<path d="M2.02972 43.8699C1.8919 43.984 1.70396 44.0474 1.52855 44.0474C1.30303 44.0474 1.17774 43.984 1.10256 43.8065C1.05245 43.6544 1.09004 43.3501 1.21533 42.919C1.32809 42.5639 1.45338 42.3104 1.60373 42.1582C1.8042 41.93 2.02972 41.8286 2.26777 41.8286L2.51836 41.8919L2.66871 42.0948C2.68124 42.1582 2.70629 42.247 2.68124 42.3738L3.65851 42.1328H3.6961C3.6961 41.9427 3.68357 41.7905 3.65851 41.651C3.60839 41.4609 3.54575 41.3214 3.43298 41.2073C3.24505 41.0171 2.94435 40.9156 2.50583 40.9156C1.96707 40.9156 1.49097 41.0932 1.07751 41.4355C0.676573 41.7905 0.363345 42.285 0.15035 42.919C0 43.4134 -0.0375874 43.8065 0.0375874 44.1235C0.100233 44.4278 0.238054 44.656 0.43852 44.7701C0.626457 44.9096 0.914627 44.9603 1.27797 44.9603C1.57867 44.9603 1.85431 44.9096 2.09237 44.8082C2.30536 44.7067 2.53089 44.5672 2.71882 44.3644C2.91929 44.1615 3.10723 43.9206 3.25758 43.629L2.43065 43.2993C2.30536 43.5402 2.16754 43.7304 2.02972 43.8699Z" fill="#D7000F"/>
<path d="M16.6761 43.7305C16.6385 43.8699 16.5884 43.9714 16.5257 44.0474C16.4506 44.1362 16.3754 44.1996 16.2501 44.263L16.225 44.2884L15.9369 44.3517L15.7364 44.263V44.0601L15.8742 43.8573C15.9369 43.8065 16.0622 43.7558 16.2376 43.7051L16.3002 43.6798C16.4506 43.629 16.6009 43.6037 16.7513 43.5403L16.6886 43.7178L16.6761 43.7305ZM17.4404 42.0568C17.2775 42.0188 17.052 42.0061 16.7638 42.0061C16.5884 42.0061 16.4255 42.0315 16.2501 42.0568H16.2C16.0622 42.0949 15.9494 42.1202 15.8617 42.1836C15.7114 42.247 15.5986 42.3484 15.4984 42.4499C15.3981 42.5513 15.3104 42.6908 15.2102 42.881L16.0872 42.9824L16.2 42.8303L16.3002 42.7415C16.4005 42.6781 16.5132 42.6654 16.6761 42.6654C16.8139 42.6654 16.8766 42.6781 16.9141 42.7288C16.9517 42.7795 16.9267 42.881 16.9016 43.0204C16.7638 43.0712 16.651 43.1092 16.5257 43.1345C16.4631 43.1599 16.3629 43.1853 16.2125 43.2233C16.0998 43.236 15.9619 43.274 15.774 43.3121C15.4608 43.3755 15.2352 43.4769 15.0849 43.6164C14.9345 43.7558 14.8343 43.908 14.7591 44.0982V44.1489C14.6714 44.3644 14.6714 44.5419 14.7591 44.6941V44.7194C14.897 44.8716 15.0849 44.9604 15.3856 44.9604C15.5986 44.9604 15.8116 44.9223 16.0121 44.8336L16.2125 44.7321L16.4631 44.5419L16.4255 44.7068V44.8716H17.3401V44.58C17.3401 44.5039 17.3777 44.4025 17.4028 44.2757L17.8037 43.0331C17.8538 42.8936 17.8664 42.7669 17.8664 42.602C17.8664 42.4626 17.8413 42.3484 17.7787 42.2597C17.691 42.1583 17.5782 42.0695 17.4278 42.0315" fill="#D7000F"/>
<path d="M5.61306 43.7305C5.56294 43.8699 5.51283 43.9714 5.43765 44.0474C5.37501 44.1362 5.2873 44.1996 5.16201 44.263L5.12442 44.2883L4.83625 44.3517L4.63579 44.263V44.0601L4.77361 43.8572C4.83625 43.8065 4.96155 43.7558 5.12442 43.7051L5.1996 43.6797C5.34995 43.629 5.5003 43.6037 5.65065 43.5403L5.60053 43.7178L5.61306 43.7305ZM6.80333 42.6147C6.80333 42.4879 6.7908 42.3738 6.74068 42.3104V42.2723C6.65298 42.1709 6.51516 42.0822 6.36481 42.0441C6.21446 42.0061 5.97641 41.9934 5.70076 41.9934C5.51283 41.9934 5.34995 42.0061 5.17454 42.0441H5.12442C4.99913 42.0822 4.87384 42.1075 4.78614 42.1709C4.63579 42.2343 4.52303 42.3357 4.41026 42.4372C4.32256 42.5386 4.22233 42.6781 4.13462 42.8683L4.99913 42.9697L5.11189 42.8176L5.21213 42.7288C5.31236 42.6654 5.43765 42.64 5.60053 42.64C5.71329 42.64 5.78847 42.6527 5.82606 42.7034C5.86364 42.7542 5.86364 42.8556 5.81353 42.9951C5.67571 43.0458 5.56294 43.0838 5.43765 43.1092C5.36248 43.1345 5.26224 43.1599 5.11189 43.1979C4.99913 43.2106 4.86131 43.2486 4.69843 43.2867C4.37268 43.3501 4.13462 43.4515 3.98427 43.591C3.83392 43.7305 3.70863 43.908 3.64599 44.1235V44.1489C3.59587 44.3264 3.59587 44.4785 3.64599 44.5926L3.6961 44.6941C3.79634 44.8462 3.9968 44.935 4.28497 44.935C4.5105 44.935 4.71096 44.8969 4.91143 44.8082L5.11189 44.7067L5.36248 44.5166V44.6814V44.8589H6.23952C6.23952 44.7448 6.22699 44.656 6.23952 44.5673C6.25205 44.4912 6.2771 44.3898 6.32722 44.263L6.71562 43.0204C6.76574 42.8809 6.77827 42.7542 6.77827 42.5893" fill="#D7000F"/>
<path d="M9.23351 43.4515C9.17087 43.7178 9.07063 43.8826 8.95787 43.9841L8.82005 44.0855L8.61958 44.1489C8.50682 44.1489 8.41912 44.0855 8.369 43.9714C8.31888 43.8699 8.33141 43.6924 8.40659 43.4769C8.49429 43.236 8.56947 43.0585 8.69476 42.9444L8.83258 42.8429L9.04557 42.7795C9.17087 42.7795 9.23351 42.8429 9.28363 42.9444C9.33374 43.0458 9.32122 43.2233 9.23351 43.4389M9.62191 42.0061C9.45904 42.0061 9.28363 42.0441 9.12075 42.1202L8.83258 42.3231L8.65717 42.4752L8.79499 42.0695H7.91795L6.74021 45.7591L6.66504 45.962H7.62978L8.05577 44.618C8.11842 44.7448 8.19359 44.8209 8.29383 44.8716C8.39406 44.9223 8.53188 44.9604 8.6697 44.9604H8.84511C9.08316 44.9096 9.32122 44.7955 9.55927 44.5927C9.82238 44.3517 10.0479 43.9967 10.1857 43.5149C10.3361 43.0838 10.3486 42.7288 10.2734 42.4372C10.1732 42.1456 9.97273 42.0061 9.64697 42.0061" fill="#D7000F"/>
<path d="M10.4746 44.8842H11.4143L12.3164 42.0695H11.3642L10.4746 44.8842Z" fill="#D7000F"/>
<path d="M11.7019 40.9917L11.4639 41.7271H12.4286L12.6541 41.0044V40.9917H11.7019Z" fill="#D7000F"/>
<path d="M18.0674 44.8842H19.0196L20.26 40.9917H19.3203L18.0674 44.8842Z" fill="#D7000F"/>
<path d="M23.5549 43.4007H22.7907L23.2166 42.7034L23.6176 42.006L23.5549 43.4134V43.4007ZM23.392 40.9917L23.2166 41.2453L20.8486 44.8842H21.9261L22.302 44.2376H23.5048L23.4672 44.8842H24.5573L24.5322 40.9917H23.3795H23.392Z" fill="#D7000F"/>
<path d="M33.1144 40.9917H32.538L32.3125 41.7271H33.1144H33.2522L33.4902 40.9917H33.1144Z" fill="#D7000F"/>
<path d="M26.9756 42.0695H26.9505H26.0234L25.1338 44.8842H26.0735L26.9505 42.1329L26.9756 42.0695Z" fill="#D7000F"/>
<path d="M14.045 42.8555H14.5713L14.7467 42.2723L14.8218 42.0694H14.2956L14.6339 40.9917H13.7193L13.3559 42.0694H13.0051L12.7545 42.8555H13.1179L12.7921 43.8445C12.7169 44.0854 12.6668 44.2629 12.6543 44.4151V44.5926C12.6668 44.7194 12.7169 44.7954 12.8046 44.8588C12.8924 44.9349 13.0427 44.9603 13.2808 44.9603C13.4812 44.9603 13.7193 44.9349 13.9699 44.8715L14.1453 44.1235C14.0074 44.1742 13.8947 44.1868 13.8195 44.1868L13.6817 44.0981C13.6817 44.0981 13.6942 43.9713 13.7318 43.8572L14.0576 42.8429L14.045 42.8555Z" fill="#D7000F"/>
<path d="M12.1032 33.6632L12.003 34.0309H9.42198L9.52222 33.6632H12.1032ZM11.7399 34.9058H9.15887L9.25911 34.5508H11.8401L11.7399 34.9058ZM11.4517 35.8694H8.8707L8.99599 35.451H11.577L11.4517 35.8694ZM11.4517 32.6742H13.7696L13.9701 32.0403H13.5691L12.4039 32.053C12.5793 31.8628 12.7422 31.6979 12.8926 31.5204C12.6921 31.4317 12.5042 31.3302 12.3413 31.1908C12.1157 31.457 11.9654 31.6346 11.9028 31.6979L11.6396 31.9515L11.79 32.0403H10.7125L10.7877 32.0022L10.9756 31.9008C10.938 31.8121 10.8754 31.6345 10.7877 31.419L10.7125 31.1781C10.5371 31.2795 10.3241 31.381 10.061 31.5078C10.1236 31.7106 10.1863 31.8501 10.1863 31.8881L10.2364 32.0403H8.64518L8.45724 32.6742H8.8707L10.7626 32.6616L10.6624 32.8771L10.5621 33.0673H9.0837L8.98346 33.4477L8.21919 35.9455L8.03125 36.5287H8.72035L8.75794 36.4019H11.3264L11.2888 36.5033H12.003L12.1784 35.8694L12.8675 33.5237L13.0304 33.0419H12.6044L11.3014 33.0546L11.3891 32.8644C11.3891 32.8644 11.4392 32.763 11.4893 32.6489" fill="#D7000F"/>
<path d="M15.8874 35.7299H15.3988L15.4865 35.4383H16.3761L16.2884 35.7299H15.8874ZM15.7496 34.6141H16.6392L16.5515 34.8931H15.6494L15.7371 34.6141H15.7496ZM16.7895 32.5601H17.203L17.1278 32.6235L16.9148 32.8137L16.7895 32.9278L16.6392 33.0419L16.7895 32.5474V32.5601ZM16.777 36.4146L16.9148 35.9074L16.9775 35.6918L17.1278 35.21L17.2656 34.7156L17.4786 34.0436H16.9023L16.8898 34.0562H16.2758L16.7269 33.6632H17.3032L17.6916 33.6885H17.7919L17.9798 33.0419H17.6916L17.629 33.0546H17.441L17.6916 32.8264C17.8796 32.6362 18.08 32.4206 18.3306 32.1797L18.2429 32.1163L17.9673 31.9135L17.8169 31.7993L17.6791 32.0022L17.4912 32.2304L17.3032 32.4587L17.441 31.9642H17.1028L16.9524 31.9769L17.0025 31.8247L17.1028 31.5331L17.1529 31.3429H16.4262L16.3009 31.8374L16.2508 31.9769H15.4614L15.2735 32.6108H15.7747L15.8624 32.5981H16.0628L15.925 33.0799H14.8225L14.622 33.7139L15.2109 33.6885H15.7872C15.5491 33.8787 15.3361 34.0309 15.0981 34.145C14.86 34.2845 14.6095 34.3986 14.3213 34.4746C14.3839 34.7156 14.4466 34.9311 14.4591 35.1086L14.9853 34.8297L14.7097 35.7679L14.4967 36.4399H15.1733L15.2109 36.3258H16.1004L16.0754 36.4399H16.7519L16.777 36.4146Z" fill="#D7000F"/>
<path d="M19.1199 31.5964H18.531L18.3807 32.1036L17.7041 34.4112L17.3032 35.7425L17.1277 36.2877L17.04 36.5159H17.7667L17.9672 35.7679L19.0322 32.1924H19.5333L18.7565 33.6885L18.9445 33.8406C19.0447 33.9294 19.1073 34.0308 19.1449 34.2083C19.1951 34.3605 19.1951 34.5507 19.1324 34.7409C19.0823 34.9311 18.9821 35.0705 18.8442 35.1339C18.6939 35.2227 18.4934 35.2354 18.2178 35.1973L18.2554 35.4002C18.293 35.5397 18.3055 35.7298 18.293 35.9454C18.6939 35.8566 18.9821 35.7552 19.1449 35.6411C19.3203 35.527 19.4456 35.4002 19.5709 35.248C19.6962 35.1086 19.7839 34.9437 19.8466 34.7409C19.8967 34.538 19.9092 34.3478 19.8967 34.1957C19.8842 34.0308 19.834 33.904 19.7589 33.7899C19.6712 33.6885 19.596 33.5617 19.4707 33.4349L20.4981 31.6091H19.1073L19.1199 31.5964Z" fill="#D7000F"/>
<path d="M22.2394 33.6125L22.465 32.9278V33.1307L22.4775 33.3082L22.4399 33.5491C22.678 33.4476 22.8784 33.3716 23.0538 33.3462C23.0538 33.0926 23.0288 32.9278 23.0288 32.8517C23.0162 32.7756 23.0162 32.6996 23.0037 32.5855C22.8534 32.6362 22.703 32.6996 22.5151 32.7376L22.6153 32.3953H23.3545L23.1165 33.1814L22.9786 33.6251H22.2269L22.2394 33.6125ZM22.678 36.3892L22.7782 36.2371L23.1165 35.1213L23.5049 33.8153L23.9434 32.3572L24.0687 32.0022L24.1313 31.7993H24.0687L23.8306 31.8247H23.3796L23.5174 31.5838L23.7053 31.2922H23.5174C23.3796 31.2415 23.2418 31.2161 23.129 31.1907L23.0288 31.1527L22.8408 31.5838C22.8408 31.5838 22.7907 31.6852 22.7281 31.8247H22.4524L22.1643 31.7993L22.0139 32.3699L21.638 33.5998H21.2997L21.1369 34.1703H21.4752L21.3874 34.4493C21.3373 34.6395 21.2622 34.855 21.187 35.0579C21.1118 35.2734 21.0241 35.4636 20.9239 35.6158C20.8236 35.7679 20.7359 35.8947 20.6733 35.9581L20.4854 36.1483C20.6357 36.2624 20.7485 36.3512 20.7735 36.4019L20.9113 36.5921C21.1369 36.3512 21.2997 36.1103 21.425 35.9074C21.5378 35.6919 21.638 35.5017 21.7257 35.2988C21.7884 35.1086 21.8636 34.9565 21.9011 34.8423C21.9387 34.7156 21.9638 34.6141 21.9888 34.5507V34.8297C22.0264 34.9184 22.0014 35.1086 21.9513 35.4129L22.1893 35.3115C22.1893 35.3115 22.3397 35.2608 22.5151 35.21C22.5527 34.9311 22.5527 34.7282 22.5527 34.6395C22.5527 34.538 22.5527 34.4113 22.5401 34.2591C22.4023 34.3225 22.2394 34.3732 22.0515 34.4113L22.1392 34.1577H22.8659L22.3898 35.7299L22.3271 35.8694C22.3271 35.8694 22.2018 35.9201 22.0766 35.9201H21.8385L21.8761 36.1483V36.3512L21.8636 36.5794C22.3898 36.5287 22.6779 36.478 22.7406 36.4019" fill="#D7000F"/>
<path d="M27.2636 31.9895H26.0483C26.0608 31.774 26.0357 31.5584 25.9982 31.3429H25.3216C25.3592 31.5711 25.3842 31.774 25.3717 31.9895H24.194L24.0812 32.3699L24.0186 32.6108H27.0882L27.2761 31.9895H27.2636Z" fill="#D7000F"/>
<path d="M25.2585 36.5414C25.7471 36.5414 26.0729 36.3258 26.1856 35.8821L26.4863 34.8551L25.9476 34.6522V34.7029C25.7972 35.2354 25.7095 35.5778 25.6594 35.7046C25.6093 35.8948 25.5216 35.9455 25.4213 35.9455C25.3712 35.9455 25.3336 35.9074 25.3838 35.7426L26.1856 33.0039H24.3814L24.0933 33.9929L24.0557 34.0943C23.9053 34.6268 23.7174 35.0706 23.5044 35.4256C23.3791 35.6285 23.2538 35.806 23.116 35.9582L22.8779 36.1864L23.116 36.4273L23.329 36.6428L23.3666 36.6048L23.5044 36.4526C23.7049 36.2117 23.8928 35.9582 24.0557 35.6665C24.2937 35.2354 24.4942 34.741 24.6696 34.1831L24.7197 33.9929L24.8575 33.5491H25.3838L24.7072 35.9074C24.5944 36.3132 24.7698 36.5414 25.271 36.5414" fill="#D7000F"/>
<path d="M33.3528 33.511H31.9871C31.7991 33.511 31.724 33.4223 31.7866 33.2574L31.9244 32.7629H31.323L31.1727 33.2955C31.085 33.5617 31.085 33.7773 31.1852 33.8787C31.2729 33.9928 31.4734 34.0309 31.7616 34.0309H33.2149L33.3653 33.511H33.3528Z" fill="#D7000F"/>
<path d="M33.8409 31.9135H32.2246L31.5857 31.9261C31.5982 31.7486 31.5731 31.5965 31.5355 31.4443H30.859C30.9091 31.5965 30.9341 31.7486 30.9091 31.9261H28.5411L28.1777 33.1687H28.917L29.0798 32.5347H32.9639L32.7509 33.1814H33.4525L33.8409 31.9008V31.9135Z" fill="#D7000F"/>
<path d="M30.7585 32.9152L30.2323 32.725C30.0319 32.9405 29.7562 33.1307 29.4555 33.2829C29.0546 33.473 28.591 33.6252 28.0898 33.714L28.2277 34.2084C28.6537 34.1324 29.0671 34.0182 29.4555 33.8281C29.9316 33.6125 30.3576 33.3209 30.7585 32.9025" fill="#D7000F"/>
<path d="M29.4562 36.3765H32.0122H32.2252L32.5259 36.3892L32.7389 35.7299L32.2252 35.7679H32.1876H30.421L30.6716 34.9565H31.6739H32.1625L32.2252 34.7409L32.338 34.3479H32.2252H29.4562H29.2182L28.6293 34.3225L28.4414 34.9565H29.0428H29.4562H29.9574L29.7194 35.7679H29.4562H28.0029L27.3889 35.7299L27.1885 36.3892L27.8149 36.3765H29.4562Z" fill="#D7000F"/>
</g>
<defs>
<clipPath id="clip0_597_3585">
<rect width="42.9746" height="45.962" fill="white"/>
</clipPath>
</defs>
</svg>
