<svg width="165" height="46" viewBox="0 0 165 46" fill="none" xmlns="http://www.w3.org/2000/svg">
<g clip-path="url(#clip0_597_3584)">
<path d="M35.185 15.5858H35.1522C31.5871 15.4936 29.5189 16.2907 28.022 16.8704C27.4704 17.0878 26.9846 17.2656 26.5316 17.3908C24.3387 17.9441 23.1831 16.8704 22.7235 15.8032C22.4806 16.1985 22.3887 16.6596 22.3887 17.1141C22.4806 18.6095 23.7937 19.7754 25.5599 19.6832C26.1376 19.6503 27.0502 19.4395 27.7528 19.0442C27.8447 19.0113 27.9366 18.952 28.0285 18.8927C29.5846 18.0034 31.8694 16.3236 35.1588 15.6254C35.1916 15.6254 35.1916 15.5924 35.1916 15.5924" fill="#D71618"/>
<path d="M58.5846 5.44116C57.58 6.17237 56.5164 6.84428 55.3871 7.39763C54.7503 7.73359 54.074 8.03661 53.4043 8.31328C53.1286 8.4055 52.8856 8.52408 52.6099 8.6163C51.4215 9.04448 50.1412 9.41338 48.8609 9.65711C48.6771 9.69005 48.4933 9.7164 48.2832 9.74934C47.4625 9.8745 46.6352 9.96014 45.7882 10.026C45.5453 10.0589 45.2696 10.0589 44.9938 10.0589C44.7509 10.0919 44.5079 10.0919 44.265 10.0919C43.7135 10.0919 43.1357 10.0589 42.6171 10.0326C41.9145 11.4094 40.7918 13.0299 39.3868 14.6504C38.1656 16.0535 36.7343 17.4303 35.152 18.5963C35.152 18.6292 35.1191 18.6292 35.1191 18.6292H35.152C36.6424 18.504 38.0802 18.2932 39.3868 18.0166C41.5797 17.5291 43.4968 16.9165 44.9938 16.3631C45.2696 16.2709 45.5453 16.1523 45.7882 16.0601C47.0685 15.5726 47.9221 15.1444 48.2832 14.96C48.3751 14.9007 48.4342 14.8678 48.467 14.8678C48.7099 14.7755 48.8018 14.5647 48.3751 14.7163C48.3423 14.7163 48.316 14.7492 48.2832 14.7492C47.3377 15.0852 46.4842 15.3025 45.7882 15.454C45.5125 15.5133 45.2367 15.5726 44.9938 15.6056C44.3569 15.7307 43.9564 15.7571 43.8382 15.79C43.6282 15.8493 43.3196 15.6978 43.8054 15.6056C44.1994 15.5463 44.5999 15.4541 44.9938 15.3618C45.2696 15.3025 45.5453 15.2367 45.7882 15.1774C46.6746 14.9336 47.5281 14.6306 48.2832 14.354C48.4933 14.2947 48.6771 14.2024 48.8609 14.1366C50.5352 13.4646 51.7564 12.852 51.9074 12.7598C52.2094 12.5753 51.9665 12.5753 51.9665 12.5753C51.9665 12.5753 50.9028 13.1287 50.6862 13.188C50.4695 13.2802 50.4104 13.188 50.5352 13.155C50.6862 13.0958 51.0867 12.7861 50.4761 13.0035C49.9246 13.2143 49.3796 13.4317 48.8609 13.5832C48.6771 13.6425 48.467 13.7347 48.2832 13.7677C47.4887 14.0443 46.8519 14.1959 46.517 14.2551C45.8802 14.3474 46.3332 14.1366 46.3332 14.1366C46.3332 14.1366 47.1539 13.9258 47.4887 13.8006C48.0074 13.6491 48.0337 13.4976 47.5478 13.6162C46.9372 13.7677 46.3266 13.8928 45.7817 14.0114C45.5059 14.0443 45.263 14.1036 44.9872 14.1366C43.615 14.3803 42.6105 14.4396 42.2166 14.5055C41.757 14.5384 42.1246 14.354 42.1246 14.354C42.1246 14.354 43.0372 14.2617 43.7069 14.1695C44.1665 14.1102 44.5933 14.018 44.9872 13.9521C45.263 13.8928 45.5387 13.827 45.7817 13.7677C46.7862 13.5569 47.6397 13.3065 48.2766 13.0958C48.4867 13.0365 48.6705 12.9706 48.8544 12.9113C49.5569 12.6676 49.918 12.4831 49.9836 12.4831C50.0427 12.4502 50.1347 12.2064 50.0165 12.2723C49.9246 12.3316 49.465 12.5161 48.8609 12.7005C48.8018 12.7334 48.7099 12.7334 48.6508 12.7598C48.5261 12.7927 48.4079 12.8191 48.2832 12.852C47.6135 13.0365 46.8519 13.2209 46.6352 13.2209C46.3923 13.2538 46.517 13.1616 47.3968 12.9442C47.6988 12.852 48.0074 12.7927 48.2832 12.7005C48.4933 12.6412 48.6771 12.5819 48.8609 12.5161C51.1786 11.7519 52.4589 10.8626 52.5771 10.8033C52.5771 10.8033 52.6099 10.8033 52.6099 10.7704C52.7018 10.7111 52.7346 10.5859 52.6099 10.6189C52.5771 10.6518 52.5508 10.6518 52.4851 10.7111C51.7235 11.1986 50.6599 11.6268 50.4432 11.6926C50.2331 11.7849 50.2922 11.6926 50.2922 11.6926C50.2922 11.6926 50.719 11.3567 50.0493 11.6926C49.7145 11.8441 49.2549 11.9957 48.8609 12.1208C48.6508 12.1801 48.4342 12.2394 48.2832 12.2723C48.1912 12.3053 48.0993 12.3316 48.0665 12.3316C47.8827 12.3645 48.1256 12.2064 48.2175 12.1801H48.2766C48.3948 12.1472 48.6443 12.0549 48.8544 11.9957C48.9135 11.9957 48.9791 11.9627 49.0054 11.9627C49.2811 11.9034 49.0973 11.7783 49.0973 11.7783C49.0973 11.7783 49.0645 11.8112 48.8544 11.8705C48.7362 11.9034 48.5786 11.9298 48.3357 11.9891C48.3357 12.022 48.3029 12.022 48.2766 12.022C47.364 12.2394 46.3266 12.358 45.7817 12.4172C45.5387 12.4502 45.3877 12.4502 45.3877 12.4502C45.3877 12.4502 44.9019 12.3909 45.7817 12.2394H45.8408C46.6943 12.0879 47.515 11.9034 48.2766 11.719C48.4867 11.6597 48.6705 11.6268 48.8544 11.5675C50.2857 11.1393 51.5331 10.6518 52.6033 10.0721C52.8791 9.94696 53.1548 9.79545 53.3978 9.67688C54.1265 9.24869 54.7962 8.78757 55.3806 8.33304C56.72 7.32517 57.7245 6.28435 58.578 5.46092M45.0004 12.437C44.9413 12.4699 44.8494 12.4963 44.7574 12.4963C44.6064 12.5292 44.5145 12.5292 44.4554 12.4963C44.4226 12.4634 44.5145 12.4041 44.5145 12.4041C44.5145 12.4041 44.8822 12.3711 44.9413 12.3711C45.0004 12.3382 45.0004 12.3711 45.0004 12.3711C45.0004 12.3711 45.0201 12.3821 45.0595 12.4041C45.0595 12.4041 45.0595 12.437 45.0004 12.437Z" fill="#D71618"/>
<path d="M48.4735 13.3263C48.4735 13.3263 48.3816 13.3593 48.2897 13.3856C48.165 13.4186 48.0468 13.4778 48.0468 13.4778C48.0468 13.4778 47.9549 13.5371 48.014 13.5701C48.073 13.5701 48.165 13.5701 48.2897 13.5108H48.3225C48.4473 13.4778 48.6574 13.3593 48.5983 13.3593C48.5392 13.3593 48.5392 13.3 48.4735 13.3263Z" fill="#D71618"/>
<path d="M53.8316 9.90085C53.6806 9.99307 53.5296 10.0853 53.4048 10.1775C53.221 10.2697 53.07 10.362 52.9453 10.4213C52.8205 10.4542 52.7614 10.6057 52.8533 10.6057C52.9453 10.5728 52.9715 10.5728 53.1882 10.4213C53.2473 10.3883 53.3129 10.362 53.4048 10.329C53.5887 10.2039 53.8316 10.0524 53.8316 10.0524L53.9826 9.93378C53.9826 9.93378 53.9826 9.80862 53.8316 9.90085Z" fill="#D71618"/>
<path d="M45.7889 20.7833L45.6051 20.8162C45.6051 20.8162 45.4212 20.9677 45.5722 20.9348C45.6313 20.9348 45.7232 20.9019 45.7889 20.9019C45.8808 20.8689 45.9399 20.8426 45.9399 20.8426C46.0909 20.7503 46.1237 20.724 45.999 20.724L45.7889 20.7833Z" fill="#D71618"/>
<path d="M20.9313 10.1776C21.9358 10.1776 22.7565 9.41343 22.7565 8.46484C22.7565 8.31333 22.7237 8.16182 22.6974 8.00372C22.9075 8.33968 23.0323 8.70858 23.0323 9.10382C22.9995 10.1117 22.2378 10.9088 21.1151 10.9681C20.8394 10.9681 20.5636 10.9351 20.3207 10.8429C20.2616 11.0603 20.2616 11.304 20.2616 11.5148C20.2616 12.7664 21.0823 13.8072 22.2116 14.1761C22.0277 13.8995 21.903 13.5964 21.903 13.2276C21.903 12.4634 22.4545 11.8508 23.2161 11.6993C23.8858 11.5741 24.4964 11.607 26.3873 12.1867C26.906 12.3382 27.4838 12.4898 28.0353 12.582C29.2565 12.8257 30.412 12.9772 31.1408 13.0431C30.2544 13.6228 29.158 13.9917 28.0353 14.1761C27.4247 14.2684 26.8141 14.2684 26.2363 14.2091C24.2863 14.0246 23.1899 12.8916 23.1899 12.8916C23.4 13.6887 24.4964 14.7888 26.5383 15.0918C27.0242 15.184 27.5428 15.2104 28.0287 15.2433C30.4645 15.2762 32.966 14.5121 35.1589 13.412C36.6231 12.6808 37.9296 11.7586 38.9998 10.8429L38.9079 10.8758C37.7195 11.1789 36.4392 11.3962 35.1589 11.4555C34.8569 11.4555 34.5483 11.4885 34.2463 11.4885C32.0534 11.4885 29.9787 11.0932 28.0353 10.4213C27.4575 10.2039 26.8797 9.96019 26.2954 9.6901C26.8732 9.87455 27.4509 10.0261 28.0353 10.1512C29.3156 10.4279 30.6549 10.5794 32.0271 10.5794C33.0908 10.5794 34.161 10.4872 35.1655 10.3027C36.6559 10.0853 38.0609 9.66375 39.4003 9.11041C40.0372 8.86668 40.6478 8.55707 41.2584 8.22111C42.4796 8.49778 43.727 8.64929 45.0073 8.68223H45.8018C46.6553 8.68223 47.476 8.62294 48.2967 8.49778C48.5134 8.49778 48.6906 8.46484 48.8745 8.43849C50.181 8.22111 51.4351 7.88515 52.6234 7.45697C52.8992 7.36474 53.1421 7.23958 53.4179 7.15394C54.0876 6.87727 54.7572 6.54131 55.4007 6.20536C57.7446 4.92081 59.7865 3.20808 61.4345 1.15939C59.5764 2.35171 57.5673 3.3003 55.4007 3.97222C54.7638 4.15667 54.0941 4.34111 53.4179 4.45969C53.1421 4.51897 52.8992 4.57826 52.6234 4.6112C51.4022 4.822 50.1548 4.94716 48.8745 4.98009H48.2967C47.476 4.98009 46.6225 4.94716 45.8018 4.85493H45.7427L45.8018 4.79565C46.7472 3.82071 47.6007 2.74696 48.2967 1.61392C48.5134 1.3109 48.6906 0.974939 48.8745 0.63898C48.9927 0.421595 49.1174 0.210798 49.2093 0C49.2093 0 49.0846 0.092224 48.8745 0.210798C48.7235 0.303022 48.5396 0.428183 48.2967 0.546756C47.7189 0.882715 46.8654 1.3109 45.8018 1.67979C45.5588 1.77202 45.2831 1.86424 45.0073 1.92353C43.7599 2.29242 42.2629 2.56251 40.5624 2.56251C40.1948 2.56251 39.8008 2.56251 39.4069 2.52957C37.8508 2.43735 36.3933 2.13433 35.1721 1.884C35.113 1.85107 35.0539 1.85107 34.9882 1.85107C31.666 1.14621 30.3595 1.72591 29.7161 2.03551C28.8954 2.4637 28.2519 3.22784 28.0418 4.11714C27.9827 4.36088 27.9499 4.57826 27.9499 4.822C27.0636 4.85493 26.302 5.40169 26.0328 6.19877C26.6434 6.68624 27.3131 7.11442 28.0418 7.45038C28.8363 7.81928 29.6898 8.06301 30.5696 8.18158H30.2676C29.506 8.18158 28.7444 8.1223 28.0418 7.9642C26.5514 7.66118 25.1792 7.0749 23.807 6.46885C22.9207 6.07361 22.1328 5.88916 21.555 5.91551C20.5177 5.94845 19.6641 6.4952 19.2702 7.25934C19.0273 7.77975 18.9944 8.11571 19.0273 8.39238C19.0601 9.43319 19.9727 10.1644 20.9444 10.1644M30.2544 6.08019C29.7686 6.08019 29.3681 5.7113 29.3681 5.25677V5.16454C29.3681 4.4004 29.9459 3.85364 30.7075 3.78777C30.9241 3.78777 31.8958 3.63626 33.4781 4.76271C33.7211 4.91422 33.9377 5.06573 34.1478 5.22383C34.4827 5.46756 34.8175 5.68495 35.1524 5.86281C36.0978 6.40957 37.0433 6.90362 38.0741 7.29887C37.0367 7.51625 36.0322 7.51625 35.1524 7.48332C33.7539 7.39109 32.7428 7.08807 32.7428 7.08807C32.9266 6.8114 33.0186 6.50838 33.0186 6.13948C33.0186 5.22383 32.2569 4.45969 31.3115 4.45969C31.1277 4.45969 30.9438 4.45969 30.7928 4.51897C30.9767 4.67049 31.1277 4.91422 31.1277 5.22383C31.1277 5.68495 30.7337 6.08019 30.2413 6.08019" fill="#D71618"/>
<path d="M57.7313 16.5674C56.9369 16.9626 56.149 17.3645 55.3874 17.7004C54.6849 18.0034 54.048 18.2801 53.4046 18.5239C53.1288 18.649 52.8859 18.7412 52.6101 18.8269C51.146 19.3736 49.8657 19.7755 48.8612 20.0785C48.6445 20.1378 48.4672 20.1707 48.2834 20.23C47.1869 20.533 46.5173 20.6911 46.4253 20.7175C46.2415 20.836 46.4582 20.8097 46.1496 20.9612C46.0577 20.9941 45.9329 21.0534 45.7819 21.1127C45.5652 21.172 45.296 21.2642 44.9875 21.3564C44.7708 21.4157 44.5279 21.4816 44.3178 21.5409C43.891 21.6331 43.9501 21.5738 43.9501 21.5738C43.9501 21.5738 44.7117 21.2708 44.9875 21.2049C45.2632 21.172 45.7491 20.7438 44.9875 21.0205C44.9546 21.0205 44.9284 21.0205 44.9284 21.0534C44.5016 21.2049 42.0658 21.7583 39.3804 22.4302C37.982 22.7662 36.4588 23.1614 35.1456 23.5303C34.4759 23.7147 33.8653 23.8992 33.3204 24.0507C32.434 24.3537 32.9265 23.9585 32.9265 23.9585C33.5633 23.7477 34.2987 23.4974 35.1522 23.2273C36.3406 22.8584 37.739 22.4631 39.387 22.0679C39.6628 21.9757 39.9385 21.9164 40.2405 21.8571C41.5799 21.5211 43.3789 21.06 44.994 20.6055C45.2698 20.5133 45.5455 20.454 45.7885 20.3617C46.3991 20.1773 46.944 20.0258 47.4299 19.8413C47.7319 19.7491 48.0076 19.6569 48.2834 19.5647C48.5001 19.4724 48.6773 19.4132 48.8612 19.3473C50.2662 18.8598 51.5137 18.3723 52.6101 17.8783C52.8859 17.7861 53.1288 17.6609 53.4046 17.5423C54.1071 17.2393 54.7768 16.9297 55.3874 16.653C59.6813 14.5714 61.2373 13.076 61.4802 12.8916C59.4712 13.6887 57.4293 14.4199 55.3874 15.0918C54.7177 15.3026 54.0808 15.52 53.4046 15.7308C53.1288 15.7901 52.8859 15.8823 52.6101 15.9745C51.3627 16.3434 50.1152 16.7057 48.8612 17.0417C48.6773 17.101 48.4935 17.1603 48.2834 17.1932C47.4627 17.4369 46.6354 17.6543 45.7885 17.8651C45.5455 17.9244 45.2698 18.0166 44.994 18.0825C43.8647 18.3592 42.7092 18.6358 41.5537 18.9059C41.0087 19.0311 40.2734 19.2089 39.3936 19.4263C38.2052 19.703 36.7739 20.0653 35.1588 20.4935C33.7275 20.8624 32.1452 21.3169 30.5563 21.8044C29.7028 22.0481 28.8492 22.3511 28.0285 22.6278C16.1185 26.9887 6.15196 35.2427 0 46C7.49791 38.6946 16.9721 34.0504 28.0285 31.1454C28.3962 31.0531 28.7901 30.9609 29.1841 30.8687C31.377 30.3153 33.3598 29.8015 35.1522 29.3075C36.6754 28.8793 38.0739 28.4511 39.387 28.0229C41.4617 27.3839 43.287 26.712 44.994 25.9742C45.2698 25.882 45.5455 25.7568 45.7885 25.6383C46.642 25.2694 47.4955 24.8741 48.2834 24.4459C48.5001 24.3537 48.6773 24.2615 48.8612 24.1693C49.5309 23.8004 50.2006 23.4381 50.844 23.0692L51.1197 22.8518C51.1197 22.8518 51.4218 22.6081 50.8768 22.9111C50.2399 23.28 49.5637 23.6159 48.8677 23.9519C48.6839 24.0441 48.4738 24.1363 48.29 24.2286C47.4102 24.6567 46.5238 25.0256 45.795 25.2957C45.5193 25.4209 45.2435 25.5395 45.0006 25.6317C44.541 25.7832 44.2062 25.9084 44.088 25.9676C43.5102 26.1521 43.3855 26.1521 43.2673 26.1521C43.2082 26.1521 44.1208 25.7832 45.0072 25.4209C45.2829 25.3287 45.5587 25.2035 45.8016 25.1179C46.0117 25.0256 46.2284 24.9334 46.3794 24.8741C47.0162 24.6304 47.6925 24.3208 48.2965 24.0178C48.5132 23.9585 48.6905 23.8663 48.8743 23.774C50.3056 23.1021 51.4611 22.4895 51.6187 22.4302C51.8288 22.2787 52.8071 21.6661 51.6778 22.2194C50.5814 22.7069 49.5768 23.135 48.8743 23.4117C48.6576 23.5039 48.4475 23.5632 48.2965 23.6291C48.0536 23.7213 47.8698 23.7806 47.8107 23.8136C47.6268 23.8728 47.7188 23.7543 47.7188 23.7543C47.7188 23.7543 47.9945 23.6291 48.2965 23.4776C48.5132 23.4183 48.6905 23.3261 48.8743 23.2602C49.0581 23.168 49.2091 23.1087 49.242 23.0758C49.4521 23.0165 49.8526 22.6805 49.5177 22.832C49.4258 22.865 49.1829 22.9835 48.8809 23.1087C48.697 23.168 48.5132 23.2273 48.3031 23.3261C47.3905 23.662 46.2349 24.1232 45.8082 24.2747C45.7753 24.3076 45.7162 24.334 45.6834 24.334C45.2895 24.4855 44.8627 24.5777 45.8082 24.1232C45.8673 24.0902 45.9001 24.0902 45.9263 24.0639C46.1364 23.9717 46.0511 23.9124 45.9854 23.9717C45.9526 23.9717 45.8935 24.0046 45.8016 24.0309C45.6178 24.0902 45.2829 24.2154 45.0072 24.3076C44.8562 24.3669 44.7314 24.3998 44.6723 24.4262C44.4294 24.4855 44.2127 24.4262 44.7642 24.2747C44.7971 24.2417 44.889 24.2154 45.0072 24.1824C45.191 24.1232 45.4668 23.998 45.8016 23.8794C46.5041 23.6357 47.3839 23.2997 48.2965 22.9638C48.5132 22.8716 48.6905 22.8123 48.8743 22.72C50.3384 22.1733 51.645 21.6792 51.8616 21.587C52.0127 21.5277 52.3212 21.4026 52.6233 21.251C52.899 21.1588 53.1748 21.0402 53.4177 20.9151C53.8445 20.7306 54.1793 20.5462 54.1793 20.5198C54.1793 20.4935 54.1465 20.4869 54.2712 20.3354C54.3894 20.1839 54.547 19.9994 54.153 20.1839C53.8773 20.3025 53.6344 20.4276 53.4243 20.5198C53.1222 20.645 52.8728 20.7636 52.6298 20.8558C50.8309 21.6529 50.647 21.6199 50.4041 21.7122C50.0692 21.8373 49.5177 21.8373 50.1612 21.6199C50.798 21.4355 52.2621 20.7965 52.3869 20.7306C52.4788 20.6714 52.5707 20.6384 52.6298 20.5791C52.9318 20.3947 53.1157 20.2102 52.6298 20.3947C52.597 20.4276 52.5379 20.454 52.4788 20.4869C51.5005 20.9151 50.0692 21.4026 48.8809 21.8044C48.6642 21.8637 48.4869 21.923 48.3031 21.9888C47.4824 22.2326 46.839 22.45 46.7208 22.4763C46.6026 22.5356 46.4779 22.4434 46.4779 22.4434C46.4779 22.4434 46.2021 22.4763 45.9592 22.5356C45.7491 22.5685 45.8673 22.417 46.294 22.2919C46.9965 22.0745 47.6662 21.8307 48.3031 21.6199C48.5198 21.5607 48.697 21.4948 48.8809 21.4091C50.3122 20.9217 51.6253 20.4013 52.6298 19.9731C52.9318 19.8479 53.1813 19.7293 53.4243 19.6371C54.245 19.2682 54.7636 19.0574 54.7965 19.0245C54.9475 18.9652 54.8556 18.84 54.6717 18.8993C53.9429 19.176 53.5753 19.2682 53.4243 19.2946C53.2733 19.2946 53.2732 19.2616 53.2995 19.2616C53.3323 19.2287 53.3586 19.2287 53.4243 19.2024C54.094 18.9257 54.8556 18.6227 55.4071 18.3789C55.65 18.2538 55.8667 18.1615 55.9848 18.1023C57.1141 17.5489 57.1404 17.4896 57.1732 17.3974C57.206 17.3381 56.7136 17.6148 56.4444 17.7334C56.2015 17.8256 55.9848 17.7926 56.4116 17.5489C57.4161 17.0022 57.8166 16.7255 57.9939 16.6003C58.1778 16.5081 58.1777 16.3237 57.751 16.5674M45.2435 22.9243C45.1844 22.9572 45.0925 22.9835 45.0006 23.0165C44.39 23.2273 43.1425 23.5962 41.7375 23.9651C41.186 24.0902 40.7001 23.8136 41.035 23.7213C42.8602 23.2931 44.541 22.832 44.994 22.7135H45.0859C45.388 22.6212 45.4536 22.5619 45.5455 22.6212C45.5455 22.6212 45.7294 22.7135 45.2435 22.9243Z" fill="#D71618"/>
<path d="M38.3561 33.8989C37.2925 34.3271 36.2223 34.696 35.1587 35.032C32.9067 35.7368 30.6481 36.2243 28.0284 36.7118C26.6562 36.9884 25.1658 37.2322 23.5507 37.5088C16.5452 38.7604 13.6826 40.9606 13.6826 40.9606C17.9503 40.1372 21.1149 40.348 25.6845 39.5839C26.5052 39.4653 27.2997 39.2809 28.0284 39.0964C29.8865 38.6353 31.4688 38.0556 32.8148 37.5352C33.7865 37.1399 34.5481 36.8303 35.1587 36.5602C36.4061 36.0135 36.9839 35.6709 37.3516 35.4601C37.6864 35.2493 37.8703 34.9727 37.6864 35.0649C37.5354 35.1901 35.6774 36.0135 35.1915 36.165H35.1587C34.6728 36.3165 34.8567 36.165 34.7647 36.165C34.6728 36.165 34.9158 36.0728 35.1587 35.9806C35.3688 35.8883 35.5854 35.7961 35.7102 35.7632C36.0122 35.6446 36.4127 35.302 35.9859 35.4865C35.8349 35.5458 35.5001 35.6709 35.1652 35.7632C34.6466 35.9476 34.1016 36.0991 33.9769 36.1321C33.7602 36.1913 33.7339 35.9806 34.2198 35.829C34.5546 35.7105 34.8895 35.6182 35.1652 35.4931C36.9314 34.8805 37.844 34.4523 38.2117 34.2678C38.6713 34.057 38.3627 33.8989 38.3627 33.8989" fill="#D71618"/>
<path d="M48.8682 25.4011C48.6843 25.5196 48.4742 25.6185 48.2904 25.7041C47.4697 26.1652 46.6424 26.5605 45.7955 26.9557C45.5526 27.0743 45.2768 27.1994 45.001 27.3246C43.3268 28.0887 41.495 28.7936 39.394 29.4919C38.2385 29.8871 36.9845 30.2889 35.6188 30.6842C35.4678 30.7435 35.3168 30.7764 35.1592 30.8357C32.9335 31.4813 30.4648 32.1202 28.029 32.8251C24.3719 33.9252 20.6886 35.2097 17.6094 37.1069C17.6094 37.1069 20.472 36.2506 27.6941 35.2427C27.8123 35.2097 27.9042 35.2097 28.029 35.1834C30.9572 34.7552 33.3602 34.2941 35.1592 33.8725C35.8289 33.688 36.4395 33.5365 36.9254 33.385C37.5688 33.1742 38.4158 32.8976 39.394 32.5616C41.0683 31.9819 43.0773 31.1519 45.001 30.1177C45.2768 29.9925 45.5526 29.841 45.7955 29.6895C46.649 29.202 47.4434 28.6816 48.1985 28.1019C48.3232 28.0097 47.9884 27.8252 47.8308 27.9504C47.7126 28.0756 46.5834 28.6553 45.7889 29.0176C45.697 29.0768 45.5722 29.1098 45.4803 29.1691C45.2374 29.2284 45.2374 29.1691 45.2374 29.1691C45.2374 29.1691 45.4803 29.0505 45.7889 28.8661C46.2485 28.6487 46.8263 28.3127 47.253 28.069C47.4369 27.9438 47.7389 27.733 47.7389 27.733C47.7389 27.733 47.8636 27.5486 48.2904 27.2719V27.239C48.4414 27.1467 48.6581 27.0216 48.8682 26.903C49.2949 26.6263 49.8399 26.2311 50.5752 25.7107C50.7262 25.5855 51.0348 25.3154 50.9429 25.2496C50.8838 25.2166 50.2141 25.737 49.7874 26.0137C49.3606 26.3167 49.1177 26.4419 48.8747 26.5934C48.6909 26.6856 48.5399 26.8108 48.297 26.9293C48.2379 26.9886 48.1722 27.0216 48.1131 27.0809C47.5354 27.4761 46.649 27.9372 45.7955 28.3654C45.5197 28.5169 45.244 28.6421 45.001 28.7607C44.2723 29.0966 43.7208 29.3403 43.6945 29.3403C43.5697 29.3403 43.9046 29.0966 43.9046 29.0966C44.2723 28.9122 44.6334 28.7277 45.001 28.5499C45.2768 28.3983 45.5526 28.2732 45.7955 28.1217C46.7409 27.6342 47.5616 27.1467 48.2904 26.6856C48.5005 26.5605 48.6843 26.4419 48.8682 26.3167C50.7 25.1244 51.9146 24.1165 52.6171 23.4446C52.9848 23.1086 53.1949 22.8649 53.3197 22.7397C53.103 22.8913 52.8601 23.0428 52.6171 23.1679C51.3106 23.9914 50.0894 24.7291 48.8682 25.4011ZM44.7844 29.3733C44.7844 29.3733 44.9091 29.2811 44.9945 29.2481C45.0273 29.2152 45.0536 29.2152 45.0864 29.2152C45.1783 29.1559 45.2374 29.2152 45.2374 29.2152V29.2745C45.2374 29.2745 45.1192 29.3338 44.9945 29.3996C44.9616 29.3996 44.9617 29.4326 44.9354 29.4326C44.7844 29.4919 44.7516 29.4326 44.7844 29.3733Z" fill="#D71618"/>
<path d="M52.6168 21.8571C52.7678 21.7979 52.8926 21.7056 52.8926 21.7056C52.8926 21.7056 53.0436 21.6134 52.9254 21.6134C52.8663 21.6134 52.7416 21.6727 52.6234 21.7056C52.4986 21.7649 52.4067 21.8308 52.4067 21.8308C52.4067 21.8308 52.2229 22.0152 52.3148 22.0152C52.3476 21.9823 52.4986 21.923 52.6168 21.8637" fill="#D71618"/>
<path d="M55.3878 19.5647C54.9938 19.7491 54.5933 19.9007 54.5933 19.9007C54.5933 19.9007 54.4095 20.2366 54.7443 20.118C54.8953 20.0588 55.1383 19.9665 55.3812 19.8414C55.5913 19.7491 55.808 19.624 55.8999 19.5976C56.1428 19.5054 56.2347 19.2024 56.2347 19.2024C56.1428 19.2024 56.11 19.2024 55.8408 19.3539C55.6898 19.4132 55.5388 19.5054 55.3878 19.5647Z" fill="#D71618"/>
<path d="M49.2947 26.9887C49.1109 27.081 49.1699 27.081 48.8679 27.2918C48.8351 27.3247 48.776 27.3247 48.7497 27.351C48.5068 27.5355 48.3821 27.6277 48.2902 27.687C48.1982 27.7463 48.1982 27.7792 48.1982 27.7792C48.1982 27.7792 48.2311 27.8715 48.2902 27.9044C48.323 27.9044 48.3493 27.9044 48.4083 27.8715C48.4674 27.8385 48.6513 27.7199 48.8679 27.5684C49.1699 27.3247 49.5376 27.0217 49.5376 26.9558C49.5048 26.8636 49.5967 26.8043 49.2947 26.9887Z" fill="#D71618"/>
<path d="M39.8467 33.2863C39.7219 33.3456 39.5709 33.4114 39.3871 33.4707C39.0194 33.5893 38.6255 33.7474 38.6255 33.7474C38.6255 33.7474 38.4416 34.1426 38.7174 34.0241C38.8421 33.9911 39.1113 33.8725 39.3871 33.7474C39.7547 33.5959 40.1487 33.4444 40.2078 33.3521C40.2997 33.1677 40.1749 33.1677 39.8401 33.2929" fill="#D71618"/>
<path d="M165 22.7463H59.2607V23.2536H165V22.7463Z" fill="#C49D61"/>
<path d="M153.038 37.5813V35.9411C153.162 35.862 153.281 35.7368 153.445 35.6117L155.611 35.8159C155.04 36.5142 154.469 37.0082 153.891 37.2915C153.642 37.4166 153.359 37.5418 153.031 37.5813M153.038 34.8344V33.6025H154.141C154.265 33.0689 154.265 32.7396 154.141 32.4958C154.016 32.2916 153.773 32.1665 153.484 32.1665C153.32 32.1665 153.195 32.206 153.038 32.2455V30.7238C153.327 30.6382 153.569 30.6382 153.858 30.6382C154.718 30.6382 155.375 30.7633 155.743 31.0927C156.15 31.3826 156.399 31.791 156.478 32.3641C156.563 32.8977 156.439 33.6355 156.15 34.5445L156.071 34.8344H153.044H153.038ZM157.01 35.6973L159.387 35.447C159.387 35.7764 159.426 35.9806 159.551 36.1057C159.715 36.2704 159.879 36.3099 160.168 36.3099C160.496 36.3099 160.739 36.2309 160.989 36.1057C161.153 35.9806 161.238 35.862 161.317 35.6973C161.356 35.4931 161.317 35.3679 161.192 35.2428C161.067 35.1637 160.785 35.0781 160.293 34.9925C159.557 34.8278 159.025 34.6631 158.776 34.5379C158.487 34.4128 158.33 34.169 158.205 33.8397C158.08 33.5498 158.126 33.1809 158.244 32.7725C158.369 32.318 158.612 31.9095 158.94 31.5802C159.268 31.2903 159.675 31.0466 160.128 30.8819C160.575 30.7172 161.153 30.6382 161.849 30.6382C162.545 30.6382 163.037 30.6777 163.365 30.8029C163.654 30.928 163.858 31.1322 164.022 31.376C164.147 31.6658 164.225 31.9952 164.265 32.4431L161.973 32.6935C162.013 32.4892 161.973 32.3246 161.849 32.1994C161.724 32.0742 161.52 31.9952 161.277 31.9952C161.035 31.9952 160.831 32.0742 160.667 32.1599C160.503 32.285 160.424 32.4036 160.378 32.5288C160.299 32.733 160.339 32.8581 160.457 32.9372C160.581 33.0162 160.864 33.1019 161.356 33.1414C162.092 33.2666 162.623 33.3851 162.952 33.5498C163.241 33.754 163.444 34.0043 163.569 34.3271C163.648 34.617 163.608 34.9859 163.483 35.3943C163.359 35.7632 163.155 36.1321 162.827 36.501C162.499 36.8699 162.052 37.1992 161.56 37.4035C161.028 37.6077 160.371 37.7328 159.597 37.7328C158.533 37.7328 157.798 37.5681 157.423 37.1993C157.095 36.8304 156.97 36.3363 157.016 35.6776M153.038 30.7238V32.2455C152.834 32.3246 152.631 32.4892 152.42 32.6539C152.217 32.8581 152.053 33.1875 151.889 33.5959H153.038V34.8278H151.482C151.357 35.2362 151.357 35.5656 151.482 35.7698C151.606 36.0596 151.849 36.2243 152.178 36.2243C152.42 36.2243 152.67 36.1453 152.913 36.0201C152.952 35.9806 152.998 35.9806 153.038 35.9411V37.5813C152.631 37.7065 152.178 37.746 151.646 37.746C150.871 37.746 150.254 37.6208 149.886 37.3771C149.518 37.0873 149.269 36.7184 149.151 36.1453C149.026 35.6117 149.111 34.9529 149.354 34.2151C149.683 33.148 150.254 32.285 151.075 31.6263C151.646 31.1322 152.342 30.849 153.038 30.7238ZM140.307 37.5813V37.3771L142.434 30.8029H144.561L144.194 31.9095C144.686 31.4616 145.093 31.1322 145.507 30.928C145.875 30.7238 146.328 30.6382 146.774 30.6382C147.431 30.6382 147.838 30.8424 148.087 31.2969C148.291 31.7053 148.251 32.3641 147.962 33.2666L146.571 37.5813H144.279L145.467 33.8463C145.632 33.4378 145.632 33.1085 145.546 32.9438C145.467 32.7791 145.297 32.7 145.054 32.7C144.765 32.7 144.522 32.8252 144.279 33.0294C144.03 33.2731 143.787 33.7277 143.583 34.3403L142.559 37.5813H140.307ZM140.307 31.0137L140.386 30.8094H140.307V31.0137ZM140.307 29.986V28.2206H141.206L140.635 29.986H140.307ZM140.307 28.2206V29.986H138.344L138.915 28.2206H140.307ZM140.307 30.8094V31.0137L138.18 37.5879H136.335V36.2309L138.094 30.8094H140.307ZM140.307 37.3771L140.228 37.5813H140.307V37.3771ZM136.335 29.571V28.214H136.781L136.335 29.571ZM136.335 28.2206V29.5776L133.754 37.5879H131.791V36.5207L134.45 28.2272H136.335V28.2206ZM136.335 36.2309L135.882 37.5879H136.335V36.2309ZM131.791 31.4616L132.12 31.0071C132.041 30.928 131.916 30.8424 131.791 30.8029V31.4616ZM131.791 30.8094V31.4682L130.807 32.8647C130.603 32.7396 130.399 32.6605 130.235 32.6605C129.946 32.6605 129.664 32.8252 129.415 33.0689C129.047 33.4774 128.679 34.2217 128.351 35.3284L127.616 37.5879H125.364V37.4232L127.491 30.8094H129.618L129.29 31.9161C129.618 31.4221 129.946 31.0927 130.229 30.9346C130.518 30.7304 130.8 30.6448 131.128 30.6448C131.332 30.6448 131.581 30.6843 131.785 30.8094M131.791 36.5142L131.463 37.5813H131.791V36.5142ZM125.364 30.9675L125.41 30.8029H125.364V30.9675ZM125.364 29.986V28.2206H126.224L125.653 29.986H125.364ZM125.364 28.2206V29.986H123.361L123.932 28.2206H125.364ZM125.364 30.8094V30.9741L123.236 37.5879H120.945L123.112 30.8094H125.364ZM125.364 37.4166L125.285 37.5813H125.364V37.4166ZM116.316 36.0201V34.0043H117.137L117.301 30.6382L116.316 32.3246V28.8332L116.723 28.2206H119.507L119.586 37.5813H116.927L117.006 36.0201H116.31H116.316ZM116.316 28.8332V32.3246L115.292 34.0109H116.316V36.0267H114.104L113.204 37.5879H110.584L116.316 28.8398V28.8332ZM99.331 37.2124V36.1453C99.3704 36.1057 99.4098 36.1057 99.4098 36.1057C99.6987 35.9411 99.9023 35.7764 100.066 35.5722C100.231 35.3679 100.355 35.1176 100.434 34.7948L100.598 34.3864C100.231 34.5116 99.8629 34.5906 99.4952 34.7158C99.4558 34.7158 99.3704 34.7553 99.331 34.7553V33.563C99.6987 33.4839 99.9417 33.3983 100.106 33.3588C100.395 33.2797 100.677 33.1941 101.005 33.0689C101.084 32.7396 101.13 32.4958 101.045 32.3707C100.966 32.2455 100.802 32.206 100.473 32.206C100.106 32.206 99.8169 32.2455 99.574 32.4102C99.4952 32.4497 99.4098 32.4892 99.331 32.6144V30.7633H99.4558C99.8629 30.6843 100.276 30.6382 100.684 30.6382C101.38 30.6382 101.911 30.6777 102.318 30.7633C102.686 30.8424 102.975 31.0532 103.178 31.2969C103.303 31.5011 103.382 31.791 103.382 32.1203C103.382 32.4892 103.343 32.8186 103.218 33.148L102.233 36.1453C102.154 36.4746 102.069 36.7184 102.069 36.8831C102.03 37.0873 102.03 37.2915 102.069 37.5813H99.8957C99.8957 37.4166 99.8563 37.2915 99.8563 37.1729C99.8957 37.0939 99.8957 36.9687 99.9351 36.7645C99.7316 36.9292 99.528 37.0939 99.3245 37.219M106.862 28.2206H109.153L106.126 37.5813H103.835L106.862 28.2206ZM99.331 30.7633V32.6144C99.2457 32.6934 99.1275 32.8186 99.0422 32.9833L96.9149 32.7396C97.1578 32.285 97.3614 31.9622 97.6109 31.7119C97.8604 31.4682 98.1427 31.2179 98.5103 31.0532C98.7139 30.928 99.0028 30.849 99.331 30.7633ZM99.331 33.5564V34.7487C98.924 34.8739 98.6351 34.9925 98.471 35.1176C98.3068 35.2428 98.1821 35.4075 98.1033 35.6117C98.0639 35.8159 98.0639 35.9806 98.1427 36.1057C98.2215 36.2309 98.3856 36.3099 98.6351 36.3099C98.8846 36.3099 99.0881 36.2309 99.331 36.1453V37.2124C99.1669 37.2915 99.0028 37.3771 98.8386 37.4562C98.3462 37.6604 97.8538 37.746 97.322 37.746C96.5866 37.746 96.1336 37.5418 95.8513 37.1729C95.8513 37.1334 95.8119 37.1334 95.8119 37.0939V35.6578C95.976 35.2033 96.219 34.8344 96.5866 34.5116C96.9543 34.1822 97.5255 33.9385 98.2674 33.7738C98.7204 33.6947 99.0422 33.6091 99.331 33.5696M95.8053 31.2969V30.8029H95.9695L95.8053 31.2969ZM95.8053 30.8094V31.3035L95.3523 32.7H94.0851L93.3104 35.1242C93.2316 35.4141 93.1856 35.5787 93.1856 35.6973C93.225 35.8225 93.3498 35.9015 93.5139 35.9015C93.6781 35.9015 93.967 35.862 94.2887 35.7368L93.8816 37.5418C93.271 37.667 92.6932 37.746 92.2008 37.746C91.6296 37.746 91.2619 37.667 91.0518 37.5023C90.8483 37.3376 90.7235 37.1334 90.6842 36.8435V36.4351C90.7235 36.1057 90.8483 35.6578 91.0124 35.0781L91.7872 32.6935H90.9271L91.5377 30.8029H92.3978L93.2973 28.214H95.5099L94.6892 30.8029H95.7922L95.8053 30.8094ZM95.8053 35.6512C95.8053 35.6907 95.7659 35.7303 95.7659 35.7764C95.6018 36.3099 95.6018 36.7184 95.8053 37.0939V35.6578V35.6512ZM90.6907 28.2206V28.2601L90.1589 29.986H87.8281L88.3993 28.2206H90.6907ZM81.4398 37.7065V35.6512C81.5186 35.6117 81.6433 35.526 81.7681 35.4075C82.011 35.1637 82.2605 34.7487 82.4246 34.1361C82.6282 33.6025 82.6676 33.1941 82.5494 32.9438C82.4246 32.7 82.2605 32.5354 81.9782 32.5354C81.814 32.5354 81.6105 32.6144 81.4464 32.7V31.4287C81.6959 31.2245 81.9388 31.0598 82.1423 30.9346C82.5494 30.7304 82.963 30.6448 83.3701 30.6448C84.1448 30.6448 84.6372 30.9741 84.8867 31.6724C85.0903 32.3707 85.0509 33.2336 84.6832 34.2613C84.3549 35.4141 83.8231 36.2704 83.1666 36.8501C82.5953 37.3442 82.0176 37.634 81.4464 37.7131M87.5786 30.8094H89.87L87.7034 37.5879H85.412L87.5786 30.8094ZM81.4398 31.4221V32.6935C81.3151 32.7725 81.2363 32.8581 81.1115 32.9372C80.8226 33.1809 80.6191 33.6355 80.4156 34.2086C80.2514 34.7421 80.212 35.1506 80.3368 35.4009C80.4615 35.6446 80.6651 35.8093 80.9474 35.8093C81.1115 35.8093 81.2757 35.7303 81.4398 35.6446V37.6999C81.3151 37.7394 81.1969 37.7394 81.0327 37.7394C80.7045 37.7394 80.3762 37.6604 80.1332 37.5352C79.8903 37.41 79.7262 37.2058 79.562 36.916L78.5378 40.1636H76.3712V39.6695L79.2338 30.7963H81.361L81.0327 31.7844C81.1969 31.6592 81.3216 31.5407 81.4398 31.4155M76.3646 33.148C76.4893 32.8186 76.5287 32.4892 76.5287 32.1203C76.5287 31.8305 76.4893 31.5472 76.3646 31.3826V33.148ZM76.3646 31.3826V33.148L75.4257 36.1453C75.301 36.4746 75.2616 36.7184 75.2222 36.8831C75.1828 37.0873 75.2222 37.2915 75.2222 37.5813H73.0949C73.0555 37.4166 73.0555 37.2915 73.0555 37.1729C73.0555 37.0939 73.0555 36.9687 73.0949 36.7645C72.8914 36.9292 72.6879 37.0939 72.4843 37.219V36.1518C72.5237 36.1123 72.5631 36.1123 72.5631 36.1123C72.852 35.9476 73.0555 35.783 73.2197 35.5787C73.3838 35.3745 73.5086 35.1242 73.6267 34.8014L73.7515 34.393C73.3838 34.5182 73.0161 34.5972 72.6485 34.7224C72.6091 34.7224 72.5237 34.7619 72.4843 34.7619V33.5696C72.852 33.4905 73.0949 33.4049 73.2591 33.3654C73.548 33.2863 73.8303 33.2007 74.1586 33.0755C74.2833 32.7461 74.2833 32.5024 74.1979 32.3773C74.1192 32.2521 73.955 32.2126 73.6661 32.2126C73.2591 32.2126 72.9702 32.2521 72.7273 32.4168C72.6485 32.4563 72.5631 32.4958 72.4843 32.621V30.7699H72.6091C73.0161 30.6909 73.4298 30.6448 73.8762 30.6448C74.5328 30.6448 75.104 30.6843 75.4717 30.7699C75.8393 30.849 76.1676 31.0598 76.3318 31.3035C76.3318 31.343 76.3712 31.343 76.3712 31.3826M76.3646 39.6761V40.1702H76.2005L76.3646 39.6761ZM68.9126 29.8213C68.952 30.1507 68.9914 30.5196 68.9914 30.9675H68.9126V29.8213ZM72.4712 30.7633V32.6144C72.3924 32.6934 72.2677 32.8186 72.1823 32.9833L70.0945 32.7396C70.298 32.285 70.5475 31.9622 70.751 31.7119C70.9939 31.4682 71.2828 31.2179 71.6505 31.0532C71.854 30.928 72.1429 30.849 72.4712 30.7633ZM72.4712 33.5564V34.7487C72.0641 34.8739 71.7752 34.9925 71.6111 35.1176C71.447 35.2428 71.3222 35.4075 71.2828 35.6117C71.204 35.8159 71.204 35.9806 71.2828 36.1057C71.3616 36.2309 71.5257 36.3099 71.7752 36.3099C72.0247 36.3099 72.2677 36.2309 72.4712 36.1453V37.2124C72.3071 37.2915 72.1429 37.3771 71.9788 37.4562C71.4864 37.6604 70.9939 37.746 70.4621 37.746C69.7662 37.746 69.2737 37.5418 69.0308 37.1729C68.952 37.0939 68.9061 37.0082 68.9061 36.9226V35.7698C69.0702 35.2757 69.3525 34.8278 69.7268 34.4984C70.0944 34.169 70.6657 33.9253 71.447 33.7606C71.854 33.6816 72.1823 33.5959 72.4712 33.5564ZM65.9253 33.7606L67.9278 34.5379C67.5601 35.2362 67.1071 35.8093 66.6212 36.3034C66.1682 36.7974 65.6364 37.1268 65.1046 37.3705C64.5334 37.6208 63.8768 37.7394 63.1415 37.7394C62.242 37.7394 61.546 37.6143 61.093 37.2849C60.6006 36.995 60.2723 36.4615 60.1082 35.7237C59.944 34.9859 60.0294 34.0373 60.3971 32.8515C60.9289 31.3299 61.6642 30.1375 62.6491 29.2812C63.6733 28.4577 64.8157 28.0493 66.1288 28.0493C67.1925 28.0493 67.9278 28.293 68.3808 28.7476C68.6303 29.0374 68.7879 29.3668 68.9126 29.8147V30.961L66.5359 31.5341C66.5753 31.2442 66.5359 31.04 66.4965 30.8753C66.4177 30.6711 66.3324 30.5064 66.1288 30.3813C65.9647 30.2561 65.7612 30.2166 65.5182 30.2166C64.947 30.2166 64.4152 30.4603 63.9228 30.9939C63.5551 31.3628 63.2662 31.982 62.9839 32.845C62.6556 33.8726 62.5768 34.6104 62.695 34.9793C62.8592 35.3877 63.1874 35.5524 63.7193 35.5524C64.1723 35.5524 64.6187 35.3877 64.947 35.0979C65.3147 34.7685 65.643 34.3205 65.9319 33.7409M68.9126 35.8554C68.7879 36.2638 68.7879 36.6393 68.9126 36.9226V35.8554Z" fill="#D71618"/>
<path d="M84.0137 3.18827C84.2566 3.82066 84.447 4.30813 84.5455 4.54528L84.0137 4.83512V3.18168V3.18827ZM84.0137 4.94052V9.50561H87.8874L87.5985 10.5267H84.0137V12.0352H87.1127L86.8238 13.0562H84.0137V14.6109H86.3379L85.9965 15.7768H84.0137V17.3315H85.5172L85.4187 17.6213H87.4541L87.9399 15.823L89.9227 9.16965L90.4086 7.80605L89.2005 7.85216H85.4713L85.7142 7.31858C85.7602 7.26588 85.8586 7.02874 86.0031 6.68619H91.4263L92.6343 6.7323L93.2187 4.88782L92.0566 4.93393H88.7147C89.2005 4.40035 89.6798 3.91288 90.1197 3.42541C89.5354 3.18168 89.0036 2.89183 88.5243 2.50317C87.894 3.28049 87.4606 3.76796 87.2702 3.959C87.0273 4.20273 86.7844 4.44646 86.4955 4.6902L86.9288 4.93393H84.0268L84.0137 4.94052ZM77.8683 4.88782L79.3653 4.93393H82.4117C82.3657 4.73631 82.3132 4.59139 82.2673 4.49916C82.2673 4.40035 82.1228 4.01169 81.9258 3.432C82.7006 3.08945 83.3309 2.79961 83.8102 2.50976C83.8561 2.7535 83.9546 2.99723 84.0071 3.18827V4.84171L83.8102 4.94052H84.0071V9.50561H80.4749L80.186 10.5267H84.0071V12.0352H79.7001L79.4112 13.0562H84.0071V14.6109H78.9254L78.584 15.7768H84.0071V17.3315H78.1506L78.0521 17.674H76.0693L76.6011 16.0206L78.7809 8.9325L79.0698 7.81264L80.186 7.85875H83.3309C83.5213 7.5689 83.6198 7.37128 83.6198 7.32517L83.9087 6.69278H78.4855L77.3234 6.73889L77.8552 4.89441L77.8683 4.88782Z" fill="#D71618"/>
<path d="M103.907 4.743C104.006 4.59808 104.15 4.35435 104.295 4.15672C104.485 4.30165 104.636 4.44657 104.728 4.49927L105.503 5.08555L105.746 5.28317C105.017 5.96168 104.439 6.59407 103.907 7.12765V4.74959V4.743ZM103.907 7.75346L104.728 7.70735L104.196 9.55183H103.907V7.75346ZM103.907 17.6148H104.098L104.682 15.4805L107.729 5.32929H109.179L106.954 9.60453L107.486 10.0393C107.774 10.283 107.971 10.5729 108.07 11.0603C108.214 11.4951 108.214 12.0287 108.017 12.5689C107.873 13.1024 107.584 13.4911 107.197 13.6887C106.763 13.9325 106.179 13.9786 105.404 13.8864L105.503 14.4726C105.601 14.8613 105.647 15.3949 105.601 16.0273C106.763 15.7835 107.584 15.4937 108.07 15.1511C108.556 14.8086 108.943 14.4726 109.278 14.0313C109.619 13.6426 109.856 13.1551 110.053 12.5755C110.197 11.9958 110.243 11.4556 110.197 11.0208C110.151 10.5334 110.007 10.1974 109.81 9.85485C109.567 9.565 109.331 9.22245 108.989 8.8338L111.944 3.63632H107.971L106.278 3.5902L105.844 5.09872L103.907 11.6532V17.628V17.6148ZM102.266 2.85241H102.41L102.266 3.38599V2.85241ZM102.266 4.64419L103.231 4.59808L102.844 6.00779C103.034 5.81675 103.185 5.57302 103.376 5.3754C103.52 5.23047 103.664 5.03285 103.907 4.743V7.12107C103.618 7.3648 103.421 7.55584 103.179 7.75346H103.907V9.55183L102.791 9.50571H102.259V6.59407C102.305 6.54137 102.358 6.44915 102.45 6.39645H102.259V4.65078L102.266 4.64419ZM102.266 10.5729H103.284L102.653 12.4701L102.266 13.8798V10.5795V10.5729ZM103.907 11.64L102.745 15.4278L102.259 16.9824V17.6148H103.907V11.64ZM101.636 2.85241H102.266V3.38599L101.977 4.20942L101.833 4.64419H102.266V6.38986H101.636V2.84583V2.85241ZM102.266 9.50571H101.636V7.12765C101.826 7.02884 102.023 6.83781 102.266 6.59407V9.50571ZM101.636 10.619L102.266 10.5729V13.8732L101.833 15.2368L101.642 15.8692V10.6256L101.636 10.619ZM102.266 16.9824V17.6148H102.023L102.266 16.9824ZM98.7271 7.75346H98.9175L99.3048 6.39645H98.7271V4.65078H99.8367L99.9811 4.26212L100.323 2.85241H101.629V6.39645H101.288L100.854 7.80616C101.097 7.66123 101.242 7.51631 101.288 7.46361C101.34 7.4175 101.485 7.31869 101.629 7.12107V9.49913H101.143L99.8367 10.619H101.629V15.8626L101.242 17.3184H99.3048L99.4033 16.9824H98.7271V15.3817H99.8892L100.132 14.5583H98.7271V13.0036H100.618L100.861 12.2263H98.7336V7.76005L98.7271 7.75346ZM94.3281 11.7389C95.1488 11.5478 95.8776 11.2053 96.5539 10.8166C97.2301 10.4741 97.8604 10.0393 98.5367 9.50571H96.8887L95.1948 9.55183L95.7791 7.70735L97.4271 7.75346H98.7336V12.2197H98.3003L98.0574 12.997H98.7336V14.5517H97.5715L97.3286 15.3751H98.7336V16.9759H96.8493L96.7508 17.3118H94.814L95.4443 15.4212L96.219 12.7533L94.7155 13.5306C94.6695 13.0432 94.5185 12.4174 94.3281 11.7323M98.7271 6.39645H98.4841L97.0331 6.44256L97.565 4.59808L98.7271 4.64419V6.38986V6.39645Z" fill="#D71618"/>
<path d="M127.576 12.4634C127.142 13.9719 126.899 14.9403 126.755 15.329C126.611 15.8625 126.368 16.0075 126.079 16.0075C125.934 16.0075 125.836 15.9087 125.98 15.4212L128.259 7.64802H123.078L122.251 10.4674C122.205 10.5662 122.205 10.6585 122.153 10.7573V15.2236C122.829 14.0115 123.413 12.6018 123.892 11.001L124.037 10.4674L124.424 9.20265H125.928L123.991 15.9021C123.65 17.068 124.181 17.7004 125.586 17.7004C126.991 17.7004 127.911 17.068 128.245 15.8098L129.119 12.8982L127.569 12.3185V12.4634H127.576ZM122.159 6.48863V5.81013L122.501 4.74296H125.888C125.934 4.11057 125.836 3.53088 125.744 2.89848H127.681C127.779 3.53088 127.871 4.11057 127.825 4.74296H131.312L130.78 6.48863H122.166H122.159ZM122.159 4.84178L122.35 4.26208H122.159V4.84178ZM122.159 10.7639C121.726 12.2724 121.194 13.5306 120.564 14.5516V17.4633C121.148 16.7848 121.68 16.0536 122.159 15.2301V10.7639ZM122.159 4.25549V4.83519L121.818 5.85624L120.557 9.98656V4.30819H121.476L122.153 4.26208L122.159 4.25549ZM122.159 5.81013L121.962 6.48863H122.159V5.81013ZM120.557 3.62969V2.75356C120.754 2.75356 120.899 2.79967 121.089 2.79967C120.899 3.08952 120.748 3.37937 120.557 3.6231M120.557 14.5516C120.222 15.1313 119.835 15.6188 119.448 16.0602V17.3711L120.078 18.0035L120.176 17.9046C120.321 17.7597 120.419 17.6148 120.564 17.4633V14.5516H120.557ZM120.557 2.75356V3.62969C120.413 3.87342 120.268 4.06446 120.17 4.30819H120.557V9.98656L119.448 13.6755V8.08938L120.124 5.85624H119.448V2.50983C119.789 2.60864 120.176 2.65475 120.557 2.75356ZM119.448 16.0602C119.257 16.3039 119.014 16.4949 118.771 16.6926L119.448 17.3711V16.0602ZM119.448 2.50983V5.86283H117.997L117.708 6.83118C118.239 6.73237 118.679 6.54133 119.113 6.39641C119.159 6.73895 119.159 6.98269 119.211 7.17372C119.211 7.36476 119.257 7.85223 119.257 8.58343C118.771 8.68225 118.193 8.87328 117.517 9.16313C117.563 8.9655 117.563 8.72836 117.616 8.48462V7.99715L117.57 7.41746L116.939 9.36075H119.067L119.454 8.09596V13.6821L118.489 16.8375C118.489 16.9363 118.344 17.0812 118.2 17.2788C118.003 17.4699 117.182 17.6148 115.685 17.7663C115.731 17.5753 115.784 17.3315 115.784 17.1339C115.784 16.9363 115.784 16.7453 115.738 16.5542L115.639 15.8757C115.882 15.9218 116.125 15.9218 116.316 15.9218C116.703 15.9218 116.946 15.8757 117.045 15.7769C117.143 15.6781 117.189 15.5859 117.241 15.3882L118.594 10.922H116.513L116.27 11.6466C116.802 11.5478 117.287 11.4029 117.675 11.2118C117.721 11.6466 117.721 11.9891 117.721 12.279C117.721 12.5227 117.721 13.1024 117.622 13.8797C117.136 14.0246 116.848 14.1235 116.703 14.1696L116.027 14.4594C116.171 13.5833 116.217 13.0497 116.171 12.806L116.125 12.0287C116.079 12.2263 115.981 12.5161 115.882 12.8521C115.784 13.1946 115.594 13.6294 115.397 14.163C115.154 14.7427 114.865 15.2763 114.523 15.9087C114.182 16.4949 113.703 17.1734 113.072 17.8519C112.928 17.6543 112.829 17.4633 112.685 17.3184C112.586 17.1734 112.298 16.9297 111.864 16.5872C112.061 16.4422 112.206 16.2446 112.396 16.0536C112.586 15.856 112.829 15.52 113.125 15.0852C113.414 14.6439 113.657 14.1103 113.9 13.4845C114.143 12.8982 114.333 12.2724 114.477 11.7388L114.72 10.9154L113.755 10.9615L114.241 9.30805L115.206 9.36075L116.27 5.86283L116.703 4.26208L117.53 4.30819H118.305C118.502 3.91954 118.647 3.6758 118.647 3.62969L119.178 2.4176C119.277 2.46371 119.369 2.46371 119.467 2.51641" fill="#D71618"/>
<path d="M145.533 4.59798L150.181 4.55186L149.065 8.19471H147.037L147.667 6.35023H145.54V4.60456L145.533 4.59798ZM145.533 17.2261V15.4804L146.984 15.3816L146.406 17.2788L145.533 17.2327V17.2261ZM145.533 12.5622V11.4423H145.874L145.533 12.5622ZM145.533 10.5201V9.06425H148.776L148.343 10.5201H145.533ZM137.595 4.59798H143.255H141.751C141.797 4.11051 141.751 3.67574 141.607 3.24097H143.544C143.642 3.67574 143.741 4.11709 143.688 4.59798H145.526V6.34364H137.589V4.59798H137.595ZM145.533 9.06425V10.5201H144.174C143.353 10.5201 142.769 10.4213 142.526 10.0853C142.237 9.79546 142.237 9.20918 142.473 8.43186L142.907 6.92334H144.647L144.259 8.33305C144.115 8.82052 144.305 9.06425 144.837 9.06425H145.513H145.533ZM145.533 11.4423V12.5622L145.343 13.1946H141.082L140.359 15.4738H145.54V17.2195H137.602V15.4738H138.377L139.053 13.1946H137.602V11.4489H145.54L145.533 11.4423ZM137.595 9.98649V8.43186C138.468 7.99709 139.243 7.45692 139.821 6.83111L141.324 7.3647C140.162 8.53067 138.954 9.3541 137.595 9.98649ZM133.918 8.14201L134.982 4.59798H137.595V6.34364H136.532L136.046 8.14201H133.918ZM137.595 8.43186V9.98649C136.479 10.5201 135.271 10.8626 134.063 11.0537L133.676 9.64395C135.127 9.40021 136.433 8.96544 137.595 8.43186ZM137.595 11.4423V13.188H134.693L135.225 11.3896L136.919 11.4357H137.595V11.4423ZM137.595 15.4738V17.2195H132.901L131.108 17.2656L131.686 15.3684L133.433 15.4672H137.595V15.4738Z" fill="#D71618"/>
</g>
<defs>
<clipPath id="clip0_597_3584">
<rect width="165" height="46" fill="white"/>
</clipPath>
</defs>
</svg>
