<svg width="68" height="46" viewBox="0 0 68 46" fill="none" xmlns="http://www.w3.org/2000/svg">
<g clip-path="url(#clip0_583_3419)">
<path d="M31.2419 12.1617C31.1615 12.1684 31.0678 12.0545 31.0276 11.9942C31.0142 11.9808 30.9674 11.887 30.9807 11.8736C30.9941 11.8602 31.0879 11.887 31.1147 11.9071C31.1749 11.954 31.2285 12.021 31.2553 12.1416C31.2553 12.155 31.2419 12.1617 31.2352 12.1617M29.2466 11.0628C29.193 11.0829 29.0591 10.9288 29.0189 10.8618C28.9453 10.7546 28.8783 10.6407 28.798 10.5402C28.731 10.4397 28.6507 10.3794 28.6306 10.2185C28.6306 10.1984 28.6172 10.1448 28.6306 10.1448C28.7043 10.1448 28.7779 10.2855 28.8181 10.3391C28.8449 10.3794 28.8783 10.4129 28.9051 10.4531C28.9386 10.5134 28.9587 10.5804 28.9922 10.634C29.039 10.701 29.0993 10.7613 29.1462 10.8283C29.1729 10.8618 29.2064 10.8953 29.2265 10.9422C29.2399 10.969 29.26 11.0561 29.2399 11.0695M28.6775 11.036C28.6373 11.036 28.6172 11.0025 28.5904 10.9824C28.5235 10.9288 28.4632 10.8484 28.4632 10.7278C28.4632 10.7144 28.4632 10.7077 28.4766 10.7077C28.5637 10.7077 28.6507 10.835 28.6842 10.8953C28.6909 10.9154 28.711 10.9623 28.711 10.9958C28.711 11.0159 28.7043 11.0293 28.6909 11.0293M26.7826 11.418C26.7826 11.418 26.7759 11.4381 26.7559 11.4381C26.6688 11.4381 26.642 11.304 26.6019 11.237C26.5684 11.1901 26.5416 11.1298 26.5081 11.0829C26.4813 11.0427 26.4546 11.0092 26.4345 10.969C26.4077 10.9154 26.401 10.8618 26.3675 10.8149C26.3541 10.7881 26.3206 10.768 26.3073 10.7412C26.2604 10.6742 26.2135 10.6072 26.18 10.5268C26.1733 10.4933 26.1666 10.4665 26.1599 10.433C26.1466 10.3861 26.1198 10.3257 26.1064 10.2721C26.1064 10.2453 26.093 10.1917 26.1064 10.1716C26.1064 10.1649 26.1064 10.1582 26.1198 10.1582C26.1867 10.1716 26.2537 10.3391 26.2872 10.3995C26.3273 10.4665 26.3809 10.5201 26.4211 10.5871C26.4479 10.6541 26.4546 10.7278 26.488 10.7881C26.5148 10.835 26.555 10.8685 26.5818 10.9154C26.6219 10.969 26.642 11.0494 26.6755 11.1097C26.7023 11.1834 26.7559 11.237 26.7826 11.304C26.796 11.3375 26.8027 11.3844 26.7893 11.418M26.4278 8.8315C26.4278 8.8315 26.3943 8.76449 26.3809 8.73099C26.3675 8.69078 26.3675 8.65728 26.3474 8.62378C26.2939 8.50317 26.2336 8.36915 26.18 8.25524C26.1599 8.20834 26.1265 8.11453 26.1466 8.05422C26.1466 8.04752 26.1666 8.05422 26.1733 8.05422C26.1934 8.07433 26.2068 8.08103 26.2202 8.10113C26.2336 8.11453 26.2336 8.13463 26.247 8.15473C26.2738 8.19494 26.3073 8.23514 26.3273 8.28204C26.3742 8.38255 26.3809 8.48307 26.4278 8.58357C26.4546 8.64388 26.5014 8.69749 26.5349 8.75779C26.5483 8.79129 26.555 8.8248 26.5684 8.865C26.5751 8.8918 26.5684 8.92531 26.5751 8.95211C26.5751 8.98561 26.5751 9.00572 26.5617 9.00572C26.4813 9.00572 26.4546 8.89851 26.4211 8.8382M44.4589 16.8254C44.3518 16.4367 43.2202 16.6043 42.2895 16.5172C41.4459 16.4434 40.3545 16.2893 39.0489 15.8337C37.8303 15.4048 36.6452 14.9157 35.6141 14.3662C35.6141 14.3662 35.1922 14.1451 35.1454 14.1183C35.065 14.0647 34.9981 14.0312 34.9043 13.9776C34.8575 13.9441 34.7771 13.8972 34.7236 13.8771C34.6499 13.8436 34.603 13.8034 34.5361 13.7699C34.4758 13.7297 34.3821 13.6895 34.3218 13.6493C34.2214 13.589 34.1678 13.5488 34.0741 13.4818C34.0205 13.4416 33.9937 13.4281 33.9201 13.3879C33.8732 13.3611 33.7996 13.3142 33.7527 13.2874C33.6724 13.2338 33.6188 13.1869 33.5384 13.1333C33.4849 13.0931 33.4514 13.073 33.3911 13.0328C33.3309 12.9993 33.2706 12.9524 33.2171 12.9122C33.1903 12.8921 33.1501 12.8653 33.1233 12.8385C33.0631 12.7782 33.0028 12.7246 32.9358 12.6777C32.8823 12.6308 32.822 12.5772 32.7618 12.537C32.7283 12.5102 32.6613 12.4566 32.6278 12.4298C32.5341 12.3627 32.4805 12.3158 32.3868 12.2488C32.3265 12.2019 32.2797 12.1416 32.2194 12.0947C32.1525 12.0478 32.0922 11.9875 32.0186 11.9473C31.9784 11.9138 31.9248 11.8736 31.8913 11.8334C31.8445 11.7798 31.8043 11.7463 31.7574 11.6927C31.724 11.6525 31.657 11.6123 31.6235 11.5721C31.5633 11.4984 31.4829 11.4247 31.4093 11.3643C31.3624 11.3174 31.349 11.2973 31.3289 11.2772C31.3155 11.2571 31.2954 11.237 31.262 11.2035L31.195 11.1365C31.195 11.1365 31.1615 11.103 31.108 11.0561C31.0946 11.0427 31.0611 11.0025 31.0343 10.9623C31.0142 10.9355 30.9874 10.902 30.9807 10.8886C30.9339 10.835 30.9004 10.8082 30.8736 10.7747C30.8535 10.7479 30.8267 10.7211 30.7933 10.6943C30.7732 10.6742 30.7598 10.6541 30.7464 10.6273C30.733 10.6072 30.7196 10.5804 30.6995 10.567C30.6727 10.5335 30.6527 10.5469 30.646 10.5536C30.6326 10.567 30.6259 10.5938 30.646 10.634C30.6661 10.6809 30.7062 10.7278 30.7263 10.7546C30.7263 10.7546 30.733 10.768 30.7397 10.768C30.7464 10.7814 30.7531 10.7948 30.7598 10.8149C30.7732 10.835 30.7866 10.8551 30.8 10.8819C30.8401 10.9288 30.8803 10.9623 30.9071 11.0025L30.9473 11.0427C30.9473 11.0427 30.9941 11.0963 31.0075 11.1231C31.0276 11.1566 31.0477 11.1834 31.0745 11.2169C31.0879 11.2236 31.0946 11.237 31.108 11.2571C31.1147 11.2705 31.128 11.2906 31.1414 11.304C31.1615 11.3241 31.1816 11.3442 31.2017 11.3643C31.2352 11.3978 31.2753 11.4314 31.3021 11.4649C31.3289 11.485 31.3557 11.5185 31.3825 11.5453C31.4494 11.6257 31.5231 11.7061 31.5833 11.7865C31.6168 11.8334 31.6838 11.8669 31.724 11.8937C31.7775 11.9272 31.8043 11.9808 31.8445 12.0277C31.8713 12.0612 31.9315 12.1148 31.9583 12.1483C32.0252 12.2354 32.0788 12.289 32.1659 12.3493C32.2194 12.3895 32.2596 12.423 32.3065 12.4834C32.3332 12.5169 32.4069 12.5906 32.4404 12.6241C32.514 12.7179 32.5475 12.8117 32.5341 12.8117C32.4805 12.8251 32.36 12.7112 32.2864 12.671C32.2261 12.6308 32.2127 12.6174 32.1592 12.5705C32.1458 12.5571 32.052 12.4901 32.0253 12.4566C31.9985 12.4298 31.9315 12.3627 31.9114 12.3359C31.811 12.2019 31.7708 12.1952 31.6503 12.0813C31.5633 11.9942 31.4561 11.9205 31.3691 11.8401C31.3423 11.82 31.3155 11.7865 31.2954 11.7597C31.2687 11.7329 31.2352 11.7061 31.2084 11.6793C31.1682 11.6257 31.1147 11.5319 31.0678 11.4917C31.0142 11.4515 30.9807 11.4247 30.9339 11.3777C30.9138 11.371 30.9004 11.3442 30.8803 11.3308C30.8535 11.3174 30.8267 11.2906 30.8067 11.2638C30.7464 11.1968 30.6928 11.1164 30.6326 11.0427C30.6058 11.0025 30.5656 10.9757 30.5388 10.9422C30.4786 10.8618 30.4317 10.7814 30.3781 10.701C30.2978 10.5938 30.184 10.5201 30.1036 10.4129C30.03 10.3056 29.9764 10.1783 29.9028 10.0644C29.8693 10.0108 29.8224 9.97731 29.7822 9.93041C29.7622 9.9036 29.7488 9.8701 29.7287 9.8366C29.6885 9.77629 29.6416 9.71599 29.6015 9.65568C29.5479 9.58197 29.5144 9.49486 29.4609 9.41446C29.4542 9.40105 29.4341 9.35415 29.4073 9.30725C29.3738 9.26704 29.3403 9.22014 29.3069 9.15983C29.2734 9.10623 29.2533 9.06602 29.2265 9.02582C29.1997 8.98561 29.1796 8.94541 29.1596 8.91861C29.1462 8.89181 29.106 8.8382 29.0926 8.8181C29.039 8.74439 29.0323 8.71089 28.9788 8.63718C28.9453 8.59698 28.9118 8.56347 28.8917 8.57687C28.8716 8.59028 28.8783 8.61708 28.885 8.63718C28.9051 8.69749 28.9051 8.69078 28.9319 8.73099C28.9721 8.8047 28.9855 8.8382 29.0323 8.90521C29.0524 8.93871 29.0859 9.01242 29.1127 9.05262C29.1395 9.09282 29.1663 9.13973 29.1863 9.17323C29.2064 9.21344 29.2332 9.30054 29.2667 9.34075C29.2868 9.36755 29.3202 9.42786 29.3336 9.46806C29.3805 9.54847 29.4274 9.61548 29.4742 9.68248C29.501 9.73609 29.5345 9.79639 29.5613 9.8433C29.6215 9.93041 29.6885 10.0108 29.7488 10.0979L29.8492 10.2855C29.8827 10.3391 29.9295 10.3793 29.963 10.433C30.0032 10.4933 30.03 10.5603 30.0701 10.6206C30.0969 10.6742 30.1438 10.7144 30.1773 10.768C30.2375 10.8484 30.2844 10.9288 30.3447 11.0092C30.3781 11.0561 30.4183 11.0896 30.4518 11.1298C30.492 11.1901 30.5321 11.2571 30.579 11.3107C30.6326 11.3643 30.646 11.3911 30.6928 11.4381C30.7598 11.5185 30.9138 11.7396 30.887 11.7396C30.7933 11.753 30.6192 11.552 30.5388 11.4783C30.4853 11.418 30.4183 11.3777 30.3781 11.3241C30.3179 11.2437 30.2777 11.1499 30.2175 11.0762C30.1974 11.0494 30.1572 11.0226 30.1371 10.9958C30.0969 10.9422 30.0568 10.8886 30.0099 10.8417C29.9898 10.8216 29.9697 10.8082 29.9496 10.7881C29.876 10.6943 29.8157 10.5938 29.7421 10.4933C29.7153 10.4531 29.6751 10.4196 29.6483 10.3794C29.6282 10.3525 29.6149 10.319 29.5881 10.2855C29.5613 10.2386 29.5211 10.1984 29.4943 10.1515C29.4742 10.118 29.4609 10.0845 29.4341 10.0577C29.4006 9.99741 29.347 9.95051 29.3069 9.8902C29.2801 9.8433 29.2734 9.78299 29.2399 9.72939C29.1596 9.60878 29.0725 9.48816 28.9922 9.36085C28.9721 9.32735 28.9654 9.29384 28.9453 9.26034C28.885 9.15983 28.8248 9.05932 28.7578 8.95881C28.7377 8.92531 28.7243 8.8784 28.6976 8.8449C28.6708 8.798 28.6239 8.76449 28.5971 8.71759C28.5703 8.68408 28.5637 8.65058 28.5436 8.61038C28.5235 8.55677 28.49 8.50317 28.4632 8.46296C28.4498 8.42946 28.4364 8.39596 28.4163 8.36915C28.3427 8.25524 28.2824 8.12793 28.2222 7.99392C28.1887 7.92691 28.1418 7.8666 28.1084 7.7929C28.0749 7.71919 28.0347 7.63878 28.0012 7.56507C27.9811 7.51817 27.9611 7.46456 27.9477 7.41766C27.9075 7.33725 27.8539 7.27025 27.8138 7.18314C27.787 7.12953 27.7736 7.07593 27.7535 7.02902C27.7401 7.00222 27.7133 6.97542 27.6932 6.98882C27.6731 7.00222 27.6731 7.02232 27.6932 7.06923C27.7133 7.15634 27.7602 7.25014 27.7803 7.29705C27.8271 7.39086 27.8405 7.49137 27.8874 7.58518C27.9075 7.63878 27.9477 7.68569 27.9677 7.73929L28.0883 8.00732C28.1084 8.05422 28.1284 8.10783 28.1619 8.14803C28.1753 8.17483 28.1954 8.20834 28.2088 8.22844C28.2356 8.29545 28.2423 8.35575 28.269 8.41606C28.3025 8.47636 28.3494 8.52997 28.3695 8.59028C28.5168 8.8918 28.6641 9.18663 28.8382 9.46136C28.885 9.53507 28.9118 9.62888 28.9587 9.70928C29.0123 9.78969 29.0792 9.8433 29.1328 9.92371C29.1729 9.99071 29.1863 10.0778 29.2198 10.1448C29.2801 10.2453 29.3537 10.3391 29.414 10.4263C29.4274 10.4531 29.4341 10.4866 29.4542 10.5067C29.4742 10.5469 29.5077 10.5871 29.5345 10.6206C29.568 10.6742 29.5814 10.7278 29.6149 10.7747C29.655 10.8283 29.7019 10.8685 29.7354 10.9154C29.7822 10.9824 29.8157 11.0561 29.8626 11.1164C29.8961 11.1633 29.9429 11.1901 29.9764 11.237C30.03 11.304 30.2175 11.5453 30.271 11.619C30.3514 11.7195 30.492 11.8736 30.5656 12.0076C30.5857 12.0545 30.6594 12.1483 30.6393 12.1684C30.5991 12.1952 30.4183 12.0009 30.3915 11.9674C30.3179 11.8937 30.2509 11.7932 30.184 11.7128C30.1639 11.6927 29.9898 11.5252 29.9764 11.5051C29.963 11.485 29.9429 11.4582 29.9295 11.4314C29.876 11.3643 29.8492 11.2772 29.7956 11.2035C29.7755 11.1767 29.7421 11.1566 29.722 11.1298C29.6818 11.0762 29.655 11.0159 29.6149 10.9623C29.5546 10.8819 29.4742 10.8082 29.414 10.7211C29.3403 10.634 29.2935 10.5201 29.2265 10.4263C29.193 10.3794 29.1529 10.3458 29.1194 10.2922C29.0993 10.2721 29.0993 10.2453 29.0859 10.2252C29.0591 10.1917 29.0256 10.1448 29.0123 10.1046C28.9922 10.0644 28.9788 10.0309 28.9587 9.99741C28.8917 9.8835 28.8181 9.76959 28.7444 9.65568C28.711 9.60877 28.6909 9.54847 28.6641 9.50156C28.6105 9.42116 28.5369 9.34745 28.49 9.26034C28.423 9.15983 28.3896 9.04592 28.3293 8.94541C28.2891 8.8784 28.2356 8.8181 28.1954 8.75779C28.1485 8.68408 28.1284 8.60368 28.0883 8.52997C28.0481 8.46296 28.0012 8.40266 27.9677 8.33565C27.9343 8.26194 27.9142 8.19494 27.8807 8.12123C27.8606 8.08103 27.8338 8.04082 27.8138 8.00062C27.7937 7.95371 27.787 7.90011 27.7602 7.8532C27.6999 7.71919 27.6062 7.58518 27.5392 7.45116C27.4924 7.35065 27.4522 7.25014 27.412 7.14963C27.3919 7.09603 27.3852 7.03572 27.3585 6.98882C27.3049 6.86821 27.2312 6.73419 27.1777 6.60688C27.1576 6.53987 27.1308 6.47287 27.1107 6.41256C27.1107 6.39246 27.104 6.37236 27.0973 6.35226C27.0705 6.29195 27.0371 6.23835 27.017 6.17804C26.9902 6.11103 26.9701 6.04403 26.95 5.97032C26.863 5.7492 26.7826 5.50127 26.6956 5.27345C26.6889 5.23325 26.6822 5.17964 26.6688 5.13944C26.6286 5.01883 26.5818 4.89821 26.5416 4.7843C26.5148 4.724 26.4612 4.7441 26.4746 4.80441C26.488 4.88481 26.5014 4.90491 26.5148 4.97192C26.5215 5.00542 26.5282 5.03893 26.5349 5.06573C26.5416 5.10593 26.5684 5.14614 26.5751 5.18634C26.5952 5.26005 26.6019 5.32706 26.6219 5.39406C26.6554 5.48787 26.6889 5.58168 26.7224 5.67549C26.7291 5.72239 26.7425 5.7693 26.7492 5.8229C26.7692 5.86981 26.7826 5.91671 26.796 5.95692C26.8429 6.07753 26.8898 6.19144 26.9299 6.31205C26.9433 6.37906 26.9634 6.44607 26.9835 6.51977C27.0036 6.55998 27.0304 6.59348 27.0438 6.63368C27.0638 6.66049 27.0638 6.69399 27.0772 6.73419C27.1107 6.8079 27.1375 6.88831 27.171 6.96202C27.1978 7.02232 27.2379 7.08933 27.2647 7.15634C27.2781 7.18314 27.2781 7.21664 27.2848 7.24344C27.3585 7.44446 27.4388 7.65888 27.5258 7.8465C27.5459 7.89341 27.5526 7.94031 27.5727 7.99392C27.5928 8.03412 27.6196 8.07432 27.633 8.11453C27.6397 8.14133 27.6531 8.16813 27.6598 8.19494C27.6865 8.24854 27.7267 8.29545 27.7602 8.34905C27.8338 8.50317 27.9008 8.65728 27.9945 8.79129C28.0816 8.91191 28.1217 9.07942 28.182 9.22684C28.2155 9.29384 28.2557 9.35415 28.2958 9.41446C28.3159 9.44796 28.3293 9.48816 28.3427 9.51497C28.3829 9.58867 28.403 9.65568 28.4632 9.72269C28.5034 9.78299 28.4967 9.79639 28.5302 9.8701C28.5369 9.8902 28.577 10.0376 28.5703 10.0376C28.557 10.0443 28.4833 10.0041 28.4632 9.97061C28.4297 9.93711 28.3762 9.8902 28.3427 9.80979C28.3226 9.76289 28.2891 9.69588 28.269 9.66238C28.2222 9.56187 28.1418 9.48146 28.0883 9.39435C28.0548 9.34745 28.0347 9.28044 28.0079 9.22684C27.9611 9.12633 27.9075 9.01912 27.8539 8.91191C27.8338 8.8717 27.8004 8.8315 27.7736 8.78459C27.7468 8.74439 27.7334 8.69749 27.7066 8.65728C27.6531 8.57017 27.5861 8.46966 27.5392 8.36915C27.5058 8.29545 27.4857 8.22174 27.4522 8.15473C27.4455 8.13463 27.4254 8.10783 27.412 8.08773C27.3919 8.05422 27.3785 8.01402 27.3585 7.97381C27.3317 7.92021 27.2982 7.8666 27.2714 7.8063C27.2178 7.69239 27.1911 7.57848 27.1375 7.47127C27.1107 7.41766 27.0705 7.37076 27.0505 7.32385C27.017 7.24344 27.0103 7.14963 26.9701 7.06253C26.8764 6.8481 26.7692 6.62028 26.6822 6.39246C26.6688 6.35226 26.6688 6.31205 26.6554 6.27185C26.6219 6.17134 26.5751 6.07753 26.5349 5.98372C26.5215 5.93682 26.5148 5.90331 26.5014 5.85641C26.4746 5.7894 26.4412 5.71569 26.4211 5.64869C26.4144 5.62859 26.4144 5.60178 26.401 5.57498C26.3742 5.51467 26.3541 5.44097 26.3273 5.37396C26.3139 5.34046 26.2872 5.30695 26.2738 5.26675C26.247 5.19974 26.2537 5.11934 26.2336 5.05233C26.2001 4.95852 26.1599 4.85801 26.1265 4.7709C26.1131 4.7173 26.1064 4.66369 26.0863 4.61009C26.0662 4.54978 26.0394 4.47607 26.0193 4.42247C25.9926 4.35546 25.9993 4.29516 25.9725 4.22145C25.9591 4.16784 25.939 4.11424 25.9189 4.07403C25.8854 3.98022 25.872 3.88642 25.8453 3.79931C25.8453 3.78591 25.8386 3.7725 25.8319 3.7524C25.8252 3.7256 25.8051 3.7055 25.785 3.7122C25.7582 3.7189 25.7582 3.7591 25.7582 3.7792C25.7582 3.83951 25.7917 3.89982 25.8118 3.96012C25.8319 4.01373 25.8453 4.07403 25.8586 4.12764C25.8653 4.16784 25.8586 4.20135 25.872 4.24155C25.8854 4.29516 25.9055 4.34206 25.9189 4.39567C25.9323 4.44257 25.9256 4.49617 25.939 4.53638C25.9725 4.65029 26.006 4.7776 26.0461 4.87811C26.0595 4.93172 26.0662 4.99872 26.0796 5.04563C26.0997 5.10593 26.1198 5.16624 26.1399 5.21985C26.1599 5.27345 26.1599 5.31365 26.18 5.35386C26.2001 5.40746 26.2269 5.45437 26.247 5.50797C26.2671 5.57498 26.2671 5.64199 26.2872 5.70899C26.3273 5.8162 26.3742 5.91671 26.4144 6.02392C26.4278 6.05743 26.4278 6.09763 26.4412 6.13784C26.4746 6.22494 26.4947 6.31875 26.5282 6.41256C26.5751 6.53317 26.6353 6.66049 26.6755 6.7878C26.7224 6.90841 26.7291 7.05583 26.7826 7.16974C26.8094 7.23004 26.863 7.26355 26.8898 7.31715C26.9099 7.35735 26.9032 7.39086 26.9165 7.43776C26.9299 7.48467 26.95 7.53157 26.9701 7.57178C26.9835 7.61198 26.9902 7.65218 27.0036 7.69239C27.0237 7.73929 27.0572 7.7862 27.0772 7.8264C27.1107 7.90011 27.1308 7.98052 27.171 8.04082C27.1978 8.08773 27.2446 8.13463 27.2714 8.19494C27.2982 8.25524 27.3116 8.32225 27.3317 8.38256C27.3718 8.47636 27.4254 8.56347 27.4589 8.66398C27.4924 8.75109 27.5058 8.8449 27.5459 8.91861C27.5861 8.99902 27.6397 9.06602 27.6865 9.14643C27.7133 9.20674 27.7334 9.26034 27.7602 9.32065C27.7803 9.36085 27.8204 9.40775 27.8539 9.45466C27.8807 9.50826 27.9209 9.57527 27.941 9.62888C27.9611 9.67578 27.9677 9.71599 27.9945 9.75619C28.0347 9.8165 28.0615 9.8634 28.1017 9.92371C28.1351 9.97731 28.1753 10.0443 28.1954 10.1046C28.2155 10.1582 28.2356 10.2051 28.2624 10.2453C28.2958 10.2855 28.3293 10.3257 28.3561 10.3659C28.3829 10.4129 28.4163 10.5603 28.403 10.5603C28.3762 10.5737 28.2891 10.4866 28.2624 10.4598C28.1954 10.3726 28.1552 10.2587 28.095 10.1716C28.028 10.0711 27.9811 10.0175 27.9343 9.9103C27.9008 9.8433 27.8539 9.72939 27.8138 9.66908C27.7803 9.61548 27.7334 9.56857 27.7066 9.50826C27.6865 9.46136 27.6731 9.40105 27.6531 9.34745C27.6196 9.27374 27.5526 9.22684 27.5191 9.15983C27.479 9.07942 27.4589 8.99231 27.4187 8.91191C27.3986 8.8784 27.3718 8.8382 27.3585 8.798C27.3384 8.75109 27.325 8.70419 27.2982 8.65058C27.2513 8.55007 27.1777 8.46966 27.1375 8.36245C27.0839 8.26194 27.0572 8.15473 27.0036 8.04752C26.9768 7.99392 26.9366 7.94701 26.9098 7.88671C26.8697 7.813 26.8563 7.73929 26.8161 7.65888C26.796 7.61198 26.7625 7.57178 26.7425 7.52487C26.7157 7.46456 26.7023 7.39086 26.6755 7.32385C26.6019 7.16974 26.5349 7.01562 26.4679 6.86151C26.4412 6.8012 26.4345 6.74089 26.4077 6.68059C26.3876 6.62698 26.3541 6.58008 26.334 6.52647C26.2738 6.39246 26.2537 6.23164 26.1934 6.10433C26.1599 6.03733 26.1265 5.97032 26.0997 5.89661C26.0595 5.776 26.0394 5.66209 25.9993 5.54148C25.9323 5.36056 25.8787 5.16624 25.8185 4.99202C25.7984 4.93172 25.7984 4.88481 25.7783 4.83121C25.7582 4.7776 25.7381 4.724 25.718 4.67039C25.7047 4.63019 25.698 4.56318 25.6846 4.50958C25.6377 4.35546 25.5908 4.20135 25.5373 4.04723C25.5306 4.00703 25.5239 3.94672 25.5105 3.89312C25.5105 3.86631 25.4904 3.83281 25.4837 3.81271C25.4703 3.7792 25.4703 3.7524 25.4636 3.7122C25.4234 3.59829 25.39 3.47097 25.3565 3.35706C25.3498 3.32356 25.3498 3.26996 25.3364 3.22975C25.2828 3.07564 25.2627 2.87462 25.2025 2.7272C25.1891 2.7004 25.169 2.6736 25.1422 2.6803C25.1154 2.687 25.1221 2.7205 25.1221 2.7406C25.1288 2.81431 25.1556 2.87462 25.169 2.94162C25.169 2.96843 25.169 3.00193 25.169 3.03543C25.169 3.06223 25.1824 3.10244 25.1891 3.12254C25.2159 3.21635 25.2494 3.33026 25.2761 3.42407C25.2828 3.47097 25.2761 3.53798 25.2895 3.59159C25.3297 3.739 25.3565 3.91992 25.4167 4.06063C25.4703 4.18124 25.477 4.32866 25.5105 4.46267C25.5239 4.51628 25.5306 4.57658 25.5306 4.63689C25.544 4.69049 25.5707 4.7307 25.5908 4.7776C25.6042 4.81111 25.6042 4.84461 25.6176 4.87811C25.6444 4.97192 25.6645 5.07243 25.7047 5.16624C25.7247 5.23325 25.7649 5.30025 25.785 5.36726C25.7984 5.39406 25.785 5.42087 25.7984 5.45437C25.8118 5.52138 25.8252 5.58838 25.852 5.65539C25.8988 5.7827 25.939 5.93012 25.9859 6.05743C26.0126 6.13113 26.0193 6.20484 26.0461 6.27855C26.1466 6.55998 26.2604 6.84811 26.3608 7.12953C26.3809 7.18984 26.3943 7.25014 26.4144 7.31045C26.4345 7.37746 26.4746 7.43106 26.5014 7.48467C26.5349 7.55837 26.5416 7.63878 26.5684 7.71249C26.6019 7.7996 26.6487 7.87331 26.6755 7.96711C26.6889 8.01402 26.709 8.06092 26.7291 8.10783C26.7425 8.14133 26.7759 8.17483 26.796 8.20164C26.8161 8.26194 26.8228 8.33565 26.8496 8.38926C26.8764 8.44956 26.9232 8.48977 26.9567 8.54337C26.9902 8.59028 26.9902 8.65058 27.017 8.71089C27.0572 8.798 27.104 8.8717 27.1442 8.96551C27.1643 9.00572 27.171 9.03922 27.1844 9.07272C27.1978 9.11293 27.2379 9.15313 27.2513 9.20003C27.2513 9.20674 27.2513 9.21344 27.2513 9.22684C27.2513 9.24694 27.258 9.26704 27.2647 9.28714C27.2714 9.31395 27.3049 9.35415 27.3116 9.36755C27.3183 9.37425 27.3384 9.40105 27.3518 9.42116C27.3585 9.42786 27.3651 9.44126 27.3718 9.44796C27.412 9.50156 27.412 9.58867 27.4455 9.65568C27.4723 9.72269 27.5258 9.76959 27.5593 9.8366C27.5794 9.8902 27.5928 10.0108 27.566 10.0175C27.4388 10.0175 27.4254 9.8366 27.3852 9.74949C27.3451 9.67578 27.2982 9.61548 27.258 9.54177C27.2513 9.52837 27.2379 9.50156 27.2312 9.47476C27.2245 9.45466 27.2112 9.42786 27.2045 9.40105C27.1911 9.36755 27.1911 9.36755 27.1777 9.34745C27.1643 9.32735 27.1308 9.28044 27.1174 9.25364C27.0638 9.17323 27.0304 9.05932 26.9969 9.00572C26.9768 8.97221 26.95 8.94541 26.9366 8.91191C26.9032 8.865 26.8898 8.8047 26.863 8.74439C26.8362 8.69749 26.8027 8.64388 26.7759 8.59698C26.7492 8.53667 26.7425 8.45626 26.7157 8.38926C26.7023 8.35575 26.6688 8.32225 26.6554 8.28875C26.6219 8.21504 26.6019 8.13463 26.5617 8.06092C26.5416 8.02742 26.5215 7.99392 26.5014 7.96041C26.4746 7.90011 26.4546 7.8331 26.4278 7.7728C26.3608 7.65218 26.2872 7.52487 26.2336 7.39756C26.2001 7.31715 26.1867 7.24344 26.1533 7.16974C26.1265 7.10943 26.0863 7.04242 26.0595 6.98212C26.0394 6.94191 26.0327 6.90171 26.0193 6.86151C25.9926 6.7878 25.9591 6.71409 25.9323 6.64038C25.9189 6.59348 25.9055 6.48627 25.8921 6.43936C25.872 6.38576 25.8453 6.33215 25.8185 6.27855C25.785 6.19814 25.7716 6.11773 25.7381 6.03733C25.7113 5.97702 25.6846 5.91001 25.6578 5.84971C25.6377 5.7961 25.6377 5.7492 25.6109 5.69559C25.5975 5.66209 25.5707 5.61518 25.5573 5.57498C25.5373 5.52808 25.5306 5.45437 25.5105 5.39406C25.4904 5.32706 25.4569 5.26005 25.4368 5.19304C25.4234 5.14614 25.4234 5.02553 25.4034 4.99872C25.3364 4.791 25.2694 4.56988 25.2025 4.36216C25.1757 4.26835 25.1623 4.17454 25.1355 4.08073C25.1288 4.04053 25.1288 3.99363 25.1154 3.96012C25.0954 3.89982 25.0686 3.83951 25.0552 3.7792C25.0418 3.7323 25.0351 3.6921 25.0284 3.65189C25.015 3.61169 24.9949 3.56478 24.9815 3.51788C24.9414 3.39727 24.9213 3.26325 24.8878 3.14264C24.8744 3.08904 24.8744 3.02203 24.861 2.97513C24.8141 2.82771 24.8008 2.65349 24.7606 2.49268C24.7539 2.44577 24.7405 2.40557 24.7338 2.35867C24.6601 2.06384 24.62 1.7355 24.5396 1.45408C24.5262 1.40047 24.5396 1.33347 24.5396 1.27316C24.5195 1.20615 24.4995 1.14585 24.4794 1.09224C24.4727 1.05874 24.4727 1.03864 24.466 1.01183C24.4526 0.958229 24.4258 0.924726 24.4057 0.931426C24.3722 0.944828 24.3789 0.97163 24.3789 1.01183C24.3789 1.07884 24.3923 1.13245 24.4057 1.18605C24.4124 1.23296 24.4057 1.26646 24.4191 1.31336C24.4459 1.40047 24.4593 1.53449 24.466 1.61489C24.466 1.6484 24.466 1.6953 24.4794 1.7355C24.4861 1.77571 24.5195 1.83601 24.5329 1.87622C24.5396 1.93652 24.5396 2.01693 24.5463 2.08394C24.5597 2.13754 24.5731 2.19115 24.5932 2.24475C24.6066 2.29166 24.5932 2.33186 24.6066 2.37877C24.62 2.42567 24.6468 2.46588 24.6534 2.50608C24.6601 2.56639 24.6535 2.64009 24.6668 2.687C24.7338 2.94832 24.7472 3.24985 24.8275 3.49778C24.8342 3.53798 24.8342 3.57148 24.8476 3.60499C24.9146 3.81941 24.9614 4.06063 25.0284 4.27505C25.0284 4.30856 25.0284 4.34206 25.0418 4.38226C25.0619 4.45597 25.082 4.54308 25.0954 4.61679C25.1087 4.65029 25.1087 4.68379 25.1154 4.7173C25.1355 4.7977 25.169 4.87811 25.1958 4.95852C25.2092 4.99872 25.2092 5.03223 25.2159 5.07243C25.2159 5.10593 25.236 5.13944 25.2494 5.16624C25.2627 5.21315 25.2561 5.26005 25.2694 5.29355C25.2761 5.32036 25.3029 5.34716 25.3096 5.37396C25.3163 5.42087 25.323 5.46107 25.3364 5.50797C25.3498 5.56158 25.3833 5.61518 25.4034 5.66879C25.4234 5.71569 25.4234 5.7559 25.4368 5.8028C25.4703 5.88321 25.5038 5.97032 25.5306 6.05073C25.5573 6.11773 25.5573 6.18474 25.5841 6.25175C25.5975 6.29195 25.6176 6.33885 25.631 6.38576C25.6444 6.41926 25.6511 6.45277 25.6578 6.49297C25.6712 6.52647 25.7047 6.58008 25.7314 6.62028C25.7448 6.66719 25.7381 6.73419 25.7582 6.7811C25.7716 6.8347 25.8051 6.87491 25.8252 6.92181C25.8386 6.97542 25.8386 7.02232 25.852 7.06923C25.8653 7.10943 25.8921 7.14293 25.9055 7.18314C25.9189 7.22334 25.939 7.27025 25.9524 7.30375C25.9591 7.33055 25.9859 7.36406 25.9993 7.39086C26.0193 7.43776 26.0394 7.49137 26.0595 7.53827C26.093 7.60528 26.093 7.69909 26.1198 7.7795C26.1265 7.7996 26.1198 7.8599 26.1064 7.8666C26.0729 7.8666 26.0394 7.8197 26.0126 7.7862C25.9792 7.73259 25.939 7.67229 25.9122 7.60528C25.9055 7.57848 25.8988 7.55837 25.8921 7.53157C25.872 7.47797 25.852 7.41766 25.8319 7.35735C25.8185 7.32385 25.7984 7.29035 25.785 7.25014C25.7649 7.19654 25.7783 7.13623 25.7582 7.08933C25.7448 7.04912 25.7113 7.02232 25.6913 6.98212C25.6779 6.94861 25.6779 6.90841 25.6578 6.87491C25.6377 6.8347 25.6176 6.7945 25.5908 6.7543C25.5774 6.71409 25.5774 6.68059 25.564 6.62698C25.5507 6.57338 25.5306 6.51977 25.5105 6.47287C25.4904 6.41926 25.4569 6.37236 25.4368 6.31875C25.4301 6.29195 25.4234 6.26515 25.41 6.23835C25.3967 6.19814 25.3766 6.15794 25.3632 6.12443C25.3565 6.09093 25.3498 6.06413 25.3364 6.03733C25.3163 5.99712 25.2962 5.95022 25.2761 5.90331C25.2627 5.86311 25.2627 5.82961 25.2427 5.7894C25.2226 5.7224 25.2025 5.64869 25.1757 5.58838C25.1623 5.53478 25.1556 5.48787 25.1422 5.44097C25.1221 5.38066 25.0954 5.32706 25.0753 5.26675C25.0552 5.21985 25.0552 5.16624 25.0418 5.11934C25.0217 5.05233 24.9882 4.99872 24.9681 4.93172C24.9548 4.87811 24.9547 4.82451 24.9481 4.7776C24.9079 4.65699 24.8677 4.52298 24.8275 4.39567C24.7874 4.25495 24.7807 4.09414 24.7405 3.95342C24.7137 3.85291 24.6802 3.7591 24.6468 3.65859C24.6334 3.60499 24.6334 3.55808 24.62 3.50448C24.5932 3.39727 24.553 3.24985 24.5128 3.13594C24.4928 3.07564 24.4995 3.00863 24.4794 2.94162C24.4593 2.87462 24.4593 2.80091 24.4392 2.7272C24.4258 2.6803 24.4124 2.65349 24.399 2.59989C24.3856 2.54628 24.3856 2.47928 24.3789 2.43907C24.3722 2.39217 24.2986 2.15095 24.2919 2.10404C24.2919 2.06384 24.2919 1.97673 24.2785 1.94993C24.2785 1.92982 24.2383 1.81591 24.2316 1.79581C24.2249 1.76901 24.2249 1.7355 24.2115 1.6752C24.2048 1.62159 24.1714 1.50098 24.1647 1.46748C24.158 1.43398 24.158 1.36027 24.1513 1.32676C24.1513 1.28656 24.1245 1.20615 24.1044 1.15255C24.0843 1.08554 24.1044 1.00513 24.0776 0.938127C24.0642 0.884522 24.0442 0.844318 24.0241 0.790713C24.0174 0.750509 24.004 0.696903 24.004 0.670101C23.9973 0.636598 23.9973 0.55619 23.9973 0.529387C23.9973 0.489183 23.9772 0.422177 23.9772 0.361871C23.9772 0.288164 23.9571 0.201055 23.9437 0.15415C23.937 0.127348 23.9437 0.0871438 23.937 0.0670419C23.9169 -0.00666533 23.8969 -0.0803725 23.85 -0.0736719C23.8232 -0.0736719 23.8098 -0.0468693 23.8232 0.00673598C23.8366 0.0670419 23.8433 0.113946 23.8567 0.174252C23.8701 0.207756 23.8701 0.281463 23.8701 0.308265C23.8701 0.35517 23.8701 0.361871 23.8768 0.402075C23.8768 0.415476 23.8835 0.462381 23.8835 0.475782C23.8902 0.502584 23.9035 0.542788 23.9035 0.56289V0.6567C23.9035 0.6567 23.9035 0.683502 23.9035 0.723706C23.9169 0.757209 23.9169 0.76391 23.9236 0.790713C23.9236 0.817515 23.9236 0.844318 23.9236 0.86442C23.9236 0.891222 23.9236 0.911324 23.937 0.944828C23.9504 0.998433 23.9906 1.07214 23.9772 1.14585C23.9638 1.22626 23.9839 1.30666 24.004 1.37367C24.0107 1.42057 24.004 1.46748 24.0107 1.50768L24.0575 1.6953C24.0709 1.74891 24.0642 1.79581 24.0776 1.84272C24.0977 1.90972 24.1446 2.00353 24.1446 2.03033C24.1513 2.06384 24.1446 2.14424 24.158 2.19785C24.1647 2.25146 24.1781 2.31176 24.1848 2.34526C24.1848 2.37207 24.1848 2.39217 24.1848 2.41227C24.1848 2.43907 24.2249 2.55298 24.2249 2.58649C24.2316 2.61999 24.2249 2.63339 24.2383 2.6669C24.245 2.7004 24.2718 2.82771 24.2785 2.86792C24.2852 2.90812 24.2785 2.93492 24.2852 2.97513C24.2986 3.04213 24.3254 3.09574 24.3388 3.15604C24.3521 3.20295 24.3455 3.22975 24.3521 3.26996C24.3655 3.32356 24.3856 3.37717 24.3923 3.43077C24.399 3.47097 24.399 3.51788 24.4057 3.55808C24.4258 3.65189 24.4392 3.7457 24.4593 3.83281C24.4794 3.88642 24.5061 3.94002 24.5262 3.98692C24.5396 4.03383 24.5396 4.08073 24.553 4.12764C24.5664 4.16784 24.5932 4.20805 24.6066 4.25495C24.6133 4.28845 24.6066 4.32866 24.62 4.36886C24.6334 4.40907 24.6535 4.44927 24.6601 4.50288C24.6735 4.53638 24.6601 4.56318 24.6735 4.60339C24.6869 4.64359 24.707 4.67709 24.7137 4.7106C24.7204 4.7575 24.7204 4.81111 24.7338 4.85131C24.7472 4.90491 24.7673 4.95852 24.7874 5.01213C24.8074 5.05903 24.8008 5.11264 24.8074 5.15954C24.8409 5.27345 24.8744 5.39406 24.9146 5.49457C24.9347 5.54818 24.928 5.60848 24.9414 5.66879C24.9547 5.70899 24.9748 5.7358 24.9949 5.7693C25.0083 5.8028 24.9949 5.84301 25.0083 5.88321C25.0284 5.95692 25.0351 6.04403 25.0619 6.11103C25.082 6.18474 25.1288 6.25175 25.1556 6.31875C25.1824 6.39246 25.1824 6.47287 25.2092 6.54658C25.236 6.61358 25.2627 6.68059 25.2895 6.73419C25.3096 6.7945 25.3029 6.86151 25.3297 6.92181C25.3498 6.98882 25.39 7.03572 25.4167 7.09603C25.4502 7.16974 25.4636 7.24344 25.4837 7.31715C25.4904 7.35065 25.4971 7.37746 25.5038 7.41096C25.5306 7.50477 25.5841 7.58518 25.6176 7.67229C25.631 7.71919 25.631 7.75269 25.6444 7.7862C25.6645 7.8532 25.698 7.92021 25.7247 7.98722C25.7515 8.04082 25.785 8.09443 25.8118 8.15473C25.8386 8.20834 25.8386 8.26194 25.8653 8.31555C25.8787 8.36915 25.9055 8.42276 25.9256 8.47636C25.939 8.50987 25.939 8.53667 25.9524 8.57687C26.0126 8.71759 26.093 8.865 26.1599 9.00572C26.2001 9.07942 26.2135 9.16653 26.247 9.24694C26.2738 9.31395 26.3073 9.36755 26.3407 9.43456C26.3541 9.47476 26.3608 9.51497 26.3809 9.55517C26.4144 9.62888 26.4679 9.70928 26.5014 9.78969C26.5081 9.80309 26.5349 9.8902 26.5215 9.92371V9.93041C26.5014 9.93711 26.4479 9.8969 26.4211 9.8701C26.3273 9.77629 26.3139 9.60877 26.2537 9.48816C26.2336 9.45466 26.2135 9.42116 26.1934 9.38095C26.1867 9.35415 26.18 9.33405 26.1666 9.31395C26.1265 9.23354 26.0796 9.17323 26.0394 9.08612C26.0126 9.03252 26.006 8.96551 25.9859 8.91191C25.8787 8.68408 25.7582 8.46966 25.6578 8.24184C25.6109 8.14133 25.5975 8.02072 25.564 7.90681C25.5373 7.8398 25.4971 7.7862 25.4703 7.72589C25.4502 7.67899 25.4435 7.62538 25.4167 7.57848C25.3833 7.51147 25.3431 7.45116 25.323 7.37746C25.3096 7.33055 25.3029 7.28365 25.2828 7.24344C25.2627 7.18984 25.2293 7.14963 25.2092 7.10273C25.1824 7.02902 25.1757 6.95532 25.1489 6.87491C25.1355 6.8347 25.1221 6.7878 25.1021 6.74759C25.0887 6.71409 25.0887 6.67389 25.0753 6.63368C25.0485 6.54658 24.9949 6.47287 24.9614 6.38576C24.9414 6.32545 24.9481 6.25175 24.9213 6.19144C24.9012 6.14454 24.861 6.10433 24.8409 6.05743C24.8208 6.00382 24.8409 5.94352 24.8275 5.88321C24.8141 5.8229 24.7874 5.7693 24.7673 5.71569C24.7606 5.67549 24.7539 5.64199 24.7405 5.61518C24.7137 5.54148 24.6869 5.47447 24.6668 5.40746C24.6535 5.36726 24.6534 5.34046 24.6401 5.30025C24.62 5.26005 24.5865 5.22655 24.5731 5.17294C24.553 5.10593 24.553 5.03223 24.5329 4.96522C24.5061 4.87811 24.4727 4.80441 24.4459 4.7173C24.4325 4.69049 24.4325 4.66369 24.4325 4.63689C24.4124 4.55648 24.399 4.46937 24.3789 4.39567C24.3655 4.35546 24.3722 4.32196 24.3655 4.28845C24.3455 4.21475 24.3187 4.14104 24.2919 4.07403C24.2785 4.02713 24.2785 3.98022 24.2651 3.94002C24.2316 3.82611 24.1982 3.6921 24.1647 3.57819C24.158 3.54468 24.1647 3.51788 24.1513 3.48438C24.1312 3.39727 24.091 3.29006 24.0709 3.20295C24.0642 3.14934 24.0642 3.09574 24.0508 3.04883C24.0375 2.98853 24.0174 2.92822 24.004 2.86792C24.004 2.84111 24.004 2.81431 24.004 2.79421C23.9973 2.754 23.9973 2.7138 23.9906 2.6803C23.9504 2.51948 23.8902 2.33186 23.8567 2.17105C23.8433 2.11074 23.8433 2.05714 23.8366 2.00353C23.8366 1.96333 23.8299 1.91642 23.8165 1.87622C23.8031 1.83601 23.783 1.79581 23.7763 1.74891C23.7696 1.6819 23.7696 1.61489 23.7562 1.54789C23.7562 1.54119 23.7562 1.54119 23.7562 1.53449C23.7496 1.45408 23.7027 1.28656 23.696 1.22626C23.6826 1.14585 23.6759 1.07214 23.6625 0.991732C23.6625 0.944828 23.6491 0.891222 23.6491 0.837617C23.6357 0.757209 23.6156 0.683502 23.6089 0.603094C23.6089 0.542788 23.6089 0.495884 23.6022 0.448979C23.6022 0.415476 23.5956 0.368571 23.5554 0.368571C23.5152 0.368571 23.5219 0.408775 23.5219 0.448979C23.5219 0.529387 23.5353 0.643298 23.542 0.696903C23.5554 0.790713 23.542 0.891222 23.5554 0.985032C23.5621 1.03864 23.5822 1.09894 23.5889 1.14585C23.6022 1.23966 23.6089 1.33347 23.6223 1.42057C23.6223 1.46748 23.6223 1.50768 23.6357 1.54789C23.6357 1.54789 23.6357 1.55459 23.6357 1.56129V1.57469C23.6357 1.57469 23.6424 1.61489 23.6491 1.62829C23.6558 1.6618 23.6558 1.6886 23.6625 1.7288C23.6893 1.83601 23.6826 1.95663 23.7161 2.06384C23.7562 2.21795 23.7763 2.38547 23.8299 2.54628C23.8433 2.58649 23.8299 2.63339 23.8433 2.687C23.8634 2.7339 23.8701 2.78081 23.8835 2.82771C23.8969 2.88802 23.8835 2.94832 23.9035 3.00863C23.9169 3.06223 23.937 3.12254 23.9504 3.17615C23.9705 3.23645 23.9705 3.30346 23.9906 3.37046C24.0107 3.44417 24.0308 3.51788 24.0442 3.58489C24.0642 3.66529 24.0642 3.7591 24.0843 3.83951C24.0977 3.91322 24.1379 3.99363 24.1513 4.07403C24.1513 4.09414 24.1513 4.12094 24.1513 4.15444C24.1647 4.20805 24.1781 4.26835 24.1915 4.31526C24.1915 4.34206 24.1915 4.36216 24.2048 4.38896C24.2316 4.48947 24.2651 4.61679 24.2919 4.7173C24.2986 4.7441 24.3053 4.7776 24.312 4.80441C24.3321 4.87141 24.3521 4.92502 24.3655 4.96522C24.3722 4.99872 24.3789 5.03893 24.3856 5.07913C24.399 5.13274 24.4191 5.17964 24.4258 5.22655C24.4325 5.26675 24.4392 5.30025 24.4526 5.33376C24.466 5.38066 24.4861 5.42087 24.4995 5.46107C24.5262 5.54818 24.5329 5.64869 24.5664 5.7358C24.5865 5.7894 24.6133 5.83631 24.6267 5.88991C24.6401 5.94352 24.6468 6.00382 24.6601 6.06413C24.6869 6.15124 24.7204 6.25175 24.7539 6.33886C24.7941 6.44607 24.8141 6.55998 24.8476 6.65379C24.861 6.69399 24.861 6.73419 24.8744 6.7811C24.9079 6.87491 24.9347 6.98882 24.9681 7.08933C24.9882 7.14293 24.9882 7.19654 25.0083 7.24344C25.0418 7.32385 25.0887 7.39756 25.1221 7.48467C25.1489 7.55837 25.1556 7.63208 25.1824 7.69909C25.2159 7.7929 25.256 7.88001 25.2962 7.98052C25.3163 8.04752 25.3297 8.11453 25.3565 8.18154C25.3766 8.22844 25.41 8.28875 25.4368 8.34235C25.4569 8.38926 25.477 8.43616 25.4837 8.48306C25.4971 8.51657 25.5373 8.58357 25.564 8.63048C25.5908 8.69749 25.5975 8.76449 25.6243 8.8382C25.6645 8.94541 25.718 9.05932 25.7582 9.15983C25.7783 9.20003 25.7783 9.23354 25.7984 9.28044C25.8252 9.34745 25.872 9.40105 25.8988 9.46806C25.9256 9.52837 25.939 9.59537 25.9591 9.65568C25.9993 9.74279 26.0327 9.79639 26.0327 9.92371C26.0327 9.93041 26.0327 9.94381 26.0193 9.94381C25.9993 9.95051 25.9725 9.917 25.9524 9.9036C25.8854 9.8299 25.8787 9.76959 25.8319 9.67578C25.7649 9.53507 25.6846 9.40105 25.6176 9.26704C25.5908 9.20003 25.5707 9.11963 25.5373 9.04592C25.5172 8.99902 25.4904 8.95211 25.4703 8.90521C25.4368 8.8449 25.4234 8.77789 25.39 8.71759C25.3431 8.63048 25.3029 8.52997 25.2694 8.43616C25.2494 8.39596 25.2494 8.36245 25.236 8.32895C25.2159 8.28875 25.1958 8.25524 25.1757 8.21504C25.1556 8.15473 25.1355 8.08103 25.1154 8.02072C25.0619 7.90681 25.0083 7.7862 24.9614 7.67229C24.928 7.55837 24.9012 7.45786 24.861 7.34395C24.8476 7.30375 24.8208 7.25014 24.8074 7.20324C24.7941 7.15634 24.7941 7.12283 24.7807 7.08263C24.7405 6.98212 24.6936 6.87491 24.6534 6.7811C24.6334 6.73419 24.6267 6.68729 24.6066 6.63368C24.5865 6.57338 24.5597 6.49967 24.5329 6.43936C24.5061 6.36566 24.4995 6.27185 24.4727 6.17804C24.4057 6.00382 24.3254 5.8095 24.2651 5.61518C24.2584 5.56828 24.2651 5.52808 24.245 5.48117C24.2115 5.38736 24.1781 5.28015 24.1513 5.17294C24.1178 5.05903 24.1245 4.93842 24.0843 4.82451C24.0375 4.68379 23.9906 4.53638 23.9437 4.39567C23.9303 4.34876 23.937 4.30856 23.9236 4.26165C23.8902 4.14774 23.8567 4.02043 23.8165 3.91992C23.7964 3.87301 23.7964 3.81271 23.7763 3.7658C23.7562 3.7055 23.696 3.7256 23.696 3.79261C23.696 3.85291 23.7228 3.92662 23.7295 3.95342C23.7362 4.00033 23.7362 4.04053 23.7429 4.08073C23.7562 4.15444 23.783 4.22145 23.8031 4.28845C23.8232 4.36216 23.8232 4.42917 23.85 4.50288C23.8634 4.53638 23.8768 4.58328 23.8835 4.61679C23.9102 4.69049 23.9102 4.7709 23.937 4.83791C23.9571 4.89151 23.9705 4.95852 23.9906 5.01213C24.004 5.05233 23.9973 5.08583 24.0107 5.11934C24.0241 5.18634 24.0509 5.26005 24.0709 5.32036C24.0843 5.36056 24.0776 5.39406 24.0843 5.43427C24.0977 5.48787 24.1111 5.54148 24.1312 5.58838C24.1446 5.64199 24.1446 5.70899 24.158 5.7559C24.1915 5.84971 24.2249 5.95022 24.2584 6.03733C24.2919 6.13113 24.2919 6.23835 24.3321 6.33886C24.399 6.51977 24.4526 6.72079 24.5195 6.89501C24.5396 6.94191 24.5329 6.98882 24.5463 7.03572C24.5664 7.10943 24.5798 7.18984 24.6066 7.26355C24.62 7.29705 24.6468 7.33725 24.6601 7.37076C24.6802 7.41096 24.6802 7.45786 24.707 7.50477C24.7204 7.53827 24.7472 7.57848 24.7606 7.61198C24.7807 7.67229 24.774 7.73929 24.8008 7.7929C24.8141 7.8398 24.8409 7.88001 24.8543 7.92691C24.8744 7.97381 24.8744 8.02742 24.8945 8.07432C24.9146 8.11453 24.9414 8.15473 24.9614 8.19494C24.9815 8.23514 24.9815 8.27534 25.0016 8.31555C25.015 8.35575 25.0418 8.40266 25.0619 8.44286C25.082 8.48307 25.082 8.53667 25.1021 8.58357C25.1154 8.62378 25.1489 8.66398 25.1623 8.70419C25.1757 8.75109 25.1757 8.798 25.1958 8.8449C25.2226 8.91861 25.2627 8.97221 25.2962 9.04592C25.3163 9.09282 25.3163 9.14643 25.3431 9.19333C25.3699 9.25364 25.4034 9.31395 25.4301 9.36755C25.4636 9.44126 25.4971 9.52167 25.5239 9.59537C25.5841 9.72269 25.6042 9.8634 25.6578 9.99071C25.7047 10.0778 25.7582 10.1716 25.8051 10.2587C25.8252 10.3123 25.8319 10.3659 25.8586 10.4129C25.8854 10.4732 25.9323 10.5134 25.9524 10.5737C25.9725 10.6273 25.9926 10.6809 26.0126 10.7412C26.0461 10.8082 26.093 10.8752 26.1265 10.9422C26.1466 10.9824 26.1533 11.0226 26.1733 11.0561C26.2068 11.1365 26.2671 11.1968 26.3006 11.2772C26.3206 11.3241 26.3407 11.3777 26.3541 11.4247C26.3943 11.5051 26.4546 11.5721 26.4947 11.6525C26.5215 11.7195 26.5416 11.7798 26.5751 11.8334C26.6286 11.9205 26.6688 11.9741 26.7224 12.0679C26.7559 12.1215 26.8027 12.2086 26.8295 12.2622C26.8563 12.3292 26.9032 12.3761 26.9366 12.4365C26.9634 12.4968 26.9969 12.5571 27.0304 12.6174C27.0705 12.6844 27.104 12.7246 27.1442 12.7849C27.2112 12.8854 27.2513 12.9859 27.3116 13.0864C27.3585 13.1534 27.4053 13.2204 27.4522 13.2874C27.5794 13.4617 27.7602 13.7766 27.8405 13.8838C27.9075 13.9642 27.9611 14.0714 28.0146 14.1585C28.0615 14.2322 28.1217 14.2992 28.1686 14.3595C28.2088 14.4198 28.2423 14.4735 28.2824 14.5338L28.3159 14.574C29.9496 16.6512 31.6369 18.0315 33.0564 18.9361C33.813 19.4051 34.2147 19.5391 34.2147 19.5391C34.3084 19.5793 34.2415 19.6464 34.1946 19.6799L25.7515 25.0873C25.7515 25.0873 25.6578 25.1476 25.6846 25.2079C25.7047 25.2481 25.7917 25.2213 25.8185 25.2146C32.5944 22.8359 37.5089 20.8793 40.5152 19.452C43.5617 18.0047 44.5861 17.1738 44.479 16.7651" fill="#00585D"/>
<path d="M22.5176 44.1507C22.8256 43.7621 23.1336 43.427 23.7697 43.427V43.3399H22.1694C21.7008 43.3399 21.1919 43.2461 20.5089 44.1507L19.7523 45.129C19.4444 45.5176 19.1497 45.8527 18.5137 45.8527V45.9398H20.1005C20.5692 45.9398 21.058 46.0135 21.7677 45.129L22.5243 44.1507H22.5176Z" fill="#00585D"/>
<path d="M25.7444 40.7132C25.7444 40.4585 25.9453 40.0029 26.26 40.0029V39.9225H23.5684V40.0029C23.8897 40.0029 24.0839 40.4585 24.0839 40.7132V44.0032C24.0839 44.4454 24.0772 44.9011 23.5014 44.9011C23.1131 44.9011 22.8921 44.7939 22.5841 44.4454H22.4971L23.2871 45.8727C23.555 45.9062 23.6956 45.933 24.0638 45.933C24.4321 45.933 25.7377 45.933 25.7377 44.0032V40.7132H25.7444Z" fill="#00585D"/>
<path d="M20.2812 42.2343C21.1315 43.1657 21.5935 43.045 22.0622 43.045H23.7428V42.9579C23.1 42.9579 22.7719 42.6162 22.4104 42.2343L22.31 42.1338C21.4462 41.2024 20.9976 41.323 20.5289 41.323H18.835V41.4101C19.471 41.4101 19.8192 41.7384 20.1808 42.1338L20.2812 42.2343Z" fill="#00585D"/>
<path d="M27.2843 44.1507C26.9763 43.7621 26.675 43.427 26.0322 43.427V43.3399H27.6325C28.0945 43.3399 28.6033 43.2461 29.293 44.1507L30.0563 45.129C30.3642 45.5176 30.6522 45.8527 31.2949 45.8527V45.9398H29.7014C29.2327 45.9398 28.7506 46.0135 28.0342 45.129L27.2776 44.1507H27.2843Z" fill="#00585D"/>
<path d="M29.6414 39.8488L29.0455 39.3798C28.242 38.7499 27.8269 38.4685 27.4921 38.3479H30.2239C30.9135 38.3479 31.4692 38.6695 31.4692 39.0648H31.5496V37.4366H25.7512V36.3712H29.2329C29.9159 36.3712 30.4783 36.6928 30.4783 37.0881H30.5587V35.4599H25.7512V34.5285H29.9761C30.6658 34.5285 31.2215 34.8501 31.2215 35.2455H31.3019V33.6172H25.7512C25.7512 33.3626 25.9521 32.9002 26.2668 32.9002V32.8198H23.5752V32.9002C23.8966 32.9002 24.0908 33.3559 24.0908 33.6172H18.5134V35.2455H18.5937C18.5937 34.8501 19.1494 34.5285 19.8391 34.5285H24.0908V35.4599H19.2633V37.0881H19.3503C19.3503 36.6928 19.906 36.3712 20.5957 36.3712H24.0974V37.4366H18.2723V39.0648H18.3527C18.3527 38.6695 18.9084 38.3479 19.598 38.3479H22.3298C21.995 38.4685 21.5866 38.7499 20.7765 39.3798L20.1806 39.8488C18.7879 40.874 18.7611 40.874 18.2656 40.874V40.9745H20.1471C20.8032 40.9745 21.0711 40.9678 22.5039 39.8421L23.0998 39.3731C24.3184 38.4149 24.4121 38.3479 24.9143 38.3412C25.4232 38.3412 25.5102 38.4082 26.7288 39.3731L27.3247 39.8421C28.7576 40.9611 29.0254 40.9745 29.6815 40.9745H31.563V40.874C31.0742 40.874 31.0407 40.874 29.6481 39.8488" fill="#00585D"/>
<path d="M29.527 42.2343C28.6767 43.1657 28.2147 43.045 27.746 43.045H26.0654V42.9579C26.7082 42.9579 27.0296 42.6162 27.3978 42.2343L27.4983 42.1338C28.362 41.2024 28.8039 41.323 29.2793 41.323H30.98V41.4101C30.3439 41.4101 29.9957 41.7384 29.6342 42.1338L29.5337 42.2343H29.527Z" fill="#00585D"/>
<path d="M11.8712 43.3935C11.8578 44.1506 11.2485 44.7671 10.4919 44.7671H2.37692V33.8048H11.8712V43.3935ZM0 32.8935V32.9806C0.395037 32.9806 0.709728 33.8316 0.709728 34.5151V44.3517C0.709728 45.0418 0.395037 45.598 0 45.598V45.6784H11.3757C12.5675 45.6784 13.5317 44.7135 13.5317 43.5141V32.8868H0V32.8935Z" fill="#00585D"/>
<path d="M5.64419 40.7333C5.64419 40.9344 5.48349 41.0952 5.28263 41.0952H4.34525V38.4618H5.64419V40.7333ZM3.01953 37.5438V42.0065H5.69106C6.39409 42.0065 6.96991 41.4369 6.96991 40.7333V37.5438H3.01953Z" fill="#00585D"/>
<path d="M10.0837 41.9529L9.74894 40.6931C10.1775 39.8087 10.6796 38.7567 10.7533 38.6092C10.9742 38.1603 11.1014 37.7784 11.4898 37.6309V37.5505H9.5146V37.6108C9.84938 37.7382 9.88955 38.0598 9.49451 38.8639C9.44095 38.9644 9.39408 39.0649 9.34721 39.1654L8.6174 36.4114H10.0101C10.9474 36.4114 11.222 36.7331 11.2554 36.9542H11.3358V35.4934H10.5256C10.8537 34.7631 10.9809 34.5687 11.2621 34.5352V34.4548H9.23339V34.5084C9.52129 34.6157 9.58825 34.8904 9.32043 35.4934H8.36296C8.20897 34.8904 8.3161 34.6291 8.63079 34.5151V34.4548H6.053V34.5419C6.61543 34.6559 6.77612 35.0378 6.89664 35.4934H2.99983V36.9542H3.08018C3.11365 36.7331 3.38148 36.4114 4.32555 36.4114H7.13098L8.37636 41.1622C7.70011 42.5157 7.29168 42.9915 6.32082 42.9915H4.27868C3.54886 42.9915 3.05339 42.8106 2.83914 42.4822H2.75879L3.57565 43.9028H6.41456C7.47246 43.9028 8.18888 43.4471 8.77809 42.576C9.00574 43.2796 9.30704 43.9497 10.2712 43.9497H11.3693V43.8894C10.6863 43.6213 10.4788 43.36 10.0904 41.9596" fill="#00585D"/>
<path d="M47.1563 33.9657C47.1563 33.3559 47.3571 32.9874 47.6718 32.9874V32.907H44.9802V32.9874C45.2949 32.9874 45.4958 33.3626 45.4958 33.9657H43.1055V35.5939H43.1858C43.1858 35.1986 43.7415 34.877 44.4312 34.877H48.261C48.944 34.877 49.5064 35.1986 49.5064 35.5939H49.5868V33.9657H47.1563Z" fill="#00585D"/>
<path d="M47.1832 43.8625C47.1832 44.5192 47.1096 46 48.4621 46C48.8571 46 49.1718 45.8526 49.3392 45.799C49.5802 45.216 49.8815 44.546 49.8815 44.546H49.8012C49.8012 44.546 49.5668 44.9614 49.0981 44.9614C48.6295 44.9614 48.683 44.2378 48.683 43.9496V37.8386C48.683 37.2691 48.7901 35.6743 47.0493 35.6743H44.2171V42.1337C44.2171 44.345 44.043 45.8526 43.2061 45.8526V45.933H44.2171C45.6499 45.933 45.7169 44.2847 45.7169 42.2142V36.6727H46.3396C47.0962 36.6727 47.1765 37.2892 47.1899 38.0463V43.9496" fill="#00585D"/>
<path d="M39.584 37.517C39.738 38.4752 39.9389 38.4752 40.4277 38.4752H41.0102V38.3881C40.8562 38.3881 40.6486 38.1268 40.5549 37.5103L40.3607 36.2774C40.2067 35.3259 40.0059 35.3192 39.5171 35.3192H38.9346V35.4063C39.0886 35.4063 39.2961 35.6676 39.3899 36.2774L39.5907 37.5103L39.584 37.517Z" fill="#00585D"/>
<path d="M39.584 42.7905C39.738 43.7487 39.9389 43.7487 40.4277 43.7487H41.0102V43.6683C40.8562 43.6683 40.6486 43.4069 40.5549 42.7905L40.3607 41.5576C40.2067 40.5994 40.0059 40.5994 39.5171 40.5994H38.9346V40.6865C39.0886 40.6865 39.2961 40.9478 39.3899 41.5643L39.5907 42.7972L39.584 42.7905Z" fill="#00585D"/>
<path d="M38.8208 39.0782V34.6223H41.1643V39.0782H38.8208ZM42.6641 39.0782V33.6239H39.41L39.4368 33.5703C39.7917 32.9739 40.1465 32.7126 40.3072 32.7126V32.6322H39.1824C38.64 32.6322 38.4124 32.6322 37.8634 33.5703L37.1469 34.7831C36.7988 35.3795 36.4439 35.6408 36.2832 35.6408V35.7279H37.3277V39.0782H36.5175V40.7065H36.5979C36.5979 40.4184 36.8925 40.1704 37.321 40.0565V42.1337C37.321 44.3449 37.1469 45.8526 36.31 45.8526V45.933H37.3143C38.7539 45.933 38.8141 44.2846 38.8141 42.2141V39.9895H41.1576V44.0635C41.1576 44.5058 41.1308 44.9614 40.4144 44.9614C40.026 44.9614 39.8051 44.8542 39.4904 44.5058H39.4033L40.2001 45.933C40.4612 45.9665 40.6085 45.9933 40.9701 45.9933C41.3316 45.9933 42.6507 45.9933 42.6507 44.0635V40.0565C43.0725 40.1704 43.3671 40.4184 43.3671 40.7065H43.4474V39.0782H42.6507H42.6641Z" fill="#00585D"/>
<path d="M60.3408 33.9455C60.3408 33.3358 60.1399 32.9672 59.8252 32.9672V32.8868H62.5168V32.9672C62.2021 32.9672 62.0012 33.3425 62.0012 33.9455H60.3408Z" fill="#00585D"/>
<path d="M66.0118 36.6861C66.0118 36.6861 66.1324 36.0763 66.2529 35.5671C66.4337 34.7965 65.8578 34.8635 65.4226 34.8635H56.5644V36.6928H54.8972V35.5805C54.8972 34.8903 54.5758 34.0393 54.1875 34.0393V33.9589H66.2997C66.7952 33.9589 68.3084 33.8115 67.9469 35.4733C67.8464 35.9088 67.6656 36.6995 67.6656 36.6995H66.0185L66.0118 36.6861Z" fill="#00585D"/>
<path d="M56.0018 39.5005C56.6512 39.5005 56.9257 39.4938 57.8899 38.3747L59.3428 36.713C59.9588 35.9893 60.2133 35.6811 60.8092 35.6811V35.5806H59.3027C58.6465 35.5806 58.3787 35.5806 57.4145 36.7063L55.9616 38.368C55.3456 39.085 55.0912 39.3932 54.502 39.3932V39.4937H56.0085L56.0018 39.5005Z" fill="#00585D"/>
<path d="M60.3136 40.9545V44.7806H55.8275C55.1379 44.7806 54.5822 44.4589 54.5822 44.0703H54.4951V45.6986H67.7791V44.0703H67.6987C67.6987 44.4656 67.143 44.7806 66.4534 44.7806H61.974V40.9545H65.7905C66.4802 40.9545 67.0359 41.2761 67.0359 41.6715H67.1162V40.0432H55.158V41.6715H55.245C55.245 41.2761 55.8008 40.9545 56.4904 40.9545H60.3136Z" fill="#00585D"/>
<path d="M66.2928 39.5005C65.6366 39.5005 65.3755 39.4938 64.4046 38.3747L62.9517 36.713C62.3357 35.9893 62.0813 35.6811 61.4854 35.6811V35.5806H62.9919C63.648 35.5806 63.9091 35.5806 64.88 36.7063L66.3329 38.368C66.9556 39.085 67.2034 39.3932 67.7993 39.3932V39.4937H66.2928V39.5005Z" fill="#00585D"/>
</g>
<defs>
<clipPath id="clip0_583_3419">
<rect width="68" height="46" fill="white"/>
</clipPath>
</defs>
</svg>
