<svg width="183" height="46" viewBox="0 0 183 46" fill="none" xmlns="http://www.w3.org/2000/svg">
<g clip-path="url(#clip0_583_3496)">
<path fill-rule="evenodd" clip-rule="evenodd" d="M40.8969 8.62712L40.1725 7.78932L39.448 6.98548L38.6896 6.26089L37.886 5.50234L37.1276 4.90229L36.3239 4.30224L35.5202 3.73616L34.6373 3.21536L33.7997 2.72853L32.9168 2.28698L31.9886 1.84544L31.0604 1.48314L30.0983 1.16613L29.1361 0.849128L28.1287 0.611372L27.1213 0.407582L26.1138 0.249078L25.0725 0.12454L24.0311 0.0452881H22.6614L21.654 0.0905748L20.6126 0.169827L19.6052 0.294365L18.5978 0.452869L17.6356 0.656659L16.6735 0.939701L15.7114 1.22274L14.7832 1.53975L13.9003 1.90204L13.0173 2.2983L12.1344 2.73985L11.2968 3.22668L10.4592 3.74748L9.6555 4.31356L8.8971 4.87965L8.13871 5.4797L7.33503 6.20428L6.61059 6.92887L5.88615 7.68742L5.20699 8.44598L4.60707 9.20453L4.0411 10.0084L3.52041 10.8122L2.99972 11.6613L2.55826 12.4991L2.11681 13.3822L1.72063 14.2653L1.35841 15.1484L1.07543 16.1108L0.792444 17.0391L0.554737 18.0015L0.350989 19.0091L0.192518 19.9714L0.068005 20.9791L-0.0112305 22.0207V24.0699L0.068005 25.1115L0.192518 26.1191L0.350989 27.0815L0.554737 28.0891L0.792444 29.0514L1.07543 29.9798L1.35841 30.9082L1.72063 31.8366L2.11681 32.7197L2.55826 33.6028L2.99972 34.4406L3.52041 35.2784L4.0411 36.0822L4.60707 36.886L5.20699 37.6446L5.88615 38.4031L6.61059 39.1617L7.33503 39.8863L8.13871 40.6109L8.8971 41.2109L9.6555 41.777L10.4592 42.3431L11.2968 42.8639L12.1344 43.3507L13.0173 43.7923L13.9003 44.1885L14.7832 44.5508L15.7114 44.8678L16.6735 45.1509L17.6356 45.4339L18.5978 45.6377L19.6052 45.7962L20.6126 45.9207L21.654 46L22.6614 46.034H24.0311L25.0725 45.9547L26.1138 45.8302L27.1213 45.6717L28.1287 45.4679L29.1361 45.2301L30.0983 44.9131L31.0604 44.5961L31.9886 44.2338L32.9168 43.7923L33.7997 43.3507L34.6373 42.8639L35.5202 42.3431L36.3239 41.777L37.1276 41.177L37.886 40.5769L38.6896 39.8184L39.448 39.0938L40.1725 38.2899L40.8969 37.4521L41.4968 36.6936L42.0175 35.935L42.5382 35.1312L43.0136 34.3273L43.4551 33.4895L43.8965 32.6064L44.2588 31.7234L44.621 30.8403L44.9379 29.9119L45.1756 28.9835L45.4133 28.0212L45.6171 27.0588L45.7416 26.0512L45.8661 25.0888L45.9453 24.0812V22.032L45.8661 21.0244L45.7416 20.062L45.6171 19.0544L45.4133 18.0921L45.1756 17.1297L44.9379 16.2013L44.621 15.273L44.2588 14.3899L43.8965 13.5068L43.4551 12.6237L43.0136 11.7859L42.5382 10.982L42.0175 10.1782L41.4968 9.37435L40.8969 8.64977V8.62712ZM10.2328 7.61949L10.3573 7.54024L10.4365 7.46099L10.4818 7.33645V7.01944L10.5271 6.81565L10.5724 6.65715L10.6969 6.45336L10.9006 6.24957L11.1383 5.96653L11.5345 5.64952L11.9307 5.33251L12.3721 5.04947L12.8136 4.76643L13.3003 4.52867L13.7871 4.32488L14.3078 4.12109L14.8284 3.96259L15.3491 3.83805L15.9151 3.7588L16.4358 3.67955H17.4772L17.9979 3.72484L18.5186 3.80409L18.994 3.92863L19.3109 4.00788H19.3901V3.96259L19.3449 3.6003V3.31725L19.3901 3.0795L19.4354 2.87571L19.5599 2.75117L19.6844 2.62663L19.809 2.54738L19.9674 2.50209L20.2844 2.42284H20.8051L20.8843 2.38888L20.9296 2.34359L20.9749 2.18509V2.02658L20.8956 1.86808L20.8503 1.82279L20.7711 1.86808L20.6126 1.94733L20.4542 1.99262H20.3749V1.94733L20.4202 1.86808L20.5447 1.66429L20.7485 1.4605L20.873 1.38125L21.0315 1.33596L21.1899 1.30199L21.3937 1.33596L21.6314 1.4605L21.8351 1.619L21.9596 1.77751L22.0049 2.01526V2.21905L21.9596 2.45681L21.8804 2.69456L21.7559 2.89835L21.6314 3.10214L21.4729 3.26065L21.3144 3.38518L21.156 3.46444H20.9975L20.839 3.38518L20.7145 3.26065L20.6353 3.02289L20.59 2.89835L20.5108 2.8191H20.3523L20.1938 2.86439L20.1146 2.90967L20.0353 2.98893L19.9561 3.11346L19.9108 3.238L19.8656 3.39651L19.9108 3.52104L19.9561 3.64558L20.0353 3.77012L20.3523 3.89466L20.6353 4.05316L20.7937 4.09845H21.156L21.3144 4.05316L21.6767 3.89466L22.0389 3.65691L22.1973 3.4984L22.3219 3.3399L22.4464 3.13611L22.5256 2.93232L22.6048 2.64928L22.7294 2.36623L22.8878 2.08319L23.0916 1.8794L23.3293 1.67561L23.567 1.51711L23.8839 1.43786L24.2009 1.39257L24.6084 1.43786L25.0498 1.51711L25.2536 1.64165L25.3781 1.76618L25.4234 1.84544V1.89072L25.2196 1.84544L25.0159 1.89072L24.7782 1.92469L24.6197 1.96997L24.4612 2.01526L24.2235 2.17376L24.065 2.37755L23.9405 2.61531V2.8191L23.9858 3.02289L24.0311 3.06818L24.1103 3.11346H24.2688L24.7442 2.95496L25.1857 2.90967L25.5479 2.86439L25.9101 2.90967L26.227 2.98893L26.5893 3.11346L27.3137 3.35122L27.5514 3.43047L27.7551 3.47576H27.9136L28.0721 3.39651L28.4343 3.15875L28.5928 3.03421L28.7512 2.98893L28.8758 2.95496L29.0003 3.03421L29.1587 3.15875L29.3172 3.39651L29.5549 3.63426L29.9964 3.99656L31.366 4.9589L33.4148 6.36279L33.5733 6.40807L33.6525 6.32882L33.7318 6.24957L33.777 6.17032L33.9016 5.88728L34.1053 5.64952L34.2638 5.49102L34.4222 5.41177L34.5807 5.33251H34.7392L34.8977 5.3778L35.0222 5.45705L35.1806 5.58159L35.3052 5.70613L35.3844 5.83067L35.4636 5.98917L35.4976 6.14768V6.46468L35.4184 6.58922L35.3391 6.74772L35.2599 6.82698L35.1806 6.87226L35.0561 6.91755L34.9769 6.87226H34.8977L34.7392 6.74772L34.5807 6.58922L34.5015 6.43072V6.35147H34.5354L34.6939 6.43072L34.8184 6.476H34.9429L35.0222 6.43072L35.1014 6.35147V6.19296L35.0222 6.11371L34.8184 5.95521L34.6147 5.90992L34.4562 5.95521L34.2977 6.07975L34.1732 6.23825L34.094 6.39675L34.0487 6.60054V6.80433L34.1279 6.96284L34.2525 7.16663L34.4109 7.37042L34.6147 7.49496L34.8184 7.61949L35.0222 7.66478H35.1806L35.3391 7.54024L35.5429 7.49496L35.6221 7.44967L35.4976 7.68742L35.4184 7.84593L35.2938 7.97047L35.2146 8.04972L35.0901 8.095L34.9656 8.14029L34.7618 8.095L34.3657 7.89121L34.1619 7.81196H34.0827L34.0034 7.85725L33.9242 7.90254L33.845 7.98179V8.14029L33.9242 8.29879L34.0827 8.4573L34.2072 8.53655L34.3657 8.6158L34.6486 8.66109H34.8863L34.9656 8.70638V8.75166L34.9316 8.8762L34.8524 9.00074L34.7279 9.07999L34.6486 9.12528H34.5241L34.3657 9.17057L34.0827 9.09131L33.7997 8.96677L33.562 8.76298L33.3582 8.47994L33.279 8.3554L33.245 8.1969V7.87989L33.279 7.48363V7.32513L33.245 7.16663L33.1998 7.04209L33.1205 6.96284L30.9585 5.4797L28.9097 4.10977L28.7512 4.06449L28.4343 4.0192H27.7551L27.5514 4.09845L27.2684 4.22299L26.8722 4.34753L26.4308 4.47207L25.9554 4.55132L25.4347 4.63057H24.348L23.8273 4.50603L23.7481 4.63057L23.5104 4.86833L23.1934 5.18533L22.752 5.54763L22.435 5.78538L21.9936 5.94388L21.5521 6.06842L20.9862 6.11371L20.6692 6.06842L20.3862 5.98917L20.1485 5.90992L19.9108 5.78538L19.5147 5.50234L19.1185 5.18533L18.677 4.90229L18.394 4.77775L18.0771 4.6985L17.7602 4.61925L17.364 4.57396H16.3566L15.9604 4.65321L15.5189 4.73246L15.1114 4.857L14.7153 5.01551L14.2738 5.25326L13.8776 5.49102L13.4362 5.77406L13.04 6.13635L12.8362 6.37411L12.6778 6.65715L12.3155 7.2572L12.1118 7.54024L11.8741 7.778L11.7156 7.85725L11.5572 7.9365L11.3534 7.98179L11.1157 8.02707L10.9119 8.07236L10.7535 8.11765L10.595 8.1969L10.4365 8.32144L10.2328 8.60448L10.029 8.92149H9.99508V8.8762L9.9498 8.7177V8.55919L10.029 8.27615L10.1536 7.95914L10.2328 7.80064L10.3573 7.72139L10.2328 7.61949ZM8.70467 36.1162L8.50092 36.0709L8.34245 36.0256L8.13871 35.9463L7.98023 35.9011L7.85572 35.8218L7.77649 35.7426L7.69725 35.6633L7.61801 35.5388L7.53878 35.4595L7.41427 35.4142H7.21052L7.08601 35.4595H7.00677L6.88226 35.4142L6.72379 35.3689L6.56532 35.2444L6.32761 35.0406L6.04462 34.8029L5.60317 34.2368L5.20699 33.6707L4.76554 32.9121L4.36936 32.1083L4.08638 31.2252L3.88263 30.3421L3.72416 29.459V28.1344L3.76943 27.6928L3.84867 27.2966L3.97318 26.9003L4.05242 26.6173V26.538H4.01846L3.65624 26.5833H3.37326L3.13555 26.538L2.9318 26.4927L2.80729 26.3682L2.68278 26.2437L2.60354 26.1191L2.56958 25.9606L2.49035 25.6436V25.1228L2.44507 25.0436L2.39979 24.9983L2.24132 24.953H2.08285L1.92438 25.0322V25.1568L2.00361 25.3153L2.04889 25.4738V25.553H2.00361L1.92438 25.5078L1.79987 25.4625L1.67535 25.3832L1.59612 25.304L1.51688 25.1794L1.43765 25.0549L1.39237 24.8964V24.5341L1.51688 24.2963L1.67535 24.0925L1.83382 23.968L2.03757 23.9227H2.27528L2.51299 23.968L2.75069 24.0473L2.95444 24.1718L3.15819 24.2963L3.31666 24.4548L3.44117 24.6133L3.52041 24.7718V24.9303L3.44117 25.0549L3.31666 25.1794L3.07895 25.2587L2.95444 25.304L2.90916 25.4285L2.86389 25.587L2.90916 25.7115L2.95444 25.8361L3.03368 25.9153L3.15819 25.9946L3.2827 26.0399H3.56569L3.6902 25.9946L3.81471 25.9153L3.97318 25.5983L4.0977 25.3153L4.13165 25.1568V24.7945L4.0977 24.636L3.93922 24.2737L3.65624 23.9114L3.53173 23.7529L3.32798 23.5944L3.16951 23.5151L2.96576 23.4359L2.56958 23.3113L2.25264 23.1076L1.96966 22.9038L1.73195 22.6207L1.57348 22.2584L1.49424 22.0999V21.4206L1.57348 20.8998L1.65271 20.696L1.77723 20.5715L1.85646 20.5262H1.90174V20.73L1.94702 21.1715L1.9923 21.3301L2.03757 21.4886L2.24132 21.7263L2.44507 21.8848L2.68278 21.9641L2.88652 22.0094L3.045 21.9641L3.12423 21.8848V21.8395L3.15819 21.7603L3.12423 21.6357L2.99972 21.1602L2.92048 20.7526L2.88652 20.3904L2.92048 20.0281L2.99972 19.6658L3.12423 19.3488L3.36194 18.6242L3.44117 18.3864L3.48645 18.1826V18.0241L3.40721 17.8656L3.16951 17.5033L3.045 17.3448L2.99972 17.1863L2.95444 17.0618L3.03368 16.9372L3.15819 16.7787L3.3959 16.6202L3.67888 16.3372L4.12033 15.7371L5.24095 14.1295L6.32761 12.4878L6.36157 12.3293L6.32761 12.2501L6.2031 12.1708L6.12386 12.1368L5.84088 12.0123L5.60317 11.8538L5.4447 11.6953L5.36546 11.5368L5.32019 11.333L5.27491 11.1745L5.32019 11.016L5.39942 10.8915L5.52393 10.7669L5.64845 10.6424L5.77296 10.5178L5.93143 10.4386L6.0899 10.3933H6.40684L6.56532 10.4726L6.68983 10.5518L6.76906 10.6311L6.81434 10.7103L6.85962 10.8349V10.9141L6.81434 11.0386L6.68983 11.1971L6.53136 11.3217L6.40684 11.4009L6.28233 11.4349V11.4009L6.36157 11.2424L6.40684 11.0839V11.0047L6.36157 10.8801L6.28233 10.8349L6.2031 10.7896L6.12386 10.8349L6.04462 10.8801L5.96539 10.9594L5.88615 11.0839V11.1632L5.84088 11.2424L5.92011 11.4462L5.99935 11.6047L6.15782 11.7293L6.36157 11.8085L6.56532 11.8538H6.76906L6.92753 11.7746L7.13128 11.65L7.28975 11.4915L7.41427 11.2877L7.53878 11.0839L7.58406 10.8801V10.7216L7.45954 10.5631L7.41427 10.4839V10.4046L7.38031 10.2801L7.61801 10.4046L7.77649 10.4839L7.901 10.6084L7.98023 10.6877L8.01419 10.8122L8.05947 10.9367L8.01419 11.1405L7.81044 11.5368L7.73121 11.7406V11.8198L7.77649 11.8991L7.85572 12.0236L7.98023 12.0689H8.05947L8.18398 12.0236L8.38773 11.8198L8.46697 11.6953L8.5462 11.5368L8.59148 11.2198V11.016L8.63676 10.9367H8.68203L8.80655 10.982L8.88578 11.0613L8.96502 11.1858L9.04425 11.2651L9.08953 11.5481L9.0103 11.7859L8.93106 12.0689L8.72731 12.352L8.48961 12.5557L8.36509 12.635L8.20662 12.6803H7.81044L7.44822 12.635L7.08601 12.6803L6.96149 12.7143L6.88226 12.7935L6.72379 13.0313L6.40684 13.5521L5.39942 15.0012L5.27491 15.239L4.43728 16.5297L4.07506 17.0505L4.02978 17.209L3.9845 17.526V18.1713L4.06374 18.3751L4.18825 18.6921L4.31276 19.0544L4.43728 19.4959L4.56179 19.9714L4.60707 20.4922L4.65234 21.013L4.60707 21.5338L4.52783 22.0999V22.1452L4.57311 22.1905L4.73158 22.349L5.01456 22.5528L5.29755 22.8358L5.61449 23.2321L5.739 23.4359L5.86351 23.6736L5.98803 23.9567L6.06726 24.2737L6.11254 24.5907V24.953L6.06726 25.27L6.02199 25.553L5.94275 25.7908L5.81824 26.0285L5.58053 26.4248L5.29755 26.7871L5.01456 27.2739L4.85609 27.5117L4.73158 27.8287L4.65234 28.191L4.60707 28.6325V29.6402L4.73158 30.161L4.85609 30.6365L5.05984 31.1573L5.29755 31.6781L5.45602 31.9611L5.69372 32.2781L5.93143 32.5951L6.21441 32.9121L6.45212 33.1159L6.73511 33.2744L7.33503 33.6367L7.61801 33.8405L7.85572 34.0783L7.93496 34.2368L8.01419 34.3953L8.04815 34.5991L8.09343 34.8368L8.13871 35.0406L8.21794 35.2444L8.34245 35.4482L8.5462 35.652L8.74995 35.8105L8.98766 35.935V35.969H8.94238L8.78391 36.0482L8.70467 36.1162ZM35.8032 38.4145L35.5995 38.573L35.5542 38.6975V39.2183L35.4749 39.3768L35.3504 39.5806L35.192 39.7844L34.909 40.0674L34.5468 40.4297L34.1053 40.7128L33.6638 41.0298L33.2224 41.2675L32.747 41.5053L32.2263 41.743L31.7396 41.9015L31.2189 42.0601L30.6529 42.2186L30.1322 42.2978L29.5662 42.3431L29.0456 42.3884H28.5249L28.0042 42.3431L27.4835 42.2186L26.9968 42.094L26.7138 42.0487L26.6345 42.0034V42.0487L26.7138 42.411V42.6941L26.6685 42.9318L26.5893 43.1356L26.4647 43.2601L26.3402 43.3847L26.2157 43.4639L26.0572 43.5092L25.7403 43.5885H25.2196L25.1404 43.6338L25.0951 43.6791L25.0611 43.8376V44.0413L25.0951 44.1659L25.1404 44.2112L25.2196 44.1659L25.3781 44.0866L25.5366 44.0413H25.6158V44.0866L25.6611 44.1319L25.6158 44.2112L25.4913 44.415L25.2875 44.6188L25.163 44.664L25.0045 44.7093L24.8461 44.7546L24.6423 44.7093L24.4046 44.5848L24.2009 44.4602L24.0764 44.2565L23.9971 44.0527V43.8149L24.0311 43.5772L24.1103 43.3734L24.2348 43.1356L24.3933 42.9318L24.5518 42.7733L24.7102 42.6488L24.8687 42.6035H25.0272L25.1517 42.6488L25.2762 42.8073L25.3554 43.045L25.4347 43.1243L25.5139 43.2035H25.6724L25.8309 43.1583L25.9101 43.113L25.9893 43.0337L26.0233 42.9092L26.1025 42.7846V42.5016L26.0572 42.3771L25.978 42.2525L25.6611 42.128L25.3781 41.9695L25.2196 41.9242H24.9027L24.6989 41.9695L24.3367 42.128L23.9745 42.411L23.816 42.5695L23.6575 42.728L23.5783 42.8865L23.4991 43.0903L23.3746 43.4866L23.1708 43.8489L22.9331 44.1319L22.6162 44.415L22.2992 44.5395L21.903 44.6188L21.4616 44.5735L21.0201 44.4942L20.7824 44.3697L20.6579 44.2904L20.6126 44.2112V44.1659H20.8164L21.2126 44.1206L21.371 44.0753L21.5295 44.03L21.7672 43.8262L21.971 43.6224L22.0502 43.3847L22.0955 43.1809L22.0502 43.0224L22.0049 42.9771L21.9257 42.9318H21.7219L21.2805 43.0564L20.839 43.1356H20.4768L20.1146 43.0903L19.7976 43.0111L19.4354 42.8865L18.711 42.6488L18.3148 42.5242H18.1111L17.9526 42.6035L17.5904 42.8412L17.4319 42.9658L17.3074 43.0111L17.1489 43.0564L17.0244 42.9771L16.8659 42.8526L16.7075 42.6148L16.4698 42.3771L16.0283 42.0148L14.6587 41.0524L13.289 40.124L12.5646 39.6825L12.4061 39.6372L12.3269 39.6825L12.2476 39.7617L12.2024 39.841L12.0778 40.124L11.9194 40.3618L11.7609 40.5203L11.6024 40.5996L11.444 40.6788H11.2855L11.127 40.6335L11.0025 40.5543L10.844 40.4297L10.7648 40.3052L10.6403 40.1807L10.6063 40.0221L10.5271 39.8636V39.7051L10.561 39.5466L10.6063 39.4221L10.6856 39.2636L10.7648 39.1843L10.844 39.1504L10.9233 39.1051L11.0478 39.1504H11.127L11.2855 39.2749L11.41 39.4334L11.4892 39.5919L11.5345 39.6712H11.4892L11.3308 39.5919L11.2062 39.5466H11.0817L11.0025 39.5919L10.9572 39.6712L10.9119 39.7504V39.8297L10.9912 39.9542L11.0704 40.0335L11.1949 40.1127H11.2742L11.3534 40.158L11.5119 40.0788L11.6703 39.9995L11.8288 39.841L11.9081 39.6372L11.9533 39.4334V39.2296L11.8741 39.0711L11.7496 38.8673L11.5911 38.7088L11.3874 38.5503L11.1836 38.4258L10.9799 38.3805H10.7761L10.6969 38.4258L10.6176 38.505L10.5384 38.5503H10.4592L10.3799 38.5956L10.4592 38.3579L10.5837 38.1994L10.6629 38.0748L10.7874 37.9956L10.9119 37.9503L11.0365 37.9163L11.2402 37.9503L11.444 38.0748L11.6477 38.1541L11.8515 38.2333H11.9307L12.0099 38.188L12.1344 38.1427L12.1797 38.0635V37.905L12.1005 37.7465L11.942 37.622L11.8175 37.4974L11.659 37.4521L11.376 37.3729H11.1383L11.0931 37.3389L11.0591 37.2936L11.1383 37.1691L11.1723 37.0898L11.2968 37.0106L11.4213 36.9766L11.659 36.9313L11.942 36.9766L12.225 37.1012L12.4627 37.3049L12.6664 37.588L12.7117 37.7125L12.757 37.871V38.9579L12.8023 39.0825L12.8815 39.1617L13.6852 39.6485L15.0888 40.6562L17.1716 41.9808L17.2961 42.0261L17.613 42.0714L18.0545 42.1167L18.2582 42.0714L18.462 41.9921L18.7789 41.8676L19.1411 41.743L19.5826 41.6185L20.058 41.5393L20.5787 41.494L21.0994 41.4487L21.6653 41.494L22.186 41.5732L22.2653 41.5279L22.3445 41.4487L22.6275 41.0864L23.0237 40.7241L23.2614 40.5203L23.5443 40.3618L23.8273 40.2033L24.1896 40.0788L24.5857 39.9995H25.0272L25.3441 40.0448L25.6271 40.124L25.9101 40.2033L26.1478 40.3278L26.544 40.6109L26.9402 40.8939L27.3816 41.177L27.6646 41.3015L27.9815 41.426L28.3438 41.5053L28.7399 41.5506H29.1814L29.7474 41.5053L30.1435 41.426L30.5397 41.3468L30.9472 41.2222L31.3434 41.0637L31.7848 40.86L32.181 40.5769L32.5772 40.2939L32.9734 39.9316L33.1771 39.7278L33.3356 39.4447L33.6978 38.8447L33.9016 38.5617L34.1845 38.3239L34.343 38.1994L34.5015 38.1201L34.7052 38.0861L34.909 38.0409H35.1127L35.2712 37.9616L35.4297 37.9276L35.5881 37.8031L35.7466 37.6786L35.8258 37.5201L36.0296 37.2031H36.0749V37.237L36.1088 37.3616V37.5201L36.0296 37.8031L35.9051 38.1201L35.8258 38.2786L35.7013 38.3579L35.8032 38.4145ZM30.868 34.2707L30.1888 34.4292L29.5436 34.5538L28.9437 34.633L28.3777 34.6783L27.3703 34.7236L26.4421 34.6783L25.6045 34.5538L24.9253 34.3953L24.2801 34.1915L23.7594 33.9877L23.318 33.7499L22.9105 33.5122L23.318 33.9537L23.6009 34.2368L23.9632 34.4745L24.4499 34.8368L24.9366 35.1199L25.412 35.3576L25.9327 35.5954L26.4195 35.7539L26.9062 35.9124L27.8683 36.1954L28.7512 36.3539L29.5549 36.4785L30.7548 36.637L30.1888 36.7955L29.5889 36.954L28.7852 37.0785L27.7778 37.2031H26.6572L26.0572 37.1238L25.4573 37.0445L24.7782 36.92L24.133 36.7615L23.3746 36.4785L22.6954 36.2407L21.8125 35.8444L21.0088 35.4482L20.3296 35.0066L19.7297 34.5651L19.2543 34.1236L18.8581 33.7273L18.4959 33.2857L18.2129 32.9235L17.896 32.4819L17.6922 32.1649L17.8168 32.6857L18.0545 33.4443L18.2922 33.965L18.5752 34.4519L18.8581 34.8934L19.1751 35.301L19.8203 36.1048L20.4655 36.7502L21.1446 37.3502L21.7446 37.8257L22.7067 38.6296L22.8652 38.7541H22.8312L22.7067 38.7088L22.3898 38.6296L21.8691 38.4711L21.2239 38.2673L20.4994 37.9503L19.6958 37.5427L19.2543 37.3049L18.8129 36.9879L18.3714 36.7049L17.9752 36.3426L17.5338 35.9463L17.0923 35.5048L16.6509 35.018L16.2547 34.4972L15.5302 33.5688L15.0096 32.6857L14.6021 31.8479L14.2851 31.0893L14.0814 30.41L13.9569 29.7647L13.8776 29.1986L13.8323 28.6778L13.7871 28.3608L13.6286 28.8816L13.5041 29.5609L13.4248 30.161V30.727L13.4588 31.2931L13.5041 31.8592L13.5833 32.38L13.7078 32.9008L13.9455 33.8632L14.2625 34.701L14.5455 35.4595L14.8284 36.0596L14.9869 36.5464L14.5794 36.1841L14.138 35.7426L13.6173 35.0972L13.0513 34.2594L12.7683 33.8179L12.4853 33.2971L12.2476 32.731L12.0099 32.1649L11.8062 31.5196L11.6477 30.8742L11.4892 30.1949L11.41 29.5496L11.2515 28.3835L11.2176 27.3419L11.2968 26.4135L11.4213 25.6096L11.5798 24.9303L11.7835 24.285L11.9873 23.7642L12.1458 23.4472L12.225 23.1302L11.9081 23.4472L11.5119 23.934L11.1497 24.4548L10.8667 24.9417L10.629 25.4172L10.3913 25.938L10.1875 26.4248L10.029 26.9116L9.79133 27.874L9.58758 28.7571L9.46307 29.5609L9.38383 30.2063L9.25932 30.727L9.10085 30.2063L8.97634 29.6062L8.81787 28.7571L8.73863 27.7947V27.2286L8.78391 26.6626L8.82919 26.0625L8.90842 25.4172L9.06689 24.7718L9.22536 24.1265L9.46307 23.4472L9.66682 22.8472L9.90452 22.2811L10.1422 21.7603L10.6629 20.8772L11.1497 20.0733L11.6703 19.428L12.191 18.9072L12.6664 18.4996L13.1079 18.1826L13.3117 17.9788L13.5154 17.7411L13.0739 17.8656L12.5872 18.0241L11.8288 18.3864L11.1497 18.828L10.5045 19.2695L9.93848 19.7563L9.41779 20.2318L8.97634 20.7526L8.17266 21.681L7.68593 22.3264L7.24448 22.8019L7.27843 22.5981L7.43691 22.0773L7.71989 21.2734L7.92364 20.7866L8.16134 20.2658L8.55752 19.462L8.79523 19.0544L9.07821 18.6581L9.39515 18.2506L9.75737 17.809L10.1196 17.4014L10.561 17.0052L11.4892 16.2013L12.4174 15.556L13.2551 14.9899L14.0135 14.5937L14.7718 14.3106L15.4171 14.1068L16.0623 13.9483L16.6282 13.8691L17.0244 13.7898L17.1489 13.7106L17.2734 13.6313L16.4698 13.5068L15.8698 13.4275H14.7492L14.2285 13.4728L13.7078 13.5521L13.1871 13.6766L12.225 13.9143L11.3874 14.1974L10.6629 14.4804L9.54231 14.922L9.90452 14.5257L10.3799 14.0842L10.9799 13.5634L11.8175 12.9973L12.259 12.7595L12.7796 12.4765L13.3456 12.2387L13.9116 12.001L14.5568 11.7972L15.202 11.6387L15.9604 11.4802L16.6848 11.3556L17.33 11.2764L17.9752 11.2311H19.0958L20.024 11.3104L20.59 11.4349L21.0767 11.5594L21.5182 11.684L21.8804 11.8425L22.1181 11.9217L22.2766 12.001H22.718L22.4803 11.7632L22.1634 11.5594L21.6767 11.1971L21.1899 10.8801L20.6692 10.6424L20.1938 10.4046L19.7071 10.2008L19.2204 10.0423L18.2582 9.75929L17.3753 9.5555L16.5716 9.43096L15.4057 9.27246L15.9264 9.11396L16.5263 8.98942L17.33 8.83091L18.3374 8.75166H18.8581L19.4581 8.79695L20.058 8.84224L20.7032 8.96677L21.3484 9.09131L21.9936 9.2951L22.3558 9.37435L22.718 9.49889L23.6462 9.90647L24.4839 10.3027L25.2083 10.7103L25.8535 11.1519L26.3742 11.5481L26.8496 11.9557L27.2458 12.352L27.5627 12.7595L27.8004 13.0426L28.0381 13.2464L27.7212 12.5671L27.4835 12.0463L27.2005 11.5255L26.8836 11.0839L26.5666 10.6424L26.2497 10.2008L25.8875 9.83854L25.163 9.15924L24.4839 8.55919L23.8386 8.08368L22.8765 7.3591L23.4425 7.48363L24.0424 7.64214L24.8461 7.92518L25.729 8.32144L26.2157 8.55919L26.6911 8.8762L27.2118 9.19321L27.7325 9.58947L28.2192 9.98573L28.6947 10.4726L29.4983 11.3556L30.1435 12.1935L30.6642 12.952L31.0717 13.7106L31.3887 14.3899L31.6716 15.0352L31.8301 15.6352L31.9546 16.156L32.0339 16.7221L32.1131 16.9599L32.2376 17.1976L32.3168 16.8014L32.3621 16.5976V16.3598L32.4074 15.7598V14.6389L32.3282 14.0729L32.2489 13.5521L32.1244 13.0313L31.8867 12.1029L31.5698 11.2651L31.2868 10.5065L31.0038 9.90647L30.8453 9.38568L31.2415 9.78194L31.683 10.2235L32.2037 10.8688L32.7696 11.6727L33.0866 12.1142L33.3695 12.635L33.6073 13.1558L33.845 13.7558L34.0827 14.4012L34.2411 15.0465L34.4788 16.1334L34.6034 17.141L34.6826 18.0241V18.8619L34.6486 19.5865L34.5694 20.2318L34.4449 20.8319L34.2864 21.3527L34.0034 22.032L33.8789 22.3943L33.7997 22.7566L34.1166 22.3943L34.4336 21.9527L34.7958 21.4772L35.0788 20.9904L35.3165 20.5036L35.5542 19.9828L35.7127 19.5073L35.8711 19.0204L36.1541 18.0581L36.3126 17.175L36.4371 16.3712L36.5956 15.1711L36.754 15.7371L36.9125 16.3372L37.037 17.141L37.1615 18.1487V19.2695L37.0823 19.8696L37.0031 20.4696L36.8785 21.1489L36.7201 21.7942L36.4824 22.4396L36.2786 23.0849L35.8372 24.1265L35.3618 25.0549L34.8411 25.8587L34.3543 26.5041L33.8676 27.0249L33.3922 27.4664L32.9507 27.7834L32.6338 28.0212L32.3168 28.2589L32.8375 28.1344L33.4375 27.8513L34.1959 27.489L34.9203 27.0475L35.5655 26.572L36.1315 26.0852L36.6974 25.5644L37.1389 25.0436L37.9426 24.1152L38.384 23.5151L38.701 23.0396L38.6557 23.2434L38.5312 23.7642L38.3274 24.5228L38.1237 25.0096L37.9199 25.4964L37.4785 26.3003L36.9578 27.1381L36.6408 27.5796L36.2786 28.0212L35.9164 28.4174L35.4749 28.8137L34.9995 29.3005L34.5128 29.6968L34.0374 30.1044L33.5507 30.4214L32.6677 30.9874L31.8641 31.395L31.1057 31.712L30.4265 31.9158L29.7813 32.0743L29.2153 32.1536H28.7399L28.3438 32.1989L28.5815 32.2781L28.8644 32.3574L29.5889 32.4819L30.1888 32.5272H31.3094L31.8754 32.4479L32.3961 32.3687L32.9168 32.2442L33.8789 32.0064L34.7166 31.7234L35.4749 31.4063L36.5956 30.9648L36.1994 31.3611L35.7579 31.8026L35.1127 32.3234L34.3091 32.8895L33.8223 33.1725L33.3469 33.4556L32.7809 33.7386L32.181 33.9764L31.5358 34.1802L30.8906 34.3387L30.868 34.2707ZM43.1495 20.0281L43.1042 19.9488L43.025 19.9035L42.9004 19.8243L42.7759 19.779L42.6514 19.7337L42.4929 19.779L42.3684 19.8243L42.2892 19.9035L42.1307 20.2205L42.0062 20.5036L41.9723 20.8206V20.9791L42.0062 21.1829L42.1647 21.5452L42.4024 21.8622L42.5609 22.0207L42.7193 22.1792L42.8778 22.3037L43.0816 22.383L43.4777 22.5075L43.8399 22.7113L44.1229 22.9151L44.3606 23.1981L44.5191 23.5151L44.5983 23.7189V24.3982L44.5191 24.8737L44.3946 25.1115L44.2701 25.1907L44.1908 25.236H44.1569L44.1908 25.0775V24.8737L44.1116 24.636V24.4775L44.0324 24.319L43.8739 24.0812L43.6702 23.9227L43.4325 23.7982H43.2287L43.0702 23.8435L42.991 23.8888L42.957 23.934V24.1378L43.1155 24.6247L43.1495 25.0209L43.1947 25.4172L43.1495 25.7795L43.0702 26.0965L42.991 26.4588L42.708 27.1834L42.5835 27.5909V27.7947L42.6627 27.9532L42.9457 28.3155L43.025 28.474L43.1042 28.5986V28.7571L43.0589 28.8816L42.9344 29.0401L42.6967 29.1986L42.4137 29.4817L41.9723 30.0477L40.8516 31.6554L40.0932 32.7763L39.731 33.3424V33.4669L39.765 33.5914L39.8442 33.6367L39.9235 33.716L40.2064 33.8405L40.4441 33.999L40.6026 34.1575L40.6818 34.316L40.7611 34.4745V34.633L40.7158 34.7915L40.6366 34.9161L40.5121 35.0746L40.3875 35.1538L40.263 35.2784L40.1046 35.3237L39.9461 35.4029H39.7876L39.6291 35.3576L39.5046 35.3237L39.3462 35.2444L39.2669 35.1651L39.2217 35.0859L39.1877 35.0066L39.2217 34.8821L39.2669 34.8029L39.3914 34.6444L39.516 34.5198L39.6744 34.4406L39.7537 34.3953V34.4406L39.6744 34.5991L39.6405 34.7236L39.6744 34.8481L39.7197 34.9274L39.7537 34.9727L39.8329 35.018L39.9574 34.9727L40.0366 34.9274L40.1951 34.7236V34.5651L40.1612 34.4066L40.0366 34.2481L39.8782 34.1236L39.7197 33.999L39.516 33.9537L39.3122 33.999L39.1537 34.0783L38.95 34.2028L38.7915 34.3613L38.633 34.5651L38.5085 34.7689L38.4633 34.9727V35.1312L38.5878 35.2897L38.6217 35.3689L38.667 35.4482V35.5274L38.4293 35.4482L38.2708 35.3237L38.1463 35.2444L38.0671 35.1199L38.0218 34.9953V34.8708L38.0671 34.667L38.1463 34.4632L38.2255 34.2594L38.3048 34.0556V33.9764L38.2595 33.8971L38.1803 33.7726L38.0558 33.7273L37.9312 33.7726L37.8067 33.8971L37.6822 33.9424L37.6369 34.0217L37.5577 34.1462L37.5237 34.3047L37.4445 34.5877V34.8255L37.4106 34.8708V34.9161L37.286 34.8708L37.1615 34.7915L37.0823 34.667L37.037 34.5877L36.9917 34.35L37.037 34.0669L37.1615 33.8292L37.32 33.5461L37.5237 33.3424L37.8067 33.2178L37.9312 33.1725H38.9726L39.1311 33.1272L39.1764 33.048L40.6592 30.8403L40.8177 30.5572L42.0175 28.7458L42.0628 28.6212L42.1081 28.2589V27.8627L42.0628 27.6249L41.9836 27.4211L41.8591 27.1041L41.7345 26.7418L41.61 26.3003L41.5308 25.8248L41.4516 25.304V24.7832L41.4855 24.2171L41.5648 23.6963L41.4855 23.617L41.327 23.4585L41.0893 23.2547L40.8064 22.9717L40.4894 22.6094L40.3649 22.3716L40.2064 22.1339L40.1272 21.8508L40.048 21.5678L39.9687 21.2508V20.8885L40.014 20.5715L40.0932 20.2885L40.1725 20.0507L40.297 19.8129L40.5347 19.4167L40.8177 19.0091L40.9762 18.8053L41.1007 18.5676L41.2591 18.2845L41.3384 18.0015L41.4176 17.6392L41.4629 17.1976L41.4968 16.7108L41.4629 16.1447L41.3836 15.6579L41.2591 15.1371L41.0554 14.6616L40.8177 14.1408L40.4215 13.5407L39.9008 12.8954L39.6631 12.6916L39.3801 12.5331L38.7802 12.1708L38.4972 11.967L38.2595 11.7293L38.135 11.5708L38.0558 11.367L38.0105 11.2085L37.9652 10.9707V10.8122L37.9312 10.6537L37.8067 10.3707L37.6483 10.2461L37.4898 10.0876L37.1276 9.88383V9.83854L37.1728 9.79326L37.2974 9.74797L37.4558 9.79326L37.8181 9.87251L37.9765 9.90647L38.101 9.98573L38.2255 10.065L38.3048 10.1895L38.4633 10.3933L38.6217 10.4386H38.701L38.8255 10.3933H39.1085L39.2669 10.4726L39.4707 10.5971L39.6744 10.7556L39.9574 11.0386L40.4441 11.5594L40.8403 12.1255L41.2818 12.8841L41.644 13.7219L41.9609 14.5597L42.1647 15.4428L42.2892 16.3259L42.3345 16.7674V17.209L42.2892 17.6505L42.2439 18.0921L42.1647 18.4883L42.0402 18.8959L42.0062 19.2129L41.9609 19.2921H42.0062L42.3684 19.2129H42.6514L42.8891 19.2582L43.0929 19.3374L43.2174 19.4167L43.3419 19.5412L43.4211 19.6997L43.5004 19.8243L43.5343 20.1413L43.5796 20.4583V20.696L43.6249 20.7753L43.6588 20.8206L43.8173 20.8659H43.9758L44.055 20.8206L44.1343 20.7753V20.73L44.089 20.6507L44.0437 20.4922L44.0097 20.3337V20.2545L44.089 20.2092L44.1343 20.2545L44.338 20.379L44.5417 20.6168L44.587 20.7413L44.6323 20.8998L44.6776 21.0583L44.6323 21.2621L44.5078 21.4999L44.3833 21.7037L44.1795 21.8282L43.9758 21.8735H43.7381L43.5343 21.8282L43.2966 21.749L43.0929 21.6244L42.8891 21.4999L42.7307 21.3414L42.6061 21.1829L42.5269 21.0244V20.8659L42.6061 20.7074L42.7307 20.5828L42.9684 20.5036L43.0476 20.4583L43.1268 20.3337V20.1752L43.0929 20.0167L43.1495 20.0281Z" fill="#D6A812"/>
<path fill-rule="evenodd" clip-rule="evenodd" d="M105.293 11.2311L105.474 11.1519L105.655 11.0273L106.006 10.733L105.915 10.1782H105.112V10.0537L105.157 9.88386L105.383 9.37438L106.142 7.7101L107.172 5.66087L107.659 4.55135L108.111 3.48711L108.066 3.05689V2.96631L108.021 2.92102H107.84L107.523 2.96631L106.991 4.20038L106.538 5.01554L106.357 5.3099L106.266 5.47973L105.281 4.83439L104.795 4.49474L104.342 4.23434L104.025 4.1098L104.297 4.54003L104.478 4.87968L104.523 5.14007L104.478 5.35519L104.342 5.47973L104.116 5.60426L103.538 5.77409V5.09479L103.584 3.64561L103.674 0.611402L103.538 0.351003L103.357 0.135891L103.176 0.0113525H102.859L102.723 0.101926L102.497 0.317038L102.316 1.59639L102.044 3.13614L101.772 4.84571L101.546 6.67982L101.229 6.80436L100.742 6.89494L99.4067 7.11005L97.9805 7.27987L96.9505 7.37045L97.1316 7.66481L97.3127 7.92521L97.4938 8.14032L97.7202 8.35543L97.9918 8.52526L98.2635 8.6498L98.5804 8.72905L98.8974 8.81962L99.2143 8.86491H99.8369L100.199 8.81962L100.822 8.6498L101.139 8.55922L101.41 8.43468L101.501 8.72905V9.0687L101.546 9.40835L101.501 9.79329L101.41 10.1782L101.32 10.348L101.229 10.5179L101.093 10.6424L100.958 10.767L100.29 10.9821L99.5313 11.1972L97.8334 11.6274L95.9543 11.967L94.1206 12.3067L92.3774 12.6464L90.9512 12.986L90.3739 13.1558L89.9211 13.2804L89.6495 13.4502L89.5136 13.5408L89.4684 13.62L89.5589 13.8804L89.6947 14.0955L89.8759 14.3106L90.057 14.4352L90.2834 14.5597L90.4645 14.639L90.6908 14.7295H90.9172L91.8115 14.5144L92.9774 14.2201L95.7053 13.4049L98.2522 12.6803L99.1917 12.4199L99.7237 12.3407L99.9501 12.5558L100.041 12.7256L100.89 12.7709H101.603L101.376 13.1105L101.059 13.5747L100.742 14.0502L100.607 14.2201L100.471 14.3106L99.8029 14.2201H99.3162L99.0898 14.7748L98.954 15.2843L98.8634 15.8391V16.4391L98.5012 16.9939L97.6975 18.0581L96.5316 19.5073L95.1054 21.2961L93.5433 23.2208L91.8454 25.1795L90.1928 27.0136L88.5854 28.6779L88.7213 28.8024L88.8571 28.9269L89.0382 29.0175L89.2193 29.0628H89.6608L90.1475 28.9722L90.6795 28.8024L91.2568 28.508L91.7888 28.1231L92.2756 27.6136L93.3962 26.0739L95.5808 23.0849L97.7202 20.0507L98.5238 18.9865L98.9766 18.477H99.1124L99.203 19.1224L99.2936 20.1413L99.4294 22.066L99.4747 22.1452L99.7463 22.3151L99.6558 22.5302L99.5199 22.7453L99.203 23.1755L99.1124 23.3906L99.0672 23.651V23.7756L99.1124 23.9001L99.203 24.0699L99.2936 24.2398H99.6105L100.018 24.0699L100.38 23.8548L100.776 23.5605L101.173 23.2208L101.535 22.8812L102.022 22.3264L102.203 22.3717L102.384 22.6321L102.474 23.1076L102.61 23.4472L102.791 23.7076L102.972 23.8775L103.199 24.0473L103.47 24.2171L104.229 24.602L104.365 24.5568L104.5 24.5115L104.636 24.4322L104.863 24.1718L105.089 23.8775L105.225 23.4925L105.406 23.0283L105.497 22.5641L105.678 21.4999L105.768 20.3904L105.859 19.3601L105.904 18.511L105.995 17.9109V15.0126L105.859 14.4125L105.814 14.1521L105.723 13.8917L105.587 13.7219L105.451 13.5974L104.874 13.5068H104.602L104.376 13.5521L104.195 13.5974L104.059 13.7219L103.968 13.8917L103.878 14.1521L102.984 14.5824L102.621 14.7522L102.305 14.8314L102.033 14.8767H101.897L101.806 14.8314L101.988 14.5371L102.305 14.0729L103.153 12.9634L104.365 11.4689L104.682 11.3896L105.304 11.2651L105.293 11.2311ZM103.199 22.3264L103.063 22.3717L102.972 22.2471L102.791 22.1226L102.701 22.032L102.655 21.9075L102.701 21.6924H102.791L102.972 21.432L103.289 21.0923L103.244 21.9867L103.199 22.3264ZM103.335 19.8583L102.757 20.4583L102.271 20.8885L102.044 21.0131L101.818 21.1036L101.727 20.8885L101.637 20.5489L101.546 19.6998L101.501 18.8846V18.4544H102.123L102.395 18.4997L102.576 18.6242L102.667 18.6695L102.712 18.7487V18.9638L102.621 19.2582L102.35 19.5979L102.486 19.5526L102.621 19.462L102.984 19.1676L103.425 18.828V19.3035L103.335 19.8583ZM102.078 15.6692L102.123 15.59L102.305 15.4994L102.791 15.239L103.64 14.8994L103.685 15.239L103.731 15.5787L103.776 16.3033L103.731 17.0731L103.685 17.843H103.55L103.278 17.5826L102.961 17.3675L102.644 17.1977L102.327 17.0278L101.705 16.7335V16.3485L101.659 16.0881L101.705 15.9636L101.75 15.873L102.067 15.6579L102.078 15.6692ZM103.414 10.3367L103.187 10.4273L103.414 7.22326L103.64 7.09873L103.867 7.00815L104.353 6.83833L105.474 6.57793V6.83833L105.429 7.09873L105.293 7.39309L105.157 7.73274L104.806 8.37808L104.353 9.05738L103.414 10.3367ZM112.447 13.1105L113.25 13.4049L114.009 13.6993L114.767 14.0842L115.39 14.5144L115.661 14.7295L115.933 14.9899L116.205 15.2503L116.386 15.5447L116.567 15.8844L116.703 16.224L116.793 16.5637L116.839 16.9486V17.3788L116.748 17.9336L116.567 18.5789L116.386 18.8733L116.205 19.1337L115.978 19.3941L115.752 19.6092L115.265 19.9488L114.778 20.2432L114.246 20.413L113.669 20.5036L113.047 20.5489L112.469 20.5036L112.062 20.413L111.62 20.2885L110.726 19.9488L109.605 19.4846L109.56 21.2395L109.515 23.0283L109.424 26.6173L109.379 27.6363L109.334 29.81L109.243 32.1196L109.153 32.9348L109.107 33.2292L109.062 33.3537L108.972 33.5688L108.926 33.6934H108.836L108.7 33.6141L108.655 33.399L108.609 33.0141L108.474 31.9498L108.338 30.4554L108.247 28.7458L108.111 25.1568L108.066 23.5831L108.111 22.3037V20.3451L108.066 19.745L108.021 19.1903L107.93 18.7148L107.84 18.4997L107.794 18.3751L107.568 18.16L107.251 17.7751L106.979 17.3448L106.889 17.175L106.844 17.0845H107.025V17.1297L107.206 17.3448L107.477 17.6845L107.613 17.809L107.794 17.9336L107.93 17.9789L108.021 17.9336L108.066 17.0845L108.111 15.8051L108.066 12.5558L108.021 10.8915L107.93 9.4876L107.794 8.42336L107.704 8.08371L107.659 7.8686L107.704 7.69878L107.885 7.52895L108.508 7.09873L108.734 7.1893L108.87 7.23459L109.006 7.32516L109.051 7.41573L109.141 7.63084L109.232 7.80067L109.368 7.9705H109.685L110.002 7.92521L110.805 7.7101L111.654 7.49498L112.458 7.23459L113.307 6.97419L113.975 6.84965L114.246 6.80436L114.518 6.75908H114.79L115.061 6.83833L115.333 6.96287L115.695 7.22326L115.65 7.39309L115.559 7.65349L115.243 8.20825L114.79 8.88755L114.258 9.61214L113.137 10.9821L112.741 11.5368L112.469 11.9218L112.198 12.352L111.926 12.7822L112.062 12.9973L112.469 13.1219L112.447 13.1105ZM109.855 8.53658L109.719 8.62715L109.628 8.75169L109.538 8.92152L109.492 9.13663L109.402 9.69139L109.356 10.3367V10.9821L109.402 11.6274L109.447 12.6124L109.855 12.3973L110.036 12.2727L110.171 12.1029H110.443L111.292 10.9934L112.503 9.40835L113.533 7.91389L113.85 7.40441L113.941 7.1893V7.06476L113.137 7.35912L111.801 7.78935L110.5 8.25354L110.104 8.42336L109.877 8.5479L109.855 8.53658ZM114.993 18.1034L115.129 17.7638L115.22 17.3788L115.265 17.0392V16.6542L115.22 16.3146L115.129 15.9749L114.993 15.6806L114.812 15.3409L114.586 15.0465L114.314 14.7861L114.043 14.5257L113.771 14.3106L113.454 14.0955L113.092 13.9257L112.775 13.8012L112.413 13.6766L111.96 13.5861L111.473 13.5408L111.077 13.7106L110.715 13.7898L110.307 13.8804L109.866 13.8351L109.775 13.6653L109.685 13.5747L109.504 13.4502L109.413 14.7295L109.368 16.1334V16.858L109.413 17.5373L109.504 18.2166L109.639 18.8167L110.398 18.9865L111.111 19.111L112.005 19.2356H112.899L113.352 19.1563L113.748 19.0657L114.156 18.8959L114.473 18.7261L114.744 18.4317L114.88 18.3072L114.971 18.0921L114.993 18.1034Z" fill="#CA151D"/>
<path fill-rule="evenodd" clip-rule="evenodd" d="M75.1382 6.7478L75.3646 6.83837L75.6362 6.96291L75.9532 7.08745L76.2701 7.17802H76.5871L76.7229 7.13274L76.904 7.04216L77.0398 6.95159L77.1757 6.78176L77.3115 6.56665L77.4021 6.30625L77.4473 5.66092L77.4021 5.10615L77.221 4.59668L76.9946 4.12117L76.7229 3.69094L76.3607 3.35129L75.9985 3.05693L75.557 2.84182L75.1042 2.67199L74.6628 2.54745L74.21 2.45688H73.2705L72.8177 2.58142L72.4215 2.70596L72.0593 2.92107V3.09089L72.2404 3.21543L72.5121 3.47583L73.3158 4.24571L73.7572 4.80047L74.244 5.40052L74.6967 6.04585L75.1382 6.72516V6.7478ZM72.6366 19.5979L73.1686 20.4131L73.927 21.4773L74.8665 22.6661L75.9419 23.9907L78.0473 26.5947L79.8357 28.6439L80.0621 28.2137L80.2885 27.7835L80.4696 27.2287L80.696 26.674L80.8318 26.0399L80.9677 25.3606L81.1035 24.5908L81.194 23.8209L81.4657 23.7303L81.5563 23.685L81.6921 23.5945L81.9638 23.3001L82.326 22.7453L82.4165 23.2548L82.4618 23.9341L82.5071 25.4286L82.5524 26.7985V27.5684L82.6882 28.2137L82.7788 28.8138L82.7335 29.3685L82.6882 29.5836L82.5976 29.844L82.4618 30.0591L82.326 30.2743L82.1449 30.4894L81.9638 30.6592L81.6921 30.829L81.4204 30.9988L80.7526 31.3385H80.6168L80.4356 31.2932L80.164 31.2026L79.8923 30.9422L79.6207 30.6818L78.9981 29.912L78.6812 29.4817L78.2737 29.0968L77.8209 28.4175L77.4247 27.7722L77.1983 27.4778L76.9266 27.1381L76.5644 26.7985L76.1683 26.4136L73.4856 23.0397L71.7877 20.9452L71.0293 21.7603L70.1803 22.6095L69.7389 22.9944L69.2974 23.3341L68.8899 23.5945L68.6635 23.6397L68.4371 23.719H68.2107L67.9844 23.6397L67.7127 23.5152L67.4863 23.3454L67.0788 23.051L66.943 22.9265L66.626 23.6058L66.3091 24.2511L65.9016 24.9304L65.4149 25.655L65.1432 25.9494L64.8715 26.2437L64.5546 26.4588L64.2829 26.6287L63.966 26.7192H63.3887L63.117 26.6287L62.8907 26.5041L62.7095 26.3343L62.4832 26.1645L62.3473 25.9494L62.0304 25.5191L61.4984 24.5794L61.272 24.1492L61.0003 23.8096L60.7287 24.3643L60.457 24.7493L60.1853 25.2248L59.8231 25.7003L59.4609 26.0852L59.2345 26.2551L59.0534 26.3796L58.827 26.4588L58.6459 26.5041L58.2837 26.5494L57.9214 26.5947H57.6045L57.3328 26.5494L57.0612 26.5041L56.8348 26.4249L56.6537 26.3343L56.4726 26.2098L56.1556 25.9494L55.9292 25.6097L55.7934 25.2701L55.6576 24.8851L55.6123 24.5002V24.07L55.6576 23.3907L55.7481 22.8812L55.7934 22.6661L56.1104 22.9604L56.382 23.1303L56.5179 23.2548L56.7895 22.6095L57.0159 21.9641L57.197 21.3188L57.3328 20.6395L57.4687 19.9602L57.514 19.2809L57.6045 18.6016V16.6316L57.4687 15.3976L57.2876 14.288L57.0159 13.3936L57.0612 13.1785L57.1517 13.0087L57.3328 12.9181L57.514 12.8275L57.7856 12.7823H58.0573L58.6798 12.9068L59.3477 13.0766L60.0155 13.2917L60.5475 13.5068L60.9437 13.6767L61.2607 14.0616L61.5323 14.4465L61.8945 15.0919H62.1209L63.4566 13.8578L63.9094 13.3823L64.3508 12.9181L64.6678 12.4879L64.7583 12.2728L64.8489 12.103L63.4679 12.4879L62.9812 12.6124L62.4832 12.6577L61.9964 12.703H61.5436L61.2267 12.6124L60.955 12.5671L60.6381 12.2275L60.3212 11.9331L59.9589 11.718L59.8231 11.6274H59.6873V11.0274L59.7325 10.733L59.7778 10.4726L62.1888 9.65747L63.6151 9.148L64.0679 8.97817L64.2037 8.89892L63.4453 7.66485L61.9738 5.32127L61.521 4.64197L61.0796 3.99663L60.8984 3.73623L60.7626 3.61169L60.5362 3.22676L60.3551 2.84182L60.1287 2.58142L59.8571 2.32102V2.06062L59.9023 1.84551L59.9929 1.72097L60.174 1.50586H60.5815L60.9437 1.55115L61.2607 1.64172L61.5323 1.76626L61.804 1.93608L62.0757 2.19648L62.3473 2.49085L62.619 2.87578L63.0604 3.64566L63.4679 4.41553L64.5433 6.41947L65.1206 7.43842L65.7884 8.50266L66.1846 8.41209L66.9883 8.24226L67.4863 8.11772L67.973 7.9479L68.4258 7.73278L68.788 7.43842L68.9691 7.35917L69.1503 7.2686L69.4219 7.31388L69.6936 7.40446L70.0105 7.57428L70.2822 7.78939L70.5539 8.04979L70.735 8.34416L70.7802 8.46869L70.8255 8.63852L70.7802 8.76306L70.735 8.8876L70.2482 9.5669L69.6257 10.2915L69.0937 10.9368L68.822 11.3218L68.6862 11.6614L68.5503 12.0011L68.4145 12.6011L68.5503 13.1559L68.822 13.7559L69.2634 14.5711L69.9313 15.6353L71.1877 17.6845L71.4141 17.4241L71.6405 17.0845L72.1725 16.0995L72.4895 15.5447L72.8064 14.8994L73.0781 14.2201L73.3497 13.4955L73.395 13.1106L73.4403 12.8162L73.5308 12.5219L73.6214 12.4426L73.7572 12.3181L74.0742 12.4086L74.3458 12.5785L74.5722 12.7483L74.7081 12.9634L74.7986 13.2238L74.8439 13.5182V14.1182L74.7081 14.7975L74.4817 15.4315L74.0855 16.5863L73.2365 18.3412L72.614 19.5753L72.6366 19.5979ZM63.5585 22.9265L64.2263 21.1377L64.6338 20.2432L64.9508 19.3035L65.2677 18.3638L65.4941 17.4241L65.6752 16.5297V15.6353L65.4488 15.6806L65.1772 15.8051L64.9055 15.975L64.5886 16.2354L64.0565 16.7448L63.5698 17.2543L63.2981 17.5147L63.0718 17.7298L62.619 17.9902L62.302 18.1601L62.1662 18.2846L62.0757 18.4544L61.8493 18.9299V19.4394L61.804 19.9942L61.6229 21.0244L61.487 21.7943L61.4418 22.1793V22.5642L61.9738 23.0397L62.4266 23.3794L62.6529 23.5492L62.8793 23.6284H63.0152L63.151 23.5831L63.3774 23.4586L63.5585 22.9491V22.9265ZM66.6939 14.4352L67.1467 14.5598L67.4184 14.6843L67.5542 14.5937L67.4637 14.3786L67.3731 14.2088L67.1467 13.9484H67.1014L66.7053 14.1182V14.4126L66.6939 14.4352ZM70.4407 18.8733L70.3048 18.5337L69.8634 17.7638L69.3766 16.8694L69.105 16.5297L68.8786 16.2354L68.788 16.1448L68.6975 16.0995L68.256 17.6393L67.8033 19.179L67.5769 19.9942L67.3958 20.8093L67.2599 21.5792L67.1694 22.3944L67.7919 22.0094L68.4145 21.5339L68.9465 21.0244L69.4332 20.4697L69.8407 19.9602L70.1577 19.53L70.3841 19.145L70.4293 18.8846L70.4407 18.8733Z" fill="#CA151D"/>
<path fill-rule="evenodd" clip-rule="evenodd" d="M150.242 20.2432L150.197 20.3225L150.152 20.2772L150.016 19.9828L149.88 19.3375L149.789 19.6771L149.744 20.0621L149.654 20.8772V21.6924L149.699 22.5415V24.2511L149.608 25.1002L149.518 25.5304L149.382 25.9154L149.065 26.2097L148.703 26.4701L148.34 26.6853L147.933 26.8551L147.491 27.0249L147.039 27.1042L146.597 27.1947L146.144 27.24L145.205 27.2853L144.265 27.24L143.417 27.1155L142.613 26.9457L142.296 26.7305L142.024 26.5154L141.888 26.3003L141.753 26.0852L141.707 25.8701L141.662 25.6097L141.617 25.0096L141.798 24.07L142.07 23.1755L142.386 22.3264L142.749 21.466L143.111 20.6508L143.518 19.8017L144.367 18.1827V17.9223L144.322 17.7072L144.277 17.5373L144.186 17.4128L144.05 17.2883L143.915 17.1977L143.779 17.1071H143.326L142.964 17.1524L142.602 17.3222L142.285 17.4921L141.526 17.877L140.994 18.1374L140.507 18.3525L140.417 17.6732L140.326 16.9939L140.281 16.3146V16.0202L140.372 15.6806L140.994 15.5108L145.329 14.4012L145.465 14.1861L145.601 13.8918L145.737 13.3823L145.646 13.2125L145.556 13.0426L145.42 12.9181L145.239 12.7936L145.013 12.7483L144.786 12.703L144.254 12.6577L143.632 12.703L142.918 12.8275L142.205 12.9973L141.447 13.2125L139.93 13.6427L138.594 14.1069L137.564 14.3673L137.202 14.4578L136.976 14.4126L137.021 14.1522L137.112 13.8918L137.247 13.6314L137.383 13.4162L137.746 12.986L138.062 12.5558H137.972L137.881 12.6011L137.655 12.7256L137.429 12.986L137.157 13.2804L136.715 13.9257L136.534 14.1861L136.353 14.3559L136.308 14.5258L136.353 14.7409L136.489 15.0805L136.625 15.4655L136.67 15.6806L136.715 15.8957L137.032 16.0655L137.349 16.1561H138.153L139.002 16.0316L139.715 15.907L138.017 20.9452L137.564 21.9302L137.202 22.6547L136.795 23.4699L136.399 24.1945L136.172 24.5341L135.9 24.8285L135.674 25.0436L135.448 25.1682L135.221 25.2474H135.04L134.95 24.953L134.904 24.6587L134.859 24.0586V17.526L134.904 15.7712L135.572 15.5108L136.059 15.2956V15.1258L135.968 15.0013L135.787 14.9107L135.561 14.8654L135.153 14.7862H134.882L134.927 13.1219L135.108 11.7972L135.425 10.4273L135.561 10.0877L135.697 9.79331L135.742 9.49894V9.20458L135.697 8.94418L135.651 8.72907L135.561 8.51396L135.425 8.29885L135.244 8.12902L135.063 8.00448L134.882 7.91391L134.655 7.83466L134.429 7.78937H134.203L133.931 7.83466L133.705 7.87994L133.388 8.09506L133.025 8.35545L132.708 8.52528L132.527 8.61585L132.346 8.66114V8.57057L132.799 8.14034L133.24 7.67615L133.999 6.69117L134.18 6.26094L134.225 5.87601L134.18 5.49107L134.089 5.10613L133.954 4.76648L133.772 4.42683L133.376 3.78149L132.482 4.89102L131.452 6.04583L130.422 7.11007L129.347 8.12902L127.558 9.83859L126.936 10.4839L126.528 10.8689L126.709 11.4689L126.8 11.5595L126.936 11.7293L127.071 11.8991L127.298 12.069L127.569 12.1935L127.705 12.2388L127.886 12.2841H128.067L128.294 12.2388L128.52 12.1482L128.792 12.0237V13.0426L128.747 14.0616L128.701 15.0805L128.566 16.0995L124.14 17.4694L123.653 17.56L122.94 17.6053L122.578 17.6958L122.261 17.7751L122.034 17.8996L121.944 17.9902L121.898 18.0695V18.2846L122.215 18.5789L122.578 18.8393L122.94 18.9639L123.347 19.0544L123.743 19.0997H124.196L124.592 19.0544L125.045 18.9639L125.939 18.7035L126.788 18.3638L127.592 18.0242L128.35 17.7638V18.1487L128.215 19.3035L128.034 20.413L127.807 21.5226L127.581 22.6321L127.309 23.7416L126.992 24.8059L126.675 25.9154L126.313 27.0249L126.132 27.3193L126.041 27.4891L126.087 27.5797V27.625L126.268 27.7155L126.494 27.7608H127.569L127.751 27.5004L128.022 27.1155L128.43 25.8814L128.792 24.6474L129.064 23.4133L129.29 22.1792L129.471 20.9452L129.652 19.7111L129.969 17.2769L130.286 17.1977L130.648 18.6016L130.694 18.6922L130.965 19.1563L131.192 19.7111L131.282 19.9715L131.327 20.2659V20.5602L131.237 20.8206L130.829 20.8659L130.875 20.9905L131.011 21.2056L131.192 21.4999L131.418 21.7603L131.69 22.0207L131.871 22.1113L132.007 22.1566L132.142 22.2019L132.278 22.1566L132.459 22.1113L132.595 22.0207L132.776 21.6358L132.867 21.2961L132.957 20.9565L133.003 20.5715L132.957 20.2319L132.912 19.8922L132.822 19.5526L132.686 19.2582L132.369 18.6129L131.961 17.9676L131.52 17.4128L131.033 16.9033L132.063 16.6882L133.184 16.4278V18.862L133.139 21.2509L133.003 23.6397L132.822 26.1192L132.686 26.2437L132.55 26.3683L132.414 26.4588L132.278 26.5041H132.007L131.735 26.3796L131.463 26.255L131.192 26.0399L130.92 25.8701L130.694 25.7456L130.512 25.655L130.377 25.6097L130.558 25.9493L130.694 26.4249V26.5154L131.226 27.3646L131.497 27.7948L131.814 28.225L132.176 28.6099L132.584 28.9043L132.856 29.0288L133.082 29.1534L133.354 29.244L133.671 29.2892L133.942 29.1647L134.169 28.9949L134.35 28.7798L134.531 28.5194L134.667 28.259L134.757 27.9533L134.893 27.3532L134.938 26.9683L134.984 26.5834L135.21 26.8777L135.346 27.0476L135.617 27.2174L136.15 27.0928L136.512 26.7532L136.874 26.3683L137.236 25.9833L137.553 25.5531L138.13 24.6587L138.617 23.719L139.059 22.734L139.511 21.749L140.27 19.9149L140.632 19.7904L141.039 19.6205L141.571 19.4054L142.058 19.145L142.149 19.4394L141.571 20.7187L141.039 22.0434L140.768 22.8585L140.541 23.7077L140.406 24.6021L140.36 25.5418L140.451 26.0965L140.587 26.572L140.768 27.0023L141.039 27.3419L141.175 27.4665L141.402 27.591L141.854 27.8061L142.432 27.9759L143.1 28.1005L144.084 28.1458L145.114 28.191H146.28L147.401 28.1458L148.567 28.0212L149.687 27.8514L150.219 27.7269L150.706 27.557L151.159 27.3872L151.6 27.2174L151.782 26.923L151.917 26.6287L151.963 26.3343L152.008 25.9946V25.655L151.917 25.1908L151.782 24.5907L151.25 23.2208L150.718 21.7264L150.446 21.0018L150.265 20.2772L150.242 20.2432ZM130.761 15.4089L130.535 15.624L130.354 15.7032L130.218 15.7485L130.128 15.3636V14.1635L130.173 13.3936V12.669L130.445 12.8388L130.761 13.0992L131.124 13.5295L131.395 13.9597L131.305 14.3446L131.169 14.7296L130.988 15.1145L130.761 15.4089ZM133.263 15.1598L132.776 15.2504L132.29 15.3409L131.441 15.6013V15.556L131.803 15.0805L132.199 14.7862L132.561 14.4918L133.003 14.1069L133.048 13.8918L133.093 13.6766V13.4615L133.048 13.2464L132.957 13.0766L132.867 12.9068L132.55 12.5671L132.233 12.3067L131.837 12.0463L131.475 11.8765L131.112 11.752H130.75L130.343 11.7067L129.992 11.6161L129.811 11.5368L129.72 11.4463L129.63 11.367L129.584 11.1972L130.75 10.2122L131.373 9.65745L131.735 9.70273L132.629 9.91785L133.342 9.87256L133.569 9.91785L133.523 11.1972L133.478 12.4765L133.388 13.8012L133.252 15.1711L133.263 15.1598ZM141.039 9.13665L139.658 8.58189L138.991 8.28752L138.278 7.68747L138.006 7.47236L137.779 7.34782L138.051 7.30254L138.232 7.21196L138.64 6.95157H141.051L141.9 7.03082L142.341 7.12139L142.749 7.24593L143.145 7.37047L143.552 7.54029L143.915 7.80069L144.232 8.06109L144.277 9.00079L144.096 9.12533L144.005 9.38573L143.066 9.55555L142.217 9.68009L141.945 9.97446L141.673 10.1896L141.051 10.6538L140.338 11.084L139.67 11.5142L138.198 12.3294L138.515 11.8991L138.877 11.4689L139.274 11.084L139.67 10.7443L140.123 10.3594L140.485 10.0197L140.836 9.6348L141.062 9.24987L141.107 9.12533H141.062L141.039 9.13665Z" fill="#CA151D"/>
<path fill-rule="evenodd" clip-rule="evenodd" d="M172.009 4.43808L172.145 4.73244L172.19 4.85698L172.235 5.0268L172.19 5.15134L172.054 5.36645L171.873 5.53628L171.556 5.79668L170.798 6.18162L170.039 6.52127H170.526L171.511 6.39673L172.088 6.30615L172.62 6.18162L173.107 6.05708L173.503 5.84196L173.684 5.71743L173.82 5.59289L173.956 5.42306L174.046 5.25324L174.092 4.91359V4.57394L174.001 4.23429L173.91 3.97389L173.775 3.71349L173.684 3.58895L173.458 3.37384L173.095 3.11344L172.111 2.43414L170.639 1.41519L170.549 1.46047H170.413L170.141 1.41519L169.869 1.33593L169.643 1.24536L169.734 1.50576L170.005 1.8907L170.718 2.90965L171.477 3.89464L171.964 4.4494L172.009 4.43808ZM176.786 27.0701L177.589 27.2399L178.121 27.3645L178.483 27.4551L178.529 27.0248L178.574 26.7644V26.3002L178.529 26.0851L178.438 25.9153L178.348 25.7002L178.121 25.3605L177.804 25.1001L177.442 24.8397L177.08 24.7152L176.684 24.636H176.231L175.563 24.7152L173.91 24.885L170.956 25.27L171.001 25.1454L171.182 24.885L171.364 24.7152L171.59 24.5001L171.907 24.285L172.258 24.0699L173.469 22.2358L174.273 21.1262L174.409 20.7866L174.499 20.4922V20.2318L174.454 19.9714L174.363 19.7563L174.273 19.5412L174.092 19.3714L173.91 19.2015L173.503 18.9864L173.061 18.8619L172.654 18.7713H172.382L170.775 19.2808L169.439 19.711L169.485 19.4959L169.711 19.2015L170.379 18.3071L171.047 17.458L171.409 17.0278V16.5523L170.152 17.492L169.439 18.0467L168.726 18.6468L168.058 19.2468L167.787 19.5412L167.56 19.8016L167.379 20.062L167.243 20.3224L167.153 20.5375L167.198 20.7526L167.289 20.9677L167.515 21.1376L167.741 21.2621L168.013 21.3074H168.726L169.485 21.2281L170.198 21.0583L170.82 20.8885L171.443 20.6734V20.7187L170.594 22.8585L169.519 25.2926L169.428 25.4172L169.202 25.5417L168.975 25.6323L168.613 25.7228L167.809 25.8927L166.87 26.0172L165.84 26.0965L164.9 26.1417L164.051 26.187H163.383L163.655 27.0022L163.972 27.6815L164.153 27.9759L164.334 28.191L164.47 28.2815L164.561 28.3268H164.651L166.032 28.0664L167.73 27.806L169.564 27.5909L171.443 27.4211L173.231 27.2513L174.793 27.1267L176.005 27.0814H176.763L176.786 27.0701ZM179.785 8.24216L178.982 8.11762L178.178 8.02705L177.329 7.93648H174.918L173.311 8.02705L171.794 8.19687L170.322 8.45727L168.896 8.71767L167.56 9.05732L166.349 9.39697L165.229 9.69134L163.44 10.3367L162.274 10.8009L161.821 10.9707L161.867 10.8461L162.002 10.5518L162.455 9.73662L162.908 8.79692L163.089 8.41199L163.134 8.11762L162.953 8.07234H162.772L162.591 8.11762L162.365 8.2082L161.912 8.4686L161.425 8.85353L160.938 9.31772L160.406 9.87248L159.874 10.4725L159.388 11.1179L158.901 11.7972L158.448 12.4765L158.052 13.1218L157.69 13.7219L157.418 14.2766L157.237 14.7408L157.146 15.0805V15.2503L157.192 15.3409L157.328 15.4654L157.509 15.556L157.871 15.6465H158.233L158.629 15.556L158.992 15.3861L159.354 15.171L159.625 14.8767L159.852 14.5823L160.429 13.9823L161.142 13.303L161.595 12.9633L162.127 12.6237L162.704 12.2387L163.372 11.8538L164.131 11.4688L164.979 11.0839L165.964 10.699L167.04 10.314L168.205 9.92909L169.541 9.58944L171.013 9.24979L172.575 8.91014V8.95543L172.394 9.046L171.635 9.51019L171.545 9.60076L171.499 9.77059L171.59 10.1555L171.726 10.7103V11.8651L171.681 12.4199V13.4388L171.771 13.869L171.816 14.0841L171.907 14.254L172.043 14.3445L172.269 14.4238L172.756 14.5483L173.243 14.6389L173.469 14.6842L173.424 14.8087L173.243 15.0691L172.756 15.6239L172.179 16.0994L171.907 16.3598H172.043L172.314 16.2353L173.163 15.8503L174.725 15.0805L175.133 14.9559L175.529 14.8314L175.891 14.6616L176.254 14.4464L176.389 14.3219L176.48 14.1521L176.525 13.9823L176.571 13.8124L176.48 13.5973L176.389 13.3822L176.072 13.303H174.103L173.786 13.2577L173.56 13.2124V13.0878L173.605 12.4878L174.318 12.3972L174.409 12.2274L174.454 12.1821L175.925 12.0576L177.352 11.933L179.004 11.6726L179.808 11.5028L180.612 11.333L181.325 11.1632L181.947 10.948L182.434 10.6876L182.66 10.5631L182.796 10.4386L182.932 10.314L182.977 10.1895L183.023 10.0197L182.977 9.89513L182.57 9.55548L182.208 9.26111L181.845 9.00071L181.438 8.7856L181.076 8.57049L180.679 8.44595L180.227 8.35538L179.785 8.31009V8.24216ZM173.888 11.8311L173.843 11.6613L173.888 11.4009L174.024 10.8461L174.205 10.3367L174.341 10.0423V9.78191L174.295 9.5668L174.25 9.3064L174.159 9.09129L173.978 8.75164L173.888 8.6271L174.827 8.67239L175.812 8.71767L176.978 8.80825L178.144 8.97807L179.264 9.1479L179.706 9.27243L180.113 9.39697L180.385 9.52151L180.612 9.69134L180.566 9.77059L180.521 9.81588L180.34 9.9857L180.068 10.1555L179.706 10.3706L178.766 10.7103L177.691 11.0952L176.525 11.3896L175.405 11.65L174.51 11.8198H173.888V11.8311ZM165.749 16.7787L166.689 13.9596L167.583 11.1405L167.628 11.016L167.719 10.9254H167.764L167.809 10.9707L167.945 11.0952L168.036 11.3103L168.126 11.5707L168.217 12.1255L168.262 12.7255V14.2653L168.307 14.3106L168.353 14.2653L168.398 14.1408L168.885 13.4615L169.066 13.4162L168.839 13.8464L168.704 14.2313L168.432 14.9559L168.07 16.2353L167.843 16.79L167.707 17.0504L167.572 17.3108L167.345 17.4807L167.119 17.6958L166.847 17.8656L166.53 17.9901L166.213 17.8203L165.987 17.6505L165.806 17.4354L165.715 17.2655V16.79L165.749 16.7787Z" fill="#CA151D"/>
<path fill-rule="evenodd" clip-rule="evenodd" d="M60.5248 37.5087L61.1247 37.5427L61.7247 37.6106L62.2906 37.7125L62.8566 37.8823L62.7887 36.3652L61.6681 36.2294L60.7512 36.1954H60.1852L59.6193 36.2633L59.0873 36.3313L58.5892 36.4671L58.1364 36.6369L57.7516 36.8068L57.3667 37.0445L57.0158 37.3162L56.7328 37.588L56.4498 37.9276L56.2348 38.2673L56.0537 38.6749L55.9178 39.0824L55.816 39.5579L55.748 40.0335V41.0071L55.816 41.4826L55.8839 41.8902L56.0197 42.2638L56.2008 42.6374L56.3819 42.9771L56.631 43.2488L56.9139 43.5205L57.2309 43.7583L57.5478 43.9621L57.9327 44.1659L58.3515 44.3017L58.7703 44.4036L59.257 44.4716L59.7438 44.5395H60.3097L61.2266 44.5055L62.4944 44.3697L62.7095 42.7167L62.1435 42.8526L61.6115 42.9544L61.0795 42.9884L60.5927 43.0224L60.2079 42.9884L59.857 42.9544L59.54 42.9205L59.257 42.8526L58.9741 42.7507L58.725 42.6148L58.476 42.4789L58.2609 42.3431L58.0798 42.1733L57.8987 41.9695L57.7629 41.7317L57.661 41.494L57.5931 41.2562L57.5252 40.9845L57.4912 40.6788V40.0448L57.5252 39.7391L57.5931 39.4334L57.661 39.1617L57.7969 38.9239L57.8987 38.6862L58.0798 38.4824L58.2609 38.2786L58.476 38.1088L58.725 37.9729L58.9741 37.837L59.257 37.7352L59.54 37.6333L59.857 37.5653L60.1739 37.5314H60.5248V37.5087ZM97.2788 40.9732H98.7163L98.6144 42.8186L98.3315 42.8865L98.0485 42.9544L97.7315 42.9884H96.9958L96.6788 42.9544L96.3279 42.8865L96.0449 42.8186L95.762 42.7167L95.5129 42.6148L95.2639 42.4789L95.0488 42.3431L94.8677 42.1393L94.6866 41.9695L94.5847 41.7317L94.4829 41.494L94.381 41.2562L94.3131 40.9845L94.2791 40.6788V40.0335L94.3131 39.6938L94.381 39.3881L94.4829 39.1164L94.5847 38.8786L94.7206 38.6409L94.8564 38.4031L95.0375 38.1993L95.2526 38.0295L95.5016 37.8937L95.7506 37.7578L96.0336 37.6559L96.3166 37.588L96.6675 37.52L96.9845 37.4861H97.3693L98.0372 37.52L98.7729 37.588L99.4747 37.7578L100.177 37.9616L100.109 36.4105L99.1578 36.2747L98.422 36.2067L97.8221 36.1388H96.7694L96.2374 36.2067L95.7393 36.3086L95.2865 36.4105L94.8677 36.5803L94.4829 36.7841L94.098 37.0219L93.7811 37.2936L93.4641 37.5653L93.2151 37.905L93 38.2786L92.8189 38.6522L92.6831 39.0598L92.5812 39.5353L92.5133 40.0108V40.9505L92.5812 41.3921L92.6491 41.7996L92.785 42.1733L92.9208 42.5129L93.1359 42.8526L93.3509 43.1582L93.6339 43.43L93.9169 43.6677L94.2678 43.9055L94.6187 44.0753L95.0036 44.2112L95.3884 44.347L95.8412 44.4149L96.294 44.4829H96.792L97.641 44.4489L98.4899 44.381L99.3728 44.2791L100.256 44.1093L100.573 39.6712H97.3693L97.2674 40.9845L97.2788 40.9732ZM109.006 36.9087L108.791 36.7728L108.542 36.6709L108.292 36.569L108.043 36.5011L107.727 36.4332L107.376 36.3992L106.391 36.3652H102.621L102.203 44.3017H106.006L106.493 44.2678L106.945 44.2338L107.398 44.1319L107.817 43.996L108.168 43.8602L108.553 43.6564L108.87 43.4186L109.187 43.1469L109.436 42.8412L109.685 42.5016L109.9 42.1619L110.081 41.7543L110.183 41.3468L110.285 40.9392L110.319 40.4637L110.353 39.9882L110.319 39.4787L110.251 39.0032L110.149 38.5277L110.013 38.1201L109.798 37.7465L109.583 37.4068L109.3 37.1011L108.983 36.8294L109.006 36.9087ZM108.225 41.4487L108.043 41.7543L107.862 41.9921L107.647 42.2299L107.398 42.4336L107.183 42.5695L107.002 42.6714L106.787 42.7733L106.538 42.8073L106.289 42.8752L105.938 42.9092L105.055 42.9431H104.172L104.421 37.7578H105.904L106.674 37.7918L107.172 37.8597L107.489 37.9616L107.738 38.1314L107.919 38.2673L108.055 38.4711L108.157 38.6749L108.259 38.9126L108.36 39.1843L108.394 39.49L108.428 39.7957V40.4976L108.36 40.8373L108.292 41.1769L108.191 41.4826L108.225 41.4487ZM118.016 36.2633L117.948 40.6675L117.88 41.2788L117.812 41.7883L117.642 42.1959L117.574 42.3657L117.472 42.5016L117.337 42.6035L117.201 42.7054L117.065 42.8073L116.884 42.8752L116.465 42.9431L115.967 42.9771L115.514 42.9431L115.163 42.8752L114.846 42.7733L114.597 42.6035L114.416 42.3657L114.28 42.094L114.213 41.7543L114.179 41.3128L114.462 36.2633H112.594L112.379 41.777V42.0827L112.413 42.3884L112.481 42.6601L112.583 42.8978L112.684 43.1356L112.854 43.3734L113.035 43.5771L113.25 43.747L113.465 43.8828L113.748 44.0187L114.031 44.1545L114.348 44.2564L114.665 44.3244L115.016 44.3583L115.401 44.3923L115.82 44.4263L116.488 44.3923L117.088 44.3244L117.654 44.1885L118.152 44.0187L118.57 43.7809L118.921 43.5432L119.17 43.2375L119.272 43.0677L119.374 42.8978L119.476 42.6261L119.578 42.2865L119.646 41.8449L119.714 41.3015L119.929 36.252H118.027L118.016 36.2633ZM88.5176 42.0827L86.016 36.3652H82.9145L82.4617 44.3017H84.4313L84.7822 37.9729L87.5215 44.3017H90.34L90.7588 36.3652H88.8232L88.5063 42.0827H88.5176ZM70.7009 39.4674H66.5807L66.7618 36.3766H64.8262L64.3734 44.313H66.343L66.5241 40.9165H70.6104L70.4406 44.313H72.4101L72.8289 36.3766H70.8594L70.7236 39.4674H70.7009ZM74.3231 44.3017H80.4808L80.5488 42.8865H76.3606L76.4625 40.8033H80.6506L80.7525 39.3881H76.5643L76.6323 37.7691H80.8544L80.9223 36.3539H74.7646L74.3118 44.2904L74.3231 44.3017Z" fill="#CA151D"/>
<path fill-rule="evenodd" clip-rule="evenodd" d="M145.794 39.8636L145.997 39.5693L146.178 39.2296L146.28 38.856L146.314 38.4824L146.28 38.1541L146.246 37.8484L146.145 37.5767L145.997 37.3049L145.862 37.0785L145.68 36.8747L145.477 36.7049L145.228 36.569L144.979 36.4671L144.662 36.3992L144.277 36.3652H143.677H139.987L139.557 44.3017H141.492L141.843 37.6785L142.409 37.6446H142.907H143.36L143.711 37.6785L143.994 37.7465L144.209 37.8484L144.345 37.9503L144.458 38.1201L144.526 38.3239L144.56 38.5843L144.526 38.856L144.413 39.1277L144.277 39.3315L144.096 39.5013L143.824 39.6259L143.507 39.7278L143.145 39.7957H142.726H142.341L141.99 39.7617L143.994 44.3017H145.963L145.16 42.6261L144.277 40.7694L144.775 40.6109L145.16 40.3731L145.511 40.1354L145.794 39.8636Z" fill="#CA151D"/>
<path fill-rule="evenodd" clip-rule="evenodd" d="M182.683 41.3808L182.547 41.109L182.298 40.8713L182.049 40.6449L181.732 40.3731L179.695 38.7541L179.581 38.6522L179.514 38.5164L179.446 38.3918V38.256V38.0522L179.514 37.9163L179.661 37.7465L179.797 37.6446L180.012 37.5427L180.249 37.4748L180.498 37.4408H180.815H181.2L181.596 37.5088L182.083 37.6446L182.615 37.8144L182.502 36.3992L181.947 36.2973L181.415 36.2294L180.928 36.1954H180.43L179.797 36.2294L179.231 36.3313L178.993 36.3992L178.778 36.4672L178.563 36.5691L178.393 36.7049L178.212 36.8408L178.076 36.9766L177.929 37.1465L177.861 37.305L177.759 37.5088L177.725 37.6786L177.68 37.9163V38.1541V38.4258L177.725 38.6862L177.827 38.924L177.929 39.1617L178.11 39.3995L178.314 39.6259L178.597 39.8976L178.948 40.1693L180.781 41.6185L180.996 41.8223L181.132 42.0148L181.245 42.1846L181.279 42.3544L181.245 42.5243L181.166 42.6941L181.064 42.8299L180.883 42.9318L180.713 43.0337L180.464 43.0903L180.215 43.1243L179.898 43.1583L179.412 43.0903L178.812 42.9998L178.178 42.796L177.476 42.4903L177.578 44.0414L178.042 44.2112L178.631 44.3357L179.298 44.4376L180.046 44.4716L180.679 44.4376L180.996 44.4037L181.245 44.3357L181.517 44.2452L181.766 44.1433L181.981 44.0414L182.196 43.9055L182.366 43.7696L182.547 43.5998L182.683 43.43L182.785 43.2262L182.898 43.0337L182.932 42.8299L183 42.5922V42.3544L182.966 42.1167L182.932 41.8563L182.83 41.6185L182.683 41.3808Z" fill="#CA151D"/>
<path fill-rule="evenodd" clip-rule="evenodd" d="M125.373 44.3017H127.66L132.097 38.1201L131.78 44.3017H133.715L134.168 36.3652H131.044L125.373 44.3017Z" fill="#CA151D"/>
<path fill-rule="evenodd" clip-rule="evenodd" d="M135.651 44.3017H137.587L138.051 36.3652H136.07L135.651 44.3017Z" fill="#CA151D"/>
<path fill-rule="evenodd" clip-rule="evenodd" d="M155.471 44.3017H157.407L157.871 36.3652H155.89L155.471 44.3017Z" fill="#CA151D"/>
<path fill-rule="evenodd" clip-rule="evenodd" d="M165.433 42.0827L162.965 36.3652H159.841L159.411 44.3017H161.346L161.697 37.9842L164.448 44.3017H167.266L167.719 36.3652H165.749L165.433 42.0827Z" fill="#CA151D"/>
<path fill-rule="evenodd" clip-rule="evenodd" d="M150.366 36.3652H148.431L147.978 44.3017H153.468L153.536 42.8978H150.016L150.366 36.3652Z" fill="#CA151D"/>
<path fill-rule="evenodd" clip-rule="evenodd" d="M171.636 36.3652H169.655L169.236 44.3017H175.36L175.428 42.8978H171.239L171.387 40.8033H175.575L175.643 39.3994H171.454L171.522 37.7804H175.744L175.824 36.3652H171.636Z" fill="#CA151D"/>
</g>
<defs>
<clipPath id="clip0_583_3496">
<rect width="183" height="46" fill="white"/>
</clipPath>
</defs>
</svg>
