<svg width="289" height="46" viewBox="0 0 289 46" fill="none" xmlns="http://www.w3.org/2000/svg">
<g clip-path="url(#clip0_572_1915)">
<path d="M24.5082 25.875L23.6636 28.012H15.4635L16.0317 25.875H24.5082ZM12.4844 27.9967H3.62402L4.53002 25.8596H13.114L12.4998 27.9967H12.4844ZM32.739 13.8215H18.1354L18.719 11.2386H30.3742L31.8176 4.5508H49.9531L51.3044 0H30.021L28.7004 6.9492H16.907L14.0354 21.1243H2.5491L0 32.7627H11.4249L8.70685 46.0154H33.4147L36.5319 32.0401H44.1639L45.4231 27.6892H34.9656L31.7716 41.5261H12.8683L13.2676 39.4352H29.6064L32.7083 25.4906H45.6841L46.8972 21.0936H31.1266L28.0247 34.9305H14.1275L14.5575 32.7473H25.5677L28.1629 21.0782H16.8762L17.4598 18.2032H34.3514L35.8409 11.4693H48.7553L50.0145 6.91845H33.9828L32.739 13.8369V13.8215Z" fill="#247C3B"/>
<path d="M74.8296 3.85891L74.4303 4.25864C74.4303 4.25864 74.3228 4.38164 74.2768 4.48926C74.2153 4.59688 74.1539 4.98123 74.0925 5.64233C74.0157 6.30343 73.985 6.70316 73.985 6.82615C73.985 6.99527 73.985 7.10289 74.0003 7.13364L74.1078 7.62562L74.3996 7.94848L76.5494 7.64099L77.9008 7.5795H78.6686C78.7914 7.54875 78.8682 7.54875 78.8989 7.53337C78.945 7.53337 79.1907 7.5795 79.6053 7.65637C80.0199 7.73324 80.3577 7.84086 80.5881 7.94848L81.6937 8.48658L82.0315 8.68645C82.784 9.11693 83.2907 9.45516 83.5671 9.68578C83.8435 9.93177 84.0432 10.1316 84.1353 10.3161C84.2275 10.5006 84.2582 10.6236 84.2121 10.6697L84.1814 10.7005L84.1046 10.9004C84.1046 10.9004 84.0432 10.9926 83.9971 11.0387C83.9357 11.0848 83.8896 11.1156 83.8589 11.131L83.4289 11.3616C83.3368 11.4385 83.1679 11.5922 82.9222 11.8689C82.6765 12.1303 82.3847 12.53 82.0315 13.0528C81.6783 13.5755 81.4941 13.8522 81.4941 13.8522L80.8645 14.4979C80.8031 14.5748 80.7263 14.7286 80.6341 14.9284C80.542 15.1437 80.4806 15.3743 80.4652 15.6356L80.3884 16.4505C80.3884 16.5581 80.3577 16.6657 80.3117 16.7733C80.2656 16.881 80.2042 16.9886 80.0967 17.0501H78.4997L76.6876 17.1423L75.0599 17.3576C74.6914 17.4037 74.4764 17.4498 74.415 17.4959C74.3535 17.5421 74.2921 17.6036 74.2614 17.6651C74.2153 17.7419 74.1846 17.9725 74.1539 18.3569L73.8468 22.262L73.8161 22.6771L73.7393 23.3843C73.7393 23.4919 73.77 23.5534 73.7854 23.5534V23.0922V24.9064L73.9236 26.9665C73.9389 27.3663 73.985 27.6584 74.0311 27.8429L74.1386 28.258L74.1846 28.5347C74.246 28.8114 74.2768 28.9652 74.2768 28.9806C74.2614 29.1036 74.2153 29.2112 74.1386 29.2727C74.0618 29.3342 73.77 29.411 73.2633 29.534C72.7565 29.6417 72.4648 29.7032 72.4033 29.7032C72.2958 29.7032 72.1116 29.6878 71.8505 29.6109C71.5741 29.534 71.4205 29.4725 71.3898 29.411C71.3591 29.3495 71.3284 29.3034 71.313 29.2266C71.2977 29.1651 71.2823 29.1036 71.267 29.0574C71.267 29.0113 71.267 28.9498 71.313 28.8883C71.3284 28.8114 71.4205 28.6577 71.5741 28.4117C71.7277 28.1811 71.8044 27.9966 71.8352 27.8736C71.8659 27.7506 71.8812 27.5815 71.8966 27.3663C71.8966 27.151 71.9119 26.9973 71.9119 26.8897V24.7834C71.9119 24.4144 71.9119 24.1223 71.9119 23.907C71.9119 23.6918 71.9119 23.661 71.9119 23.7994C71.9119 23.9378 71.8198 23.3074 71.6662 21.9237V21.3703L71.5434 19.6791L71.4666 18.8181C71.4666 18.5106 71.4666 18.3262 71.4359 18.2647C71.3591 18.1109 71.2056 18.0187 70.9752 18.0187C70.8831 18.0187 70.6835 18.0648 70.361 18.1263L69.0404 18.4184L68.81 18.4799L67.3973 19.0026C67.2437 19.0641 67.1362 19.0487 67.0594 18.9719C66.9827 18.895 66.9212 18.8181 66.8905 18.7566L66.2149 17.5728C66.092 17.3729 65.9231 17.1577 65.7542 16.9271L64.8942 15.897C64.3107 15.1283 63.85 14.2673 63.4815 13.2987C63.1283 12.3455 62.944 11.6076 62.9594 11.131C62.9594 10.7005 63.0669 10.4237 63.2358 10.2854C63.4047 10.147 63.8193 10.0548 64.4796 10.024L65.7695 9.97789L66.3531 9.82415L66.7216 9.7319L68.2265 9.22455L69.0711 9.00931L70.0078 8.68645L70.7295 8.50196C70.8524 8.45583 70.9599 8.37896 71.0059 8.28671C71.0674 8.19447 71.1134 8.10222 71.1288 8.04073C71.1595 7.96385 71.1595 7.88698 71.1595 7.76399C71.1595 7.65637 71.1441 7.47188 71.1288 7.22589C71.1288 6.9799 71.1134 6.68778 71.1134 6.36492V5.07348L71.0366 4.53538C71.0366 4.53538 71.0366 4.38163 71.0366 4.18177V3.68979L71.0981 3.13631C71.1134 2.81345 71.1595 2.56746 71.2363 2.41372C71.313 2.25998 71.4973 2.18311 71.8044 2.18311C72.0041 2.18311 72.5569 2.35222 73.4475 2.64434C74.3382 2.93645 74.8142 3.12094 74.8449 3.18244L75.0753 3.52067C74.9831 3.68979 74.9217 3.79741 74.8603 3.85891M71.313 15.3897L71.3438 13.9445L71.2516 12.3763L71.2977 11.8536C71.2977 11.6691 71.2209 11.3616 71.0674 10.9157C70.8524 10.8696 70.6988 10.8542 70.622 10.8696C70.5453 10.885 70.2996 10.9926 69.8696 11.1617L68.4415 11.6383C67.7965 11.8843 67.4126 12.0381 67.3205 12.0995C67.2284 12.1764 67.1516 12.2687 67.1055 12.3763C67.0594 12.4993 67.0441 12.7606 67.0594 13.1911V13.7446C67.0594 14.0213 67.1209 14.3903 67.2437 14.8516C67.3666 15.3128 67.4587 15.5895 67.5355 15.6818C67.6123 15.774 67.6737 15.8355 67.7351 15.8509L67.8579 15.9124C67.8579 15.9124 67.904 16.0508 67.9654 16.266C68.0269 16.4812 68.6411 16.3736 69.7774 15.9124C69.931 15.8509 70.1613 15.7894 70.4992 15.7279C70.8217 15.6664 71.0981 15.5434 71.2977 15.3589M74.1846 14.9438C74.1846 14.9438 74.415 14.9438 74.676 14.8823L76.0427 14.5748L77.2558 14.4826C77.5476 14.4672 77.7779 14.3903 77.9315 14.2827C78.085 14.1751 78.2693 13.8522 78.515 13.3295C78.7454 12.8068 78.8836 12.407 78.9143 12.1303C78.945 11.8536 78.9757 11.5614 79.0064 11.2847C79.0371 11.008 79.0525 10.8235 79.0525 10.7312C79.0371 10.4391 78.9143 10.2085 78.6839 10.0394C78.4536 9.87027 78.2233 9.76265 77.9622 9.74728C77.7011 9.7319 77.3172 9.71653 76.7951 9.70115C76.6876 9.70115 76.5187 9.70115 76.273 9.74728C76.0427 9.77803 75.6895 9.80877 75.2442 9.8549C74.7989 9.90102 74.4917 9.97789 74.3382 10.1009C74.1693 10.2085 74.1078 10.4237 74.1078 10.7312V12.7299L74.1232 12.8221C74.1232 13.5447 74.1232 13.9752 74.1078 14.0982C74.1078 14.2212 74.1078 14.3135 74.1232 14.3442L74.2153 14.5441C74.1386 14.7901 74.1232 14.9284 74.1846 14.9592" fill="#221714"/>
<path d="M94.9464 6.94921L96.9887 6.28812C97.3726 6.16512 97.7719 6.02675 98.1711 5.85764C98.5704 5.68852 98.8621 5.5809 99.0464 5.50403C99.2307 5.44253 99.7374 5.31954 100.582 5.13504L102.148 4.90443L103.208 4.71994L104.283 4.61232L105.803 4.35095C105.803 4.35095 105.895 4.36633 106.018 4.36633C106.141 4.36633 106.264 4.36633 106.387 4.36633H108.153C109.028 4.36633 110.041 4.62769 111.208 5.11967L111.807 5.36566C112.038 5.48865 112.176 5.59627 112.222 5.71927C112.268 5.82689 112.283 5.93451 112.299 6.02675C112.314 6.119 112.268 6.25737 112.191 6.42649L111.992 6.81085L111.823 7.33357C111.746 7.54881 111.7 7.65643 111.7 7.68718C111.7 7.71793 111.7 7.7948 111.7 7.93317C111.7 8.05617 111.7 8.16379 111.684 8.22528C111.684 8.28678 111.669 8.3329 111.654 8.37903C111.654 8.40978 111.654 8.53277 111.684 8.71726L111.715 9.37836L111.777 10.101C111.777 10.4546 111.792 10.6391 111.807 10.6391L111.899 11.1618C111.899 11.1618 111.899 11.3309 111.93 11.5L112.022 12.6377V13.5294C112.038 13.8523 112.022 14.2674 111.976 14.8055C111.945 15.1591 111.93 15.4051 111.93 15.5435V16.3122C111.93 16.7888 111.93 17.0655 111.93 17.1424L111.992 17.6651C112.007 17.9419 112.022 18.2647 112.007 18.6645C112.007 19.0642 112.038 19.3717 112.099 19.5869C112.13 19.7253 112.13 19.9405 112.084 20.2326C112.038 20.5247 112.038 20.9706 112.038 21.5395C112.038 22.1083 112.038 22.4773 112.038 22.631C112.038 22.7848 112.038 22.8924 112.038 22.9231L112.068 23.5535C112.068 23.7841 112.068 23.9071 112.068 23.9225L112.191 24.476L112.253 25.0909L112.329 25.3369C112.329 25.3369 112.329 25.5214 112.345 25.7981L112.498 26.7821C112.498 26.859 112.514 26.9358 112.514 26.9973C112.514 27.4893 112.268 27.7507 111.807 27.7661C111.562 27.7814 111.27 27.7507 110.901 27.6431C110.533 27.5354 110.241 27.4124 109.995 27.2741L109.427 26.9051L108.352 26.3209C108.26 26.2748 107.922 26.0595 107.369 25.6905C106.817 25.3215 106.448 25.0602 106.264 24.9064C106.079 24.7527 105.941 24.5836 105.818 24.3991C105.711 24.2146 105.603 24.0608 105.527 23.9225C105.45 23.7841 105.404 23.615 105.404 23.3997C105.404 23.1845 105.726 23.3075 106.356 23.7687C106.556 23.9225 106.893 24.0301 107.369 24.0762C107.845 24.1223 108.183 24.1531 108.368 24.1377C108.813 24.1223 109.12 23.984 109.258 23.7534C109.412 23.5227 109.473 23.1538 109.473 22.6618C109.458 22.0161 109.427 21.5241 109.366 21.2012L109.197 20.3095L109.151 19.7407L109.12 19.4332L109.089 17.6805C109.089 17.4653 109.043 17.0655 108.982 16.512C108.92 15.9586 108.89 15.6203 108.89 15.5127V14.6364L108.797 13.7754V13.2834L108.721 12.1919C108.705 11.869 108.69 11.6999 108.69 11.6538L108.598 11.0542L108.552 10.3316L108.49 10.0702V9.40911L108.26 8.31753C108.245 8.14841 108.229 8.05617 108.214 8.02542C108.214 8.01004 108.153 7.88705 108.06 7.68718L107.861 7.2567C107.446 6.61098 107.062 6.22662 106.709 6.08825C106.356 5.94988 106.033 5.88839 105.696 5.90376L105.235 5.98063H104.559C103.576 6.08825 103.008 6.14975 102.87 6.1805C102.732 6.21125 102.225 6.34962 101.35 6.61098C100.475 6.87234 99.9524 7.04146 99.7835 7.10296C99.6146 7.17983 99.3535 7.3182 99.0004 7.51806C98.6472 7.7333 98.2326 7.99467 97.7565 8.30216C97.2805 8.60964 97.0041 8.84026 96.8966 8.96325C96.8044 9.10162 96.697 9.37836 96.6048 9.80884L96.3591 10.8082C96.3438 10.9158 96.3284 11.008 96.3131 11.131L96.1595 12.4993L95.9138 13.6832L95.8831 14.0522L95.7295 15.0822C95.7295 15.1899 95.7295 15.2514 95.7295 15.2821L95.5913 15.7126C95.5453 15.8356 95.5299 16.1123 95.4992 16.5428C95.4838 16.9579 95.4685 17.25 95.4531 17.3884C95.4531 17.5421 95.407 17.8957 95.3303 18.4646C95.2688 19.0334 95.2381 19.5408 95.2535 19.9559C95.2535 20.5401 95.361 20.9706 95.5453 21.2473C95.7295 21.5241 95.9599 21.6932 96.1748 21.7086C96.1902 21.7086 96.3284 21.7086 96.5741 21.6317C96.8198 21.5702 97.0962 21.5241 97.3726 21.4933C97.649 21.4626 98.0483 21.3857 98.555 21.232L100.321 20.7246C101.104 20.5094 101.749 20.4171 102.225 20.4171C102.717 20.4171 103.008 20.4171 103.116 20.3864L103.561 20.2788C104.329 20.1865 104.866 20.1404 105.204 20.1558C105.542 20.1558 105.757 20.1558 105.864 20.1404L106.156 20.0943C106.156 20.0943 106.433 20.125 106.77 20.1865C107.108 20.248 107.308 20.3249 107.385 20.4018C107.446 20.494 107.523 20.6477 107.584 20.8784C107.646 21.109 107.676 21.2473 107.692 21.3088L107.723 21.9084C107.738 22.1698 107.738 22.4004 107.723 22.5695C107.707 22.7387 107.508 22.8155 107.139 22.8001C107.078 22.8001 106.955 22.8001 106.755 22.8001C106.556 22.8001 106.417 22.7694 106.325 22.754L105.266 22.508L104.59 22.5695H104.206C104.206 22.5695 104.114 22.5849 104.006 22.6003C103.899 22.6003 103.776 22.631 103.607 22.6464C103.454 22.6618 103.116 22.7079 102.609 22.754C102.102 22.8155 101.672 22.8616 101.35 22.9231L100.997 23.0154L99.8296 23.2614C99.5378 23.3844 99.3689 23.4459 99.3689 23.4459L98.985 23.5074L98.8929 23.5381L98.5704 23.5074C98.5704 23.5074 98.4936 23.5381 98.4015 23.5842H97.3419C97.2498 23.615 97.1576 23.6304 97.0655 23.6765L96.4205 23.9993L95.8984 24.1992C95.7295 24.2761 95.5299 24.4298 95.2996 24.6604C95.0692 24.8911 94.931 25.0141 94.8542 25.0448C94.7928 25.0756 94.716 25.0909 94.6546 25.0756C94.4703 25.0756 94.3014 24.9833 94.1171 24.7834C93.9482 24.5836 93.8254 24.3991 93.7793 24.1992C93.7332 23.9993 93.6718 23.6919 93.595 23.2614C93.5183 22.8309 93.4875 22.6003 93.4875 22.5388L93.4261 21.6163C93.3801 21.4011 93.3647 21.2935 93.3647 21.2781C93.3647 21.2781 93.3647 21.2473 93.3647 21.2012C93.3647 21.1551 93.3647 21.0936 93.3647 21.0321V20.8476L93.334 19.51C93.334 19.2641 93.334 18.9104 93.3647 18.48C93.3954 18.0341 93.4108 17.7881 93.4108 17.7112V16.4659C93.4108 16.3737 93.3801 16.2046 93.3647 15.9586C93.3493 15.7126 93.334 15.5281 93.334 15.4051L93.3954 12.9145C93.3954 12.4686 93.3954 12.2226 93.3954 12.1919C93.3954 12.1611 93.3954 12.0842 93.3954 11.9766C93.3954 11.869 93.3954 11.2079 93.4108 10.0241C93.4108 8.84026 93.549 8.05617 93.7793 7.67181C94.0096 7.28745 94.3782 7.01071 94.8849 6.85697M96.0059 18.5107C96.0059 18.357 96.0366 18.234 96.0827 18.1571C96.1288 18.0649 96.2977 18.0034 96.5895 17.9726C96.8659 17.9419 97.3419 17.8342 98.0022 17.6497C98.6625 17.4653 99.1386 17.3269 99.415 17.2193C99.6914 17.1116 99.891 16.9733 100.014 16.7734C100.137 16.5889 100.213 16.3276 100.26 16.0354C100.29 15.728 100.321 15.5588 100.336 15.4973C100.352 15.4512 100.352 15.359 100.336 15.2206C100.336 15.0822 100.229 15.0054 100.014 14.9746C99.9831 14.9746 99.891 15.0054 99.7221 15.0515L99.2 15.1284C99.1232 15.1437 98.9696 15.2052 98.77 15.2821C98.555 15.359 98.4322 15.4051 98.3861 15.4051C98.34 15.4051 98.2018 15.4051 97.9715 15.4051C97.6951 15.4051 97.4955 15.359 97.3573 15.2821C97.2191 15.1899 97.1576 15.0054 97.173 14.6979C97.2037 14.3904 97.173 14.2366 97.1269 14.252L97.0501 14.2828C97.0501 14.2828 96.9734 14.1598 97.0501 13.8677C97.0809 13.7139 97.1269 13.5756 97.1883 13.4526C97.2498 13.3449 97.434 13.2527 97.7565 13.1912L98.8775 13.1451C98.9543 13.1451 99.1078 13.0989 99.3382 13.0221C99.5685 12.9452 99.8449 12.8837 100.198 12.853C100.551 12.8222 100.736 12.7607 100.797 12.7146C100.858 12.6531 100.889 12.5301 100.92 12.3149C100.951 12.0996 100.92 11.9305 100.843 11.7921C100.766 11.6999 100.674 11.623 100.536 11.5461C100.398 11.4693 100.075 11.4385 99.5378 11.4693C99.3996 11.4693 99.3075 11.4846 99.2614 11.5L98.8468 11.6538C98.7547 11.6538 98.6318 11.6538 98.4782 11.5769C98.3247 11.5154 98.2018 11.4385 98.1251 11.3616C98.0483 11.2694 98.0176 11.1925 98.0483 11.1003L98.0943 10.9312C98.0943 10.9312 98.079 10.7928 98.0329 10.6237C97.9869 10.4546 97.9715 10.3162 97.9869 10.2086C97.9869 9.97796 98.0483 9.82421 98.1251 9.73197C98.2018 9.6551 98.3861 9.57822 98.6779 9.50135C98.9696 9.42448 99.2921 9.33224 99.6914 9.20924L102.24 8.34828C103.361 8.07154 103.991 7.9178 104.114 7.90242C104.252 7.88705 104.436 7.8563 104.667 7.81018C104.897 7.76405 105.296 7.74868 105.864 7.77943C106.172 7.7948 106.371 7.87167 106.463 7.97929C106.556 8.10229 106.602 8.30216 106.586 8.60964C106.586 8.91713 106.586 8.994 106.571 8.82488C106.571 8.77876 106.571 8.74801 106.571 8.71726V9.42448L106.463 9.34761C106.463 9.34761 106.371 9.43986 106.248 9.62435C106.187 9.71659 106.079 9.77809 105.941 9.82421C105.788 9.87034 105.496 9.97796 105.035 10.1471L103.776 10.5468C103.776 10.5468 103.669 10.6852 103.638 10.7467C103.623 10.8082 103.607 10.9773 103.607 11.2694C103.607 11.5461 103.623 11.7306 103.684 11.8229C103.745 11.9151 103.976 11.9305 104.375 11.8844C104.498 11.8844 104.759 11.8383 105.173 11.7921C105.588 11.7306 105.941 11.6999 106.248 11.6999C106.663 11.6999 106.878 11.8997 106.893 12.2841V12.7146C106.909 12.9145 106.909 13.0221 106.878 13.0221H106.801C106.801 13.0221 106.755 13.0682 106.724 13.1143C106.694 13.1604 106.571 13.2527 106.371 13.3911C106.172 13.5294 106.064 13.6678 106.049 13.8062C106.049 13.9445 106.049 14.0368 106.064 14.0983C106.095 14.2981 106.202 14.498 106.387 14.6979C106.571 14.8977 106.678 15.0207 106.724 15.0515L107.231 16.0354C107.231 16.0354 107.354 16.1431 107.431 16.1584L107.861 16.1892C108.291 16.2353 108.521 16.4813 108.536 16.9579C108.552 17.4345 108.506 17.7881 108.352 18.0495C108.214 18.2647 108.014 18.3723 107.769 18.3723C107.554 18.3723 107.247 18.3723 106.878 18.3723C106.77 18.3723 106.571 18.3723 106.279 18.3416C105.987 18.3262 105.788 18.3108 105.68 18.3108C105.573 18.3108 105.419 18.3416 105.173 18.357C104.943 18.3723 104.774 18.3877 104.651 18.4031L102.809 18.6798L101.427 18.8028L100.812 18.8951L100.382 18.9412L99.1386 19.2487C98.4475 19.4024 97.9101 19.5562 97.5262 19.7099C97.1423 19.8637 96.9273 19.9405 96.8812 19.9405C96.7277 19.9405 96.6202 19.9251 96.5434 19.8483C96.482 19.7868 96.4205 19.6945 96.3898 19.6023L96.267 19.2487L96.1134 18.8797C96.0674 18.7721 96.052 18.6798 96.052 18.6183C96.052 18.5568 96.052 18.5261 96.052 18.5107M104.022 16.4044L104.36 16.3583C104.605 16.3583 104.774 16.3276 104.866 16.2968C104.958 16.2661 105.02 16.2199 105.051 16.1738C105.066 16.1123 104.974 15.9739 104.774 15.7433C104.667 15.6357 104.575 15.4358 104.513 15.1437C104.452 14.8516 104.344 14.621 104.191 14.4826C104.037 14.3289 103.776 14.3596 103.423 14.5749C103.131 14.7594 102.993 15.0207 103.024 15.359C103.024 15.3897 103.024 15.4666 103.024 15.5742C103.024 15.6818 103.07 15.8048 103.116 15.9125C103.162 16.0354 103.3 16.1431 103.546 16.2507C103.776 16.3583 103.945 16.4198 104.037 16.4198" fill="#221714"/>
<path d="M133.305 14.0676L132.906 16.7427C132.86 16.9887 132.845 17.1424 132.829 17.1732L132.706 17.5422L132.66 17.865L132.261 19.0796C131.985 20.125 131.831 20.6785 131.77 20.74C131.708 20.8015 131.631 20.8323 131.524 20.8323C131.463 20.8323 131.401 20.8323 131.309 20.8015C131.232 20.7708 131.079 20.6785 130.864 20.5094C130.649 20.3403 130.449 20.2019 130.265 20.125L129.282 19.7561L128.391 19.2487C128.284 19.218 128.192 19.2026 128.115 19.1872C128.007 19.1872 127.854 19.2333 127.624 19.3256L126.472 19.7253L125.873 20.0021C125.305 20.2173 125.013 20.3403 124.952 20.371L124.598 20.6939C124.598 20.6939 124.46 20.7554 124.383 20.7554C124.23 20.7554 124.03 20.6631 123.8 20.4633C123.57 20.2634 123.385 20.0328 123.262 19.7714L123.047 19.3256L122.756 18.8182C122.602 18.5722 122.418 18.1571 122.188 17.5729C121.957 17.0041 121.773 16.4198 121.604 15.851L120.852 13.2988C120.852 13.2988 120.852 13.2988 120.852 13.2681L120.683 12.7607V12.607C120.683 12.5301 120.698 12.4379 120.744 12.3149C120.79 12.2073 121.02 12.0535 121.435 11.8383C121.85 11.623 122.249 11.4693 122.633 11.3309C123.017 11.2079 123.247 11.1311 123.324 11.1003L125.213 10.5776C125.428 10.5007 125.566 10.4238 125.612 10.3316C125.658 10.2393 125.673 10.1317 125.673 9.96261V9.33226C125.673 9.33226 125.643 9.25539 125.673 9.1939C125.673 9.16315 125.673 8.93253 125.704 8.48668L125.735 7.73333C125.735 7.3951 125.75 7.17986 125.75 7.10299C125.75 7.02611 125.75 6.76475 125.719 6.33427C125.689 5.90379 125.673 5.44256 125.673 4.96595C125.673 4.47398 125.719 4.13574 125.842 3.93587C125.919 3.7975 126.103 3.70526 126.41 3.67451C126.718 3.64376 126.948 3.68988 127.132 3.82825C127.255 3.93587 127.316 3.99737 127.332 3.99737L127.7 4.04349L127.977 4.12037L128.299 4.16649C128.376 4.19724 128.468 4.25873 128.56 4.36636C128.652 4.47398 128.698 4.56622 128.698 4.65847C128.698 4.75071 128.698 4.84296 128.683 4.91983C128.606 5.21194 128.576 5.41181 128.56 5.50406L128.453 6.38039L128.299 7.30285L128.268 8.08694L128.222 8.4098C128.192 8.5943 128.176 8.84029 128.192 9.16315C128.192 9.48601 128.315 9.63975 128.56 9.63975C128.576 9.63975 128.76 9.609 129.098 9.5475C129.436 9.48601 129.835 9.47063 130.311 9.48601C130.618 9.50138 131.294 9.609 132.353 9.80887C133.413 10.0087 133.95 10.2547 133.966 10.5622C133.981 10.8697 133.981 11.0388 133.966 11.1003C133.966 11.1311 133.889 11.2694 133.751 11.5C133.612 11.746 133.536 12.0228 133.49 12.3303C133.459 12.6377 133.382 13.222 133.259 14.0829M123.831 14.5288C123.969 14.5288 124.337 14.4365 124.921 14.2213C125.504 14.0061 125.842 13.8677 125.95 13.7754C126.057 13.6986 126.103 13.6063 126.119 13.4987C126.119 13.3911 126.119 13.2681 126.103 13.1143C126.057 12.8069 125.996 12.607 125.95 12.5301C125.888 12.4533 125.796 12.3918 125.658 12.3456C125.52 12.2995 125.182 12.4225 124.675 12.7146C124.107 13.0375 123.769 13.2681 123.677 13.4065C123.57 13.5295 123.539 13.6986 123.539 13.8831C123.539 13.9292 123.539 14.0368 123.585 14.2213C123.616 14.4058 123.708 14.498 123.861 14.498M124.429 18.0956L125.213 17.8189C125.643 17.7113 125.919 17.619 126.027 17.5268C126.134 17.4345 126.211 17.2808 126.241 17.1117V16.3583C126.257 16.1585 126.149 16.0508 125.95 16.0508C125.904 16.0508 125.627 16.1277 125.105 16.2661C124.598 16.3891 124.276 16.5275 124.122 16.6658C123.969 16.8042 123.907 16.9426 123.923 17.0963C123.923 17.1117 123.953 17.2808 124 17.6037C124.061 17.9265 124.199 18.0956 124.429 18.0956ZM130.157 17.1885C130.28 16.8349 130.342 16.6504 130.357 16.6043C130.372 16.5582 130.372 16.4506 130.403 16.2507L130.587 14.8516L130.618 14.1752C130.618 14.0214 130.633 13.8677 130.664 13.7601L130.787 13.2527C130.802 13.1451 130.818 13.0529 130.818 12.9452C130.818 12.5916 130.664 12.238 130.418 11.9152C130.157 11.5923 129.743 11.4232 129.159 11.4232C128.714 11.4232 128.437 11.4847 128.361 11.5923C128.284 11.6999 128.222 11.9152 128.176 12.2534C128.13 12.5916 128.13 12.7915 128.161 12.8222C128.207 12.8991 128.453 12.9299 128.898 12.8991C129.343 12.8684 129.666 12.8991 129.85 13.0067C130.034 13.1144 130.142 13.2373 130.173 13.4065C130.203 13.5756 130.188 13.7908 130.157 14.0368C130.142 14.1137 130.111 14.2521 130.08 14.4519C130.05 14.6672 129.988 14.8055 129.912 14.867C129.819 14.9285 129.758 14.9746 129.697 14.99L128.376 15.3436C128.268 15.4359 128.192 15.5281 128.161 15.6204V16.1585C128.161 16.3891 128.161 16.5121 128.192 16.5428L128.222 16.5889L128.268 16.7273C128.268 16.7273 128.361 16.7888 128.53 16.8349C128.683 16.8811 128.867 16.9272 129.036 16.9579C129.221 16.9887 129.328 17.0194 129.374 17.0502C129.42 17.0809 129.497 17.1578 129.604 17.2808L129.835 17.619C129.958 17.6652 130.08 17.5114 130.203 17.1578M137.743 6.39577C137.866 6.34964 138.281 6.18053 138.987 5.85767C139.693 5.5348 140.369 5.38106 141.014 5.41181C141.229 5.41181 141.674 5.50406 142.319 5.64242C142.98 5.78079 143.333 5.93454 143.425 6.11903C143.502 6.28815 143.548 6.42652 143.548 6.50339C143.548 6.58026 143.548 6.65713 143.532 6.71863C143.517 6.76475 143.41 6.90312 143.241 7.14911C143.072 7.3951 142.949 7.61034 142.872 7.79483L142.596 8.68654C142.55 8.80954 142.473 8.97865 142.365 9.20927C142.258 9.43988 142.089 9.80887 141.874 10.347C141.644 10.8851 141.536 11.1926 141.551 11.2694C141.551 11.3463 141.551 11.4232 141.597 11.5C141.628 11.5923 141.782 11.7922 142.043 12.1304C142.319 12.4533 142.504 12.73 142.626 12.9452C142.734 13.1605 142.903 13.4987 143.118 13.9753L143.456 14.7287C143.578 15.0361 143.671 15.4051 143.763 15.8817C143.855 16.343 143.886 16.6966 143.886 16.9272C143.886 17.0502 143.855 17.1885 143.839 17.3269L143.594 18.603L143.456 19.5869C143.348 20.0943 143.041 20.3557 142.565 20.3557C142.457 20.3557 142.319 20.3557 142.135 20.3095C141.951 20.2634 141.736 20.2327 141.475 20.2019C141.214 20.1712 140.845 20.0328 140.369 19.8022C139.878 19.5562 139.586 19.4178 139.463 19.3871L138.511 19.2487C138.158 19.1718 137.927 19.1257 137.851 19.1257C137.774 19.1257 137.682 19.1718 137.59 19.2641C137.497 19.3717 137.436 19.5254 137.451 19.7407C137.451 19.9559 137.451 20.3095 137.436 20.7861C137.421 21.2012 137.405 21.4165 137.405 21.4626L137.282 22.6311L137.236 24.7527C137.206 25.2139 137.19 25.4446 137.19 25.4753L137.252 26.49C137.252 26.8744 137.267 27.0896 137.282 27.1511C137.282 27.2126 137.313 27.3202 137.344 27.474C137.375 27.6277 137.39 27.7353 137.405 27.7815L137.451 28.1504C137.451 28.1504 137.482 28.2888 137.559 28.5502C137.636 28.8115 137.666 29.0268 137.666 29.2113C137.666 29.3804 137.605 29.5495 137.513 29.734C137.421 29.9031 137.282 30.0107 137.083 30.0569C137.037 30.0569 136.929 30.0569 136.76 30.0415C136.607 30.0107 136.361 29.9954 136.023 29.98C135.685 29.9646 135.44 29.8724 135.286 29.6879C135.133 29.5188 135.056 29.3958 135.04 29.3343C135.04 29.2728 135.056 29.119 135.133 28.8884C135.209 28.6578 135.255 28.4426 135.255 28.2427V26.7975V25.1063C135.255 24.8603 135.225 24.5529 135.209 24.1839C135.179 23.8149 135.163 23.5996 135.163 23.5689C135.163 23.5228 135.163 23.492 135.163 23.4766L135.225 22.9232V21.1705L135.148 20.0174V18.9412L135.102 18.6184V17.8343L134.979 16.9118C134.964 16.7273 134.948 16.3737 134.948 15.8664C134.948 15.359 134.948 14.8363 134.887 14.2828C134.841 13.7293 134.825 13.4372 134.841 13.3911L134.872 12.7146V11.8383C134.902 11.4232 134.918 11.2079 134.918 11.1772C134.918 11.1003 134.902 11.0388 134.902 10.9773L134.841 10.6545L134.81 10.2547C134.81 10.2547 134.764 10.0395 134.718 9.71662L134.641 9.25539C134.58 8.94791 134.457 8.65579 134.257 8.37906C134.058 8.10232 133.966 7.9332 133.996 7.84095C134.012 7.73333 134.073 7.65646 134.181 7.57959C134.288 7.50272 134.426 7.44122 134.626 7.41047L134.948 7.34898L135.547 7.11836L137.697 6.42652L137.743 6.39577ZM137.528 10.5007L137.497 12.5609V13.3757C137.467 13.6678 137.482 14.0368 137.497 14.4519C137.528 14.867 137.544 15.113 137.559 15.1899V15.236L137.528 15.7895C137.62 16.1585 138.02 16.3891 138.726 16.4813C139.417 16.5736 139.847 16.6043 140 16.6043C140.215 16.6043 140.369 16.5582 140.492 16.4813C140.615 16.4045 140.676 16.1738 140.692 15.8202C140.692 15.4666 140.645 14.9746 140.507 14.3597C140.354 13.7754 140.215 13.345 140.108 13.0529L139.432 11.746C139.356 11.5615 139.309 11.4078 139.294 11.2541C139.263 11.0388 139.356 10.593 139.571 9.91649C139.785 9.24002 139.878 8.68654 139.847 8.22531C139.832 8.07157 139.77 7.90245 139.678 7.73333C139.586 7.56422 139.432 7.48734 139.217 7.48734C138.941 7.48734 138.649 7.65646 138.357 7.94857C138.066 8.24069 137.866 8.50205 137.743 8.71729C137.62 8.93253 137.559 9.53213 137.544 10.5007" fill="#221714"/>
<path d="M148.001 24.0455C148.001 24.0455 148.001 23.9379 148.032 23.9071C148.047 23.8764 148.14 23.8303 148.308 23.7995C148.477 23.7688 148.662 23.6765 148.846 23.5381C149.046 23.3998 149.261 23.2614 149.506 23.1538C149.752 23.0462 149.89 22.9385 149.936 22.8463C149.982 22.7694 150.013 22.6311 150.028 22.4619C150.044 22.2928 150.013 21.6164 149.921 20.4325L149.844 18.5107C149.844 18.357 149.829 18.2186 149.829 18.1264C149.829 18.0341 149.829 17.865 149.859 17.619C149.89 17.2039 149.906 16.9118 149.921 16.7581V16.343C149.936 15.851 150.197 15.5896 150.719 15.5742C150.888 15.5742 151.165 15.6511 151.549 15.8202C151.933 15.9893 152.178 16.097 152.27 16.1585C152.362 16.22 152.439 16.2968 152.516 16.4045C152.577 16.5121 152.608 16.6504 152.624 16.8349C152.624 17.0194 152.608 17.25 152.547 17.5422C152.455 17.9419 152.409 18.2186 152.393 18.3724L152.362 19.3256L152.27 20.0328C152.27 20.125 152.255 20.2788 152.24 20.494C152.24 20.5863 152.24 20.6939 152.24 20.8323C152.24 20.9706 152.255 21.0475 152.255 21.0629V21.109C152.255 21.109 152.209 21.232 152.224 21.2781C152.224 21.3396 152.332 21.355 152.501 21.355C152.608 21.355 152.746 21.3242 152.885 21.2474C153.038 21.1705 153.146 21.0629 153.207 20.9553C153.268 20.8476 153.315 20.6785 153.345 20.4325C153.376 20.2019 153.437 19.8176 153.53 19.2948C153.622 18.7721 153.683 18.4646 153.683 18.3724L153.714 18.0341L153.806 17.4499C153.806 17.3269 153.821 17.2347 153.821 17.1732C153.821 17.1117 153.821 17.0655 153.821 17.0348C153.821 17.0194 153.806 16.7734 153.791 16.2968L153.745 14.744C153.683 13.8062 153.437 13.345 153.007 13.3142C152.839 13.3142 152.608 13.3757 152.286 13.5141C151.963 13.6524 151.748 13.6986 151.625 13.6524C151.518 13.6371 151.456 13.591 151.426 13.5141L151.38 13.4218L151.226 13.3296C151.226 13.3296 151.18 13.2681 151.149 13.1758C151.119 13.0836 151.057 12.9606 150.996 12.7915L150.719 12.2995C150.643 12.1458 150.597 12.0689 150.581 12.0381L150.335 11.6538C150.228 11.4539 150.182 11.2387 150.182 11.0081C150.182 10.8236 150.228 10.7006 150.305 10.6391C150.382 10.5776 150.504 10.5315 150.643 10.4853C150.796 10.4546 150.98 10.4238 151.195 10.4085C151.41 10.4085 151.549 10.3777 151.595 10.3623L151.779 10.3008L152.178 10.2701L152.501 10.1625H152.792C152.885 10.1471 153.13 10.0856 153.514 9.94723C153.898 9.82424 154.082 9.74737 154.098 9.73199L154.666 9.56288L155.311 9.33226L156.017 9.19389L157.138 8.9479C157.322 8.93253 157.553 8.91715 157.829 8.91715C157.952 8.91715 158.044 8.9479 158.09 8.97865C158.152 9.0094 158.228 9.13239 158.351 9.33226C158.474 9.53213 158.536 9.79349 158.536 10.101C158.536 10.347 158.474 10.5622 158.397 10.716C158.305 10.8697 158.213 11.0081 158.106 11.0849L157.476 11.4539L157.123 11.746L156.816 11.9459C156.539 12.1304 156.355 12.361 156.294 12.607L156.186 13.1143C156.186 13.1143 156.14 13.2373 156.079 13.4218C156.017 13.6063 156.002 13.7908 156.033 13.9753C156.048 14.1752 156.125 14.3289 156.263 14.4212C156.386 14.5134 156.785 14.4827 157.415 14.3289C158.06 14.1752 158.413 14.1598 158.474 14.2828C158.536 14.4058 158.566 14.5595 158.566 14.744V15.1745C158.551 15.2668 158.474 15.4359 158.367 15.6972C158.259 15.9586 158.136 16.1431 158.044 16.2353C157.937 16.343 157.814 16.4198 157.66 16.4813L157.261 16.6504C157.261 16.6504 157.154 16.7119 157.092 16.7581L156.616 17.127C156.094 17.4653 155.802 17.6651 155.741 17.7266C155.679 17.7881 155.618 17.8496 155.572 17.9265C155.526 18.0034 155.495 18.2801 155.48 18.7414C155.48 19.2026 155.603 19.4639 155.894 19.5254C155.956 19.5408 156.094 19.5101 156.294 19.4024C156.493 19.2948 156.816 19.1872 157.276 19.0488C157.737 18.9105 157.998 18.849 158.06 18.849C158.275 18.8951 158.397 19.0027 158.397 19.1565C158.397 19.3102 158.397 19.4178 158.367 19.5101C158.305 19.6792 158.213 19.8483 158.075 20.0174L157.553 20.6478L156.954 21.4165C156.816 21.5702 156.355 21.8777 155.557 22.3543C154.773 22.8309 154.251 23.1077 154.021 23.1845C153.791 23.2614 153.545 23.3998 153.284 23.5996C153.023 23.7995 152.839 23.9379 152.7 24.0147L151.886 24.3684L151.671 24.4914L151.288 24.6758L150.965 24.9218C150.965 24.9218 150.719 25.0295 150.32 25.1986L149.706 25.4753C149.583 25.5214 149.491 25.5522 149.414 25.5368C149.353 25.5368 149.276 25.5214 149.184 25.4907C149.092 25.4599 148.877 25.2447 148.508 24.8757C148.14 24.5067 147.94 24.1992 147.94 23.9532M159.764 13.9446L160.639 11.8229C160.685 11.6845 160.824 11.3155 161.054 10.716C161.284 10.1164 161.438 9.63975 161.53 9.30151L161.714 8.5328L162.19 6.62638L162.359 5.84229L162.421 5.68854C162.421 5.68854 162.467 5.4733 162.513 5.19657C162.559 4.9352 162.574 4.79683 162.59 4.78146L162.728 4.35098C162.789 4.10499 162.881 3.87437 162.973 3.62838C163.066 3.38239 163.311 3.2594 163.695 3.2594C163.833 3.2594 164.079 3.36702 164.417 3.56689C164.755 3.76675 164.954 3.90512 165 3.98199C165.047 4.05886 165.077 4.12036 165.077 4.19723C165.077 4.25873 165.031 4.38173 164.908 4.52009C164.77 4.70459 164.678 4.82758 164.647 4.88908L164.509 5.33493L164.279 5.94991V6.22665C164.248 6.39576 164.217 6.58025 164.141 6.78012L163.849 7.61034L163.772 7.97932L163.035 9.99336L162.881 10.593C162.789 10.9466 162.743 11.1464 162.728 11.1926C162.728 11.2387 162.712 11.3463 162.712 11.5154C162.712 11.6845 162.805 11.7922 163.02 11.8383C163.235 11.8844 163.68 11.7307 164.386 11.3924L165.999 10.593L167.473 9.77812C167.565 9.73199 167.672 9.70124 167.795 9.6705C167.918 9.63975 168.148 9.88574 168.471 10.4238C168.717 10.8389 168.855 11.1464 168.87 11.3463V11.8075C168.916 12.0381 168.932 12.1765 168.916 12.1919C168.886 12.2841 168.839 12.3456 168.763 12.4071C168.686 12.4532 168.609 12.484 168.548 12.4994L168.225 12.5455L167.933 12.7146C167.933 12.7146 167.841 12.7454 167.672 12.7915C167.519 12.8376 167.304 12.9452 167.058 13.1451C166.812 13.345 166.597 13.5602 166.429 13.7908C166.244 14.0214 166.137 14.1905 166.106 14.2828L165.999 15.1591L165.661 16.22L165.615 16.4967C165.599 16.5736 165.553 16.6966 165.507 16.8349C165.461 16.9887 165.415 17.1117 165.4 17.2193C165.369 17.3269 165.354 17.4038 165.354 17.4345L165.231 17.7574L165.185 18.1264C165.185 18.1264 165.108 18.357 165 18.603C164.908 18.849 164.862 19.0335 164.862 19.1718C164.862 19.2641 164.862 19.341 164.908 19.4024C164.939 19.4639 165.062 19.6638 165.323 19.9867L165.645 20.4633L166.152 20.9553L166.49 21.3242L167.196 21.7547L167.611 22.093C167.887 22.3082 168.348 22.5542 168.978 22.8463L171.035 23.7841L171.865 24.1685C172.11 24.2915 172.356 24.3684 172.571 24.4145C172.786 24.4606 173.016 24.5221 173.231 24.6143L173.738 24.845C173.999 24.9833 174.306 25.2293 174.675 25.5676C175.043 25.9212 175.228 26.1672 175.228 26.3209C175.228 26.4593 175.151 26.5669 175.043 26.6591C174.936 26.736 174.767 26.7975 174.567 26.8129L174.045 26.859L173.078 27.0742C172.924 27.105 172.786 27.1204 172.678 27.1204C172.571 27.1204 172.463 27.1204 172.371 27.0896L171.926 26.982L171.389 27.0589L170.974 26.9205L170.636 26.9512C170.636 26.9512 170.222 26.8744 169.438 26.6745L168.962 26.5361L168.548 26.4439L167.074 25.9673C166.951 25.9673 166.843 25.9365 166.751 25.8904H166.429C166.429 25.8904 166.306 25.8904 166.229 25.8597C166.152 25.8135 166.091 25.752 166.029 25.6598C165.968 25.5676 165.922 25.4599 165.906 25.3216L165.876 25.1371L165.814 24.8603V24.3376C165.814 24.3376 165.768 24.1685 165.722 23.861C165.676 23.5535 165.63 23.3383 165.584 23.2153C165.538 23.1077 165.369 22.9232 165.077 22.6618C164.785 22.4004 164.524 22.2467 164.294 22.1852C164.064 22.1237 163.879 22.0468 163.711 21.9853C163.557 21.9085 163.465 21.8777 163.434 21.8777C163.388 21.8777 163.342 21.9085 163.296 21.9546C163.235 22.0007 163.158 22.093 163.035 22.2621C162.912 22.4312 162.697 22.6618 162.375 22.9847C162.052 23.2922 161.868 23.492 161.837 23.5689L161.76 23.7688C161.684 23.9071 161.438 24.1685 161.023 24.5221C160.593 24.8911 160.225 25.1371 159.902 25.2754C159.58 25.4138 159.227 25.5061 158.827 25.5829L157.2 25.5214L156.647 25.5522C156.416 25.5522 156.033 25.4138 155.48 25.1524C154.942 24.8757 154.697 24.6758 154.773 24.5528C154.819 24.4452 155.019 24.3684 155.372 24.3069C155.741 24.2607 155.925 24.23 155.94 24.2146L156.463 24.0455L156.954 23.9379C157.2 23.8764 157.691 23.6919 158.428 23.3844C159.165 23.0769 159.902 22.5849 160.655 21.9085C161.392 21.232 161.76 20.8323 161.73 20.6631C161.684 20.5248 161.545 20.3095 161.284 20.0482C161.039 19.7714 160.854 19.6023 160.731 19.5254L160.117 19.2487C159.933 19.1411 159.749 19.0796 159.595 19.0181C159.442 18.9566 159.349 18.8797 159.303 18.7875C159.257 18.6952 159.242 18.603 159.242 18.5261C159.242 18.4492 159.242 18.3877 159.242 18.357C159.242 18.2494 159.288 18.0188 159.38 17.6498C159.472 17.2808 159.411 17.0655 159.211 17.0502C159.088 17.0502 158.935 17.0963 158.751 17.2039C158.566 17.3115 158.382 17.373 158.213 17.3577C158.044 17.3577 158.029 17.2193 158.136 17.0041C158.182 16.9118 158.228 16.8503 158.29 16.7888C158.351 16.7427 158.536 16.4198 158.843 15.851L159.15 15.2206L159.457 14.5903L159.733 13.9446H159.764ZM161.438 15.3744C161.438 15.3744 161.438 15.5127 161.453 15.728C161.484 15.9432 161.545 16.1892 161.684 16.4506C161.806 16.7119 162.021 16.9733 162.344 17.2193C162.666 17.4653 162.881 17.6498 162.989 17.7728C163.112 17.8958 163.219 17.9419 163.311 17.9419C163.357 17.9419 163.388 17.9419 163.419 17.9111C163.45 17.8958 163.48 17.8035 163.511 17.6498C163.542 17.496 163.588 17.3423 163.649 17.1732C163.711 17.0041 163.741 16.7581 163.741 16.4352C163.741 16.3276 163.741 16.2353 163.741 16.1585L163.618 15.5742C163.511 14.99 163.403 14.6364 163.296 14.5442C163.188 14.4365 163.035 14.3904 162.835 14.375C162.774 14.375 162.62 14.3904 162.359 14.4212C162.098 14.4519 161.929 14.498 161.837 14.5595C161.745 14.621 161.684 14.7133 161.653 14.8363L161.591 14.8824C161.515 14.9593 161.469 15.1284 161.453 15.359" fill="#221714"/>
<path d="M189.324 18.7567L189.263 19.5254V19.6484C189.232 19.7561 189.232 19.9867 189.263 20.3249V22.1698L189.355 23.3998C189.355 23.5228 189.355 23.6304 189.355 23.738C189.355 23.8456 189.416 23.9071 189.508 23.9071C189.585 23.9225 189.769 23.7688 190.061 23.4459L190.614 22.8309C190.936 22.4158 191.228 21.8931 191.474 21.2474C191.72 20.6016 191.842 20.1558 191.842 19.8944C191.842 19.6331 191.858 19.4947 191.873 19.4793L191.919 19.2026V18.5261C191.873 17.6805 191.858 17.1732 191.827 16.9733L191.689 16.2661C191.658 16.0816 191.627 15.9278 191.597 15.8049C191.566 15.6819 191.551 15.605 191.566 15.5589C191.566 15.4666 191.597 15.3897 191.674 15.3129C191.75 15.236 192.196 15.0515 193.04 14.7594L194.1 14.3443C195.62 13.7908 196.879 13.5295 197.877 13.5602C198.323 13.5756 198.63 13.6524 198.799 13.7754C198.983 13.8984 199.09 13.9907 199.121 14.0676C199.167 14.1444 199.183 14.2059 199.183 14.2828C199.183 14.3443 199.183 14.4058 199.167 14.4673C199.137 14.5442 199.106 14.6057 199.075 14.6979L198.016 16.4045C197.923 16.5889 197.862 16.7581 197.831 16.9426L197.755 17.373L197.678 17.7574C197.678 17.7574 197.647 17.9419 197.632 18.2494L197.509 19.1718C197.478 19.3717 197.447 19.7407 197.432 20.2942C197.417 20.8476 197.401 21.3704 197.401 21.8931C197.401 22.4004 197.493 22.8463 197.693 23.2153C198.169 24.1224 199.152 24.599 200.672 24.6297C201.21 24.6451 201.686 24.5221 202.1 24.2761C202.515 24.0147 202.73 23.1845 202.761 21.7547L202.807 19.5408C202.807 18.8643 202.868 18.4954 202.96 18.4339C203.052 18.3724 203.114 18.3416 203.175 18.3262C203.359 18.3262 203.574 18.603 203.851 19.1718L204.066 19.6023C204.143 19.8022 204.219 20.0482 204.281 20.3249L204.404 21.0014L204.757 22.8155C204.956 23.8303 205.064 24.5221 205.079 24.9065C205.095 25.2908 205.202 25.875 205.386 26.6745C205.34 26.8282 205.248 26.9359 205.11 27.0281C204.972 27.105 204.619 27.1665 204.035 27.1665L202.3 27.2587H202.285C200.411 27.2587 199.029 26.982 198.154 26.4285C197.278 25.875 196.741 25.4138 196.557 25.0448C196.372 24.6758 196.204 24.3222 196.081 23.984C195.958 23.6458 195.82 23.1845 195.666 22.6464C195.513 22.093 195.482 21.0629 195.528 19.5562C195.528 19.1565 195.559 18.8182 195.574 18.5569L195.666 17.4345C195.666 17.2808 195.681 17.1424 195.697 17.0194C195.697 16.8964 195.697 16.7581 195.697 16.5736C195.681 16.3891 195.574 16.2968 195.374 16.2815C195.267 16.2815 195.083 16.4198 194.791 16.6812C194.499 16.9426 194.223 17.2962 193.931 17.7574C193.654 18.2032 193.532 19.0335 193.562 20.2327C193.593 21.4319 193.532 22.1852 193.393 22.4773C193.271 22.7233 192.994 23.0462 192.549 23.4305C192.103 23.8149 191.796 24.0916 191.597 24.2607C191.397 24.4145 191.013 24.599 190.43 24.7835C189.862 24.968 189.554 25.091 189.508 25.1678C189.478 25.2447 189.462 25.3216 189.462 25.4138C189.462 25.4907 189.493 25.7213 189.57 26.0903C189.647 26.4593 189.693 26.6745 189.693 26.7053C189.647 26.9205 189.508 27.0435 189.278 27.0742C189.063 27.105 188.526 26.9359 187.696 26.5823L186.007 25.9827C185.424 25.6905 184.932 25.3369 184.502 24.9372C184.072 24.5221 183.873 24.2761 183.888 24.1839C183.903 24.0455 183.996 23.9686 184.164 23.9532C184.257 23.9532 184.472 23.9994 184.825 24.0916C185.178 24.1839 185.639 24.2454 186.222 24.2454C186.806 24.2454 187.144 24.1992 187.22 24.0609C187.297 23.9379 187.343 23.8303 187.358 23.7688C187.358 23.7073 187.358 23.2768 187.312 22.4619V21.2781V21.0168L187.282 20.248L187.251 18.111V17.3884C187.22 17.1117 187.097 16.9579 186.882 16.9426C186.867 16.9426 186.698 16.9733 186.391 17.0194C186.084 17.0655 185.869 17.1424 185.777 17.25C185.685 17.3577 185.623 17.4345 185.608 17.4807C185.608 17.5422 185.639 17.619 185.731 17.7113C185.761 17.7728 185.9 17.9265 186.13 18.1879C186.376 18.4339 186.514 18.6491 186.575 18.8028C186.637 18.9566 186.667 19.1411 186.667 19.3409C186.667 19.5408 186.56 19.8022 186.345 20.1097C186.176 20.3403 185.9 20.6016 185.531 20.8784C185.163 21.1397 184.886 21.2781 184.702 21.2627C184.518 21.2627 184.41 21.1551 184.364 20.9706C184.318 20.7861 184.349 20.4786 184.425 20.0328C184.425 19.9405 184.441 19.7714 184.441 19.5408C184.441 19.2948 184.441 19.1103 184.456 18.972C184.456 18.8336 184.456 18.726 184.456 18.6491C184.456 18.5722 184.456 18.4954 184.441 18.4031L184.41 18.2801C184.379 18.1725 184.349 18.0956 184.333 18.0341C184.303 17.988 184.241 17.9573 184.118 17.9419C184.011 17.9419 183.888 17.988 183.75 18.111C183.627 18.2494 183.504 18.4954 183.397 18.849C183.289 19.2026 183.182 19.5254 183.059 19.8329C182.936 20.1404 182.828 20.4325 182.736 20.7093C182.644 20.986 182.598 21.3242 182.613 21.7393C182.613 21.8623 182.613 22.0161 182.629 22.1698C182.629 22.3236 182.675 22.4773 182.706 22.6464C182.736 22.8002 182.767 22.9385 182.767 23.0615C182.767 23.1692 182.706 23.3383 182.598 23.5689C182.506 23.7226 182.276 24.0147 181.876 24.4606L181.231 25.2139C180.986 25.4753 180.755 25.6752 180.556 25.8135C180.356 25.9365 180.003 26.0595 179.512 26.1825C179.02 26.3055 178.698 26.3516 178.529 26.3209C178.375 26.2901 178.268 26.2133 178.252 26.0903C178.222 25.9827 178.329 25.7828 178.59 25.5061C178.636 25.4446 178.744 25.3062 178.913 25.1063L179.496 24.3837C179.496 24.3837 179.68 24.0916 179.988 23.615L180.525 22.7694C180.679 22.5081 180.848 22.1083 181.047 21.5702C181.247 21.0321 181.4 20.5401 181.508 20.0943C181.615 19.6484 181.692 19.3563 181.738 19.218C181.784 19.095 181.8 18.9566 181.769 18.8182C181.738 18.6799 181.677 18.603 181.569 18.5876C181.554 18.5876 181.385 18.6337 181.078 18.7106C180.771 18.7875 180.387 18.9105 179.911 19.0796C179.435 19.2487 179.112 19.3717 178.943 19.4486L178.237 19.9405C178.068 20.0482 177.93 20.1097 177.822 20.1097C177.546 20.1097 177.254 19.8791 176.947 19.3717C176.64 18.8643 176.502 18.5107 176.533 18.2955C176.563 18.111 176.64 18.0034 176.794 17.9726H177.224C177.531 17.9726 177.93 17.8496 178.391 17.6498L180.372 16.7734L181.016 16.5274C181.554 16.3122 181.876 16.1431 181.999 16.0355C182.107 15.9278 182.168 15.7741 182.153 15.5742C182.153 15.5589 182.137 15.5127 182.122 15.4359C182.122 15.359 182.107 15.2821 182.107 15.2053C182.107 15.1745 182.107 14.9746 182.107 14.621L182.076 13.6217C182.076 13.345 182.061 13.1605 182.061 13.099L182.015 12.7761L181.953 11.6384C181.876 11.1926 181.846 10.9466 181.846 10.9004C181.876 10.5007 182.107 10.224 182.521 10.0702L184.61 9.36301L186.115 8.73266C186.56 8.54817 186.898 8.45592 187.097 8.44055C187.297 8.44055 187.558 8.42517 187.85 8.42517C188.802 8.45592 189.432 8.56354 189.754 8.73266C190.077 8.91715 190.261 9.04015 190.291 9.11702C190.338 9.19389 190.353 9.27076 190.353 9.36301C190.353 9.45525 190.353 9.50138 190.353 9.53213C190.353 9.56287 190.322 9.59362 190.291 9.63975L189.785 10.3623C189.693 10.5161 189.631 10.6698 189.6 10.8236C189.57 10.9773 189.524 11.1772 189.493 11.4539C189.447 11.7153 189.432 11.9305 189.432 12.0843V14.0061L189.339 14.9439C189.339 15.0515 189.339 15.2053 189.339 15.4359L189.278 18.7721L189.324 18.7567ZM182.844 7.90245L184.149 6.21127C184.226 6.10365 184.487 5.71929 184.932 5.07357C185.378 4.42785 185.685 3.95124 185.854 3.62838C186.038 3.3209 186.238 3.15178 186.468 3.1364C186.545 3.1364 186.621 3.15178 186.729 3.1979C186.836 3.24402 187.067 3.49001 187.451 3.93587C187.819 4.38172 188.05 4.70459 188.126 4.88908C188.203 5.07357 188.249 5.21194 188.249 5.28881C188.218 5.65779 187.481 6.38039 186.038 7.47197C184.594 8.56354 183.719 9.14777 183.443 9.24001C183.166 9.33226 182.905 9.37838 182.675 9.39376C182.445 9.40913 182.291 9.39376 182.23 9.33226C182.168 9.27076 182.107 9.20926 182.061 9.10164C182.015 9.0094 182.276 8.59429 182.844 7.8717M184.042 15.2053C184.042 15.3897 184.149 15.482 184.333 15.4974C184.333 15.4974 184.472 15.4974 184.733 15.4359C184.994 15.3897 185.209 15.3282 185.378 15.2514C185.546 15.1745 185.669 15.1284 185.761 15.0823L186.714 14.7594C186.975 14.6364 187.128 14.498 187.205 14.3443C187.266 14.1905 187.297 13.9753 187.297 13.7139V12.853C187.297 11.9151 187.297 11.3002 187.297 10.9927C187.297 10.6852 187.266 10.4546 187.159 10.3008C187.021 10.1317 186.806 10.0395 186.529 10.0395C185.746 10.0395 185.193 10.2086 184.871 10.5776C184.548 10.9466 184.379 11.1926 184.379 11.3155C184.379 11.4385 184.564 11.5615 184.948 11.6692L186.36 11.9459C186.36 11.9459 186.468 12.0689 186.514 12.1458C186.56 12.2226 186.591 12.3149 186.606 12.4379C186.621 12.5609 186.56 12.853 186.391 13.2835C186.191 13.8216 186.038 14.1444 185.93 14.252C185.823 14.3597 185.731 14.4212 185.639 14.4212C185.577 14.4212 185.5 14.4212 185.408 14.3597C185.301 14.3135 185.132 14.0522 184.871 13.5909C184.61 13.1297 184.379 12.8837 184.164 12.8991C184.072 12.8991 184.026 12.9914 184.011 13.1451C183.996 13.3296 184.011 13.5295 184.026 13.7293C184.057 13.9292 184.088 14.0522 184.088 14.1137C184.088 14.1444 184.057 14.2674 184.026 14.498C183.996 14.7287 183.996 14.9593 184.026 15.1899M194.883 9.57825L196.91 8.85566L198.891 8.04082C199.167 7.96394 199.398 7.91782 199.613 7.91782C199.797 7.91782 199.95 7.99469 200.073 8.13306L200.534 9.0094L200.887 9.486C201.071 9.74737 201.194 9.99336 201.271 10.2393C201.348 10.4853 201.394 10.6391 201.394 10.7159C201.379 10.9619 201.21 11.0696 200.918 11.0696H200.641C200.012 11.0388 199.428 11.0696 198.875 11.1464C198.323 11.2387 197.954 11.3002 197.77 11.3463L195.758 12.0074L194.223 12.3303C193.885 12.4225 193.317 12.6377 192.533 12.976C191.75 13.3142 191.366 13.4833 191.366 13.468C191.213 13.4526 190.967 13.1912 190.629 12.6839C190.291 12.1765 190.169 11.6077 190.261 10.9773C190.261 10.8851 190.307 10.7928 190.353 10.7006C190.399 10.593 190.936 10.47 191.95 10.3162C192.963 10.1625 193.946 9.90111 194.898 9.56287M194.852 2.13707C194.929 2.15245 195.098 2.32156 195.359 2.62905L195.605 2.93654L196.28 3.61301C196.419 3.76675 196.572 3.98199 196.741 4.22798C196.91 4.47397 197.033 4.70459 197.11 4.88908C197.186 5.07357 197.217 5.28881 197.217 5.5348C197.217 5.64242 197.186 5.73467 197.156 5.84229C197.125 5.94991 197.11 6.0114 197.125 6.02678L197.263 6.58025C197.263 6.58025 197.171 6.71862 197.033 6.85699C196.895 7.01074 196.756 7.08761 196.587 7.11836C196.403 7.1491 195.989 7.01073 195.344 6.71862C194.683 6.42651 194.299 6.21127 194.161 6.0729C194.038 5.93453 193.931 5.76541 193.854 5.56555C193.793 5.36568 193.747 5.13507 193.747 4.88908C193.747 4.64309 193.747 4.3971 193.793 4.15111C193.839 3.49001 193.962 3.01341 194.13 2.75205C194.315 2.49068 194.468 2.32156 194.622 2.22932C194.76 2.15245 194.837 2.10632 194.852 2.10632" fill="#221714"/>
<path d="M212.389 12.6685L212.358 13.9753C212.358 13.9753 212.358 14.2213 212.42 14.6056C212.481 14.99 212.512 15.1899 212.512 15.1899L212.834 16.0662C212.819 16.3737 212.604 16.5428 212.205 16.6197C211.805 16.6812 211.575 16.7119 211.514 16.6965L210.684 16.5736L210.408 16.8042C210.009 17.0963 209.656 17.0502 209.348 16.6812C209.041 16.3122 208.888 16.0354 208.888 15.8663C208.888 15.7433 208.98 15.5435 209.149 15.2514C209.318 14.9592 209.625 14.5749 210.07 14.0983C210.5 13.6217 210.761 13.3449 210.823 13.2527C210.899 13.1605 210.961 13.0836 211.038 13.0067C211.099 12.9298 211.283 12.7915 211.56 12.607C211.836 12.4225 212.051 12.3456 212.174 12.3764C212.312 12.4071 212.374 12.4994 212.374 12.6838M217.211 19.1564L219.837 18.357L223.261 17.4653C223.537 17.3884 223.86 17.3576 224.213 17.373C224.566 17.373 224.812 17.4499 224.95 17.6036C225.073 17.742 225.134 17.9572 225.134 18.2186C225.134 18.2647 225.119 18.3416 225.104 18.48C225.104 18.6183 225.104 18.7413 225.104 18.849V19.3409C225.073 19.6638 224.965 19.8483 224.797 19.9252L223.215 20.6016L222.386 21.4626C222.386 21.4626 222.278 21.7393 222.232 22.1391L221.986 22.8924L221.817 23.6304C221.771 23.7841 221.741 23.8917 221.756 23.984C221.756 24.0762 221.787 24.1223 221.817 24.1531C221.848 24.1838 222.048 24.1685 222.401 24.1531L225.226 23.9686C226.532 23.8917 227.3 23.9379 227.53 24.1223C227.622 24.1992 227.699 24.3068 227.776 24.4298L228.021 24.9987L228.651 26.1518C228.682 26.2286 228.712 26.3824 228.743 26.5822C228.758 26.7975 228.774 26.9512 228.758 27.0588C228.758 27.1665 228.697 27.2741 228.574 27.3971C228.467 27.5201 228.344 27.5662 228.221 27.5355L226.271 27.1357H223.875L220.574 27.5662H220.021L218.47 27.8891H217.349L216.796 28.0121C216.765 28.0121 216.719 28.0121 216.658 28.0121C215.783 28.0121 215.276 27.9967 215.153 27.9813C214.554 27.9659 214.032 28.0582 213.602 28.2888C213.172 28.5194 212.911 28.6117 212.85 28.5963C212.727 28.5809 212.604 28.504 212.466 28.381C212.327 28.258 212.266 28.0582 212.266 27.7968C212.266 27.5662 212.496 27.2741 212.957 26.9205C213.418 26.5669 213.863 26.3363 214.308 26.2594L215.69 25.9826C216.059 25.9211 216.335 25.8289 216.504 25.7367L217.072 25.3369L217.963 24.9987C218.086 24.9218 218.224 24.7681 218.362 24.5528C218.501 24.3376 218.593 23.8917 218.639 23.2306C218.685 22.5695 218.639 22.2006 218.531 22.1083C218.424 22.0314 218.301 21.9853 218.163 21.9699C218.071 21.9699 217.886 21.9853 217.61 22.0314C217.334 22.0776 217.042 22.1544 216.719 22.3082C216.412 22.4465 216.243 22.508 216.228 22.508C216.013 22.4773 215.798 22.2467 215.568 21.8623C215.337 21.4626 215.107 21.109 214.892 20.7861C214.677 20.4633 214.585 20.1865 214.646 19.9405C214.708 19.6945 214.8 19.5715 214.953 19.5408L217.211 19.2179V19.1564ZM215.859 10.2701L218.838 9.24L220.374 8.87101L222.078 8.33291C222.37 8.33291 222.524 8.31754 222.524 8.31754C222.524 8.31754 222.677 8.25604 222.938 8.14842C223.199 8.0408 223.629 7.9793 224.228 7.9793H225.303C226.056 8.01005 226.639 8.13304 227.054 8.34828L228.374 9.10163L228.728 9.48599L230.309 11.4078L230.785 12.0996L231.354 12.7915C231.63 13.1758 231.753 13.5909 231.753 14.0214C231.753 14.4519 231.569 14.6825 231.215 14.7133L229.265 14.8977L228.958 14.99L227.069 14.8977C226.762 14.8977 226.532 14.8977 226.332 14.8977C226.148 14.8977 226.01 14.8977 225.964 14.9285L225.196 15.6665C225.058 15.7741 224.766 15.8971 224.29 16.0201C223.814 16.1431 223.491 16.2046 223.322 16.1892C223.077 16.1892 222.831 16.1431 222.555 16.0508C222.278 15.9586 222.079 15.851 221.971 15.7433C221.864 15.6357 221.725 15.3744 221.556 14.9439C221.403 14.5134 221.295 14.2367 221.28 14.0829C221.249 13.9445 221.234 13.4372 221.203 12.5762C221.173 11.7153 221.034 11.1925 220.804 10.9619C220.574 10.7467 220.374 10.6237 220.22 10.5929C220.113 10.5929 219.883 10.6391 219.529 10.7621C219.176 10.885 218.961 10.9773 218.884 11.0234C218.808 11.0849 218.731 11.1618 218.685 11.2848C218.623 11.4078 218.516 11.6845 218.362 12.115L218.193 12.5455C218.086 12.8683 218.025 13.2373 217.994 13.6524C217.978 14.0675 217.963 14.3904 217.978 14.5903C217.978 14.7133 217.978 14.8209 218.009 14.8977L218.239 15.6665C218.239 15.6665 218.163 15.7895 218.071 15.8817L217.38 16.758C217.088 17.0809 216.735 17.3576 216.335 17.5729L215.629 17.8804C215.045 18.1571 214.708 18.2955 214.585 18.3262C214.462 18.357 214.232 18.3723 213.909 18.3877C213.571 18.4031 213.372 18.3723 213.31 18.2801C213.249 18.1879 213.203 18.0956 213.203 18.0341C213.203 17.9572 213.233 17.8804 213.295 17.8035C213.341 17.7266 213.571 17.6036 213.986 17.4038C214.401 17.2039 214.892 16.635 215.46 15.6818C216.028 14.7286 216.305 13.8369 216.305 13.0067C216.305 12.4686 216.197 12.1457 216.013 12.0228C215.829 11.8998 215.629 11.8229 215.399 11.8075C215.26 11.8075 215.015 11.8383 214.662 11.8844C214.308 11.9459 214.001 12.0535 213.725 12.2226C213.448 12.3917 213.264 12.4532 213.187 12.4225C213.111 12.3917 213.065 12.3302 213.049 12.2226C213.049 12.115 213.049 12.0074 213.08 11.8844C213.157 11.5 213.233 11.254 213.295 11.1772C213.356 11.1003 213.479 11.0234 213.663 10.9619L215.829 10.3162L215.859 10.2701ZM218.286 4.55082L218.439 3.13639C218.547 2.06018 218.931 1.52208 219.575 1.49133C219.729 1.49133 219.867 1.55283 219.959 1.67582L221.249 3.38238C221.311 3.49 221.541 3.9051 221.94 4.65845C222.324 5.41179 222.508 5.90377 222.478 6.16513C222.447 6.34962 222.355 6.53411 222.217 6.68786C222.063 6.8416 221.864 6.93385 221.572 6.94922C221.449 6.94922 221.326 6.94922 221.234 6.9031L220.712 6.64173L219.176 5.99601L218.654 5.81152C218.516 5.75002 218.408 5.67315 218.332 5.55016C218.27 5.44254 218.224 5.27342 218.239 5.05818C218.239 4.84294 218.27 4.67382 218.286 4.53545M224.167 13.3757L225.641 13.5909L226.163 13.883C226.501 13.9138 226.977 13.6063 227.576 12.9452C228.175 12.2841 228.436 11.6845 228.359 11.1157C228.298 10.7313 228.052 10.3469 227.622 9.93184C227.192 9.53211 226.624 9.31687 225.902 9.31687C225.641 9.31687 225.319 9.36299 224.919 9.47061C224.52 9.57823 224.136 9.63973 223.768 9.68585C223.399 9.73197 223.169 9.80885 223.092 9.91647C223 10.0241 222.969 10.1163 222.985 10.1932C222.985 10.2086 223 10.3008 223.046 10.4699C223.092 10.6391 223.107 10.8082 223.123 11.008L223.077 12.4532C223.123 12.7607 223.215 12.976 223.368 13.1143C223.522 13.2527 223.783 13.3603 224.167 13.4064" fill="#221714"/>
<path d="M235.822 20.4171C235.899 20.2019 236.298 19.756 236.989 19.0488L237.88 18.1571L238.571 17.2807L238.878 16.9579C239.016 16.8041 239.185 16.5735 239.369 16.266L240.567 14.2827C241.304 13.1297 241.719 12.5147 241.811 12.4378L242.179 12.0688C242.394 11.5769 242.732 10.9619 243.223 10.2239L243.423 10.1317L243.669 9.17846C243.884 9.13234 244.16 9.20921 244.498 9.40907L245.266 9.8703C245.726 10.1624 245.972 10.3469 246.018 10.4392L246.141 10.6851C245.926 10.885 245.788 11.0234 245.742 11.1003C245.696 11.1771 245.619 11.3462 245.511 11.6076L245.235 12.238C245.081 12.6223 245.005 12.8376 244.974 12.8837C244.943 12.9298 244.805 13.0989 244.559 13.4218C244.298 13.7446 244.083 13.9906 243.884 14.1905C243.684 14.3904 243.561 14.5134 243.515 14.5748L243.116 15.1591L243.054 15.2206L242.747 15.6049L242.548 15.7894L242.41 16.0662C242.41 16.0662 242.363 16.1277 242.348 16.1738C242.317 16.2199 242.21 16.3122 241.995 16.4813C241.78 16.635 241.611 16.8195 241.473 17.004C241.335 17.1885 241.258 17.3269 241.227 17.4191C241.196 17.5113 241.181 17.5728 241.181 17.619C241.181 17.6651 241.166 17.8188 241.135 18.0956C241.104 18.3723 241.074 18.5414 241.028 18.6029C240.981 18.6644 240.828 18.8182 240.551 19.0488L239.83 19.7406L239.753 19.7867C239.369 20.2172 239.047 20.4171 238.755 20.4017L238.663 20.5093L238.617 20.6631C238.402 20.7246 238.233 20.7861 238.11 20.8476C237.987 20.8937 237.864 20.9552 237.741 21.0321C237.618 21.0936 237.542 21.1397 237.511 21.1551C237.496 21.1551 237.296 21.1858 236.927 21.2012C236.559 21.2319 236.375 21.2319 236.375 21.2166L235.684 20.9091C235.684 20.8015 235.745 20.6323 235.822 20.4325M240.075 23.3536V22.9539C240.244 22.8462 240.367 22.7847 240.429 22.754C240.505 22.7386 240.644 22.7232 240.859 22.7079C241.074 22.7079 241.273 22.631 241.442 22.4773C241.611 22.3389 241.749 22.2005 241.841 22.0775C241.934 21.9545 242.133 21.6624 242.41 21.2166L243.316 19.756L243.469 19.6023L244.36 18.1417L244.82 17.2654L245.22 16.5428C245.312 16.3736 245.481 15.9739 245.742 15.3589C246.003 14.744 246.172 14.2981 246.233 14.0521C246.295 13.8061 246.387 13.6063 246.479 13.4679C246.571 13.3295 246.755 13.2527 247.047 13.2527C247.17 13.2527 247.308 13.3142 247.477 13.4525L247.999 13.9753C248.122 14.1136 248.444 14.3596 248.936 14.7286C249.427 15.0976 249.688 15.3743 249.688 15.5896C249.688 15.6357 249.673 15.6664 249.642 15.7279C249.642 15.774 249.596 15.8355 249.565 15.8817C249.519 15.9432 249.458 15.9893 249.381 16.02L249.013 16.1584C249.013 16.1584 248.859 16.266 248.721 16.4044C248.583 16.5428 248.506 16.6196 248.491 16.635L247.646 17.6958C247.646 17.6958 247.569 17.8035 247.492 17.9572C247.416 18.1109 247.247 18.3723 247.001 18.7567L246.586 19.3101C246.51 19.4178 246.433 19.51 246.371 19.6176C246.31 19.7253 246.264 19.7714 246.264 19.8021L245.45 20.9552L245.189 21.2627V21.5087C245.281 21.5702 245.389 21.6009 245.511 21.6009C246.064 21.6163 246.494 21.524 246.786 21.2934L248.091 20.2634C248.091 20.2634 248.337 20.0174 248.721 19.6176C249.105 19.2179 249.596 19.018 250.226 19.018C250.425 19.018 250.855 19.1257 251.516 19.2948C252.176 19.4639 252.683 19.756 253.036 20.1404L253.343 20.5247C253.527 20.74 253.696 21.0167 253.865 21.3242L254.479 22.2313L254.633 22.5541L254.879 23.0154C254.955 23.1537 255.017 23.3075 255.063 23.492C255.124 23.6611 255.155 23.7841 255.17 23.8609C255.17 23.9378 255.186 24.0454 255.186 24.1838C255.17 24.768 255.109 25.1524 255.001 25.3215C254.894 25.4906 254.756 25.5982 254.602 25.6751C254.433 25.7366 254.065 25.7674 253.466 25.7212C253.036 25.7059 252.544 25.5982 251.976 25.3984C251.424 25.1985 251.04 24.9986 250.825 24.768L250.518 24.3222C250.379 24.1684 250.318 24.0608 250.287 23.9993C250.256 23.9378 250.256 23.8917 250.272 23.8302L250.303 23.5535C250.395 23.492 250.456 23.4612 250.487 23.4458C250.517 23.4458 250.656 23.4151 250.901 23.369C251.147 23.3382 251.439 23.2613 251.761 23.1384C252.084 23.0307 252.314 22.9231 252.437 22.8309C252.56 22.7386 252.683 22.6156 252.806 22.4773C252.913 22.3235 252.99 22.2313 253.005 22.2005C253.005 22.1698 253.021 22.0929 253.005 21.9853C253.005 21.8777 252.959 21.6624 252.867 21.3549C252.775 21.0474 252.621 20.7707 252.376 20.5555C252.145 20.3402 251.976 20.2172 251.853 20.1711C251.746 20.125 251.623 20.1096 251.516 20.125C251.408 20.125 251.316 20.1096 251.239 20.0635C250.901 20.2172 250.656 20.3402 250.487 20.4632C250.318 20.5862 250.149 20.74 249.98 20.9398C249.811 21.1397 249.704 21.2934 249.658 21.3857L249.489 21.7854C249.489 21.7854 249.427 21.9238 249.32 22.1236C249.212 22.3235 249.151 22.5541 249.12 22.8001L249.074 23.3228C249.028 23.5688 248.92 23.7994 248.752 24.0454C248.583 24.2914 248.429 24.4452 248.291 24.4913C248.153 24.5528 247.861 24.5835 247.4 24.5989L245.68 24.6912C245.465 24.7065 245.312 24.7219 245.25 24.7373C245.174 24.7527 245.081 24.7988 244.943 24.8603C244.805 24.9218 244.513 25.014 244.053 25.137C243.592 25.2446 243.316 25.3369 243.239 25.3984L242.333 26.0595C242.102 26.2286 241.903 26.3208 241.734 26.3208C241.55 26.3208 241.396 26.2593 241.273 26.1056C241.15 25.9519 241.058 25.7981 241.028 25.6597L240.567 24.3376L240.06 23.3075L240.075 23.3536ZM251.116 8.14838C251.485 8.51736 251.807 8.88635 252.084 9.27071L253.036 10.6698L253.067 10.762L253.236 10.8081C253.343 10.9465 253.42 11.0849 253.512 11.2232L253.665 11.3155L254.802 12.5916L256.092 13.8369L256.43 14.2212L256.921 14.6671L257.443 15.1744C257.627 15.3282 257.735 15.4204 257.781 15.4819C257.996 15.6357 258.149 15.7587 258.272 15.8202L258.718 16.1123L259.992 17.0194L261.62 18.3108C262.864 19.2948 263.509 19.8175 263.555 19.8944C263.601 19.9712 263.662 20.1096 263.693 20.2941C263.57 20.4017 263.478 20.4632 263.417 20.494L263.002 20.6323C262.679 20.74 262.388 20.8015 262.157 20.8015C262.05 20.8015 261.773 20.8015 261.343 20.74L260.391 20.6477L258.61 20.2019L257.274 19.8329L255.954 19.0795C255.616 18.895 255.401 18.7259 255.324 18.5876C255.247 18.4492 255.216 18.2339 255.216 17.9572C255.216 17.9265 255.216 17.7727 255.247 17.5113C255.278 17.25 255.278 17.0809 255.278 17.0194C255.278 16.9886 255.247 16.8964 255.216 16.758L255.109 16.3429L254.848 15.5896C254.71 15.4358 254.648 15.3436 254.648 15.2821L254.587 14.9746L252.806 13.6678L252.038 12.9913L251.239 12.3917C250.855 12.0996 250.518 11.7613 250.21 11.377C249.903 10.9926 249.719 10.762 249.658 10.6851L248.414 9.30146C248.229 9.08621 248.122 8.97859 248.122 8.97859L247.646 8.59424L247.416 8.37899L246.771 8.02539C246.494 7.87164 246.233 7.61028 246.018 7.27204C245.788 6.93381 245.665 6.67244 245.634 6.50333L245.696 5.65774V5.59624C245.696 5.48862 245.665 5.35025 245.634 5.19651C245.604 5.04277 245.588 4.93514 245.604 4.88902C245.604 4.8429 245.634 4.75065 245.68 4.62766L245.819 4.16643C245.88 3.95119 245.972 3.7667 246.095 3.62833C246.218 3.48996 246.341 3.41309 246.479 3.41309C246.571 3.41309 246.663 3.45921 246.74 3.52071C246.832 3.5822 246.97 3.78207 247.155 4.12031C247.354 4.45854 247.584 4.73528 247.846 4.95052L248.122 5.18113L248.398 5.48862L248.828 5.9191L249.059 6.18047L249.458 6.5187L249.734 6.84156L249.826 6.91843L250.241 7.30279C250.395 7.51803 250.656 7.79477 251.024 8.16375" fill="#221714"/>
<path d="M277.161 10.716L277.222 10.6237L277.437 10.5161L278.988 10.1164C279.203 10.0702 279.311 10.0395 279.341 10.0241L279.787 9.978L280.37 9.83963C280.524 9.82426 280.708 9.80888 280.938 9.82426C281.092 9.978 281.276 10.2394 281.491 10.5622C281.691 10.9005 281.814 11.1157 281.829 11.1926L281.89 11.5154C281.983 11.7768 282.013 11.9305 282.013 11.992L281.967 12.2842C281.783 12.4533 281.522 12.5301 281.215 12.4994L280.048 12.4071C279.387 12.361 278.804 12.4071 278.312 12.5301L277.161 12.8376L275.61 13.3911L275.548 13.4526C275.548 13.4526 275.472 13.4526 275.349 13.4526C275.303 13.4526 275.195 13.4833 275.026 13.5295C274.857 13.5756 274.443 13.6063 273.798 13.6525C273.153 13.6986 272.539 13.8062 271.97 13.9753C271.387 14.1598 271.034 14.2674 270.88 14.3289L270.143 14.6672C270.143 14.6672 270.005 14.6979 269.943 14.6979C269.713 14.6979 269.56 14.6518 269.498 14.5442C269.437 14.4366 269.391 14.3597 269.391 14.3443C269.391 14.3136 269.329 14.1291 269.252 13.7601L269.191 13.5141C269.191 13.5141 269.145 13.2527 269.114 12.9299C269.083 12.607 269.083 12.4071 269.13 12.3149C269.237 12.0997 269.406 12.0074 269.682 12.0074C269.728 12.0074 269.851 12.0382 270.02 12.0689C270.204 12.0997 270.297 12.115 270.327 12.115C270.404 12.115 270.558 12.115 270.757 12.0535L272.339 11.7307C272.876 11.6231 273.199 11.5616 273.352 11.5308C273.506 11.5154 273.583 11.5001 273.629 11.4847L274.52 11.2387L275.779 10.962C276.5 10.7313 276.946 10.6237 277.145 10.6545M279.802 14.9285L280.063 14.99C280.155 15.0208 280.37 15.1284 280.739 15.3129L281.414 15.6819C281.553 15.7895 281.645 15.9125 281.706 16.0509C281.768 16.1892 281.783 16.2815 281.783 16.3276C281.783 16.3737 281.752 16.4352 281.721 16.4813L281.215 17.0809C281.153 17.1732 281.061 17.3116 280.938 17.5114C280.831 17.7113 280.754 17.8497 280.723 17.9265L280.616 18.234L280.14 19.0642C280.063 19.2487 280.032 19.4178 280.032 19.6023C280.032 19.6485 280.032 19.7561 280.048 19.9559C280.048 20.1558 280.078 20.2788 280.078 20.3249C280.078 20.371 280.094 20.4172 280.094 20.4633C280.094 20.5094 280.094 20.5555 280.078 20.6324C280.017 20.7708 279.94 20.8784 279.863 20.9553C279.771 21.0321 279.587 21.0936 279.28 21.1244L278.067 21.2474L277.191 21.2781L276.04 21.5549C275.579 21.6779 275.272 21.7547 275.149 21.8162L274.274 22.1698C274.028 22.2621 273.844 22.3236 273.721 22.3236C273.491 22.3236 273.26 22.2006 273.03 21.9392L272.155 20.9706L271.986 20.8169L271.11 19.3871L270.22 17.6344C270.22 17.6344 270.189 17.5729 270.158 17.4499C270.128 17.3269 270.097 17.2347 270.082 17.1424C270.066 17.0656 270.204 16.8965 270.496 16.6658C270.742 16.4506 271.08 16.2815 271.479 16.1585L273.337 15.5896L274.888 15.0823L275.287 14.9593L276.516 14.5903C276.731 14.5288 277.069 14.4827 277.529 14.4519C277.882 14.4519 278.236 14.4827 278.589 14.5749L279.756 14.8978L279.802 14.9285ZM273.322 6.59565C273.322 6.59565 273.445 6.48803 273.491 6.42653C273.537 6.41116 273.567 6.39578 273.598 6.38041L274.32 6.51878L275.794 6.39578L276.393 6.24204L279.418 5.39645C280.002 5.24271 281 4.96597 282.412 4.59699L282.919 4.42787L284.24 4.1665L285.699 4.19725L286.973 4.41249C287.296 4.47399 287.511 4.52011 287.634 4.56624L287.987 4.71998L288.355 4.79685C288.678 4.8891 288.877 5.01209 288.939 5.16584C289 5.31958 289.031 5.44257 289.031 5.50407C289.031 5.58094 289 5.64244 288.985 5.73469L288.524 6.61102C288.386 6.87239 288.325 7.19525 288.325 7.56423V8.45594L288.171 10.0549C288.156 10.2547 288.14 10.3777 288.14 10.4239L288.079 10.7775L288.002 11.746L287.879 13.0529L287.849 13.1451L287.802 15.1284V16.6197C287.802 16.6966 287.787 16.8042 287.772 16.9579C287.772 17.1117 287.741 17.2193 287.741 17.2962C287.741 17.3731 287.741 17.5729 287.772 17.8958L287.895 19.5716C287.895 19.6946 287.895 19.7868 287.895 19.8329C287.895 19.8791 287.895 19.9098 287.895 19.9406C287.895 19.9713 287.895 20.0789 287.895 20.2634C287.895 20.4479 287.895 21.0014 287.895 21.9239V23.9686L287.971 24.2761L288.063 25.7367L288.11 26.2902V26.5823V26.9205C288.063 27.228 287.91 27.3664 287.649 27.3664C287.572 27.3664 287.511 27.3664 287.434 27.3664C287.357 27.3664 287.234 27.2741 287.035 27.1358C286.85 26.9974 286.62 26.8744 286.359 26.7668L284.931 26.2133L283.533 25.5368C282.858 25.214 282.412 25.0295 282.182 24.9526C281.952 24.8911 281.814 24.8296 281.783 24.7989L280.401 23.9533L279.756 23.5689C279.618 23.4767 279.51 23.3537 279.433 23.1999C279.357 23.0616 279.326 22.9386 279.341 22.8463V22.6311L279.541 22.4927L280.754 22.7079C281.077 22.7694 281.522 22.8771 282.059 23.0308C282.597 23.1846 283.073 23.2614 283.472 23.246C284.04 23.246 284.409 23.2153 284.562 23.1692C284.716 23.1077 284.839 23.0001 284.9 22.8156C284.977 22.6311 285.038 22.1852 285.1 21.478L285.146 20.986C285.146 20.8015 285.146 20.6478 285.146 20.5248C285.146 20.4018 285.146 20.1712 285.146 19.8791L285.115 18.9412C285.115 18.8029 285.1 18.5723 285.1 18.2648C285.1 17.9419 285.1 17.7728 285.1 17.7267L285.13 17.2193V16.2969C285.1 16.1739 285.115 16.0355 285.13 15.9279C285.13 15.7126 285.146 15.605 285.161 15.605V15.2514L285.192 14.8209V13.4526V13.345L285.115 12.1304L285.023 10.6545C285.023 10.6545 285.008 10.5469 284.992 10.4392C284.992 10.3316 284.977 10.2701 284.977 10.2394L284.931 8.88642C284.9 8.59431 284.839 8.31757 284.747 8.04084C284.654 7.7641 284.516 7.50273 284.332 7.24137C284.148 6.98001 283.825 6.85701 283.349 6.84164C282.873 6.84164 282.551 6.85701 282.351 6.90313L281.076 7.226C280.785 7.30287 280.554 7.39511 280.385 7.48736C280.217 7.57961 279.971 7.68723 279.633 7.81022L278.773 8.07158C278.558 8.14846 278.481 8.1792 278.512 8.16383C278.543 8.16383 278.589 8.14846 278.62 8.13308C278.65 8.11771 278.343 8.19458 277.698 8.3637C277.575 8.40982 277.176 8.47132 276.516 8.57894C275.855 8.68656 275.333 8.80955 274.949 8.9633C274.566 9.11704 274.32 9.17854 274.212 9.14779C274.013 9.11704 273.859 9.00942 273.752 8.8403C273.644 8.67118 273.567 8.39445 273.491 8.04084C273.429 7.68723 273.368 7.42586 273.322 7.25674C273.276 7.103 273.26 7.01076 273.276 6.99538L273.383 6.68789V6.61102L273.322 6.59565ZM274.734 19.2795C275.64 19.2641 276.239 19.1411 276.531 18.9259C276.823 18.7106 277.007 18.4954 277.084 18.2648C277.161 18.0342 277.191 17.8497 277.191 17.6652C277.191 17.5268 277.13 17.3884 277.023 17.2501C276.915 17.1117 276.746 17.0348 276.5 17.0041C276.147 16.9887 275.671 17.1117 275.103 17.3884C274.535 17.6652 274.212 17.8497 274.151 17.9573C274.074 18.0495 274.043 18.2186 274.028 18.4493C274.013 18.6799 274.028 18.8182 274.028 18.8797C274.105 19.1565 274.335 19.2948 274.719 19.2641" fill="#221714"/>
<path d="M71.4053 35.6223L71.6356 38.9893H71.4053C71.0982 37.9746 70.6682 37.252 70.1154 36.8061C69.5626 36.3603 68.8869 36.145 68.1037 36.145C67.597 36.145 67.121 36.2373 66.691 36.4371C66.261 36.637 65.8925 36.9291 65.5853 37.3288C65.2782 37.7286 65.0325 38.2359 64.8636 38.8355C64.6947 39.4351 64.6026 40.1577 64.6026 40.9726C64.6026 41.6337 64.6793 42.2333 64.8483 42.7714C65.0172 43.3095 65.2475 43.7707 65.57 44.155C65.8771 44.5394 66.2764 44.8315 66.737 45.0314C67.1977 45.2466 67.7198 45.3389 68.3187 45.3389C68.9483 45.3389 69.5165 45.2005 70.0232 44.9238C70.5146 44.6624 71.0521 44.1243 71.651 43.2787L71.8813 43.4171C71.3746 44.2934 70.791 44.9391 70.1461 45.3542C69.4858 45.7694 68.7026 45.9692 67.7813 45.9692C67.0749 45.9692 66.4299 45.8462 65.8464 45.6002C65.2629 45.3542 64.7561 45.0006 64.3262 44.5548C63.8962 44.1089 63.5737 43.5708 63.328 42.9559C63.0823 42.3409 62.9595 41.6644 62.9595 40.9264C62.9595 39.9271 63.1745 39.02 63.6198 38.1898C64.0497 37.3596 64.664 36.7139 65.4471 36.268C66.2303 35.8068 67.0902 35.5762 67.9962 35.5762C68.718 35.5762 69.4244 35.7453 70.1154 36.0989C70.315 36.2065 70.4686 36.268 70.5453 36.268C70.6989 36.268 70.8371 36.2065 70.9446 36.0682C71.0521 35.9452 71.1289 35.776 71.1749 35.5762H71.4206L71.4053 35.6223Z" fill="#221714"/>
<path d="M77.6861 40.4498H82.2929V37.6056C82.2929 37.375 82.2929 37.1751 82.2929 37.0367C82.2929 36.883 82.2622 36.76 82.2314 36.6677C82.2007 36.5755 82.1547 36.4986 82.1086 36.4371C82.0625 36.3756 81.9858 36.3295 81.8936 36.2834C81.694 36.1604 81.4637 36.1143 81.2333 36.1143H80.8801V35.8375H85.1184V36.1143H84.7652C84.6731 36.1143 84.5656 36.1143 84.4581 36.145C84.3506 36.1604 84.2584 36.2065 84.1663 36.2373C84.0742 36.2834 83.9974 36.3295 83.9206 36.4064C83.8438 36.4679 83.7978 36.5447 83.767 36.637C83.721 36.7907 83.6903 37.1136 83.6903 37.6056V44.0013C83.6903 44.2319 83.6903 44.4164 83.7056 44.5701C83.7056 44.7239 83.7363 44.8315 83.767 44.9238C83.7978 45.016 83.8285 45.0929 83.8745 45.1544C83.9206 45.2159 83.9974 45.262 84.0895 45.3081C84.2892 45.4157 84.5195 45.4772 84.7652 45.4772H85.1184V45.754H80.8801V45.4772H81.2333C81.4022 45.4772 81.5558 45.4772 81.6786 45.4465C81.8015 45.4157 81.9243 45.3542 82.0165 45.262C82.1086 45.1697 82.1854 45.016 82.2314 44.8161C82.2775 44.6163 82.3082 44.3395 82.3082 44.0013V40.9726H77.7014V44.0013C77.7014 44.2319 77.7014 44.4164 77.7014 44.5701C77.7014 44.7239 77.7321 44.8315 77.7629 44.9238C77.7936 45.016 77.8396 45.0929 77.8857 45.1544C77.9471 45.2159 78.0086 45.262 78.1007 45.3081C78.3003 45.4157 78.5307 45.4772 78.761 45.4772H79.1142V45.754H74.8606V45.4772H75.2291C75.6284 45.4772 75.9201 45.3542 76.1044 45.1236C76.2273 44.9699 76.2733 44.6009 76.2733 44.0013V37.6056C76.2733 37.3596 76.2733 37.1751 76.2733 37.0213C76.2733 36.8676 76.2426 36.76 76.2119 36.6677C76.1812 36.5755 76.1505 36.4986 76.089 36.4525C76.043 36.391 75.9662 36.3449 75.8741 36.2988C75.6744 36.1758 75.4441 36.1296 75.2138 36.1296H74.8452V35.8529H79.0988V36.1296H78.7456C78.6535 36.1296 78.5614 36.1296 78.4539 36.1604C78.3464 36.1758 78.2542 36.2219 78.1621 36.2526C78.07 36.2988 77.9932 36.3449 77.9164 36.4218C77.8396 36.4832 77.7936 36.5601 77.7629 36.6524C77.7014 36.8215 77.6707 37.1443 77.6707 37.6209V40.4652L77.6861 40.4498Z" fill="#221714"/>
<path d="M92.2744 45.4926V45.7693H88.0361V45.4926H88.3893C88.5582 45.4926 88.7118 45.4926 88.85 45.4619C88.9882 45.4311 89.0957 45.3696 89.1878 45.2774C89.28 45.1697 89.3414 45.0314 89.3875 44.8315C89.4335 44.6316 89.4642 44.3549 89.4642 44.0167V37.6056C89.4642 37.375 89.4642 37.1905 89.4489 37.0367C89.4489 36.883 89.4182 36.76 89.4028 36.6677C89.3721 36.5755 89.3414 36.4986 89.28 36.4371C89.2339 36.3756 89.1571 36.3295 89.0803 36.2834C88.8654 36.1604 88.635 36.1143 88.4047 36.1143H88.0515V35.8375H92.2897V36.1143H91.9366C91.7676 36.1143 91.6141 36.1143 91.4759 36.1604C91.3377 36.1911 91.2302 36.2526 91.138 36.3449C91.0459 36.4371 90.9845 36.5909 90.9384 36.7907C90.8923 36.9906 90.8616 37.252 90.8616 37.5902V44.0013C90.8616 44.2319 90.8616 44.4164 90.8616 44.5701C90.8616 44.7239 90.8923 44.8315 90.9231 44.9238C90.9538 45.016 90.9998 45.0929 91.0459 45.1544C91.092 45.2005 91.1688 45.262 91.2609 45.3081C91.4605 45.4157 91.6909 45.4772 91.9212 45.4772H92.2744V45.4926Z" fill="#221714"/>
<path d="M94.6851 35.8375H97.3724L103.438 43.2787V37.5594C103.438 37.2212 103.407 36.9598 103.361 36.76C103.315 36.5601 103.238 36.4217 103.162 36.3141C103.069 36.2219 102.962 36.1604 102.824 36.1296C102.701 36.0989 102.547 36.0989 102.378 36.0989H102.025V35.8221H105.48V36.0989H105.127C104.958 36.0989 104.805 36.0989 104.666 36.145C104.544 36.1758 104.421 36.2373 104.344 36.3449C104.267 36.4525 104.19 36.5909 104.144 36.7754C104.098 36.9598 104.083 37.2212 104.083 37.5441V45.9077H103.822L97.2802 37.9131V44.032C97.2802 44.3703 97.3109 44.647 97.357 44.8315C97.4031 45.016 97.4645 45.1697 97.5566 45.262C97.6488 45.3542 97.7563 45.4157 97.8791 45.4311C98.0173 45.4465 98.1555 45.4619 98.3244 45.4619H98.6776V45.7386H95.2225V45.4619H95.5757C95.7446 45.4619 95.8982 45.4619 96.0364 45.4157C96.1592 45.385 96.2821 45.3235 96.3742 45.2312C96.4664 45.139 96.5278 44.9852 96.5738 44.8008C96.6199 44.6163 96.6353 44.3549 96.6353 44.032V37.129C96.4971 36.9598 96.3742 36.8215 96.2667 36.7139C96.1592 36.6062 96.0825 36.5294 95.9903 36.4679C95.8982 36.4064 95.806 36.3449 95.7139 36.2987C95.6064 36.2526 95.4836 36.2065 95.33 36.1604C95.1765 36.1143 94.9768 36.0989 94.6851 36.0989V35.8221V35.8375Z" fill="#221714"/>
<path d="M114.771 42.4485H110.932L110.256 44.0167C110.102 44.401 110.01 44.6932 110.01 44.8777C110.01 44.9545 110.01 45.0314 110.056 45.0929C110.087 45.1544 110.133 45.2159 110.225 45.2774C110.317 45.3389 110.425 45.385 110.578 45.4158C110.732 45.4619 110.932 45.4773 111.177 45.4926V45.7694H108.06V45.4926C108.306 45.4619 108.505 45.4004 108.659 45.3235C108.813 45.2466 108.935 45.1544 109.058 45.016C109.166 44.893 109.273 44.7239 109.35 44.524C109.442 44.3242 109.55 44.0628 109.688 43.7707L113.174 35.6069H113.419L116.859 43.8476C116.997 44.1858 117.12 44.4625 117.243 44.6778C117.366 44.893 117.489 45.0468 117.611 45.1698C117.734 45.2928 117.873 45.3696 118.026 45.4158C118.18 45.4619 118.349 45.4773 118.564 45.4926V45.7694H114.648V45.4926C115.032 45.4926 115.308 45.4158 115.446 45.3081C115.584 45.2005 115.661 45.0621 115.661 44.893C115.661 44.6778 115.554 44.3396 115.37 43.863L114.771 42.4485ZM114.556 41.895L112.882 37.8823L111.162 41.895H114.571H114.556Z" fill="#221714"/>
<path d="M132.108 41.1263V44.0167C132.108 44.647 132.169 45.0468 132.307 45.1851C132.491 45.4004 132.783 45.508 133.152 45.508H133.536V45.7847H129.297V45.508H129.666C130.081 45.508 130.372 45.3696 130.557 45.1083C130.664 44.9545 130.71 44.5855 130.71 44.0321V37.621C130.71 37.006 130.649 36.6216 130.51 36.4679C130.311 36.2526 130.034 36.145 129.666 36.145H129.297V35.8683H132.921C133.797 35.8683 134.488 35.9605 135.01 36.145C135.271 36.2373 135.501 36.3603 135.732 36.514C135.947 36.6678 136.146 36.8522 136.315 37.0675C136.484 37.2827 136.607 37.5133 136.699 37.7747C136.791 38.0361 136.837 38.3128 136.837 38.6049C136.837 39.0047 136.776 39.3736 136.638 39.7119C136.499 40.0501 136.3 40.3268 136.039 40.5728C135.778 40.8188 135.455 41.0033 135.087 41.1417C134.703 41.2801 134.273 41.3415 133.781 41.3415C133.29 41.3415 132.752 41.2801 132.108 41.1417M132.108 40.6958C132.369 40.7419 132.599 40.7881 132.799 40.8188C132.998 40.8496 133.167 40.8496 133.305 40.8496C133.566 40.8496 133.797 40.7881 134.027 40.6958C134.257 40.5882 134.457 40.4498 134.626 40.25C134.795 40.0655 134.933 39.8349 135.025 39.5735C135.117 39.3121 135.179 39.02 135.179 38.7279C135.179 38.3589 135.117 38.0361 135.01 37.7593C134.902 37.4826 134.749 37.2366 134.564 37.0367C134.38 36.8369 134.15 36.6985 133.904 36.5909C133.643 36.4833 133.367 36.4371 133.075 36.4371C132.829 36.4371 132.507 36.4833 132.123 36.5601V40.6805L132.108 40.6958Z" fill="#221714"/>
<path d="M145.068 35.6223C145.698 35.6223 146.297 35.7607 146.88 36.022C147.449 36.2834 147.955 36.637 148.401 37.0982C148.831 37.5595 149.184 38.0976 149.445 38.7126C149.706 39.3275 149.829 40.004 149.829 40.742C149.829 41.4799 149.706 42.1872 149.445 42.8329C149.184 43.4786 148.831 44.0321 148.401 44.4933C147.955 44.9699 147.449 45.3389 146.85 45.6003C146.251 45.8616 145.621 46 144.961 46C144.301 46 143.656 45.877 143.057 45.6156C142.473 45.3696 141.951 45.0007 141.521 44.5394C141.091 44.0782 140.753 43.5247 140.492 42.879C140.247 42.2333 140.108 41.5261 140.108 40.7573C140.108 40.0501 140.231 39.3737 140.492 38.7433C140.738 38.113 141.091 37.5749 141.537 37.1136C141.982 36.6524 142.489 36.2834 143.103 36.022C143.702 35.7607 144.362 35.6223 145.084 35.6223M144.93 36.1604C144.423 36.1604 143.978 36.268 143.594 36.4833C143.21 36.6985 142.872 37.006 142.611 37.4057C142.35 37.8055 142.135 38.2821 142.013 38.8509C141.874 39.4198 141.798 40.0501 141.798 40.7573C141.798 41.4646 141.859 42.0949 141.997 42.6791C142.135 43.2634 142.335 43.7553 142.596 44.1704C142.857 44.5855 143.195 44.9084 143.579 45.139C143.978 45.3696 144.423 45.4773 144.93 45.4773C145.391 45.4773 145.805 45.385 146.205 45.2159C146.589 45.0468 146.926 44.77 147.218 44.4011C147.51 44.0321 147.74 43.5708 147.894 42.9866C148.063 42.4178 148.14 41.7259 148.14 40.9418C148.14 40.1885 148.078 39.5274 147.94 38.9278C147.802 38.3282 147.602 37.8362 147.326 37.4211C147.049 37.006 146.711 36.6985 146.312 36.4833C145.913 36.268 145.437 36.1604 144.915 36.1604" fill="#221714"/>
<path d="M159.503 35.6223V39.0508H159.226C159.103 38.1283 158.796 37.4211 158.32 36.9291C157.844 36.4372 157.23 36.1912 156.493 36.1912C156.232 36.1912 156.001 36.2373 155.787 36.3295C155.572 36.4218 155.387 36.5294 155.234 36.6678C155.08 36.8061 154.957 36.9753 154.865 37.1597C154.773 37.3442 154.742 37.5287 154.742 37.7286C154.742 37.9131 154.773 38.0822 154.85 38.2513C154.927 38.4204 155.142 38.6664 155.525 39.02C156.155 39.4198 156.723 39.758 157.215 40.0194C157.675 40.2807 158.305 40.6651 159.103 41.1724C159.441 41.4338 159.702 41.7413 159.887 42.1103C160.071 42.4639 160.163 42.8483 160.163 43.2326C160.163 43.617 160.086 43.9552 159.933 44.2934C159.779 44.6317 159.564 44.9238 159.303 45.1698C159.027 45.4158 158.704 45.6156 158.32 45.7694C157.936 45.9231 157.506 46 157.061 46C156.769 46 156.508 45.9692 156.247 45.9385C156.201 45.9385 156.094 45.9077 155.909 45.8462C155.725 45.7847 155.525 45.7386 155.31 45.6771C155.095 45.6156 154.896 45.5695 154.727 45.508C154.543 45.4619 154.435 45.4311 154.404 45.4311C154.282 45.4311 154.189 45.4619 154.113 45.5388C154.036 45.6156 153.99 45.7694 153.959 46H153.683V42.5869H153.959C154.097 43.2941 154.266 43.8168 154.466 44.2012C154.573 44.3703 154.712 44.5394 154.881 44.6932C155.049 44.8469 155.249 44.9699 155.464 45.0929C155.679 45.2005 155.909 45.2928 156.155 45.3543C156.401 45.4158 156.646 45.4465 156.908 45.4465C157.215 45.4465 157.491 45.4004 157.737 45.3081C157.982 45.2159 158.182 45.1083 158.366 44.9545C158.535 44.8008 158.673 44.6317 158.75 44.4318C158.842 44.2319 158.888 44.0321 158.888 43.8168C158.888 43.5708 158.827 43.3249 158.689 43.0789C158.551 42.8329 158.32 42.5869 158.013 42.3409C157.706 42.1564 157.322 41.9258 156.892 41.6798C156.063 41.2032 155.341 40.7573 154.696 40.3115C154.343 40.0347 154.067 39.7119 153.882 39.3737C153.698 39.0354 153.606 38.6664 153.606 38.2513C153.606 37.8977 153.683 37.5749 153.821 37.252C153.975 36.9291 154.174 36.6524 154.42 36.4218C154.681 36.1758 154.988 35.9913 155.341 35.8529C155.694 35.7146 156.078 35.6377 156.493 35.6377C157.015 35.6377 157.568 35.7607 158.167 36.022C158.305 36.0835 158.428 36.1297 158.52 36.1604C158.612 36.1912 158.689 36.2065 158.75 36.2065C158.888 36.2065 158.981 36.1758 159.073 36.0989C159.149 36.022 159.211 35.8683 159.257 35.6377H159.533L159.503 35.6223Z" fill="#221714"/>
<path d="M171.849 35.8375V38.1744H171.68C171.604 37.5441 171.419 37.0982 171.128 36.8522C170.836 36.6062 170.421 36.4679 169.853 36.4679H168.456V44.0628C168.456 44.401 168.486 44.6624 168.532 44.8623C168.578 45.0468 168.64 45.2005 168.732 45.2927C168.824 45.385 168.932 45.4465 169.054 45.4772C169.177 45.508 169.331 45.508 169.515 45.508H169.853V45.7847H165.645V45.508H165.999C166.168 45.508 166.321 45.508 166.459 45.4619C166.598 45.4311 166.705 45.3696 166.782 45.2774C166.874 45.1851 166.935 45.0314 166.981 44.8469C167.027 44.6624 167.058 44.401 167.058 44.0782V36.4832H165.876C165.584 36.4832 165.308 36.4986 165.093 36.5601C164.878 36.6216 164.663 36.6985 164.494 36.8215C164.325 36.9445 164.187 37.129 164.094 37.3442C163.987 37.5748 163.941 37.8516 163.91 38.2052H163.634V35.8683H171.834L171.849 35.8375Z" fill="#221714"/>
<path d="M180.218 42.4485H176.379L175.703 44.0167C175.55 44.401 175.458 44.6932 175.458 44.8777C175.458 44.9545 175.458 45.0314 175.488 45.0929C175.519 45.1544 175.565 45.2159 175.657 45.2774C175.75 45.3389 175.857 45.385 176.011 45.4158C176.164 45.4619 176.364 45.4773 176.609 45.4926V45.7694H173.492V45.4926C173.738 45.4619 173.938 45.4004 174.091 45.3235C174.245 45.2466 174.367 45.1544 174.49 45.016C174.598 44.893 174.705 44.7239 174.797 44.524C174.89 44.3242 174.997 44.0628 175.135 43.7707L178.621 35.6069H178.867L182.307 43.8476C182.445 44.1858 182.568 44.4625 182.69 44.6778C182.813 44.893 182.936 45.0468 183.059 45.1698C183.182 45.2928 183.32 45.3696 183.474 45.4158C183.627 45.4619 183.796 45.4773 184.011 45.4926V45.7694H180.095V45.4926C180.495 45.4926 180.756 45.4158 180.894 45.3081C181.032 45.2005 181.109 45.0621 181.109 44.893C181.109 44.6778 181.001 44.3396 180.817 43.863L180.218 42.4485ZM180.003 41.895L178.329 37.8823L176.609 41.895H180.018H180.003Z" fill="#221714"/>
<path d="M194.99 43.0173L195.236 43.0635L194.392 45.7694H186.714V45.4926H187.097C187.497 45.4926 187.804 45.3542 187.988 45.0929C188.096 44.9391 188.142 44.5702 188.142 44.0167V37.6056C188.142 36.9906 188.08 36.6062 187.927 36.4525C187.742 36.2373 187.466 36.1296 187.082 36.1296H186.698V35.8529H191.198V36.1296C190.921 36.1296 190.706 36.1296 190.522 36.1604C190.338 36.1911 190.199 36.2219 190.077 36.268C189.954 36.3141 189.877 36.3756 189.8 36.4371C189.739 36.4986 189.677 36.5755 189.631 36.6524C189.554 36.8061 189.524 37.1751 189.524 37.7747V44.0013C189.524 44.3395 189.554 44.5855 189.601 44.7393C189.647 44.893 189.754 45.0006 189.908 45.0468C190.046 45.0929 190.414 45.1083 191.059 45.1083H191.781C192.549 45.1083 193.086 45.0621 193.378 44.9391C193.532 44.893 193.67 44.8161 193.808 44.7239C193.946 44.6316 194.084 44.5087 194.207 44.3549C194.346 44.2012 194.468 44.0167 194.591 43.8014C194.714 43.5862 194.837 43.3248 194.975 43.002" fill="#221714"/>
<path d="M212.849 42.4485H209.01L208.335 44.0167C208.181 44.401 208.089 44.6932 208.089 44.8777C208.089 44.9545 208.089 45.0314 208.12 45.0929C208.151 45.1544 208.197 45.2159 208.289 45.2774C208.381 45.3389 208.488 45.385 208.642 45.4158C208.795 45.4619 208.995 45.4773 209.241 45.4926V45.7694H206.124V45.4926C206.369 45.4619 206.569 45.4004 206.722 45.3235C206.876 45.2466 206.999 45.1544 207.122 45.016C207.229 44.893 207.337 44.7239 207.429 44.524C207.521 44.3242 207.628 44.0628 207.767 43.7707L211.252 35.6069H211.498L214.938 43.8476C215.076 44.1858 215.199 44.4625 215.322 44.6778C215.445 44.893 215.567 45.0468 215.69 45.1698C215.813 45.2928 215.951 45.3696 216.105 45.4158C216.258 45.4619 216.427 45.4773 216.642 45.4926V45.7694H212.727V45.4926C213.126 45.4926 213.387 45.4158 213.525 45.3081C213.663 45.2005 213.74 45.0621 213.74 44.893C213.74 44.6778 213.633 44.3396 213.448 43.863L212.849 42.4485ZM212.634 41.895L210.961 37.8823L209.241 41.895H212.65H212.634Z" fill="#221714"/>
<path d="M223.645 45.4926V45.7693H219.407V45.4926H219.76C219.929 45.4926 220.082 45.4926 220.221 45.4619C220.359 45.4311 220.466 45.3696 220.558 45.2774C220.651 45.1697 220.712 45.0314 220.758 44.8315C220.804 44.6316 220.835 44.3549 220.835 44.0167V37.6056C220.835 37.375 220.835 37.1905 220.819 37.0367C220.819 36.883 220.789 36.76 220.773 36.6677C220.743 36.5755 220.712 36.4986 220.651 36.4371C220.605 36.3756 220.528 36.3295 220.451 36.2834C220.236 36.1604 220.006 36.1143 219.775 36.1143H219.422V35.8375H223.66V36.1143H223.307C223.138 36.1143 222.985 36.1143 222.846 36.1604C222.708 36.1911 222.601 36.2526 222.509 36.3449C222.416 36.4371 222.355 36.5909 222.309 36.7907C222.263 36.9906 222.232 37.252 222.232 37.5902V44.0013C222.232 44.2319 222.232 44.4164 222.232 44.5701C222.232 44.7239 222.263 44.8315 222.294 44.9238C222.324 45.016 222.37 45.0929 222.417 45.1544C222.478 45.2005 222.539 45.262 222.631 45.3081C222.831 45.4157 223.061 45.4772 223.292 45.4772H223.645V45.4926Z" fill="#221714"/>
<path d="M236.375 45.7694H233.734L230.371 41.1263C230.248 41.1263 230.141 41.1263 230.033 41.1417C229.941 41.1417 229.849 41.1417 229.772 41.1417C229.711 41.1417 229.634 41.1417 229.557 41.1417C229.48 41.1417 229.404 41.1417 229.327 41.1263V44.0167C229.327 44.3703 229.342 44.6317 229.404 44.8469C229.45 45.0468 229.526 45.2005 229.619 45.2928C229.711 45.385 229.818 45.4465 229.941 45.4772C230.064 45.508 230.217 45.508 230.371 45.508H230.77V45.7847H226.517V45.508H226.901C227.3 45.508 227.607 45.3696 227.791 45.1083C227.899 44.9545 227.945 44.5855 227.945 44.0321V37.621C227.945 37.006 227.883 36.6216 227.745 36.4679C227.561 36.2526 227.269 36.145 226.901 36.145H226.517V35.8683H230.125C230.663 35.8683 231.108 35.8837 231.492 35.9298C231.876 35.9759 232.198 36.0374 232.444 36.1143C232.69 36.1911 232.92 36.2988 233.15 36.4525C233.365 36.5909 233.565 36.76 233.719 36.9599C233.887 37.1597 234.01 37.3903 234.102 37.6363C234.195 37.8823 234.241 38.1437 234.241 38.4358C234.241 39.0508 234.041 39.5889 233.657 40.0347C233.258 40.4806 232.644 40.7881 231.814 40.9879L233.857 43.8322C234.102 44.1551 234.302 44.4318 234.502 44.647C234.686 44.8623 234.87 45.0314 235.055 45.1544C235.239 45.2774 235.438 45.3696 235.638 45.4311C235.853 45.4926 236.083 45.5387 236.375 45.5541V45.8309V45.7694ZM229.327 40.6651C229.419 40.6651 229.496 40.6651 229.572 40.6651C229.634 40.6651 229.695 40.6651 229.741 40.6651C230.217 40.6651 230.632 40.6036 230.985 40.496C231.338 40.3883 231.646 40.2346 231.876 40.0347C232.122 39.8349 232.29 39.6042 232.413 39.3429C232.536 39.0815 232.598 38.7894 232.598 38.4819C232.598 38.1744 232.552 37.8977 232.444 37.6363C232.337 37.375 232.198 37.1597 232.014 36.9752C231.83 36.7907 231.599 36.6524 231.338 36.5448C231.077 36.4371 230.786 36.391 230.478 36.391C230.171 36.391 229.803 36.4371 229.327 36.5294V40.6497V40.6651Z" fill="#221714"/>
<path d="M247.047 43.0173L247.293 43.0635L246.448 45.7694H238.77V45.4926H239.154C239.553 45.4926 239.861 45.3542 240.045 45.0929C240.152 44.9391 240.198 44.5702 240.198 44.0167V37.6056C240.198 36.9906 240.137 36.6062 239.983 36.4525C239.799 36.2373 239.523 36.1296 239.139 36.1296H238.755V35.8529H243.254V36.1296C242.978 36.1296 242.763 36.1296 242.579 36.1604C242.394 36.1911 242.256 36.2219 242.133 36.268C242.01 36.3141 241.934 36.3756 241.857 36.4371C241.795 36.4986 241.734 36.5755 241.688 36.6524C241.611 36.8061 241.58 37.1751 241.58 37.7747V44.0013C241.58 44.3395 241.611 44.5855 241.657 44.7393C241.703 44.893 241.811 45.0006 241.964 45.0468C242.103 45.0929 242.471 45.1083 243.116 45.1083H243.838C244.606 45.1083 245.143 45.0621 245.435 44.9391C245.588 44.893 245.727 44.8161 245.865 44.7239C246.003 44.6316 246.141 44.5087 246.264 44.3549C246.402 44.2012 246.525 44.0167 246.648 43.8014C246.771 43.5862 246.894 43.3248 247.032 43.002" fill="#221714"/>
<path d="M254.465 45.4926V45.7693H250.227V45.4926H250.58C250.749 45.4926 250.902 45.4926 251.04 45.4619C251.179 45.4311 251.286 45.3696 251.378 45.2774C251.47 45.1697 251.532 45.0314 251.578 44.8315C251.624 44.6316 251.655 44.3549 251.655 44.0167V37.6056C251.655 37.375 251.655 37.1905 251.639 37.0367C251.639 36.883 251.609 36.76 251.593 36.6677C251.563 36.5755 251.532 36.4986 251.47 36.4371C251.424 36.3756 251.348 36.3295 251.271 36.2834C251.056 36.1604 250.825 36.1143 250.595 36.1143H250.242V35.8375H254.48V36.1143H254.127C253.958 36.1143 253.805 36.1143 253.666 36.1604C253.528 36.1911 253.421 36.2526 253.328 36.3449C253.236 36.4371 253.175 36.5909 253.129 36.7907C253.083 36.9906 253.052 37.252 253.052 37.5902V44.0013C253.052 44.2319 253.052 44.4164 253.052 44.5701C253.052 44.7239 253.083 44.8315 253.113 44.9238C253.144 45.016 253.19 45.0929 253.236 45.1544C253.298 45.2005 253.359 45.262 253.451 45.3081C253.651 45.4157 253.881 45.4772 254.112 45.4772H254.465V45.4926Z" fill="#221714"/>
<path d="M256.86 35.8375H259.548L265.613 43.2787V37.5594C265.613 37.2212 265.583 36.9598 265.536 36.76C265.49 36.5601 265.414 36.4217 265.337 36.3141C265.245 36.2219 265.137 36.1604 264.999 36.1296C264.861 36.0989 264.723 36.0989 264.554 36.0989H264.201V35.8221H267.656V36.0989H267.302C267.134 36.0989 266.98 36.0989 266.842 36.145C266.704 36.1758 266.596 36.2373 266.519 36.3449C266.427 36.4525 266.366 36.5909 266.32 36.7754C266.274 36.9598 266.258 37.2212 266.258 37.5441V45.9077H265.997L259.471 37.9131V44.032C259.471 44.3703 259.486 44.647 259.548 44.8315C259.594 45.016 259.655 45.1697 259.747 45.262C259.839 45.3542 259.947 45.4157 260.07 45.4311C260.208 45.4465 260.346 45.4619 260.515 45.4619H260.868V45.7386H257.429V45.4619H257.782C257.951 45.4619 258.104 45.4619 258.242 45.4157C258.365 45.385 258.488 45.3235 258.58 45.2312C258.672 45.139 258.734 44.9852 258.78 44.8008C258.826 44.6163 258.841 44.3549 258.841 44.032V37.129C258.703 36.9598 258.58 36.8215 258.473 36.7139C258.365 36.6062 258.288 36.5294 258.196 36.4679C258.104 36.4064 258.012 36.3449 257.92 36.2987C257.812 36.2526 257.69 36.2065 257.536 36.1604C257.382 36.1143 257.183 36.0989 256.891 36.0989V35.8221L256.86 35.8375Z" fill="#221714"/>
<path d="M273.23 36.391V40.3114H275.395C275.717 40.3114 275.978 40.2807 276.163 40.2192C276.362 40.1577 276.516 40.0655 276.623 39.9578C276.731 39.8348 276.807 39.6965 276.854 39.512C276.9 39.3275 276.93 39.1123 276.946 38.8663H277.222V42.3101H276.946C276.915 42.0334 276.869 41.7874 276.823 41.6029C276.777 41.4184 276.7 41.2647 276.592 41.1417C276.485 41.034 276.347 40.9572 276.147 40.8957C275.963 40.8496 275.702 40.8188 275.379 40.8188H273.214V44.0935C273.214 44.3395 273.214 44.5394 273.214 44.6778C273.214 44.8315 273.245 44.9391 273.306 45.016C273.352 45.0929 273.429 45.139 273.552 45.1697C273.659 45.1851 273.828 45.2005 274.028 45.2005H275.702C275.978 45.2005 276.224 45.2005 276.424 45.1851C276.623 45.1851 276.792 45.139 276.93 45.0929C277.069 45.0467 277.207 44.9852 277.314 44.9084C277.422 44.8315 277.545 44.7393 277.667 44.6163C277.959 44.3395 278.266 43.8783 278.589 43.2479H278.881L278.021 45.7386H270.389V45.4619H270.742C270.834 45.4619 270.941 45.4618 271.034 45.4311C271.141 45.4157 271.233 45.385 271.325 45.3389C271.418 45.2927 271.494 45.2466 271.571 45.1851C271.648 45.1236 271.694 45.0467 271.725 44.9545C271.786 44.8008 271.817 44.4779 271.817 44.0013V37.5594C271.817 36.9291 271.755 36.5294 271.633 36.391C271.464 36.1911 271.156 36.0989 270.742 36.0989H270.389V35.8221H278.021V37.9899H277.852C277.775 37.6363 277.698 37.3442 277.621 37.129C277.529 36.9137 277.422 36.7446 277.284 36.637C277.145 36.514 276.961 36.4525 276.761 36.4064C276.546 36.3756 276.27 36.3602 275.932 36.3602H273.214L273.23 36.391Z" fill="#221714"/>
<path d="M288.34 35.6223V39.0508H288.064C287.941 38.1283 287.634 37.4211 287.158 36.9291C286.682 36.4372 286.067 36.1912 285.33 36.1912C285.069 36.1912 284.839 36.2373 284.624 36.3295C284.409 36.4218 284.225 36.5294 284.071 36.6678C283.918 36.8061 283.795 36.9753 283.703 37.1597C283.61 37.3442 283.58 37.5287 283.58 37.7286C283.58 37.9131 283.61 38.0822 283.687 38.2513C283.764 38.4204 283.979 38.6664 284.363 39.02C284.992 39.4198 285.561 39.758 286.052 40.0194C286.513 40.2807 287.142 40.6651 287.941 41.1724C288.279 41.4338 288.54 41.7413 288.724 42.1103C288.908 42.4639 289 42.8483 289 43.2326C289 43.617 288.924 43.9552 288.77 44.2934C288.616 44.6317 288.401 44.9238 288.14 45.1698C287.864 45.4158 287.542 45.6156 287.158 45.7694C286.774 45.9231 286.344 46 285.898 46C285.607 46 285.346 45.9692 285.085 45.9385C285.039 45.9385 284.931 45.9077 284.747 45.8462C284.562 45.7847 284.363 45.7386 284.148 45.6771C283.933 45.6156 283.749 45.5695 283.564 45.508C283.38 45.4619 283.273 45.4311 283.242 45.4311C283.119 45.4311 283.027 45.4619 282.95 45.5388C282.873 45.6156 282.827 45.7694 282.797 46H282.52V42.5869H282.797C282.935 43.2941 283.104 43.8168 283.303 44.2012C283.411 44.3703 283.549 44.5394 283.718 44.6932C283.887 44.8469 284.086 44.9699 284.301 45.0929C284.516 45.2005 284.747 45.2928 284.992 45.3543C285.238 45.4158 285.484 45.4465 285.745 45.4465C286.052 45.4465 286.328 45.4004 286.574 45.3081C286.82 45.2159 287.019 45.1083 287.204 44.9545C287.373 44.8008 287.511 44.6317 287.588 44.4318C287.68 44.2319 287.726 44.0321 287.726 43.8168C287.726 43.5708 287.664 43.3249 287.526 43.0789C287.388 42.8329 287.158 42.5869 286.851 42.3409C286.543 42.1564 286.16 41.9258 285.73 41.6798C284.9 41.2032 284.179 40.7573 283.534 40.3115C283.18 40.0347 282.904 39.7119 282.72 39.3737C282.536 39.0354 282.443 38.6664 282.443 38.2513C282.443 37.8977 282.52 37.5749 282.658 37.252C282.812 36.9291 283.012 36.6524 283.257 36.4218C283.518 36.1758 283.825 35.9913 284.179 35.8529C284.532 35.7146 284.916 35.6377 285.33 35.6377C285.852 35.6377 286.405 35.7607 287.004 36.022C287.142 36.0835 287.265 36.1297 287.357 36.1604C287.449 36.1912 287.526 36.2065 287.588 36.2065C287.726 36.2065 287.818 36.1758 287.91 36.0989C287.987 36.022 288.048 35.8683 288.094 35.6377H288.371L288.34 35.6223Z" fill="#221714"/>
</g>
<defs>
<clipPath id="clip0_572_1915">
<rect width="289" height="46" fill="white"/>
</clipPath>
</defs>
</svg>
