<svg width="228" height="47" viewBox="0 0 228 47" fill="none" xmlns="http://www.w3.org/2000/svg">
<g clip-path="url(#clip0_572_1835)">
<path d="M5.37353 39.0542C5.83268 41.0661 5.75823 44.3896 4.44282 46.045C2.55657 48.4389 0.744784 45.8158 0.285632 43.8293C-0.223158 41.7028 -0.148701 37.9846 1.36526 36.291C1.88646 35.6161 2.73031 35.1832 3.4997 35.7435C4.70342 36.5966 4.95161 37.679 5.37353 39.0542Z" fill="#B6002A"/>
<path d="M3.61157 41.6646C3.69843 41.8939 3.48747 42.2631 3.85976 42.3395C4.10795 42.5433 4.67879 42.4669 4.62915 42.8616C4.17 42.8361 3.82253 42.4032 3.27651 42.5178C3.0035 42.5687 2.75531 42.7343 2.4823 42.8234C2.44507 42.7852 2.39544 42.747 2.42025 42.6833C2.69326 42.4669 3.09037 42.4669 3.33856 42.2122V41.5118C3.47506 41.3463 3.6488 41.4864 3.61157 41.6519" fill="white"/>
<path d="M4.05797 43.2181C4.31856 43.4727 4.14483 43.8165 4.18206 44.1476C4.18206 44.8862 4.18206 45.4974 4.35579 46.1977C4.35579 46.2869 4.31857 46.3887 4.2317 46.4269C4.14483 46.4269 4.13242 46.3378 4.08278 46.2996C4.02074 45.3446 3.93387 44.415 3.90905 43.4473C3.847 43.2053 3.49954 43.3581 3.33821 43.3199C3.25135 43.3199 3.16448 43.3836 3.10243 43.4473C3.05279 44.4023 3.10243 45.3955 2.94111 46.376C2.91629 46.4142 2.86665 46.4142 2.82942 46.4142L2.77979 46.3378C2.86665 45.3573 2.84183 44.275 2.91629 43.3454C3.02798 43.1926 3.25135 43.0525 3.47472 43.078C3.67327 43.0525 3.89664 43.1289 4.07037 43.2053" fill="white"/>
<path d="M2.02301 44.8226C2.04783 45.0518 2.02301 45.23 2.02301 45.421C2.04783 45.6502 1.96096 45.8667 1.93614 46.0959C1.93614 46.2105 1.84928 46.2997 1.89891 46.4143H2.0106C2.19674 46.3124 2.17192 46.0832 2.19674 45.8922C2.24638 45.663 2.19674 45.4974 2.24638 45.3064C2.2712 44.8735 2.2712 44.517 2.28361 44.1222C2.28361 44.0076 2.28361 43.9694 2.28361 43.8803C2.35807 43.5237 2.28361 43.1035 2.25879 42.7342C2.1347 42.3777 1.72518 42.3522 1.42735 42.2631C1.34049 42.2122 1.31567 42.0976 1.30326 42.0212C1.37771 41.8556 1.56386 41.8047 1.72518 41.7919C1.78723 41.7665 1.82446 41.7665 1.8741 41.7537C1.97337 41.7155 2.03542 41.7028 2.12229 41.6901C2.19674 41.6901 2.20915 41.6137 2.20915 41.5373C2.07265 41.3335 1.91132 41.5627 1.73759 41.5627C1.52663 41.6519 1.12952 41.6391 1.0923 41.983C1.05507 42.1358 1.12952 42.2631 1.21639 42.365C1.27844 42.4159 1.34049 42.4796 1.4894 42.4923C1.68795 42.556 1.96096 42.5687 2.04783 42.7852C2.04783 42.887 2.07265 43.1162 2.07265 43.1799C2.07265 43.2691 2.07265 43.3455 2.07265 43.4219C2.12229 43.5619 2.07265 43.702 2.07265 43.8421C2.02301 43.9567 1.83687 43.893 1.73759 43.9057C1.65072 43.8548 1.52663 43.9057 1.45217 43.8166C1.41494 43.702 1.41494 43.5492 1.42735 43.4219C1.6135 43.3327 1.76241 43.3582 1.94855 43.2563C1.94855 43.2563 1.94855 43.2308 1.97337 43.2181V43.1544C1.97337 43.1544 1.94855 43.129 1.93614 43.1035C1.81205 42.9762 1.78723 43.1035 1.6135 43.1035H1.51422C1.26603 43.1035 1.43976 42.7852 1.3529 42.6578C1.31567 42.6324 1.27844 42.5305 1.20398 42.5687C1.04266 42.696 1.20398 42.8998 1.17916 43.078C1.21639 43.5492 1.21639 44.0585 1.12952 44.5424C1.17916 44.7589 1.07989 45.039 1.0923 45.281C1.05507 45.3828 1.0923 45.4974 1.04266 45.5993C1.04266 45.7139 0.943382 45.8795 1.04266 45.9686C1.0923 45.9177 1.14193 45.9049 1.17916 45.8285C1.2288 45.4974 1.30326 45.1791 1.32808 44.848C1.32808 44.7844 1.37771 44.7334 1.43976 44.7589C1.60109 44.7589 1.63831 44.8608 1.77482 44.8735C1.98578 44.8226 1.84928 44.6698 1.81205 44.6443C1.63831 44.6443 1.66313 44.5552 1.50181 44.5297C1.45217 44.5297 1.34049 44.5552 1.36531 44.4788C1.36531 44.3641 1.36531 44.2113 1.41494 44.1095C1.55145 44.0713 1.70036 44.1095 1.84928 44.1095C1.89891 44.1095 2.03542 44.1349 2.04783 44.1986C2.07265 44.3641 2.04783 44.657 2.0106 44.8226" fill="white"/>
<path d="M4.71593 39.1178L4.49256 39.0797C4.40569 39.016 4.33124 38.9778 4.23196 38.9141C4.04582 38.7613 3.74799 38.6722 3.54944 38.4684C3.35088 38.4684 3.27643 38.6594 3.09028 38.774C3.06547 38.7868 3.02824 38.825 3.00342 38.774C3.07788 38.6212 3.22679 38.5448 3.33847 38.4302C3.41293 38.3793 3.48739 38.3411 3.54944 38.2902C3.68594 38.3411 3.73558 38.4302 3.83486 38.4812C3.99618 38.5576 4.07064 38.6467 4.20714 38.7104C4.35606 38.7995 4.44292 38.8504 4.56702 38.9014C4.64147 38.9523 4.82762 38.9268 4.74075 39.1178H4.71593Z" fill="white"/>
<path d="M4.35591 36.8258C4.35591 36.9149 4.23181 36.9531 4.13254 36.9658C3.99603 36.9658 3.97121 37.004 3.85953 37.0677C3.83471 37.1059 3.79748 37.1568 3.8223 37.2078C3.8223 37.3096 3.99603 37.3478 4.09531 37.386C4.13254 37.386 4.15736 37.4242 4.14495 37.4624C4.09531 37.4879 4.03326 37.4624 3.98362 37.4624C3.80989 37.5006 3.62375 37.4242 3.46242 37.4624C3.38797 37.4879 3.37556 37.4624 3.27628 37.5007C3.22664 37.5007 3.20182 37.5006 3.16459 37.5261C3.05291 37.5643 2.86677 37.5261 2.85436 37.6407C2.82954 37.7553 2.80472 37.8827 2.80472 38.0227C2.80472 38.0737 2.80472 38.1501 2.76749 38.2137C2.76749 38.392 2.80472 38.6721 2.84195 38.9268V39.0924C2.94122 39.207 3.12737 39.1306 3.20182 39.1433H3.53688C3.64857 39.1688 3.76025 39.1433 3.87194 39.1815C3.87194 39.1688 3.93398 39.207 3.94639 39.2197C3.94639 39.2706 3.88435 39.2834 3.83471 39.2834C3.74784 39.2834 3.64857 39.2834 3.53688 39.2706C3.27628 39.2706 3.07773 39.3088 2.7799 39.2961H2.3952C2.3952 39.2961 2.23388 39.3088 2.20906 39.3088C2.06015 39.3088 2.03533 39.3088 1.88641 39.2834C1.84919 39.2579 1.77473 39.2961 1.76232 39.2324C1.7375 39.1815 1.81196 39.1815 1.83678 39.1688H2.2587C2.44484 39.1688 2.53171 39.1688 2.6434 39.1051C2.66821 39.0542 2.6434 39.0032 2.66821 38.965C2.66821 38.7613 2.61858 38.5575 2.6434 38.3156C2.66821 38.1883 2.6434 38.01 2.66821 37.8827C2.66821 37.7681 2.66821 37.4879 2.76749 37.4242L3.13978 37.3224C3.27628 37.3224 3.38797 37.3096 3.53688 37.3224C3.61134 37.3224 3.6982 37.2714 3.73543 37.195C3.73543 37.1186 3.68579 37.0422 3.61134 37.0295C3.52447 37.0168 3.52447 37.0295 3.41278 37.004C3.35074 36.9913 3.27628 37.004 3.22664 36.9276C3.09014 36.7494 3.05291 36.5074 3.09014 36.2782C3.09014 36.24 3.13978 36.1763 3.18941 36.2273C3.26387 36.3164 3.18941 36.4056 3.18941 36.4947C3.16459 36.7112 3.28869 36.8003 3.36315 36.8512C3.45001 36.8894 3.47483 36.8767 3.57411 36.8512C3.67338 36.7748 3.62375 36.6475 3.66098 36.5456C3.66098 36.3801 3.68579 36.3037 3.74784 36.1509C3.80989 36.1509 3.80989 36.2273 3.83471 36.2782V36.3546C3.83471 36.4947 3.80989 36.6602 3.87194 36.8258C3.92157 36.8894 3.92158 36.8767 3.99603 36.8767C4.09531 36.8385 4.18217 36.7876 4.19458 36.673C4.23181 36.5711 4.14495 36.3419 4.30627 36.3292C4.35591 36.3292 4.3435 36.3292 4.35591 36.3674V36.8385V36.8258Z" fill="white"/>
<path d="M4.34365 38.2902C4.34365 38.2902 4.23196 38.2902 4.19473 38.252C4.08305 38.0992 3.7604 38.0356 3.64872 37.9337C3.48739 37.87 3.47498 37.9337 3.3633 37.9974C3.30125 38.0738 3.21438 38.112 3.13993 38.1502C3.07788 38.2138 3.06547 38.2266 3.00342 38.2393C2.9786 38.2393 2.94137 38.2011 2.96619 38.1756C3.04065 38.0992 3.07788 38.061 3.13993 38.0101C3.26402 37.9337 3.40053 37.8318 3.52462 37.7427C3.64872 37.8063 3.90932 37.8955 4.04582 37.9464C4.1451 38.061 4.30642 38.0992 4.39329 38.2138C4.39329 38.252 4.36847 38.2648 4.33124 38.2775" fill="white"/>
<path d="M3.73527 40.3784C3.78491 40.5567 3.73527 40.8878 3.66081 40.9515C3.58635 41.0533 3.5119 41.0533 3.43744 41.0788C3.20166 41.1043 3.26371 41.117 3.04034 41.1425L2.68046 41.1807C2.45709 41.1807 2.28336 41.2061 2.04757 41.1807C1.93589 41.1807 1.81179 41.1425 1.70011 41.1043C1.67529 41.0661 1.61324 41.0661 1.61324 40.9897C1.61324 40.926 1.74975 40.9515 1.86143 40.9515C2.07239 40.9515 2.28336 40.9897 2.50673 40.9769C2.7301 40.9515 2.80456 40.9769 3.08997 40.9515C3.15202 40.9515 3.26371 40.9133 3.31335 40.8878C3.5119 40.8114 3.48708 40.8114 3.54913 40.6204C3.57395 40.4421 3.54913 40.3912 3.36298 40.3402C3.13961 40.2766 2.97829 40.3402 2.84178 40.1747C2.74251 40.0346 2.8666 39.8564 2.65564 39.7545C2.4695 39.78 2.35781 39.7927 2.15926 39.78H1.88625C1.88625 39.78 1.74975 39.78 1.66288 39.78C1.60083 39.78 1.58842 39.7672 1.51397 39.7672C1.48915 39.729 1.41469 39.6908 1.47674 39.6399C1.55119 39.6017 1.62565 39.6399 1.70011 39.6144H2.43227C2.606 39.6017 2.76733 39.6144 2.95347 39.6144C3.10238 39.6144 3.22648 39.6272 3.33816 39.6144C3.44985 39.6144 3.5119 39.6399 3.58635 39.6272C3.72286 39.6017 3.82214 39.6272 3.93382 39.6272C4.09514 39.6399 4.15719 39.589 4.2937 39.6272C4.34334 39.6272 4.35574 39.7036 4.39297 39.7163C4.36815 39.7418 4.36815 39.78 4.33093 39.7927C4.20683 39.8436 4.10755 39.8054 3.93382 39.8054C3.82214 39.8309 3.71045 39.8054 3.56154 39.8309C3.47467 39.8054 3.36298 39.8054 3.23889 39.7927C3.15202 39.7927 3.07756 39.7927 3.00311 39.8182C3.00311 39.92 3.00311 40.0092 3.10238 40.0856C3.18925 40.1492 3.37539 40.1492 3.49949 40.162C3.61117 40.2002 3.74768 40.2129 3.79732 40.3402" fill="white"/>
<path d="M2.73053 36.3419C2.70571 36.5201 2.75535 36.8512 2.56921 37.0168C2.42029 37.055 2.22174 36.9913 2.12247 37.1441C2.0356 37.2714 2.12247 37.3988 2.09765 37.5516C2.14728 37.7171 2.30861 37.7808 2.40788 37.9209C2.46993 37.9973 2.49475 38.0355 2.51957 38.1119C2.48234 38.1373 2.44511 38.1501 2.40788 38.1246L2.37066 38.0864L2.30861 38.01C2.30861 38.01 2.18451 37.8699 2.12247 37.8572C1.86187 37.8572 1.72536 38.0991 1.52681 38.2265C1.46476 38.2774 1.40271 38.3283 1.32826 38.3793C1.27862 38.4302 1.24139 38.4557 1.20416 38.4939C1.1173 38.5703 1.05525 38.6085 0.955971 38.6339L0.931152 38.5957C0.931152 38.5957 1.04284 38.4939 1.10489 38.4557C1.24139 38.2901 1.3903 38.1119 1.58886 38.01C1.72536 37.8827 1.92391 37.7808 1.99837 37.5898C1.99837 37.5261 1.96114 37.4624 1.92391 37.4242C1.92391 37.3096 1.97355 37.1823 1.83705 37.1186C1.68813 37.1314 1.5144 37.0295 1.47717 36.9913C1.29103 36.7621 1.2538 36.4565 1.36549 36.1763H1.3903C1.5144 36.2018 1.46476 36.3291 1.47717 36.431C1.47717 36.5711 1.5144 36.7239 1.61368 36.8258C1.6509 36.8767 1.71295 36.9276 1.775 36.9404C1.83705 36.9404 1.89909 36.8894 1.89909 36.8385C1.97355 36.6475 1.86187 36.4692 1.93632 36.2782C1.93632 36.2273 1.93632 36.1381 1.99837 36.1127L2.12247 36.1381C2.12247 36.2655 2.07283 36.3673 2.08524 36.5074C2.08524 36.622 2.06042 36.7494 2.14728 36.8258C2.18451 36.8767 2.24656 36.8894 2.30861 36.864C2.45752 36.864 2.54439 36.7112 2.56921 36.6093C2.56921 36.4565 2.60644 36.3164 2.59403 36.2145L2.61885 36.1381C2.61885 36.1381 2.71812 36.2273 2.73053 36.3164" fill="white"/>
<path d="M2.40778 38.8377C2.33332 38.8377 2.34573 38.7486 2.28368 38.7104C2.20922 38.634 2.12236 38.4939 1.98585 38.5576C1.92381 38.5958 1.87417 38.6467 1.79971 38.6849C1.60116 38.9268 1.40261 39.0287 1.20405 39.2324C1.15442 39.2324 1.1296 39.2197 1.11719 39.1688C1.17924 39.0796 1.2661 39.016 1.35297 38.965C1.41502 38.9268 1.45224 38.8377 1.5267 38.7995C1.57634 38.7486 1.60116 38.7104 1.6508 38.6722C1.76248 38.5448 1.86176 38.5066 1.96103 38.4048C2.01067 38.3666 2.07272 38.3284 2.13477 38.3793C2.18441 38.4939 2.32091 38.5576 2.40778 38.6467C2.44501 38.6976 2.54428 38.8122 2.40778 38.8504" fill="white"/>
<path fill-rule="evenodd" clip-rule="evenodd" d="M24.323 11.2948C24.7697 11.2948 25.0179 11.4858 25.2785 11.6259C25.7997 11.9188 26.1472 12.148 26.8421 12.1607C27.2144 12.1607 27.5867 12.2116 27.9342 12.3772C29.1503 12.9629 29.8328 15.064 30.0438 16.2227C30.1182 16.6302 30.081 17.0377 30.0438 17.4452C30.0066 17.8526 29.9693 18.2219 30.0438 18.5657C30.1803 19.1769 30.4037 19.1769 30.5526 19.1769C30.7015 19.1769 30.8876 19.1387 31.0862 19.0878C31.2227 19.0623 31.3716 19.0241 31.5205 18.9987C31.868 18.9477 32.203 18.9223 32.5257 18.9223C32.9848 18.9223 33.444 18.9732 33.8659 19.0878C34.3251 19.2024 34.7594 19.2406 35.2185 19.2915C35.5536 19.317 35.9011 19.3552 36.2734 19.4189C36.6332 19.4826 37.8742 19.7118 38.5815 20.0301C38.9786 20.2084 39.2889 20.4885 39.5867 20.7559C39.8473 20.9979 40.0955 21.2143 40.3933 21.3799C42.1431 22.3349 42.6519 23.4555 42.1307 25.2636C42.081 25.4419 42.0314 25.6329 41.9693 25.8239C41.7956 26.4351 41.6219 27.0591 41.4233 27.6448C41.1751 28.3834 40.7904 28.7017 40.3437 29.0837C40.2072 29.1984 40.0707 29.313 39.9342 29.453C39.5122 29.8478 39.2144 30.3444 38.8794 30.8792C38.4326 31.6177 37.9611 32.369 37.1668 32.8529C36.5216 33.2477 36.0003 33.2731 35.3426 33.3113H35.2185C34.9207 33.4514 35.2434 34.0881 35.4543 34.4828C35.566 34.6866 35.7025 34.9158 35.8142 35.2341C35.8887 35.4506 35.9011 35.6925 35.9011 35.9217C35.9011 36.1255 35.9011 36.3037 35.9631 36.4438C35.9879 36.5075 36.0748 36.5966 36.1617 36.673C36.323 36.8131 36.5215 37.0041 36.596 37.2842C36.7946 37.9719 36.7325 39.449 36.534 39.971C36.4843 40.1111 36.3478 40.2639 36.1865 40.4422C36.0624 40.5823 35.9383 40.7351 35.8887 40.8369C35.8266 40.9643 35.8018 41.1171 35.7646 41.2826C35.7149 41.5373 35.6653 41.8174 35.4916 42.0721C34.7966 43.0908 33.3199 43.6256 32.1286 44.0458C31.8308 44.1477 31.5577 44.2496 31.322 44.3514C30.9993 44.4915 30.7263 44.5552 30.4905 44.5552C30.1555 44.5552 29.8825 44.4278 29.5846 44.275C29.4357 44.1986 29.2744 44.1222 29.0883 44.0458C28.5919 43.8421 28.1203 43.8039 27.5867 43.7529C27.3261 43.7275 27.0531 43.702 26.7677 43.6638C26.2092 43.5747 25.8494 43.32 25.5019 43.0781C25.4523 43.0399 25.4026 43.0144 25.353 42.9762H25.3033C24.7946 42.9762 24.4223 42.8616 24.1741 42.6324C23.6281 43.4473 22.7842 44.0713 21.5557 44.5806C20.7366 45.0518 19.8804 45.2428 19.1358 45.3829C18.9249 45.4465 18.7635 45.4975 18.6146 45.5484C17.9445 45.7649 17.2372 45.8795 16.505 45.8795C16.2444 45.8795 15.959 45.8795 15.6984 45.8413C14.7429 45.8413 13.9859 45.6121 13.3778 45.1664C12.7325 44.848 12.1617 44.4151 11.6901 43.9185C11.02 43.4346 10.263 42.8743 9.90314 42.1103C9.46881 41.1935 9.67977 40.786 9.95278 40.2639C10.0272 40.1238 10.1141 39.971 10.1886 39.78C10.201 39.7418 10.2258 39.6909 10.2506 39.6272C10.7346 38.4812 10.8959 37.9719 10.9331 37.7681C10.3747 37.5898 9.89073 37.0678 9.44399 36.2019C9.1958 35.718 8.94761 35.285 8.78629 35.094C8.68701 34.9667 8.55051 34.8139 8.38918 34.6611C8.28991 34.5592 8.14099 34.4319 8.10376 34.3937C7.59497 33.8843 6.9745 33.566 6.36643 33.2604C5.82041 32.9803 5.26198 32.7001 4.80283 32.2799C4.49259 31.9998 4.23199 31.6559 3.9838 31.1721C3.26405 30.026 2.55671 28.8291 2.35816 27.6194C2.15961 26.4479 2.44502 25.7603 2.8049 25.0344C2.91659 24.7798 3.04068 24.5378 3.17719 24.3086C3.23923 24.1813 3.30128 24.0539 3.35092 23.9393C3.43779 23.7611 3.48742 23.6083 3.53706 23.4809C3.64875 23.1626 3.73561 22.9206 4.12031 22.5004C4.57946 21.9911 4.96416 21.7364 5.47295 21.4817C6.01896 21.2016 6.65185 20.9979 7.14823 20.9597C7.18546 20.9597 7.52052 20.9087 7.64461 20.9342C7.7563 20.9597 7.86798 20.9851 7.97967 20.9851H8.05412C8.17822 20.9851 8.2775 20.9215 8.38918 20.8578C8.55051 20.7687 8.72424 20.7559 8.97243 20.7559H9.02207C9.55568 20.7814 11.4543 21.7746 11.9879 21.8001H12.1865C12.2485 21.7874 12.323 21.7237 12.323 21.7237C12.5712 21.5199 12.7573 21.2398 12.9062 20.896C12.9187 20.8705 12.9311 20.8323 12.9435 20.8069C12.9435 20.8069 12.9931 20.6668 13.0179 20.6031C13.0427 20.5267 13.0552 20.463 13.08 20.3994C13.1917 20.0301 13.2661 19.6226 13.3406 19.2279C13.3654 19.1133 13.3778 19.0114 13.4026 18.8968L13.4274 18.8077L13.4523 18.6931V18.5912C13.4523 18.5912 13.4771 18.5275 13.4895 18.5021V18.4766C13.4895 18.4766 13.5019 18.4257 13.5143 18.4002V18.3747C13.5143 18.3747 13.5391 18.3111 13.5515 18.2729C13.5515 18.2729 13.5515 18.2092 13.5764 18.171V18.1455C13.5764 18.1455 13.6012 18.0819 13.6136 18.0436C13.6136 18.0436 13.626 17.98 13.6384 17.9418V17.9163C13.6384 17.9163 13.6632 17.8526 13.6756 17.8144C13.6756 17.8144 13.7005 17.7508 13.7129 17.7253V17.6998C13.7129 17.6998 13.7501 17.6362 13.7625 17.6107C13.7625 17.6107 13.7873 17.547 13.7997 17.5216V17.4961C13.7997 17.4961 13.837 17.4324 13.8494 17.407C14.0479 17.0122 14.172 16.5283 14.2961 16.019C14.5567 15.0003 14.8297 13.9434 15.7232 13.3959C16.1079 13.1539 16.5174 13.1157 16.9145 13.0775C17.2496 13.052 17.5598 13.0138 17.8576 12.8738C18.0934 12.7464 18.3044 12.5682 18.5153 12.3899C18.8132 12.1225 19.1358 11.8551 19.5702 11.715C19.6198 11.7023 19.657 11.6895 19.7067 11.6768H19.7315C19.7315 11.6768 19.8183 11.6513 19.8556 11.6386H19.8804C19.8804 11.6386 19.9548 11.6131 19.9921 11.6004H20.0293C20.0293 11.6004 20.1162 11.5877 20.1534 11.5749H20.1906C20.1906 11.5749 20.2527 11.5622 20.2899 11.5622H20.3271C20.3271 11.5622 20.4016 11.5495 20.4388 11.5495H20.9724C21.1089 11.5495 21.2578 11.5495 21.4316 11.5749C21.4316 11.5749 21.5557 11.5749 21.6053 11.5877H21.6301C21.6301 11.5877 21.7418 11.6004 21.8039 11.6131C21.9528 11.6131 22.0769 11.6386 22.2134 11.6386C22.5981 11.6386 22.8959 11.5749 23.3178 11.4858C23.6653 11.4094 24.0748 11.333 24.3106 11.333" fill="#DE5365"/>
<mask id="mask0_572_1835" style="mask-type:luminance" maskUnits="userSpaceOnUse" x="2" y="11" width="41" height="35">
<path d="M23.7893 11.5622C22.9827 11.715 22.5856 11.8551 21.8038 11.7787C21.0964 11.7023 20.4139 11.6513 19.6445 11.8933C18.962 12.1098 18.5897 12.7082 17.9692 13.0266C17.2867 13.3959 16.5173 13.1285 15.8596 13.5487C14.6311 14.3254 14.6683 16.2609 14.0726 17.4706C13.4149 18.8077 13.7003 20.896 12.4594 21.9147C12.4594 21.9147 12.3849 21.9784 12.2857 22.0038C12.1988 22.0166 12.0499 22.0166 12.0499 22.0166C11.479 22.0038 9.79135 21.0106 9.04678 20.9724C8.66208 20.9469 8.47594 21.1634 8.10365 21.2016C7.92992 21.2143 7.78101 21.2016 7.63209 21.2016C7.48318 21.1889 7.34667 21.1761 7.18535 21.1889C6.66415 21.2398 6.05608 21.4563 5.59693 21.6855C5.08814 21.9402 4.74068 22.1694 4.31875 22.6532C3.82237 23.2008 3.88442 23.4045 3.599 24.0285C2.97853 25.391 2.35805 25.9895 2.61865 27.5557C2.85443 28.9182 3.77273 30.3062 4.5173 31.5031C5.37356 32.8784 7.13571 33.0185 8.33943 34.2154C8.77377 34.6484 9.28256 35.145 9.65484 35.6161C9.97749 36.0236 11.1316 37.1951 11.206 37.6153C11.2681 37.9846 10.6104 39.4744 10.4491 39.8692C10.0892 40.7223 9.66725 40.9515 10.1512 41.983C10.7469 43.1927 12.4222 43.9567 13.3901 44.8226C14.6931 45.9813 16.6538 45.5484 18.2422 45.3065C19.9051 45.039 21.3942 44.7971 22.6848 43.4219C23.3549 42.7215 23.6404 41.983 24.7696 42.3777C25.6135 42.6706 25.9237 43.2818 26.8172 43.4219C27.6983 43.5492 28.4056 43.4983 29.1874 43.8039C30.0685 44.1604 30.267 44.517 31.2598 44.1095C32.4263 43.6256 34.4987 43.1163 35.3177 41.9193C35.5783 41.55 35.5287 41.0789 35.7024 40.7096C35.8265 40.4549 36.2608 40.0602 36.3353 39.8692C36.509 39.4108 36.5835 37.9973 36.3973 37.3606C36.2857 36.9659 35.8637 36.8131 35.7645 36.533C35.628 36.1637 35.7521 35.6925 35.6155 35.3105C35.2805 34.381 34.4615 33.5023 35.0571 33.0821C35.1564 33.0312 36.3725 33.0694 37.0675 32.6492C38.3581 31.8724 38.7552 30.2552 39.7851 29.2748C40.418 28.689 40.9144 28.4598 41.2122 27.5557C41.4604 26.8044 41.6838 25.9767 41.9072 25.1872C42.4284 23.3663 41.7955 22.4113 40.2815 21.5709C39.5866 21.1889 39.1771 20.5267 38.4821 20.2211C37.8865 19.9537 36.8317 19.7372 36.2236 19.6226C35.3674 19.4698 34.6104 19.4953 33.7913 19.2916C33.0716 19.1133 32.3146 19.0878 31.5328 19.2152C30.7014 19.3425 30.0561 19.7372 29.8079 18.6039C29.659 17.8781 29.9444 17.025 29.8079 16.2609C29.5969 15.1022 28.9268 13.103 27.8224 12.5554C27.1647 12.2371 26.4201 12.4663 25.7128 12.0588C25.0923 11.7023 24.782 11.5367 24.174 11.5367C24.0499 11.5367 23.9134 11.5367 23.7645 11.5622" fill="white"/>
</mask>
<g mask="url(#mask0_572_1835)">
<path d="M42.4408 11.5367H2.3457V45.9813H42.4408V11.5367Z" fill="url(#paint0_radial_572_1835)"/>
</g>
<mask id="mask1_572_1835" style="mask-type:luminance" maskUnits="userSpaceOnUse" x="13" y="11" width="17" height="16">
<path d="M24.1369 11.5112C24.0376 11.5112 23.926 11.5367 23.8019 11.5622C22.9952 11.715 22.5981 11.8423 21.8163 11.7659C21.6922 11.7659 21.2331 11.7277 21.0469 11.7277C20.5878 11.715 20.1411 11.7532 19.6447 11.906C18.9622 12.1224 18.5899 12.7209 17.9694 13.0393C17.2869 13.4085 16.5175 13.1411 15.8598 13.5614C14.6312 14.3381 14.6685 16.2736 14.0728 17.4833C13.5888 18.4893 13.6261 19.9027 13.1421 20.9724C13.1793 21.3671 13.2538 21.7491 13.3531 22.1184C13.5392 22.7296 14.6809 22.6787 14.4699 23.8502L14.5195 24.0412C15.4378 27.1609 20.8484 26.3842 22.3996 25.1617C23.1814 24.5378 24.6829 24.0412 25.291 23.2644C25.8122 22.5768 27.5247 22.0165 27.9591 21.2907C28.6292 20.1447 29.4978 18.6039 29.411 17.547C29.1628 14.2999 27.2393 12.7973 25.7626 12.097C25.0552 11.7659 24.8443 11.524 24.2238 11.524H24.1369" fill="white"/>
</mask>
<g mask="url(#mask1_572_1835)">
<path d="M29.4978 11.5112H13.1421V27.1355H29.4978V11.5112Z" fill="url(#paint1_radial_572_1835)"/>
</g>
<mask id="mask2_572_1835" style="mask-type:luminance" maskUnits="userSpaceOnUse" x="14" y="11" width="16" height="19">
<path d="M24.6703 11.906C24.5586 11.906 24.4469 11.9314 24.3104 11.9569C23.4789 12.1097 23.057 12.2625 22.2504 12.1861C22.1139 12.1734 21.6051 12.1479 21.4562 12.1352C20.9846 12.1224 20.5131 12.1479 20.0043 12.3134C19.2969 12.5299 18.8998 13.1411 18.2669 13.4849C17.5596 13.8542 16.753 13.5868 16.0829 14.007C15.4003 14.4272 14.5937 15.9553 14.3455 17.8653C14.2587 18.502 14.693 19.1005 14.6061 19.8263C14.2463 22.9461 15.1025 22.233 15.7602 23.4936C16.9639 25.8493 16.8523 26.5624 16.2442 26.4351C16.9143 27.2628 17.5348 28.3197 17.0384 28.9946C19.1108 29.453 21.7292 28.8672 22.7468 28.0777C23.5658 27.4283 24.7075 26.7916 25.328 25.9767C25.874 25.2636 26.8916 22.997 27.3383 22.233C28.0456 21.0487 28.8026 20.8068 29.361 18.6039C30.2794 14.9238 28.4676 13.3576 26.5317 12.5172C25.936 12.2625 25.1542 11.8805 24.7571 11.8805H24.6951" fill="white"/>
</mask>
<g mask="url(#mask2_572_1835)">
<path d="M30.267 11.906H14.2339V29.4657H30.267V11.906Z" fill="url(#paint2_radial_572_1835)"/>
</g>
<mask id="mask3_572_1835" style="mask-type:luminance" maskUnits="userSpaceOnUse" x="10" y="31" width="16" height="15">
<path d="M21.6052 31.465C20.327 31.8088 18.0313 31.4904 16.9144 32.2799C15.934 32.9675 15.0033 33.9353 14.5318 35.0431C13.3653 36.342 12.1119 37.488 11.4046 38.5067C10.6228 39.6272 10.4863 41.3972 10.9827 42.4286C12.3849 45.2937 15.8968 46.1978 18.5773 45.3319C21.1833 44.7334 24.3725 43.9694 24.7324 40.4167C24.9185 38.6595 25.3901 36.8513 24.8193 35.2214C24.3973 34.0372 24.2981 31.3885 22.2753 31.3885C22.0643 31.3885 21.841 31.414 21.5928 31.4777" fill="white"/>
</mask>
<g mask="url(#mask3_572_1835)">
<path d="M25.4026 31.3759H10.4863V46.1851H25.4026V31.3759Z" fill="url(#paint3_radial_572_1835)"/>
</g>
<mask id="mask4_572_1835" style="mask-type:luminance" maskUnits="userSpaceOnUse" x="2" y="22" width="15" height="16">
<path d="M2.60641 27.0973C2.58159 28.3834 3.58676 29.7841 4.14519 30.8792C4.9394 32.4709 5.67156 32.5473 7.08624 33.324C8.26515 33.9734 9.00972 34.7502 9.67983 36.0618C11.4172 39.4744 13.291 36.291 14.7926 35.0431C15.9094 34.1135 16.5919 32.0507 16.2693 30.5608C16.0459 29.5803 15.2641 28.1414 14.4575 27.5302L14.9663 27.874C14.3334 27.2246 14.8174 26.4224 14.532 25.6456C14.2838 24.9453 13.8742 24.1048 13.5268 23.3408C12.9932 22.1948 12.3727 22.4877 11.8267 22.7678C11.5288 22.9206 11.2558 23.0734 11.0201 23.0098C10.3127 22.8187 9.28273 22.5768 8.61261 22.3094C8.15346 22.1311 7.69431 22.042 7.23516 22.042C4.82771 22.042 2.66846 24.4232 2.60641 27.11" fill="white"/>
</mask>
<g mask="url(#mask4_572_1835)">
<path d="M16.5919 22.042H2.58154V39.4871H16.5919V22.042Z" fill="url(#paint4_radial_572_1835)"/>
</g>
<mask id="mask5_572_1835" style="mask-type:luminance" maskUnits="userSpaceOnUse" x="23" y="19" width="18" height="17">
<path d="M30.838 19.6481C30.1183 19.7754 29.3613 20.3229 28.8525 20.6795C28.2817 21.1379 27.9342 22.3094 27.351 22.6532C26.0231 23.2899 25.9859 23.621 25.2538 24.8052C24.6581 25.773 23.9135 27.1482 23.3179 28.2051C23.3179 28.6126 23.3427 29.0328 23.4171 29.4275C23.5412 30.0897 24.2858 31.1466 24.261 31.7323L24.2858 31.5031C24.8939 34.8775 31.595 35.8962 30.3665 34.2536C27.1772 30.0005 32.141 27.925 32.7615 28.7144C36.6581 33.6806 38.2217 30.7646 38.6064 30.2552C39.413 29.1474 40.0335 28.0141 40.232 26.919C41.473 19.8645 37.626 20.845 35.442 19.8773H35.0945C34.2631 19.9282 33.8411 20.0173 33.0469 19.8263C32.9228 19.8009 32.7987 19.7627 32.6622 19.7372C32.5381 19.7372 32.414 19.699 32.2775 19.6735C32.0169 19.6353 31.7687 19.6099 31.4957 19.6099C31.2848 19.6099 31.0614 19.6226 30.838 19.6735" fill="white"/>
</mask>
<g mask="url(#mask5_572_1835)">
<path d="M41.473 19.5972H23.3179V35.8963H41.473V19.5972Z" fill="url(#paint5_radial_572_1835)"/>
</g>
<mask id="mask6_572_1835" style="mask-type:luminance" maskUnits="userSpaceOnUse" x="11" y="20" width="24" height="23">
<path d="M30.143 33.6933C30.143 33.6933 30.1678 33.6933 30.1678 33.6806C30.1678 33.6806 30.1554 33.6678 30.1306 33.6933M28.8028 20.6795C28.6042 20.9087 28.3933 21.1124 28.2816 21.3034C27.9962 21.7873 27.8597 22.0547 27.3136 22.3603C26.9414 22.5768 26.6559 22.6659 26.3829 22.9843C26.1223 23.2899 25.9238 23.621 25.688 23.952C25.2412 24.5887 24.3974 24.7415 23.628 24.7543H23.0944C22.0396 25.4673 20.9227 25.8621 19.9176 25.6074C19.2971 25.4419 18.5029 24.3086 17.9196 24.3977C17.324 24.4869 18.2547 24.8052 17.7955 25.3273C17.2743 25.9003 16.6415 25.4291 16.1947 24.958C15.8969 24.6397 15.6735 24.3086 15.6487 24.3213C15.5246 24.3595 15.6735 24.7033 15.6487 24.8561C15.6239 25.1999 15.326 25.3909 15.2888 25.7475C15.2516 26.0786 15.2888 26.2696 15.3385 26.4478C15.3881 26.6516 15.4874 26.9062 15.475 27.2628C15.4626 27.8613 15.4626 27.6703 15.4377 28.2688C15.3881 29.453 14.9041 29.9496 14.6187 31.1211C14.3085 32.3945 15.5991 33.0693 14.0479 35.4633C13.5267 36.2655 11.2061 37.3606 11.355 38.3029C12.0127 38.1883 12.3726 37.437 12.8441 36.9531C13.961 35.7944 17.0013 34.5847 18.7883 34.5083C20.6497 34.4191 18.8628 36.5456 19.384 36.9531C19.8803 37.3606 18.8752 38.4684 19.446 38.1883C20.0417 37.8954 20.8483 35.1195 21.1833 34.4319C21.3943 33.9862 24.3478 26.9699 24.4222 37.5516C24.4222 38.5576 25.0179 39.0414 24.7449 40.0219C24.6084 40.4803 22.8834 43.0271 25.7252 42.7342C26.0975 40.5313 24.4719 38.965 25.3157 37.8827C25.7624 37.3097 27.3385 37.2078 27.3012 36.4565C27.2392 34.8139 27.9713 34.8521 28.6539 34.8903C29.0758 34.9157 29.4729 34.9412 29.6466 34.5719C29.9196 33.9989 30.0561 33.7824 30.1182 33.7188C30.0934 33.7188 30.0561 33.6678 30.0313 33.4768C29.9569 32.751 30.5897 32.7383 30.2919 32.0507C30.9744 32.2162 31.1606 31.5286 31.719 31.3758C32.1037 31.2739 32.8731 31.3121 33.2702 31.3758C34.2009 31.5286 34.6725 33.0948 34.8586 32.9929C35.082 32.6619 34.5484 31.8214 34.0644 31.363C33.6673 30.9938 33.1957 30.2297 32.8731 29.7968C32.3891 29.1601 32.6994 28.2942 32.0044 27.9249C31.7935 27.8103 31.6197 27.8485 31.4088 27.8867C31.0985 27.9504 30.7138 28.0013 30.0065 27.5557C26.3085 30.2425 29.4357 26.1932 29.2123 25.1999C28.7656 23.8884 27.7604 23.5191 28.8152 20.6922C28.8152 20.6795 28.8152 20.6667 28.8028 20.6667C28.8028 20.6667 28.778 20.6667 28.7656 20.6795" fill="white"/>
</mask>
<g mask="url(#mask6_572_1835)">
<path d="M35.1069 20.6667H11.231V43.0016H35.1069V20.6667Z" fill="url(#paint6_radial_572_1835)"/>
</g>
<path fill-rule="evenodd" clip-rule="evenodd" d="M17.1005 34.2026C16.7158 33.9225 17.1005 32.9165 17.5596 32.4072C18.0188 31.8978 18.7261 31.0829 18.54 30.9938C18.3538 30.9046 17.5596 31.0956 17.3114 30.9938C17.0632 30.9046 18.6889 30.2425 18.875 30.1406C19.0612 30.0515 17.7085 29.6694 17.2246 29.6058C16.7282 29.5421 15.723 29.6949 15.8099 29.4784C15.8967 29.262 16.48 28.9691 16.6041 28.8545C16.7282 28.7272 15.8347 28.256 15.7726 28.0395C15.7106 27.8231 15.9588 27.5939 16.8771 27.8231C17.7954 28.0523 18.5648 27.9504 18.9619 28.0395C19.359 28.1287 19.57 28.2305 19.7313 28.3197C19.8802 28.4215 19.9919 28.0777 20.1284 28.1287C20.2525 28.1796 20.5379 28.3706 20.5751 28.1796C20.5999 27.9886 20.451 27.6321 20.1904 27.4029C19.9422 27.1736 19.5327 26.7025 19.4831 26.537C19.4335 26.3714 19.2349 25.9639 19.4583 25.8748C19.6816 25.7857 19.8926 25.8748 20.0167 25.8111C20.1408 25.7602 20.3642 25.4037 20.6992 25.5565C21.0219 25.6965 21.1832 25.8366 21.2825 25.913C21.3817 25.9894 21.5803 26.0404 21.7292 25.9894C21.8781 25.9385 22.1387 25.6201 22.4241 25.8111C22.7096 25.9894 23.2308 26.4224 23.7023 26.3205C24.1739 26.2186 24.4345 25.9894 24.571 25.6965C24.7075 25.4164 25.1046 24.5123 25.2659 24.3468C25.4273 24.1812 25.8492 23.8374 25.7871 23.9775C25.7251 24.1048 25.3032 25.0599 25.328 25.531C25.3528 26.0149 25.2535 26.1295 25.4024 26.2441C25.5513 26.3587 25.7499 26.3205 25.9112 26.2441C26.0725 26.1677 26.3456 25.9767 26.3828 26.0913C26.42 26.2059 25.4521 26.8808 25.1542 27.1736C24.8688 27.4538 24.5834 28.0395 24.7199 28.2687C24.8564 28.498 25.4148 28.3961 25.6878 28.3961C25.9609 28.3961 26.5565 28.4343 26.4821 28.5744C26.4076 28.7144 25.4024 29.402 25.4024 29.5166C25.4024 29.6312 26.0105 29.8477 26.3456 29.8605C26.693 29.8732 27.4996 30.0005 27.8099 30.0769C28.1201 30.1533 28.3931 30.1406 28.4552 30.3189C28.5172 30.4971 28.6165 30.6499 28.5048 30.6627C28.3931 30.6754 27.7106 30.5735 27.4872 30.4844C27.2639 30.3953 26.085 30.1151 25.8119 30.1406C25.5513 30.1406 24.7571 30.1279 24.6206 30.3953C24.4841 30.6627 25.0674 30.8537 25.1915 30.9683C25.3156 31.0829 25.7871 31.5922 25.5017 31.6432C25.2163 31.6941 24.9681 31.4776 24.8564 31.4394C24.7447 31.4012 24.2856 31.0829 24.1739 30.981C24.0622 30.8919 23.5658 30.3443 23.33 30.3698C23.0943 30.3953 22.5979 30.4844 22.3125 30.6754C22.027 30.8664 21.7292 31.2102 21.5679 31.4012C21.4066 31.5922 20.7365 32.0379 20.451 32.2671C20.178 32.4963 18.6392 33.7442 18.3662 33.948C18.0932 34.1517 17.3983 34.4446 17.0881 34.2026" fill="white"/>
<path fill-rule="evenodd" clip-rule="evenodd" d="M21.5181 24.907C21.4064 24.7415 21.4436 24.334 21.5429 24.0793C21.6174 23.8629 22.2751 22.6277 22.9576 22.8696C23.2306 22.9588 23.4167 23.0861 23.4912 23.379C23.6277 23.8756 23.6401 24.6269 23.2678 25.0089C22.7342 25.5564 21.8159 25.3782 21.5181 24.9198" fill="#B6002A"/>
<path fill-rule="evenodd" clip-rule="evenodd" d="M18.3413 26.4096C18.5275 26.3714 18.7881 26.1295 18.8253 25.9385C18.8873 25.6838 19.3837 25.6583 19.4085 25.5565C19.4334 25.4546 18.8873 24.1048 18.6019 23.9775C18.2545 23.8247 18.1428 24.0666 17.8325 24.0411C17.5843 24.0157 17.3734 23.9138 17.2245 24.194C17.0011 24.6142 16.5792 25.1617 16.9142 25.6074C17.2493 26.0658 17.7333 26.5242 18.3413 26.4096Z" fill="#B6002A"/>
<path fill-rule="evenodd" clip-rule="evenodd" d="M25.9359 27.492C25.849 27.5939 25.6505 27.6703 25.5264 27.543C25.9235 27.0464 26.2585 26.8681 26.7549 26.4861C26.9286 26.2951 26.7921 25.4674 26.879 25.2C26.9659 24.9326 27.7973 24.3468 28.1572 24.5378C28.3433 24.6397 28.5171 24.6906 28.6287 24.8689C28.8273 25.1745 28.8149 25.6966 28.8273 25.9385C28.8273 26.2823 28.666 26.5115 28.5667 26.8426C28.4798 27.1482 27.9338 27.11 27.6856 27.1355C27.363 27.161 27.0527 26.9063 26.7425 27.11C26.5688 27.2119 26.0972 27.352 25.9607 27.5048" fill="#B6002A"/>
<path fill-rule="evenodd" clip-rule="evenodd" d="M22.2503 28.6508C22.362 28.4471 22.2503 28.1415 22.2751 27.925C22.2999 27.7467 22.362 27.4793 22.1758 27.3774C22.089 27.7849 22.0269 28.2561 22.1758 28.6508C22.1882 28.7017 22.2503 28.6508 22.2503 28.6508Z" fill="#B6002A"/>
<path fill-rule="evenodd" clip-rule="evenodd" d="M14.7675 29.7586C15.1894 29.122 15.6734 28.9055 16.2318 28.7909C16.2442 28.7145 16.0829 28.6508 16.0209 28.6508C15.6362 28.5744 15.3383 28.3325 15.0901 28.0269C14.6062 27.4284 14.3332 26.9572 13.5514 27.1992C12.7199 27.4538 12.6827 28.8673 12.9185 29.5549C13.1915 30.3699 14.2835 30.4717 14.7675 29.7459" fill="#B6002A"/>
<path fill-rule="evenodd" clip-rule="evenodd" d="M31.2349 28.7017C32.0912 28.3706 32.7861 28.8035 32.3642 29.5421C32.1532 29.9114 32.2153 30.3443 31.9795 30.7263C31.781 31.0319 31.3094 31.1975 30.9619 31.0574C30.6393 30.9428 30.1801 30.739 29.9568 30.4844C29.6962 30.2042 29.6217 29.975 29.1874 29.8604C28.4924 29.6694 27.7231 29.8604 27.0405 29.593C27.8223 29.1855 28.7034 29.6312 29.5224 29.5675C29.8699 29.5421 30.1181 28.9054 31.2349 28.6889" fill="#B6002A"/>
<path fill-rule="evenodd" clip-rule="evenodd" d="M27.0155 29.5676C26.8045 29.453 26.5563 29.4402 26.395 29.5421C26.5439 29.5803 26.8666 29.6312 27.0155 29.5676Z" fill="#B6002A"/>
<path fill-rule="evenodd" clip-rule="evenodd" d="M16.48 32.127C15.6982 31.172 14.0478 32.9929 13.9361 33.1075C13.812 33.2349 13.5017 33.4641 13.4645 33.5914C13.3652 33.9734 14.2215 34.47 14.4821 34.6356C14.8296 34.8393 15.1274 35.3741 15.6114 35.0048C16.0829 34.6483 16.1201 34.2917 16.2442 33.7315C16.3559 33.2349 16.5545 32.7128 16.9268 32.3562C17.2991 31.9997 17.7582 31.7323 18.0684 31.3121C17.3239 31.2484 17.0136 31.8851 16.4676 32.127" fill="#B6002A"/>
<path fill-rule="evenodd" clip-rule="evenodd" d="M28.1201 27.9887C27.9712 27.3774 26.9164 28.0141 26.6558 27.9632C26.9536 28.0396 27.4003 28.0141 27.785 28.0778C27.9091 28.1033 28.1449 28.116 28.1201 27.9887Z" fill="#B6002A"/>
<path fill-rule="evenodd" clip-rule="evenodd" d="M23.5782 31.5158C23.876 31.6814 23.9753 32.1143 24.2855 32.2926C24.5461 32.4454 24.9308 32.6491 25.179 32.8529C25.3155 32.9675 25.4768 33.4768 25.241 33.5914C24.8936 33.757 24.7695 33.0821 24.6082 33.6551C24.4344 34.2154 23.7643 34.4828 23.6402 35.0813C23.5533 35.5015 23.2679 36.0745 23.5285 36.482C23.603 36.6093 23.7395 36.673 23.876 36.6857C24.1862 36.7239 24.2359 36.7112 24.5089 36.8767C24.8439 37.0932 25.1169 37.1951 25.4892 37.0168C25.8491 36.8513 26.1345 36.5966 26.209 36.1891C26.1593 35.7434 26.0104 35.3105 26.0228 34.8648C26.0228 34.4191 26.2338 34.1517 26.0104 33.6933C25.8243 33.3368 25.663 33.1458 25.3527 32.9038C25.1169 32.7255 25.0425 32.3817 24.8688 32.1271C24.5833 31.7196 24.0745 31.2484 23.9008 31.0447C23.7147 30.841 23.5161 30.7136 23.2183 30.7136C22.9205 30.7136 22.4737 31.0574 22.2628 31.3248C21.9773 31.6686 21.5926 31.8597 21.3072 32.1525C20.997 32.4581 21.059 32.942 20.8977 33.3368C20.7612 33.6678 20.5006 34.0626 20.4634 34.4319C20.6743 34.3045 20.8357 33.9607 20.9598 33.757C21.059 33.6042 21.1459 33.4514 21.27 33.3113C21.3941 33.1585 21.5678 33.1585 21.7043 33.0312C22.089 32.6619 22.1263 32.1907 22.3744 31.7705C22.5854 31.414 23.2803 31.3503 23.5906 31.5158" fill="#B6002A"/>
<path fill-rule="evenodd" clip-rule="evenodd" d="M30.7261 35.3105C30.7013 35.0686 30.6268 34.8266 30.6764 34.5847C30.7509 34.2791 30.6516 34.0372 30.5027 33.757C30.3414 33.4387 29.845 32.6747 29.3983 32.8784C29.2493 32.9421 29.1004 33.1458 28.9019 33.0312C28.6785 32.9039 28.604 32.7001 28.331 32.5982C28.0828 32.5091 27.8098 32.4709 27.5492 32.3945C27.3755 32.3436 27.2266 32.3054 27.0156 32.2799C27.1894 32.6492 27.785 32.8784 28.0704 33.1203C28.7033 33.6551 28.3931 34.2791 28.3559 34.9667C28.3559 35.1832 28.2814 35.4761 28.4179 35.6798C28.5544 35.8835 29.088 35.9217 29.2121 35.9981C29.2866 36.0491 29.9319 36.2655 30.2049 36.1127C30.4779 35.9599 30.7509 35.4761 30.7261 35.2978" fill="#B6002A"/>
<path fill-rule="evenodd" clip-rule="evenodd" d="M23.6776 41.6009C23.8637 41.5627 24.1243 41.7664 24.5463 41.9319C24.9682 42.0975 25.3032 42.1994 25.6383 42.2121C25.9734 42.2121 26.5938 42.6196 26.7179 42.8488C26.8296 43.078 26.8917 43.7019 26.7055 44.0712C26.5194 44.4277 26.1719 44.9116 26.358 45.7011C26.5442 46.4906 26.8544 46.7835 26.296 46.7325C25.7376 46.6816 25.3156 46.4906 25.0054 46.3887C24.6828 46.2869 24.2236 46.2359 23.8637 45.803C23.5039 45.3573 23.2805 45.4464 22.7096 45.0772C22.1388 44.7206 21.7789 43.9566 22.0644 43.6383C22.3498 43.3072 23.2308 42.505 23.3425 42.3267C23.4542 42.1484 23.6155 41.6391 23.7024 41.6136" fill="#B6002A"/>
<path fill-rule="evenodd" clip-rule="evenodd" d="M35.1066 36.9404C35.1066 36.7622 35.5286 36.4693 35.5534 36.3547C35.5782 36.2401 35.5906 35.5397 35.5162 35.2341C35.4417 34.9413 35.3921 34.6102 35.603 34.4701C35.814 34.33 36.4096 34.1263 36.7695 34.2918C37.1294 34.4446 37.4148 34.5847 37.7375 34.7121C38.0601 34.8394 38.9288 35.2978 39.0777 35.6161C39.2266 35.9472 39.4376 36.291 39.2018 36.6348C38.9784 36.9914 38.9784 37.2333 38.7923 37.3861C38.6309 37.5262 38.1842 37.87 37.9484 38.1756C37.7126 38.4812 37.5265 39.1434 37.2411 39.2962C36.9557 39.4362 36.3724 39.6145 36.1987 39.4108C36.0374 39.207 35.9505 38.7486 35.9877 38.5704C36.025 38.3921 36.4345 38.0483 36.3228 37.7554C36.2235 37.4625 35.9257 37.4243 35.6154 37.297C35.2928 37.1824 35.0942 37.106 35.0942 36.915" fill="#B6002A"/>
<path fill-rule="evenodd" clip-rule="evenodd" d="M8.20278 39.589C8.05387 39.4234 7.89254 39.2706 7.967 39.1051C8.04146 38.9268 8.24001 38.5575 8.27724 38.2774C8.31447 37.9845 8.30206 37.2969 8.27724 37.1059C8.25242 36.9022 8.37651 36.6093 8.42615 36.4183C8.47579 36.2273 8.41374 35.8835 8.7488 35.7689C9.08386 35.6543 9.43132 35.6925 9.72915 35.7434C10.027 35.7943 10.6226 35.9599 10.784 36.291C10.9453 36.622 11.057 37.004 11.2431 37.1314C11.4417 37.2587 12.0249 37.5261 12.0373 37.628C12.0497 37.7171 11.9256 37.8445 11.7147 38.2137C11.5037 38.583 11.5161 39.538 11.4913 39.7163C11.4665 39.9073 11.4789 40.6077 11.2431 40.7605C11.0073 40.926 10.635 40.7605 10.3 40.5949C9.96493 40.4167 9.48096 40.2384 9.29482 40.0474C9.12109 39.8818 9.1335 39.6781 9.0094 39.6272C8.89771 39.5762 8.32688 39.7927 8.17796 39.6144" fill="#B6002A"/>
<path fill-rule="evenodd" clip-rule="evenodd" d="M20.7367 36.1381C20.8732 36.2782 20.9104 36.7494 20.9104 36.8767C20.898 37.1441 20.8732 37.5261 20.7367 37.7044C20.6002 37.8827 20.141 38.1373 20.0045 38.1883C19.868 38.2392 19.4461 38.392 19.2103 38.1883C19.111 38.0991 18.7511 37.8445 18.6395 37.628C18.5278 37.3988 18.4037 36.5456 18.8256 36.0617C19.0242 35.8325 19.3964 35.8071 19.6322 35.6033C19.8432 35.4251 20.0417 35.2213 20.2651 35.0558C20.2775 35.285 20.1038 35.5779 20.2651 35.7943C20.3768 35.9471 20.6126 35.9981 20.7367 36.1381Z" fill="#B6002A"/>
<path fill-rule="evenodd" clip-rule="evenodd" d="M25.998 30.7645C25.7002 30.7263 25.5761 30.6245 25.2534 30.6372C25.4396 30.9173 25.9111 30.8664 26.1965 30.981C26.333 31.0319 26.4199 31.1338 26.5192 31.1975C26.8418 31.3885 27.4375 31.605 27.5119 31.7068C27.5864 31.8087 28.1697 32.0634 28.4923 31.936C28.6288 31.8851 28.8646 31.8342 28.8025 31.6559C28.5543 31.1338 27.8346 31.3248 27.4499 31.0701C27.3258 30.9937 27.3258 30.8919 27.1397 30.8537C26.9535 30.8155 26.7426 30.8537 26.6061 30.79C26.4696 30.7263 26.1841 30.79 25.9856 30.7645" fill="#B6002A"/>
<path fill-rule="evenodd" clip-rule="evenodd" d="M22.5483 26.0531C22.5483 26.0531 22.5483 26.1295 22.511 26.3587C22.4614 26.5752 22.3621 27.0591 22.5607 27.4538C22.5607 27.4538 22.6724 27.3265 22.6351 26.9827C22.6103 26.6389 22.66 26.6007 22.6724 26.4733C22.6724 26.3587 22.5483 26.0531 22.5483 26.0531Z" fill="#B6002A"/>
<path fill-rule="evenodd" clip-rule="evenodd" d="M21.2454 30.166C21.3695 30.3316 21.1957 30.5863 21.0964 30.7263C20.9848 30.8791 20.7862 30.9683 20.4139 31.3885C20.0292 31.796 19.6321 32.2671 19.5328 32.4072C19.4336 32.5472 19.1854 32.9293 19.0985 32.8401C19.0116 32.751 19.2847 32.2289 19.3467 32.1143C19.4212 31.9997 19.8183 31.4267 19.9548 31.3503C20.0913 31.2611 20.7986 30.6499 20.7862 30.5735C20.7614 30.4971 20.5256 30.5099 20.4015 30.5353C20.2898 30.5608 19.7438 30.7645 19.5949 30.79C19.446 30.8282 19.2598 30.7263 19.4832 30.5481C19.7066 30.357 19.7562 30.3188 19.8803 30.2934C19.992 30.2679 20.3146 30.2552 20.3891 30.1915C20.4636 30.1151 20.476 29.8986 20.3891 29.8477C20.3146 29.7968 20.2154 29.8477 20.1285 29.8477C20.0416 29.8477 18.9496 29.644 18.7635 29.6185C18.5773 29.5803 17.5349 29.3002 17.3488 29.262C17.1626 29.2238 17.1378 29.0964 17.4356 29.0964C17.7335 29.0964 18.2795 29.1983 18.4656 29.1983C18.6518 29.1983 18.8875 29.1601 19.0985 29.1728C19.3095 29.1856 19.8927 29.2874 20.0665 29.2365C20.2402 29.1728 20.476 29.0709 20.5132 28.9563C20.5504 28.8417 20.5752 28.7017 20.4636 28.5871C20.3643 28.4852 19.9051 28.1669 19.781 27.9122C19.6569 27.6702 19.5328 27.4156 19.3963 27.3519C19.2722 27.2882 19.0489 27.25 18.962 27.1227C18.8751 26.9954 18.8255 26.6388 18.9868 26.7152C19.1481 26.7916 19.5825 27.0208 19.6569 27.1227C19.719 27.2118 19.8431 27.4538 19.9796 27.6193C20.1161 27.7848 20.4139 28.065 20.5504 28.1541C20.6869 28.2305 20.9599 28.447 21.0468 28.6253C21.4811 28.6507 21.568 28.6253 21.8658 28.638C22.1513 28.638 22.598 28.6889 22.6973 28.7399C22.7841 28.7908 23.0944 28.9436 23.2061 28.829C23.3053 28.7271 23.6032 28.1032 23.7148 27.9504C23.8265 27.7976 24.3601 27.1227 24.4594 26.9444C24.5587 26.7662 25.1792 26.2568 25.2412 26.295C25.3033 26.3332 25.4274 26.4096 25.1916 26.6261C24.9682 26.8426 24.3105 27.492 24.2112 27.6575C24.1244 27.823 23.7521 28.4343 23.69 28.5616C23.6156 28.6889 23.4294 28.829 23.4791 28.9181C23.5411 29.0073 23.9134 29.1091 24.0003 29.1856C24.0871 29.2747 24.3229 29.7204 24.1492 29.835C23.9754 29.9496 23.7769 29.835 23.6156 29.6822C23.4667 29.5166 23.3922 29.3384 23.2309 29.2365C23.0696 29.1346 22.871 29.0709 22.5732 28.9691C22.2753 28.8672 21.6052 28.8417 21.4315 28.8927C21.2454 28.9436 20.8855 29.0709 20.8731 29.2874C20.8731 29.5039 20.9227 29.7586 21.2702 30.1915" fill="#B6002A"/>
<path fill-rule="evenodd" clip-rule="evenodd" d="M21.7666 28.2561C21.6674 28.2561 21.3199 27.9377 21.2082 27.7085C21.0965 27.4793 20.8483 27.0209 20.7739 26.919C20.687 26.8172 20.6498 26.5752 20.5629 26.5116C20.4885 26.4352 20.1162 25.9895 20.2154 25.9385C20.3147 25.8749 20.6994 26.2696 20.7366 26.3715C20.7863 26.4734 21.1462 26.9954 21.2454 27.1228C21.3323 27.2501 21.6177 27.6958 21.6798 27.8231C21.7542 27.9505 21.8659 28.2561 21.7666 28.2561Z" fill="#B6002A"/>
<path d="M58.0273 31.2612L57.9032 31.3503C56.836 30.7009 55.1483 30.1915 53.5475 30.1915C50.3086 30.1915 47.7646 32.5345 47.7646 36.0617C47.7646 39.589 50.7305 41.8428 53.7584 41.8428C55.7439 41.8428 57.6798 41.117 58.7098 40.0856L58.8587 40.2002L58.2383 43.2181C57.1462 43.8675 55.1855 44.224 53.6467 44.224C48.6085 44.224 44.4141 41.117 44.4141 36.0363C44.4141 31.4012 47.8763 27.7212 53.5599 27.7212C55.4585 27.7212 57.2703 28.1796 58.5981 28.7654L58.0273 31.2612ZM75.3013 43.842C75.2393 42.9634 75.1897 42.0466 75.1897 41.1934V30.7263C75.1897 29.9368 75.2269 28.9309 75.3013 28.0777H71.9756C72.0376 28.9309 72.0873 29.9368 72.0873 30.7263V34.5846H64.1328V30.7263C64.1328 29.9368 64.17 28.9309 64.2445 28.0777H60.9187C60.9808 28.9309 61.0304 29.9368 61.0304 30.7263V41.1934C61.0304 42.0466 60.9808 42.9634 60.9187 43.842H64.2445C64.1824 42.9634 64.1328 42.0466 64.1328 41.1934V36.9658H72.0873V41.1934C72.0873 42.0466 72.05 42.9634 71.9756 43.842H75.3013ZM82.474 43.842C82.412 42.9634 82.3748 42.0466 82.3748 41.1934V30.7263C82.3748 29.9368 82.412 28.9309 82.474 28.0777H79.1483C79.2103 28.9309 79.26 29.9368 79.26 30.7263V41.1934C79.26 42.0466 79.2227 42.9634 79.1483 43.842H82.474ZM100.48 28.0777C100.418 28.8927 100.381 29.9623 100.381 30.7645V44.0076H99.8846L89.1131 32.7128V41.1807C89.1131 42.0338 89.1504 42.9507 89.2248 43.8293H86.383C86.4451 42.9507 86.4947 42.0338 86.4947 41.1807V29.9496L84.8691 28.2687V28.0777H88.8153L97.7501 37.5134V30.7263C97.7501 29.8732 97.7129 28.9564 97.6385 28.0777H100.48ZM119.827 43.842C119.169 42.8361 118.586 41.7664 118.102 40.8496L110.867 27.2755H110.147L101.547 43.842H104.985C105.258 43.0271 105.581 42.2376 105.841 41.7155L106.784 39.7418H114.168L115.173 41.7792C115.471 42.3904 115.831 43.1162 116.005 43.842H119.839H119.827ZM110.333 32.0888H110.445L113.113 37.5898H107.802L110.346 32.0888H110.333ZM143.181 43.842C142.524 42.8361 141.94 41.7664 141.456 40.8496L134.222 27.2755H133.49L124.89 43.842H128.327C128.6 43.0271 128.923 42.2376 129.183 41.7155L130.127 39.7418H137.51L138.515 41.7792C138.813 42.3904 139.173 43.1162 139.347 43.842H143.181ZM133.688 32.0888H133.8L136.468 37.5898H131.157L133.688 32.0888ZM147.612 43.842C147.55 42.9634 147.512 42.0466 147.512 41.1934V30.7263C147.512 29.9368 147.55 28.9309 147.612 28.0777H144.286C144.348 28.9309 144.398 29.9368 144.398 30.7263V41.1934C144.398 42.0466 144.36 42.9634 144.286 43.842H147.612ZM151.521 43.842C151.583 42.9634 151.632 42.0466 151.632 41.1934V30.7263C151.632 29.9368 151.595 28.9309 151.521 28.0777H157.514C160.927 28.0777 163.186 29.8986 163.186 32.3435C163.186 34.7884 161.399 36.2655 159.239 36.673L163.123 41.1425C163.831 41.9702 164.613 42.8233 165.581 43.6383V43.8293H161.547L154.747 35.6415V41.1807C154.747 42.0338 154.784 42.9507 154.859 43.8293H151.521V43.842ZM154.735 35.2595H156.522C158.594 35.2595 159.847 34.4064 159.847 32.5218C159.847 30.8791 158.631 30.0769 156.497 30.0769H154.722V35.2595H154.735ZM176.054 43.842L176.699 41.0151L176.526 40.926C175.719 41.3844 174.652 41.6646 173.498 41.6646H169.812V30.7263C169.812 29.9368 169.849 28.9309 169.924 28.0777H166.598C166.66 28.9309 166.697 29.9368 166.697 30.7263V41.1934C166.697 42.0466 166.66 42.9634 166.598 43.842H176.067H176.054ZM181.787 43.842C181.725 42.9634 181.676 42.0466 181.676 41.1934V30.7263C181.676 29.9368 181.725 28.9309 181.787 28.0777H178.462C178.524 28.9309 178.573 29.9368 178.573 30.7263V41.1934C178.573 42.0466 178.524 42.9634 178.462 43.842H181.787ZM199.769 28.0777C199.707 28.8927 199.657 29.9623 199.657 30.7645V44.0076H199.173L188.402 32.7128V41.1807C188.402 42.0338 188.439 42.9507 188.513 43.8293H185.672C185.734 42.9507 185.783 42.0338 185.783 41.1807V29.9496L184.158 28.2687V28.0777H188.104L197.039 37.5134V30.7263C197.039 29.8732 197.001 28.9564 196.927 28.0777H199.769ZM213.742 43.842L214.4 41.0151L214.226 40.926C213.419 41.4099 212.364 41.6646 211.173 41.6646H206.135V36.5838H210.143C211.123 36.5838 212.005 36.673 212.848 36.8894L213.407 34.5082H206.135V30.217H210.441C211.545 30.217 212.575 30.3316 213.518 30.6117L214.114 28.0777H202.921C202.983 28.9309 203.032 29.9368 203.032 30.7263V41.1934C203.032 42.0466 202.995 42.9634 202.921 43.842H213.742ZM226.623 31.5668C225.593 30.6245 223.769 29.9878 222.168 29.9878C220.033 29.9878 218.904 30.7136 218.904 31.7578C218.904 32.9547 220.393 33.5787 223.123 34.7756C227.07 36.5074 228 37.5389 228 39.6399C228 42.3267 225.419 44.2113 221.56 44.2113C219.388 44.2113 217.117 43.3963 215.777 42.505L216.348 39.6399H216.534C217.564 41.0024 219.711 41.8938 221.572 41.8938C223.583 41.8938 224.985 41.1298 224.985 39.9073C224.985 38.7486 223.856 38.2392 220.778 36.9276C217.217 35.4123 215.827 34.2154 215.827 31.8978C215.827 29.5803 217.849 27.7212 222.168 27.7212C223.88 27.7212 226.089 28.2942 227.355 29.0073L226.784 31.5668H226.611H226.623Z" fill="#00125D"/>
<path d="M102.863 3.60363C101.82 4.45679 100.108 4.35492 98.7923 4.18938L98.9537 1.50257C98.3208 0.802222 97.8989 0.152804 96.9061 0C95.5907 1.01869 96.7944 3.17069 96.2732 4.73693C95.4294 5.05527 94.2505 5.27174 93.3073 5.27174C92.7861 5.15714 92.3642 4.30398 91.843 4.88973C91.4211 7.79301 91.843 11.0783 93.7293 13.2812C94.6227 13.4977 95.6403 12.6318 96.4842 12.7464C96.6455 15.3823 96.2484 18.0182 96.72 20.5522L97.0302 20.8705C98.8668 18.4511 98.2215 15.2167 98.7923 12.3135C100.157 12.2498 101.659 11.6131 103.074 12.097L104.389 10.76C104.972 9.84313 103.868 9.30832 103.657 8.55703C104.389 7.53834 105.593 6.88892 105.642 5.53915C104.91 4.67326 103.967 3.8201 102.863 3.60363ZM94.5235 10.76L94.3125 10.4289C94.6848 8.97724 93.3198 6.62151 95.9133 6.1249H96.3353L96.4469 10.4798C96.025 10.7472 95.0571 10.7472 94.5359 10.7472M98.6434 9.74126L98.7923 5.55188C99.6858 5.23354 101.311 5.50095 102.255 5.50095C101.473 7.06719 101.423 9.56299 98.6434 9.74126Z" fill="#00125D"/>
<path d="M129.754 11.6259C128.65 12.0461 127.396 12.1098 126.192 12.0461V11.9442C126.453 10.1742 128.079 10.4544 128.923 9.65216C129.133 9.27015 129.394 9.09188 128.923 8.7608C127.719 8.54433 127.781 7.41103 126.465 7.30916C125.932 7.41103 126.093 8.06045 125.684 8.27692C125.311 8.39152 123.537 8.44246 123.227 8.22599C122.966 6.17586 125.833 7.80577 126.614 6.62154C126.925 6.03579 126.354 5.74292 126.044 5.52645L120.745 6.2268L120.633 6.1122C121.105 5.41184 122.246 4.74969 123.09 4.91523L122.78 5.52645C123.673 5.52645 124.207 5.0935 124.877 4.55869C126.552 4.02387 129.121 5.57738 129.493 3.20892C129.183 1.92282 127.744 2.6741 127.061 2.5595C127.222 2.24116 127.508 1.92282 127.508 1.47714C127.136 0.674916 126.863 0.54758 126.18 0.394775C125.076 0.764052 124.703 2.11382 124.033 2.97971L121.067 3.22165L120.856 1.65541C120.335 0.789519 119.851 0.840454 119.057 0.611248C117.965 1.26067 118.908 2.7123 118.958 3.57819C118.226 3.94747 117.121 3.79467 116.6 4.48229C116.65 5.0171 116.972 5.51371 117.282 5.83206C117.965 6.31593 118.809 5.78112 119.479 5.61558C120.633 6.53241 118.647 6.265 118.747 7.06722C119.057 8.14958 120.372 7.41103 121.167 7.46197C121.266 7.78031 121.316 8.40426 121.117 8.7226C118.722 9.55029 118.908 7.27096 117.233 7.86944C116.6 8.25145 117.084 8.95181 117.022 9.37202L115.917 9.48662C115.557 9.53755 115.495 9.9705 115.495 10.2888C115.868 10.9383 116.6 11.0656 117.382 10.951C117.642 11.1675 117.692 12.4918 117.593 12.7464C116.277 13.0648 114.863 13.1285 113.547 13.4468C113.435 13.9307 113.708 14.0325 113.857 14.4655C114.006 14.8984 114.49 15.1149 115.061 14.9494C116.997 14.4655 118.933 13.7651 121.042 13.6633L121.191 13.8797C121.142 14.1471 121.353 14.7329 121.142 14.8984L117.518 15.5478C117.258 15.8153 117.469 15.9171 117.58 16.1336C118.163 18.0182 119.988 16.3755 121.142 16.974C121.291 18.5912 121.241 20.2848 121.775 21.7364C123.611 20.7687 122.842 18.3747 123.251 16.6557C124.505 16.3883 126.019 16.8722 127.222 16.9868C127.632 16.6047 128.327 16.5793 128.215 15.8789C127.582 13.8925 124.902 15.0258 123.388 14.8093L123.177 14.5928C123.127 14.2745 123.003 13.676 123.301 13.4595C125.349 13.2431 128.004 13.4595 129.89 13.7906L130.672 13.2558C130.983 12.9884 131.193 12.8738 131.094 12.4408C130.672 12.0588 130.263 11.6259 129.729 11.5877M121.117 12.3135L119.293 12.4281C119.553 11.9442 119.193 9.86863 120.186 10.0978L121.117 10.136V12.3135ZM123.326 12.0461C123.326 11.6259 123.152 9.29562 125.212 9.8177C125.212 10.3525 123.859 11.8424 123.326 12.0461Z" fill="#00125D"/>
<path d="M180.409 3.23433C179.367 4.25302 177.568 4.07475 176.178 3.90921C176.339 2.94146 175.793 2.26657 175.359 1.52802C174.589 1.18421 173.808 0.674861 173.262 1.47708L173.808 4.02382C173.361 4.41856 172.691 4.41856 172.194 4.5841C171.202 4.6987 169.439 5.43726 169.439 3.61634C168.993 3.4508 168.72 2.76318 168.223 3.2216C168.05 4.91518 166.896 6.27768 167.169 8.03493C167.442 8.54427 167.615 9.39743 168.385 9.28283C169.377 8.82441 169.104 7.47464 169.65 6.67242L171.797 5.76833C172.678 5.70466 173.969 4.74964 174.689 5.88293C175.185 6.04847 175.446 5.99754 175.942 5.76833C176.327 4.91518 177.754 5.09345 178.536 5.25898C178.312 6.16308 177.047 6.72336 176.662 7.34731C178.374 7.69112 179.578 6.16308 181.129 6.60875C181.799 6.77429 182.73 6.8889 183.164 6.26494C183.326 5.7556 183.326 5.18258 183.053 4.7369C181.948 4.68597 181.613 3.04332 180.397 3.20886" fill="#00125D"/>
<path d="M145.154 4.17667C145.725 4.3422 146.557 4.46954 147.065 4.12573C147.301 3.66732 147.748 3.19617 147.463 2.55949C146.78 2.10108 146.16 1.00598 145.266 1.00598C144.422 1.64267 145.154 2.8651 144.819 3.78192L145.154 4.1894V4.17667Z" fill="#00125D"/>
<path d="M150.9 5.33536H151.235C151.918 5.5009 152.141 6.08665 152.426 6.60873C153.047 6.787 153.233 6.31586 153.63 5.92111C153.853 5.33536 154.089 4.46947 153.692 3.83279C152.848 2.90323 151.756 2.38115 150.565 2.8523C150.056 3.89646 151.645 4.35487 150.912 5.33536" fill="#00125D"/>
<path d="M149.436 12.0206C149.659 11.5622 150.056 11.5877 149.882 11.002C149.597 9.95779 148.468 10.3525 147.736 9.89412C147.463 8.44248 148.927 7.58933 148.865 6.26503C148.468 5.2718 147.388 4.99166 146.433 4.76245L143.616 5.97215C143.392 5.51374 142.834 5.04259 142.313 4.81339C141.978 6.60883 142.375 8.91363 142.263 10.8237L141.978 11.2821C140.861 11.5113 139.781 11.8551 138.714 12.3263C138.54 12.8483 138.826 12.9247 138.987 13.3449C139.843 13.6251 140.861 13.1794 141.705 13.1794C141.878 13.867 141.481 14.7075 141.593 15.3951C141.37 16.0827 141.196 17.0122 140.526 17.1269L140.352 19.1006C140.352 19.3934 140.352 19.7882 140.687 19.7882C142.66 18.1073 142.263 15.0131 142.772 12.7592C143.392 13.2813 143.281 14.7584 143.951 15.3951C144.459 15.5097 144.286 15.1277 144.509 14.7202C144.844 14.1344 144.459 13.1921 144.174 12.6573C144.286 12.3135 145.651 12.4281 145.825 12.2499C146.16 13.1794 145.998 14.8221 145.936 15.7516C145.651 17.0887 143.889 15.9172 143.107 15.8535C143.057 16.1973 143.454 16.3756 143.454 16.6684C145.03 17.3051 144.186 19.9028 146.271 19.7882C146.842 19.3807 147.338 18.9223 147.686 18.2856C147.574 16.3119 147.512 13.9816 147.736 12.1225C148.244 12.1862 148.977 12.3517 149.436 12.0079M146.11 10.4289L145.279 10.6072C145.279 9.90686 145.403 8.64622 144.497 8.36608C144.1 8.25148 143.889 7.8822 143.789 8.63349L144.112 10.8491C144 10.9765 143.355 11.0529 143.119 11.0529C143.008 9.94506 143.355 8.58255 143.405 7.48746L146.06 6.32869L146.234 6.5579C146.06 7.89494 146.234 9.10463 146.122 10.4417" fill="#00125D"/>
<path d="M148.704 9.04088C151.185 8.63341 154.002 8.34053 156.77 8.46787C157.105 8.2896 157.279 7.89485 157.279 7.53831C156.943 7.06716 156.484 6.15034 155.765 6.31588C153.394 7.13083 150.85 7.36004 148.431 7.94579C148.319 8.4042 148.592 8.69707 148.716 9.04088" fill="#00125D"/>
<path d="M173.795 8.73524L173.907 7.76748C173.684 6.74879 172.852 6.68512 172.021 6.58325C170.408 9.89401 168.918 11.4093 166.883 14.1216C169.651 13.2684 171.81 11.0018 173.795 8.73524Z" fill="#00125D"/>
<path d="M178.114 8.55706C177.282 8.78627 176.327 8.04772 175.781 8.39153C176.116 8.96454 177.444 9.01548 176.836 9.80496L177.555 9.75403C178.672 10.0342 179.38 11.1165 179.876 12.0206C180.645 12.3008 181.303 11.7914 181.75 11.333C182.023 10.8237 181.874 10.6454 181.75 10.0214C180.869 8.88814 179.541 7.3601 178.101 8.54433" fill="#00125D"/>
<path d="M156.832 17.2414C156.037 17.5343 154.97 17.4197 154.523 16.6047C153.791 14.6947 154.3 12.2243 155.144 10.4926L154.97 10.1488C154.077 8.41697 152.712 10.2124 151.421 9.98321C150.912 9.80494 150.403 9.51207 150.118 10.1488C150.341 11.7659 150.056 13.3322 149.547 14.6692C149.15 15.3568 148.815 16.4647 147.971 16.5793V17.2796C147.971 17.7508 148.12 18.1455 148.616 18.1455C149.808 17.3305 150.366 15.9426 150.987 14.6692C151.433 13.5104 151.495 12.2371 151.942 11.0783C152.228 11.0783 152.811 10.7854 153.034 11.0146C152.588 13.9052 151.421 17.8654 154.064 19.8391C155.181 20.4758 158.06 20.3357 159.475 19.0114C160.207 16.8721 158.681 15.1276 158.457 13.2176C158.172 14.6055 158.284 16.5538 156.819 17.2541" fill="#00125D"/>
<path d="M179.194 16.4264C178.089 16.8721 176.625 17.1013 175.359 16.7702C175.297 15.8661 175.421 14.7456 175.583 13.8924L178.04 13.5995C178.598 13.3194 179.032 12.861 178.809 12.237C178.424 11.664 177.705 11.3839 177.097 11.1547C175.446 12.3389 173.287 12.237 171.363 12.5681C171.252 13.816 172.505 14.0707 173.448 14.4654C173.113 15.204 173.56 16.8084 173.113 17.547C172.009 17.7125 170.594 17.6616 169.601 18.2219C169.217 18.3874 169.316 18.7949 169.427 19.075C169.812 19.5207 170.259 20.0428 170.929 19.9791C174.019 19.4698 177.556 19.4188 180.534 19.8772C181.303 19.3679 181.638 18.6293 181.415 17.7125C180.695 17.2032 180.038 16.6301 179.206 16.4009" fill="#00125D"/>
</g>
<defs>
<radialGradient id="paint0_radial_572_1835" cx="0" cy="0" r="1" gradientUnits="userSpaceOnUse" gradientTransform="translate(22.4965 28.797) scale(18.2544 18.7312)">
<stop stop-color="white"/>
<stop offset="0.07" stop-color="white"/>
<stop offset="0.38" stop-color="#FADEE4"/>
<stop offset="1" stop-color="#DE5365"/>
</radialGradient>
<radialGradient id="paint1_radial_572_1835" cx="0" cy="0" r="1" gradientUnits="userSpaceOnUse" gradientTransform="translate(21.2877 14.7787) scale(14.0228 14.3891)">
<stop stop-color="#DE5365"/>
<stop offset="0.21" stop-color="#DE5365"/>
<stop offset="0.3" stop-color="#DF5B6D"/>
<stop offset="0.44" stop-color="#E47382"/>
<stop offset="0.62" stop-color="#EC9AA6"/>
<stop offset="0.82" stop-color="#F7D0D7"/>
<stop offset="0.87" stop-color="#FADEE4"/>
<stop offset="1" stop-color="#FADEE4"/>
</radialGradient>
<radialGradient id="paint2_radial_572_1835" cx="0" cy="0" r="1" gradientUnits="userSpaceOnUse" gradientTransform="translate(21.4413 17.5661) scale(15.636 15.2677)">
<stop stop-color="#DE5365"/>
<stop offset="0.09" stop-color="#DF596A"/>
<stop offset="0.2" stop-color="#E26A7A"/>
<stop offset="0.34" stop-color="#E88795"/>
<stop offset="0.49" stop-color="#F0AFB9"/>
<stop offset="0.64" stop-color="#FADEE4"/>
<stop offset="0.77" stop-color="#FBE5EA"/>
<stop offset="0.96" stop-color="#FEF9FA"/>
<stop offset="1" stop-color="white"/>
</radialGradient>
<radialGradient id="paint3_radial_572_1835" cx="0" cy="0" r="1" gradientUnits="userSpaceOnUse" gradientTransform="translate(15.886 33.3804) scale(10.151 10.4161)">
<stop stop-color="white"/>
<stop offset="0.41" stop-color="#FADEE4"/>
<stop offset="1" stop-color="#DE5365"/>
</radialGradient>
<radialGradient id="paint4_radial_572_1835" cx="0" cy="0" r="1" gradientUnits="userSpaceOnUse" gradientTransform="translate(16.0434 30.5099) scale(12.9059 13.243)">
<stop stop-color="white"/>
<stop offset="0.07" stop-color="white"/>
<stop offset="0.43" stop-color="#FADEE4"/>
<stop offset="1" stop-color="#DE5365"/>
</radialGradient>
<radialGradient id="paint5_radial_572_1835" cx="0" cy="0" r="1" gradientUnits="userSpaceOnUse" gradientTransform="translate(47.4345 19.628) scale(26.0227 26.7025)">
<stop stop-color="#DE5365"/>
<stop offset="0.31" stop-color="#DE5365"/>
<stop offset="0.41" stop-color="#E36E7D"/>
<stop offset="0.63" stop-color="#F1B3BC"/>
<stop offset="0.76" stop-color="#FADEE4"/>
<stop offset="1" stop-color="#FADEE4"/>
</radialGradient>
<radialGradient id="paint6_radial_572_1835" cx="0" cy="0" r="1" gradientUnits="userSpaceOnUse" gradientTransform="translate(23.444 32.1492) scale(13.514 13.867)">
<stop stop-color="white"/>
<stop offset="0.09" stop-color="white"/>
<stop offset="0.37" stop-color="#FADEE4"/>
<stop offset="0.47" stop-color="#F2B7C0"/>
<stop offset="0.59" stop-color="#E98C99"/>
<stop offset="0.7" stop-color="#E36C7C"/>
<stop offset="0.79" stop-color="#DF596B"/>
<stop offset="0.85" stop-color="#DE5365"/>
<stop offset="1" stop-color="#DE5365"/>
</radialGradient>
<clipPath id="clip0_572_1835">
<rect width="228" height="47" fill="white"/>
</clipPath>
</defs>
</svg>
