<svg width="216" height="46" viewBox="0 0 216 46" fill="none" xmlns="http://www.w3.org/2000/svg">
<g clip-path="url(#clip0_572_1982)">
<path d="M64.3766 0H45.9513L0 46H45.9513L64.3766 0Z" fill="#1785C4"/>
<path fill-rule="evenodd" clip-rule="evenodd" d="M42.8254 17.7055C42.1264 17.3622 41.6252 16.6493 41.6252 15.8175C41.6252 14.6556 42.5748 13.705 43.7355 13.705C44.8961 13.705 45.8457 14.6556 45.8457 15.8175C45.8457 16.6625 45.3577 17.3754 44.6455 17.7187V18.3129C45.305 18.3789 46.0831 18.643 46.558 18.8938C46.769 18.8806 47.0592 18.8674 47.3361 18.8674C50.0004 18.8674 51.86 20.6234 51.86 23.0396C51.86 24.5448 50.5279 25.9047 49.0243 25.9047C47.5208 25.9047 46.1491 24.426 46.4261 22.934C46.4261 22.934 46.2678 23.4489 46.2678 24.0695V31.6745C46.2019 32.5459 45.0412 37.3255 39.6732 37.3255C34.3052 37.3255 33.1313 32.5459 33.0654 31.6745V24.0695C33.0654 23.4489 32.9071 22.934 32.9071 22.934C33.1973 24.36 31.8124 25.9047 30.3088 25.9047C28.8053 25.9047 27.46 24.5448 27.46 23.0396C27.46 20.6234 29.3196 18.8674 31.9971 18.8674C32.274 18.8674 32.551 18.8806 32.762 18.8938C33.25 18.643 34.0678 18.3525 34.6877 18.3129V17.7055C33.9886 17.3622 33.5006 16.6493 33.5006 15.8175C33.5006 14.6556 34.4503 13.705 35.6109 13.705C36.7716 13.705 37.7212 14.6556 37.7212 15.8175C37.7212 16.6625 37.2332 17.3887 36.5078 17.7187V18.5109C36.6924 18.5637 36.8771 18.6298 37.0485 18.7222C37.3783 18.0224 38.0377 17.4679 38.7763 17.217V16.5701C38.0641 16.2268 37.5761 15.5138 37.5761 14.6688C37.5761 13.5069 38.5125 12.5563 39.6732 12.5563C40.8338 12.5563 41.7835 13.4937 41.7835 14.6688C41.7835 15.5138 41.2955 16.2268 40.5832 16.5701V17.217C41.3218 17.4679 41.9681 18.0092 42.2847 18.7222C42.4561 18.643 42.654 18.5769 42.8254 18.5109V17.7055Z" fill="white"/>
<path d="M51.0293 23.0396C51.0293 21.0855 49.6972 19.4879 46.9539 19.4879C45.1337 19.4879 42.9575 21.0195 42.9575 24.9276V30.7371C43.7489 30.2221 44.8436 29.7468 45.4371 29.7336V24.3203C45.4371 22.2474 46.9275 21.64 47.6265 21.64C47.2308 21.9965 47.0066 22.4454 47.0066 23.0396C47.0066 24.1487 47.9167 25.0597 49.0246 25.0597C50.1325 25.0597 50.9898 24.2411 51.0425 23.0396" fill="#D71523"/>
<path d="M28.3174 23.0396C28.3042 21.0855 29.6495 19.4879 32.3929 19.4879C34.213 19.4879 36.3892 21.0195 36.3892 24.9276V30.7371C35.5978 30.2221 34.5031 29.7468 33.8964 29.7336V24.3203C33.8964 22.2474 32.4061 21.64 31.707 21.64C32.1027 21.9965 32.3401 22.4454 32.3401 23.0396C32.3401 24.1487 31.43 25.0597 30.3222 25.0597C29.2143 25.0597 28.357 24.2411 28.3042 23.0396" fill="#D71523"/>
<path d="M39.6734 36.4805C44.2764 36.4805 45.3052 32.6252 45.4502 31.6349V30.3278C44.0258 30.6843 42.7596 31.4369 41.9023 32.5724C41.5858 31.252 40.7549 30.1166 39.6866 29.3904C38.605 30.1166 37.7609 31.252 37.4576 32.5724C36.6003 31.4369 35.3209 30.6843 33.9097 30.3278V31.6349C34.0416 32.612 35.0835 36.4805 39.6997 36.4805" fill="#D71523"/>
<path d="M40.003 16.1212V17.7187C40.7811 17.8244 41.4802 18.3789 41.7176 19.0259C40.7811 19.6332 40.0294 20.5574 39.6601 21.6929C39.3039 20.5442 38.539 19.6332 37.6157 19.0259C37.9059 18.3789 38.5653 17.8244 39.3303 17.7187V16.1212C38.6709 15.9759 38.1829 15.3818 38.1829 14.682C38.1829 13.8634 38.8423 13.2032 39.6601 13.2032C40.4778 13.2032 41.1372 13.8634 41.1372 14.682C41.1372 15.395 40.6361 15.9759 39.9766 16.1212" fill="#D71523"/>
<path d="M35.9409 17.2566V18.9599C37.9456 19.3559 39.3701 21.4949 39.3701 23.4489V28.9019C38.4204 29.43 37.5104 30.5391 37.207 31.4633C37.1279 31.3709 37.0619 31.2917 36.9564 31.1992V24.1619C36.9564 22.0362 35.8222 19.9105 33.791 19.2239C33.791 19.2239 34.4505 18.9466 35.2682 18.9466V17.2698C34.6087 17.1246 34.1207 16.5305 34.1207 15.8307C34.1207 15.0121 34.7802 14.3519 35.5979 14.3519C36.4157 14.3519 37.0751 15.0121 37.0751 15.8307C37.0751 16.5305 36.5739 17.1246 35.9145 17.2698" fill="#D71523"/>
<path d="M44.0652 17.2699V18.9335C44.883 18.9335 45.5556 19.2107 45.5556 19.2107C43.5245 19.9105 42.3902 22.0758 42.3902 24.1487V31.1992C42.2847 31.2917 42.2187 31.3841 42.1396 31.4633C41.8362 30.5391 40.9262 29.43 39.9766 28.9019V23.449C39.9766 21.4949 41.401 19.3692 43.4058 18.9599V17.2567C42.7595 17.1114 42.2583 16.5173 42.2583 15.8175C42.2583 14.9989 42.9178 14.3387 43.7355 14.3387C44.5532 14.3387 45.2127 14.9989 45.2127 15.8175C45.2127 16.5173 44.7115 17.1246 44.052 17.2699" fill="#D71523"/>
<path d="M206.649 41.9202H205.462V29.3904H205.95L213.995 38.2761V29.3904H215.13V41.9202H214.668L206.649 33.1401V41.9202Z" fill="#182447"/>
<path d="M176.96 41.9202H175.087V29.3375H176.96V34.8037H182.895V29.3375H184.755V41.9202H182.895V35.9919H176.96V41.9202Z" fill="#182447"/>
<path d="M162.9 29.2848H164.034V37.4972C164.034 39.3324 162.689 41.9335 159.313 41.9335C156.503 41.9335 154.63 39.7549 154.63 37.5236V29.2848H156.49V37.6556C156.49 39.5701 158.191 40.7584 159.866 40.7584C161.317 40.7584 162.9 39.4513 162.9 37.6292V29.2848Z" fill="#182447"/>
<path d="M170.537 41.8938H168.664V30.6183H164.865V29.4828H174.309V30.6183H170.537V41.8938Z" fill="#182447"/>
<path d="M194.396 40.6263V41.8146H186.351V29.4036H194.396V30.5654H188.223V34.6849H194.409V35.8335H188.223V40.6263H194.396Z" fill="#182447"/>
<path d="M132.895 41.5241V39.8605C137.155 42.7124 139.674 38.9231 137.471 37.4575C136.561 36.8502 134.952 35.7807 133.989 35.147C131.615 33.5494 132.156 27.5551 139.45 29.628V31.12C134.425 29.0603 133.264 32.2951 135.519 33.721C136.601 34.4076 137.471 34.9885 138.671 35.8995C141.771 38.2497 139.74 43.9139 132.895 41.5241Z" fill="#182447"/>
<path d="M147.113 29.1527C143.617 29.1527 140.782 32.031 140.782 35.5827C140.782 39.1343 143.617 42.0126 147.113 42.0126C150.608 42.0126 153.457 39.1343 153.457 35.5827C153.457 32.031 150.621 29.1527 147.113 29.1527ZM147.113 40.8904C144.712 40.8904 142.76 38.5138 142.76 35.5827C142.76 32.6516 144.712 30.2618 147.113 30.2618C149.513 30.2618 151.465 32.6384 151.465 35.5827C151.465 38.527 149.513 40.8904 147.113 40.8904Z" fill="#182447"/>
<path d="M92.8787 41.8938H91.019V29.3375H92.8787V34.7905H98.8007V29.3375H100.66V41.8938H98.8007V35.9787H92.8787V41.8938Z" fill="#182447"/>
<path d="M104.498 29.3507H102.625V41.8806H104.498V29.3507Z" fill="#182447"/>
<path d="M107.703 41.8938H106.516V29.3772H106.991L115.036 38.263V29.3772H116.157V41.8938H115.683L107.703 33.1137V41.8938Z" fill="#182447"/>
<path d="M89.7262 40.0058V41.4714C88.6842 41.7618 87.2598 42.0655 85.6375 42.0655C77.2756 42.0655 76.748 29.2056 85.6771 29.2056C87.5236 29.2056 88.6711 29.3904 89.7394 29.6017V30.9616C89.0008 30.7239 88.0644 30.3278 85.809 30.3278C80.1112 30.3278 79.5177 40.9168 86.5344 40.9168C87.761 40.9168 88.6051 40.5471 89.7394 40.0058" fill="#182447"/>
<path d="M123.319 38.0252H119.573L118.439 41.907H116.936L120.734 29.2715H122.712L126.564 41.8938H124.374L123.319 38.0252ZM121.42 31.4764L119.837 36.8633H122.989L121.42 31.4764Z" fill="#182447"/>
<path d="M201.333 35.7015C202.718 35.3318 203.998 34.8301 203.998 32.5328C203.998 30.2354 201.953 29.3772 200.225 29.3772H195.886V41.907H197.759V35.8864H199.408L202.52 41.8938H204.512L201.333 35.7015ZM199.803 34.8565H197.759V30.5523H199.803C200.977 30.5523 201.94 31.5161 201.94 32.7044C201.94 33.8927 200.99 34.8565 199.803 34.8565Z" fill="#182447"/>
<path d="M91.2561 10.0081H97.0989V15.5666H91.2561V10.0081ZM83.0656 18.9466V17.7847H88.5919V25.2974H91.2957V17.7847H97.0989V18.841H99.8159V7.69749H91.2693V3.27441H88.6051V7.69749H80.4277V18.9466H83.0656ZM88.6051 15.5666H83.0656V10.0081H88.6051V15.5666Z" fill="#182447"/>
<path d="M158.02 3.34047H160.777V7.1562H169.943V9.51958H157.176L157.11 12.1338H167.424C167.292 14.682 167.121 17.6396 166.989 20.0425C166.857 22.2211 166.62 23.2509 165.868 23.8583C165.208 24.3864 163.454 24.5448 161.317 24.9013C161.12 23.8979 160.711 23.0001 160.17 22.0494C162.729 21.9174 164.074 22.1286 164.219 20.7027C164.351 19.3824 164.562 17.2303 164.549 14.55H156.912C156.358 21.6929 153.378 23.3433 150.687 25.1654C150.08 24.426 149.487 23.7526 148.629 23.0529C154.512 20.4122 154.472 16.2532 154.525 9.54598H148.946V7.18261H157.994V3.32727L158.02 3.34047Z" fill="#182447"/>
<path d="M207.361 11.5132L208.72 9.55911C211.318 10.9455 214.338 12.3582 216 13.4673C216 13.4673 214.958 14.7612 214.285 15.593C212.36 14.1538 209.062 12.4506 207.361 11.5264M212.993 15.6986L213.019 17.996H207.045V21.8513H215.631V24.2015H195.755V21.8513H204.077V17.996H198.392V15.6986H212.993ZM196.968 15.8174C196.599 15.2101 195.966 14.3123 195.425 13.6257C197.311 12.8731 200.74 11.1699 202.481 9.42708L204.222 11.2623C203.22 12.2658 199.21 14.748 196.968 15.8306M204.222 3.45923H206.979V5.90182H215.182V10.919H212.558V8.10676H198.999V10.9719L196.414 10.9983V5.91503H204.209V3.45923" fill="#182447"/>
<path d="M116.778 14.2991H118.228V12.345H114.272V9.95526H118.954V8.02759H107.479V9.95526H111.884V12.345H107.98V14.2859H111.884V17.6131H107.057V19.6464H119.178V17.5999H114.258V14.2859H116.593L115.037 15.263C115.643 15.8967 116.382 16.8605 116.844 17.4547L118.413 16.4248C117.912 15.7119 117.121 14.7216 116.778 14.2991ZM106.081 24.9673V23.1717H120.18V24.9145H122.752V4.33069H103.549V24.9673H106.081ZM120.194 21.112H106.094V6.45641H120.194V21.112Z" fill="#182447"/>
<path d="M138.804 12.0282C138.025 13.2297 137.59 14.0219 136.865 14.9593H134.741L135.691 14.5104C135.282 13.8238 134.28 12.4903 133.871 12.0282H138.804ZM139.146 12.0018H142.839V21.3497C142.813 22.2475 142.47 22.5379 141.296 22.5379H140.281C140.795 23.5414 141.178 24.2412 141.455 25.1522C143.288 24.9013 144.013 24.6109 144.501 24.2676C145.042 23.8847 145.372 23.5678 145.372 22.1286V9.91568H137.656V8.19926H147.047V5.95471H137.63V3.32727H134.979V5.95471H125.469V8.19926H134.979L134.952 9.91568H127.303V25.0466H129.795V11.9754H133.726L131.879 12.8072C132.367 13.4409 132.921 14.3123 133.317 14.9461H131.009V16.8474H135.058V18.4978H130.336V20.5707H135.058V24.4524H137.445V20.5707H142.18V18.4978H137.445V16.8474H141.771V14.9461H139.318C139.74 14.484 140.716 13.2957 141.006 12.926L139.133 11.9754" fill="#182447"/>
<path d="M178.12 9.21587L176.182 9.53274C176.485 10.7738 176.683 11.8301 176.815 12.6619L178.701 12.2262C178.608 11.5396 178.252 9.94204 178.12 9.22907M179.294 13.2296H175.72V8.5557H179.294V13.2296ZM181.062 23.779C181.84 24.1487 182.592 24.6636 183.238 25.0993C184.86 23.3829 186.1 20.8875 186.034 14.0746V13.4277H188.052L187.894 22.3135C187.854 23.911 188.105 24.4788 189.648 24.5184H191.626C192.365 24.4788 192.84 23.4489 193.42 21.2176C192.747 20.9007 191.943 20.399 191.428 19.9765C191.244 20.9535 191.099 21.9042 190.888 22.1022C190.729 22.2474 190.584 22.1946 190.465 22.1814C190.281 22.155 190.268 22.0494 190.268 21.6929C190.254 19.2767 190.479 11.2756 190.479 11.2756H183.726V16.0155C183.726 19.62 182.816 22.4191 181.035 23.8054M178.081 16.0419L176.063 16.306C176.34 17.4943 176.551 19.2767 176.683 20.1085L178.687 19.6068C178.595 18.6562 178.213 16.7681 178.081 16.0419ZM171.895 13.2164V15.4346H173.596V16.0815C173.531 19.1975 173.003 21.6665 171.829 23.3169C172.423 23.7922 173.174 24.492 173.821 25.1389C175.14 23.1189 175.746 20.9535 175.72 15.4214H179.294V21.3496C179.294 22.0758 178.899 22.1022 176.815 22.0494C177.263 22.8548 177.487 23.581 177.619 24.558C180.534 24.2675 181.457 23.581 181.457 22.5115V6.61483H178.463C178.635 5.87545 178.964 4.52872 179.123 4.0138C178.648 3.89497 176.947 3.5913 176.709 3.52528C176.617 4.26466 176.472 5.50576 176.234 6.61483H173.583V13.2164H171.882H171.895ZM188.513 7.01093V3.35364H185.889V7.01093H182.051V9.24227H192.721V7.01093H188.527" fill="#182447"/>
</g>
<defs>
<clipPath id="clip0_572_1982">
<rect width="216" height="46" fill="white"/>
</clipPath>
</defs>
</svg>
