<svg width="150" height="46" viewBox="0 0 150 46" fill="none" xmlns="http://www.w3.org/2000/svg">
<path fill-rule="evenodd" clip-rule="evenodd" d="M41.7939 9.66C41.7939 9.66 36.8702 15.41 27.0229 16.675C27.0229 16.675 31.8321 18.055 35.6107 16.675C40.6489 14.95 41.7939 9.66 41.7939 9.66ZM143.015 45.425L143.473 44.16H146.908V42.435H144.275C143.702 42.435 143.244 41.975 143.244 41.4V39.445C143.244 38.87 143.702 38.41 144.275 38.41H148.626L148.168 39.675H144.962V41.4H147.595C148.168 41.4 148.626 41.86 148.626 42.435V44.39C148.626 44.965 148.168 45.425 147.595 45.425H143.015ZM135.115 45.425L135.573 44.16H139.008V42.435H136.374C135.802 42.435 135.344 41.975 135.344 41.4V39.445C135.344 38.87 135.802 38.41 136.374 38.41H140.725L140.267 39.675H137.061V41.4H139.695C140.267 41.4 140.725 41.86 140.725 42.435V44.39C140.725 44.965 140.267 45.425 139.695 45.425H135.115ZM127.672 45.425V38.295H132.824L132.366 39.56H129.389V41.4H132.252V42.205H129.389V44.045H132.824L132.366 45.31H127.672V45.425ZM123.435 45.425L121.718 41.86H123.206V39.675H120.687V45.425H118.969V38.295H123.779C124.351 38.295 124.809 38.755 124.809 39.33V41.4C124.809 41.86 124.466 42.205 124.008 42.205H123.55L123.664 42.55L125.153 45.31H123.435V45.425ZM110.611 45.425V38.295H115.305C115.878 38.295 116.336 38.755 116.336 39.33V41.86C116.336 42.435 115.878 42.895 115.305 42.895H112.214V45.31H110.611V45.425ZM112.328 41.745H114.733V39.56H112.328V41.745ZM106.374 45.425L105.344 42.55H104.656L103.626 45.31H101.679L102.824 42.435C102.939 42.09 103.168 41.975 103.397 41.86L104.427 41.63L103.397 41.4C103.168 41.285 102.939 41.17 102.824 40.71L101.794 38.18H103.626L104.656 40.94H105.344L106.374 38.18H108.206L107.176 40.71C107.061 41.055 106.832 41.285 106.603 41.4L105.573 41.745L106.603 41.975C106.832 41.975 107.061 42.09 107.176 42.55L108.321 45.425H106.374ZM94.2367 45.425V38.295H99.3893L98.9313 39.56H95.9542V41.4H98.8168V42.205H95.9542V44.045H99.3893L98.9313 45.31L94.2367 45.425ZM84.3893 45.425V44.39H85.9924L84.9618 40.02H84.0458L82.6718 45.54H80.8397L82.7863 38.41H86.2214L88.1679 45.54H84.3893V45.425ZM77.0611 45.425V39.675H74.4275V45.425H72.7099V38.295H77.6336C78.2061 38.295 78.6641 38.755 78.6641 39.33V45.425H77.0611ZM68.3588 45.425V38.295H70.0763V45.425H68.3588ZM64.0076 45.425V42.55H61.374V45.425H59.6565V38.295H61.374V41.17H64.0076V38.295H65.7252V45.425H64.0076ZM53.1298 45.425C52.5573 45.425 52.0992 44.965 52.0992 44.39V39.33C52.0992 38.755 52.5573 38.295 53.1298 38.295H57.1374L56.6794 39.56H53.8168V44.045H57.1374L56.6794 45.31H53.1298V45.425ZM126.412 31.855V29.095H135.916V25.76H128.359V23H146.45V25.76H138.55V29.095H148.397V31.855H126.412ZM148.397 17.135H145.649V14.605H140.84V18.4C140.84 18.86 141.069 18.975 141.756 18.975C141.985 18.975 142.214 18.975 142.672 18.975C142.786 18.975 142.786 18.975 142.786 18.975C143.588 18.975 144.618 18.86 144.847 18.745C145.191 18.63 145.305 18.285 145.305 17.365L147.824 18.17C147.71 19.665 147.481 20.24 146.908 20.7C146.221 21.16 145.191 21.275 142.214 21.275C138.893 21.275 138.206 20.93 138.206 19.32V14.49H136.031C135.916 16.56 135.344 18.055 134.313 19.205C133.511 20.125 132.366 20.93 130.878 21.62C130.191 21.965 129.504 22.195 128.13 22.54L126.527 20.24C129.046 19.78 130.305 19.205 131.45 18.4C132.824 17.365 133.168 16.675 133.397 14.605H129.389V17.94H126.641V12.075H135.802V9.775H138.55V12.075H148.168L148.397 17.135ZM121.26 29.21C121.26 29.44 121.374 29.555 121.718 29.555C121.947 29.555 122.061 29.555 122.176 29.325C122.29 29.095 122.405 27.945 122.405 26.22C122.405 25.875 122.405 25.185 122.405 24.38C123.321 24.955 123.55 25.07 124.58 25.415C124.466 31.625 124.237 32.2 121.374 32.2C119.313 32.2 118.74 31.74 118.74 30.36V19.55H116.221C116.221 24.495 116.107 26.105 115.649 28.06C115.191 30.13 114.618 31.05 113.13 32.89L111.298 30.82C110.954 31.74 110.267 32.085 108.321 32.085C107.977 32.085 107.748 32.085 107.061 31.97L106.489 29.555C107.176 29.785 107.977 29.785 108.664 29.785C109.008 29.785 109.237 29.67 109.237 29.325V22.195C109.008 22.195 108.893 22.195 108.779 22.195C108.321 22.195 108.321 22.195 108.092 22.31V28.29H106.031V22.425H105.573C105.229 22.425 105.229 22.425 105 22.54C104.885 24.955 104.656 27.37 104.198 29.095C103.855 30.475 103.511 31.51 102.824 32.775L100.763 30.82C101.908 28.865 102.366 26.795 102.595 22.77C101.45 22.885 100.992 23 100.992 23L100.763 20.47L102.71 20.24C102.71 18.055 102.71 17.825 102.71 16.445C102.71 14.03 102.71 13.11 102.595 12.075H105.344C105.687 11.04 105.916 10.35 106.031 9.43L108.664 9.775C108.321 10.695 108.092 11.27 107.748 12.075H111.183V19.435L112.328 19.32V21.62L111.183 21.85V29.785C111.183 30.13 111.183 30.36 111.069 30.705C112.901 28.98 113.588 26.22 113.588 19.78C113.588 18.515 113.588 17.94 113.473 17.135H121.031L121.26 29.21ZM105.115 14.49C105.115 18.17 105.115 18.515 105.115 20.125C107.634 19.895 107.634 19.895 109.237 19.78V14.49H105.115ZM107.176 14.95L105.573 15.87C106.26 17.25 106.603 18.055 107.061 19.435L108.893 18.515C108.206 17.135 107.863 16.33 107.176 14.95ZM118.855 12.88V9.66H116.336V12.88H111.985V15.525H124.122V12.88H118.855ZM94.4657 24.725L95.6107 26.22C95.2672 26.45 95.0382 26.565 94.6947 26.91C93.8931 27.6 92.4046 28.635 91.145 29.325C93.2061 29.785 96.1832 30.13 98.2443 30.13C98.5878 30.13 98.8168 30.13 99.3893 30.13L98.2443 32.775C94.0076 32.545 90.8015 31.855 87.9389 30.705C84.7328 31.855 81.7557 32.43 77.2901 32.775L76.2595 30.36C79.4657 30.245 82.2137 29.9 84.9618 29.21C83.8168 28.52 83.1298 28.06 82.0992 27.14C80.8397 27.945 79.8092 28.405 77.8626 29.095L76.374 27.025C78.4351 26.45 79.5802 25.99 80.9542 25.185C81.8702 24.61 82.5573 24.265 83.1298 23.69H79.6947V13.455H85.4199C85.7634 12.995 85.7634 12.995 85.9924 12.535H76.8321V10.235H98.7023V12.765H88.855C88.5115 13.34 88.626 13.225 88.2824 13.685H95.9542V23.92H86.4504C85.8779 24.495 85.8779 24.38 85.5344 24.725H94.4657ZM82.3283 16.675H93.2061V15.755H82.3283V16.675ZM82.3283 19.205H93.2061V18.285H82.3283V19.205ZM82.3283 21.85H93.2061V20.93H82.3283V21.85ZM85.0763 26.795C86.1069 27.485 86.7939 27.83 88.1679 28.405C89.542 27.83 90.229 27.6 91.3741 26.795H85.0763ZM51.7557 16.56C54.2748 14.835 56.4504 12.42 58.1679 9.545L60.687 10.58C59.8855 11.845 58.9695 13.11 58.1679 14.26V23.46H55.6489V17.02C54.8473 17.94 53.8168 18.745 52.7863 19.55L51.7557 16.56ZM51.9847 28.175H61.9466V33.695H64.4657V28.175H74.542V25.645H64.4657V23H61.9466V25.645H51.9847V28.175ZM58.9695 16.675L59.8855 19.09C61.2595 18.515 62.5191 18.055 63.6641 17.595V19.32C63.5496 21.735 64.6947 22.885 66.9847 22.77H70.5344C72.5954 22.885 73.7405 22.08 74.084 20.355C74.313 19.435 74.4275 18.4 74.6565 17.25L72.1374 16.33C72.1374 16.33 71.7939 18.4 71.6794 18.975C71.4504 20.01 70.7634 20.47 69.7328 20.355H67.9008C66.6412 20.47 66.1832 19.895 66.1832 18.63V16.33C68.9313 14.95 71.4504 13.455 73.7405 11.845L72.2519 9.89C70.1908 11.385 68.2443 12.65 66.2977 13.57V9.89H63.7786V14.95C62.2901 15.41 60.687 15.985 58.9695 16.675ZM42.0229 0C40.8779 6.67 39.1603 9.66 32.9771 11.845C28.626 13.34 24.2748 12.765 21.0687 14.26C17.8626 15.755 17.8626 19.665 18.3206 22.885C19.1221 28.635 15.458 29.67 14.542 29.9C13.0534 30.245 11.1069 30.13 8.47328 28.52C5.72519 26.68 4.35115 26.565 3.0916 26.565C1.83206 26.565 0 27.6 0 27.6C2.51908 28.635 4.92366 32.43 6.41221 34.27C6.52672 34.385 6.64122 34.5 6.64122 34.615C6.18321 34.73 5.61069 34.96 5.15267 35.42C3.54962 36.8 2.29008 42.32 11.5649 44.62C18.2061 46.345 28.3969 44.85 31.6031 43.47C7.21374 46.46 5.72519 39.215 6.52672 37.605C6.98473 36.685 7.90076 36.455 8.81679 36.57C12.0229 38.985 15.5725 39.675 17.7481 39.79C22.3282 40.02 26.4504 38.41 26.4504 38.41C14.8855 39.56 9.73283 34.5 7.21374 31.74C3.20611 27.37 0 27.6 0 27.6C4.12214 22.31 8.47328 26.335 10.9924 27.025C13.2824 27.715 16.2595 27.255 15.5725 23.69C14.313 17.135 16.0305 13.225 20.1527 11.04C22.6718 9.66 27.2519 9.315 31.374 8.05C39.1603 5.75 42.0229 0 42.0229 0ZM37.9008 24.955C37.9008 24.955 33.7786 29.44 22.7863 27.945C22.7863 27.945 27.1374 30.59 31.4886 30.13C36.1832 29.555 37.9008 24.955 37.9008 24.955ZM40.1908 17.595C40.1908 17.595 38.2443 22.77 32.9771 23.46C29.313 23.92 25.9924 22.425 25.9924 22.425C34.1221 22.425 40.1908 17.595 40.1908 17.595Z" fill="#00469B"/>
</svg>
