<svg width="213" height="46" viewBox="0 0 213 46" fill="none" xmlns="http://www.w3.org/2000/svg">
<g clip-path="url(#clip0_572_2053)">
<path d="M152.263 4.29228V6.06324H144.536C143.819 6.06324 143.221 6.64856 143.221 7.38396C143.221 8.11936 143.804 8.70468 144.536 8.70468C144.536 8.70468 147.779 8.67466 148.317 8.67466V11.8864C148.138 16.9892 145.761 20.0959 144.745 21.4166L144.461 21.7918C144.147 22.0319 143.953 22.4071 143.953 22.8123C143.953 23.5327 144.536 24.1331 145.268 24.1331C145.672 24.1331 146.105 23.953 146.344 23.6678H146.374C147.301 22.9174 150.379 20.0058 150.977 13.4322H159.302C159.302 14.768 159.257 16.3438 159.182 18.2649C159.048 21.5817 156.761 21.4916 155.67 21.4616H155.595C154.639 21.3566 153.204 20.9964 153.189 20.9964L152.831 20.9513C152.113 20.9513 151.515 21.5367 151.515 22.2721C151.515 22.8724 151.919 23.3977 152.517 23.5477C152.517 23.5628 153.907 24.043 155.192 24.058H155.446C157.09 24.088 158.943 24.1181 160.258 22.8424C161.364 21.7618 161.917 19.9308 161.947 17.2293C162.007 16.1187 162.022 14.3327 162.022 13.3122V12.6218C161.962 11.5862 161.185 10.8058 160.213 10.8058H151.082V8.67466C151.231 8.67466 162.784 8.70468 162.784 8.70468C163.501 8.70468 164.099 8.11936 164.099 7.38396C164.099 6.64856 163.516 6.06324 162.784 6.06324H154.983V4.26227C154.983 3.57189 154.34 2.98657 153.593 2.98657C152.845 2.98657 152.233 3.5869 152.233 4.30729" fill="#D1171B"/>
<path d="M194.827 15.2783C194.109 15.2783 193.511 15.8636 193.511 16.599C193.511 17.3344 194.094 17.9198 194.827 17.9198H201.328V21.2666H193.586C192.869 21.2666 192.271 21.8519 192.271 22.5873C192.271 23.3227 192.854 23.908 193.586 23.908H211.67C212.387 23.908 212.985 23.3227 212.985 22.5873C212.985 21.8519 212.387 21.2666 211.67 21.2666H204.033V17.9198H210.534C211.266 17.9198 211.849 17.3194 211.849 16.599C211.849 15.8786 211.251 15.2783 210.534 15.2783H194.827Z" fill="#D1171B"/>
<path d="M201.328 4.33734V5.22282H194.588C193.586 5.22282 192.779 6.04827 192.779 7.05381V9.74027C192.779 10.4757 193.362 11.061 194.094 11.061C194.827 11.061 195.41 10.4757 195.41 9.74027V7.86426H198.473C198.473 7.9543 198.503 8.08938 198.503 8.28448C198.503 8.55463 198.473 8.91483 198.369 9.29003C197.995 10.6258 196.65 11.5563 194.363 12.0515H194.274C193.601 12.1416 193.123 12.6819 193.123 13.3422C193.123 14.0476 193.751 14.663 194.498 14.663H194.647C199.729 14.1827 201.074 11.5112 201.328 9.36507C201.388 8.76474 201.403 8.10439 201.403 7.86426C201.552 7.84925 203.809 7.86426 203.973 7.86426V12.6519C203.973 13.6424 204.75 14.4378 205.737 14.4678H209.548C211.521 14.4678 212.373 13.0871 212.373 13.0721C212.522 12.847 212.597 12.5018 212.612 12.2616C212.642 11.6313 212.373 11.4662 212.074 11.2711L211.999 11.2261C211.536 10.9259 211.027 11.016 210.474 11.4962C209.832 12.0515 209.279 11.9765 209.279 11.9765H207.037C207.037 11.9765 206.828 11.9765 206.693 11.8564C206.619 11.7814 206.574 11.6613 206.574 11.5262V7.89427H210.101C210.056 8.05936 209.817 8.95985 209.817 8.95985C209.817 9.06491 209.772 9.16996 209.772 9.27502C209.772 9.50014 209.832 9.72527 209.966 9.93538C210.146 10.2355 210.445 10.4457 210.788 10.5207C211.491 10.6858 212.328 10.1905 212.492 9.48514C212.492 9.4251 213.015 8.02935 213 7.2189C213 5.9282 212.358 5.29786 211.102 5.26784H204.003V4.38236C204.003 3.66197 203.39 3.06165 202.658 3.06165C201.926 3.06165 201.343 3.64696 201.343 4.38236" fill="#D1171B"/>
<path d="M105.842 6.81372C105.663 7.02383 105.588 7.30899 105.618 7.65418V7.68419C105.618 7.68419 105.648 7.90932 105.663 8.04439C105.484 8.04439 99.6251 8.0594 99.6251 8.0594C99.0871 8.0594 98.4893 8.49463 98.4893 9.10997C98.4893 9.68028 98.9824 10.1605 99.5803 10.1605C99.5803 10.1605 105.812 10.1755 105.947 10.1755C106.336 12.5769 106.844 14.603 107.501 16.3439C106.679 17.6346 105.917 18.6552 105.588 19.0604C105.439 19.2105 105.319 19.7057 105.319 20.0659C105.319 20.216 105.334 20.3361 105.379 20.4261C105.558 20.7263 105.812 20.9064 106.126 20.9514C106.47 20.9964 106.829 20.8614 107.128 20.5612C107.412 20.276 107.591 19.9909 107.845 19.5857C107.845 19.5857 108.383 18.7602 108.518 18.5651C109.13 19.7658 109.668 20.5612 109.683 20.5612C109.892 20.8914 110.236 21.0865 110.61 21.0865C111.028 21.0865 111.402 20.8463 111.581 20.4711L111.641 20.3661C111.82 20.0209 112.299 19.1054 112.627 17.1994C112.657 16.7791 112.568 16.449 112.358 16.2088C112.194 16.0137 111.97 15.9087 111.686 15.8937C111.267 15.8786 110.804 16.1188 110.7 16.6291C110.7 16.6291 110.52 17.4245 110.431 17.8297C110.281 17.5145 109.922 16.6591 109.892 16.599C110.894 14.9331 111.581 13.3873 111.985 11.8715L112.015 11.4813C112 11.1961 111.865 10.941 111.656 10.7459C111.432 10.5508 111.178 10.4607 110.894 10.4907C110.445 10.5057 110.072 10.8209 109.937 11.2411C109.937 11.2411 109.399 12.922 108.891 13.9426C108.592 12.937 108.323 11.7364 108.069 10.1906H111.581C112.164 10.1906 112.627 9.71029 112.627 9.12498C112.627 8.53966 112.164 8.0594 111.581 8.0594H111.028V7.95434C111.028 7.68419 110.939 7.42905 110.759 7.21894L110.625 7.06886C110.431 6.84374 110.162 6.69365 109.863 6.67865C109.564 6.64863 109.28 6.73868 109.041 6.93378C108.906 7.05385 108.831 7.21894 108.831 7.41405C108.831 7.63917 108.936 7.84928 109.1 8.04439C108.861 8.04439 107.935 8.0594 107.815 8.0594C107.8 7.95434 107.74 7.60915 107.74 7.60915C107.666 6.88876 107.307 6.52856 106.664 6.52856C106.321 6.52856 106.037 6.64863 105.857 6.84374" fill="#D1171B"/>
<path d="M112.896 21.0564C112.896 21.2665 112.792 21.3866 112.568 21.3866H106.769L98.4892 21.3566C98.2949 21.3566 98.2052 21.2515 98.2052 21.0414V6.6786C98.2052 6.57354 98.2351 6.4985 98.28 6.45347C98.3397 6.40845 98.4145 6.37843 98.5191 6.37843H112.612C112.732 6.37843 112.807 6.40845 112.867 6.46848C112.911 6.51351 112.926 6.58855 112.926 6.6786L112.896 21.0564ZM113.629 3.87207H97.5476C96.5463 3.87207 95.7393 4.71253 95.7393 5.70307V22.0169C95.7393 23.0225 96.5612 23.8479 97.5476 23.8779H113.629C114.63 23.8779 115.452 23.0375 115.452 22.0469V5.70307C115.452 4.69752 114.645 3.87207 113.629 3.87207Z" fill="#D1171B"/>
<path d="M103.84 14.8281H100.791V12.772H103.84V14.8281ZM105.708 11.4062C105.559 11.031 105.2 10.7909 104.811 10.7909H99.8345C99.5356 10.7909 99.2666 10.926 99.0723 11.1661C98.9229 11.3462 98.8481 11.5713 98.8481 11.7964V15.8336L98.878 16.0287C98.9677 16.494 99.3712 16.8242 99.8345 16.8242H104.811L105.095 16.7791C105.514 16.6591 105.798 16.2539 105.798 15.8186V11.7814C105.798 11.6464 105.768 11.5113 105.708 11.3912" fill="#D1171B"/>
<path d="M104.034 17.2444C104.034 17.2444 101.493 18.0548 99.7746 18.0398C98.9675 18.0398 98.5491 18.5951 98.5192 19.1204C98.5042 19.3605 98.5939 19.6006 98.7882 19.8108C99.0423 20.0809 99.4159 20.261 99.7447 20.261C102.704 20.276 104.931 19.2855 104.961 19.2705C105.514 19.0153 105.992 18.385 105.723 17.7396C105.334 16.7791 104.049 17.2444 104.034 17.2444Z" fill="#D1171B"/>
<path d="M88.4609 15.6235C88.4609 15.6235 88.4609 15.8186 88.3712 15.9086C88.3264 15.9536 88.2516 15.9837 88.147 15.9837H82.3632V8.64467H88.1171C88.2367 8.64467 88.3264 8.67468 88.3712 8.73471C88.431 8.79475 88.4459 8.8848 88.4459 8.91481V15.5934C88.4459 15.5934 88.4459 15.6235 88.4609 15.6235ZM79.7328 15.9837H73.9042C73.9042 15.9837 73.6352 15.9837 73.6202 15.6535V8.92982C73.6202 8.92982 73.6202 8.79475 73.6949 8.7047C73.7398 8.64467 73.8295 8.62966 73.9191 8.62966H79.7328V15.9686V15.9837ZM89.3725 5.98822H82.3781V4.08219C82.3781 3.34679 81.7803 2.74646 81.063 2.74646C80.3456 2.74646 79.7328 3.34679 79.7328 4.08219V5.98822H72.7833C71.782 5.98822 70.96 6.82868 70.96 7.83422V16.7791C70.96 17.7846 71.782 18.6101 72.7833 18.6101H79.7328V22.8874C79.7328 23.6228 80.3306 24.2231 81.063 24.2231C81.7953 24.2231 82.3781 23.6228 82.3781 22.8874V18.6101H89.3725C90.3888 18.6101 91.1959 17.7846 91.1959 16.7791V7.7892C91.1959 6.78365 90.3739 5.95821 89.3725 5.95821" fill="#D1171B"/>
<path d="M131.339 14.9482V13.6574H136.555C136.555 13.7925 136.54 14.8131 136.54 14.9482H131.339ZM131.339 10.3106H136.555C136.555 10.4457 136.54 11.4663 136.54 11.6013H131.339V10.3106ZM128.649 11.6163H123.358V10.3256H128.634V11.6163H128.649ZM128.649 14.9632H123.358V13.6725H128.634V14.9632H128.649ZM139.753 21.0265C139.753 21.0265 136.196 19.5406 132.819 17.1543H137.168C138.169 17.1543 138.976 16.3439 138.976 15.3384V15.0832C138.976 14.2578 138.961 10.0405 138.961 10.0405C138.961 9.06495 138.199 8.26952 137.227 8.2395H131.279V7.00884C131.444 7.00884 139.051 6.99383 139.051 6.99383C139.783 6.99383 140.351 6.43853 140.351 5.73314C140.351 5.02776 139.753 4.44244 139.021 4.44244H131.264V4.1873C131.264 3.46691 130.681 2.88159 129.949 2.88159C129.217 2.88159 128.649 3.46691 128.649 4.1873V4.44244H120.892C120.175 4.44244 119.592 5.02776 119.592 5.73314C119.592 6.43853 120.175 7.02384 120.892 7.02384H128.649V8.25451H122.686C121.535 8.29954 120.877 8.9599 120.877 10.0705V15.3684C120.877 16.3739 121.684 17.1844 122.686 17.1844H127.005C124.539 19.0304 120.04 20.9364 119.981 20.9514C119.532 21.1915 119.263 21.6268 119.263 22.1371C119.263 22.8574 119.846 23.4428 120.578 23.4428L120.907 23.3977C120.907 23.3977 125.749 21.957 128.634 18.8052V23.1726C128.634 23.908 129.232 24.4783 129.949 24.4783C130.666 24.4783 131.249 23.893 131.249 23.1726V18.7002C133.357 21.0715 138.483 23.3977 138.543 23.4278C138.737 23.5478 139.29 23.6229 139.514 23.6229C140.202 23.6229 140.74 23.0225 140.74 22.2721C140.74 21.7318 140.216 21.2816 139.738 21.0565" fill="#D1171B"/>
<path d="M181.032 9.50012H180.748C179.836 9.51513 179.104 10.2956 179.059 11.3161V17.6045C178.94 20.231 177.849 21.7618 177.624 22.0469L177.58 22.107L177.535 22.152C177.535 22.152 177.311 22.5872 177.311 22.8874C177.311 23.5928 177.878 24.1631 178.581 24.1631C178.984 24.1631 179.358 23.983 179.597 23.6528C179.597 23.6528 181.794 21.3566 181.794 17.7696V17.7396C181.794 17.1693 181.764 12.1716 181.764 12.1716H183.976V21.8068C183.976 22.8724 184.649 23.938 185.889 23.938H187.443C187.443 23.938 188.789 24.043 189.476 21.6867L189.521 21.4916L189.596 21.0114V20.9363C189.625 20.6662 189.655 20.1109 188.729 19.8257C188.161 19.6456 187.712 19.9008 187.488 20.4861L187.354 20.8613C187.249 21.2215 187.189 21.3566 186.995 21.3716H186.502V11.3011C186.502 11.3011 186.457 9.60518 184.738 9.50012H180.987H181.032Z" fill="#D1171B"/>
<path d="M181.286 4.20232V5.73315H178.895C178.133 5.73315 177.52 6.31847 177.52 7.02385C177.52 7.72923 178.133 8.31455 178.895 8.31455H187.01C187.758 8.31455 188.385 7.74424 188.385 7.02385C188.385 6.30346 187.772 5.73315 187.01 5.73315H183.857V4.18731C183.857 3.48192 183.274 2.89661 182.572 2.89661C181.869 2.89661 181.286 3.48192 181.286 4.18731" fill="#D1171B"/>
<path d="M174.546 12.802H173.365C173.529 12.5919 173.649 12.3517 173.649 12.0666V11.8715L173.365 10.0705C173.32 9.75533 173.156 9.48518 172.917 9.32009C172.692 9.17001 172.408 9.10998 172.124 9.17001C171.586 9.27507 171.228 9.75533 171.228 10.3106C171.228 10.3707 171.228 10.4307 171.243 10.5057L171.512 12.3067C171.542 12.5168 171.616 12.6819 171.706 12.832H170.585V8.34456H174.531V12.832V12.802H174.546ZM177.281 12.787H177.161V6.97882C177.161 6.24342 176.593 5.6581 175.891 5.6581H173.783C173.828 5.49301 174.008 4.75761 174.008 4.75761L174.082 4.5625C174.112 4.45745 174.127 4.35239 174.127 4.24733C174.127 4.02221 174.067 3.79709 173.948 3.60198C173.768 3.30182 173.499 3.10671 173.171 3.01666C172.842 2.94162 172.498 2.98665 172.199 3.16675C171.9 3.33184 171.706 3.61699 171.616 3.94717C171.616 3.94717 171.213 5.56805 171.183 5.67311H169.345C168.642 5.67311 168.059 6.25843 168.059 6.99383V12.802C167.327 12.802 166.744 13.3723 166.744 14.0627C166.744 14.753 167.327 15.3234 168.059 15.3234V16.2388C168.044 17.2444 167.985 18.1749 167.88 19.0304V19.1504C167.596 21.6418 167.103 22.6173 167.103 22.6323C167.058 22.8124 167.013 22.9925 167.013 23.1576C167.013 23.863 167.581 24.4183 168.284 24.4183C168.777 24.4183 169.24 24.1331 169.434 23.6829C169.494 23.5778 170.062 22.5123 170.406 19.4506V19.2705C170.51 18.34 170.585 17.3044 170.63 16.1938C170.63 16.1938 170.645 15.5485 170.645 15.3234H171.571V18.4901C171.571 19.1804 172.005 19.6757 172.588 19.6757C173.171 19.6757 173.649 19.1654 173.649 18.4901V15.3083H174.65V21.4317C174.65 21.5367 174.62 21.6118 174.546 21.6868C174.277 21.9119 173.589 21.7919 173.32 21.7468H173.186C172.498 21.7468 172.035 22.2571 172.035 22.9625C172.035 23.5178 172.244 23.6979 172.468 23.893L172.528 23.938C172.842 24.2082 173.35 24.2232 173.425 24.2232C175.069 24.2832 175.98 24.0881 176.518 23.5478C176.997 23.0826 177.206 22.3322 177.206 21.1465V15.3234H177.325C178.013 15.3234 178.536 14.7831 178.536 14.0627C178.536 13.3423 178.028 12.802 177.325 12.802" fill="#D1171B"/>
<path d="M110.446 30.3915C110.221 30.6617 110.117 31.0669 110.117 31.6072V38.586C109.833 38.1057 106.082 31.7423 106.082 31.7423C105.394 30.5716 104.692 29.9863 103.989 29.9863C103.376 29.9863 102.943 30.1364 102.704 30.4216C102.465 30.7067 102.345 31.247 102.345 32.0274V41.4075C102.345 41.9628 102.45 42.3681 102.659 42.6232C102.868 42.8933 103.227 43.0134 103.69 43.0134C104.154 43.0134 104.497 42.8783 104.707 42.6082C104.931 42.338 105.035 41.9328 105.035 41.3925V34.4438C105.319 34.924 109.25 41.5576 109.25 41.5576C109.624 42.188 109.952 42.5932 110.221 42.7583C110.49 42.9234 110.864 43.0134 111.342 43.0134C111.88 43.0134 112.269 42.8633 112.493 42.5632C112.717 42.263 112.822 41.7527 112.822 41.0023V31.5922C112.822 31.0519 112.717 30.6317 112.493 30.3765C112.269 30.1214 111.925 29.9863 111.477 29.9863C111.028 29.9863 110.67 30.1214 110.446 30.3915Z" fill="#1F2A68"/>
<path d="M97.4282 30.3615C97.204 30.6017 97.0845 30.9769 97.0845 31.4571V41.5876C97.0845 42.0529 97.204 42.4281 97.4282 42.6682C97.6524 42.9084 97.9961 43.0434 98.4445 43.0434C98.8929 43.0434 99.2515 42.9234 99.4757 42.6682C99.6999 42.4281 99.8195 42.0679 99.8195 41.5876V31.4571C99.8195 30.9769 99.6999 30.6017 99.4757 30.3615C99.2366 30.1064 98.8929 29.9863 98.4445 29.9863C97.9961 29.9863 97.6524 30.1064 97.4133 30.3465" fill="#1F2A68"/>
<path d="M92.1677 30.3615C91.9435 30.6017 91.824 30.9769 91.824 31.4571V34.849H86.8173V31.4571C86.8173 30.9769 86.6978 30.6017 86.4736 30.3615C86.2344 30.1064 85.8907 29.9863 85.4423 29.9863C84.994 29.9863 84.6353 30.1064 84.4111 30.3465C84.1869 30.5866 84.0674 30.9619 84.0674 31.4421V41.5726C84.0674 42.0379 84.172 42.4131 84.4111 42.6532C84.6353 42.8933 84.994 43.0284 85.4423 43.0284C85.8907 43.0284 86.2494 42.9083 86.4736 42.6532C86.6978 42.4131 86.8173 42.0529 86.8173 41.5726V37.3103H91.824V41.5726C91.824 42.0529 91.9435 42.4131 92.1677 42.6532C92.3919 42.8933 92.7506 43.0284 93.1989 43.0284C93.6473 43.0284 94.006 42.9083 94.2451 42.6532C94.4693 42.4131 94.5889 42.0529 94.5889 41.5726V31.4421C94.5889 30.9619 94.4693 30.5866 94.2451 30.3465C94.006 30.0914 93.6622 29.9713 93.2139 29.9713C92.7655 29.9713 92.4068 30.0914 92.1827 30.3315" fill="#1F2A68"/>
<path d="M72.5741 31.6522C71.5129 32.8678 70.96 34.5788 70.96 36.7399C70.96 38.751 71.498 40.3569 72.5442 41.5125C73.6053 42.6681 75.0699 43.2535 76.8932 43.2535C77.7601 43.2535 78.5372 43.1334 79.1948 42.8933C79.8524 42.6531 80.495 42.2779 81.0779 41.7526C81.4366 41.4225 81.7206 41.0773 81.9447 40.6871C82.1689 40.2969 82.2735 39.9217 82.2735 39.5915C82.2735 39.2613 82.139 38.9461 81.885 38.706C81.6159 38.4659 81.317 38.3308 80.9434 38.3308C80.7043 38.3308 80.4801 38.3908 80.2709 38.5109C80.0915 38.6159 79.8823 38.8261 79.6581 39.1112L79.4638 39.4564L79.1799 39.8916C78.9557 40.1618 78.6418 40.3719 78.2831 40.522C77.9245 40.6571 77.491 40.7321 77.0277 40.7321C75.9816 40.7321 75.1596 40.3719 74.5917 39.6365C74.0237 38.9161 73.7248 37.8505 73.7248 36.5148C73.7248 35.1791 74.0088 34.1585 74.5767 33.4081C75.1446 32.6727 75.9367 32.2975 76.9082 32.2975C77.3715 32.2975 77.7899 32.3726 78.1636 32.5226C78.5223 32.6727 78.8361 32.8978 79.1051 33.213L79.3443 33.5732C79.4638 33.7683 79.5684 33.9034 79.6731 34.0084C79.8673 34.1885 80.0616 34.3236 80.2559 34.4137C80.4652 34.5037 80.6594 34.5487 80.8836 34.5487C81.2722 34.5487 81.586 34.4287 81.8252 34.1885C82.0643 33.9484 82.1839 33.6182 82.1839 33.228C82.1839 32.8678 82.0643 32.4926 81.8401 32.1174C81.6159 31.7422 81.3021 31.397 80.9135 31.1119C80.3456 30.6766 79.7478 30.3465 79.1201 30.1363C78.4924 29.9262 77.79 29.8212 77.0277 29.8212C75.1147 29.8212 73.6053 30.4365 72.5292 31.6522" fill="#1F2A68"/>
<path d="M118.232 38.0307C118.307 37.8356 119.712 33.4532 119.861 33.033C119.995 33.4532 121.43 37.8356 121.49 38.0307H118.232ZM125.48 41.5126C125.436 41.3925 125.376 41.1674 125.376 41.1674L121.864 31.3821C121.654 30.7968 121.415 30.4366 121.146 30.2715C120.877 30.1064 120.489 30.0314 119.906 30.0314C119.323 30.0314 118.89 30.1064 118.621 30.2865C118.366 30.4516 118.142 30.8268 117.933 31.4121L114.481 41.1674L114.376 41.5126L114.346 41.8578C114.346 42.218 114.466 42.5182 114.72 42.7433C114.959 42.9684 115.288 43.0735 115.676 43.0735C116.02 43.0735 116.289 42.9834 116.513 42.8333C116.737 42.6682 116.887 42.4131 117.006 42.0829C117.006 42.0829 117.47 40.6121 117.559 40.342H122.297C122.327 40.447 122.865 42.0829 122.865 42.0829C122.97 42.4131 123.134 42.6682 123.343 42.8333C123.552 42.9984 123.836 43.0735 124.165 43.0735C124.569 43.0735 124.883 42.9534 125.122 42.7433C125.376 42.5182 125.495 42.218 125.495 41.8578C125.495 41.8578 125.495 41.6327 125.465 41.5126" fill="#1F2A68"/>
<path d="M210.609 30.3915C210.384 30.6617 210.28 31.0669 210.28 31.6072V38.586C209.996 38.1057 206.245 31.7423 206.245 31.7423C205.572 30.5716 204.855 29.9863 204.152 29.9863C203.54 29.9863 203.106 30.1364 202.867 30.4216C202.628 30.7067 202.508 31.247 202.508 32.0274V41.4075C202.508 41.9778 202.613 42.3681 202.837 42.6232C203.046 42.8933 203.39 43.0134 203.868 43.0134C204.347 43.0134 204.66 42.8783 204.885 42.6082C205.109 42.338 205.213 41.9328 205.213 41.3925V34.4438C205.497 34.924 209.428 41.5576 209.428 41.5576C209.802 42.188 210.13 42.5932 210.399 42.7583C210.668 42.9234 211.042 43.0134 211.505 43.0134C212.043 43.0134 212.432 42.8633 212.656 42.5632C212.88 42.263 212.985 41.7527 212.985 41.0023V31.5922C212.985 31.0519 212.88 30.6317 212.656 30.3765C212.432 30.1214 212.088 29.9863 211.64 29.9863C211.192 29.9863 210.833 30.1214 210.624 30.3915" fill="#1F2A68"/>
<path d="M180.255 30.1664C179.642 30.1664 179.209 30.3165 178.97 30.6166C178.73 30.9168 178.611 31.4421 178.611 32.2375V40.8522C178.611 41.6476 178.73 42.1729 178.97 42.4581C179.209 42.7432 179.642 42.8933 180.255 42.8933H186.861C187.339 42.8933 187.698 42.7882 187.952 42.5781C188.206 42.368 188.34 42.0528 188.34 41.6476C188.34 41.2424 188.221 40.9272 187.967 40.7171C187.713 40.522 187.339 40.417 186.861 40.417H181.316V37.3253H185.994C186.457 37.3253 186.816 37.2352 187.07 37.0401C187.324 36.845 187.458 36.5599 187.458 36.1847C187.458 35.8094 187.339 35.4943 187.085 35.3142C186.846 35.1191 186.472 35.029 185.994 35.029H181.316V32.5227H186.532C187.01 32.5227 187.369 32.4176 187.623 32.2225C187.877 32.0274 188.011 31.7422 188.011 31.352C188.011 30.9618 187.877 30.6616 187.623 30.4665C187.384 30.2714 187.01 30.1664 186.532 30.1664H180.255Z" fill="#1F2A68"/>
<path d="M167.94 30.1964C167.506 30.1964 167.163 30.3015 166.938 30.4966C166.714 30.7067 166.595 30.9918 166.595 31.3971C166.595 31.8023 166.714 32.0874 166.924 32.2825C167.148 32.4776 167.491 32.5677 167.925 32.5677H170.451V41.5876C170.451 42.0528 170.57 42.4281 170.794 42.6682C171.019 42.9233 171.377 43.0434 171.826 43.0434C172.274 43.0434 172.618 42.9233 172.842 42.6682C173.066 42.4281 173.186 42.0679 173.186 41.5876V32.5677H175.711C176.145 32.5677 176.488 32.4626 176.713 32.2675C176.937 32.0724 177.041 31.7723 177.041 31.382C177.041 30.9918 176.937 30.6917 176.713 30.4816C176.488 30.2865 176.16 30.1814 175.711 30.1814H167.925L167.94 30.1964Z" fill="#1F2A68"/>
<path d="M133.939 30.1664C133.327 30.1664 132.893 30.3165 132.654 30.6166C132.415 30.9168 132.295 31.4421 132.295 32.2375V40.8522C132.295 41.6476 132.415 42.1729 132.654 42.4581C132.908 42.7432 133.327 42.8933 133.939 42.8933H140.545C141.023 42.8933 141.382 42.7882 141.636 42.5781C141.89 42.368 142.025 42.0528 142.025 41.6476C142.025 41.2424 141.905 40.9272 141.636 40.7171C141.397 40.507 141.023 40.4169 140.545 40.4169H135.001V37.3253H139.678C140.142 37.3253 140.5 37.2352 140.754 37.0401C141.009 36.845 141.143 36.5599 141.143 36.1846C141.143 35.8094 141.023 35.4943 140.769 35.2992C140.53 35.1041 140.172 35.014 139.693 35.014H135.015V32.5076H140.231C140.71 32.5076 141.068 32.4026 141.307 32.2075C141.561 32.0124 141.696 31.7272 141.696 31.337C141.696 30.9468 141.561 30.6466 141.307 30.4515C141.068 30.2564 140.695 30.1514 140.231 30.1514H133.939V30.1664Z" fill="#1F2A68"/>
<path d="M157.194 30.8567C156.343 31.5321 155.909 32.4926 155.909 33.6933C155.909 34.7589 156.208 35.5843 156.791 36.1546C157.374 36.7249 158.495 37.1902 160.109 37.5654L160.288 37.6104C162.336 38.0907 163.382 38.676 163.382 39.3814C163.382 39.8917 163.188 40.2669 162.799 40.522C162.395 40.7921 161.828 40.9122 161.035 40.9122C160.542 40.9122 160.124 40.8372 159.75 40.7021C159.406 40.552 159.107 40.3419 158.868 40.0417L158.525 39.5465C158.121 38.9311 157.673 38.616 157.194 38.616C156.821 38.616 156.522 38.751 156.298 39.0062C156.074 39.2463 155.954 39.5915 155.954 39.9817C155.954 40.3719 156.074 40.7471 156.298 41.1373C156.522 41.5275 156.836 41.8577 157.209 42.1429C157.762 42.5331 158.36 42.8333 158.958 42.9983C159.556 43.1784 160.258 43.2685 161.08 43.2685C162.605 43.2685 163.845 42.8933 164.727 42.1579C165.624 41.4225 166.072 40.4019 166.072 39.1412C166.072 38.4509 165.952 37.8505 165.683 37.3703C165.429 36.89 165.026 36.4848 164.503 36.1846C164.204 36.0196 163.845 35.8695 163.427 35.7194C163.008 35.5693 162.351 35.3892 161.454 35.1641L160.647 34.969C159.272 34.6388 158.569 34.1735 158.569 33.5582C158.569 33.108 158.734 32.7478 159.093 32.4926C159.451 32.2375 159.959 32.1174 160.602 32.1174C161.05 32.1174 161.439 32.1775 161.783 32.2975C162.097 32.4176 162.366 32.6127 162.59 32.8528L162.829 33.168C163.262 33.7383 163.726 34.0235 164.189 34.0235C164.548 34.0235 164.846 33.9034 165.086 33.6933C165.31 33.4682 165.414 33.168 165.414 32.8078C165.414 32.4776 165.295 32.1324 165.071 31.7572C164.846 31.397 164.548 31.0819 164.189 30.8267C163.741 30.4965 163.217 30.2564 162.649 30.0913C162.082 29.9412 161.454 29.8512 160.766 29.8512C159.257 29.8512 158.061 30.1964 157.224 30.8718" fill="#1F2A68"/>
<path d="M197.158 35.2692C196.859 35.5243 196.396 35.6444 195.753 35.6444H192.809V32.4776H195.873C196.441 32.4776 196.874 32.6127 197.158 32.8829C197.442 33.153 197.577 33.5432 197.577 34.0685C197.577 34.6238 197.442 35.014 197.143 35.2692M200.102 40.567C200.073 40.432 200.058 40.1768 200.043 39.8166L199.998 38.9011C199.938 38.3158 199.789 37.8506 199.534 37.4904C199.325 37.1752 198.996 36.9651 198.608 36.785C199.131 36.5749 199.564 36.2447 199.863 35.7794C200.192 35.2541 200.356 34.5938 200.356 33.8134C200.356 32.5827 200.013 31.6522 199.34 31.0669C198.668 30.4665 197.636 30.1664 196.247 30.1664H191.748C191.135 30.1664 190.702 30.3165 190.463 30.6016C190.224 30.9018 190.104 31.4271 190.104 32.2225V41.5876C190.104 42.0528 190.224 42.428 190.433 42.6682C190.672 42.9233 191.016 43.0434 191.464 43.0434C191.912 43.0434 192.256 42.9233 192.495 42.6682C192.719 42.428 192.839 42.0678 192.839 41.5876V38.0006H195.484C196.112 38.0006 196.56 38.1207 196.799 38.3308C197.039 38.5559 197.203 39.1563 197.263 40.1318C197.352 41.4375 197.502 42.2329 197.756 42.5481C197.995 42.8783 198.414 43.0434 198.967 43.0434C199.37 43.0434 199.699 42.9233 199.953 42.6982C200.207 42.4731 200.327 42.1729 200.327 41.7827C200.327 41.6626 200.297 41.4675 200.237 41.1824L200.117 40.537V40.567H200.102Z" fill="#1F2A68"/>
<path d="M147.361 38.0307C147.435 37.8356 148.84 33.4532 148.99 33.033C149.124 33.4532 150.559 37.8356 150.619 38.0307H147.361ZM154.609 41.5126C154.564 41.3925 154.504 41.1674 154.504 41.1674L150.992 31.3821C150.783 30.7968 150.544 30.4366 150.275 30.2715C150.021 30.1064 149.617 30.0314 149.049 30.0314C148.452 30.0314 148.033 30.1064 147.764 30.2865C147.51 30.4516 147.286 30.8268 147.077 31.4121L143.624 41.1674L143.52 41.5126L143.49 41.8578C143.49 42.218 143.609 42.5182 143.863 42.7433C144.103 42.9684 144.431 43.0735 144.82 43.0735C145.164 43.0735 145.433 42.9834 145.657 42.8333C145.881 42.6682 146.03 42.4131 146.135 42.0829C146.135 42.0829 146.613 40.6121 146.688 40.342H151.426C151.456 40.447 151.994 42.0829 151.994 42.0829C152.098 42.4131 152.263 42.6682 152.472 42.8333C152.681 42.9984 152.965 43.0735 153.294 43.0735C153.682 43.0735 154.011 42.9534 154.265 42.7433C154.519 42.5182 154.639 42.218 154.639 41.8578C154.639 41.8578 154.639 41.6327 154.609 41.5126Z" fill="#1F2A68"/>
<path d="M55.9104 16.4039C37.0943 16.9292 18.8909 21.2066 17.2021 27.2849C17.0526 27.8402 17.0078 28.3805 17.0078 28.9358C17.0078 34.924 29.4572 36.9651 42.9229 38.646C43.162 38.676 43.1471 38.4959 43.0724 38.3609C43.0275 38.2708 42.8183 37.9106 42.6838 37.6555C42.639 37.5654 42.5792 37.4904 42.3849 37.4454C35.0019 35.5544 27.5143 32.8079 27.5143 30.2415C27.5143 25.3788 40.0684 20.5762 54.3411 18.385C54.8193 18.295 55.0435 18.2049 55.3574 17.9498C55.746 17.6346 56.6277 16.9142 57.0014 16.6141C57.2405 16.4189 57.1508 16.3439 57.0611 16.3589C56.6726 16.3589 56.2989 16.3589 55.9104 16.3889" fill="#1F2A68"/>
<path d="M35.1064 45.6998C25.3322 43.2385 15.6477 35.014 17.1721 27.3749C19.399 16.2538 34.3143 5.46297 52.9212 0.40522C53.3397 0.285155 53.4891 0 52.9511 0H27.5591C23.1652 0 22.2087 0.57031 20.5049 2.88157C19.5933 4.11223 12.0011 14.633 8.56364 19.3755C8.13023 19.9458 7.50253 20.5462 6.11262 20.5462H0C7.2634 41.1374 15.0648 46 22.8663 46H35.1961C35.3755 46 35.5399 45.8049 35.0915 45.6998" fill="#D1171B"/>
</g>
<defs>
<clipPath id="clip0_572_2053">
<rect width="213" height="46" fill="white"/>
</clipPath>
</defs>
</svg>
