<svg width="46" height="46" viewBox="0 0 46 46" fill="none" xmlns="http://www.w3.org/2000/svg">
<g clip-path="url(#clip0_572_2012)">
<path d="M46.0005 25.231C45.0345 36.869 35.2595 45.885 23.4145 46H23.1845C22.2645 46 21.3215 45.954 20.4015 45.862C8.60248 44.482 -0.229516 34.477 0.00048446 22.724C0.0234845 21.413 0.161484 20.125 0.391484 18.837C0.460484 18.538 0.529484 18.101 0.598484 17.779V17.71V18.975C0.644484 19.642 0.690484 20.332 0.805484 20.999C0.989484 22.218 1.26548 23.437 1.61048 24.633C1.33448 23.437 1.12748 22.218 1.01248 20.976C0.920484 20.171 0.897484 19.366 0.897484 18.561V17.94C0.989484 16.537 1.31148 15.157 1.90948 13.892C1.84048 14.559 1.74848 15.249 1.72548 15.916C1.67948 16.606 1.65648 17.365 1.65648 18.078C1.65648 21.068 2.20848 24.035 3.26648 26.818C2.36948 24.127 1.95548 21.321 2.02448 18.492C2.02448 17.848 2.02448 17.181 2.09348 16.537C2.16248 15.893 2.18548 15.41 2.25448 14.835C2.43848 13.294 2.96748 11.799 3.84148 10.511C3.33548 12.489 3.01348 14.536 2.89848 16.583C2.89848 17.181 2.85248 17.71 2.82948 18.285V18.837C2.82948 19.389 2.82948 19.941 2.89848 20.47C2.96748 21.413 3.10548 22.379 3.28948 23.322C3.47348 24.265 3.70348 25.185 3.97948 26.105C4.25548 27.025 4.62348 27.899 5.06048 28.75C4.64648 27.899 4.30148 27.002 4.04848 26.082C3.79548 25.162 3.58848 24.242 3.45048 23.299C3.28948 22.356 3.19748 21.413 3.15148 20.47C3.15148 19.987 3.10548 19.504 3.12848 19.021V18.285C3.12848 17.94 3.12848 17.595 3.17448 17.25C3.28948 15.249 3.61148 13.248 4.14048 11.316C4.50848 9.88998 5.26748 8.55598 6.30248 7.47498C4.96848 10.58 4.18648 13.915 3.97948 17.296C3.97948 17.664 3.93348 18.032 3.93348 18.4V19.159C3.93348 20.884 4.14048 22.609 4.53148 24.288C5.03748 26.473 5.86548 28.566 7.01548 30.498C5.91148 28.543 5.12948 26.45 4.66948 24.265C4.27848 22.356 4.14048 20.401 4.25548 18.469V17.963C4.39348 14.674 5.15248 11.454 6.50948 8.44098C7.19948 6.92298 8.23448 5.58898 9.52248 4.53098C6.87748 8.09598 5.31348 13.225 5.01448 18.055C4.99148 18.515 4.96848 18.952 4.96848 19.412C4.96848 20.01 4.96848 20.608 5.03748 21.206C5.15248 22.54 5.38248 23.851 5.72748 25.139C6.07248 26.427 6.50948 27.692 7.06148 28.911C7.59048 30.13 8.28048 31.28 9.08548 32.361C8.30348 31.28 7.65948 30.107 7.13048 28.865C6.60148 27.646 6.18748 26.381 5.88848 25.093C5.56648 23.805 5.38248 22.494 5.29048 21.183C5.24448 20.355 5.24448 19.504 5.29048 18.676C5.70448 13.248 7.01548 9.42998 9.93648 5.40498C11.1325 3.74898 12.7655 2.43798 14.6745 1.63298C10.0515 5.19798 6.64748 11.224 6.09548 18.791C5.93448 21.275 6.23348 23.782 6.99248 26.151C7.40648 27.508 7.98148 28.842 8.67148 30.107C9.36148 31.372 10.1895 32.545 11.1555 33.603C10.2125 32.522 9.40748 31.349 8.74048 30.084C8.07348 28.819 7.54448 27.485 7.15348 26.128C6.46348 23.782 6.21048 21.321 6.41748 18.86C7.01548 12.006 10.3275 6.32498 14.5365 3.28898C17.2275 1.10398 20.6085 -0.0230211 24.0585 -2.11189e-05C13.5475 1.47198 8.23448 10.12 7.26848 18.86C7.17648 20.079 7.19948 21.298 7.31448 22.494C7.47548 24.012 7.79748 25.507 8.28048 26.933C8.76348 28.382 9.40748 29.762 10.2355 31.05C11.0405 32.338 12.0295 33.488 13.2025 34.477C12.0755 33.465 11.1095 32.269 10.3275 30.981C9.54548 29.693 8.92448 28.29 8.46448 26.864C8.00448 25.438 7.72848 23.943 7.59048 22.448C7.49848 21.436 7.49848 20.401 7.59048 19.366C7.59048 19.366 7.59048 19.136 7.61348 19.044V18.883C8.18848 13.685 10.7415 8.90098 14.7205 5.47398C15.1115 5.15198 15.5025 4.82998 15.9165 4.50798C18.2855 2.80598 21.0455 1.65598 23.9205 1.17298C27.2785 0.643979 31.8095 1.17298 34.6615 2.87498C28.6355 0.781979 21.9655 0.712979 15.1345 6.18698C12.2825 8.46398 9.10848 13.202 8.39548 19.021C8.28048 20.171 8.28048 21.321 8.39548 22.448C8.53348 23.851 8.83248 25.231 9.26948 26.565C9.36148 26.864 9.47648 27.163 9.59148 27.462C10.2125 29.371 11.2245 31.142 12.6045 32.614L12.7425 32.752L12.7885 32.798C13.0645 33.097 13.3405 33.373 13.6625 33.626C15.8245 35.535 18.5385 36.731 21.4135 37.053C22.0805 37.122 22.7245 37.145 23.3915 37.145C30.3145 37.03 36.0875 31.947 37.0075 25.162H45.9545L46.0005 25.231ZM40.6415 19.32H41.8375C40.1815 11.316 32.6605 5.86498 24.4265 6.71598C16.1925 7.56698 9.98248 14.444 10.0285 22.586V22.908C10.1665 16.652 14.1225 11.086 20.0565 8.85498C25.9905 6.62398 32.7065 8.18798 37.0075 12.788C38.7095 14.651 39.9055 16.882 40.4805 19.32L40.6415 19.274V19.32ZM35.9035 15.456C33.5115 11.431 29.0725 9.01598 24.3345 9.19998C23.0695 9.19998 21.7815 9.36098 20.5625 9.70598C20.2865 9.77498 20.1255 9.84398 20.1255 9.84398C20.7235 9.70598 21.3675 9.61398 21.9425 9.54498C22.4025 9.49898 22.8395 9.49898 23.2995 9.49898C29.4175 9.49898 34.7995 13.501 36.5015 19.297H37.7665C37.4675 18.492 37.1225 17.687 36.7315 16.928C36.4785 16.422 36.2025 15.916 35.9035 15.456ZM9.79848 16.491C9.75248 16.652 9.70648 16.813 9.66048 16.974C9.36148 18.078 9.17748 19.205 9.06248 20.332C9.06248 20.493 9.03948 20.677 9.01648 20.861V21.597C8.97048 22.54 9.08548 23.46 9.36148 24.38C9.29248 23.782 9.26948 23.184 9.26948 22.586C9.26948 16.376 12.5585 10.626 17.9405 7.40598C23.3225 4.18598 30.0155 4.00198 35.5815 6.89998C36.0415 7.15298 36.5705 7.45198 37.1225 7.81998C41.0325 10.511 43.6545 14.651 44.4135 19.32H45.8625C44.6205 10.856 37.6285 4.36998 28.9805 3.70298C20.3555 3.03598 12.3975 8.32598 9.82148 16.491H9.79848Z" fill="#D6006D"/>
</g>
<defs>
<clipPath id="clip0_572_2012">
<rect width="46" height="46" fill="white"/>
</clipPath>
</defs>
</svg>
