<svg width="66" height="46" viewBox="0 0 66 46" fill="none" xmlns="http://www.w3.org/2000/svg">
<g clip-path="url(#clip0_583_3488)">
<path fill-rule="evenodd" clip-rule="evenodd" d="M43.9924 0.00207193C33.7081 0.185536 22.7745 5.69976 16.4976 13.1002C13.0736 17.1323 11.8986 20.5068 11.6059 22.7392C10.8246 27.5237 13.4178 31.0528 17.5839 31.3662C24.2443 31.8424 28.9175 26.2787 33.4134 19.0246C39.0801 9.87203 45.1819 5.44003 55.025 6.06669C59.8074 6.36972 64.6847 9.75452 65.8576 12.558C64.0972 5.30604 56.2227 -0.121612 43.9924 0.00207193Z" fill="#E50113"/>
<path fill-rule="evenodd" clip-rule="evenodd" d="M21.8653 45.9979C32.1496 45.8165 43.0832 40.3023 49.3622 32.8998C52.7862 28.8677 53.9592 25.4932 54.2539 23.2607C55.0352 18.4783 52.442 14.9471 48.2718 14.6338C41.6135 14.1597 36.9423 19.7213 32.4444 26.9774C26.7756 36.1279 20.6759 40.5579 10.8327 39.9312C6.0503 39.6303 1.1751 36.2454 -0.00195312 33.4399C1.76054 40.6919 9.633 46.1195 21.8633 45.9958" fill="#00A0E8"/>
</g>
<defs>
<clipPath id="clip0_583_3488">
<rect width="65.8595" height="46" fill="white"/>
</clipPath>
</defs>
</svg>
