<svg width="423" height="46" viewBox="0 0 423 46" fill="none" xmlns="http://www.w3.org/2000/svg">
<g clip-path="url(#clip0_583_3232)">
<g clip-path="url(#clip1_583_3232)">
<path d="M0 13.8196C32.4724 10.7824 41.3469 53.3077 73.1692 40.723C43.7288 60.4663 27.7101 18.8097 0 13.8196Z" fill="#E4004F"/>
<path d="M14.2871 13.8195C24.6784 12.7353 31.6059 16.4224 39.6153 23.3654L44.3776 27.4884C53.4704 35.5157 59.0978 40.723 72.0877 37.0343C60.8313 43.7601 50.44 38.77 41.5639 30.7428L36.8016 26.6197C30.0907 20.761 22.9465 15.3381 14.2871 13.8195Z" fill="#ED7700"/>
<path d="M27.2764 13.8196C35.7191 12.9525 41.5632 15.9897 48.059 21.6297L51.9561 25.1012C58.8836 31.1756 62.1307 35.2986 71.872 33.9972C63.8626 37.2515 56.7184 33.9972 49.7909 27.7057L45.8937 24.2341C40.2647 19.4612 34.4206 15.121 27.2764 13.8196Z" fill="#F9BE00"/>
<path d="M112.353 32.2614C79.8804 35.2986 71.0059 -7.22663 39.1836 5.35802C68.8407 -14.6024 84.6443 27.2713 112.353 32.2614Z" fill="#0068B6"/>
<path d="M98.0652 32.0444C87.6739 33.1286 80.7464 29.4415 72.7371 22.4985L67.9748 18.3755C58.882 10.3482 53.2546 5.14094 40.2646 8.82963C51.5211 2.10377 61.9124 7.09387 70.7885 15.1211L75.5508 19.2442C82.2616 25.3185 89.4058 30.5258 98.0652 32.0444Z" fill="#00ACA8"/>
<path d="M85.0762 32.0442C76.6334 32.9112 70.7893 29.8741 64.2936 24.2341L60.3964 20.7626C53.4689 14.6882 50.2218 10.5652 40.6973 11.8666C48.7066 8.61226 55.8508 11.8666 62.7784 18.1581L66.6755 21.6296C72.0879 26.6197 77.932 30.7428 85.0762 32.0442Z" fill="#6FB92C"/>
<path d="M38.75 14.0368C54.1203 11.434 58.6658 30.96 73.8194 32.2614C58.0158 35.2986 51.7383 15.121 38.75 14.0368Z" fill="#AACC03"/>
<path d="M131.187 26.4043C140.063 26.4043 142.66 24.2342 145.474 21.8486L145.907 21.6314L147.422 20.33L148.288 19.4629C148.721 19.2458 148.938 18.8114 148.938 18.3787V17.5116C148.938 17.2944 148.721 17.0773 148.504 16.8601C148.288 16.6429 148.071 16.6429 147.639 16.6429H134.217L134.651 16.2086L135.301 15.7742L135.951 15.1227L136.168 14.9056H132.054C131.404 14.9056 130.972 14.9055 130.539 15.1227C130.105 15.3399 129.673 15.5571 129.24 15.9898L123.394 20.9799L123.178 21.1971H128.157V21.4142L129.672 23.8015L129.889 24.2359L130.105 24.453H129.672L125.126 24.6702H124.693C124.693 24.6702 124.476 24.6702 124.476 24.8874L123.178 26.1888L131.187 26.406V26.4043ZM234.88 40.0716H237.91C238.127 40.0716 238.561 40.0716 238.776 39.8544C238.991 39.6373 239.209 39.4201 239.209 39.2029L242.456 15.3367H238.776C238.559 15.3367 238.342 15.3367 238.342 15.5538L238.126 15.771L237.476 20.5439L233.795 27.7041H236.609V27.9213L234.877 40.0716H234.88ZM197.645 15.9898H189.636C189.419 15.9898 189.203 15.9898 189.203 16.207C188.986 16.207 188.986 16.4241 188.986 16.6413L188.121 22.5001H196.78V22.7173L196.564 23.8015V24.0187H186.606C186.172 24.0187 185.956 24.2359 185.741 24.2359C185.524 24.453 185.307 24.6702 185.307 24.8874L185.09 26.1888H211.069C211.502 26.1888 211.934 25.9716 212.151 25.9716C212.367 25.7544 212.584 25.5373 212.801 25.1045L213.017 24.2375H201.978V24.0203L202.194 22.9361V22.7189H211.07L211.935 16.8601V16.4258C211.935 16.4258 211.719 16.4258 211.719 16.2086H203.276V15.9914L203.493 14.9072H198.297L197.647 15.9914L197.645 15.9898ZM200.892 31.3944H195.697L195.48 33.5645L190.935 36.6017C189.419 37.6859 188.121 38.5546 186.389 39.6389C186.389 39.6389 186.172 39.6389 186.172 39.8561H191.801L197.214 36.1674L201.543 39.8561H207.388C206.09 38.7718 205.006 37.6859 203.708 36.8189C202.626 35.9518 201.543 34.866 200.027 33.7817L200.892 31.3944ZM187.471 28.1401C187.471 27.9229 187.471 27.7057 187.687 27.7057C187.687 27.7057 187.904 27.4886 188.121 27.4886H209.335C209.552 27.4886 209.769 27.4886 209.769 27.7057V28.1401L208.903 37.0361V37.2532H208.47L205.223 34.4332L205.006 34.2161V33.9989L205.44 30.093V29.8759H191.368V30.093L190.718 33.9989V34.2161L190.501 34.4332L185.956 37.2532H185.739L187.471 28.1401ZM202.624 20.1112L202.841 18.1583V17.9411H208.253V18.3754L208.037 20.1112V20.3284H202.408L202.624 20.1112ZM196.997 20.3284H191.801V19.894L192.018 18.1583V17.9411H197.43V18.1583L196.997 20.3284ZM226.221 40.0716H229.251C229.468 40.0716 229.901 40.0716 230.116 39.8544C230.331 39.6373 230.55 39.4201 230.55 39.2029L233.797 15.3367H230.333C230.116 15.3367 229.9 15.3367 229.9 15.5538L229.683 15.771L229.033 20.5439L225.352 27.7041H227.949V27.9213L226.217 40.0716H226.221ZM224.922 15.1211H225.356V15.3383L223.19 31.3928V32.0443C222.757 34.8643 222.54 37.4688 220.377 39.6373C220.232 39.782 220.088 39.8544 219.943 39.8544H214.964C216.479 38.3358 217.346 37.0344 217.778 35.5158C218.428 33.9973 218.643 32.4787 218.86 30.5257L219.293 27.2714V27.0542H216.479L220.377 19.6769L221.027 14.9039L224.924 15.1211H224.922ZM289.865 32.4787L289.215 38.1203V38.3375H280.339C279.906 38.3375 279.689 38.3375 279.474 38.5546C279.257 38.7718 279.257 38.989 279.041 39.2062L278.824 40.5076H303.285C303.719 40.5076 304.151 40.2904 304.367 40.2904C304.584 40.0732 304.801 39.8561 304.801 39.4233L305.017 38.3391H295.059V38.1219L295.709 32.4803V32.2631H304.586C305.019 32.2631 305.451 32.046 305.667 32.046C305.884 31.8288 306.101 31.6116 306.101 31.1789L306.317 30.0946H281.856C281.423 30.0946 281.206 30.0946 280.991 30.3118C280.774 30.529 280.774 30.7462 280.558 30.9633L280.341 32.2647H290.515L289.865 32.4819V32.4787ZM280.558 22.9328H285.536L285.97 19.6785V19.4613H303.289V19.6785L302.639 22.7156V23.15H307.618L308.268 17.5084H297.443L297.66 17.2912V17.074L298.525 15.1211H293.329C293.112 15.1211 292.896 15.1211 292.679 15.3383C292.462 15.3383 292.462 15.5554 292.246 15.7726L291.596 17.5084V17.7255H282.936C282.503 17.7255 282.071 17.9427 281.854 17.9427C281.638 18.1599 281.421 18.3771 281.421 18.8098L280.556 22.9328H280.558ZM284.67 25.3185C285.968 24.2342 287.052 23.1484 288.35 22.0641C288.495 21.9194 288.639 21.847 288.784 21.847H293.329L287.483 28.1385L287.267 28.3556H281.421L281.638 28.1385C282.72 26.8371 283.803 25.9684 284.668 25.3185H284.67ZM305.236 27.9229C305.236 28.0677 305.236 28.0677 305.236 27.9229C305.236 28.1401 305.019 28.1401 305.236 27.9229L299.823 28.1401H299.39C299.39 28.1401 299.173 28.1401 299.173 27.9229L295.059 21.6314H299.605C299.749 21.6314 299.894 21.7038 300.038 21.8486C301.12 22.9328 301.987 24.0187 302.852 25.1029C303.502 26.1872 304.367 27.0559 305.234 27.9229H305.236ZM254.364 40.2888H258.693L261.723 18.1583C261.723 17.9411 261.723 17.7239 261.507 17.5068C261.29 17.2896 261.073 17.2896 260.642 17.2896H255.446L255.663 17.0724L256.745 15.1195H252.847C252.414 15.1195 252.197 15.1195 251.982 15.3367C251.766 15.3367 251.549 15.5538 251.332 15.771L250.25 16.8552C249.385 17.7223 249.169 17.9395 249.169 18.8082L248.087 26.6183V26.8354H246.788L246.572 29.0055H247.87V29.2227L247.22 34.2128C247.003 35.5142 246.787 36.6001 246.355 37.4672C246.138 38.3342 245.705 39.2029 245.273 40.2872H249.602C250.035 39.4201 250.467 38.5514 250.684 37.6843C251.117 36.6001 251.334 35.7314 251.334 34.8643L252.199 29.0055V28.7884H256.096V29.0055L255.879 31.1756V31.3928H252.849L255.231 35.9486L254.366 40.2872L254.364 40.2888ZM256.745 22.0641H253.931L256.313 26.4027L256.529 26.6199H252.632V26.4027L253.497 19.6769V19.4597H257.395V19.6769L256.745 22.0641ZM275.145 19.4613L275.362 17.2912H271.465V16.8569L272.33 15.1211H268.649C267.999 15.1211 267.568 15.1211 267.134 15.7726L266.269 17.2912H263.022L262.805 19.4613H275.145ZM268.651 40.2888C268.507 40.2888 268.507 40.2888 268.651 40.2888C268.218 40.2888 268.001 40.0716 267.786 40.0716C267.569 39.8544 267.569 39.6373 267.569 39.4201L269.518 24.2326V24.0154H267.786V24.4498L266.271 35.9486C266.054 36.8156 265.837 37.6843 265.621 38.3358C265.404 38.9874 264.971 39.8544 264.755 40.5059H260.858C261.292 39.8544 261.508 38.9874 261.723 38.3358L262.374 35.733L264.105 23.1484C264.322 22.714 264.539 22.2813 264.755 22.0641C265.189 21.847 265.406 21.847 265.837 21.847H274.28L272.115 37.4688V37.6859H274.28C274.28 38.1203 274.063 38.7702 273.847 39.2045C273.63 39.6389 273.197 40.0716 272.331 40.2888H268.651ZM155.865 38.1203L157.597 30.9601H154.133L152.185 39.2045H154.133C154.567 39.2045 154.998 38.9874 155.432 38.7702C155.648 38.7702 155.865 38.3358 155.865 38.1187V38.1203ZM170.585 30.0914H176.214L181.843 23.3655V23.1484H177.73C177.296 23.1484 176.864 23.3655 176.431 23.3655C175.998 23.5827 175.781 23.7999 175.349 24.2326L170.587 30.0914H170.585ZM171.669 21.6298H177.298L182.927 14.9039V14.6868H178.813C178.38 14.6868 177.948 14.9039 177.514 14.9039C177.081 15.1211 176.864 15.3383 176.433 15.771L171.67 21.6298H171.669ZM155.432 17.9427L155.648 15.7726H163.224C164.956 15.7726 166.038 15.5554 167.338 15.1211C168.637 14.9039 169.935 14.4696 172.101 14.4696L171.019 17.7239L155.432 17.9411V17.9427ZM165.606 24.4514L166.905 19.4613H170.585L169.287 24.4514H165.606ZM160.627 19.4613V24.4514H164.525V19.4613H160.627ZM155.217 19.4613V24.4514H158.897V19.4613H155.217ZM162.576 39.8561H157.814L159.112 29.6587V29.4415H153.483L153.7 27.2714H159.329V27.0542L159.546 25.7528H164.308L164.091 27.0542V27.2714H169.72L169.504 29.4415H163.874V29.6587L162.576 39.8561ZM174.482 39.4217L180.328 32.2615C180.545 32.0443 180.545 31.8272 180.545 31.8272C180.545 31.8272 180.328 31.61 179.895 31.61H176.648C175.783 31.61 175.349 31.8272 174.916 32.0443C174.482 32.2615 174.051 32.6958 173.617 33.3457L169.72 37.6843L169.07 38.3358H168.637C168.492 38.3358 168.348 38.2635 168.203 38.1187V37.6843L168.42 30.7413H164.956L164.74 38.9857L174.481 39.4201L174.482 39.4217ZM129.672 39.8561C139.413 39.8561 141.578 37.9031 143.744 36.1674C143.96 35.9502 144.177 35.9502 144.394 35.733L146.776 33.5629L147.641 32.6958C148.074 32.4787 148.291 32.0443 148.291 31.6116V30.7445C148.291 30.5274 148.074 30.3102 147.857 30.093C147.641 29.8759 147.424 29.8759 146.992 29.8759H132.705L133.139 29.4415L134.437 28.3573L135.087 27.7057L135.304 27.4886H131.19C130.54 27.4886 130.108 27.4886 129.675 27.7057C129.242 27.9229 128.81 28.1401 128.377 28.5728L121.882 34.2144L121.666 34.4316H126.645V34.6488L128.16 37.0361L128.593 37.4704L128.81 37.6876H121.882C121.882 37.6876 121.666 37.6876 121.666 37.9047L120.367 39.2062L129.675 39.8577L129.672 39.8561ZM129.022 33.1302L130.32 31.8288H141.145C141.362 31.8288 141.578 31.8288 141.795 32.046C141.795 32.2631 141.795 32.4803 141.578 32.6975L139.846 34.2161C138.981 34.8676 137.898 35.9518 136.599 36.3862C135.301 37.0377 134.002 37.0377 133.136 35.9518L132.702 35.3003C132.486 34.866 132.269 34.6488 131.837 34.4332C131.404 34.2161 130.972 33.9989 130.322 33.9989H128.157L128.59 33.5645L129.023 33.1302H129.022ZM130.754 19.6785L132.052 18.3771H142.01C142.227 18.3771 142.443 18.3771 142.66 18.5942C142.66 18.8114 142.66 19.0286 142.443 19.2458L139.846 21.633C139.63 21.8502 139.413 21.8502 139.196 22.0674C138.546 22.5017 137.898 22.9344 137.248 23.1516C136.383 23.3688 135.733 23.3688 135.299 22.7173V22.5001L134.866 21.8486C134.649 21.4142 134.432 21.1971 134.001 20.9815C133.567 20.7643 133.136 20.5472 132.486 20.5472H130.32L130.754 20.1128V19.6785Z" fill="#3E3A39"/>
<path d="M323.852 18.5925H322.12V18.3753C322.12 17.7238 321.904 17.2911 321.47 17.0739C321.254 16.8567 320.605 16.6396 320.172 16.6396C319.307 16.6396 318.657 17.0739 318.006 17.7238C317.356 18.3753 316.925 19.2424 316.708 20.5438C316.491 21.628 316.708 22.7139 317.141 23.1466C317.575 23.7981 318.223 24.0137 319.09 24.2309C321.038 24.2309 321.687 23.3638 321.904 21.628H323.852C322.987 24.8824 321.47 25.5339 318.657 25.3167C317.141 25.3167 316.275 24.6652 315.626 24.0153C314.976 23.1482 314.761 21.8452 314.976 20.3266C315.409 18.808 316.058 17.5066 316.925 16.6379C317.79 15.7709 319.09 15.3365 320.388 15.3365C321.47 15.3365 322.337 15.5537 322.985 16.2036C323.419 16.4208 323.851 17.2878 323.851 18.5909L323.852 18.5925ZM327.533 24.0169C328.183 24.0169 328.614 23.7998 328.831 23.3654C329.265 22.9311 329.481 22.2812 329.696 21.6297C329.913 20.7626 329.696 20.1111 329.48 19.8939C329.263 19.4596 328.83 19.2424 328.398 19.2424C327.748 19.2424 327.316 19.4596 326.883 19.8939C326.449 20.3282 326.233 20.9781 326.017 21.8468V22.4983C326.017 22.9327 326.017 23.3654 326.234 23.5826C326.451 23.7998 326.668 24.0169 327.099 24.0169H327.533ZM327.316 25.3183H326.666C326.016 25.1012 325.367 24.884 324.934 24.4513C324.501 24.0185 324.284 23.367 324.284 22.4983V21.6313C324.501 20.547 324.934 19.4612 325.799 18.8113C326.449 18.1598 327.531 17.9442 328.613 17.727H329.478C330.128 17.9442 330.776 18.1614 330.993 18.5941C331.427 19.0284 331.643 19.6783 331.643 20.3299V21.4141C331.427 22.4983 330.993 23.5842 330.128 24.0169C329.478 24.884 328.613 25.3183 327.314 25.3183H327.316ZM332.512 24.884L334.243 14.9038V14.6866H336.192V14.9038L334.46 24.884V25.1012H334.243L332.512 24.884ZM339.439 24.0169C340.089 24.0169 340.521 23.7998 340.738 23.3654C341.171 22.9311 341.388 22.2812 341.603 21.6297C341.819 20.7626 341.603 20.1111 341.386 19.8939C341.169 19.4596 340.736 19.2424 340.304 19.2424C339.654 19.2424 339.222 19.4596 338.789 19.8939C338.356 20.3282 338.139 20.9781 337.924 21.8468V22.4983C337.924 22.9327 337.924 23.3654 338.141 23.5826C338.357 23.7998 338.574 24.0169 339.006 24.0169H339.439ZM339.222 25.3183H338.572C337.922 25.1012 337.274 24.884 336.841 24.4513C336.407 24.0169 336.19 23.367 336.19 22.4983V21.6313C336.407 20.547 336.84 19.4612 337.706 19.0284C338.356 18.3769 339.438 18.1614 340.519 17.9442H341.384C342.035 18.1614 342.683 18.3786 342.9 18.8113C343.333 19.2456 343.55 19.8955 343.55 20.547V21.6313C343.333 22.7155 342.9 23.8014 342.035 24.2341C341.384 24.8856 340.303 25.3183 339.221 25.3183H339.222ZM344.201 25.1012L345.067 20.3282C345.283 19.4612 345.5 19.0268 345.932 18.5925C346.363 18.1581 347.014 17.941 347.88 17.941H350.262C350.046 19.2424 349.397 19.2424 348.097 19.2424C347.664 19.2424 347.447 19.2424 347.232 19.4596C347.017 19.6767 346.798 19.8939 346.798 20.3266L345.933 25.0995V25.3167L344.201 25.0995V25.1012ZM355.026 18.3753L354.809 19.4596V19.6767H353.511L352.429 25.3183V25.5355H350.48V25.3183L351.346 19.8939H350.48V19.6767L350.697 18.5925V18.3753H351.779L351.996 17.2911C352.212 16.424 352.429 15.9897 352.861 15.5553C353.293 15.121 353.943 14.9038 354.593 14.9038H356.325C356.108 15.7709 355.675 16.2052 354.809 16.2052C354.376 16.2052 354.159 16.2052 353.944 16.4224C353.729 16.6396 353.511 16.8567 353.511 17.2895L353.294 18.3737H355.026V18.3753ZM355.675 22.4983V23.5826C355.675 24.0169 355.891 24.2341 356.108 24.6668C356.325 24.884 356.758 25.1012 356.973 25.3183C357.19 25.3183 357.623 25.5355 358.055 25.5355H361.735V25.3183L363.034 18.3753V18.1581H361.085V18.3753L360.003 24.2341H358.705C358.055 24.2341 357.84 24.0169 357.623 23.7998C357.406 23.5826 357.406 23.1482 357.406 22.4983L358.056 18.3753V18.1581H356.108V18.3753L355.675 22.4983ZM363.252 24.884L364.984 14.9038V14.6866H366.933V14.9038L365.201 24.884V25.1012H364.984L363.252 24.884ZM379.704 18.5925H377.756V18.3753C377.756 17.7238 377.539 17.2911 377.106 17.0739C376.672 16.8567 376.24 16.6396 375.59 16.6396C374.725 16.6396 373.859 17.0739 373.425 17.7238C372.775 18.3753 372.343 19.2424 372.127 20.5438C371.91 21.628 372.127 22.7139 372.56 23.1466C372.993 23.7981 373.642 24.0137 374.509 24.2309C375.159 24.2309 375.59 24.0137 376.024 23.7965C376.457 23.5793 376.889 23.145 377.106 22.7123L377.322 20.9765H374.292V20.7593L374.509 19.6751V19.4579H379.488V19.6751L378.837 23.1466C378.404 23.7981 377.756 24.2309 376.889 24.6652C376.239 24.8824 375.157 25.0995 374.292 25.0995C373.858 25.0995 373.427 25.0995 372.993 24.8824C372.128 24.6652 371.261 24.2309 370.828 23.581C370.395 22.9311 369.963 22.2796 369.963 21.1937V19.8923C370.396 18.3737 371.045 17.0723 371.912 16.2036C372.777 15.3365 374.077 14.9022 375.592 14.9022C376.674 14.9022 377.541 15.1193 378.189 15.7692C379.271 16.6363 379.704 17.2878 379.704 18.5892V18.5925ZM380.354 22.7155L381.004 18.3769V18.1598H382.953V18.3769L382.303 22.5C382.086 23.1515 382.303 23.367 382.52 23.8014C382.736 24.0185 383.17 24.2357 383.601 24.2357H384.9L385.982 18.3769V18.1598H387.93V18.3769L386.632 25.32V25.5371H382.951C382.518 25.5371 382.086 25.5371 381.869 25.32C381.436 25.1028 381.219 25.1028 381.004 24.6684C380.788 24.4513 380.571 24.0169 380.571 23.5842C380.138 23.367 380.354 23.1499 380.354 22.7171V22.7155ZM387.93 25.1012L389.012 18.3753V18.1581H390.961V18.3753L389.879 25.1012V25.3183H389.662L387.93 25.1012ZM389.229 17.0739L389.445 15.7725V15.5553H391.394V15.7725L391.177 17.0739V17.2911H390.961L389.229 17.0739ZM390.961 25.1012L397.455 25.3183H397.671V25.1012L397.888 24.2341V24.0169H393.774L398.537 19.4612L398.753 18.3769V18.1598H392.476V18.3769L392.259 19.4612V19.6783H395.94L391.177 24.2341L390.961 25.1012ZM398.755 25.1012L400.487 15.121V14.9038H402.435V15.121L402.002 18.1581H403.734C404.816 18.1581 405.466 18.3753 405.899 18.8097C406.333 19.244 406.549 19.8939 406.333 20.7626L405.467 25.1012V25.3183H403.519V25.1012L404.169 20.9781V20.3266C404.169 20.1094 404.169 19.8923 403.952 19.8923C403.808 19.7475 403.663 19.6751 403.519 19.6751H401.787L400.705 25.3167V25.5339H400.488L398.757 25.0995L398.755 25.1012ZM410.445 24.2341C411.095 24.2341 411.527 24.0169 411.743 23.5826C412.177 23.1482 412.393 22.4983 412.608 21.8468C412.825 20.9798 412.608 20.3282 412.392 20.1111C412.175 19.6767 411.742 19.4596 411.31 19.4596C410.66 19.4596 410.228 19.6767 409.795 20.1111C409.361 20.5454 409.145 21.1953 408.93 22.064V22.7155C408.93 23.1499 408.93 23.5826 409.146 23.7998C409.363 24.0169 409.58 24.2341 410.011 24.2341H410.445ZM410.228 25.5355H409.578C408.928 25.3183 408.279 25.1012 407.846 24.6684C407.413 24.2341 407.196 23.5842 407.196 22.7155V21.8484C407.413 20.7642 407.846 19.6783 408.711 19.2456C409.361 18.5941 410.443 18.3786 411.525 18.1614H412.39C413.04 18.3786 413.689 18.5957 413.905 19.0284C414.339 19.4628 414.555 20.1127 414.555 20.7642V21.8484C414.339 22.9327 413.905 24.0185 413.04 24.4513C412.175 25.1028 411.308 25.5355 410.226 25.5355H410.228ZM415.424 22.7155L416.074 18.3769V18.1598H418.022V18.3769L417.372 22.7155C417.372 23.367 417.372 23.5826 417.589 24.0169C417.806 24.2341 418.239 24.4513 418.671 24.4513H419.969L421.051 18.5925V18.3753H423V18.5925L421.701 25.5355V25.7527H418.021C417.587 25.7527 417.156 25.7527 416.939 25.5355C416.506 25.3183 416.289 25.3183 416.074 24.884C415.857 24.6668 415.64 24.2325 415.64 23.7998C415.424 23.5826 415.424 23.1482 415.424 22.7155Z" fill="#3E3A39"/>
<path d="M350.047 36.8171H355.243V35.0813C355.243 34.647 355.026 34.2143 354.809 33.7799C354.593 33.3456 354.159 33.1284 353.727 32.9129C353.296 32.6973 352.862 32.6957 352.212 32.6957C351.562 32.6957 351.13 32.9129 350.697 32.9129L349.398 33.5644C348.965 33.7816 348.748 34.2159 348.533 34.6486C348.318 35.0813 348.1 35.7329 348.1 36.1672V36.6016C348.1 37.0359 348.1 37.4686 348.317 37.903C348.533 38.3373 348.533 38.5545 348.967 38.9872C349.183 39.2044 349.617 39.4216 349.832 39.6387C350.265 39.8559 350.697 39.8559 351.13 39.8559H352.646C353.079 39.8559 353.296 39.6387 353.511 39.6387C353.726 39.6387 354.161 39.4216 354.376 39.2044L355.026 38.5529L354.809 37.4686C354.593 37.6858 354.376 37.6858 354.376 37.903C354.159 38.1201 353.942 38.1201 353.726 38.3373C353.509 38.5545 353.292 38.5545 352.861 38.5545H352.211C351.777 38.5545 351.561 38.5545 351.345 38.3373C351.129 38.3373 350.912 38.1201 350.695 37.903C350.479 37.6858 350.479 37.4686 350.262 37.2515C350.045 37.4686 349.829 37.2515 350.045 36.8171H350.047ZM353.726 35.7329H350.262C350.262 35.5157 350.479 35.2985 350.479 35.0813C350.695 34.8642 350.695 34.647 350.912 34.647C351.129 34.4298 351.345 34.4298 351.562 34.2127C351.779 34.2127 351.996 33.9955 352.212 33.9955C352.429 33.9955 352.862 33.9955 353.077 34.2127C353.294 34.2127 353.511 34.4298 353.511 34.647C353.655 34.7918 353.727 34.9366 353.727 35.0813V35.7329H353.726ZM357.19 38.1201L356.756 37.6858L356.323 38.77L356.973 39.4216C357.19 39.6387 357.406 39.6387 357.623 39.8559C358.921 40.5074 360.437 40.2902 361.303 39.8559C361.737 39.6387 362.169 39.4216 362.385 38.9888C362.602 38.7717 362.819 38.3373 362.819 37.9046C362.819 37.4719 362.602 37.0375 362.169 36.6032C361.952 36.386 361.735 36.1688 361.303 36.1688C360.87 35.9517 360.653 35.9517 360.222 35.9517C360.005 35.9517 359.572 35.9517 359.356 35.7345C359.14 35.7345 358.923 35.5173 358.923 35.5173C358.706 35.5173 358.706 35.3001 358.706 35.3001V35.083C358.706 34.8658 358.923 34.6486 359.14 34.4315C359.356 34.2143 359.79 34.2143 360.005 34.2143H360.222C360.655 34.2143 360.872 34.2143 361.087 34.4315C361.302 34.6486 361.52 34.8658 361.52 35.2985H362.819V35.0813C362.819 34.2143 362.169 33.5628 361.52 33.3456C361.087 33.1284 360.438 32.9112 360.005 32.9112C359.355 32.9112 358.923 32.9112 358.49 33.1284C357.625 33.3456 357.191 33.9955 356.974 34.8642V35.7312C356.974 35.9484 357.191 36.1656 357.408 36.3828C357.625 36.5999 357.841 36.8171 358.273 36.8171C358.706 37.0343 359.138 37.0343 359.572 37.2515H360.005C360.222 37.2515 360.438 37.2515 360.438 37.4686C360.655 37.4686 360.655 37.6858 360.872 37.6858C361.088 37.903 361.088 38.1201 361.088 38.3373C361.088 38.5545 360.872 38.5545 360.872 38.7717L360.438 39.206C359.788 39.4232 358.923 39.4232 358.056 38.9888C357.623 38.3373 357.406 38.3373 357.191 38.1218L357.19 38.1201ZM313.461 39.4216L318.873 29.8757H320.822V30.0929L322.987 39.6387V39.8559H320.822V39.6387L320.388 37.2515H316.491L314.976 39.6387H313.027L313.461 39.4216ZM319.523 32.0442L317.358 35.95H320.172L319.522 32.0442H319.523ZM323.852 39.4216L324.934 32.6957V32.4785H326.882V32.6957L325.801 39.4216V39.6387H325.584L323.852 39.4216ZM325.367 31.3943L325.584 30.0929V29.8757H327.532V30.0929L327.316 31.3943V31.6115H327.099L325.367 31.3943ZM327.316 39.6387L328.181 34.8658C328.398 33.9987 328.614 33.5644 329.046 33.13C329.479 32.6957 330.128 32.4785 330.995 32.4785H333.377C333.16 33.7799 332.511 33.7799 331.211 33.7799C330.778 33.7799 330.561 33.7799 330.346 33.9971C330.129 34.2143 329.913 34.4315 329.913 34.8642L329.048 39.6371V39.8543H328.831L327.316 39.6371V39.6387ZM333.162 39.4216L334.893 39.6387H335.11V39.4216L336.842 29.4414V29.2242H334.893V29.4414L333.162 39.4216ZM336.625 39.6387L337.707 32.9129V32.6957H339.656V32.9129L338.574 39.6387V39.8559H338.357L336.625 39.6387ZM337.924 31.3943L338.14 30.0929V29.8757H340.089V30.0929L339.872 31.3943V31.6115H339.656L337.924 31.3943ZM339.872 39.6387L341.171 32.6957V32.4785H344.851C345.933 32.4785 346.583 32.6957 347.017 33.13C347.45 33.5644 347.667 34.2143 347.45 35.3001L346.8 39.6387V39.8559H344.851V39.6387L345.501 35.5157C345.501 35.0813 345.501 34.6486 345.285 34.4315C345.068 34.2143 344.851 33.9971 344.203 33.9971H342.904L341.823 39.8559V40.0731H341.606L339.874 39.6387H339.872Z" fill="#3E3A39"/>
</g>
</g>
<defs>
<clipPath id="clip0_583_3232">
<rect width="423" height="46" fill="white"/>
</clipPath>
<clipPath id="clip1_583_3232">
<rect width="423" height="46" fill="white" transform="matrix(1 0 0 -1 0 46)"/>
</clipPath>
</defs>
</svg>
