<svg width="161" height="46" viewBox="0 0 161 46" fill="none" xmlns="http://www.w3.org/2000/svg">
<g clip-path="url(#clip0_583_3320)">
<path d="M49.0373 24.7325C50.2449 24.4293 51.5819 23.9961 52.962 23.3897C54.3852 22.7833 55.4635 21.917 56.2829 20.8342C57.1024 19.708 57.6199 18.7551 57.9218 17.8888C58.2237 17.0225 58.3962 16.1562 58.4394 15.2899L58.5687 13.6873C55.3772 13.6007 53.307 13.5574 52.3582 13.6007L49.4686 13.6873V10.8285L52.4876 10.9152H58.655V5.24097C60.1214 5.37091 60.9408 5.41422 61.0271 5.41422H61.9759C61.9759 6.45377 61.9328 7.01686 61.9328 7.1468L61.8465 10.9152H68.1865L71.1624 10.8285V13.7739L68.1865 13.6873H61.8465C61.8465 14.2071 61.8465 14.6402 61.9328 14.9867C61.9759 15.2899 62.1484 15.8097 62.3641 16.5027C62.6229 17.1958 62.9248 17.8888 63.356 18.6251C63.7442 19.3182 64.5205 20.3144 65.5987 21.5272C66.677 22.74 67.7121 23.5197 68.7472 23.8662C69.7822 24.2127 70.7742 24.5159 71.723 24.7325C71.5505 25.0357 71.3349 25.3389 71.1624 25.6421C70.9899 25.9886 70.8173 26.4651 70.6017 27.1148L70.3429 27.9811C69.696 27.7645 68.7903 27.3747 67.5827 26.8116C66.3751 26.2918 65.1243 25.3389 63.8736 24.0828C62.6229 22.7833 61.8465 21.8304 61.5446 21.2673L60.5958 19.5348C60.2939 20.1845 59.992 20.8342 59.647 21.4406C59.3019 22.047 58.6981 22.7833 57.8356 23.6496C56.973 24.5159 55.8516 25.2956 54.4715 26.0752C53.0914 26.8116 51.8838 27.418 50.8487 27.8511C50.7193 27.5912 50.5899 27.288 50.4605 26.9415C50.288 26.6383 49.8136 25.902 48.9941 24.8191" fill="black"/>
<path d="M92.1237 16.6329H86.5169L85.9994 14.1639C86.2582 13.9474 86.6032 13.6008 87.0776 13.1677C87.552 12.7346 88.199 11.695 89.1047 10.0491H88.2421L85.9994 10.1357V7.36356L88.2421 7.45019H90.4417C90.6142 7.10367 90.7436 6.75716 90.8298 6.49727C90.9592 6.19407 91.1317 5.67429 91.3474 4.85132C92.6412 5.24115 93.3744 5.45772 93.5901 5.45772L94.4526 5.63098C94.1507 6.2807 93.8488 6.8871 93.5901 7.45019H98.4205L100.922 7.36356V10.1357L98.4205 10.0491H92.2531C91.4768 11.3918 90.6142 12.7346 89.7947 13.9907H92.1668V10.9153H95.0996V13.9907H100.534V16.6762H95.0565V18.4954H98.6793L101.267 18.4088V21.1809L98.3774 21.0943H95.0133V24.1263H92.0806V21.1376H88.1127L85.5681 21.2242V18.4521L88.1127 18.5387H92.1237V16.6762V16.6329ZM79.9182 7.36356C80.6945 6.84379 81.4709 6.15075 82.2472 5.41441C82.7216 5.89087 83.0666 6.2807 83.2823 6.54058L84.533 7.92665L85.5681 9.05282C85.1799 9.39934 84.9212 9.65923 84.7487 9.8758L84.0155 10.6988L83.4117 11.3485C82.9372 10.6988 82.4628 10.1357 81.9884 9.61591C81.5571 9.09614 80.8239 8.35979 79.8751 7.40687M82.0315 22.5236V16.1997H79.0556V13.4709H83.2823L84.9212 13.5142V15.2901L84.878 22.2637C85.0937 22.437 85.2662 22.5669 85.3956 22.6536L86.2582 23.3466C86.9051 23.8664 87.6383 24.2562 88.4577 24.6027C89.3203 24.9059 91.1317 25.0359 93.9351 25.0359C96.7385 25.0359 99.3262 24.776 101.785 24.3428C101.31 25.8155 101.051 26.6385 101.051 26.8551L100.879 27.7647H93.8057C92.9431 27.7647 91.8649 27.7647 90.571 27.7214C89.3203 27.7214 88.2852 27.5481 87.4658 27.3315C86.6463 27.115 85.9563 26.7251 85.3956 26.2487L84.4468 25.3391C84.0586 25.0359 83.7567 24.8626 83.4979 24.8626C83.2823 24.8626 82.9372 24.9926 82.4628 25.2958C81.9884 25.5557 81.2121 26.3353 80.0476 27.6347C79.5732 26.2054 79.2713 25.3824 79.2282 25.2091L78.7969 24.2129C79.7026 23.8664 80.7808 23.3466 82.0315 22.6103" fill="black"/>
<path d="M118.604 10.9152V8.22967L120.89 8.31629H123.65C123.391 7.62326 123.133 7.1468 122.917 6.80029L122.313 6.02063C123.305 5.67411 123.995 5.41422 124.297 5.19765L124.944 4.80782C125.72 6.10726 126.324 7.1468 126.756 7.92646C126.454 8.01309 126.195 8.14304 125.893 8.31629H128.955L131.37 8.22967V10.9152L128.869 10.8285H120.933L118.647 10.9152H118.604ZM119.079 25.2956C119.424 24.9924 119.726 24.4726 120.027 23.7363C120.329 22.9999 120.502 21.9604 120.545 20.6609C120.588 19.3615 120.631 18.3219 120.631 17.6289V14.9001L120.545 12.6477H126.195L128.308 12.6911L128.222 14.9434V24.6025C128.222 24.6025 128.265 25.0357 128.351 25.1656C128.438 25.2956 128.567 25.2523 128.739 24.9924C128.826 24.8624 128.912 24.6892 128.998 24.4726C129.041 24.256 129.085 23.9961 129.128 23.6929L129.214 22.74C129.559 22.9133 129.904 23.1299 130.249 23.2598C130.594 23.4331 131.155 23.563 131.888 23.7363C131.802 24.2127 131.672 24.6459 131.586 25.1223C131.457 25.5988 131.327 26.0319 131.155 26.4651C130.982 26.8982 130.767 27.2014 130.465 27.4613C130.163 27.6779 129.688 27.8078 128.998 27.8945C128.567 27.8945 127.963 27.8944 127.23 27.8511C126.497 27.7645 126.022 27.5912 125.893 27.2447C125.72 26.9415 125.634 26.6383 125.634 26.4218V15.16H123.262C123.262 15.8963 123.219 16.7626 123.176 17.7589C123.176 18.7551 123.176 19.6214 123.133 20.2711C123.133 20.9641 123.003 21.7871 122.874 22.8267C122.701 23.8229 122.443 24.7325 122.054 25.5555C121.666 26.3784 121.235 27.0282 120.718 27.4613L120.027 28.1543C119.553 27.4613 119.251 26.9848 119.035 26.8116L118.216 26.0752C118.475 25.902 118.734 25.6421 119.079 25.2956ZM112.609 11.4349C113.299 11.2617 113.903 11.0018 114.378 10.7419C114.593 11.2617 114.766 11.6515 114.852 11.9547C114.981 12.2579 115.197 12.9509 115.585 14.0338C114.895 14.2071 114.162 14.5103 113.342 14.9867C113.256 14.6402 113.213 14.2937 113.127 13.9039C113.041 13.514 112.997 13.2541 112.954 13.1675L112.609 12.3012V15.2033H115.628V9.87562H112.609V11.3916V11.4349ZM108.426 26.2052C108.426 26.2052 108.771 25.6854 108.986 25.3822C109.159 25.079 109.375 24.5592 109.59 23.9095C109.806 23.2165 109.935 22.4368 109.978 21.4839C110.065 20.5743 110.065 19.6647 110.065 18.7984V17.5856H108.641V15.1167H110.022V9.87562L109.935 7.49332H112.264C112.394 6.93023 112.437 6.58371 112.48 6.49709L112.739 4.72119C113.601 4.98108 114.593 5.15434 115.671 5.32759C115.413 6.10726 115.154 6.8436 114.981 7.57995H118.13L118.044 9.96225V26.595C118.044 26.595 117.957 26.9848 117.785 27.2447C117.612 27.5479 116.491 27.8078 114.421 28.0244C114.421 27.6779 114.334 27.3314 114.291 27.0715C114.248 26.7683 114.119 26.4651 113.989 26.1619L113.515 25.1656C113.903 25.1656 114.248 25.209 114.507 25.1656C115.024 25.1656 115.326 25.079 115.456 24.9491C115.542 24.8191 115.628 24.6025 115.628 24.3427V17.5856H112.609V18.7118C113.342 18.5385 113.946 18.3219 114.464 18.0621C114.679 18.7118 114.852 19.2316 114.981 19.6214C115.111 20.0545 115.283 20.8775 115.542 22.0903C114.895 22.2636 114.464 22.3935 114.334 22.4801L113.515 22.9566C113.299 21.6138 113.127 20.7476 112.997 20.401L112.609 19.2316V20.4877C112.609 21.0074 112.566 21.6572 112.48 22.4801C112.394 23.3031 112.221 24.1694 111.962 25.079C111.704 25.9886 111.315 26.9415 110.712 27.9811C110.453 27.6779 110.194 27.4613 109.935 27.2014C109.72 26.9848 109.202 26.6383 108.426 26.1186" fill="black"/>
<path d="M139.004 13.4275L139.09 11.5649V9.70242L139.004 8.05647H148.924C148.622 7.32012 148.406 6.75703 148.191 6.45383L147.673 5.63086C148.881 5.28434 149.571 5.02445 149.786 4.93782L150.477 4.59131C150.735 5.06777 150.994 5.58754 151.253 6.064C151.512 6.54046 151.684 6.80035 151.684 6.84366L152.072 7.62332C151.77 7.75327 151.468 7.88321 151.167 8.05647H158.8L160.871 7.96984L160.784 9.65911V11.8248L160.871 13.4275H157.938V10.6553H141.98V13.4275H138.961H139.004ZM148.622 20.0979H142.325V17.5423C141.937 17.7589 141.549 18.0188 141.118 18.2787C140.945 17.9322 140.816 17.629 140.643 17.4124C140.514 17.1525 140.039 16.6327 139.22 15.7665C140.082 15.5066 140.859 15.2034 141.463 14.9002C142.066 14.597 142.713 14.2071 143.403 13.774C144.093 13.2975 144.654 12.8644 145.129 12.4745C145.603 12.0847 146.077 11.5649 146.638 10.9585C146.983 11.3484 147.242 11.6083 147.457 11.8681C147.716 12.0847 148.234 12.4745 149.053 13.0376C147.285 14.3804 146.12 15.2467 145.517 15.6365C144.913 16.0263 143.921 16.6761 142.541 17.499H155.566L157.377 17.5423C156.989 17.2825 156.73 17.1092 156.558 16.9793L153.841 15.1167L151.684 13.774L150.822 13.2542C151.123 13.0376 151.382 12.7777 151.641 12.5179C151.9 12.258 152.245 11.8248 152.676 11.1318C152.676 11.1318 155.221 12.7344 160.267 15.9397C160.051 16.2429 159.879 16.5028 159.706 16.7627C159.534 17.0226 159.232 17.629 158.714 18.6252C158.369 18.322 158.024 17.9755 157.636 17.6723V20.1845H151.468V24.516H158.757L161 24.4293V27.2448L158.757 27.1582H141.463L138.918 27.2448V24.4293L141.463 24.516H148.579V20.1412H148.622V20.0979Z" fill="black"/>
<path d="M50.9351 42.5348H52.574C53.3503 42.5348 53.9541 42.2749 54.3423 41.7118C54.7304 41.1487 54.9461 40.3691 54.9461 39.2862C54.9461 38.29 54.7736 37.5969 54.3854 37.0772C53.9972 36.6007 53.4797 36.3408 52.7034 36.3408H50.892V42.4915L50.9351 42.5348ZM48.9512 34.7815H52.9622C54.256 34.7815 55.2049 35.1713 55.8949 35.9077C56.5418 36.6873 56.8869 37.7702 56.8869 39.2429C56.8869 40.8455 56.5418 42.0583 55.8518 42.9246C55.1617 43.7476 54.1266 44.1807 52.7896 44.1807H48.9512V34.7815Z" fill="black"/>
<path d="M60.8117 40.629H63.3131L62.0624 36.8606L60.8117 40.629ZM60.941 34.7815H63.1837L66.5047 44.1807H64.4345L63.7875 42.2749H60.251L59.6472 44.1807H57.6201L60.941 34.7815Z" fill="black"/>
<path d="M67.7559 44.1807V34.7815H68.7478H69.6967V42.4915H74.3546V43.3145V44.1807H67.7559Z" fill="black"/>
<path d="M76.5104 34.7815H75.5615V44.1807H76.5104H77.5023V34.7815H76.5104Z" fill="black"/>
<path d="M81.7726 40.629H84.2309L82.9802 36.8606L81.7295 40.629H81.7726ZM81.902 34.7815H84.1447L87.4656 44.1807H85.3954L84.7485 42.2749H81.2119L80.6081 44.1807H78.5811L81.902 34.7815Z" fill="black"/>
<path d="M90.4413 44.1807H89.5356H88.6299V34.7815H89.665H90.6569L94.4091 41.3653V34.7815H95.3149H96.2206V44.1807H95.2717H94.2798L90.4413 37.3804V44.1807Z" fill="black"/>
<path d="M104.156 40.629H106.658L105.407 36.8606L104.156 40.629ZM104.286 34.7815H106.528L109.849 44.1807H107.779L107.175 42.2749H103.639L103.035 44.1807H101.008L104.329 34.7815H104.286Z" fill="black"/>
<path d="M111.92 34.7815H110.971V44.1807H111.963H112.912V34.7815H111.92Z" fill="black"/>
<path d="M116.707 38.8964H118.949C119.467 38.8964 119.812 38.8097 120.071 38.5932C120.33 38.3766 120.459 38.0734 120.459 37.6403C120.459 37.2071 120.33 36.9039 120.114 36.6873C119.855 36.4708 119.51 36.3841 119.036 36.3841H116.707V38.8531V38.8964ZM114.723 34.7815H119.424C120.33 34.7815 121.02 35.0414 121.58 35.5178C122.141 35.9943 122.4 36.644 122.4 37.4237C122.4 38.3333 122.098 38.983 121.494 39.4161C121.322 39.5461 121.149 39.6327 120.933 39.7193C121.063 39.7627 121.149 39.806 121.235 39.8926C121.753 40.1958 122.055 40.7589 122.055 41.4952V43.0113C122.098 43.3145 122.141 43.531 122.184 43.661C122.227 43.7909 122.357 43.8775 122.486 43.9642V44.2241H120.33C120.33 44.2241 120.243 43.9209 120.2 43.5743C120.2 43.2711 120.157 42.9246 120.157 42.5348V41.6685C120.157 41.2354 120.028 40.9322 119.769 40.7589C119.51 40.5856 119.122 40.499 118.561 40.499H116.62V44.2241H114.68V34.8248L114.723 34.7815Z" fill="black"/>
<path d="M124.125 44.1807V34.7815H125.117H126.066V42.4915H130.724V43.3145V44.1807H124.125Z" fill="black"/>
<path d="M132.88 34.7815H131.932V44.1807H132.88H133.872V34.7815H132.88Z" fill="black"/>
<path d="M137.408 44.1807H136.502H135.597V34.7815H136.632H137.624L141.419 41.3653V34.7815H142.325H143.23V44.1807H142.239H141.29L137.408 37.3804V44.1807Z" fill="black"/>
<path d="M145.086 44.1807V34.7815H151.943V35.6045V36.4274H147.07V38.4199H151.598V39.2429V40.0659H147.07V42.4915H152.202V43.3145V44.1807H145.086Z" fill="black"/>
<path d="M158.844 37.5971C158.844 37.164 158.628 36.8174 158.24 36.5576C157.895 36.2977 157.421 36.1677 156.86 36.1677C156.342 36.1677 155.954 36.2977 155.695 36.5142C155.394 36.7308 155.264 37.034 155.264 37.4238C155.264 37.727 155.394 37.9436 155.695 38.0736C155.997 38.2468 156.601 38.4201 157.55 38.6366C158.93 38.9398 159.836 39.2864 160.267 39.6762C160.742 40.066 160.957 40.7157 160.957 41.582C160.957 42.4483 160.612 43.1414 159.922 43.6611C159.232 44.1809 158.283 44.4408 157.119 44.4408C155.954 44.4408 155.005 44.1809 154.358 43.6178C153.712 43.0547 153.323 42.2751 153.28 41.2788H155.178C155.178 41.7986 155.394 42.1451 155.695 42.4483C156.041 42.7082 156.515 42.8382 157.119 42.8382C157.723 42.8382 158.24 42.7515 158.585 42.535C158.93 42.3184 159.103 42.0585 159.103 41.712C159.103 41.3655 158.973 41.1056 158.715 40.9323C158.456 40.7591 157.938 40.5858 157.162 40.4125C155.695 40.066 154.704 39.7195 154.186 39.3297C153.712 38.9398 153.453 38.3334 153.453 37.5538C153.453 36.6442 153.755 35.9078 154.445 35.3881C155.092 34.8683 155.997 34.6084 157.119 34.6084C158.154 34.6084 159.016 34.8683 159.663 35.4314C160.31 35.9945 160.698 36.7308 160.742 37.6837H158.844V37.5971Z" fill="black"/>
<path d="M0.0431288 16.7627H5.39111C5.39111 15.8098 6.21055 13.9473 8.28074 13.9473C9.10019 13.9473 9.22957 14.1205 10.2647 13.9473C11.6448 13.4708 12.2486 12.6911 12.5505 12.0414C12.5505 12.0414 13.068 14.2938 10.9116 15.5066C9.70399 16.1563 7.84945 15.6365 7.84945 15.6365C7.84945 15.6365 6.33994 15.42 6.1243 16.7627C6.98687 16.7627 8.32387 17.629 8.32387 19.1017V31.6196C8.32387 32.5292 9.05706 33.4388 10.1353 33.4388C11.1272 33.4388 11.9467 32.6591 11.9467 31.6196V22.8701C11.9467 9.91902 21.9526 4.54802 27.775 4.11488C32.6054 3.76836 35.8832 4.20151 41.7919 0C41.7919 0 39.9373 7.27684 31.5703 9.00942C30.0177 9.31262 25.4029 8.79284 21.09 13.3409C17.6397 16.936 17.2947 20.2712 17.2947 24.646V32.3559C17.2947 35.7345 14.5776 39.1563 10.4372 39.1563C6.29681 39.1563 3.62282 35.951 3.62282 32.3559V19.2316C3.62282 18.1488 2.8465 17.1959 1.6389 17.1959H0V16.806H0.0431288V16.7627Z" fill="#E60012"/>
<path d="M4.7443 38.2901C4.7443 38.2901 9.14344 42.7515 14.9227 39.373C18.7612 37.1206 18.8906 32.486 18.8906 32.486V22.0905C18.8906 22.0905 18.718 16.8928 23.376 13.1244C26.6538 10.5255 29.6728 10.7421 31.743 10.4822C37.0909 9.83249 39.463 6.41064 39.463 6.41064C39.5061 6.97373 38.9455 13.211 32.2174 14.9869C30.8373 15.3334 23.5053 14.6404 23.5053 23.1734V33.4822C23.5053 35.6479 22.9878 39.4596 18.9768 42.1451C14.8365 44.8739 8.15148 44.4841 4.70117 38.2468" fill="#E60012"/>
<path d="M10.9111 44.7438C17.4667 46.6063 24.9711 41.9717 24.9711 34.305V25.2956C24.9711 22.6534 27.1707 19.1882 31.0954 19.1882C35.2358 19.1882 37.2197 22.9133 37.2197 25.2956C37.2197 26.8116 36.6159 29.8436 33.7694 29.8436C31.4836 29.8436 30.0603 27.5046 30.7504 25.6421C30.5779 26.2918 30.9229 26.8982 31.613 26.8982C32.303 26.8982 32.6481 26.2918 32.5187 25.5121C32.5187 25.3389 32.303 23.9095 30.7073 23.9095C29.3703 23.9095 28.939 25.1223 28.939 25.7287V33.7852C28.939 42.3615 19.6232 48.7287 10.9111 44.7871" fill="#E60012"/>
</g>
<defs>
<clipPath id="clip0_583_3320">
<rect width="161" height="46" fill="white"/>
</clipPath>
</defs>
</svg>
