<svg width="168" height="46" viewBox="0 0 168 46" fill="none" xmlns="http://www.w3.org/2000/svg">
<g clip-path="url(#clip0_583_3441)">
<path d="M59.7236 37.5692C59.3066 37.2803 58.83 37.0809 58.2839 36.9614C57.7477 36.8418 56.864 36.782 55.5832 36.782H53.3789V45.123H55.9605C57.0229 45.123 57.7973 45.0632 58.3137 44.9436C58.8399 44.824 59.3066 44.6147 59.7236 44.3357C60.2598 43.957 60.6867 43.4787 60.9647 42.9107C61.2427 42.3426 61.3817 41.6849 61.3817 40.9575C61.3817 40.23 61.2427 39.5723 60.9647 39.0043C60.6867 38.4263 60.2697 37.938 59.7236 37.5692ZM56.2881 43.4687H55.3747V38.4263H56.1193C56.8243 38.4263 57.3505 38.4661 57.6683 38.5359C57.9661 38.6056 58.2342 38.7252 58.4427 38.8747C58.7406 39.1039 58.959 39.3829 59.108 39.7218C59.2569 40.0705 59.3364 40.4791 59.3364 40.9475C59.3364 41.4159 59.2569 41.8244 59.108 42.1732C58.959 42.5121 58.7406 42.7911 58.4427 43.0203C58.2342 43.1797 57.986 43.2993 57.6981 43.3691C57.3903 43.4388 56.9236 43.4787 56.2881 43.4787" fill="#106986"/>
<path d="M70.328 37.6989C69.9011 37.2803 69.4046 36.9515 68.8684 36.7223C67.7862 36.2738 66.4954 36.2838 65.4131 36.7223C64.867 36.9415 64.3805 37.2703 63.9436 37.6989C63.5167 38.1274 63.189 38.6157 62.9606 39.1638C62.7422 39.7019 62.623 40.2898 62.623 40.8977C62.623 41.5056 62.7323 42.0936 62.9606 42.6317C63.1791 43.1698 63.5167 43.6581 63.9436 44.0866C64.3606 44.5052 64.8571 44.834 65.4032 45.0632C65.9493 45.2924 66.5351 45.4021 67.1408 45.4021C67.7465 45.4021 68.3124 45.2924 68.8585 45.0632C69.4046 44.834 69.8911 44.5052 70.328 44.0866C70.755 43.6681 71.0926 43.1698 71.311 42.6317C71.5294 42.0936 71.6486 41.5056 71.6486 40.8977C71.6486 40.2898 71.5294 39.7119 71.311 39.1737C71.0826 38.6256 70.755 38.1373 70.328 37.6989ZM69.7918 40.8977C69.7918 41.2664 69.7223 41.6252 69.5933 41.9541C69.4542 42.2829 69.2656 42.5918 69.0174 42.8509C68.7592 43.11 68.4713 43.3193 68.1535 43.4489C67.5181 43.7279 66.7535 43.7179 66.128 43.4489C65.8103 43.3093 65.5223 43.11 65.2741 42.8509C65.0259 42.5918 64.8273 42.2929 64.6982 41.9541C64.5692 41.6252 64.4996 41.2664 64.4996 40.8878C64.4996 40.5091 64.5692 40.1503 64.6982 39.8115C64.8273 39.4727 65.0259 39.1737 65.2741 38.9146C65.5223 38.6555 65.8103 38.4562 66.1379 38.3167C66.4557 38.1772 66.8032 38.1074 67.1606 38.1074C67.5181 38.1074 67.8557 38.1772 68.1833 38.3167C68.5011 38.4562 68.789 38.6555 69.0372 38.9146C69.2855 39.1737 69.484 39.4827 69.6131 39.8115C69.7422 40.1503 69.8117 40.5091 69.8117 40.8778" fill="#106986"/>
<path d="M90.3648 40.5189H86.7903V42.1134H88.5478V43.2993C88.5478 43.2993 87.7435 43.7178 86.8201 43.6082C86.0357 43.5085 84.4669 42.8708 84.4669 40.9774C84.4669 39.6021 85.5989 38.4661 86.8896 38.3266C87.257 38.2867 88.1308 38.2867 89.1237 38.8149L90.1067 37.3001C90.1067 37.3001 88.5081 36.3136 86.84 36.4431C86.0953 36.5029 85.6783 36.6026 85.1421 36.8118C84.596 37.0211 84.1095 37.33 83.7123 37.7287C83.2953 38.1372 82.9676 38.6156 82.7591 39.1437C82.5506 39.6719 82.4414 40.2598 82.4414 40.8877C82.4414 41.5155 82.5506 42.0835 82.7591 42.6316C82.9676 43.1697 83.2754 43.658 83.6726 44.0566C84.0797 44.4652 84.5464 44.7741 85.0925 44.9735C85.6187 45.1728 86.5223 45.4817 87.6145 45.382C89.4513 45.2326 90.3847 44.4652 90.3847 44.4652V40.5189H90.3648Z" fill="#106986"/>
<path d="M97.9109 40.0606H94.3165V36.6724H92.4102V45.2824H94.3165V41.7647H97.9109V45.2824H99.8272V36.6724H97.9109V40.0606Z" fill="#106986"/>
<path d="M101.307 45.1429H103.183L103.918 43.5983H107.006L107.701 45.1429H109.578L105.447 36.4631L101.307 45.1429ZM105.407 40.2998C105.407 40.2998 105.447 40.2101 105.457 40.1603C105.477 40.2101 105.497 40.2599 105.517 40.3098L106.38 42.1932H104.544L105.407 40.3098V40.2998Z" fill="#106986"/>
<path d="M113.321 36.6824H111.325V45.1529H113.321V36.6824Z" fill="#106986"/>
<path d="M163.055 43.678C163.313 43.9072 163.532 43.9869 163.959 44.1364C164.396 44.2859 164.813 44.3457 165.2 44.3556C166.233 44.3855 166.987 43.9271 166.987 43.0801C166.987 41.8244 165.657 41.4458 165.041 41.1468C164.187 40.7183 163.631 40.23 163.373 39.8613C162.718 38.9544 163.174 37.649 163.78 37.1308C164.316 36.6724 164.753 36.473 165.617 36.4232C166.808 36.3634 167.92 37.0311 167.92 37.0311L167.454 37.8184C167.454 37.8184 166.411 37.3799 165.746 37.3301C164.415 37.2304 164.068 38.3266 164.078 38.7152C164.098 39.4527 165.14 40.0705 165.895 40.4393C166.729 40.8379 167.801 41.5055 167.95 42.3626C168.377 44.7742 166.233 45.2724 165.289 45.2724C164.257 45.2724 162.807 44.5948 162.608 44.4553L163.055 43.678Z" fill="#106986"/>
<path d="M120.976 36.3337L124.978 45.2826H124.054L122.972 42.8909H118.742L117.68 45.2826H116.727L120.778 36.3337H120.996H120.976ZM120.877 38.2371L119.139 42.014H122.595L120.877 38.2371Z" fill="#106986"/>
<path d="M127.211 36.5928H126.348V45.1032H127.211V36.5928Z" fill="#106986"/>
<path d="M144.786 36.5928H143.922V45.1032H144.786V36.5928Z" fill="#106986"/>
<path d="M129.634 36.5928H131.342C132.295 36.5928 132.682 36.5928 133.03 36.6725C133.377 36.7522 134.47 37.0013 134.916 38.1474C135.204 38.8848 135.065 40.1006 134.668 40.6586C134.43 41.0074 133.874 41.5754 133.139 41.695L135.641 45.1032H134.579L132.206 41.7249H130.478V45.1929H129.614V36.5928H129.634ZM130.498 37.4299V41.0572L132.484 41.0971C132.921 41.0572 133.328 40.8978 133.655 40.3696C133.874 40.0109 134.023 39.5525 133.983 39.0343C133.953 38.6955 133.775 38.2171 133.506 37.9481C133.219 37.6591 132.722 37.4299 132.007 37.4299H130.488H130.498Z" fill="#106986"/>
<path d="M137.051 36.6824H137.925V44.4553H142.273V45.2825H137.051V36.6824Z" fill="#106986"/>
<path d="M147.1 45.1929V36.5928H147.298L152.988 43.1799V36.5928H153.832V45.1929H153.643L147.983 38.6955V45.1929H147.1Z" fill="#106986"/>
<path d="M156.194 36.6824H161.367V37.5294H157.058V40.4792H161.04V41.3163H157.058V44.4254H161.338V45.2825H156.194V36.6824Z" fill="#106986"/>
<path d="M78.8271 43.977L80.7236 45.412V36.6824H78.8271V43.977Z" fill="#106986"/>
<path d="M73.3457 36.4333L78.8762 41.2765L79.2634 41.5157V44.1565L78.8266 43.9771L75.3613 40.9775C75.3613 40.9775 73.8521 39.6322 73.3457 36.4333Z" fill="#106986"/>
<path d="M73.3457 39.1738C73.3457 39.1738 74.0606 39.9511 74.3485 40.2003C74.5769 40.3996 75.3514 40.9776 75.3514 40.9776V45.2029H73.3556V39.1738H73.3457Z" fill="#106986"/>
<path fill-rule="evenodd" clip-rule="evenodd" d="M97.5139 17.4095C97.5636 17.3996 97.6132 17.3996 97.6529 17.3796C97.7324 17.3498 97.8118 17.3099 97.8813 17.27C98.1891 17.0508 98.5267 16.9212 98.8742 16.7917C99.0132 16.7419 99.1423 16.6621 99.2813 16.6223C99.5295 16.5426 99.7678 16.4529 100.026 16.413C100.234 16.3831 100.433 16.4529 100.562 16.6522C100.711 16.8714 100.82 17.1106 100.84 17.3796C100.84 17.4594 100.84 17.559 100.939 17.5989C101.039 17.6288 101.088 17.5491 101.148 17.4893C101.217 17.4095 101.277 17.3298 101.366 17.27C101.525 17.1604 101.684 17.0309 101.863 16.9711C102.191 16.8615 102.449 16.6721 102.647 16.403C102.766 16.2536 102.905 16.1041 102.995 15.9347C103.144 15.6556 103.283 15.3766 103.452 15.1076C103.481 15.0677 103.491 15.0179 103.501 14.9581C103.551 14.7189 103.64 14.4897 103.759 14.2705C103.888 14.0413 103.888 13.7722 103.918 13.5131C103.918 13.4334 103.878 13.3337 103.839 13.254C103.739 13.0547 103.69 12.8554 103.839 12.6461C103.859 12.6162 103.869 12.5564 103.878 12.5166C103.908 12.1478 104.166 11.9186 104.415 11.6894C104.484 11.6296 104.564 11.6296 104.653 11.6595C104.732 11.6894 104.812 11.7094 104.891 11.7393C105.219 11.829 105.378 12.0681 105.477 12.377C105.517 12.5166 105.566 12.666 105.656 12.7757C105.934 13.1244 105.934 13.533 105.884 13.9416C105.874 14.0413 105.844 14.1509 105.815 14.2406C105.725 14.5196 105.596 14.7588 105.338 14.9182C105.159 15.0278 105.03 15.1972 104.961 15.4364C105.02 15.4364 105.07 15.4663 105.11 15.4563C105.239 15.4264 105.368 15.3866 105.497 15.3368C105.715 15.257 105.924 15.1574 106.142 15.0777C106.242 15.0378 106.361 15.0478 106.46 15.0079C106.669 14.9481 106.877 14.8783 107.086 14.7986C107.234 14.7388 107.354 14.7189 107.473 14.8584C107.513 14.9082 107.582 14.9381 107.642 14.9481C107.939 14.9979 108.108 15.1873 108.227 15.4364C108.287 15.556 108.347 15.6656 108.446 15.7453C108.545 15.8251 108.525 15.9147 108.416 15.9745C108.376 15.9945 108.337 16.0144 108.297 16.0343C107.83 16.2237 107.364 16.423 106.897 16.6024C106.629 16.702 106.361 16.7817 106.083 16.8714C105.934 16.9212 105.775 16.9711 105.636 17.0408C105.447 17.1405 105.338 17.3298 105.249 17.5192C105.11 17.7982 104.991 18.0872 104.871 18.3662C104.871 18.3861 104.861 18.4061 104.852 18.426C104.822 18.4958 104.782 18.5755 104.852 18.6452C104.921 18.725 105.01 18.6751 105.09 18.6452C105.348 18.5556 105.586 18.426 105.805 18.2566C105.924 18.1669 106.053 18.0772 106.172 17.9776C106.46 17.7284 106.996 17.9676 107.046 18.3164C107.076 18.5157 107.086 18.715 107.056 18.9143C107.026 19.0837 107.026 19.2631 106.996 19.4325C106.976 19.5322 106.956 19.6517 106.887 19.7115C106.559 20.0603 106.361 20.4789 106.212 20.9173C106.172 21.0369 106.122 21.1565 106.073 21.2761C105.993 21.4654 105.944 21.6448 105.944 21.8541C105.944 22.0434 105.894 22.2427 105.864 22.4321C105.815 22.7709 105.775 23.1097 105.715 23.4485C105.686 23.608 105.646 23.7674 105.596 23.9169C105.537 24.0963 105.507 24.2657 105.527 24.455C105.547 24.6444 105.527 24.8437 105.547 25.033C105.576 25.4416 105.834 25.7007 106.162 25.9C106.589 26.1691 107.046 26.199 107.522 26.1392C108.039 26.0694 108.565 26.0196 109.081 25.9598C109.32 25.9299 109.558 25.89 109.766 25.7705C109.866 25.7206 109.955 25.6309 110.025 25.5413C110.253 25.2523 110.352 24.8935 110.461 24.5447C110.481 24.4949 110.481 24.4351 110.511 24.3952C110.7 24.1262 110.73 23.8173 110.789 23.5083C110.908 22.8207 111.017 22.1431 111.127 21.4555C111.156 21.2861 111.206 21.1266 111.315 20.9971C111.405 20.8775 111.474 20.7479 111.564 20.6184C111.633 20.5187 111.722 20.449 111.852 20.4191C111.861 20.4689 111.891 20.5088 111.891 20.5486C111.891 20.6383 111.891 20.728 111.881 20.8177C111.871 20.9572 111.852 21.0868 111.911 21.2163C111.931 21.2562 111.931 21.316 111.931 21.3658C111.951 21.5352 112 21.6946 112.12 21.8043C112.259 21.9238 112.269 22.0733 112.229 22.2328C112.179 22.452 112.149 22.6613 112.159 22.8905C112.159 23.0101 112.189 23.1197 112.199 23.2393C112.239 23.7076 112.278 24.166 112.318 24.6344C112.328 24.7939 112.318 24.9433 112.328 25.1028C112.348 25.2921 112.388 25.4815 112.527 25.621C112.616 25.7107 112.606 25.7904 112.547 25.8801C112.457 26.0196 112.348 26.1491 112.259 26.2986C112.1 26.5577 111.951 26.8268 111.802 27.0859C111.633 27.3948 111.385 27.6439 111.147 27.8931C111.047 27.9927 110.928 28.0426 110.779 28.0525C110.501 28.0725 110.223 28.1123 109.945 28.1223C109.737 28.1223 109.538 28.0924 109.33 28.0824C108.982 28.0625 108.644 28.1223 108.317 28.2219C108.019 28.3116 107.731 28.3415 107.423 28.2718C107.165 28.212 106.897 28.192 106.649 28.1123C106.162 27.9728 105.725 27.7436 105.338 27.4147C105.06 27.1756 104.861 26.8866 104.742 26.5378C104.603 26.1591 104.514 25.7705 104.524 25.3619C104.524 24.8537 104.514 24.3454 104.544 23.8472C104.603 23.0898 104.673 22.3324 104.901 21.605C105.02 21.2263 105.139 20.8476 105.249 20.4689C105.338 20.16 105.417 19.861 105.497 19.5521C105.537 19.4026 105.487 19.3428 105.338 19.4026C105.169 19.4724 105 19.5621 104.842 19.6617C104.663 19.7713 104.484 19.8909 104.295 20.0005C104.127 20.1002 104.008 20.2297 103.938 20.4191C103.849 20.6682 103.73 20.9074 103.64 21.1565C103.561 21.3658 103.511 21.595 103.452 21.8043C103.243 22.5218 103.034 23.2293 102.846 23.9568C102.756 24.2856 102.727 24.6344 102.667 24.9732C102.598 25.3519 102.508 25.7306 102.429 26.1093C102.399 26.2289 102.359 26.3485 102.32 26.4581C102.28 26.5777 102.2 26.6574 102.081 26.6873C101.793 26.767 101.515 26.8567 101.227 26.9464C101.208 26.9464 101.178 26.9464 101.148 26.9464C101.148 26.9165 101.148 26.8866 101.148 26.8666C101.297 26.2089 101.446 25.5512 101.644 24.9035C101.793 24.4451 101.873 23.9568 102.002 23.4884C102.191 22.8207 102.389 22.153 102.588 21.4854C102.627 21.3658 102.667 21.2362 102.697 21.1067C102.697 21.0569 102.697 20.9672 102.677 20.9472C102.627 20.9173 102.548 20.9173 102.498 20.9472C102.359 21.027 102.24 21.1167 102.111 21.2063C101.962 21.306 101.833 21.4156 101.674 21.4953C101.555 21.5551 101.426 21.585 101.297 21.6249C101.178 21.6647 101.049 21.6946 100.93 21.7345C100.781 21.7843 100.711 21.9139 100.701 22.0634C100.681 22.3424 100.671 22.6214 100.661 22.9004C100.652 23.1595 100.642 23.4186 100.642 23.6777C100.642 24.1162 100.671 24.5447 100.731 24.9732C100.83 25.7804 100.791 26.5777 100.443 27.335C100.344 27.5443 100.244 27.7436 100.056 27.8831C99.9962 27.9329 99.9565 28.0027 99.8969 28.0525C99.7778 28.1621 99.6487 28.2518 99.5196 28.3615C99.4005 28.4611 99.2813 28.5508 99.1721 28.6604C99.043 28.79 98.9338 28.8099 98.8146 28.6604C98.7253 28.5508 98.6359 28.4212 98.5863 28.2817C98.3877 27.6838 98.2785 27.0759 98.2388 26.4481C98.2189 26.1093 98.1792 25.7605 98.1494 25.4217C98.1295 25.2124 98.1196 25.0031 98.1097 24.8038C98.1097 24.7241 98.1097 24.6444 98.0104 24.5846C97.9409 24.6444 97.8714 24.7042 97.8118 24.7739C97.7622 24.8337 97.7125 24.8935 97.6728 24.9633C97.5934 25.0829 97.504 25.1426 97.3551 25.1327C97.2061 25.1227 97.1465 25.1825 97.1168 25.322C97.1068 25.3719 97.0969 25.4217 97.0969 25.4815C97.0969 25.8701 97.1168 26.2588 97.1267 26.6474C97.1267 26.6873 97.1267 26.7271 97.1267 26.767C97.1267 27.1656 97.1267 27.1656 96.7494 27.3051C96.67 27.335 96.5905 27.3848 96.5111 27.4247C96.3919 27.4745 96.3324 27.4646 96.2728 27.355C96.2331 27.2852 96.2033 27.2055 96.1834 27.1257C96.0841 26.6574 96.0941 26.189 96.1239 25.7107C96.1437 25.3519 96.1636 24.9932 96.1934 24.6444C96.1934 24.6145 96.1934 24.5946 96.1934 24.5647C96.1834 24.4251 96.1239 24.3853 96.0047 24.455C95.7565 24.6045 95.5082 24.754 95.27 24.9234C95.0714 25.0629 94.9026 25.2622 94.6941 25.3818C94.4756 25.5114 94.2274 25.611 93.9891 25.7007C93.8501 25.7505 93.7508 25.6808 93.6912 25.5213C93.582 25.1725 93.6019 24.8337 93.7806 24.5248C94.0387 24.0664 94.3068 23.618 94.5948 23.1795C94.7437 22.9602 94.9423 22.7709 95.121 22.5816C95.1905 22.5118 95.2898 22.462 95.3792 22.4121C95.4785 22.3623 95.5778 22.3524 95.6969 22.4121C95.677 22.4819 95.6373 22.5417 95.6274 22.6115C95.6274 22.6613 95.6274 22.731 95.6572 22.7709C95.6969 22.8307 95.7664 22.7908 95.8161 22.7709C96.1934 22.5816 96.4515 22.3025 96.5607 21.874C96.7097 21.306 96.8586 20.728 97.0373 20.1699C97.1863 19.7115 97.3749 19.2731 97.5536 18.8246C97.6231 18.6552 97.7026 18.4958 97.7721 18.3264C97.8317 18.1769 97.8019 18.127 97.6529 18.1569C97.504 18.1769 97.3948 18.1171 97.2856 18.0274C97.1267 17.9078 97.0969 17.9078 96.9678 18.0673C96.8884 18.1669 96.8189 18.2566 96.8189 18.3961C96.8189 18.436 96.7593 18.4958 96.7196 18.5257C96.5607 18.6253 96.4614 18.7449 96.4118 18.9442C96.3622 19.1236 96.243 19.283 96.1437 19.4325C96.0544 19.572 95.9451 19.6816 95.8458 19.8212C95.7763 19.9208 95.6671 19.9507 95.5579 19.9507C95.26 19.9507 94.9622 20.0005 94.6841 19.871C94.6246 19.8411 94.5451 19.8311 94.4756 19.8212C94.3664 19.8012 94.3168 19.7414 94.3068 19.6418C94.2771 19.4126 94.2671 19.1834 94.3565 18.9741C94.5848 18.416 94.8132 17.858 95.1309 17.3398C95.4983 16.7518 95.8657 16.1639 96.2132 15.566C96.5409 14.9979 96.9281 14.4698 97.2856 13.9316C97.3451 13.842 97.4246 13.7622 97.4941 13.6725C97.5934 13.533 97.6827 13.3935 97.782 13.254C97.8614 13.1444 97.921 13.0248 98.0104 12.9152C98.1792 12.6959 98.3678 12.5066 98.5267 12.2774C98.6458 12.098 98.7253 11.8987 98.8146 11.7094C98.8345 11.6595 98.8345 11.5898 98.8146 11.54C98.7749 11.4204 98.8146 11.3307 98.904 11.2709C99.0529 11.1613 99.2118 11.0517 99.3707 10.952C99.46 10.8922 99.5494 10.8822 99.6487 10.9221C99.9565 11.0417 100.215 11.2011 100.324 11.54C100.433 11.8688 100.562 12.1977 100.652 12.5365C100.761 12.9052 100.741 13.2939 100.711 13.6825C100.691 13.9615 100.632 14.2306 100.532 14.4997C100.463 14.679 100.354 14.8086 100.185 14.9082C99.6288 15.257 99.0926 15.6556 98.6856 16.1838C98.6161 16.2735 98.5267 16.3532 98.4373 16.423C98.1295 16.6522 97.8515 16.9113 97.6331 17.2302C97.6132 17.2601 97.5934 17.28 97.5834 17.3099C97.5834 17.3099 97.5834 17.3398 97.5834 17.3796M99.4799 23.4485C99.4799 23.4485 99.4799 23.4485 99.4898 23.4485C99.4898 23.1695 99.5097 22.8905 99.5196 22.6115C99.5196 22.5118 99.5494 22.3922 99.4501 22.3324C99.331 22.2627 99.2217 22.3324 99.1224 22.3922C99.1026 22.4022 99.0927 22.4121 99.0827 22.4321C98.8941 22.6314 98.7253 22.8407 98.6756 23.1197C98.6061 23.5482 98.3877 23.9069 98.1792 24.2757C98.0898 24.4251 98.06 24.5746 98.0997 24.7341C98.1295 24.8437 98.1692 24.9533 98.1891 25.0729C98.2387 25.3918 98.2983 25.7007 98.3182 26.0196C98.348 26.5179 98.5763 26.9663 98.6856 27.4446C98.6856 27.4845 98.7153 27.5144 98.7451 27.5443C98.8941 27.7237 99.1919 27.8134 99.3309 27.4845C99.4501 27.1955 99.5295 26.8965 99.5593 26.5876C99.6288 25.8701 99.599 25.1526 99.5295 24.4351C99.4997 24.1162 99.4997 23.7874 99.4898 23.4685M103.888 17.868C103.749 17.8879 103.591 17.8281 103.452 17.9178C103.313 18.0174 103.154 18.0473 103.005 18.0972C102.786 18.1769 102.558 18.2566 102.349 18.3762C102.21 18.4559 102.111 18.5855 102.002 18.705C101.903 18.8147 101.793 18.8545 101.654 18.8147C101.595 18.7947 101.525 18.7848 101.466 18.7848C101.297 18.8047 101.198 18.7349 101.118 18.5954C101.078 18.5257 101.039 18.4459 100.91 18.4459C100.91 18.5057 100.89 18.5655 100.89 18.6353C100.89 18.8545 100.9 19.0738 100.89 19.293C100.89 19.4425 100.87 19.592 100.87 19.7414C100.87 19.8909 100.939 19.9208 101.069 19.8411C101.128 19.8012 101.168 19.7215 101.287 19.7514C101.237 19.8809 101.198 20.0105 101.148 20.14C101.208 20.1899 101.257 20.2297 101.317 20.2796C101.227 20.429 101.148 20.5686 101.069 20.7081C100.979 20.8775 100.9 21.0569 100.82 21.2362C100.791 21.2861 100.791 21.3658 100.86 21.3857C100.89 21.3857 100.959 21.3558 100.979 21.316C101.059 21.1764 101.168 21.1167 101.307 21.0569C101.446 20.9971 101.575 20.9273 101.694 20.8376C102.181 20.4988 102.608 20.0803 103.025 19.6517C103.074 19.592 103.114 19.5222 103.154 19.4524C103.382 19.004 103.62 18.5556 103.849 18.1071C103.888 18.0274 103.918 17.9576 103.849 17.848M99.9168 18.2466C99.9168 18.2466 99.9068 18.2466 99.8969 18.2466C99.8969 17.9975 99.8969 17.7384 99.8969 17.4893C99.8969 17.29 99.7877 17.2302 99.6189 17.3398C99.4501 17.4494 99.2714 17.4992 99.0827 17.559C98.9239 17.6089 98.765 17.6587 98.6061 17.7185C98.477 17.7683 98.3678 17.868 98.338 18.0075C98.2586 18.2965 98.1891 18.5855 98.1395 18.8745C98.07 19.2731 98.0203 19.6717 97.8714 20.0504C97.7026 20.4888 97.6132 20.9472 97.5437 21.4056C97.5338 21.4854 97.5139 21.5751 97.5934 21.6149C97.6827 21.6647 97.7522 21.6149 97.8217 21.5551C97.8614 21.5252 97.9012 21.4854 97.9309 21.4455C98.0104 21.296 98.1196 21.1565 98.1593 20.9971C98.2586 20.5785 98.3281 20.16 98.4175 19.7414C98.4473 19.582 98.4671 19.4225 98.5068 19.2631C98.5366 19.1335 98.626 19.0638 98.7551 19.0538C98.9636 19.0538 99.1324 19.2332 99.1224 19.4425C99.1026 19.8909 99.1026 20.3394 99.0927 20.7878C99.0927 20.8077 99.0927 20.8277 99.0927 20.8476C99.1026 20.9472 99.1522 20.9871 99.2515 20.9672C99.3707 20.9373 99.4799 20.8775 99.5196 20.7679C99.599 20.5686 99.7083 20.3792 99.738 20.1699C99.8274 19.5322 99.887 18.8944 99.9565 18.2566M97.4841 23.2692C97.3253 23.319 97.2856 23.3688 97.226 23.5083C97.1168 23.7973 97.077 24.2458 97.1565 24.4152C97.1962 24.3853 97.2558 24.3654 97.2657 24.3255C97.3848 23.9966 97.4941 23.6578 97.4742 23.2692" fill="#106986"/>
<path fill-rule="evenodd" clip-rule="evenodd" d="M67.8454 26.4182C67.6667 26.5776 67.5376 26.7669 67.2894 26.8467C66.9022 26.9762 66.5149 27.1058 66.1178 27.1755C65.9589 27.2054 65.8 27.2552 65.6511 27.2951C65.2341 27.4247 64.827 27.4546 64.4199 27.2951C64.3405 27.2652 64.2412 27.2652 64.1518 27.2453C64.1022 27.2453 64.0426 27.2453 64.0029 27.2254C63.8837 27.1855 63.8539 27.1058 63.9135 26.9962C63.9532 26.9264 64.0128 26.8566 64.0624 26.7968C64.1915 26.6175 64.1717 26.5477 63.9632 26.468C63.7249 26.3783 63.4766 26.2986 63.2284 26.2388C63.0596 26.189 62.8908 26.169 62.7121 26.1391C62.4142 26.0993 62.1263 26.0594 61.8284 26.0395C61.4015 25.9996 60.9844 26.1092 60.5575 26.169C60.5476 26.169 60.5376 26.169 60.5178 26.169C60.1702 26.2089 60.1603 26.2487 60.1305 26.6175C60.0908 27.1058 60.1305 27.5841 60.2 28.0724C60.2298 28.2817 60.2298 28.5009 60.2497 28.7102C60.2596 28.8397 60.2795 28.9693 60.3093 29.0988C60.3887 29.4476 60.2795 29.7466 60.0908 30.0356C59.9419 30.2548 59.783 30.4741 59.6539 30.7033C59.5348 30.9026 59.3759 31.0421 59.1575 31.1019C58.939 31.1617 58.7107 31.2314 58.4724 31.1816C58.3731 31.1617 58.2937 31.1218 58.2341 31.0321C58.2142 31.0022 58.1944 30.9624 58.1745 30.9325C57.8965 30.4641 57.6185 29.9957 57.3504 29.5273C57.1617 29.2085 57.0426 28.8696 56.9632 28.5109C56.9433 28.4312 56.9532 28.3415 56.9433 28.2418C56.9929 28.2617 57.0227 28.2817 57.0525 28.3016C57.1518 28.2119 57.0724 28.1023 57.1319 27.9827C57.1518 28.0525 57.1717 28.1023 57.1816 28.1521C57.271 28.471 57.4596 28.75 57.6383 29.0291C57.7475 29.1985 57.8468 29.3878 57.9759 29.5473C58.0951 29.6868 58.2341 29.8163 58.383 29.926C58.5518 30.0455 58.661 30.0156 58.7702 29.8363C58.8695 29.6768 58.9291 29.5074 58.9192 29.3181C58.9093 28.9494 58.8894 28.5806 58.8596 28.2119C58.8298 27.8133 58.7504 27.4247 58.7603 27.036C58.7603 26.8467 58.7405 26.6573 58.7206 26.478C58.6908 26.2587 58.5915 26.179 58.3731 26.2388C58.2043 26.2786 58.0454 26.3484 57.8766 26.4182C57.6383 26.5278 57.4199 26.6773 57.2213 26.8666C57.0724 27.0061 56.9135 27.1157 56.7546 27.2552C56.6554 27.3449 56.566 27.4446 56.4667 27.5442C56.427 27.5841 56.4071 27.624 56.3674 27.6638C55.871 28.0425 55.4837 28.5408 54.9972 28.9195C54.878 29.0191 54.739 29.0988 54.61 29.1786C54.5007 29.2384 54.3915 29.2483 54.2724 29.2085C53.9348 29.0789 53.6071 29.0988 53.2695 29.2085C53.2596 29.2085 53.2497 29.2085 53.21 29.1985C53.21 29.1487 53.21 29.0988 53.2298 29.059C53.3192 28.7799 53.478 28.5308 53.6866 28.3215C53.8156 28.192 53.9646 28.0624 54.0936 27.9429C54.1731 27.8731 54.2525 27.8033 54.322 27.7336C54.749 27.2353 55.2454 26.8068 55.7121 26.3484C56.1589 25.9199 56.6355 25.5213 57.1319 25.1426C57.5589 24.8237 57.966 24.4849 58.3731 24.1461C58.4624 24.0763 58.522 23.9567 58.5816 23.8471C58.6015 23.8172 58.5816 23.7375 58.5617 23.7076C58.5319 23.6777 58.4624 23.6877 58.4227 23.7076C58.3731 23.7275 58.3334 23.7773 58.2837 23.8172C58.1546 23.9368 58.0156 23.9866 57.8468 23.9667C57.4695 23.9169 57.1319 24.0364 56.8142 24.2358C56.7348 24.2856 56.6554 24.3454 56.566 24.3952C56.4171 24.4749 56.3376 24.465 56.2681 24.3155C56.1589 24.0863 56.0596 23.8571 55.9702 23.6179C55.8312 23.2492 55.8015 22.8506 55.7518 22.452C55.7022 22.0932 55.6724 21.7345 55.6327 21.3757C55.6327 21.3458 55.6227 21.3159 55.6128 21.276C55.5632 21.1066 55.5036 21.0767 55.3447 21.1365C55.2355 21.1764 55.1362 21.2362 55.0369 21.3059C54.9376 21.3757 54.8284 21.4156 54.7093 21.3857C54.5603 21.3558 54.4213 21.3259 54.2823 21.276C54.1731 21.2362 54.1334 21.1764 54.1731 21.0668C54.2029 20.9771 54.2525 20.8874 54.3121 20.8176C54.6397 20.3991 54.9773 19.9706 55.3149 19.552C55.4936 19.3328 55.6029 19.0936 55.6823 18.8345C55.7717 18.5455 55.871 18.2565 55.9702 17.9775C56.0795 17.6287 56.2681 17.3298 56.4866 17.0408C56.7546 16.6721 57.0227 16.3033 57.2809 15.9446C57.3802 15.815 57.3603 15.6257 57.2412 15.4563C57.1617 15.3467 57.0724 15.2371 57.0029 15.1274C56.8936 14.968 56.8043 14.7886 56.7944 14.5893C56.7844 14.4 56.8341 14.2306 56.9433 14.0711C56.9929 13.9914 57.0624 13.9515 57.1518 13.9715C57.2114 13.9814 57.271 13.9814 57.3206 13.9715C57.7078 13.8718 58.0951 13.7721 58.4525 13.5629C58.5717 13.4931 58.7007 13.4433 58.8199 13.3935C58.949 13.3436 59.0483 13.2838 59.0582 13.1244C59.0681 13.0247 59.1277 12.9251 59.1376 12.8254C59.1575 12.6859 59.1376 12.5464 59.0483 12.4368C58.8397 12.1976 58.8695 11.9385 58.939 11.6595C59.0085 11.3605 59.078 11.0715 59.1674 10.7726C59.2071 10.6331 59.2766 10.4936 59.3561 10.374C59.4553 10.2245 59.6043 10.1846 59.783 10.2444C60.071 10.3341 60.2795 10.5135 60.4284 10.7726C60.5277 10.942 60.627 11.1014 60.7362 11.2708C60.8752 11.4901 60.905 11.7293 60.8951 11.9784C60.8951 12.1179 60.8752 12.2475 60.8752 12.387C60.8752 12.5763 60.9149 12.6261 61.0837 12.676C61.2128 12.7158 61.3419 12.7557 61.471 12.7955C61.7093 12.8653 61.9178 12.9949 62.1064 13.1643C62.305 13.3536 62.2951 13.5629 62.0667 13.7124C61.9078 13.822 61.7788 13.9316 61.7688 14.1409C61.7688 14.2007 61.7093 14.2704 61.6596 14.3202C61.5107 14.4697 61.3717 14.6192 61.1532 14.669C61.0936 14.689 61.0241 14.7388 60.9844 14.7886C60.766 15.0377 60.6369 15.3168 60.6369 15.6556C60.6369 15.7552 60.6171 15.8549 60.6071 15.9446C60.6071 16.104 60.6667 16.1638 60.8256 16.114C61.3022 15.9845 61.7788 15.8449 62.2653 15.7154C62.6128 15.6257 62.9702 15.5559 63.3277 15.4862C63.5163 15.4563 63.6951 15.5061 63.8539 15.5858C64.1816 15.7652 64.5192 15.9446 64.8369 16.1439C65.1646 16.3532 65.2539 16.6721 65.1348 17.0408C65.0355 17.3497 64.8468 17.6088 64.678 17.8779C64.5589 18.0572 64.4398 18.2366 64.3405 18.426C64.0724 18.9143 63.7149 19.3428 63.3475 19.7613C63.149 19.9806 62.9305 20.1699 62.722 20.3692C62.5532 20.5286 62.5433 20.5884 62.6823 20.7877C62.7121 20.8376 62.7518 20.8774 62.7915 20.9273C62.8809 21.0568 62.8809 21.0967 62.7419 21.1963C62.6327 21.276 62.5135 21.3358 62.3944 21.4156C62.2256 21.5252 62.0667 21.6448 61.8979 21.7544C61.7093 21.874 61.5107 21.9836 61.3121 22.0932C61.183 22.1729 61.0341 22.2327 60.905 22.3224C60.8057 22.3922 60.8057 22.4719 60.905 22.5416C60.9646 22.5815 61.044 22.6214 61.1135 22.6413C61.3816 22.731 61.5305 22.9303 61.6497 23.1695C61.7093 23.2791 61.6795 23.3887 61.6199 23.4884C61.5504 23.6079 61.471 23.7275 61.4015 23.8471C61.2327 24.1261 61.0142 24.3454 60.7362 24.5148C60.6071 24.5945 60.478 24.6742 60.3589 24.7539C60.2894 24.8038 60.2199 24.8536 60.1802 24.9234C60.0809 25.0629 60.1504 25.2024 60.3291 25.2024C60.5475 25.2024 60.766 25.1526 60.9844 25.1526C61.4908 25.1526 61.9873 25.1326 62.4936 25.1526C62.9901 25.1825 63.4965 25.2522 63.9929 25.322C64.261 25.3519 64.5291 25.4216 64.7972 25.4615C65.1348 25.5013 65.4724 25.5312 65.8199 25.5611C65.8795 25.5611 65.939 25.5611 65.9986 25.5512C66.1873 25.4914 66.366 25.5512 66.5348 25.6309C66.8029 25.7604 67.071 25.88 67.349 25.9996C67.4681 26.0494 67.5575 26.1192 67.6071 26.2388C67.6369 26.2986 67.7163 26.3384 67.7759 26.3982C67.7958 26.4182 67.8256 26.4381 67.8553 26.468M60.5773 17.8081H60.5873C60.5873 17.8579 60.5873 17.9177 60.5972 17.9576C60.6171 17.9975 60.6667 18.0373 60.7064 18.0473C60.7561 18.0473 60.8057 18.0273 60.8554 18.0074C61.0142 17.9476 61.1632 17.8779 61.322 17.8181C61.4908 17.7483 61.6596 17.7483 61.8284 17.848C62.1263 18.0373 62.3348 18.3064 62.5036 18.6153C62.5532 18.705 62.5135 18.7648 62.444 18.8146C62.3646 18.8644 62.2752 18.9143 62.1958 18.9741C61.9376 19.1734 61.6795 19.3627 61.3816 19.4923C61.2724 19.5421 61.183 19.6517 61.0936 19.7414C61.0341 19.8111 61.0241 19.9108 61.0936 19.9706C61.1731 20.0503 61.2624 20.1101 61.3518 20.1699C61.4312 20.2197 61.5305 20.2297 61.61 20.1699C61.7291 20.0802 61.8681 20.0104 61.9575 19.9008C62.3546 19.4624 62.7617 19.0239 63.1192 18.5455C63.5163 18.0174 63.8738 17.4394 64.2312 16.8913C64.3007 16.7817 64.3504 16.6521 64.4 16.5226C64.4497 16.3831 64.4 16.3332 64.261 16.3133C64.1419 16.3133 64.0327 16.2834 63.9135 16.2834C63.7745 16.2834 63.6454 16.2635 63.5163 16.2834C62.9603 16.3731 62.4241 16.5425 61.888 16.7119C61.5802 16.8116 61.2823 16.9312 60.9844 17.0507C60.8256 17.1105 60.7163 17.2401 60.6667 17.3995C60.627 17.5291 60.5972 17.6586 60.5674 17.7882M59.0383 16.3831C59.0383 16.2834 59.0383 16.1738 59.0085 16.0741C58.9589 15.9047 58.8596 15.8748 58.7206 15.9845C58.5617 16.114 58.4029 16.2535 58.2539 16.393C58.0156 16.6123 57.8071 16.8614 57.4894 16.9909C57.4298 17.0109 57.3802 17.0607 57.3405 17.1105C57.2213 17.3098 57.1816 17.5191 57.2114 17.7483C57.2213 17.8579 57.3007 17.9078 57.41 17.8779C57.4596 17.8579 57.5093 17.838 57.549 17.8081C57.8568 17.6387 58.1447 17.4494 58.4624 17.2999C58.8497 17.1105 59.0582 16.8315 59.0284 16.393M57.1022 20.2197C57.1022 20.2197 57.122 20.2197 57.1319 20.2197C57.1319 20.2596 57.1319 20.2994 57.1319 20.3393C57.1617 20.4788 57.261 20.5187 57.3702 20.429C57.3901 20.4091 57.41 20.3891 57.4199 20.3692C57.6383 20.13 57.8667 19.8809 58.0851 19.6417C58.1546 19.572 58.2241 19.5122 58.2936 19.4424C58.4327 19.3228 58.5816 19.2132 58.7107 19.0737C58.8397 18.9342 58.8993 18.7449 58.8596 18.5555C58.8298 18.426 58.7504 18.3961 58.6412 18.4559C58.5717 18.4957 58.5121 18.5455 58.4426 18.5754C58.1149 18.705 57.8766 18.9541 57.6582 19.2232C57.549 19.3527 57.4695 19.5022 57.3206 19.5919C57.2908 19.6019 57.271 19.6417 57.261 19.6617C57.2014 19.841 57.1419 20.0304 57.0823 20.2098M58.8894 21.4156C58.8894 21.3458 58.8894 21.2661 58.8596 21.1864C58.8199 20.997 58.7405 20.9472 58.5518 21.007C58.5121 21.0169 58.4724 21.0369 58.4327 21.0668C58.244 21.1963 58.0653 21.3259 57.8866 21.4654C57.6582 21.6448 57.539 21.8939 57.5589 22.1929C57.5788 22.3822 57.688 22.4719 57.8766 22.442C57.966 22.432 58.0554 22.3822 58.1447 22.3523C58.2539 22.3025 58.3632 22.2527 58.4724 22.1929C58.661 22.1032 58.8 21.9736 58.8298 21.7444C58.8397 21.6448 58.8596 21.5451 58.8795 21.4156M61.0639 20.4689C61.0639 20.3293 61.0142 20.2098 60.9348 20.1001C60.8752 20.0204 60.7858 20.0005 60.7163 20.0603C60.5873 20.1699 60.4582 20.2895 60.4185 20.4589C60.3788 20.6183 60.349 20.7778 60.3192 20.9372C60.2993 21.0269 60.339 21.0767 60.4284 21.0767C60.4681 21.0767 60.5078 21.0767 60.5376 21.0468C60.6965 20.9273 60.8554 20.7977 60.9944 20.6682C61.0341 20.6283 61.044 20.5386 61.0639 20.4689Z" fill="#106986"/>
<path fill-rule="evenodd" clip-rule="evenodd" d="M122.197 16.5824C122.326 16.5126 122.455 16.4329 122.624 16.3432C122.436 16.2236 122.227 16.3233 122.068 16.1838C122.068 16.0443 122.167 15.9645 122.296 15.9247C122.455 15.8749 122.604 15.835 122.763 15.7852C122.823 15.7652 122.872 15.7453 122.922 15.7254C123.011 15.6755 123.021 15.6158 122.952 15.556C122.654 15.3268 122.376 15.0776 121.969 15.0278C121.82 15.2171 121.731 15.4364 121.701 15.6656C121.681 15.7852 121.641 15.8848 121.532 15.9546C121.482 15.9944 121.453 16.0642 121.413 16.124C121.373 16.2137 121.343 16.3034 121.294 16.3831C121.214 16.5126 121.165 16.6422 121.145 16.8016C121.125 16.9611 121.065 17.1305 121.006 17.2899C120.946 17.4394 120.916 17.5889 120.946 17.7483C120.966 17.848 120.946 17.9377 120.887 18.0274C120.837 18.1071 120.787 18.1968 120.757 18.2865C120.738 18.3363 120.748 18.3961 120.738 18.4559C120.738 18.5157 120.738 18.5854 120.718 18.6452C120.628 18.9641 120.539 19.283 120.46 19.6019C120.44 19.6716 120.46 19.7414 120.46 19.8112C120.489 20.0503 120.37 20.3194 120.152 20.439C120.062 20.4888 119.973 20.5087 119.874 20.4689C119.725 20.3991 119.596 20.3991 119.447 20.4788C119.338 20.5386 119.199 20.5486 119.06 20.5785C118.96 20.4589 118.931 20.3094 118.94 20.15C118.96 19.8909 118.97 19.6318 119.02 19.3727C119.119 18.9043 119.218 18.4359 119.348 17.9676C119.487 17.4793 119.655 16.991 119.834 16.5126C119.993 16.1041 120.201 15.7254 120.46 15.3766C120.589 15.1972 120.748 15.0378 120.936 14.9281C121.204 14.7787 121.482 14.7388 121.77 14.8684C121.879 14.9182 122.009 14.9381 122.128 14.9381C122.296 14.9381 122.445 14.978 122.594 15.0477C122.763 15.1275 122.922 15.1972 123.081 15.2869C123.279 15.4065 123.488 15.4862 123.716 15.5061C123.786 15.5061 123.875 15.5061 123.935 15.4762C124.044 15.4364 124.153 15.3666 124.262 15.3068C124.491 15.1972 124.67 15.0278 124.809 14.8285C124.977 14.5893 125.126 14.3302 125.216 14.0612C125.345 13.6924 125.295 13.3437 125.077 13.0248C124.948 12.8354 124.898 12.6361 124.938 12.4169C124.938 12.377 124.957 12.3272 124.987 12.2973C125.206 12.0781 125.305 11.799 125.444 11.5399C125.633 11.1812 125.891 10.8523 126.159 10.5534C126.228 10.4736 126.308 10.5035 126.387 10.5534C126.675 10.7427 126.914 10.9719 127.062 11.2908C127.231 11.6396 127.41 11.9684 127.559 12.3272C127.658 12.5564 127.718 12.8055 127.777 13.0447C127.797 13.1045 127.777 13.1742 127.777 13.234C127.718 13.5031 127.658 13.7622 127.599 14.0313C127.599 14.0512 127.589 14.0711 127.579 14.0911C127.549 14.2405 127.599 14.3103 127.748 14.3003C127.887 14.2904 128.026 14.2704 128.165 14.2405C128.74 14.1309 129.316 14.0014 129.902 13.9914C130.438 13.9814 130.975 14.0313 131.481 14.2505C131.729 14.3502 131.938 14.5096 132.126 14.6989C132.424 15.0079 132.732 15.3168 133.06 15.6058C133.258 15.7852 133.357 16.0144 133.417 16.2635C133.457 16.4628 133.377 16.6521 133.248 16.8016C133.179 16.8814 133.089 16.9112 132.99 16.8913C132.583 16.8116 132.176 16.7817 131.759 16.7817C131.362 16.7817 130.955 16.7618 130.557 16.7618C130.22 16.7618 129.892 16.8116 129.555 16.8315C129.525 16.8315 129.505 16.8315 129.475 16.8116C129.575 16.7817 129.684 16.7518 129.783 16.7219C129.922 16.682 130.071 16.6422 130.21 16.5924C130.309 16.5625 130.389 16.5027 130.438 16.3931C130.518 16.2436 130.657 16.1439 130.816 16.0742C130.975 16.0144 131.133 15.9546 131.272 15.8649C131.431 15.7752 131.421 15.6955 131.272 15.5958C131.054 15.4463 130.826 15.3168 130.597 15.1773C130.369 15.0477 130.111 15.0079 129.843 15.0278C129.485 15.0577 129.138 15.0976 128.78 15.1573C128.631 15.1773 128.492 15.2371 128.363 15.2969C128.284 15.3367 128.224 15.3367 128.155 15.2969C128.045 15.2271 127.996 15.2371 127.896 15.3168C127.807 15.3866 127.797 15.4563 127.827 15.556C127.887 15.7553 127.956 15.9546 128.006 16.1539C128.145 16.8116 128.085 17.4593 127.896 18.0971C127.837 18.3064 127.847 18.5057 127.916 18.705C127.956 18.8246 128.026 18.8844 128.135 18.8844C128.294 18.8844 128.462 18.8844 128.611 18.8445C128.999 18.7648 129.376 18.6651 129.763 18.5655C129.902 18.5256 130.041 18.5256 130.18 18.5954C130.299 18.6552 130.428 18.695 130.557 18.7548C130.736 18.8346 130.816 18.9641 130.796 19.1534C130.766 19.4225 130.677 19.6617 130.448 19.8311C130.19 20.0204 129.952 20.2496 129.634 20.3493C129.406 20.419 129.167 20.439 128.939 20.4988C128.641 20.5685 128.343 20.6483 128.036 20.718C127.896 20.7479 127.757 20.7878 127.618 20.7977C127.301 20.8177 127.043 20.9771 126.784 21.1366C126.765 21.1465 126.755 21.1764 126.745 21.1963C126.765 21.2761 126.824 21.296 126.884 21.286C127.033 21.2661 127.192 21.2561 127.34 21.2163C127.489 21.1764 127.628 21.1864 127.777 21.2163C127.946 21.2661 128.125 21.296 128.304 21.3259C128.403 21.3458 128.462 21.3757 128.492 21.4853C128.522 21.585 128.562 21.6846 128.611 21.7743C128.731 21.9836 128.711 22.1431 128.572 22.2925C128.552 22.3125 128.532 22.3424 128.512 22.3723C128.443 22.4819 128.462 22.5516 128.572 22.6114C128.631 22.6413 128.701 22.6712 128.77 22.7011C128.681 22.8107 128.582 22.8606 128.472 22.9004C128.234 22.9901 127.996 23.0698 127.757 23.1495C127.609 23.1994 127.47 23.2592 127.321 23.319C127.152 23.3887 127.043 23.5183 126.973 23.6877C126.874 23.9368 126.765 24.176 126.665 24.4151C126.576 24.6543 126.487 24.8835 126.407 25.1227C126.328 25.3519 126.258 25.5911 126.179 25.8203C126.099 26.0395 126.218 26.1093 126.387 26.0794C126.506 26.0694 126.626 26.0395 126.755 26.0196C126.983 25.9897 127.201 25.9498 127.42 25.9099C127.47 25.9099 127.519 25.9 127.569 25.8801C127.996 25.7405 128.443 25.6907 128.889 25.6708C129.267 25.6508 129.634 25.6608 130.001 25.7206C130.19 25.7505 130.359 25.8203 130.548 25.8701C130.567 25.8701 130.587 25.8701 130.607 25.89C130.885 26.1093 131.233 26.1591 131.531 26.3385C131.63 26.3983 131.759 26.4481 131.878 26.468C132.166 26.5278 132.424 26.6673 132.682 26.7969C132.811 26.8567 132.921 27.0859 132.901 27.2254C132.901 27.2254 132.901 27.2353 132.901 27.2453C132.742 27.4546 132.672 27.7336 132.394 27.8333C132.345 27.8532 132.275 27.8632 132.226 27.8532C131.888 27.7934 131.54 27.8034 131.203 27.8532C131.084 27.8731 130.955 27.8831 130.836 27.8931C130.647 27.9229 130.468 27.9728 130.309 28.0724C130.22 28.1322 130.131 28.182 130.041 28.2319C129.982 28.2618 129.902 28.2817 129.833 28.2717C129.694 28.2418 129.555 28.202 129.426 28.1621C129.297 28.1223 129.177 28.0625 129.058 28.0027C129.009 27.9728 128.979 27.913 128.959 27.8532C128.949 27.8133 128.959 27.7535 128.959 27.7037C128.959 27.614 128.929 27.5443 128.83 27.5443C128.641 27.5443 128.453 27.5343 128.274 27.5443C127.956 27.5742 127.648 27.614 127.331 27.6539C127.142 27.6738 126.943 27.7037 126.755 27.7236C126.655 27.7236 126.546 27.6937 126.447 27.7037C126.338 27.7037 126.218 27.7336 126.099 27.7535C125.97 27.7735 125.831 27.8034 125.702 27.8133C125.096 27.8632 124.491 27.8931 123.885 27.9329C123.736 27.9429 123.577 27.9429 123.428 27.9628C123.021 28.0027 122.624 28.0824 122.247 28.2418C122.138 28.2917 122.009 28.3116 121.889 28.3216C121.492 28.3614 121.095 28.3913 120.698 28.4212C120.35 28.4511 120.003 28.3913 119.665 28.3016C119.377 28.2219 119.099 28.1223 118.811 28.0326C118.752 28.0126 118.692 27.9827 118.633 27.9628C118.375 27.8532 118.345 27.6937 118.345 27.4446C118.345 27.4047 118.394 27.345 118.444 27.325C118.514 27.2951 118.593 27.2951 118.672 27.2951C118.851 27.2951 119.02 27.2652 119.179 27.2054C119.298 27.1656 119.447 27.1257 119.576 27.1456C119.904 27.1955 120.231 27.1456 120.559 27.1257C120.847 27.0958 121.135 27.0659 121.423 27.0161C121.641 26.9762 121.85 26.9264 122.058 26.8567C122.426 26.7371 122.783 26.6075 123.14 26.4879C123.369 26.4082 123.548 26.2687 123.716 26.1093C123.776 26.0495 123.816 25.9598 123.826 25.8701C123.845 25.7007 123.895 25.5412 123.984 25.3918C124.123 25.1825 124.233 24.9632 124.203 24.7041C124.203 24.6244 124.233 24.5347 124.243 24.455C124.272 24.2258 124.163 24.0963 123.935 24.0963C123.667 24.0963 123.389 24.0963 123.121 24.0963C122.892 24.0963 122.694 24.0066 122.515 23.877C122.306 23.7275 122.227 23.5083 122.207 23.2691C122.197 23.0997 122.157 22.9403 122.088 22.7808C121.969 22.5118 122.038 22.3424 122.306 22.2427C122.436 22.1929 122.594 22.153 122.723 22.1729C123.061 22.2228 123.379 22.163 123.696 22.0833C123.865 22.0434 124.024 21.9836 124.193 21.9238C124.431 21.8441 124.66 21.7644 124.878 21.6747C125.206 21.5352 125.514 21.3558 125.792 21.1266C126.07 20.9073 126.348 20.6881 126.616 20.4489C126.794 20.2895 126.794 20.2496 126.665 20.0603C126.407 19.7115 126.348 19.3129 126.407 18.8943C126.427 18.7548 126.417 18.6253 126.377 18.4957C126.328 18.3562 126.338 18.3562 126.467 18.2665C126.576 18.1968 126.586 18.1171 126.506 18.0074C126.417 17.8879 126.417 17.7982 126.536 17.7085C126.645 17.6288 126.675 17.4892 126.606 17.3697C126.536 17.26 126.546 17.1604 126.576 17.0508C126.626 16.8714 126.685 16.702 126.804 16.5625C126.864 16.4927 126.894 16.413 126.814 16.3333C126.745 16.2535 126.745 16.1738 126.775 16.0742C126.794 15.9845 126.814 15.8948 126.824 15.8051C126.824 15.7254 126.814 15.6456 126.735 15.6058C126.655 15.5659 126.576 15.5759 126.516 15.6257C126.218 15.9147 125.821 15.9446 125.444 16.0542C125.375 16.0742 125.295 16.0941 125.216 16.114C124.977 16.1937 124.888 16.3233 124.918 16.5724C124.938 16.7618 124.967 16.9611 125.007 17.1504C125.047 17.3697 125.146 17.4095 125.325 17.27C125.355 17.2401 125.394 17.2202 125.454 17.1703C125.305 17.4195 125.156 17.6188 125.057 17.848C124.898 18.2366 124.67 18.5954 124.55 19.004C124.511 19.1335 124.441 19.2531 124.362 19.3627C124.282 19.4624 124.243 19.562 124.262 19.6816C124.282 19.861 124.223 19.9905 124.054 20.0802C123.975 20.1201 123.925 20.1799 123.885 20.2596C123.845 20.3593 123.766 20.439 123.696 20.5287C123.567 20.6881 123.508 20.708 123.309 20.6184C123.16 20.5486 123.021 20.4788 122.872 20.419C122.833 20.3991 122.783 20.3991 122.743 20.3692C122.684 20.3294 122.614 20.2895 122.584 20.2397C122.505 20.1002 122.426 19.9806 122.267 19.9208C122.167 19.8809 122.187 19.7215 122.287 19.6916C122.436 19.6418 122.515 19.5421 122.584 19.4026C122.614 19.3428 122.654 19.273 122.704 19.2232C122.962 18.9641 123.14 18.6452 123.369 18.3662C123.448 18.2665 123.508 18.1569 123.518 18.0174C123.518 17.9676 123.567 17.9078 123.607 17.858C123.657 17.7782 123.726 17.7085 123.766 17.6188C123.816 17.5291 123.845 17.4294 123.875 17.3298C123.965 17.0209 124.114 16.7418 124.322 16.4927C124.451 16.3333 124.421 16.2635 124.233 16.2037C124.173 16.1838 124.114 16.1638 124.054 16.1439C123.885 16.0841 123.746 16.114 123.607 16.2436C123.518 16.3233 123.379 16.3632 123.26 16.3931C122.972 16.4728 122.684 16.5326 122.396 16.6023C122.346 16.6123 122.287 16.6223 122.237 16.6422C122.237 16.6322 122.227 16.6123 122.217 16.6023" fill="#106986"/>
<path fill-rule="evenodd" clip-rule="evenodd" d="M79.5618 21.3656C79.7604 21.3656 79.8597 21.2958 79.9093 21.1463C80.0185 20.8573 80.1277 20.5683 80.2469 20.2793C80.3561 19.9903 80.5348 19.7412 80.7235 19.502C80.8625 19.3227 81.0909 19.2629 81.2895 19.1732C81.3292 19.1533 81.4086 19.1732 81.4582 19.2031C81.776 19.3526 82.0738 19.3127 82.332 19.0735C82.5008 18.9141 82.6497 18.7247 82.7887 18.5454C83.0072 18.2564 83.2157 17.9674 83.3646 17.6286C83.454 17.4293 83.6029 17.3097 83.8114 17.2499C83.8412 17.2499 83.8611 17.2299 83.8909 17.2299C84.2682 17.1403 84.5164 17.3196 84.5462 17.7182C84.576 18.0272 84.5462 18.3361 84.4072 18.6351C84.3377 18.7845 84.298 18.954 84.2781 19.1134C84.2582 19.2828 84.3277 19.3625 84.4866 19.3227C84.7646 19.2529 84.993 19.3426 85.2313 19.4622C85.4795 19.5917 85.7575 19.6715 85.976 19.8409C86.5022 20.2494 86.8795 20.7676 86.9788 21.4453C87.0285 21.7841 86.9788 22.1229 86.8497 22.4418C86.7802 22.6013 86.7504 22.7607 86.7504 22.9301C86.7504 23.0696 86.7306 23.2092 86.7206 23.3586C86.7206 23.4284 86.7207 23.4981 86.7306 23.5679C86.7504 23.6875 86.7802 23.8071 86.7902 23.9366C86.81 24.1758 86.81 24.415 86.8299 24.6541C86.8597 25.0129 86.7902 25.3617 86.7206 25.7104C86.6214 26.2585 86.4029 26.7568 86.0355 27.1654C85.8072 27.4245 85.559 27.6637 85.2909 27.8729C85.1022 28.0224 84.8838 28.1121 84.6753 28.2317C84.4965 28.3313 84.3277 28.431 84.149 28.5207C84.0696 28.5605 84.0001 28.6004 83.9206 28.6203C83.6327 28.7001 83.3547 28.8097 83.0568 28.8097C83.0171 28.8097 82.9873 28.8296 82.9476 28.8396C82.4809 28.9592 82.054 29.1585 81.627 29.3777C81.0214 29.6866 80.4058 29.9756 79.8001 30.2746C79.7107 30.3144 79.6214 30.3344 79.5221 30.3144C79.4724 30.3045 79.393 30.3144 79.3434 30.3543C79.0554 30.5337 78.7675 30.723 78.4795 30.9024C78.4299 30.9323 78.3604 30.9522 78.3008 30.9522C78.2015 30.9522 78.1419 30.9721 78.1221 31.0818C78.1221 31.1216 78.0625 31.1814 78.0327 31.1814C77.9036 31.1814 77.854 31.2512 77.8043 31.3708C77.6058 31.3209 77.5561 31.1515 77.437 31.022C77.5164 30.9522 77.576 30.9024 77.6455 30.8526C77.7746 30.7529 77.9036 30.6632 78.0426 30.5735C78.2412 30.444 78.4497 30.3144 78.6483 30.1849C79.2143 29.8062 79.7802 29.4275 80.3363 29.0389C80.7136 28.7698 81.1206 28.5506 81.5079 28.3214C82.2923 27.843 83.0767 27.3647 83.871 26.8963C84.427 26.5675 84.7944 26.0792 85.1221 25.541C85.3008 25.262 85.3604 24.9332 85.3802 24.6143C85.4001 24.2256 85.41 23.837 85.4001 23.4483C85.4001 23.0397 85.4597 22.6511 85.5589 22.2624C85.6384 21.9535 85.7079 21.6446 85.7774 21.3357C85.7972 21.2659 85.7973 21.1862 85.7873 21.1065C85.7873 21.0068 85.7377 20.9171 85.6582 20.8573C85.2909 20.5783 84.8937 20.4488 84.4469 20.6281C84.1887 20.7278 83.9306 20.8374 83.6824 20.957C83.4341 21.0766 83.3944 21.2161 83.5235 21.4652C83.6228 21.6546 83.7419 21.814 83.9206 21.9535C84.2384 22.1927 84.4866 22.4916 84.4568 22.9401C84.4568 23.0597 84.4171 23.1494 84.3377 23.239C84.1192 23.4682 83.8512 23.6177 83.5235 23.6377C83.3547 23.6377 83.1859 23.6676 83.0171 23.6676C82.4809 23.6676 82.0738 23.9267 81.8455 24.3751C81.498 25.0627 81.0114 25.6407 80.5845 26.2585C80.376 26.5575 80.1377 26.8465 79.8299 27.0558C79.7604 27.1056 79.6909 27.1554 79.6114 27.1853C79.5419 27.2053 79.4327 27.2152 79.393 27.1853C79.2838 27.1056 79.1944 27.1355 79.0852 27.1654C78.9462 27.2053 78.7972 27.2252 78.6483 27.2551C78.5391 27.275 78.4497 27.3049 78.3703 27.4046C78.2909 27.5042 78.1816 27.574 78.0724 27.6437C78.0327 27.6637 77.9632 27.6637 77.9136 27.6437C77.6653 27.5441 77.4767 27.3747 77.3377 27.1455C77.298 27.0757 77.2483 27.0159 77.2086 26.9561C77.0994 26.8066 76.9802 26.6671 76.9504 26.4877C76.9405 26.408 76.9008 26.3383 76.8611 26.2685C76.6327 25.8799 76.5731 25.4514 76.5831 25.0129C76.5831 24.7936 76.6625 24.5943 76.7717 24.405C76.9703 24.0363 77.2185 23.7074 77.4767 23.3786C77.5462 23.2789 77.6455 23.1992 77.7448 23.1294C77.8838 23.0397 77.9632 22.9401 78.0029 22.7707C78.1519 22.1329 78.3405 21.4951 78.4994 20.8573C78.7476 19.8209 79.0554 18.8045 79.3831 17.798C79.4526 17.5787 79.5022 17.3495 79.5022 17.1104C79.5022 16.9609 79.532 16.8114 79.5916 16.6719C79.7306 16.3331 79.8795 15.9942 80.0483 15.6654C80.3164 15.1472 80.5348 14.6091 80.7235 14.051C80.8029 13.8118 80.9121 13.5826 80.932 13.3235C80.932 13.3235 80.932 13.3136 80.932 13.3036C81.1703 12.8452 81.1802 12.327 81.349 11.8487C81.3689 11.7988 81.3689 11.749 81.3987 11.6992C81.5675 11.46 81.6469 11.191 81.7462 10.9219C81.8951 10.5033 82.1433 10.4436 82.4909 10.7525C82.6398 10.882 82.759 11.0514 82.8781 11.2109C82.9377 11.3006 82.9774 11.4102 83.0072 11.5098C83.0668 11.6892 83.1164 11.8786 83.176 12.0679C83.1958 12.1277 83.2157 12.1875 83.2256 12.2572C83.2753 12.6758 83.5036 12.9947 83.7816 13.2837C83.8412 13.3435 83.9405 13.3833 84.0199 13.3833C84.3575 13.4033 84.576 13.6125 84.7448 13.8716C84.7646 13.9015 84.7746 13.9314 84.7845 13.9613C84.8143 14.1108 84.8341 14.2702 84.8639 14.4197C84.8738 14.5194 84.8341 14.5991 84.7547 14.6489C84.5958 14.7486 84.427 14.8682 84.2582 14.9379C84.0894 15.0077 83.9504 15.0974 83.8214 15.2169C83.6426 15.3864 83.454 15.5159 83.1958 15.5458C83.0469 15.5657 82.9178 15.6554 82.8285 15.785C82.7192 15.9345 82.5703 16.0241 82.4114 16.1138C82.2327 16.2135 82.0738 16.3729 81.915 16.5124C81.7164 16.6819 81.5178 16.8513 81.3292 17.0207C81.2597 17.0805 81.2001 17.1502 81.1504 17.2299C80.8923 17.6186 80.6838 18.0371 80.5051 18.4657C80.4852 18.5055 80.4753 18.5454 80.4653 18.5952C80.376 19.0137 80.2866 19.4323 80.1873 19.8508C80.1277 20.0701 80.0384 20.2793 79.9589 20.4886C79.8696 20.7079 79.7703 20.9271 79.6809 21.1463C79.6611 21.2061 79.6511 21.2759 79.6313 21.3656M77.5164 23.8669C77.5164 23.8669 77.4866 23.9067 77.4667 23.9267C77.2582 24.1658 77.1192 24.4449 77.0001 24.7338C76.8512 25.1026 76.8313 25.4812 77.0894 25.8201C77.1391 25.8898 77.1887 25.9596 77.2285 26.0293C77.3377 26.2087 77.4965 26.3482 77.6852 26.4379C77.8341 26.5176 77.9831 26.5376 78.1519 26.4977C78.4994 26.408 78.8072 26.2386 79.115 26.0592C79.2937 25.9596 79.4526 25.8201 79.6015 25.6806C79.7604 25.5311 79.8894 25.3517 80.0285 25.1823C80.0582 25.1524 80.0781 25.0826 80.0582 25.0428C80.0384 25.0029 79.9788 24.9929 79.9292 24.983C79.9093 24.983 79.8795 24.983 79.8497 24.983C79.5916 24.983 79.3334 24.9929 79.0753 25.0029C78.827 25.0029 78.6185 24.8833 78.41 24.7538C78.271 24.6641 78.2313 24.5046 78.1816 24.3552C78.1519 24.2555 78.132 24.1459 78.1121 24.0363C78.0923 23.9366 78.0923 23.8469 78.0625 23.7473C78.0029 23.5081 77.9433 23.4882 77.7249 23.6177C77.705 23.6277 77.5065 23.8868 77.4866 23.8968C77.4866 23.8868 77.6951 23.6177 77.7051 23.6078C77.8143 23.4981 77.9632 23.4184 77.9533 23.2191C77.9136 23.2191 77.8838 23.2191 77.8738 23.2191C77.6554 23.4085 77.437 23.5978 77.2781 23.8469C77.2582 23.8768 77.2781 23.9267 77.2781 23.9964C77.3774 23.9466 77.437 23.9067 77.5065 23.8669M79.6809 23.817C79.7504 23.817 79.81 23.817 79.8696 23.7871C80.2072 23.6576 80.5448 23.528 80.8724 23.3786C81.0511 23.2988 81.2001 23.1593 81.2895 22.9899C81.4483 22.691 81.5973 22.392 81.7462 22.0831C81.7859 22.0033 81.8058 21.9137 81.8256 21.824C81.8455 21.6944 81.7859 21.6446 81.6568 21.6745C81.5277 21.7143 81.4086 21.7741 81.349 21.8937C81.2597 22.0532 81.1802 22.2126 81.1107 22.382C81.0611 22.4916 81.0412 22.6212 81.0114 22.7408C80.932 23.0796 80.4951 23.1593 80.2568 22.9401C80.1476 22.8305 80.0582 22.7009 79.949 22.5913C79.8994 22.5415 79.8199 22.4916 79.7703 22.5016C79.5519 22.5714 79.3434 22.6511 79.2341 22.8803C79.1448 23.0696 79.1746 23.259 79.1845 23.4483C79.1845 23.6476 79.2341 23.7174 79.4824 23.7871C79.5419 23.8071 79.6114 23.7971 79.671 23.8071M76.6923 24.8435C76.593 25.0727 76.6129 25.5809 76.732 25.7603C76.9207 25.7304 76.9206 25.7204 76.9008 25.561C76.8909 25.4514 76.8909 25.3417 76.8809 25.2321C76.8809 25.1524 76.8611 25.0627 76.8512 24.983C76.8313 24.9033 76.7916 24.8435 76.6923 24.8435ZM83.166 22.3123C83.166 22.3123 83.1462 22.2226 83.1164 22.1628C83.0668 22.0731 82.9774 22.0631 82.9079 22.1329C82.8185 22.2325 82.749 22.3521 82.6894 22.4717C82.6597 22.5315 82.6696 22.6013 82.749 22.6312C82.9377 22.7009 83.166 22.5514 83.176 22.3023M82.5504 14.0909C82.5504 14.0909 82.5703 14.1706 82.61 14.1806C82.6497 14.2005 82.7292 14.1905 82.7589 14.1706C82.8384 14.1208 82.9079 14.051 82.9675 13.9713C82.9972 13.9314 83.0072 13.8417 82.9873 13.8019C82.9575 13.762 82.8781 13.7421 82.8285 13.7421C82.6894 13.752 82.5604 13.9215 82.5604 14.0909" fill="#106986"/>
<path fill-rule="evenodd" clip-rule="evenodd" d="M75.004 18.2863C75.0934 18.3262 75.1629 18.3461 75.2522 18.386C75.2721 18.3162 75.3019 18.2465 75.3118 18.1867C75.3714 17.9575 75.431 17.7283 75.4905 17.4891C75.5104 17.4293 75.5303 17.3596 75.5303 17.2998C75.5402 17.1005 75.5402 16.9011 75.3118 16.8115C75.2721 16.7915 75.2423 16.7317 75.2423 16.6919C75.2423 16.6122 75.2423 16.5324 75.2522 16.4627C75.3118 16.1936 75.2522 15.9544 75.1132 15.7153C74.9941 15.506 74.8749 15.2967 74.8352 15.0576C74.7558 14.6091 74.7955 14.1806 74.8948 13.7421C74.9246 13.6026 75.0338 13.483 75.1232 13.3635C75.3317 13.0745 75.5501 12.7954 75.7189 12.4765C75.8182 12.2872 75.987 12.1278 76.1359 11.9683C76.2054 11.8985 76.2948 11.8886 76.3941 11.9185C76.6522 12.0082 76.8905 12.1278 77.109 12.3071C77.2083 12.3968 77.2778 12.5064 77.2976 12.636C77.3473 12.9947 77.4168 13.3535 77.4664 13.7122C77.4763 13.8119 77.4664 13.9215 77.4366 14.0212C77.3175 14.3799 77.2976 14.7486 77.2877 15.1174C77.2877 15.207 77.2678 15.2868 77.2579 15.3665C77.2083 15.7153 77.0295 15.9644 76.7019 16.094C76.4139 16.2036 76.2054 16.4029 76.0565 16.6819C75.9274 16.9211 75.7884 17.1403 75.6494 17.3695C75.5203 17.5688 75.4607 17.7881 75.4607 18.0272C75.4607 18.6052 75.57 19.1633 75.7388 19.7114C75.8083 19.9306 75.8281 20.1698 75.848 20.399C75.8778 20.6581 75.838 20.9072 75.7685 21.1464C75.7189 21.3158 75.7388 21.4752 75.7983 21.6446C75.8877 21.6745 75.9274 21.6148 75.9671 21.555C76.3444 21.0069 76.7217 20.4588 77.099 19.9107C77.3175 19.6018 77.526 19.2928 77.7544 18.9939C77.8834 18.8145 78.0324 18.655 78.1714 18.4856C78.2707 18.3661 78.3898 18.2465 78.4693 18.107C78.6083 17.8578 78.8168 17.6585 79.0154 17.4293C79.0451 17.529 79.0054 17.5888 78.9657 17.6386C78.7771 17.8977 78.6083 18.1667 78.3998 18.3959C78.0125 18.8344 77.6749 19.3128 77.3771 19.811C77.3373 19.8808 77.2976 19.9605 77.2877 20.0402C77.2877 20.0901 77.3175 20.1598 77.3572 20.1797C77.387 20.1997 77.4664 20.1797 77.4962 20.1598C77.5955 20.0502 77.6948 19.9406 77.7742 19.811C77.8934 19.6416 78.0026 19.4622 78.1217 19.2928C78.1813 19.2031 78.2707 19.1334 78.36 19.0636C78.3302 19.1732 78.2607 19.243 78.1912 19.3227C77.9629 19.6018 77.7842 19.9007 77.6253 20.2196C77.5061 20.4588 77.3572 20.6979 77.2281 20.9371C76.9302 21.5051 76.6224 22.0632 76.3345 22.6412C75.9969 23.3288 75.8281 24.0662 75.699 24.8136C75.6593 25.0727 75.5998 25.3219 75.5203 25.571C75.4508 25.7902 75.4111 26.0095 75.3813 26.2287C75.3615 26.3682 75.3118 26.4978 75.2423 26.6273C75.1629 26.7868 75.0636 26.9263 74.9742 27.0758C74.9047 27.1854 74.8551 27.2153 74.7558 27.1455C74.5373 26.9861 74.2891 26.9263 74.0409 26.8665C73.9912 26.8565 73.9416 26.8466 73.892 26.8266C73.743 26.7868 73.6338 26.6971 73.5842 26.5476C73.5544 26.4579 73.5146 26.3583 73.5146 26.2686C73.5246 25.9696 73.5146 25.6706 73.604 25.3816C73.6636 25.1425 73.6934 24.9033 73.743 24.6542C73.8125 24.2356 73.9019 23.8171 73.9615 23.3886C74.0707 22.6511 74.16 21.9137 74.2593 21.1763C74.2891 20.9371 74.3388 20.7079 74.3884 20.4687C74.4877 19.9904 74.5969 19.5021 74.6962 19.0238C74.726 18.8643 74.7459 18.7148 74.8749 18.5853C74.9544 18.5155 74.9643 18.376 75.0139 18.2465" fill="#106986"/>
<path d="M18.8159 18.0871C21.3081 16.7816 23.6117 15.2171 25.5081 13.4333C27.1067 9.66638 28.1195 3.13908 25.5379 0C26.4018 3.37825 24.1181 10.6031 15.3904 17.1205C12.5507 19.2431 11.6571 22.2227 13.7422 24.7838C13.9706 25.0828 14.189 25.3817 14.4074 25.6607C14.6656 25.9497 14.894 26.2288 15.0727 26.5078C15.1025 26.5377 15.1223 26.5676 15.1521 26.5875C15.1323 26.5776 15.1124 26.5377 15.0925 26.5178C13.5933 22.1928 16.9394 19.0637 18.8159 18.0771" fill="#F5D21F"/>
<path d="M15.4201 26.9567C15.4201 26.9567 15.3701 26.8867 15.3301 26.8467C15.3701 26.8767 15.3901 26.9267 15.4201 26.9567Z" fill="#F3C91E"/>
<path d="M15.9955 28.1323C15.9557 28.0127 15.9061 27.8632 15.8564 27.7336C15.916 27.8632 15.9557 28.0027 15.9955 28.1323Z" fill="#E2690D"/>
<path d="M20.4138 22.0534C22.9258 20.8277 25.7655 19.4624 28.3173 17.579C30.6507 13.822 33.0932 7.49403 30.7797 2.65088C30.8095 6.7267 28.7244 10.3939 25.4975 13.4433C23.601 15.2271 21.3074 16.7917 18.8053 18.0972C16.9287 19.0837 13.5826 22.2128 15.0819 26.5378C15.1017 26.5577 15.1216 26.5876 15.1414 26.6076C15.2109 26.6873 15.2804 26.777 15.34 26.8567C15.3797 26.8866 15.3996 26.9364 15.4194 26.9663C15.5882 27.1855 15.7173 27.4446 15.8365 27.6938C15.7769 27.6041 15.7471 27.5044 15.6875 27.4147C15.9854 24.2358 18.3187 23.0798 20.4038 22.0634" fill="#E68011"/>
<path d="M16.125 29.5571C16.125 29.4475 16.1548 29.3279 16.1548 29.2183C16.1548 29.3279 16.1349 29.4475 16.125 29.5571Z" fill="#D41468"/>
<path d="M22.6188 24.3951C25.3096 23.7374 27.7422 22.9601 29.8571 22.0433C34.9011 18.5056 36.8968 10.3539 35.328 6.61694C35.328 6.87604 35.2982 7.56365 35.2089 7.9224C34.0174 12.2972 31.3663 15.3067 28.3181 17.5589C25.7763 19.4423 22.9266 20.8076 20.4146 22.0333C18.3195 23.0498 15.9961 24.2058 15.6982 27.3847C15.7578 27.4744 15.7876 27.5741 15.8472 27.6637C15.8472 27.6837 15.8472 27.7036 15.8472 27.7136C15.9068 27.8431 15.9465 27.9926 15.9862 28.1122C16.0557 28.3812 16.1053 28.6503 16.1252 28.9293C17.4358 26.3284 20.9011 24.8137 22.6089 24.3851" fill="#D3136F"/>
<path d="M15.7578 30.9125C15.7578 30.9125 15.7878 30.8825 15.7878 30.8625C15.7878 30.8825 15.7878 30.8925 15.7578 30.9125Z" fill="#A90D78"/>
<path d="M23.4126 28.0125C25.9445 27.9428 28.2878 27.6338 30.4126 27.1555C35.5758 24.7539 40.3616 18.6152 39.18 13.0247C38.1772 16.9709 34.9006 19.8908 29.8566 22.0533C27.7417 22.9701 25.3091 23.7374 22.6183 24.4051C20.9204 24.8336 17.4552 26.3583 16.1346 28.9493C16.1346 29.039 16.1545 29.1286 16.1545 29.2183C16.1545 29.3379 16.1346 29.4475 16.1247 29.5572C16.1048 29.9159 16.0254 30.2348 15.9062 30.5537C15.9062 30.5338 15.9162 30.5338 15.9162 30.5238C17.9616 28.441 22.0027 28.0424 23.4027 28.0125" fill="#A90D78"/>
<path d="M40.7886 22.8206C40.9673 22.1728 41.1758 21.5051 41.1262 20.7976C41.0567 21.0567 40.739 21.5051 40.5007 21.824C38.6936 24.126 35.1092 26.0792 30.4028 27.1555C28.278 27.6338 25.9347 27.9328 23.4028 28.0125C22.0028 28.0424 17.9616 28.441 15.9163 30.5238C15.9163 30.5238 15.9063 30.5238 15.9063 30.5537C15.8666 30.6533 15.8269 30.7729 15.7772 30.8726C15.7772 30.8925 15.7772 30.9025 15.7475 30.9224C15.5389 31.3908 15.2212 31.7894 14.834 32.1382C14.9134 32.0684 15.0028 31.9787 15.0822 31.899C17.4155 30.8427 23.8198 31.62 25.1007 31.8791C26.4907 32.1581 27.9801 32.3375 29.5092 32.3674C34.7716 30.9025 39.4879 27.4146 40.7886 22.8305" fill="#641E7C"/>
<path d="M14.248 32.5568C14.3076 32.517 14.3672 32.4771 14.4268 32.4373C14.3573 32.4771 14.3076 32.507 14.248 32.5568Z" fill="#641E7C"/>
<path d="M12.9473 33.0451C12.9473 33.0451 13.0373 33.0251 13.0673 33.0251C13.0373 33.0251 12.9873 33.0451 12.9473 33.0451Z" fill="#272579"/>
<path d="M13.2656 32.9753C13.2656 32.9753 13.3356 32.9453 13.3656 32.9453C13.3356 32.9453 13.2956 32.9753 13.2656 32.9753Z" fill="#272579"/>
<path d="M15.0921 31.8792C15.0126 31.9589 14.9233 32.0486 14.8438 32.1184C14.7942 32.1582 14.7644 32.1881 14.7247 32.2081C14.6651 32.2479 14.6055 32.2977 14.5559 32.3476C14.5062 32.3775 14.4566 32.3974 14.4268 32.4273C14.3573 32.4672 14.3077 32.507 14.2481 32.5469C14.2183 32.5768 14.1687 32.6067 14.119 32.6266C14.0197 32.6864 13.9204 32.7263 13.8211 32.7861C13.7516 32.8159 13.6722 32.8359 13.5928 32.8658C13.6126 32.8658 13.6226 32.8458 13.6424 32.8458C14.3077 32.9455 14.9828 33.085 15.658 33.2345C17.9715 33.7527 22.0226 35.7159 26.5999 36.7224C32.4183 36.3138 39.2197 33.952 40.5006 28.6604C38.2665 31.361 33.8084 32.4273 29.519 32.3476C27.9899 32.3177 26.5006 32.1383 25.1105 31.8593C23.8297 31.5902 17.4254 30.8229 15.0921 31.8792Z" fill="#3F3488"/>
<path d="M10.1875 32.4871C10.1875 32.4871 10.2675 32.5571 10.3075 32.5671C10.2675 32.5571 10.2275 32.5271 10.1875 32.4871Z" fill="#034996"/>
<path d="M9.89941 32.2876C9.89941 32.2876 9.96941 32.3576 9.99941 32.3776C9.96941 32.3476 9.91941 32.3076 9.89941 32.2876Z" fill="#034996"/>
<path d="M10.5449 32.7063C10.5449 32.7063 10.5749 32.7363 10.6049 32.7363C10.5749 32.7363 10.5649 32.7363 10.5449 32.7063Z" fill="#034996"/>
<path d="M10.9316 32.8657C10.9316 32.8657 11.0116 32.8957 11.0516 32.9057C11.0116 32.8857 10.9716 32.8757 10.9316 32.8657Z" fill="#034996"/>
<path d="M11.2695 32.9753C11.3192 32.9753 11.3688 32.9953 11.4383 33.0052C11.3688 33.0052 11.3192 32.9853 11.2695 32.9753Z" fill="#034996"/>
<path d="M13.6427 32.8557C13.6427 32.8557 13.6129 32.8557 13.5931 32.8756C13.5236 32.8956 13.464 32.9255 13.3746 32.9554C13.3448 32.9554 13.3151 32.9853 13.2654 32.9853C13.186 32.9853 13.1264 33.0152 13.0569 33.0251C13.0271 33.0251 12.9775 33.0451 12.9378 33.0451C12.7094 33.0849 12.4909 33.1148 12.2626 33.1148C12.0441 33.1148 11.8356 33.0949 11.6172 33.055C11.637 33.055 11.6668 33.0749 11.6867 33.0749C13.047 33.6828 14.0995 34.4701 15.142 35.3072C18.1704 37.7487 20.0271 39.2933 22.2314 40.2998C26.2526 40.8081 31.2768 40.4393 35.0002 38.247C35.8938 37.5992 36.6484 37.0312 37.1846 36.3137C36.8768 36.5329 35.5463 36.9814 34.4541 37.1508C31.8129 37.5594 29.1321 37.3102 26.6002 36.7422C22.0229 35.7257 17.9718 33.7626 15.6583 33.2543C14.9831 33.1048 14.308 32.9653 13.6427 32.8657" fill="#095BA3"/>
<path d="M11.6869 33.0749C11.6869 33.0749 11.6372 33.0549 11.6174 33.0549C11.5578 33.0549 11.4883 33.035 11.4386 33.0151C11.3691 33.0151 11.3195 32.9952 11.2698 32.9852C11.1904 32.9653 11.1209 32.9453 11.0514 32.9154C11.0117 32.8955 10.972 32.8855 10.9323 32.8756C10.823 32.8357 10.7138 32.8058 10.6046 32.7361C10.5748 32.7361 10.5649 32.7361 10.545 32.7062C10.4656 32.6663 10.3762 32.6165 10.2968 32.5666C10.2571 32.5567 10.2174 32.5268 10.1776 32.4869C10.1181 32.467 10.0585 32.4172 9.99892 32.3773C9.96913 32.3474 9.91949 32.3075 9.89963 32.2876C9.62161 32.0883 9.39324 31.8392 9.19466 31.5801H9.1748C9.35353 31.8591 9.60176 32.2577 9.89963 32.8058C11.25 35.337 12.7592 37.6888 14.7847 39.8712C15.7578 40.8977 16.8698 41.8145 18.0514 42.5619C23.433 44.1862 29.7081 43.5783 31.9521 41.8942C31.7237 41.9341 30.9393 42.0238 30.4032 41.9939C26.5904 41.6949 24.267 41.2166 22.2315 40.2798C20.0273 39.2733 18.1705 37.7287 15.1422 35.2872C14.0996 34.4501 13.0372 33.6628 11.6869 33.0549" fill="#0D79BE"/>
<path d="M14.7943 39.8812C12.7688 37.6988 11.2496 35.3469 9.90922 32.8158C9.61135 32.2677 9.36312 31.869 9.1844 31.6C9.11489 31.4804 9.05532 31.3807 9.00567 31.311C5.57021 26.7967 0.0297872 28.3612 0 28.3712C3.17731 29.1086 4.08085 31.6199 5.01418 33.6229C5.94752 35.915 7.74468 39.6121 10.3362 41.8443C13.4638 44.6645 19.034 46.8469 24.505 45.681C24.9518 45.5813 25.7163 45.4119 26.0142 45.2724C25.7362 45.2724 24.922 45.1927 24.495 45.1229C22.2709 44.7243 20.0667 43.8474 18.061 42.5718C16.8794 41.8145 15.7674 40.9076 14.7943 39.8712" fill="#1EA0DA"/>
</g>
<defs>
<clipPath id="clip0_583_3441">
<rect width="168" height="46" fill="white"/>
</clipPath>
</defs>
</svg>
