<svg width="256" height="46" viewBox="0 0 256 46" fill="none" xmlns="http://www.w3.org/2000/svg">
<g clip-path="url(#clip0_583_2117)">
<path d="M28.6743 29.1465V23.0094H0V45.9812H28.6743V39.8442H10.4544V37.3105H28.6743V31.6614H10.4544V29.1465H28.6743Z" fill="#009846"/>
<path d="M31.7012 22.9907H42.776L48.6989 37.2355L54.6782 22.9531H65.6402L54.9978 45.9625H42.3624L31.7012 22.9907Z" fill="#009846"/>
<path d="M86.7556 45.9625H97.586L85.8155 22.9531H73.1612L61.3154 46H72.2022L73.8381 42.7157H85.1386L86.7368 45.9625H86.7556ZM76.7337 36.9164L79.5165 31.3236L82.2805 36.9164H76.7337Z" fill="#009846"/>
<path d="M127.408 45.9625H138.238L126.468 22.9531H113.814L101.968 46H112.873L114.509 42.7157H125.81L127.408 45.9625ZM117.386 36.9164L120.169 31.3236L122.933 36.9164H117.386Z" fill="#009846"/>
<path d="M152.585 22.9907H141.886V45.9626H152.585V22.9907Z" fill="#009846"/>
<path d="M185.057 35.5463C187.783 35.5463 187.727 32.4872 187.727 32.4872V28.5084C187.727 23.4786 182.387 23.0094 182.387 23.0094H157.812V45.9812H168.51V38.0612H175.618C176.144 38.0612 176.483 38.2489 176.69 38.4741C177.084 38.9058 177.066 39.5251 177.066 39.5251V45.9625H187.764V39.5251C187.764 35.8278 185.076 35.5463 185.076 35.5463H185.057ZM175.843 32.1306H168.379V28.8087H175.843C176.765 28.8087 177.517 29.5594 177.517 30.4602C177.517 31.3611 176.765 32.1306 175.843 32.1306Z" fill="#009846"/>
<path d="M210.365 27.5887C212.358 33.8947 218.262 38.4741 225.238 38.4741C233.85 38.4741 240.845 31.5112 240.845 22.9155C240.845 14.3198 234.376 7.88246 226.216 7.37573L210.365 27.5887Z" fill="white"/>
<path d="M231.5 0L195.455 45.9625H239.942L256 0H231.5ZM225.239 39.1122C218.413 39.1122 212.434 34.9082 210.065 28.6022L227.063 6.90657C235.167 7.82619 241.409 14.714 241.409 22.9531C241.409 31.8678 234.132 39.1122 225.22 39.1122" fill="#009846"/>
<path d="M227.082 6.90662L226.724 7.35704L226.442 7.7324L226.367 7.82624L226.123 8.14529C227.89 9.02738 229.47 10.2098 230.786 11.5986C230.147 12.0865 229.451 12.4807 228.718 12.781C228.022 11.1669 227.138 9.62795 226.104 8.16406L225.766 8.59572C226.724 9.98454 227.552 11.4297 228.21 12.9499C227.345 13.2501 226.442 13.4003 225.502 13.4378V8.93354L224.976 9.59042V13.4378C224.073 13.4191 223.19 13.2501 222.343 12.9686C222.325 12.9686 221.102 14.5451 221.102 14.5451C220.708 15.6524 220.407 16.7785 220.162 17.9233C219.673 17.8295 219.185 17.7169 218.696 17.6043L218.338 18.0547C218.902 18.2049 219.485 18.3362 220.068 18.4301C219.824 19.8377 219.692 21.264 219.673 22.7091H215.161V22.0898L214.296 23.2346H214.653C214.691 25.149 215.029 27.007 215.65 28.7336C214.39 29.2028 213.168 29.7471 211.983 30.3852C211.513 29.5406 211.118 28.6398 210.798 27.7014L210.441 28.1518L210.084 28.6023C212.434 34.927 218.432 39.1122 225.258 39.1122C234.189 39.1122 241.447 31.8679 241.447 22.9531C241.447 14.714 235.205 7.82624 227.101 6.90662M240.45 22.6904H235.844C235.806 20.7948 235.468 18.9368 234.828 17.1914C236.088 16.7222 237.329 16.1779 238.514 15.5211C239.717 17.6418 240.413 20.0816 240.45 22.6716M220.2 23.2159H224.976V27.007C223.49 27.007 222.024 27.1571 220.595 27.4011C220.35 26.0311 220.219 24.6422 220.2 23.2159ZM225.502 18.8993C226.969 18.8993 228.435 18.7491 229.902 18.5051C230.147 19.8752 230.278 21.2828 230.297 22.6904H225.521V18.8993H225.502ZM230.278 23.2159C230.278 24.6235 230.128 26.0311 229.902 27.4011C228.454 27.1571 226.988 27.0258 225.502 27.007V23.2159H230.278ZM220.689 27.9078C222.099 27.6639 223.547 27.5325 224.995 27.5137V31.9617C223.979 31.9805 223.001 32.1681 222.08 32.4872C221.478 31.0045 221.008 29.4843 220.689 27.9078ZM221.591 32.6749C220.783 32.9939 220.031 33.4444 219.354 33.9699C218.056 32.5247 217.022 30.8544 216.308 29.0339C217.567 28.6023 218.865 28.2457 220.181 28.0017C220.501 29.6157 220.971 31.1734 221.591 32.6749ZM225.502 27.5137C226.95 27.5137 228.379 27.6639 229.808 27.9078C229.488 29.4843 229.018 31.0045 228.417 32.4872C227.495 32.1681 226.499 31.9805 225.502 31.9617V27.5137ZM230.316 27.9829C231.632 28.2269 232.929 28.5835 234.189 29.0151C233.475 30.8356 232.44 32.506 231.143 33.9511C230.466 33.4256 229.714 32.9939 228.906 32.6561C229.526 31.1547 229.996 29.5782 230.316 27.9829ZM230.41 27.4762C230.654 26.0874 230.786 24.661 230.805 23.2159H235.317C235.299 25.0739 234.96 26.8568 234.358 28.5272C233.08 28.0768 231.745 27.7389 230.41 27.4762ZM230.805 22.6904C230.805 21.2453 230.654 19.8189 230.41 18.4113C231.745 18.1673 233.061 17.8107 234.34 17.3603C234.96 19.0494 235.28 20.8324 235.317 22.6716H230.805V22.6904ZM238.251 15.0894C237.085 15.7275 235.881 16.2718 234.64 16.7222C233.907 14.8642 232.854 13.1563 231.538 11.6736C232.121 11.1669 232.647 10.6039 233.117 9.96578C235.223 11.242 236.991 13.0062 238.251 15.0894ZM226.668 7.84501C228.83 8.05145 230.861 8.68956 232.647 9.70303C232.215 10.2848 231.726 10.8291 231.181 11.2795C229.902 9.90947 228.379 8.74587 226.668 7.84501ZM231.124 11.9739C232.403 13.4191 233.437 15.0894 234.152 16.8911C232.911 17.3228 231.613 17.6606 230.316 17.9046C229.996 16.3093 229.526 14.7516 228.906 13.2501C229.695 12.9311 230.447 12.4994 231.124 11.9739ZM228.417 13.4378C229.018 14.9017 229.488 16.4407 229.808 17.9984C228.398 18.2424 226.95 18.3738 225.502 18.3925V13.9633C226.518 13.9446 227.495 13.7569 228.417 13.4378ZM222.08 13.4191C223.001 13.7381 223.979 13.9258 224.976 13.9446V18.3738C223.528 18.3738 222.099 18.2236 220.689 17.9796C221.008 16.4219 221.478 14.883 222.08 13.4003M220.595 18.5051C222.043 18.7491 223.509 18.8805 224.976 18.8993V22.6904H220.2C220.2 21.2828 220.35 19.8752 220.595 18.5051ZM215.18 23.2159H219.692C219.692 24.661 219.843 26.0874 220.087 27.4762C218.752 27.7389 217.436 28.0955 216.138 28.5272C215.556 26.8568 215.217 25.0739 215.18 23.1971M215.819 29.2028C216.552 31.0796 217.605 32.7875 218.94 34.2889C218.376 34.7769 217.85 35.3399 217.398 35.978C215.292 34.7206 213.506 32.9564 212.228 30.8356C213.374 30.1975 214.578 29.672 215.819 29.2216M217.85 36.222C218.282 35.6402 218.752 35.1335 219.279 34.6643C220.557 36.0156 222.08 37.1604 223.772 38.0425C221.648 37.836 219.636 37.1979 217.831 36.222M219.692 34.3452C220.331 33.8572 221.027 33.4631 221.779 33.1441C222.494 34.7769 223.378 36.3346 224.431 37.7985C222.625 36.9164 221.027 35.734 219.692 34.3264M224.976 37.6671C223.885 36.1845 222.983 34.608 222.268 32.9564C223.133 32.6561 224.036 32.4872 224.976 32.4684V37.6671ZM225.502 32.4684C226.442 32.4872 227.364 32.6561 228.21 32.9564C227.495 34.608 226.574 36.1845 225.502 37.6859V32.4684ZM228.718 33.1441C229.47 33.4444 230.165 33.8572 230.805 34.3452C229.47 35.7528 227.871 36.9352 226.066 37.8173C227.119 36.3346 228.003 34.7769 228.718 33.1441ZM226.687 38.0612C228.398 37.1604 229.921 36.0156 231.2 34.6643C231.726 35.1147 232.215 35.6402 232.629 36.2032C230.842 37.1979 228.83 37.8548 226.687 38.0612ZM233.099 35.9405C232.647 35.3211 232.121 34.7581 231.557 34.2701C232.892 32.7687 233.945 31.0608 234.678 29.1841C235.9 29.6345 237.104 30.1787 238.269 30.7981C236.991 32.9001 235.205 34.6643 233.099 35.9405ZM238.514 30.3664C237.329 29.7283 236.107 29.1653 234.847 28.7149C235.449 26.9882 235.806 25.1302 235.825 23.2159H240.432C240.394 25.8058 239.698 28.2457 238.495 30.3664" fill="#EA4F12"/>
<path d="M226.837 26.5753L230.654 28.3207L228.849 24.4546L233.775 23.2534V22.6529L228.849 21.4329L230.729 17.4729L226.799 19.3122L225.577 12.3118H224.881L223.697 19.3122L219.786 17.4729L221.61 21.4329L216.702 22.6529V23.2347L221.61 24.417L219.842 28.3395L223.678 26.5941L224.881 33.5945H225.558L226.837 26.5753Z" fill="white"/>
<path d="M225.257 12.687L226.536 19.8563L229.977 18.2235L228.341 21.658L233.493 22.9343L228.341 24.2292L229.902 27.5887L226.536 26.0497L225.239 33.144L223.96 26.0497L220.594 27.5887L222.136 24.2292L217.003 22.9343L222.136 21.658L220.538 18.2235L223.96 19.8376L225.257 12.687Z" fill="#009846"/>
</g>
<defs>
<clipPath id="clip0_583_2117">
<rect width="256" height="46" fill="white"/>
</clipPath>
</defs>
</svg>
