<svg width="39" height="46" viewBox="0 0 39 46" fill="none" xmlns="http://www.w3.org/2000/svg">
<g clip-path="url(#clip0_583_3362)">
<path d="M35.5054 40.3848V38.4655H38.8447V37.7993H31.1721V38.4655H34.4959V40.3848H31.0479V41.0352H38.9379V40.3848H35.5054Z" fill="#231815"/>
<path d="M31.9798 34.7062H38.006V35.7531H38.9224V34.3414C38.9224 34.1669 38.7982 34.0242 38.6118 34.0242H35.024C35.3346 33.8973 35.4899 33.7069 35.4899 33.3104V33.2311H34.4804V33.4531C34.4804 33.6752 34.4182 33.9449 34.0921 34.0083H31.3585C31.1876 34.0083 31.0479 34.1511 31.0479 34.3256V35.7373H31.9798V34.6904V34.7062Z" fill="#231815"/>
<path d="M32.3215 36.4987C31.9332 36.6732 31.5915 36.7207 31.1411 36.7842V37.4345C32.0264 37.3552 32.8962 37.1173 33.5019 36.6256C33.9679 36.229 34.2009 35.8166 34.3562 35.1821H33.3C33.1447 35.8166 32.8962 36.229 32.3215 36.4987Z" fill="#231815"/>
<path d="M36.6548 35.1821H35.5986C35.7539 35.8166 35.9869 36.229 36.4529 36.6256C37.0431 37.1173 37.9439 37.3552 38.8292 37.4504V36.8001C38.3943 36.7366 38.0837 36.7049 37.6954 36.5145C37.1207 36.2449 36.7946 35.8325 36.6393 35.198" fill="#231815"/>
<path d="M23.1735 35.2772H22.4746V36.5779H23.1735V35.2772Z" fill="#231815"/>
<path d="M28.4854 39.5124V35.8324C28.4854 35.6579 28.3611 35.5151 28.1903 35.5151H25.7052C25.5343 35.5151 25.3946 35.6579 25.3946 35.8324V37.4662C25.379 39.3696 25.1305 39.9407 24.5869 40.48V41.1144C25.1616 40.7972 26.3265 40.242 26.3265 37.4186V36.1972H27.5379V39.6393C27.5379 40.4482 28.1592 40.9082 28.8737 41.051L29.1843 41.0827V40.4165C28.7494 40.3531 28.4698 39.9565 28.4698 39.4965" fill="#231815"/>
<path d="M8.57355 33.3579H3.26172V34.0083H8.57355V33.3579Z" fill="#231815"/>
<path d="M3.91415 36.7207H7.28452C7.85919 36.7207 8.32514 36.2449 8.32514 35.6738V34.8807C8.32514 34.7062 8.18535 34.5635 8.01451 34.5635H3.91415C3.7433 34.5635 3.60352 34.7062 3.60352 34.8807V36.4035C3.60352 36.578 3.72777 36.7207 3.89862 36.7207M4.53542 35.2138H7.39324V35.658C7.39324 35.88 7.20686 36.0545 6.98942 36.0545H4.53542V35.2138Z" fill="#231815"/>
<path d="M2.95111 34.5792H1.80177C2.1124 34.4524 2.26772 34.2144 2.26772 33.8813V33.2627H1.36688V34.0241C1.36688 34.2461 1.30475 34.5475 0.978588 34.5634H0.170942V35.2296H2.08134C1.67751 36.3082 0.543701 37.133 0.015625 37.482V38.1165C0.43498 37.942 0.90093 37.7675 1.21156 37.5613V41.0192H2.14346V37.5296C2.39197 37.6882 2.7492 37.8944 3.10643 38.0372V37.3392C2.79579 37.0855 2.53175 36.9586 2.28325 36.6572C2.92005 35.9275 3.10643 35.2296 3.18408 34.8648C3.23068 34.6744 3.07536 34.5634 2.96664 34.5634" fill="#231815"/>
<path d="M8.26282 37.26H3.5412C3.38588 37.26 3.24609 37.3869 3.24609 37.5297V40.7179C3.24609 40.8924 3.37035 41.0352 3.5412 41.0352H7.5173C8.09197 41.0352 8.55792 40.5752 8.55792 39.9883V37.5773C8.55792 37.4028 8.43367 37.26 8.26282 37.26ZM5.43606 40.3848H4.16246V39.449H5.43606V40.3848ZM5.43606 38.7828H4.16246V37.9104H5.43606V38.7828ZM7.64155 39.9724C7.64155 40.1945 7.47071 40.3848 7.23773 40.3848H6.36796V39.449H7.64155V39.9724ZM7.64155 38.7828H6.36796V37.9104H7.64155V38.7828Z" fill="#231815"/>
<path d="M29.0287 34.0399C29.0287 34.0399 27.3513 34.0399 27.1494 34.0399C27.46 33.913 27.6153 33.6275 27.5998 33.3261V33.2627H26.6989V33.4848C26.6989 33.7068 26.6368 33.9765 26.3107 34.0399H24.8662V34.7061H29.0442V34.0399H29.0287Z" fill="#231815"/>
<path d="M17.6132 37.5931L17.5045 37.5613C17.0385 37.3234 17.0851 36.8 17.0851 36.451V35.1662H16.2153V36.5303C16.2464 37.5138 16.8521 38.0848 17.5045 38.1958H17.5977V41.0827H18.5296V33.3103H17.5977V37.5931H17.6132Z" fill="#231815"/>
<path d="M12.0216 36.4034C12.0216 38.1641 12.177 38.9572 10.748 40.4324V41.1144C13.0157 39.7186 12.9069 38.4655 12.938 36.562V33.3103H12.0061V36.4034H12.0216Z" fill="#231815"/>
<path d="M11.6023 36.6573V35.1663H10.7325V36.578C10.7325 36.9111 10.748 37.2442 10.4995 37.6725V38.3069C11.1208 38.0056 11.5557 37.387 11.6178 36.6573" fill="#231815"/>
<path d="M14.7709 37.5931L14.6622 37.5613C14.1962 37.3234 14.2428 36.8 14.2428 36.451V35.1662H13.373V36.5303C13.4196 37.5138 14.0098 38.0848 14.6622 38.1958H14.7554V41.0827H15.6873V33.3103H14.7554V37.5931H14.7709Z" fill="#231815"/>
<path d="M24.8817 36.8318H24.4779V34.3573C24.4779 34.1828 24.3381 34.0401 24.1673 34.0401C24.1673 34.0401 23.1422 34.0401 22.9403 34.0401C23.2509 33.9132 23.4062 33.6435 23.3907 33.3263V33.2469H22.4743V33.469C22.4743 33.6911 22.4277 33.9607 22.086 34.0242H21.4492C21.2784 34.0242 21.1541 34.1669 21.1541 34.3414V36.8159H20.7348V37.498H21.1541C21.1541 38.4656 21.2628 39.8297 20.7192 40.4959V41.1304C22.0394 40.3373 22.0394 39.3856 22.055 37.498H22.4588V39.0207H23.1577V37.498H23.5615V39.4649C23.5615 39.9249 23.2198 40.3214 22.7849 40.3849V41.0511L23.0956 41.0194C23.81 40.8766 24.4779 40.4007 24.4779 39.6076V37.498H24.8817V36.8159V36.8318ZM23.5771 36.8318H22.0705V34.7221H23.5771V36.8318Z" fill="#231815"/>
<path d="M23.1421 42.8276H22.6606V45.9366H23.1421V42.8276Z" fill="#231815"/>
<path d="M29.7896 42.8276H29.3081V45.9366H29.7896V42.8276Z" fill="#231815"/>
<path d="M20.5329 42.8276L19.3369 45.9366H19.7563L20.1135 44.9849H21.4492L21.822 45.9366H22.319L21.1075 42.8276H20.5484H20.5329ZM20.2688 44.6042L20.7969 43.2242L21.325 44.6042H20.2688Z" fill="#231815"/>
<path d="M5.10986 44.7787C5.10986 44.9849 5.0788 45.1435 5.00114 45.2704C4.87689 45.4925 4.67498 45.6035 4.28669 45.6035C3.89839 45.6035 3.71201 45.4925 3.57223 45.2704C3.49457 45.1435 3.46351 44.9849 3.46351 44.7787V42.8276H2.99756V44.5407C2.99756 44.9056 3.04415 45.2069 3.15288 45.4132C3.35479 45.7938 3.72755 45.9842 4.27115 45.9842C4.81476 45.9842 5.21859 45.7938 5.40497 45.4132C5.51369 45.2069 5.56028 44.9214 5.56028 44.5407V42.8276H5.10986V44.7787Z" fill="#231815"/>
<path d="M17.8306 44.7787C17.8306 44.9849 17.7995 45.1435 17.7218 45.2704C17.5821 45.4925 17.3957 45.6035 17.0074 45.6035C16.6191 45.6035 16.4327 45.4925 16.2929 45.2704C16.2153 45.1435 16.1842 44.9849 16.1842 44.7787V42.8276H15.7183V44.5407C15.7183 44.9056 15.7649 45.2069 15.8736 45.4132C16.0755 45.7938 16.4482 45.9842 16.9919 45.9842C17.5355 45.9842 17.9393 45.7938 18.1257 45.4132C18.2344 45.2069 18.281 44.9214 18.281 44.5407V42.8276H17.8306V44.7787Z" fill="#231815"/>
<path d="M11.1828 44.1125H9.47434V42.8276H9.02393V45.9366H9.47434V44.4932H11.1828V45.9366H11.6332V42.8276H11.1828V44.1125Z" fill="#231815"/>
<path d="M33.6884 43.3828V45.3973C33.6884 45.6987 33.9214 45.9366 34.2165 45.9366H36.0647V45.5559H34.3252L34.1388 45.3656V44.5407H35.9249V44.1601H34.1388V43.3987L34.3252 43.2083H36.0647V42.8276H34.2165C33.9214 42.8276 33.6729 43.0656 33.6729 43.3828" fill="#231815"/>
<path d="M38.6584 44.4138C38.441 44.2869 37.6644 44.1283 37.6644 44.1283C37.3538 44.049 37.214 43.9697 37.1363 43.938L36.981 43.6683C36.981 43.2718 37.3538 43.1607 37.6799 43.1607C38.0061 43.1607 38.1925 43.24 38.3167 43.3828L38.441 43.7476H38.9069C38.8914 43.478 38.8137 43.2083 38.5342 43.018C38.2857 42.8593 38.0061 42.78 37.6644 42.78C37.0587 42.78 36.5306 43.0655 36.5151 43.7159C36.5151 43.9697 36.6238 44.1759 36.8568 44.3187C36.981 44.398 37.1829 44.4614 37.4625 44.509C37.4625 44.509 38.208 44.6359 38.4099 44.7945C38.4876 44.8421 38.5342 44.9373 38.5342 45.0959C38.5342 45.5083 38.0527 45.6193 37.7265 45.6193C37.3538 45.6193 37.1363 45.5083 37.0121 45.3338L36.8878 44.9214H36.4219C36.4219 45.1911 36.4995 45.4766 36.7636 45.6987C37.0121 45.9049 37.3227 46 37.711 46C38.0527 46 38.3478 45.9207 38.5963 45.778C38.8603 45.6352 38.9846 45.3973 38.9846 45.0642C38.9846 44.7945 38.8759 44.5566 38.6584 44.4138Z" fill="#231815"/>
<path d="M27.5689 45.5718L27.3825 45.3814V42.8276H26.9321V45.3814C26.9321 45.6828 27.1651 45.9366 27.4602 45.9366H29.06V45.5718H27.5689Z" fill="#231815"/>
<path d="M32.6013 45.3338L30.9705 42.8276H30.4424V45.9366H30.9083V43.4463L32.5392 45.9366H33.0362V42.8276H32.6013V45.3338Z" fill="#231815"/>
<path d="M8.5427 43.1925V42.8276H6.10423V43.2083H7.9525L5.97998 45.5718V45.9366H8.55824V45.5718H6.55465L8.5427 43.1925Z" fill="#231815"/>
<path d="M26.171 44.2394C26.3885 43.9221 26.3729 43.1766 25.8138 42.9387C25.6429 42.8594 25.441 42.8276 25.2081 42.8276H23.9966V45.9366H24.447V44.6676H25.3012L25.9536 45.9366H26.4661L25.7517 44.5883C25.9225 44.5249 26.0157 44.4773 26.171 44.2552M25.2546 44.2711H24.4315V43.2083H25.3323C25.4721 43.2083 25.8448 43.3035 25.8448 43.7159C25.8448 44.1918 25.441 44.2711 25.2546 44.2711Z" fill="#231815"/>
<path d="M13.6525 42.7483C13.1089 42.7483 12.7051 42.9386 12.4411 43.3193C12.0838 43.811 11.9285 44.8262 12.5187 45.5242C12.8138 45.8414 13.2177 46 13.6991 46C14.2272 46 14.631 45.8255 14.8951 45.4766C15.1281 45.1752 15.2523 44.7945 15.2523 44.3504C15.2523 43.9379 15.1436 43.589 14.9261 43.3035C14.6466 42.9386 14.2117 42.7642 13.6525 42.7642M14.5378 45.2545C14.367 45.5083 14.0874 45.651 13.6991 45.651C13.2798 45.651 13.0157 45.54 12.8449 45.3179C12.41 44.7469 12.5498 43.8428 12.8915 43.4938C13.1089 43.2717 13.373 43.1607 13.7147 43.1607C14.0564 43.1607 14.3204 43.2717 14.5068 43.4779C14.6932 43.6842 14.8019 43.9697 14.8019 44.3345C14.8019 44.6835 14.7087 44.9848 14.5378 45.2545Z" fill="#231815"/>
<path d="M0.932115 42.8276H0.807862C0.51276 42.8276 0.279785 43.0814 0.279785 43.3828V45.9366H0.745735V44.5407H2.32996V44.1442H0.745735V43.4145L0.901052 43.2401H2.53188V42.8435H0.932115V42.8276Z" fill="#231815"/>
<path d="M28.5785 3.7435C28.4853 4.10832 28.0349 4.23522 27.5068 4.23522C26.8079 4.23522 26.5438 4.17177 25.2237 4.14005C23.8258 4.10832 23.0182 4.18763 22.8163 4.23522C22.5988 4.29867 22.4901 4.44143 22.4901 4.60005C22.4901 4.75867 22.6143 4.91729 22.8939 4.88557C23.8258 4.80626 24.8354 4.72694 26.2953 4.88557C28.3145 5.09177 29.4793 6.10694 29.4793 7.56625C29.4793 9.23177 28.0504 10.1835 25.8915 10.7863C24.9596 11.04 23.3754 11.4366 22.1795 11.8173C18.8867 12.88 16.6968 14.9263 16.6968 17.9718C16.6968 21.0173 19.3372 23.4283 22.459 23.4759C24.416 23.5076 26.0779 22.7463 27.1185 21.6518C28.1747 20.5414 28.563 18.7807 28.066 17.6069C27.5379 16.3063 26.2177 15.7828 24.913 15.9256C23.8413 16.0525 23.1735 16.7821 23.1735 17.5435C23.1735 18.3049 23.7792 18.9394 24.5247 18.9394C24.7577 18.9394 24.9752 18.8759 25.1771 18.7649C25.1771 19.7325 24.4471 20.7318 22.7697 20.7318C21.0922 20.7318 19.7099 19.3359 19.7099 17.6069C19.7099 15.878 21.201 14.0538 24.2452 13.5621C24.5092 13.5145 24.8043 13.4828 25.0994 13.4669C27.7553 13.1656 30.7995 12.5628 33.0516 10.7228C32.3061 7.82005 30.7063 5.28212 28.5319 3.39453L28.563 3.75936" fill="#C7000B"/>
<path d="M29.5414 14.7041C30.5043 15.529 31.1101 16.7345 31.1722 18.2255C31.3275 22.191 27.2582 25.9345 22.4434 25.9345C17.6286 25.9345 13.7146 22.4924 13.7146 18.2255C13.7146 13.4352 18.2654 10.8497 21.2475 9.88207C23.7325 9.0731 24.5246 8.88276 25.441 8.48621C26.0312 8.21655 26.2797 7.89931 26.2797 7.50276C26.2797 7.10621 25.9691 6.82069 25.4721 6.75724C24.7265 6.66207 23.4219 6.72552 22.1949 6.97931C20.3 7.37586 20.0049 7.91517 18.9798 7.91517C18.1722 7.91517 17.5043 7.39172 17.2558 6.66207C17.0384 6.04345 17.3801 5.96414 17.9547 5.88483C18.2964 5.83724 18.9798 5.74207 19.2749 5.45655C19.4924 5.25034 19.4458 5.04414 19.57 4.69517C19.8341 3.94965 20.4398 3.5531 21.2164 3.41034C22.3191 3.20414 23.9966 3.22 26.0157 3.20414C26.6525 3.20414 26.9631 3.14069 27.1184 2.90276C27.2737 2.66483 27.1805 2.34759 26.932 2.1731C24.7887 0.793103 22.2415 0 19.5079 0C11.7576 0 5.46729 6.40828 5.46729 14.3234C5.46729 15.0372 5.52941 15.7669 5.6226 16.4648C6.66322 14.1648 8.34064 12.3724 10.3908 11.0717C11.5712 10.3262 12.3789 9.75517 12.8914 9.24759C13.6525 8.50207 13.9631 7.59793 13.2486 7.13793C12.5342 6.66207 10.5151 6.70965 8.69787 7.59793C9.31914 5.20276 10.9034 4.14 12.208 3.74345C13.668 3.29931 14.8639 3.5531 16.1375 3.41034C17.3335 3.28345 18.5294 2.98207 19.073 2.03034C18.84 2.99793 18.079 4.10828 16.2773 4.4731C14.5999 4.80621 13.3884 4.29862 12.3633 5.67862C14.0718 5.34552 15.7958 5.59931 16.3705 6.93172C16.9452 8.28 15.9201 9.81862 14.5688 11.151C13.0001 12.7055 11.5246 14.9579 11.5246 18.0352C11.5246 23.349 16.0443 27.6634 21.6202 27.6634C24.5712 27.6634 27.3825 26.4579 29.3705 24.5228C31.9332 21.9214 33.533 18.3207 33.533 14.3393C33.533 13.5462 33.4709 12.769 33.3466 11.9917C32.4768 13.0862 31.1877 14.2441 29.5569 14.7041" fill="#C7000B"/>
<path d="M20.6104 28.5676C14.3046 28.5676 9.19464 23.5711 9.19464 17.4007C9.19464 16.338 9.36549 15.2752 9.64506 14.2917C8.01423 15.1324 6.72511 16.5442 5.99512 18.2573C7.67254 24.2531 13.0776 28.6469 19.4921 28.6469C19.9891 28.6469 20.4862 28.6152 20.9676 28.5676H20.6104Z" fill="#C7000B"/>
</g>
<defs>
<clipPath id="clip0_583_3362">
<rect width="39" height="46" fill="white"/>
</clipPath>
</defs>
</svg>
