<svg width="33" height="45" viewBox="0 0 33 45" fill="none" xmlns="http://www.w3.org/2000/svg">
<g clip-path="url(#clip0_583_3397)">
<path d="M13.6989 4.72986C13.6989 3.06691 14.9802 1.71747 16.575 1.71747C18.1698 1.71747 19.4511 3.06691 19.4511 4.72986C19.4511 6.39281 18.1562 7.72862 16.575 7.72862C14.9939 7.72862 13.6989 6.37918 13.6989 4.72986ZM16.575 18.9331C17.3929 17.2429 19.5193 16.3432 21.3185 15.7435C21.8365 15.5663 22.0682 15.4981 22.6952 15.2528C26.321 13.8352 28.7609 11.1908 28.7745 8.17844C28.7745 3.93928 23.9901 0.449814 17.8563 0.0272615C25.5986 0.449814 31.6915 4.7026 31.6915 9.89591C31.6915 13.3717 29.3198 16.2615 24.8489 18.1834C23.0496 18.9603 17.7473 20.5688 16.5886 26.2664C15.3619 20.5551 10.1141 18.9603 8.31479 18.1834C3.84392 16.2615 1.47217 13.3581 1.47217 9.89591C1.47217 4.67534 7.55147 0.422553 15.3074 0C9.1599 0.422553 4.37551 3.91202 4.37551 8.15118C4.37551 11.1772 6.81541 13.8079 10.4548 15.2255C11.0818 15.4709 11.3136 15.5527 11.8315 15.7162C13.6171 16.3296 15.7572 17.2156 16.575 18.9058M16.575 14.0124C17.3656 13.2627 18.4015 13.1673 19.3148 12.9628C23.5812 12.0223 26.3755 9.70508 26.3755 6.77447C26.3755 5.5886 25.8848 4.48451 25.0533 3.53036C23.6494 1.94919 21.2504 0.776952 18.4288 0.422553C23.663 0.995043 27.6568 3.98017 27.6568 7.57869C27.6568 10.7955 24.6853 13.14 20.0781 14.4622C18.0744 15.0347 17.1202 15.4164 16.6023 16.3296C16.0843 15.4164 15.1165 15.0347 13.1264 14.4622C8.51926 13.14 5.54776 10.7819 5.54776 7.57869C5.5205 3.98017 9.50067 0.995043 14.7349 0.422553C11.8997 0.776952 9.50067 1.93556 8.11033 3.53036C7.26523 4.48451 6.77452 5.5886 6.77452 6.77447C6.77452 9.70508 9.56882 12.0223 13.8352 12.9628C14.7485 13.1673 15.7844 13.2627 16.575 14.0124ZM16.575 10.7546C20.8005 10.7546 24.2355 8.47831 24.2355 5.67038C24.2355 3.47584 22.15 1.60843 19.2194 0.885997C22.6816 1.62206 25.1896 3.74845 25.1896 6.27014C25.1896 9.15985 21.9183 11.2317 18.8105 11.7088C17.2838 11.9405 16.9567 11.995 16.575 12.4176C16.1934 11.9814 15.8662 11.9405 14.3396 11.7088C11.2318 11.2317 7.9604 9.15985 7.9604 6.27014C7.9604 3.74845 10.4685 1.62206 13.9307 0.885997C11 1.60843 8.91455 3.47584 8.91455 5.67038C8.91455 8.47831 12.3495 10.7546 16.575 10.7546ZM24.6989 23.2677C24.3991 23.4312 24.1673 23.8265 24.1264 24.2218C24.0447 24.9033 24.5354 25.544 25.2033 25.6258C25.8712 25.7076 26.5118 25.176 26.58 24.4535C26.6345 23.7584 26.2256 23.0632 25.5031 22.6952C24.4263 22.1363 22.9951 22.2862 21.9183 22.6952C19.5056 23.6221 17.4746 25.9938 16.725 27.1797C17.9926 22.4771 23.1178 18.347 27.6977 20.4325C29.2652 21.1413 30.2875 22.777 30.1649 24.5217C30.0285 26.4981 28.5292 28.1747 26.2528 28.202C25.1896 28.202 24.181 27.7113 23.663 26.9888C22.777 25.7757 23.1314 23.8947 24.6989 23.2677ZM8.42384 23.2677C8.71009 23.4312 8.95544 23.8265 8.99633 24.2218C9.07812 24.9033 8.58741 25.544 7.9195 25.6258C7.23797 25.7076 6.61095 25.176 6.5428 24.4535C6.48828 23.7584 6.8972 23.0632 7.61963 22.6952C8.69646 22.1363 10.1277 22.2862 11.2181 22.6952C13.6308 23.6221 15.6481 25.9938 16.4114 27.1797C15.1438 22.4771 10.0186 18.347 5.42508 20.4325C3.85755 21.1413 2.83524 22.777 2.95792 24.5217C3.09423 26.4981 4.59361 28.1747 6.86994 28.202C7.93313 28.202 8.94181 27.7113 9.45978 26.9888C10.3458 25.7757 9.99137 23.8947 8.42384 23.2677Z" fill="#E60012"/>
<path d="M21.2228 43.7546C20.9911 44.0545 20.6367 44.2317 20.2414 44.2317C19.5462 44.2317 18.9737 43.6456 18.9737 42.9095C18.9737 42.1735 19.5462 41.5873 20.2414 41.5873C20.6367 41.5873 20.9911 41.7782 21.2228 42.0644V41.4374C20.9502 41.2329 20.6094 41.1239 20.2414 41.1239C19.2872 41.1239 18.5239 41.9145 18.5239 42.8959C18.5239 43.8773 19.2872 44.6679 20.2414 44.6679C20.5958 44.6679 20.9366 44.5452 21.2228 44.3544V43.7274V43.7546Z" fill="#E60012"/>
<path d="M8.05557 42.0781L8.62806 43.3321H7.49671L8.05557 42.0781ZM6.40625 44.5861H6.92422L7.30588 43.7547H8.81889L9.21418 44.5861H9.71852L8.0692 41.0558L6.41988 44.5861H6.40625Z" fill="#E60012"/>
<path d="M14.8167 41.6691C15.4846 41.6691 16.0298 42.2143 16.0298 42.8959C16.0298 43.5774 15.5119 44.1499 14.844 44.1499H14.2578V41.6691H14.8303H14.8167ZM13.7808 41.2329V44.5997H14.8031C15.7845 44.5997 16.4933 43.85 16.4933 42.9231C16.4933 42.0508 15.8799 41.2465 14.8031 41.2465H13.7808V41.2329Z" fill="#E60012"/>
<path d="M0.108846 42.8823C0.108846 43.8637 0.831274 44.6815 1.82632 44.6815C2.88951 44.6815 3.54379 43.7546 3.53016 42.8686H2.05804V43.2912H3.02582C2.91678 43.632 2.54875 44.2181 1.81269 44.2181C1.07663 44.2181 0.545029 43.632 0.545029 42.8959C0.545029 42.1598 1.11752 41.5873 1.81269 41.5873C2.23524 41.5873 2.64416 41.8327 2.88951 42.2007L3.23028 41.9145C2.94404 41.4647 2.39881 41.1239 1.81269 41.1239C0.735859 41.1239 0.0952148 42.0781 0.0952148 42.8823" fill="#E60012"/>
<path d="M10.0869 44.5861H10.5367V42.1462L13.0993 44.7633V41.2329H12.6222V43.6592L10.0869 41.0421V44.5861Z" fill="#E60012"/>
<path d="M3.92578 41.233V44.5998H4.38923V41.6419H4.8663C5.12529 41.6419 5.41153 41.86 5.41153 42.1871C5.41153 42.4598 5.2207 42.746 4.8663 42.746H4.48464L5.67051 44.5861H6.21574L5.17981 43.0595C5.52058 42.9777 5.86135 42.6233 5.86135 42.1326C5.86135 41.6419 5.45242 41.2194 4.96172 41.2194H3.92578V41.233Z" fill="#E60012"/>
<path d="M24.3856 41.2329H23.9358V42.5687H22.3682V41.2329H21.9048V44.5861H22.3682V42.9913H23.9358V44.5861H24.4128V41.2329H24.3856Z" fill="#E60012"/>
<path d="M25.585 41.2329H25.1216V44.5861H25.585V41.2329Z" fill="#E60012"/>
<path d="M26.3481 44.5861H26.8116V42.1462L29.3742 44.7633V41.2329H28.8971V43.6592L26.3481 41.0421V44.5861Z" fill="#E60012"/>
<path d="M31.3504 42.0781L31.9229 43.3321H30.7916L31.3504 42.0781ZM29.6875 44.5861H30.1918L30.5871 43.7547H32.1001L32.4818 44.5861H32.9861L31.3368 41.0558L29.6875 44.5861Z" fill="#E60012"/>
<path d="M15.3207 33.8042C15.0754 34.254 14.1485 35.4263 13.6851 35.8215L14.094 36.394C14.2575 36.2441 14.5847 35.9033 14.7074 35.7398V37.4572H15.3616V35.0037C15.4707 34.881 15.7433 34.4994 15.8796 34.2676L15.3207 33.8042Z" fill="#E60012"/>
<path d="M16.6704 33.9541V35.3581C16.5205 35.4399 15.7572 35.7534 15.3892 35.8624L15.7299 36.4485C16.0162 36.3667 16.5341 36.1486 16.6704 36.0805V36.8029C16.6704 37.1301 16.9022 37.3209 17.1748 37.3209H18.4424C18.9331 37.3209 19.1921 37.021 19.2467 36.6802C19.2739 36.5167 19.3012 36.1759 19.3012 36.0532L18.6469 35.8488V36.3258C18.6469 36.6121 18.497 36.762 18.238 36.762H17.4883C17.352 36.762 17.3111 36.6802 17.3111 36.5576V35.8351C17.979 35.508 18.8923 34.9491 19.1785 34.7174L18.6878 34.1722C18.238 34.5402 17.7473 34.8401 17.3111 35.0855V33.9541H16.6568H16.6704Z" fill="#E60012"/>
<path d="M16.2749 37.389V37.9752H13.8486V38.5885H16.2749V40.0198H16.9701V38.5885H19.3691V37.9752H16.9701V37.389H16.2749Z" fill="#E60012"/>
<path d="M12.4448 33.9814C11.8586 34.1995 10.6591 34.3904 10.1684 34.3904V36.544C10.1684 37.7163 10.073 38.6295 9.51416 39.4201L10.0458 39.8427C10.6182 39.0384 10.8091 38.057 10.8091 36.5577H11.4361V39.8427H12.0767V36.5577H12.7174V35.9306H10.8091V34.9901C11.5451 34.9356 12.2267 34.772 12.7174 34.5948L12.4448 33.9814Z" fill="#E60012"/>
<path d="M8.683 35.808H8.1923C8.11051 35.5353 7.98784 35.2082 7.89242 35.0174L7.31993 35.2355C7.38808 35.3581 7.51076 35.6171 7.57892 35.7943H7.00642V36.3804H8.16504V36.803H6.91101V37.4028H8.05599C7.89242 37.7572 7.33356 38.4114 6.87012 38.7658L7.23815 39.3247C7.59255 39.0248 7.93331 38.6159 8.17867 38.2342V39.8427H8.80568V38.0434C9.05103 38.2615 9.40543 38.6431 9.52811 38.7931L9.9234 38.2751C9.63716 37.9616 9.22823 37.6208 8.92836 37.4028H10.0052V36.803H8.80568V36.3804H9.93703V35.7943H9.33728C9.41906 35.658 9.60989 35.3036 9.65079 35.1673L9.05103 34.9901C8.96925 35.2082 8.77842 35.6444 8.71027 35.7807" fill="#E60012"/>
<path d="M8.15129 33.8314V34.3358H6.99268V34.9355H9.90965V34.3358H8.7783V33.8314H8.15129Z" fill="#E60012"/>
<path d="M25.5033 38.9293L25.626 39.0656H25.6805L25.7896 38.9975C25.7896 38.9975 25.8577 38.6294 25.885 38.3568L26.4847 38.5204C26.4711 38.6567 26.4439 38.8884 26.403 39.0384C26.2803 39.5291 25.9804 39.6517 25.7896 39.6517H25.2443C25.0944 39.6517 24.8627 39.4882 24.8627 39.1883V36.2713H24.3584V36.9801C24.3584 38.1387 24.1675 39.0656 23.745 39.7472L23.2134 39.2564C23.5541 38.7657 23.7313 37.9206 23.7313 36.762V35.6443H25.5033V38.9157V38.9293ZM21.564 37.4845L22.0684 37.3209C22.1774 37.5799 22.2865 37.9615 22.3819 38.3841L21.8367 38.534C21.7549 38.1115 21.6595 37.7298 21.564 37.4845ZM20.8689 36.394V34.3903H21.5777C21.6186 34.1994 21.6595 33.9541 21.7004 33.7496L22.3683 33.845C22.3137 34.0631 22.2728 34.2403 22.232 34.4039H23.118V39.2019C23.118 39.4882 22.8726 39.7335 22.5864 39.7335H21.973L21.823 39.0929H22.341L22.5182 38.9293V37.0074H21.4823C21.4823 38.1524 21.3323 39.0656 21.0461 39.7472L21.0188 39.8017L20.46 39.3791V39.3519C20.7462 38.7657 20.8825 38.0024 20.8825 37.0483V37.0074H20.4736V36.4076H20.8825L20.8689 36.394ZM22.5182 35.0037H21.4823V36.4076H22.5182V35.0037ZM22.082 35.1536C22.2047 35.4262 22.3137 35.767 22.3819 36.135L21.8503 36.3122C21.7958 35.9851 21.6731 35.5216 21.5777 35.2899L22.082 35.1672V35.1536ZM23.3088 35.1945V34.5538H24.2629V33.8314H24.9854V34.5538H26.0758V35.1945H23.3088Z" fill="#E60012"/>
<path d="M27.8204 37.1437L27.5205 36.4622C28.5428 36.3122 29.1017 35.9442 29.4697 35.2354L30.1103 35.5216C29.6605 36.4213 28.8427 36.9529 27.8204 37.1301M31.269 35.9033C31.269 36.0805 31.4189 36.2032 31.5552 36.2032H32.9183V36.8438H31.269C30.9282 36.8438 30.6011 36.5303 30.6011 36.1759V35.2763H31.269V35.9033ZM28.2838 35.8488H27.6023V34.3903H29.8923V33.8314H30.5874V34.3903H32.9046V35.8488H32.2231V35.0309H28.2702V35.8488H28.2838ZM33.0001 38.9293V39.5972H27.5205V38.9293H29.9059V37.9479H28.093V37.28H32.4685V37.9479H30.6011V38.9293H33.0001Z" fill="#E60012"/>
<path d="M3.65304 36.1078H5.67038V35.4262H3.13507C3.20322 34.99 3.25774 34.2812 3.25774 33.8314H2.53532C2.53532 34.2676 2.49442 34.9082 2.39901 35.4262H0.204461V36.1078H2.24907C1.89467 37.3481 1.10409 38.4659 0 39.2565L0.545229 39.8289C1.63569 39.052 2.64436 37.6344 2.99876 36.135C3.28501 37.6344 4.26642 39.0656 5.35688 39.8153L5.87485 39.2156C4.79802 38.5613 3.91202 37.3073 3.66667 36.0941" fill="#E60012"/>
</g>
<defs>
<clipPath id="clip0_583_3397">
<rect width="33" height="44.7633" fill="white"/>
</clipPath>
</defs>
</svg>
