<svg width="252" height="46" viewBox="0 0 252 46" fill="none" xmlns="http://www.w3.org/2000/svg">
<g clip-path="url(#clip0_583_3267)">
<path d="M53.8495 46L64.0106 0C64.0106 0 57.1429 0.0469707 55.9566 0.125255C55.8161 0.125255 54.427 0.250511 53.9587 0.610619C53.4905 0.986385 53.069 1.62832 52.554 2.27025C52.554 2.27025 28.9226 32.2219 28.8134 32.3628C27.4866 34.0381 26.1755 35.5412 25.2546 36.2771C23.2567 37.968 21.29 39.111 19.1829 39.8625C17.0913 40.614 -0.015625 46 -0.015625 46H53.8339H53.8495Z" fill="#0FA19C"/>
<path d="M42.7051 38.2343C42.549 38.8136 42.2836 39.3303 41.9403 39.7843C41.394 40.4889 40.7696 41.0212 40.0828 41.397C39.3961 41.7727 38.6937 41.9763 37.9601 42.0233C37.2265 42.0702 36.4929 41.9763 35.7593 41.7258C35.0257 41.4753 34.3233 41.0838 33.6521 40.5672C32.9653 40.0192 32.419 39.4242 31.9976 38.751C31.5762 38.0777 31.2952 37.3888 31.1704 36.6529C31.0455 35.9171 31.0611 35.1812 31.264 34.4296C31.4513 33.6781 31.8259 32.9422 32.3878 32.2377C32.7624 31.768 33.1839 31.3609 33.6677 31.0321C34.1516 30.7033 34.6823 30.4685 35.2286 30.3275C35.7749 30.1866 36.3524 30.1553 36.9299 30.2493C37.5074 30.3432 38.0849 30.5624 38.6468 30.9225L37.1328 32.8483C36.5241 32.5665 35.9622 32.4882 35.4315 32.6291C34.9008 32.77 34.4481 33.0832 34.0735 33.5685C33.7145 34.0226 33.496 34.4766 33.418 34.9307C33.3399 35.3847 33.3712 35.8231 33.5116 36.2615C33.6521 36.6842 33.8706 37.107 34.1828 37.4827C34.4794 37.8742 34.8384 38.2186 35.2442 38.5474C35.6344 38.8449 36.0402 39.0954 36.4773 39.2989C36.9143 39.5025 37.3513 39.6121 37.7884 39.6434C38.241 39.6747 38.6781 39.6121 39.0995 39.4242C39.5209 39.252 39.9111 38.9232 40.2701 38.4691C40.8008 37.7959 41.035 37.154 40.9881 36.512C40.9413 35.8857 40.6135 35.2751 40.0204 34.7115L38.4283 36.7469L36.9299 35.5569L39.958 31.7053L44.9059 35.6196L43.8913 36.9034L42.6895 36.2928C42.8612 37.013 42.8768 37.6706 42.7207 38.2499" fill="white"/>
<path d="M50.2911 27.4465C50.2599 27.9162 50.1507 28.3859 49.9477 28.8556C49.7448 29.3253 49.4795 29.7637 49.1517 30.1864L45.6554 34.633L36.5088 27.3995L39.8958 23.0782C40.2392 22.6398 40.5826 22.2797 40.9572 21.9665C41.3162 21.6691 41.6908 21.4655 42.0654 21.3403C42.44 21.215 42.8303 21.1994 43.2361 21.2933C43.6419 21.3872 44.0477 21.5908 44.4848 21.9352C44.953 22.2953 45.2496 22.7024 45.3901 23.1565C45.5305 23.6105 45.5461 24.1272 45.4057 24.6909C46.0144 24.2525 46.6231 24.0646 47.2475 24.0959C47.8718 24.1429 48.4649 24.3777 49.0425 24.8318C49.5107 25.1919 49.8385 25.599 50.0258 26.053C50.2287 26.5071 50.3067 26.9611 50.2911 27.4308M41.8001 28.3076L43.4078 26.2722C43.6887 25.9121 43.8448 25.552 43.8448 25.1762C43.8448 24.8161 43.6731 24.4717 43.2829 24.1742C43.0644 24.0019 42.8615 23.908 42.6586 23.8767C42.4713 23.8454 42.2683 23.8767 42.0966 23.9237C41.925 23.9863 41.7533 24.0959 41.5972 24.2368C41.4411 24.3777 41.285 24.5343 41.1445 24.7222L39.6617 26.6167L41.8001 28.3076ZM47.8406 27.3525C47.7469 27.149 47.5909 26.9611 47.3411 26.7576C46.8729 26.3818 46.4358 26.2565 46.03 26.3661C45.6242 26.4757 45.2496 26.7419 44.9062 27.1803L43.1736 29.3723L45.6866 31.3607L47.3879 29.2C47.544 28.9965 47.6689 28.793 47.7782 28.5894C47.8874 28.3859 47.9499 28.1667 47.9655 27.9631C47.9811 27.7596 47.9499 27.5561 47.8562 27.3525" fill="white"/>
<path d="M58.5786 18.1933L56.9241 20.2913L54.333 19.3676L51.6328 22.7964L53.1 25.1293L51.5079 27.1647L45.0928 16.4554L46.7161 14.3887L58.563 18.1933H58.5786ZM52.4288 18.71L48.1677 17.2069V17.2382L50.5714 21.0898L52.4444 18.71H52.4288Z" fill="white"/>
<path d="M75.8727 18.8196H81.9132V19.8686H75.7947C75.701 20.3383 75.623 20.808 75.5293 21.2778H76.5283C77.4023 24.3465 79.2598 26.5698 82.1629 27.9006V28.934C82.1629 28.934 82.0849 28.9183 82.0537 28.9027C80.4928 28.4173 79.1193 27.6345 77.933 26.5228C76.9185 25.5677 76.0912 24.4718 75.5293 23.1722C75.42 22.9374 75.342 22.6869 75.2484 22.452C75.2484 22.4207 75.2171 22.3737 75.2015 22.3111C75.1703 22.3737 75.1547 22.405 75.1391 22.4364C74.7645 23.4227 74.2494 24.3152 73.5782 25.1293C72.7978 26.0844 71.8769 26.8673 70.8467 27.5249C70.0351 28.0415 69.1766 28.4956 68.2869 28.8714C68.2401 28.887 68.1933 28.9027 68.1309 28.934V27.885C68.1309 27.885 68.1933 27.8537 68.2245 27.838C69.1298 27.3839 69.9727 26.836 70.7531 26.1784C71.8925 25.2076 72.7978 24.0647 73.4065 22.6869C73.7968 21.8257 74.0465 20.9176 74.187 19.9939C74.187 19.9626 74.187 19.9313 74.187 19.8843H68.3962V18.8196H74.2962C74.3431 17.6453 74.2962 16.4867 74.3118 15.3281H75.8571C75.8571 16.4867 75.8727 17.6453 75.8259 18.8196" fill="#0F779A"/>
<path d="M117.875 27.9163V28.9183H104.312V15.7979H117.75V16.7842H105.826V27.9163H117.875Z" fill="#0F779A"/>
<path d="M108.167 21.4813V17.8333H116.049C116.049 17.8333 116.049 17.9115 116.049 17.9428C116.049 18.6318 116.049 19.3363 116.049 20.0252C116.049 20.3227 115.987 20.6045 115.815 20.8707C115.628 21.1525 115.363 21.2934 115.05 21.3874C114.847 21.45 114.629 21.4813 114.41 21.4813C112.366 21.4813 110.321 21.4813 108.276 21.4813C108.245 21.4813 108.198 21.4813 108.151 21.4813M114.582 18.8196H109.65V20.4949H113.927C114.005 20.4949 114.098 20.4949 114.176 20.4793C114.41 20.448 114.535 20.3227 114.566 20.0878C114.566 20.0252 114.566 19.9782 114.566 19.9156C114.566 19.5868 114.566 19.2737 114.566 18.9449C114.566 18.9136 114.566 18.8666 114.566 18.8196" fill="#0F779A"/>
<path d="M112.522 26.8358V22.5771H117.096C117.096 22.5771 117.096 22.6398 117.096 22.6867C117.096 23.5948 117.096 24.5186 117.096 25.4267C117.096 25.6459 117.065 25.8651 116.987 26.0686C116.83 26.4444 116.534 26.6793 116.144 26.7732C115.956 26.8202 115.769 26.8515 115.582 26.8515C114.583 26.8515 113.584 26.8515 112.585 26.8515C112.569 26.8515 112.554 26.8515 112.522 26.8515M113.99 23.5635V25.8494C113.99 25.8494 114.068 25.8494 114.099 25.8494C114.442 25.8494 114.801 25.8494 115.145 25.8494C115.192 25.8494 115.223 25.8494 115.27 25.8494C115.488 25.8181 115.613 25.6929 115.644 25.4737C115.644 25.4424 115.644 25.411 115.644 25.3797C115.644 24.8004 115.644 24.2368 115.644 23.6731C115.644 23.6418 115.644 23.6105 115.644 23.5792H114.005L113.99 23.5635Z" fill="#0F779A"/>
<path d="M111.71 22.5771V25.3641C111.71 25.5676 111.71 25.7712 111.632 25.959C111.491 26.3974 111.195 26.6479 110.758 26.7575C110.571 26.8045 110.383 26.8358 110.196 26.8358C109.197 26.8358 108.198 26.8358 107.199 26.8358C107.184 26.8358 107.168 26.8358 107.137 26.8358V22.5771H111.71ZM108.588 25.8338C108.588 25.8338 108.651 25.8338 108.682 25.8338C109.057 25.8338 109.416 25.8338 109.79 25.8338C110.087 25.8338 110.243 25.6772 110.258 25.3797V25.3171C110.258 24.7691 110.258 24.2055 110.258 23.6418C110.258 23.6105 110.258 23.5635 110.258 23.5322H108.604V25.8025L108.588 25.8338Z" fill="#0F779A"/>
<path d="M153.697 16.6903V19.5242H152.198V17.7236H149.451C149.451 17.7236 149.451 17.8019 149.451 17.8489V20.5732C149.451 20.5732 149.451 20.6515 149.451 20.6828C149.467 20.855 149.576 20.9646 149.748 20.9959C149.826 20.9959 149.904 20.9959 149.982 20.9959H153.416V21.998C153.416 21.998 153.338 21.998 153.307 21.998H149.639C149.373 21.998 149.092 21.9667 148.827 21.8884C148.343 21.7475 148.047 21.4343 147.984 20.9176C147.969 20.7611 147.953 20.6045 147.953 20.4636C147.953 19.6025 147.953 18.7257 147.953 17.8645V17.7236C147.859 17.6923 142.022 17.6923 141.866 17.7236V19.5242H140.367V16.6903H146.751C146.751 16.6903 146.751 16.6903 146.751 16.6746C146.408 16.2832 146.158 15.8605 146.111 15.3281H147.812C147.844 15.8135 147.859 16.2989 148.187 16.6903H153.697Z" fill="#0F779A"/>
<path d="M154.01 28.9183H140.056V27.9163H146.268V24.597H140.961V23.595H153.12V24.5814H147.829C147.797 24.6753 147.782 27.6814 147.829 27.9006H154.041V28.9027L154.01 28.9183Z" fill="#0F779A"/>
<path d="M140.68 22.3111V21.3091C140.836 21.2778 140.992 21.2465 141.148 21.2151C141.663 21.1055 142.178 20.9959 142.678 20.8081C143.021 20.6828 143.349 20.5262 143.645 20.307C144.129 19.9469 144.426 19.4616 144.597 18.8979C144.629 18.7883 144.66 18.6631 144.691 18.5535H146.299C146.268 18.6944 146.221 18.8353 146.19 18.9605C146.002 19.5399 145.752 20.0722 145.362 20.5419C144.956 21.0273 144.441 21.3874 143.864 21.6379C143.286 21.8884 142.678 22.045 142.069 22.1389C141.632 22.2172 141.179 22.2642 140.742 22.3111C140.742 22.3111 140.711 22.3111 140.68 22.3111Z" fill="#0F779A"/>
<path d="M89.8426 27.102V26.8515C89.8426 26.648 89.8426 26.4601 89.8426 26.2566C89.8426 26.2096 89.8426 26.1626 89.8583 26.1313C90.0768 25.6146 90.2797 25.0979 90.4982 24.5656C90.545 24.5656 90.6075 24.5656 90.6543 24.5656C92.8239 24.5656 94.9779 24.5656 97.1474 24.5656C97.2099 24.5656 97.2879 24.5656 97.3504 24.5656C97.5689 24.5343 97.7406 24.3308 97.7562 24.1272C97.7562 24.0333 97.7562 23.955 97.7562 23.8454H89.7178V22.9216H99.2234C99.2234 22.9216 99.2234 22.9999 99.2234 23.0312C99.2234 23.407 99.2234 23.7984 99.2234 24.1742C99.2234 24.409 99.1766 24.6439 99.0829 24.8631C98.9736 25.0979 98.802 25.2545 98.5678 25.3485C98.3337 25.4424 98.0683 25.4894 97.8186 25.505C97.725 25.505 97.6469 25.505 97.5689 25.505H91.6376C91.544 25.7242 91.4503 25.9434 91.3567 26.1783H99.7697C99.7697 26.1783 99.7697 26.2566 99.7697 26.3035C99.7697 26.7263 99.7697 27.1647 99.7697 27.5874C99.7697 27.7753 99.7385 27.9632 99.7072 28.1354C99.6448 28.4485 99.4419 28.6677 99.1297 28.7773C98.8332 28.9026 98.521 28.9182 98.2244 28.9339C98.0059 28.9339 97.7874 28.9339 97.5689 28.9339H93.2609V28.0101C93.2609 28.0101 93.3546 28.0101 93.4014 28.0101C94.8374 28.0101 96.2734 28.0101 97.7093 28.0101C97.8186 28.0101 97.9279 28.0101 98.0215 27.9788C98.1932 27.9318 98.2869 27.8222 98.2869 27.65C98.2869 27.4778 98.2869 27.3212 98.2869 27.1333H89.8426V27.102Z" fill="#0F779A"/>
<path d="M96.4453 18.1933C96.4453 18.1933 96.4453 18.0994 96.4453 18.0681C96.4453 17.7236 96.4453 17.3635 96.4453 17.0191C96.4453 16.9408 96.4609 16.8938 96.5077 16.8468C96.8043 16.5024 97.0697 16.1579 97.2726 15.7509C97.3194 15.6569 97.3506 15.563 97.3974 15.4534H98.9583C98.7398 15.7822 98.5056 16.0796 98.2403 16.3458C97.9749 16.612 97.694 16.8781 97.413 17.1443C97.4599 17.1443 97.5067 17.1443 97.5535 17.1443C97.694 17.1443 97.8501 17.1287 97.9906 17.113C98.053 17.113 98.0842 17.0817 98.1154 17.0347C98.2091 16.8625 98.3183 16.6903 98.4276 16.5337C98.4432 16.5024 98.4744 16.4711 98.49 16.4398H100.051C100.051 16.4398 100.004 16.518 99.9884 16.5494C99.6451 17.0191 99.2705 17.4575 98.849 17.8645C98.49 18.2246 98.1154 18.5691 97.7408 18.9135C97.694 18.9605 97.6628 18.9918 97.616 19.0388C98.0374 19.0388 98.4432 19.0075 98.8802 18.9605C98.7866 18.6787 98.7242 18.4125 98.7242 18.115H99.8168C99.8168 18.115 99.8168 18.209 99.8168 18.2403C99.8324 18.4438 99.848 18.663 99.8792 18.8666C99.9104 19.0231 99.9885 19.1797 100.082 19.305C100.113 19.3363 100.129 19.3833 100.129 19.4302C100.129 19.712 100.129 19.9939 100.129 20.2757C100.129 20.2757 100.129 20.2914 100.129 20.3227C99.8636 20.1818 99.6295 19.9939 99.4109 19.7747C98.4432 20.0095 97.4755 20.1818 96.4765 20.2914V19.0075C96.7575 18.7413 97.0228 18.4438 97.3038 18.115C97.0072 18.1464 96.7419 18.162 96.4609 18.1777" fill="#0F779A"/>
<path d="M91.763 15.4377C91.3259 16.0797 90.8265 16.6277 90.2645 17.1287C90.4831 17.16 90.6704 17.1287 90.8889 17.113C91.0294 16.8938 91.1698 16.659 91.3103 16.4398H92.8868C92.5278 16.9408 92.1376 17.3792 91.7317 17.8176C91.3259 18.256 90.8889 18.6474 90.4518 19.0545C90.8577 19.0545 91.2635 19.0545 91.6849 18.9919C91.6069 18.6944 91.5444 18.4126 91.5288 18.1151H92.637C92.6526 18.5378 92.6214 18.9919 92.8868 19.3676V20.3384C92.7463 20.2757 92.6214 20.1974 92.4966 20.1035C92.3717 20.0096 92.2624 19.9156 92.1376 19.8217C91.2167 20.0565 90.2645 20.2131 89.2968 20.307C89.2656 20.2131 89.25 19.4146 89.2812 19.0545C89.4217 18.8979 89.5778 18.757 89.7026 18.6004C89.8431 18.4439 89.9836 18.303 90.1085 18.1464C90.1085 18.1464 90.1085 18.1464 90.1085 18.1307C89.8275 18.162 89.5309 18.1934 89.2344 18.209V16.9252C89.6558 16.4241 89.8275 16.1893 90.1709 15.4534H91.7474L91.763 15.4377Z" fill="#0F779A"/>
<path d="M93.1514 19.853H96.1638C96.1638 19.853 96.1638 19.9157 96.1638 19.947C96.1638 20.401 96.1638 20.8707 96.1638 21.3248C96.1638 21.4344 96.1638 21.544 96.1326 21.6536C96.0545 22.092 95.7736 22.3425 95.3522 22.4364C95.2117 22.4677 95.0712 22.4834 94.9307 22.4834C94.3688 22.4834 93.8069 22.4834 93.2294 22.4834C93.1982 22.4834 93.1826 22.4834 93.1357 22.4834V19.8687L93.1514 19.853ZM94.9151 20.7455H94.3844V21.5596C94.4937 21.5596 94.5873 21.5596 94.6966 21.5596C94.8371 21.5596 94.9151 21.4813 94.9151 21.3404C94.9151 21.1526 94.9151 20.949 94.9151 20.7455Z" fill="#0F779A"/>
<path d="M87.8293 23.0627H88.9062C88.9062 23.0627 88.9062 23.141 88.9062 23.1723C88.8906 23.9239 88.8438 24.6754 88.7189 25.4113C88.6253 25.9436 88.4848 26.4603 88.2663 26.9457C87.9229 27.6659 87.3922 28.2139 86.7211 28.6366C86.5494 28.7462 86.3777 28.8245 86.206 28.9184C86.1904 28.9184 86.1591 28.9341 86.1279 28.9497V27.4467C86.1279 27.4467 86.2216 27.3841 86.2684 27.3527C86.924 26.883 87.3298 26.2568 87.5483 25.5052C87.6576 25.1138 87.7356 24.7224 87.7668 24.3153C87.798 23.9395 87.798 23.5481 87.8136 23.1567C87.8136 23.141 87.8136 23.1097 87.8136 23.0784" fill="#0F779A"/>
<path d="M86.1748 15.3281H87.6576C87.6732 15.469 87.6888 15.6256 87.7044 15.7665C87.7513 16.0797 87.8137 16.3928 87.9386 16.6903C88.0947 17.0817 88.3444 17.3948 88.719 17.5984C88.7346 17.5984 88.7658 17.6297 88.7814 17.6453V18.6004C88.7814 18.6004 88.7346 18.6004 88.719 18.6004C88.2351 18.4282 87.7669 18.209 87.3611 17.8959C86.9084 17.5671 86.6275 17.113 86.4402 16.5963C86.2997 16.2049 86.2216 15.8135 86.1748 15.4064C86.1748 15.3751 86.1748 15.3594 86.1748 15.3281Z" fill="#0F779A"/>
<path d="M88.8282 22.2329C88.1102 22.0137 87.4859 21.6849 87.002 21.1369C86.4714 20.5419 86.2684 19.806 86.1592 19.0232H87.6576C87.6576 19.0232 87.6732 19.1328 87.6888 19.1954C87.7356 19.5555 87.7981 19.9156 87.9386 20.2601C88.1102 20.6672 88.3756 20.996 88.7658 21.2152C88.7658 21.2152 88.797 21.2152 88.797 21.2465C88.797 21.2465 88.797 21.2465 88.8126 21.2621V22.2329H88.8282Z" fill="#0F779A"/>
<path d="M93.043 16.9721V16.064H94.0731C93.8858 15.8448 93.7766 15.6099 93.7609 15.3281H95.4467C95.4467 15.5786 95.4311 15.8291 95.5715 16.064H96.2427C96.2739 16.1579 96.2895 16.7686 96.2583 16.9721H93.0273H93.043Z" fill="#0F779A"/>
<path d="M96.164 17.3167V18.1934H93.1672C93.1672 18.1934 93.136 17.4576 93.1672 17.3167H96.1796H96.164Z" fill="#0F779A"/>
<path d="M93.1514 18.5535H96.1638V19.4459H93.167C93.167 19.4459 93.1358 18.7257 93.167 18.5535" fill="#0F779A"/>
<path d="M89.4841 20.4792H90.5611C90.5455 20.9333 90.4987 21.356 90.2645 21.7475C90.0148 22.1545 89.6402 22.4207 89.2344 22.6556C89.2344 22.6086 89.2344 22.5773 89.2344 22.5616C89.2344 22.2954 89.2344 22.0136 89.2344 21.7475C89.2344 21.7005 89.25 21.6379 89.2812 21.6065C89.4217 21.4187 89.4841 21.1838 89.4997 20.949C89.4997 20.7924 89.4997 20.6515 89.4997 20.4792" fill="#0F779A"/>
<path d="M96.7107 20.4793H97.7877C97.7721 20.9177 97.7096 21.3404 97.5067 21.7318C97.2726 22.1546 96.8824 22.4207 96.4609 22.6556C96.4609 22.6243 96.4609 22.593 96.4609 22.5773C96.4609 22.2955 96.4609 22.0137 96.4609 21.7318C96.4609 21.7005 96.4609 21.6535 96.4922 21.6222C96.6795 21.3874 96.7263 21.1056 96.7419 20.8081C96.7419 20.6985 96.7419 20.5889 96.7419 20.4636" fill="#0F779A"/>
<path d="M91.7783 20.4793H92.6368C92.6524 20.8864 92.6056 21.3091 92.8865 21.6535V22.6399C92.8865 22.6399 92.8241 22.6243 92.8085 22.6086C92.2934 22.2798 91.9344 21.8414 91.8564 21.2152C91.8251 20.9803 91.7939 20.7298 91.7783 20.4636" fill="#0F779A"/>
<path d="M100.097 22.6555C99.5668 22.3111 99.161 21.8883 99.0829 21.2464C99.0517 21.0272 99.0361 20.7924 99.0205 20.5732C99.0205 20.5418 99.0205 20.5262 99.0205 20.4949H99.8634V20.6201C99.8634 20.8706 99.8634 21.1211 99.9414 21.356C99.9726 21.4499 100.019 21.5282 100.066 21.6222C100.082 21.6535 100.097 21.6848 100.097 21.7161C100.097 22.0136 100.097 22.3111 100.097 22.6086C100.097 22.6086 100.097 22.6242 100.097 22.6555Z" fill="#0F779A"/>
<path d="M97.9746 20.4792H98.8019C98.8019 20.4792 98.8019 20.5732 98.8019 20.6045C98.8019 20.8394 98.8175 21.0899 98.8955 21.3247C98.9111 21.403 98.9423 21.4969 98.9892 21.5596C99.036 21.6222 99.0516 21.7005 99.0516 21.7788C99.0516 22.0293 99.0516 22.2798 99.0516 22.5303C99.0516 22.5616 99.0516 22.6086 99.0516 22.6399C99.0516 22.6399 99.036 22.6399 99.0204 22.6399C98.4741 22.2798 98.0839 21.8101 98.0214 21.1368C98.0058 20.9333 97.9902 20.7141 97.9746 20.4949" fill="#0F779A"/>
<path d="M90.7637 20.4793H91.5753C91.5753 20.4793 91.5753 20.5576 91.5753 20.6045C91.5753 20.7768 91.5753 20.9646 91.6065 21.1369C91.6221 21.3248 91.6846 21.5126 91.825 21.6535V22.6243C91.825 22.6243 91.7938 22.6243 91.7782 22.6243C91.5129 22.4364 91.2787 22.2329 91.0758 21.9667C90.9197 21.7631 90.8417 21.5283 90.8105 21.2778C90.7793 21.0429 90.7637 20.7924 90.748 20.5419C90.748 20.5263 90.748 20.4949 90.748 20.4636" fill="#0F779A"/>
<path d="M124.821 28.9183V27.9162C124.821 27.9162 124.915 27.9162 124.962 27.9162H126.101C126.179 27.9162 126.257 27.9162 126.335 27.9162C126.616 27.8849 126.788 27.7127 126.804 27.4309C126.804 27.3839 126.804 27.3369 126.804 27.2899V22.7338H124.54V22.8747C124.54 23.501 124.54 24.1272 124.54 24.7692C124.54 25.4111 124.416 26.0374 124.166 26.648C123.994 27.0394 123.76 27.3995 123.495 27.7283C123.104 28.198 122.636 28.5895 122.137 28.9496C122.137 28.9496 122.105 28.9652 122.074 28.9809C122.074 28.9496 122.074 28.9183 122.074 28.8869C122.074 28.6208 122.074 28.3546 122.074 28.0884C122.074 28.0102 122.09 27.9475 122.137 27.8692C122.496 27.3526 122.761 26.7889 122.917 26.1783C123.026 25.7556 123.073 25.3172 123.073 24.8788C123.073 24.1899 123.073 23.5166 123.073 22.8277C123.073 22.7964 123.073 22.7808 123.073 22.7338H122.105V21.7004H123.073V16.9407H124.65C124.837 16.424 124.884 15.9074 124.868 15.3594H126.523C126.429 15.923 126.257 16.4554 125.867 16.9251C126.148 16.9407 126.413 16.9251 126.663 16.9251C126.928 16.9251 127.194 16.9251 127.459 16.9251H128.255C128.255 16.9251 128.255 17.019 128.255 17.0503V27.3682C128.255 27.6187 128.24 27.8692 128.162 28.1041C128.052 28.4799 127.818 28.7304 127.444 28.84C127.194 28.9183 126.928 28.9496 126.663 28.9496C126.07 28.9496 125.461 28.9496 124.868 28.9496C124.853 28.9496 124.837 28.9496 124.806 28.9496M124.556 17.9271C124.525 18.068 124.54 21.5752 124.556 21.6535H126.804V17.9271H124.556Z" fill="#0F779A"/>
<path d="M129.801 19.9783H134.889C134.889 19.9783 134.889 20.0879 134.889 20.1348V27.4466C134.889 27.7911 134.998 27.9007 135.342 27.9007C135.545 27.9007 135.748 27.9007 135.951 27.9007H136.06C136.091 27.9946 136.091 28.7618 136.06 28.9184C136.029 28.9184 135.997 28.9184 135.966 28.9184C135.529 28.9184 135.092 28.9184 134.655 28.9184C134.483 28.9184 134.327 28.9027 134.156 28.8714C133.703 28.7931 133.469 28.5583 133.422 28.1042C133.406 27.9476 133.391 27.7911 133.391 27.6502C133.391 25.4895 133.391 23.3289 133.391 21.1682V21.0116H131.315C131.315 21.0116 131.315 21.1056 131.315 21.1525V23.7516C131.315 24.2996 131.315 24.8632 131.237 25.4112C131.159 26.0688 130.971 26.6951 130.581 27.2431C130.285 27.6502 129.926 28.0103 129.504 28.2921C129.208 28.4956 128.896 28.6835 128.583 28.8714C128.568 28.8714 128.537 28.8871 128.521 28.9027C128.49 28.8244 128.474 28.1199 128.505 27.932C128.677 27.7441 128.849 27.5719 129.005 27.384C129.364 26.9299 129.598 26.4289 129.692 25.8496C129.77 25.3486 129.801 24.8476 129.801 24.3309C129.801 22.9374 129.801 21.5283 129.801 20.1348V19.9783Z" fill="#0F779A"/>
<path d="M128.802 18.1933V17.1913H131.892C131.486 16.612 131.237 16.0014 131.174 15.3281H132.782C132.782 15.9701 132.86 16.5963 133.157 17.1913H135.888V18.1933H128.786H128.802Z" fill="#0F779A"/>
<path d="M126.46 26.147C126.46 26.147 126.382 26.1157 126.351 26.1C125.696 25.7713 125.29 25.2389 125.118 24.5187C125.024 24.1273 124.993 23.7359 124.993 23.3288C124.993 23.2975 124.993 23.2818 124.993 23.2505H126.07C126.07 23.2505 126.07 23.3288 126.07 23.3757C126.07 23.6419 126.07 23.8924 126.086 24.1586C126.086 24.3934 126.148 24.6283 126.242 24.8475C126.289 24.9571 126.367 25.051 126.445 25.1763V26.147H126.46Z" fill="#0F779A"/>
<path d="M124.993 18.4907H126.07C126.07 18.6943 126.07 18.8821 126.101 19.07C126.101 19.2266 126.133 19.3675 126.164 19.5084C126.211 19.7276 126.289 19.9155 126.46 20.0721V21.0741C126.46 21.0741 126.382 21.0428 126.351 21.0271C125.727 20.761 125.352 20.2756 125.149 19.6493C125.024 19.2892 124.993 18.9291 124.993 18.5534C124.993 18.5377 124.993 18.522 124.993 18.4907Z" fill="#0F779A"/>
<path d="M73.5941 45.5928C73.0634 45.812 72.5171 45.9373 71.9864 45.9373C71.1279 45.9373 70.3631 45.7807 69.6763 45.4832C68.9896 45.1857 68.412 44.7787 67.9438 44.2463C67.4755 43.7296 67.1165 43.1034 66.8668 42.3988C66.6171 41.6942 66.4922 40.9271 66.4922 40.1129C66.4922 39.2987 66.6171 38.5002 66.8668 37.78C67.1165 37.0598 67.4755 36.4335 67.9438 35.9012C68.412 35.3688 68.9896 34.9461 69.6763 34.6486C70.3631 34.3511 71.1279 34.1946 71.9864 34.1946C72.5639 34.1946 73.1102 34.2729 73.6565 34.4451C74.2028 34.6173 74.6711 34.8678 75.1081 35.2123C75.5451 35.5567 75.9041 35.9638 76.1851 36.4492C76.4661 36.9345 76.6377 37.5138 76.7002 38.1401H74.3589C74.2184 37.5138 73.9375 37.0441 73.516 36.731C73.0946 36.4179 72.5951 36.2613 72.002 36.2613C71.4557 36.2613 70.9875 36.3709 70.5972 36.5744C70.207 36.7936 69.8949 37.0755 69.6607 37.4356C69.4266 37.7957 69.2549 38.2027 69.1456 38.6725C69.0364 39.1265 68.9739 39.6119 68.9739 40.0972C68.9739 40.5826 69.0364 41.021 69.1456 41.475C69.2549 41.9134 69.4266 42.3205 69.6607 42.6806C69.8949 43.0407 70.207 43.3226 70.5972 43.5418C70.9875 43.761 71.4557 43.8706 72.002 43.8706C72.8137 43.8706 73.438 43.667 73.8906 43.2443C74.3277 42.8372 74.593 42.2266 74.6711 41.4437H72.2049V39.6119H76.8875V45.6711H75.3266L75.0769 44.4029C74.6398 44.9665 74.156 45.358 73.6253 45.5928" fill="#0F779A"/>
<path d="M84.8638 34.4922C85.3633 34.4922 85.8159 34.5705 86.2217 34.727C86.6276 34.8836 86.971 35.1185 87.2519 35.4003C87.5329 35.6821 87.7514 36.0109 87.9075 36.3867C88.0636 36.7624 88.1416 37.1539 88.1416 37.5923C88.1416 38.2498 88.0011 38.8292 87.7358 39.2989C87.4548 39.7842 87.0022 40.1443 86.3778 40.3948V40.4262C86.6744 40.5044 86.9241 40.6297 87.127 40.8019C87.33 40.9741 87.486 41.1777 87.6109 41.4125C87.7358 41.6474 87.8294 41.9136 87.8919 42.1954C87.9543 42.4772 87.9855 42.759 88.0011 43.0409C88.0011 43.2131 88.0167 43.4323 88.0323 43.6671C88.0323 43.902 88.0636 44.1525 88.0792 44.403C88.1104 44.6535 88.1416 44.8884 88.204 45.1232C88.2665 45.3424 88.3445 45.546 88.4694 45.7025H86.0188C85.8784 45.3424 85.8003 44.9197 85.7691 44.4343C85.7379 43.949 85.6911 43.4636 85.6286 43.0252C85.5506 42.4459 85.3633 42.0075 85.0979 41.7413C84.8326 41.4752 84.3799 41.3343 83.7712 41.3343H81.3207V45.7025H78.8701V34.5078H84.895L84.8638 34.4922ZM83.9897 39.5494C84.5516 39.5494 84.9731 39.4241 85.254 39.1736C85.535 38.9231 85.6754 38.516 85.6754 37.9524C85.6754 37.3887 85.535 37.0129 85.254 36.7624C84.9731 36.5119 84.5516 36.4023 83.9897 36.4023H81.3051V39.5494H83.9897Z" fill="#0F779A"/>
<path d="M98.4746 34.4922V36.5589H92.5746V38.9544H97.9907V40.8645H92.5746V43.6202H98.5995V45.6869H90.124V34.4922H98.4746Z" fill="#0F779A"/>
<path d="M106.45 34.4922L110.617 45.6869H108.073L107.23 43.1974H103.063L102.189 45.6869H99.7227L103.937 34.4922H106.45ZM106.59 41.3499L105.186 37.2478H105.154L103.703 41.3499H106.59Z" fill="#0F779A"/>
<path d="M109.275 36.5589V34.4922H118.422V36.5589H115.082V45.6869H112.616V36.5589H109.275Z" fill="#0F779A"/>
<path d="M128.053 34.4922V36.5589H122.153V38.9544H127.569V40.8645H122.153V43.6202H128.178V45.6869H119.702V34.4922H128.053Z" fill="#0F779A"/>
<path d="M135.857 34.4922C136.356 34.4922 136.809 34.5705 137.215 34.727C137.621 34.8836 137.964 35.1185 138.245 35.4003C138.526 35.6821 138.745 36.0109 138.901 36.3867C139.057 36.7624 139.135 37.1539 139.135 37.5923C139.135 38.2498 138.994 38.8292 138.729 39.2989C138.448 39.7842 137.995 40.1443 137.371 40.3948V40.4262C137.668 40.5044 137.917 40.6297 138.12 40.8019C138.323 40.9741 138.479 41.1777 138.604 41.4125C138.729 41.6474 138.823 41.9136 138.885 42.1954C138.947 42.4772 138.979 42.759 138.994 43.0409C138.994 43.2131 139.01 43.4323 139.026 43.6671C139.026 43.902 139.057 44.1525 139.072 44.403C139.104 44.6535 139.135 44.8884 139.197 45.1232C139.26 45.3424 139.338 45.546 139.463 45.7025H137.012C136.872 45.3424 136.793 44.9197 136.762 44.4343C136.731 43.949 136.684 43.4636 136.622 43.0252C136.544 42.4459 136.356 42.0075 136.091 41.7413C135.826 41.4752 135.373 41.3343 134.764 41.3343H132.314V45.7025H129.863V34.5078H135.888L135.857 34.4922ZM134.983 39.5494C135.545 39.5494 135.966 39.4241 136.247 39.1736C136.528 38.9231 136.669 38.516 136.669 37.9524C136.669 37.3887 136.528 37.0129 136.247 36.7624C135.966 36.5119 135.545 36.4023 134.983 36.4023H132.298V39.5494H134.983Z" fill="#0F779A"/>
<path d="M151.029 34.4922C151.559 34.4922 152.043 34.5392 152.48 34.6331C152.917 34.727 153.292 34.8836 153.604 35.1028C153.916 35.322 154.166 35.6038 154.338 35.9639C154.509 36.324 154.603 36.7624 154.603 37.2791C154.603 37.8428 154.478 38.3125 154.213 38.6882C153.963 39.064 153.588 39.3771 153.073 39.612C153.76 39.8155 154.275 40.16 154.619 40.661C154.962 41.162 155.118 41.757 155.118 42.4616C155.118 43.0252 155.009 43.5106 154.79 43.9333C154.572 44.3404 154.275 44.6848 153.901 44.951C153.526 45.2172 153.105 45.4051 152.636 45.5303C152.168 45.6556 151.669 45.7182 151.169 45.7182H145.769V34.5235H151.013L151.029 34.4922ZM150.716 39.017C151.154 39.017 151.513 38.9074 151.793 38.7039C152.074 38.5004 152.215 38.1559 152.215 37.6862C152.215 37.42 152.168 37.2165 152.074 37.0443C151.981 36.872 151.856 36.7468 151.7 36.6528C151.544 36.5589 151.372 36.4963 151.153 36.465C150.951 36.4336 150.748 36.418 150.529 36.418H148.235V39.0327H150.716V39.017ZM150.857 43.7767C151.091 43.7767 151.325 43.7611 151.544 43.7141C151.762 43.6671 151.95 43.5889 152.121 43.4793C152.293 43.3697 152.418 43.2287 152.527 43.0252C152.621 42.8373 152.683 42.6025 152.683 42.305C152.683 41.7257 152.527 41.3186 152.199 41.0681C151.872 40.8176 151.45 40.6923 150.919 40.6923H148.25V43.7611H150.873L150.857 43.7767Z" fill="#0F779A"/>
<path d="M162.344 34.4922L166.512 45.6869H163.968L163.125 43.1974H158.957L158.083 45.6869H155.617L159.832 34.4922H162.344ZM162.485 41.3499L161.08 37.2478H161.049L159.597 41.3499H162.485Z" fill="#0F779A"/>
<path d="M165.123 34.4922H167.886L170.492 38.9074L173.083 34.4922H175.815L171.679 41.3969V45.6869H169.228V41.3343L165.123 34.4922Z" fill="#0F779A"/>
<path d="M186.678 34.4922L190.846 45.6869H188.302L187.459 43.1974H183.276L182.402 45.6869H179.936L184.15 34.4922H186.663H186.678ZM186.819 41.3499L185.414 37.2478H185.383L183.931 41.3499H186.819Z" fill="#0F779A"/>
<path d="M194.264 34.4922H191.813V45.6869H194.264V34.4922Z" fill="#0F779A"/>
<path d="M202.443 34.4922C202.942 34.4922 203.395 34.5705 203.801 34.727C204.207 34.8836 204.55 35.1185 204.831 35.4003C205.112 35.6821 205.33 36.0109 205.487 36.3867C205.643 36.7624 205.721 37.1539 205.721 37.5923C205.721 38.2498 205.58 38.8292 205.315 39.2989C205.034 39.7842 204.581 40.1443 203.957 40.3948V40.4262C204.253 40.5044 204.503 40.6297 204.706 40.8019C204.909 40.9741 205.065 41.1777 205.19 41.4125C205.315 41.6474 205.409 41.9136 205.471 42.1954C205.533 42.4772 205.565 42.759 205.58 43.0409C205.58 43.2131 205.596 43.4323 205.611 43.6671C205.611 43.902 205.643 44.1525 205.658 44.403C205.689 44.6535 205.721 44.8884 205.783 45.1232C205.846 45.3424 205.924 45.546 206.048 45.7025H203.598C203.457 45.3424 203.379 44.9197 203.348 44.4343C203.317 43.949 203.27 43.4636 203.208 43.0252C203.13 42.4459 202.942 42.0075 202.677 41.7413C202.412 41.4752 201.959 41.3343 201.35 41.3343H198.9V45.7025H196.449V34.5078H202.474L202.443 34.4922ZM201.569 39.5494C202.131 39.5494 202.552 39.4241 202.833 39.1736C203.114 38.9231 203.255 38.516 203.255 37.9524C203.255 37.3887 203.114 37.0129 202.833 36.7624C202.552 36.5119 202.131 36.4023 201.569 36.4023H198.884V39.5494H201.569Z" fill="#0F779A"/>
<path d="M210.169 34.4922V43.6202H215.601V45.6869H207.719V34.4922H210.169Z" fill="#0F779A"/>
<path d="M219.425 34.4922H216.975V45.6869H219.425V34.4922Z" fill="#0F779A"/>
<path d="M224.03 34.4922L228.697 42.0075H228.728V34.4922H231.022V45.6869H228.572L223.92 38.1872H223.889V45.6869H221.595V34.4922H224.03Z" fill="#0F779A"/>
<path d="M241.526 34.4922V36.5589H235.626V38.9544H241.042V40.8645H235.626V43.6202H241.651V45.6869H233.176V34.4922H241.526Z" fill="#0F779A"/>
<path d="M245.179 42.9311C245.32 43.1973 245.491 43.4008 245.71 43.5731C245.928 43.7296 246.194 43.8549 246.506 43.9332C246.803 44.0115 247.115 44.0584 247.443 44.0584C247.661 44.0584 247.895 44.0428 248.145 43.9958C248.395 43.9645 248.629 43.8862 248.847 43.7766C249.066 43.667 249.253 43.5261 249.394 43.3382C249.534 43.1503 249.612 42.9155 249.612 42.6337C249.612 42.3362 249.518 42.0857 249.331 41.8978C249.144 41.7099 248.879 41.5533 248.566 41.4281C248.254 41.3028 247.895 41.1932 247.505 41.0993C247.115 41.0053 246.709 40.8957 246.303 40.7861C245.882 40.6765 245.476 40.5513 245.086 40.4104C244.695 40.2538 244.336 40.0659 244.024 39.8154C243.712 39.5806 243.462 39.2674 243.259 38.9073C243.072 38.5472 242.978 38.1088 242.978 37.5921C242.978 37.0128 243.103 36.5118 243.353 36.0891C243.603 35.6663 243.915 35.3062 244.321 35.0244C244.711 34.7426 245.164 34.539 245.663 34.3981C246.163 34.2572 246.662 34.1946 247.162 34.1946C247.739 34.1946 248.301 34.2572 248.847 34.3825C249.378 34.5077 249.862 34.7269 250.283 35.0087C250.705 35.3062 251.033 35.682 251.282 36.136C251.532 36.5901 251.657 37.1381 251.657 37.7957H249.284C249.269 37.4669 249.191 37.1851 249.081 36.9659C248.957 36.7467 248.8 36.5744 248.598 36.4492C248.395 36.3239 248.176 36.23 247.926 36.183C247.677 36.136 247.396 36.1047 247.084 36.1047C246.881 36.1047 246.693 36.1204 246.49 36.1674C246.287 36.2143 246.116 36.2769 245.944 36.3865C245.788 36.4961 245.648 36.6214 245.538 36.778C245.429 36.9345 245.382 37.1381 245.382 37.3729C245.382 37.5921 245.429 37.7644 245.507 37.9053C245.585 38.0462 245.757 38.1714 246.007 38.281C246.256 38.3906 246.584 38.5159 247.021 38.6255C247.458 38.7351 248.02 38.8917 248.722 39.0639C248.925 39.1109 249.222 39.1735 249.597 39.2831C249.971 39.3927 250.33 39.5649 250.705 39.8154C251.064 40.0503 251.391 40.3791 251.657 40.7861C251.922 41.1932 252.063 41.7099 252.063 42.3362C252.063 42.8529 251.969 43.3226 251.766 43.761C251.563 44.1993 251.267 44.5751 250.876 44.9039C250.486 45.217 250.002 45.4676 249.425 45.6554C248.847 45.8277 248.176 45.9216 247.411 45.9216C246.803 45.9216 246.194 45.8433 245.616 45.7024C245.039 45.5458 244.524 45.311 244.087 44.9822C243.65 44.6534 243.291 44.2463 243.025 43.7453C242.76 43.2443 242.635 42.6493 242.651 41.9604H245.023C245.023 42.3362 245.086 42.6493 245.226 42.9155" fill="#0F779A"/>
</g>
<defs>
<clipPath id="clip0_583_3267">
<rect width="252" height="46" fill="white"/>
</clipPath>
</defs>
</svg>
