<svg width="100" height="46" viewBox="0 0 100 46" fill="none" xmlns="http://www.w3.org/2000/svg">
<g clip-path="url(#clip0_583_3512)">
<path d="M34.9525 38.3474V36.9056C34.9803 36.5451 35.1746 36.3233 35.5355 36.2678C35.9242 36.2678 36.1463 36.4896 36.1741 36.8501V44.8079C36.1741 45.1684 35.952 45.3625 35.591 45.3902C35.2024 45.3625 34.9803 45.1684 34.9525 44.8356V42.9224C34.3973 43.3661 33.8143 43.8097 33.1757 44.2256C32.7871 44.392 32.4539 44.3365 32.2318 44.1147C32.0652 43.782 32.1763 43.5047 32.5094 43.2552C32.8703 42.9779 33.4256 42.562 34.1474 42.0629C34.4806 41.7856 34.7582 41.5915 34.9803 41.4251V39.4842H32.8426C32.5094 39.4842 32.3429 39.2624 32.3151 38.9019C32.3151 38.5415 32.5094 38.3474 32.8426 38.3197H34.9803L34.9525 38.3474ZM38.7004 45.3347C37.4789 45.3902 36.9236 44.9743 37.0069 44.1147V36.9887C37.0347 36.5728 37.229 36.3233 37.5899 36.2678C37.9786 36.2678 38.2007 36.4896 38.2285 36.9056V39.2347C38.8115 38.9019 39.45 38.3474 40.1718 37.571C40.4495 37.2937 40.7271 37.2383 41.0047 37.4601C41.2823 37.7374 41.3101 38.0147 41.088 38.3474C40.4495 39.1515 39.5055 39.9279 38.2285 40.732V43.782C38.1452 44.1702 38.3673 44.3643 38.867 44.3088H39.1724C39.8665 44.4197 40.1441 44.1147 40.0608 43.4493V42.5065C40.0608 42.1183 40.2829 41.8965 40.6438 41.8411C41.0047 41.8965 41.2268 42.1183 41.2268 42.5065V43.5047C41.3934 44.9188 40.7271 45.5565 39.2557 45.4179H38.7004V45.3347Z" fill="#E60012"/>
<path d="M44.8082 37.0717H46.2241L46.1408 36.8222C46.0575 36.5449 46.1963 36.3508 46.5017 36.1845C46.8626 36.0458 47.1125 36.129 47.2235 36.3786L47.3068 36.5449C47.3901 36.8222 47.4456 36.9886 47.5011 37.0717H48.806C49.1113 37.0717 49.2502 37.2936 49.2779 37.6263C49.2502 37.959 49.0836 38.1531 48.806 38.1808H45.7521C45.9464 38.2918 46.1685 38.6522 46.4184 39.2899C46.5017 39.5672 46.4739 39.7336 46.3351 39.8445H47.1957L47.3068 39.5395C47.4734 39.1513 47.5844 38.8186 47.6122 38.5968C47.7232 38.3195 47.9453 38.2363 48.2785 38.2918C48.5839 38.4304 48.7227 38.6245 48.6394 38.9295L48.4728 39.4009L48.2785 39.9H49.0003L49.3057 40.0109V37.3213C49.3057 36.7945 49.5 36.5449 49.8887 36.5726H52.2763C52.887 36.5726 53.1091 36.9054 52.9981 37.5708C52.9981 37.5986 52.9425 37.8204 52.8037 38.2363C52.5816 38.9018 52.4428 39.4009 52.3595 39.7059C52.1652 40.0663 52.2207 40.3713 52.4706 40.5654C53.0258 41.425 53.3312 42.2013 53.3867 42.95C53.3867 44.17 52.9148 44.78 51.8876 44.78C51.4711 44.8355 51.138 44.78 50.8881 44.6136C50.6105 44.5027 50.555 44.3086 50.6383 44.0314C50.7493 43.7264 50.9714 43.5877 51.3046 43.6709C52.0264 43.8373 52.3318 43.56 52.2207 42.8391C52.2207 42.3122 51.8321 41.6468 51.138 40.8704C50.8881 40.6209 50.8604 40.2881 51.0269 39.789C51.2768 39.0404 51.4711 38.3749 51.61 37.7372H50.555L50.3884 37.9036V45.0018C50.3884 45.3346 50.1941 45.5286 49.8609 45.5564C49.5278 45.5286 49.3334 45.3346 49.3057 45.0018V40.8427L49.0003 41.0091H44.5306C44.2529 41.0091 44.0864 40.7872 44.0586 40.4545C44.0864 40.1218 44.2529 39.9277 44.5306 39.9H45.4745C45.4745 39.9 45.2524 39.5395 44.9192 38.9572C44.7804 38.5968 44.8915 38.3749 45.1969 38.2363H44.7249C44.4195 38.2363 44.2807 38.0145 44.2529 37.6817C44.2529 37.349 44.4473 37.1549 44.7249 37.1272M44.6971 42.2291C44.6694 41.6468 44.947 41.3695 45.4745 41.3972H48.2507C48.7504 41.3695 49.0003 41.6468 49.0003 42.2291V44.4473C49.0281 44.8909 48.7504 45.1127 48.1674 45.085H45.4745C44.947 45.085 44.6971 44.8632 44.6971 44.4473V42.2291ZM47.9176 42.6727L47.751 42.5063H45.9187L45.7521 42.6727V43.8927L45.9187 44.0591H47.751L47.9176 43.8927V42.6727Z" fill="#E60012"/>
<path d="M56.3574 45.1961C56.0243 45.002 55.9688 44.7524 56.1909 44.4474C56.6628 43.6988 57.0515 42.7838 57.3847 41.7024C57.4957 41.3142 57.7178 41.1479 58.1065 41.2588C58.4119 41.3697 58.5229 41.6192 58.4119 42.0074C58.1898 43.0888 57.8011 44.0315 57.2736 44.8356C56.996 45.2238 56.7184 45.3347 56.3574 45.1961ZM57.1348 40.5656L56.8294 40.2883C56.5518 40.0388 56.3852 39.8724 56.2742 39.7892C55.9965 39.5397 55.9965 39.2901 56.2186 38.9851C56.4407 38.7633 56.6906 38.7633 56.9682 38.9851C57.3569 39.2347 57.69 39.4842 57.9121 39.7892C58.1898 40.011 58.1898 40.2883 57.9121 40.5656C57.6345 40.8151 57.3847 40.8151 57.107 40.5656M57.4124 37.9592C57.0515 37.5987 56.7461 37.3215 56.4963 37.1274C56.2742 36.9055 56.3019 36.656 56.524 36.3787C56.7739 36.1569 57.0237 36.1569 57.3291 36.351L57.4957 36.4619C57.8011 36.7392 58.051 36.961 58.2175 37.1828C58.4674 37.4601 58.4674 37.7096 58.2453 37.9869C57.9677 38.2642 57.69 38.2642 57.4124 37.9869M58.2453 39.2347C58.5507 38.9019 58.9116 38.5692 59.328 38.2365C59.6056 38.0424 59.8555 38.0701 60.0776 38.3196V38.9574C59.7722 39.2347 59.4391 39.5397 59.0504 39.9001C58.745 40.1497 58.4952 40.1774 58.3008 39.9833C58.0232 39.7615 58.0232 39.5119 58.2453 39.2347ZM61.0771 36.7669C60.9938 36.4619 61.1048 36.2401 61.3824 36.1292C61.7434 36.0183 62.021 36.1292 62.2153 36.3787L62.4652 36.7669H65.0193C65.2692 36.7669 65.4357 36.961 65.4635 37.266C65.4635 37.5987 65.2969 37.7928 65.0193 37.8206H63.1592V38.3751C63.3258 38.0701 63.5757 37.9592 63.9088 38.0978C64.2697 38.2919 64.6584 38.5692 65.0471 38.9297C65.3802 39.2347 65.4635 39.5397 65.2414 39.7892C65.0193 40.0942 64.7694 40.1219 64.4918 39.9001C64.1864 39.6228 63.8533 39.3456 63.4646 39.0683L63.1592 38.7633V39.6228C63.1592 39.9001 62.9649 40.0388 62.6595 40.0665C62.3541 40.0388 62.1598 39.9001 62.132 39.6228V37.7928H61.4657V39.6228C61.4657 39.9278 61.2714 40.0665 60.966 40.0942C60.6329 40.0942 60.4385 39.9556 60.4108 39.6506V37.7928H58.9393C58.6617 37.7928 58.4952 37.5987 58.4674 37.266C58.4674 36.9333 58.6062 36.7392 58.9116 36.7115H61.1326L61.0771 36.7669ZM58.9671 41.231C58.6895 41.231 58.5784 41.0369 58.5784 40.7597C58.5784 40.4824 58.7173 40.316 58.9671 40.2883H64.4085C64.8527 40.2329 65.0471 40.4269 65.0193 40.8706V41.8133C65.0748 42.2847 64.8805 42.5065 64.4085 42.4511H59.8555L59.6056 42.6451L59.7722 42.867H64.6862C65.1304 42.8115 65.2969 43.1442 65.2136 43.8652C65.1859 44.9465 64.6306 45.5011 63.5479 45.5011C62.6873 45.5011 61.8544 45.5011 61.0771 45.4179C59.5779 45.2515 58.9671 44.9465 59.217 44.5029C59.217 44.1979 59.4946 44.087 59.9666 44.1979C61.0493 44.3643 62.2153 44.4474 63.4646 44.4474C63.8811 44.4474 64.0754 44.3088 64.0476 43.9206L63.8533 43.7265H59.0226C58.634 43.7265 58.4674 43.5047 58.4952 43.0611C58.4952 42.7838 58.5507 42.4788 58.6062 42.1461C58.6617 41.7856 58.8838 41.6192 59.2725 41.6747H63.8811L63.9921 41.5638V41.3697L63.8811 41.2588H58.9671V41.231Z" fill="#E60012"/>
<path d="M69.2946 37.3767H69.8777V36.9886L69.9609 36.6281C69.9887 36.3508 70.183 36.1845 70.544 36.1567C70.8771 36.1845 71.0714 36.3508 71.0714 36.6836C71.0714 37.0163 71.0714 37.2658 71.0437 37.4045H71.6822C72.1542 37.3767 72.3763 37.6263 72.3485 38.1254V44.3918C72.5151 45.39 71.8488 45.7505 70.4051 45.4177C70.1553 45.3623 70.0165 45.1682 70.0442 44.8355C70.1275 44.5582 70.3219 44.4473 70.5995 44.475C71.127 44.5305 71.3491 44.475 71.3213 44.3086V41.6468H69.7111C69.7111 43.0609 69.5723 44.17 69.2669 45.0573C69.1558 45.4177 68.9337 45.5841 68.5451 45.5009C68.2119 45.3623 68.0731 45.1405 68.1842 44.78C68.4895 44.0314 68.6283 43.0054 68.6561 41.6468H68.4062C68.1286 41.6191 68.0176 41.4527 68.0176 41.1477C68.0176 40.8427 68.1564 40.6486 68.4062 40.6209H68.6561V38.2086C68.6006 37.6263 68.8227 37.3768 69.2946 37.4322M71.3213 40.5654V38.5136L71.2102 38.4027H69.7666L69.6833 38.5136V40.5654H71.2935H71.3213ZM70.4051 43.5877L70.3219 43.4214C70.0998 43.0886 69.9609 42.7836 69.8499 42.5618L70.0998 42.035C70.3774 41.9518 70.5717 42.035 70.6828 42.2013C70.8771 42.5063 71.0437 42.8391 71.2102 43.1441L70.9604 43.6986L70.4051 43.5877ZM70.4051 40.1772C70.3219 40.0109 70.1553 39.6781 69.9054 39.1513L70.0998 38.6245C70.3774 38.5136 70.5995 38.569 70.7383 38.7909C70.9049 39.0681 71.0714 39.3731 71.2102 39.7336L71.0159 40.2327L70.4051 40.1495M72.987 37.4045H74.1808L74.0142 37.0995V36.9331C73.8477 36.6558 73.931 36.434 74.2086 36.2954C74.5973 36.1845 74.8471 36.2676 75.0137 36.5172C75.0692 36.6281 75.1803 36.8499 75.3191 37.2381L75.4024 37.4045H76.9015C77.2069 37.4045 77.3457 37.5986 77.3735 37.9036C77.3457 38.2363 77.1792 38.4304 76.9015 38.4581H72.987C72.6261 38.4304 72.404 38.2363 72.404 37.9036C72.404 37.5986 72.6261 37.4045 72.987 37.4045ZM73.0703 39.6227C73.0703 39.2345 73.3202 39.0127 73.7089 38.9849H75.4857C75.8743 38.9849 76.0964 39.179 76.0964 39.5672V44.1977L76.263 44.2809L76.4573 44.0591C76.4851 43.56 76.4851 43.0609 76.4851 42.5895C76.4851 42.34 76.6239 42.1736 76.9293 42.1459C77.2069 42.1459 77.3457 42.3123 77.3735 42.5895V44.4195C77.4845 45.1405 77.0681 45.4177 76.0964 45.2791C75.2913 45.3346 74.9304 45.0296 75.0137 44.4195V40.1772L74.9026 40.0663H74.2641L74.1531 40.1772C74.0975 42.7004 73.9032 44.3364 73.57 45.085C73.4312 45.3623 73.2091 45.4732 72.8482 45.4177C72.5428 45.3068 72.4318 45.085 72.5428 44.78V44.6691C72.9593 43.7541 73.1259 42.0904 73.0981 39.6504" fill="#E60012"/>
<path d="M80.6218 40.0942C81.4269 39.8169 82.232 39.401 83.0371 38.791C83.3148 38.5969 83.5924 38.6246 83.8423 38.8741C84.0366 39.1514 84.0088 39.401 83.759 39.6228C82.9261 40.2605 81.9544 40.7596 80.8994 41.1201C80.483 41.231 80.2054 41.1201 80.0943 40.8151C80.0388 40.4823 80.2054 40.2328 80.6218 40.0942ZM81.4269 42.146C81.0938 42.146 80.8994 41.9242 80.8994 41.5914C80.8994 41.2587 81.1215 41.0646 81.4547 41.0369H88.2287C88.5341 41.0369 88.6729 41.2587 88.7007 41.5914C88.7007 41.9242 88.5063 42.1183 88.1732 42.146H85.3692V44.1978H88.8672C89.1726 44.1978 89.367 44.3919 89.3947 44.7247C89.3392 45.0297 89.1726 45.2237 88.8395 45.2237H80.7884C80.4553 45.2237 80.2887 45.0297 80.2609 44.7247C80.2609 44.4197 80.4553 44.2256 80.7884 44.1978H84.1476V42.146H81.3992H81.4269ZM84.1476 37.155C83.9255 36.6837 83.9811 36.3787 84.2587 36.24C84.6474 36.0182 84.9805 36.0737 85.2026 36.4064C85.2859 36.5173 85.3969 36.7114 85.508 37.0441V37.155H88.5341C89.0616 37.155 89.3114 37.3491 89.2837 37.7373C89.2282 38.2087 89.1171 38.6246 88.9783 39.0128C88.8395 39.401 88.6451 39.6228 88.3953 39.6505L88.5619 39.7337C88.8395 39.8723 89.0061 39.9555 89.1171 40.0387C89.3947 40.2882 89.4225 40.5378 89.2837 40.7873C89.0893 41.0369 88.8395 41.0646 88.5341 40.9537C87.7012 40.5101 86.8406 40.0942 85.9244 39.6782C85.5913 39.5119 85.4525 39.2901 85.5635 39.0128C85.7301 38.7078 85.98 38.6246 86.3686 38.7355C86.8684 38.9019 87.3681 39.096 87.84 39.3178L87.7568 38.9296L87.8678 38.7078L87.9511 38.486L87.84 38.3196H81.6213L81.5102 38.4305V39.1514C81.5102 39.4287 81.2881 39.5951 80.955 39.6228C80.6218 39.5951 80.4275 39.4287 80.3997 39.1514V37.9591C80.372 37.4046 80.6496 37.155 81.1771 37.155H84.2032H84.1476Z" fill="#E60012"/>
<path d="M70.0998 17.5239L70.2108 17.6348V17.7735C70.2108 17.7735 70.0165 17.9953 69.9054 18.2726L69.489 18.5776C69.5445 19.0767 69.5445 19.3262 69.489 19.3817L69.3502 19.7144L69.2391 20.158L69.2947 20.4353L69.378 20.7126L69.2669 20.9899L69.1559 21.3503C68.906 21.1285 68.7394 20.8235 68.6561 20.463C68.6561 20.3799 68.4896 19.9639 68.2397 19.2708L65.519 20.3799L65.2969 20.463L65.047 20.5462L64.4085 20.8235C64.4085 20.8235 64.2419 21.2117 63.9921 21.7662L63.881 21.7108L63.6589 21.9881L63.5479 22.2931L63.3813 22.1822L62.9926 22.6535L62.715 22.4594C62.715 22.2931 62.8538 21.9049 63.1314 21.2671C63.1037 21.1562 62.8538 21.0453 62.3818 20.9899V20.8512L62.5207 20.463L62.8538 20.3244C62.8538 20.3244 63.2702 20.158 63.7144 19.9362C64.353 18.3557 64.9637 16.7753 65.6023 15.2225C66.6295 12.7271 67.2402 11.4516 67.4623 11.3684L67.7122 11.6734L67.9621 11.7566H68.2119L68.6561 12.2834C68.8505 12.7825 68.9893 13.5312 69.1281 14.5293C69.1836 14.9453 69.2947 15.9435 69.4612 17.5517C70.0442 17.3853 70.3496 17.3021 70.3219 17.3021L70.1553 17.6071M68.1009 18.023L67.4623 13.3093H67.3235C67.1847 13.753 66.7683 14.8066 66.0465 16.498C65.3802 18.0507 65.047 18.9103 65.047 18.9935L64.9637 19.2708L65.8799 18.9103C66.2686 18.7717 66.7961 18.5776 67.4068 18.328L68.1286 18.023H68.1009Z" fill="#E60012"/>
<path d="M72.6263 19.1598V19.3262L72.3764 19.6035L72.0988 19.8807H72.0155L71.96 19.9362L71.9044 19.9916C71.6546 20.0748 71.3492 19.8807 71.016 19.4371C70.7384 19.0212 70.5996 18.7162 70.5996 18.5221C70.5996 17.5793 70.9328 16.2762 71.6268 14.6125L71.7934 14.363L72.2098 14.1689C72.2098 14.1689 72.4597 14.2243 72.7095 14.1134L72.8484 14.0302L72.9039 14.2243L72.7928 14.6402C72.7928 14.8343 72.5985 15.4721 72.2654 16.5257C71.9322 17.5516 71.7934 18.2171 71.7934 18.5775C71.7934 18.938 71.8767 19.0766 72.0155 19.0212C72.1265 18.9935 72.3209 18.8271 72.6263 18.5221C72.8761 18.2725 73.0149 18.1062 73.0705 18.023L72.9594 18.2725L73.0705 18.328C72.9872 18.6053 72.654 18.9935 72.654 19.1598M74.1254 10.7861C74.1254 10.9247 74.0421 11.1188 73.9866 11.3961C73.9033 11.6734 73.7923 11.9229 73.6812 12.0893L73.4036 12.5329L72.9316 12.6438L72.7651 12.7548L72.8206 12.6438L72.2654 12.727V12.5884L72.4042 12.3666H72.2931C72.543 11.8952 72.7095 11.5347 72.8206 11.3407C73.0427 10.9247 73.237 10.6752 73.4314 10.592C73.4869 10.592 73.709 10.5088 74.0421 10.4534L73.9589 10.7306L74.1532 10.7861H74.1254Z" fill="#E60012"/>
<path d="M78.4563 14.557L78.3175 15.0284L78.0677 15.4721C77.8456 15.7493 77.7345 15.888 77.6512 15.9157H77.4014V15.6939C77.4014 15.6939 77.4291 15.4443 77.5124 14.9175C77.5957 14.3907 77.6235 14.058 77.6235 13.947V13.6143L77.568 13.1984H77.4847C77.2903 13.2539 76.9294 13.7252 76.4297 14.5848C76.041 15.278 75.7356 15.8325 75.5691 16.2484C75.347 16.803 75.0693 17.6625 74.7362 18.8825L74.1532 19.0766C74.1532 19.0766 73.9033 18.9935 73.7367 18.7439L73.5146 18.2725L74.8472 13.337L75.0693 13.2539L75.5968 13.6698L75.6524 13.9748V14.3352C76.0688 13.7807 76.3186 13.4202 76.4852 13.2261C76.7906 12.8657 77.0682 12.6438 77.2903 12.5607C77.4847 12.5052 77.7345 12.5607 78.0122 12.8102L78.4286 13.2539L78.4841 13.6143C78.4841 13.8916 78.4841 14.1966 78.4286 14.557" fill="#E60012"/>
<path d="M80.3163 14.7234C80.2885 15.1947 80.2885 15.5275 80.3163 15.6938C80.3996 16.082 80.6217 16.2207 80.9548 16.1375C81.0103 16.1375 81.1769 15.9988 81.4268 15.8325C81.7877 15.5829 82.0098 15.4443 82.0653 15.4166C82.3707 15.1947 82.3707 15.3056 82.0653 15.7493L81.5101 16.3316C81.288 16.4979 80.927 16.6643 80.4551 16.8584C79.7888 16.8584 79.5944 16.7475 79.3724 16.4147L79.1503 15.9434C79.1503 15.9434 79.1503 15.6384 79.0947 15.3888L79.178 14.4184C79.2335 13.7252 79.4001 12.8102 79.6777 11.7011C79.9554 10.592 80.3996 9.1224 80.9826 7.29238C81.0381 7.2092 81.2047 7.01511 81.4268 6.65465L81.8432 6.48828L82.2041 6.59919H82.565C81.1491 10.1483 80.3996 12.8379 80.3163 14.6679" fill="#E60012"/>
<path d="M84.4529 15.1671V15.3335L84.203 15.6385L83.8976 15.9158H83.8143L83.7588 15.9712L83.7033 16.0267C83.4534 16.1099 83.148 15.9158 82.8149 15.4721C82.5372 15.0562 82.3984 14.7512 82.3984 14.5571C82.3984 13.6144 82.7316 12.3112 83.4256 10.6476L83.5922 10.398L84.0087 10.2039L84.5084 10.1485L84.6472 10.0653L84.7027 10.2594L84.5917 10.6476C84.5917 10.8694 84.3973 11.5071 84.0642 12.5608C83.731 13.5867 83.5922 14.2521 83.5922 14.6126C83.5922 14.9731 83.6755 15.1117 83.8143 15.0562C83.9254 15.0285 84.1197 14.8621 84.4251 14.5571C84.6749 14.3076 84.8138 14.1412 84.8693 14.058L84.7582 14.3076L84.8693 14.363C84.786 14.6403 84.4529 15.0285 84.4529 15.1949M85.9798 6.79342C85.9798 6.93206 85.8965 7.12615 85.841 7.40343C85.7299 7.68071 85.6466 7.93025 85.5356 8.09662L85.258 8.54026L84.786 8.65117L84.6194 8.76208L84.6749 8.65117L84.1197 8.73435V8.59571L84.2585 8.37389H84.1475C84.3973 7.90253 84.5639 7.54207 84.6749 7.34798C84.897 6.93206 85.0914 6.68251 85.2857 6.59933C85.3412 6.59933 85.5633 6.54388 85.8965 6.46069L85.8132 6.73797L86.0075 6.79342H85.9798Z" fill="#E60012"/>
<path d="M91.2545 12.4775C90.7825 13.1984 90.5882 13.5034 90.6715 13.4202L90.0329 13.9193C89.7275 14.0025 89.5054 14.0302 89.3666 14.0302C88.8669 13.8639 88.5615 13.4757 88.4505 12.8657C88.3672 12.5884 88.3394 12.0616 88.3672 11.3406C88.1729 11.5625 87.9785 11.8952 87.7287 12.3943C87.5066 12.7825 87.3122 13.1984 87.1179 13.5866C86.7292 14.2798 86.4238 14.668 86.2573 14.7234C86.0352 14.7789 85.8408 14.6402 85.6465 14.3352C85.5077 14.0857 85.4521 13.8639 85.4521 13.7529C85.4521 13.5589 85.6187 12.9766 85.8963 11.9784C86.1462 11.1188 86.3128 10.5088 86.4238 10.2038L86.3683 10.0652L86.8125 9.70472C87.1457 9.62154 87.34 9.92654 87.3122 10.2038C87.3122 10.3425 87.2289 10.6475 87.0901 11.1466C86.9513 11.6457 86.8958 12.0338 86.8958 12.3111C87.2567 11.7566 87.6454 11.202 88.034 10.6475C88.7003 9.70472 89.1445 9.1779 89.3666 9.12245C89.6998 9.03926 90.0052 9.09472 90.255 9.26108L89.8664 10.9525C89.6998 11.6179 89.6165 12.1725 89.5887 12.6161L89.6443 12.9488L89.8386 13.1707C90.0329 13.1152 90.3661 12.8657 90.7825 12.4498C91.0601 12.1725 91.3378 11.8675 91.5876 11.6179L91.6709 11.7566C91.6709 11.7566 91.5321 12.0893 91.2822 12.5884" fill="#E60012"/>
<path d="M94.6971 9.17804C94.0863 10.2594 93.5033 10.9526 92.8925 11.2021L92.6982 11.0358L92.5594 11.3131C92.5594 11.7844 92.837 11.9231 93.4478 11.729L93.8364 11.5349L94.2251 11.3408L94.5305 11.4517L94.2806 11.9508C93.6143 12.4222 93.1979 12.644 93.0591 12.6994C92.837 12.7826 92.5316 12.7826 92.1985 12.7272C91.9486 12.6717 91.8098 12.644 91.7265 12.5608C91.4489 12.2835 91.3101 11.8953 91.3101 11.3131C91.3101 10.8417 91.4211 10.2594 91.6987 9.5385C91.9486 8.81758 92.3373 8.17985 92.837 7.6253C93.531 6.93211 94.1696 6.51619 94.7804 6.40528C95.2523 6.3221 95.6132 6.51619 95.6132 6.76574C95.6132 7.34802 95.3356 8.15212 94.7526 9.17804M94.4472 7.40348C93.892 7.9303 93.4755 8.48485 93.1701 9.09486C93.0036 9.42759 92.837 9.92668 92.6704 10.5367C92.8092 10.4535 93.1146 10.0653 93.5866 9.31668C94.0863 8.5403 94.3917 7.95803 94.475 7.59757V7.37575L94.4472 7.40348Z" fill="#E60012"/>
<path d="M99.8333 4.68609L99.5001 5.15746C99.3613 5.32383 99.1947 5.51792 98.9726 5.79519C98.9726 5.68428 98.9726 5.46246 99.0282 5.18519C99.0559 4.90791 99.0837 4.71382 99.0837 4.54745H98.9449C98.7783 4.57518 98.6117 4.76928 98.4174 5.12973C98.2786 5.40701 98.1953 5.6011 98.1675 5.71201C98.112 5.98929 98.0842 6.23883 98.0565 6.43293C98.0565 6.7102 98.0565 6.9043 98.0842 6.87657C98.3063 8.56795 98.4174 9.56614 98.4174 9.87114C98.4174 10.2871 98.3619 10.7307 98.2231 11.2298C98.0287 11.7843 97.8066 12.0893 97.5012 12.1725L97.057 12.3389C96.6961 12.4498 96.3352 12.2834 95.9465 11.8398C95.5856 11.4516 95.4191 11.1189 95.4468 10.8416C95.4468 10.3425 95.78 9.64932 96.363 8.76204L96.5851 8.95613C96.5851 9.17795 96.5851 9.56614 96.5573 10.1484C96.5295 10.5366 96.5573 10.8139 96.7516 11.0357L96.946 11.0912C97.1403 10.7862 97.2791 10.1761 97.3347 9.31659C97.3347 9.09477 97.3069 8.70659 97.1958 8.09658C97.1403 7.73612 97.0848 7.40339 97.0015 7.07066C96.9737 6.59929 96.946 6.26656 96.946 6.21111C96.946 5.93383 96.946 5.65656 97.057 5.32383C97.1958 4.797 97.3624 4.43654 97.5568 4.24245C97.7511 4.04836 98.0565 3.88199 98.4729 3.77108C98.6673 3.71563 98.9449 3.71563 99.3058 3.77108C99.7222 3.82654 99.9443 3.93745 99.9721 4.10381L99.8055 4.65836" fill="#E60012"/>
<path d="M39.5611 15.8325C38.2563 15.888 37.7288 14.6957 33.5922 16.4148L33.3424 16.5257L33.3979 16.6366C34.2585 16.2484 36.0353 15.6384 36.9792 15.6384C36.5073 15.6384 36.0631 15.7494 35.7299 15.8325C35.3968 15.9157 35.1747 15.9989 35.1747 16.0266V16.1653C34.3418 16.4425 33.2591 16.9139 32.1486 17.3298C31.0381 17.7735 29.9554 18.1894 29.067 18.5498V18.633C29.9831 18.3003 31.0936 17.8566 32.1764 17.413C33.2868 16.9694 34.3418 16.498 35.2302 16.2207C34.3696 16.5257 34.3973 16.5812 34.3973 16.6366C31.8154 17.718 29.1225 18.6885 26.5406 19.8253L29.178 18.7717C27.4845 19.6312 23.0425 21.2117 20.4606 22.3208C19.4057 22.7644 18.2952 23.2358 17.3235 23.8458C16.8515 24.1508 16.4073 24.4835 16.102 24.8717C15.8243 25.2599 15.7133 25.6758 15.7688 26.1749C15.8243 26.6463 16.0464 27.0067 16.4351 27.2286C16.8238 27.4504 17.379 27.5336 17.9343 27.5058C19.0725 27.4504 20.2941 26.979 21.5156 26.5908L23.0703 26.0363C23.2369 25.9531 24.5417 25.3985 24.4307 25.759C23.9309 27.2563 23.8199 27.7831 23.4035 28.0604C22.5706 28.6149 22.1264 28.9199 21.2658 29.5299C18.545 31.4709 15.741 33.4673 12.6317 34.8814C10.7716 35.7132 9.82766 36.0182 9.05032 36.0182C8.05087 36.0182 7.49562 35.5191 7.24576 35.2141C6.41289 34.1604 6.71828 32.7186 7.218 30.5559C8.02311 27.0067 10.5772 21.0176 14.0475 14.5848C16.1575 10.6752 18.5173 7.59745 19.9332 5.73971L20.1553 5.46243C21.2658 4.21469 21.5434 4.0206 21.7655 3.82651C22.3207 3.35514 22.9593 4.40878 23.2369 3.63241L23.4035 3.13332L23.5423 2.57877C23.5145 1.8024 22.9037 0.915114 22.2652 0.4992L21.6822 0.221925L21.0159 0.0832871C20.7383 0.0555596 20.4329 0.027832 20.1553 0.027832C19.4612 0.027832 18.7116 0.16647 17.9343 0.443745C15.5189 1.33103 9.5778 7.70836 4.77491 17.3575C-0.000211673 26.8681 -0.444409 33.5504 0.249649 36.4896C1.22133 40.6487 4.13638 41.7023 5.91317 41.8964C8.52283 42.2014 11.188 41.231 12.8538 40.3437C17.2124 37.9868 19.7111 34.8259 22.404 31.6927L22.1819 32.3304C21.349 34.7427 20.5717 37.0718 19.7943 39.3178C19.3779 40.5655 18.9892 41.8964 19.1558 43.0333C19.1836 43.3105 19.2669 43.5878 19.3779 43.9205L19.5445 44.5028L19.6278 45.1683C19.6278 45.5842 19.9054 45.8615 20.3218 46.0001H21.0159L21.349 45.9169L21.5711 45.7506C21.8765 45.4733 22.1541 44.8078 22.404 44.1978C22.876 42.9223 23.3202 41.536 23.7921 40.1773C25.68 34.7704 27.4845 29.7518 29.2613 23.8735L29.761 23.624L29.8721 23.5685H29.9276L30.0387 23.4853L30.4828 23.2081C30.4828 23.2081 29.8443 23.8458 30.5939 23.3744C31.3435 22.8753 32.0098 22.4317 32.5928 22.2376C33.0925 22.0435 33.4257 21.9326 33.6478 21.8771C34.1197 21.7385 34.1475 21.8217 34.1475 21.8771C34.1475 21.9049 33.5089 22.1821 32.9537 22.4317C32.3985 22.6535 31.9543 22.9308 32.4262 22.709C32.1208 22.8753 31.7877 23.0694 31.4823 23.2912C31.7322 23.1803 31.982 23.0694 32.2596 22.9585C32.6483 22.7367 33.0092 22.6258 33.2313 22.5426C38.8393 20.158 41.8654 18.938 42.2818 17.6348C42.726 16.3039 40.866 15.8048 39.5334 15.8603" fill="#E60012"/>
<path d="M89.9773 17.8566C89.2555 17.1079 87.7564 19.4648 74.8746 23.7625C61.9929 28.0603 53.692 28.088 53.22 23.2634C53.1367 21.9602 53.5254 20.9898 53.8585 20.1302C54.2194 19.2707 54.6359 18.522 55.0245 17.8566C56.6625 14.9729 59.0223 12.3665 61.8541 10.2869C62.6592 9.70467 63.4921 9.20557 64.3527 8.73421C64.8247 8.48466 65.2966 8.26284 65.7963 8.06875C65.8796 8.04102 66.4626 7.8192 66.8513 7.70829L66.4071 7.65283C65.3244 7.65283 64.2417 7.93011 63.2422 8.26284C61.6598 8.78966 60.1328 9.48285 58.6337 10.2869C57.8841 10.6751 57.1622 11.1188 56.4404 11.5624L55.9129 11.8951L54.9413 12.5329L53.9696 13.1983L53.4976 13.5311L53.0257 13.8083C52.7203 12.5883 52.2483 11.2851 51.2489 10.4533C50.7214 10.0097 50.0273 9.67694 49.2777 9.45512C48.5559 9.2333 47.6953 9.15012 46.8902 9.12239C46.0851 9.12239 45.2522 9.17785 44.4471 9.31648C43.642 9.45512 42.8369 9.67694 42.004 9.95422C41.5876 10.0929 41.1989 10.2315 40.7825 10.3701C40.366 10.5088 39.9496 10.6474 39.5887 10.786C39.089 10.9801 39.1445 10.9801 39.0612 11.0079L38.8669 11.1188L38.7003 11.2851V11.4515L38.8669 11.4792H39.2H39.3388H39.5887L40.0051 11.4515C41.1156 11.3683 42.3094 11.1742 43.5587 11.0356C44.1972 10.9801 44.8358 10.9247 45.5576 10.9247C45.9185 10.9247 46.2794 10.9247 46.7236 11.0356C46.9457 11.091 47.1678 11.1465 47.4177 11.2297L48.0562 11.5347C48.5004 11.7842 48.9724 12.2279 49.2222 12.727C49.4998 13.2261 49.6109 13.8361 49.5831 14.4184C49.4721 15.4997 49.0556 16.1929 48.667 16.8307C47.8341 18.0507 46.9735 18.9379 46.0573 19.853C45.1411 20.768 44.1972 21.6275 43.2255 22.4316C42.2539 23.2634 41.2822 24.0398 40.255 24.8162C39.2278 25.6203 38.145 26.3412 37.0345 27.0067C35.924 27.6721 34.7858 28.3099 33.592 28.8644L33.1201 29.0585C32.8702 29.1694 32.5648 29.308 32.2594 29.3358H31.9818L31.8707 29.724L31.7875 29.8903L31.7319 29.9735V30.029V30.2785V30.4171V30.5281L31.8152 30.7222C31.9818 31.1658 32.1761 31.554 32.426 31.8313C32.6759 32.1363 32.9535 32.3303 33.3144 32.4967L33.4254 32.5522H33.4532L33.6475 32.5799L34.2861 32.5244C35.2578 32.3858 36.3405 31.9699 37.3955 31.4985C38.4504 31.0272 39.4776 30.4449 40.4771 29.8349C41.4765 29.1971 42.4482 28.5317 43.3644 27.8108L44.0584 27.2562C44.3083 27.0344 44.4193 26.9789 44.9468 26.5076L45.5853 25.9253L46.2794 25.2876L47.6398 24.0398C47.6398 24.0398 46.1961 32.2472 58.8835 32.0531C71.5709 31.859 92.2539 19.6866 90.0051 17.7734" fill="#E60012"/>
</g>
<defs>
<clipPath id="clip0_583_3512">
<rect width="100" height="46" fill="white"/>
</clipPath>
</defs>
</svg>
