<svg width="33" height="47" viewBox="0 0 33 47" fill="none" xmlns="http://www.w3.org/2000/svg">
<path d="M12.9568 4.97334C12.9568 3.22927 14.3123 1.8122 16 1.8122C17.6877 1.8122 19.0432 3.22927 19.0432 4.97334C19.0432 6.71742 17.6744 8.12085 16 8.12085C14.3256 8.12085 12.9568 6.70379 12.9568 4.97334ZM16 19.8525C16.8638 18.0812 19.1229 17.141 21.0233 16.5006C21.5814 16.3098 21.8206 16.2417 22.4851 15.9828C26.3256 14.4976 28.9169 11.7316 28.9169 8.55687C28.9169 4.1013 23.8538 0.449645 17.3555 0C25.5548 0.449645 32.0133 4.90521 32.0133 10.3418C32.0133 13.9799 29.5017 17.0184 24.7575 19.035C22.8571 19.8525 17.2359 21.5421 16 27.5101C14.711 21.5148 9.15615 19.8525 7.24252 19.035C2.51163 17.032 0 13.9935 0 10.3555C0 4.91884 6.44518 0.46327 14.6445 0.0136256C8.14618 0.46327 3.08306 4.11493 3.08306 8.5705C3.08306 11.7453 5.67442 14.5113 9.51495 15.9964C10.1794 16.2553 10.4319 16.3371 10.9767 16.5142C12.8771 17.1546 15.1362 18.0812 16 19.8661M16 14.702C16.8239 13.9117 17.9269 13.8164 18.897 13.612C23.4153 12.6309 26.3654 10.1919 26.3654 7.12619C26.3654 5.88626 25.8472 4.72808 24.9568 3.73341C23.4684 2.07109 20.9302 0.858412 17.9402 0.476896C23.4817 1.07642 27.7076 4.21031 27.7076 7.97097C27.7076 11.3365 24.5581 13.8027 19.6811 15.1925C17.5681 15.7921 16.5449 16.2008 16 17.141C15.4551 16.1872 14.4319 15.7921 12.3189 15.1925C7.44186 13.8027 4.29236 11.3365 4.29236 7.97097C4.29236 4.18306 8.50498 1.0628 14.0598 0.46327C11.0565 0.831161 8.51827 2.04384 7.04319 3.71979C6.15282 4.71446 5.63455 5.87263 5.63455 7.11256C5.63455 10.1919 8.59801 12.6173 13.103 13.5983C14.0731 13.8027 15.1628 13.9117 16 14.6884M16 11.282C20.4784 11.282 24.1196 8.89751 24.1196 5.94076C24.1196 3.63803 21.9136 1.67595 18.804 0.92654C22.4718 1.68957 25.1296 3.92417 25.1296 6.56754C25.1296 9.60604 21.6744 11.7725 18.3787 12.2767C16.7708 12.5219 16.412 12.5764 16.0133 13.0261C15.6013 12.5764 15.2558 12.5219 13.6478 12.2767C10.3522 11.7725 6.89701 9.60604 6.89701 6.56754C6.89701 3.9378 9.55482 1.68957 13.2226 0.92654C10.1262 1.67595 7.90698 3.63803 7.90698 5.94076C7.90698 8.88389 11.5349 11.282 16.0266 11.282M24.6113 24.4034C24.3056 24.5806 24.0532 24.9893 24 25.4117C23.9203 26.1339 24.4252 26.8015 25.1429 26.8833C25.8605 26.9787 26.5249 26.4064 26.5914 25.657C26.6578 24.9348 26.2193 24.1991 25.4618 23.8039C24.3189 23.218 22.804 23.3679 21.6611 23.8039C19.0963 24.7713 16.9568 27.2512 16.1595 28.5047C17.5017 23.5859 22.9236 19.2393 27.7874 21.4331C29.4485 22.1825 30.5249 23.8857 30.4053 25.7115C30.2591 27.7826 28.6777 29.5403 26.2591 29.5675C25.1296 29.5675 24.0664 29.0498 23.5083 28.3004C22.5781 27.0332 22.9502 25.0438 24.6113 24.4034ZM7.36213 24.4034C7.66777 24.5806 7.92027 24.9893 7.97342 25.4117C8.05316 26.1339 7.54817 26.8015 6.83056 26.8833C6.11296 26.9787 5.44851 26.4064 5.38206 25.657C5.31561 24.9348 5.75415 24.1991 6.51163 23.8039C7.65449 23.218 9.16944 23.3679 10.3123 23.8039C12.8771 24.7713 15.0166 27.2512 15.814 28.5047C14.4718 23.5859 9.04983 19.2393 4.18605 21.4331C2.52492 22.1825 1.4485 23.8857 1.56811 25.7115C1.71429 27.7826 3.29568 29.5403 5.71429 29.5675C6.84385 29.5675 7.90698 29.0498 8.45183 28.3004C9.38206 27.0332 9.00997 25.0438 7.34884 24.4034" fill="#E60012"/>
<path d="M22.1925 41.0539L22.3254 41.1902H22.3918L22.5114 41.122C22.5114 41.122 22.5912 40.7133 22.6178 40.4271L23.2822 40.6043C23.2556 40.7542 23.2291 40.9994 23.1892 41.1765C23.0563 41.7079 22.7241 41.8442 22.5114 41.8442H21.9134C21.754 41.8442 21.4882 41.6671 21.4882 41.3401V38.1653H20.9433V38.9419C20.9433 40.2091 20.7307 41.2174 20.2789 41.9532L19.6942 41.4218C20.0663 40.8904 20.2656 39.9639 20.2656 38.7103V37.4976H22.2191V41.0675L22.1925 41.0539ZM17.8603 39.4733L18.4184 39.2962C18.538 39.5823 18.6576 39.9911 18.7639 40.468L18.1659 40.6315C18.0729 40.1682 17.9666 39.7595 17.8603 39.4733ZM17.1028 38.2879V36.0942H17.8869C17.94 35.8898 17.9799 35.6173 18.0198 35.3993L18.7507 35.4947C18.6975 35.7399 18.6443 35.9171 18.6045 36.0942H19.5746V41.3264C19.5746 41.6398 19.2955 41.9123 18.9899 41.9123H18.3121L18.1394 41.2174H18.7241L18.9101 41.0403V38.9419H17.7673C17.7673 40.1955 17.6078 41.1902 17.2889 41.9396L17.2623 41.9941L16.6377 41.5308V41.4899C16.9566 40.8495 17.1028 40.0184 17.1028 38.9828V38.9419H16.651V38.2879H17.1028ZM18.9101 36.7619H17.7673V38.2879H18.9101V36.7619ZM18.4317 36.939C18.5646 37.2251 18.6842 37.6066 18.7639 38.0018L18.1792 38.1925C18.1261 37.8383 17.9799 37.3205 17.8736 37.0752L18.4317 36.939ZM19.7739 36.9799V36.2713H20.837V35.4947H21.6344V36.2713H22.8304V36.9799H19.7872H19.7739Z" fill="#E60012"/>
<path d="M24.7977 39.0919L24.4654 38.3561C25.5817 38.2062 26.2063 37.7974 26.6183 37.0208L27.3226 37.3342C26.8309 38.3152 25.9272 38.9011 24.7977 39.0919ZM28.585 37.7566C28.585 37.9473 28.7578 38.0836 28.8907 38.0836H30.3923V38.7785H28.5718C28.1997 38.7785 27.8409 38.4378 27.8409 38.0563V37.0753H28.5718V37.7566H28.585ZM25.3159 37.6884H24.5717V36.0942H27.0834V35.4811H27.8541V36.0942H30.4056V37.6884H29.6615V36.8028H25.3159V37.6884ZM30.4987 41.0539V41.7897H24.4521V41.0539H27.0834V39.9911H25.09V39.2554H29.9139V39.9775H27.8541V41.0539H30.4987Z" fill="#E60012"/>
<path d="M5.32909 37.702C5.59487 37.9064 5.83407 38.1244 6.09985 38.3696L5.68789 38.8193C5.46198 38.6013 5.1962 38.3696 4.91713 38.1516L5.32909 37.7156V37.702ZM4.07992 40.577H5.60815C5.36895 40.3181 5.10317 40.0728 4.81081 39.8548L5.20948 39.4052C5.46198 39.5823 5.86065 39.923 6.07327 40.141L5.70118 40.577H6.6447C6.6447 40.577 6.68457 39.8821 6.69786 39.3916H4.25267C4.19952 39.814 4.13307 40.25 4.07992 40.577ZM7.68125 40.577V41.1629H7.29586C7.24271 41.776 6.92377 42.0213 6.29918 42.0213H5.83407L5.71447 41.3945C5.71447 41.3945 6.00683 41.449 6.19287 41.449C6.41879 41.449 6.55168 41.3809 6.57825 41.1629H3.28257C3.33573 40.8359 3.44204 40.1137 3.54835 39.3916H3.12311V38.8193H3.62809C3.72111 38.0971 3.80085 37.4022 3.81414 37.0752H7.50849C7.4952 37.484 7.44204 38.1516 7.41546 38.8193H7.81414V39.3916H7.38889C7.3756 39.8276 7.34902 40.25 7.33573 40.577H7.68125ZM4.31912 38.8193H6.72443L6.77759 37.6611H4.43872C4.39885 37.9881 4.35899 38.3969 4.30583 38.8193M4.30583 36.0942H7.78756V36.6937H3.9736C3.74769 37.0752 3.50849 37.4022 3.32244 37.6339L2.75101 37.2387C3.12311 36.7618 3.62809 36.0533 3.86729 35.4265L4.49188 35.6581C4.43872 35.808 4.37227 35.9579 4.30583 36.1078M2.24603 39.3371L2.92377 39.6232C2.72443 40.1955 2.09985 41.5444 1.70118 42.0622L1.02344 41.6534C1.40882 41.0539 2.00683 39.9775 2.24603 39.3371ZM2.84404 38.1789L2.45865 38.8193C2.32576 38.7103 1.54171 38.1653 1.12975 37.9609L1.48855 37.3341C1.86065 37.4976 2.59154 37.9745 2.83075 38.1789M3.12311 36.2713L2.72443 36.8708C2.72443 36.8708 2.05998 36.3803 1.52842 36.1078L1.9138 35.5355C2.25932 35.699 2.77759 36.0124 3.12311 36.2713Z" fill="#E60012"/>
<path d="M12.7043 38.6966C12.8505 38.4105 12.9568 38.1516 13.0365 37.92H13.1694L13.6345 38.1107C13.5415 38.3424 13.4618 38.5331 13.382 38.6966H14.0332V39.2689H12.6777V39.7594H14.0332V40.3317H12.6777V41.6806H12.0133V40.3317H10.6312V39.7594H12.0133V39.2689H10.6312V38.6966H11.3488C11.2957 38.5059 11.2159 38.3151 11.0963 38.1107L11.588 37.92H10.2857V41.8442H9.62125V37.2932H12.0133V36.7482H9.35547V36.1078H12.0133V35.4946H12.691V36.1078H15.3222V36.7482H12.691V37.2932H15.083V41.2719C15.083 41.558 14.8571 41.8578 14.5249 41.8578H13.8339L13.6744 41.2174H14.2458L14.4053 41.0539V37.9336H13.1694H11.6678C11.7874 38.1652 11.8937 38.4241 11.9867 38.7103H12.7176L12.7043 38.6966Z" fill="#E60012"/>
<path d="M29.6874 43.3702C29.4216 43.3702 29.1824 43.5065 29.0628 43.7245C28.9698 43.8744 28.9299 44.1333 29.0894 44.3785C29.1957 44.542 29.3951 44.6919 29.6741 44.8009C29.8203 44.8554 30.1525 45.0189 30.0595 45.3051C30.0063 45.4686 29.8602 45.564 29.6874 45.564C29.4482 45.564 29.2622 45.3596 29.2356 45.1416L28.8369 45.2233C28.8901 45.4958 29.1027 45.9727 29.6608 45.9727C29.9798 45.9727 30.1791 45.8228 30.2854 45.7138C30.4183 45.5776 30.4848 45.3732 30.4848 45.1961C30.4848 44.8691 30.2854 44.6238 29.9 44.4603C29.5545 44.324 29.3818 44.1878 29.3818 44.0379C29.3685 43.8471 29.5545 43.7518 29.7007 43.7654C29.8602 43.779 30.0063 43.8744 30.0595 44.0106L30.405 43.8335C30.2854 43.5474 30.0063 43.3702 29.6874 43.3702Z" fill="#E60012"/>
<path d="M19.9205 43.452V45.9046H20.3059V43.7927H20.678C20.8507 43.7927 21.0368 43.9426 21.0368 44.1606C21.0368 44.4331 20.8109 44.5284 20.678 44.5284H20.3458L21.2494 45.9046H21.7145L20.9571 44.801C21.2096 44.7056 21.4222 44.4876 21.4222 44.1333C21.4222 43.779 21.1165 43.452 20.7444 43.452H19.9072H19.9205Z" fill="#E60012"/>
<path d="M3.00379 43.452V44.4058H1.92737V43.452H1.54199V45.9046H1.92737V44.7737H3.00379V45.9046H3.40246V43.452H3.00379Z" fill="#E60012"/>
<path d="M6.76429 43.452H6.37891V45.9046H6.76429V43.452Z" fill="#E60012"/>
<path d="M19.4289 43.452H19.0303V45.9046H19.4289V43.452Z" fill="#E60012"/>
<path d="M23.8801 43.452H23.4814V45.9046H23.8801V43.452Z" fill="#E60012"/>
<path d="M7.25586 45.9046H7.64124V44.2696L9.47513 46.0136V43.452H9.07646V45.0871L7.25586 43.343V45.9046Z" fill="#E60012"/>
<path d="M12.4648 45.9046H12.8635V44.2696L14.6974 46.0136V43.452H14.2987V45.0871L12.4648 43.343V45.9046Z" fill="#E60012"/>
<path d="M24.3857 45.9046H24.7711V44.2696L26.605 46.0136V43.452H26.2063V45.0871L24.3857 43.343V45.9046Z" fill="#E60012"/>
<path d="M4.89077 44.1605L5.26286 44.9644H4.54526L4.90406 44.1605H4.89077ZM3.65489 45.9046H4.08014L4.35921 45.3187H5.40904L5.68811 45.9046H6.11336L4.87748 43.2885L3.6416 45.9046H3.65489Z" fill="#E60012"/>
<path d="M10.9767 44.1605L11.3355 44.9644H10.6179L10.9767 44.1605ZM9.74083 45.9046H10.1661L10.4451 45.3187H11.495L11.7741 45.9046H12.1993L10.9634 43.2885L9.72754 45.9046H9.74083Z" fill="#E60012"/>
<path d="M17.5285 44.1605L17.8873 44.9644H17.1697L17.5285 44.1605ZM16.2793 45.9046H16.7178L16.9969 45.3187H18.0467L18.3258 45.9046H18.7511L17.5152 43.2885L16.2793 45.9046Z" fill="#E60012"/>
<path d="M22.0195 43.4657V45.9047H23.2023V45.564H22.4182V43.4657H22.0195Z" fill="#E60012"/>
<path d="M27.1094 43.452V45.9046H28.5845V45.564H27.508V44.7328H28.5579V44.3922H27.508V43.8063H28.5845V43.452H27.1094Z" fill="#E60012"/>
</svg>
