<svg width="187" height="46" viewBox="0 0 187 46" fill="none" xmlns="http://www.w3.org/2000/svg">
<g clip-path="url(#clip0_583_3188)">
<path d="M20.6619 7.71483C20.6619 5.00082 22.8349 2.80197 25.5228 2.80197C28.2108 2.80197 30.3837 5.00082 30.3837 7.71483C30.3837 10.4288 28.2108 12.6277 25.5228 12.6277C22.8349 12.6277 20.6619 10.4288 20.6619 7.71483ZM25.5228 30.8719C26.9045 28.1076 30.5093 26.6501 33.5364 25.67C34.4156 25.381 34.805 25.2554 35.8726 24.8659C42.0021 22.5539 46.122 18.2442 46.1345 13.3188C46.1345 6.39552 38.0456 0.703633 27.6832 0.0125649C40.7712 0.703633 51.0582 7.65201 51.0582 16.1082C51.0582 21.7624 47.0515 26.4993 39.4901 29.628C36.4504 30.897 27.4948 33.5231 25.5228 42.8085C23.4629 33.4979 14.5952 30.8845 11.5556 29.628C4.00678 26.4868 0 21.7498 0 16.0956C0 7.63944 10.287 0.691068 23.375 0C13.0001 0.691068 4.9237 6.38296 4.9237 13.3062C4.9237 18.2316 9.05609 22.5414 15.1856 24.8533C16.2532 25.2554 16.63 25.381 17.5093 25.6575C20.5363 26.6501 24.1412 28.1076 25.5228 30.8593M25.5228 22.8555C26.8542 21.6241 28.6127 21.4734 30.1451 21.1467C37.3422 19.6138 42.065 15.8317 42.065 11.0445C42.065 9.10953 41.2485 7.31276 39.8166 5.75471C37.4553 3.16635 33.3982 1.26905 28.6127 0.691068C37.4553 1.62087 44.1877 6.49604 44.1877 12.3638C44.1877 17.6034 39.176 21.4482 31.3886 23.5968C28.0098 24.5266 26.3895 25.1549 25.5103 26.6375C24.631 25.1549 23.0107 24.5266 19.632 23.5968C11.8445 21.4482 6.83289 17.6034 6.83289 12.3638C6.84545 6.49604 13.5778 1.63343 22.4204 0.691068C17.6349 1.26905 13.5778 3.16635 11.2165 5.75471C9.79715 7.31276 8.96816 9.1221 8.96816 11.0445C8.96816 15.8317 13.6909 19.6138 20.888 21.1467C22.433 21.4734 24.1789 21.6241 25.5103 22.8555M25.5228 17.5531C32.6697 17.5531 38.4727 13.8339 38.4727 9.24775C38.4727 5.66676 34.9432 2.61349 29.9944 1.44496C35.8475 2.63862 40.0804 6.11909 40.0804 10.2152C40.0804 14.9396 34.5664 18.3196 29.3035 19.0986C26.7286 19.4756 26.176 19.5635 25.5228 20.2671C24.8697 19.5635 24.317 19.4881 21.7421 19.0986C16.4793 18.3196 10.9653 14.9396 10.9653 10.2152C10.9653 6.10653 15.1981 2.62606 21.0513 1.44496C16.1025 2.61349 12.5856 5.66676 12.5856 9.24775C12.5856 13.8339 18.3759 17.5531 25.5228 17.5531ZM39.2514 37.9585C38.7616 38.2349 38.3596 38.8632 38.2843 39.5165C38.1586 40.6348 38.9751 41.6777 40.1055 41.8159C41.236 41.9541 42.3162 41.0871 42.4166 39.8935C42.5171 38.7752 41.8137 37.6318 40.6079 37.0287C38.7867 36.1114 36.3751 36.3502 34.5412 37.0287C30.4591 38.5239 27.0427 42.3939 25.774 44.354C27.9093 36.6894 36.5635 29.9421 44.3133 33.3472C46.9635 34.5157 48.6843 37.1669 48.4833 40.0066C48.2573 43.2232 45.72 45.9623 41.8765 46C40.0804 46.0251 38.3847 45.1958 37.5055 44.0273C36.0108 42.0546 36.6137 38.9637 39.264 37.9585M11.744 37.9585C12.2339 38.2349 12.6358 38.8632 12.7112 39.5165C12.8493 40.6348 12.0329 41.6777 10.8899 41.8159C9.75947 41.9541 8.67927 41.0871 8.57879 39.8935C8.4783 38.7752 9.18169 37.6318 10.3875 37.0287C12.2088 36.1114 14.6329 36.3502 16.4542 37.0287C20.5363 38.5239 23.9528 42.3939 25.2214 44.354C23.0861 36.6894 14.432 29.9421 6.6696 33.3472C4.0319 34.5157 2.29856 37.1669 2.49953 40.0066C2.72562 43.2232 5.26283 45.9623 9.10633 46C10.9025 46.0251 12.5981 45.1958 13.4774 44.0273C14.9721 42.0546 14.3692 38.9637 11.7189 37.9585" fill="#E60012"/>
<path d="M154.041 26.1852C154.041 26.5748 154.204 26.7255 154.556 26.7255H154.82C155.046 26.7255 155.197 26.6376 155.285 26.4617C155.41 26.1978 155.586 24.8911 155.699 23.7477L158.324 24.4513C158.224 25.0167 158.098 25.9842 157.935 26.6627C157.407 28.7485 156.101 29.2511 155.247 29.2511H152.86C152.232 29.2511 151.165 28.5726 151.165 27.291V14.9899H148.979V17.9804C148.979 22.9184 148.15 26.8135 146.316 29.6783L143.98 27.5925C145.462 25.5319 146.279 21.9509 146.279 17.0632V12.3513H154.054V26.1852H154.041ZM136.846 20.0536L139.031 19.3625C139.509 20.4557 139.999 22.0765 140.413 23.8733L138.039 24.5141C137.662 22.7299 137.235 21.1216 136.833 20.0536M133.794 15.48V7.01125H136.896C137.097 6.21967 137.273 5.17678 137.411 4.29724L140.3 4.67419C140.086 5.62912 139.885 6.33275 139.71 7.01125H143.566V27.2658C143.566 28.4972 142.485 29.5275 141.229 29.5275H138.542L137.876 26.8135H140.162C140.627 26.8261 140.941 26.5999 140.941 26.1476V18.0181H136.394C136.381 22.8933 135.753 26.713 134.497 29.6155L134.409 29.8165L131.947 28.0448L132.01 27.9066C133.178 25.4439 133.769 22.1896 133.769 18.1689V18.0181H131.985V15.4925H133.769L133.794 15.48ZM140.966 9.54936H136.431V15.4674H140.966V9.54936ZM139.069 10.2279C139.584 11.3587 140.049 12.8037 140.388 14.3617L138.064 15.103C137.838 13.7083 137.273 11.7482 136.858 10.7556L139.069 10.2279ZM144.432 10.3912V7.66463H148.64V4.63649H151.78V7.66463H156.541V10.3912H144.445H144.432Z" fill="#E60012"/>
<path d="M164.366 18.596L163.047 15.7312C167.494 15.1156 169.981 13.5449 171.576 10.5671L174.402 11.7859C172.443 15.5679 168.838 17.8421 164.366 18.596ZM179.439 13.3942C179.439 14.1606 180.105 14.6507 180.67 14.6507H186.649V17.3521H179.426C177.932 17.3521 176.512 16.0328 176.512 14.5627V10.743H179.439V13.3942ZM166.401 13.1429H163.449V6.97352H173.447V4.59875H176.512V6.97352H186.649V13.1429H183.697V9.70009H166.414V13.1429H166.401ZM187 26.1726V29.0123H163.01V26.1726H173.435V22.0388H165.522V19.1991H184.689V22.0137H176.5V26.1726H187Z" fill="#E60012"/>
<path d="M87.019 13.2182C88.0741 14.0224 89.0412 14.8265 90.0586 15.7815L88.4509 17.528C87.5842 16.6861 86.4915 15.7563 85.3862 14.9145L87.019 13.2182ZM82.0576 24.3507H88.1118C87.1446 23.3581 86.0895 22.3906 84.9214 21.5362L86.5166 19.8274C87.534 20.5184 89.0915 21.8252 89.933 22.667L88.476 24.3507H92.2065C92.2065 24.1497 92.3446 21.687 92.4326 19.7394H82.7233C82.5098 21.3854 82.246 23.0565 82.0451 24.3507M96.3765 24.3507V26.5873H94.8316C94.6181 28.962 93.3369 29.9044 90.8876 29.9044H89.0789L88.6016 27.4919C88.6016 27.4919 89.7823 27.7055 90.5108 27.7055C91.4403 27.7055 91.9301 27.4165 92.0432 26.5873H78.9426C79.1687 25.3182 79.5958 22.5037 79.9852 19.7394H78.2895V17.5531H80.274C80.6383 14.7763 80.9523 12.0497 81.0277 10.8183H95.6983C95.6229 12.4015 95.4471 15.0024 95.334 17.5531H96.9292V19.7394H95.221C95.1456 21.398 95.0451 23.0817 94.9823 24.3507H96.3514H96.3765ZM83.0122 17.5531H92.5958L92.8219 13.0926H83.5272C83.4016 14.3365 83.2132 15.9197 83.0122 17.5531ZM82.9494 6.98606H96.791V9.31056H81.6431C80.7388 10.7681 79.7842 12.0246 79.0431 12.9669L76.7822 11.434C78.2518 9.58699 80.274 6.82272 81.2035 4.38513L83.703 5.27724C83.477 5.85522 83.2258 6.43321 82.9494 6.98606ZM74.8102 19.5258L77.4856 20.6064C76.6943 22.8304 74.1822 28.0322 72.6373 30.0677L69.9619 28.5097C71.5068 26.1852 73.8305 22.0011 74.7977 19.5258M77.1842 15.0401L75.6518 17.5029C75.1117 17.0757 72.0344 14.9773 70.4015 14.1732L71.846 11.7733C73.3407 12.4267 76.2296 14.236 77.1967 15.0401M78.2644 7.68969L76.7069 10.0016C76.531 9.87598 74.0441 8.1169 71.9465 7.04888L73.4788 4.8249C74.873 5.47828 76.9078 6.6845 78.2769 7.68969" fill="#E60012"/>
<path d="M116.36 17.0757C116.938 15.97 117.378 14.9648 117.654 14.0601H118.169L120.04 14.814C119.689 15.7187 119.337 16.4726 119.01 17.0757H121.585V19.3123H116.222V21.2347H121.61V23.4461H116.222V28.648H113.609V23.4461H108.12V21.2347H113.609V19.3123H108.108V17.0757H110.959C110.72 16.3092 110.419 15.6056 109.929 14.8015L111.901 14.0727H106.714V29.2636H104.051V11.6226H113.534V9.48652H102.971V6.99868H113.534V4.64905H116.247V6.99868H126.71V9.48652H116.247V11.6226H125.73V27.0145C125.73 28.1202 124.813 29.2636 123.507 29.2636H120.781L120.153 26.8009H122.427C122.728 26.8009 123.067 26.6124 123.067 26.1601V14.0601H118.169L112.215 14.0853C112.705 14.9774 113.12 15.9826 113.459 17.0883H116.36V17.0757Z" fill="#E60012"/>
<path d="M183.798 35.1565C182.768 35.1691 181.813 35.6968 181.323 36.5261C180.971 37.1292 180.796 38.1218 181.411 39.0893C181.838 39.7427 182.617 40.2955 183.735 40.7102C184.325 40.9363 185.644 41.5646 185.267 42.6703C185.054 43.286 184.476 43.6755 183.772 43.7006C182.793 43.7132 182.114 42.8839 181.964 42.0797L180.406 42.3813C180.582 43.4116 181.449 45.2712 183.697 45.2712C184.966 45.2712 185.744 44.7184 186.171 44.2535C186.674 43.7006 186.975 42.9467 186.975 42.2305C186.975 40.9489 186.184 39.994 184.627 39.3909C183.257 38.8631 182.592 38.3228 182.554 37.7449C182.504 37.0161 183.245 36.6643 183.823 36.7145C184.463 36.7648 185.041 37.1292 185.255 37.6443L186.649 36.9658C186.159 35.8476 185.066 35.1565 183.785 35.1816" fill="#E60012"/>
<path d="M145.011 35.4957V44.9948H146.568V36.8402H148.063C148.754 36.8402 149.507 37.4056 149.507 38.2474C149.507 39.2903 148.616 39.6798 148.063 39.6798H146.769L150.324 44.9948H152.158C152.158 44.9948 149.319 40.9112 149.181 40.7227C150.173 40.3709 151.04 39.5291 151.04 38.1092C151.04 36.6894 149.821 35.4957 148.339 35.4957H145.011Z" fill="#E60012"/>
<path d="M77.8116 35.4957V39.1772H73.5536V35.4957H71.9961V45.0073H73.5536V40.5971H77.8116V45.0073H79.3691V35.4957H77.8116Z" fill="#E60012"/>
<path d="M92.7841 35.4957H91.2266V44.9948H92.7841V35.4957Z" fill="#E60012"/>
<path d="M142.988 35.4957H141.431V44.9948H142.988V35.4957Z" fill="#E60012"/>
<path d="M160.711 35.4957H159.153V44.9948H160.711V35.4957Z" fill="#E60012"/>
<path d="M94.6807 45.0074H96.2256V38.6621C96.5145 38.9511 103.523 45.4095 103.523 45.4095V35.5084H101.941V41.8034C101.652 41.5144 94.6807 35.0435 94.6807 35.0435V44.9948V45.0074Z" fill="#E60012"/>
<path d="M115.405 45.0074H116.95V38.6621C117.252 38.9511 124.248 45.4095 124.248 45.4095V35.5084H122.665V41.8034C122.376 41.5144 115.405 35.0435 115.405 35.0435V44.9948V45.0074Z" fill="#E60012"/>
<path d="M162.721 45.0074H164.266V38.6621C164.567 38.9511 171.563 45.4095 171.563 45.4095V35.5084H169.981V41.8034C169.692 41.5144 162.721 35.0435 162.721 35.0435V44.9948V45.0074Z" fill="#E60012"/>
<path d="M85.2977 38.2224C85.4484 38.5365 86.7296 41.2882 86.7422 41.3133H83.8784C83.9789 41.0872 85.1596 38.5239 85.2977 38.2224ZM80.3866 45.0074H82.0948C82.0948 45.0074 83.1624 42.8211 83.2001 42.7206H87.3953C87.4456 42.8211 88.5006 45.0074 88.5006 45.0074H90.1963L85.2852 34.8801L80.374 45.0074H80.3866Z" fill="#E60012"/>
<path d="M109.502 38.2224C109.653 38.5365 110.921 41.238 110.946 41.3133H108.082C108.183 41.0872 109.364 38.5239 109.502 38.2224ZM104.591 45.0074H106.299C106.299 45.0074 107.367 42.8211 107.417 42.7206H111.599C111.65 42.8211 112.705 45.0074 112.705 45.0074H114.4L109.489 34.8801L104.578 45.0074H104.591Z" fill="#E60012"/>
<path d="M135.477 38.2224C135.616 38.5239 136.834 41.1123 136.922 41.3133H134.058C134.133 41.15 135.339 38.5365 135.477 38.2224ZM130.566 45.0074H132.274C132.274 45.0074 133.342 42.8211 133.38 42.7206H137.575C137.625 42.8211 138.68 45.0074 138.68 45.0074H140.376L135.465 34.8801L130.554 45.0074H130.566Z" fill="#E60012"/>
<path d="M153.351 35.546V45.0074H158.048V43.6629H154.921V35.546H153.351Z" fill="#E60012"/>
<path d="M173.573 35.4957V45.0073H179.426V43.6629H175.143V40.4714H179.301V39.127H175.143V36.8402H179.426V35.4957H173.573Z" fill="#E60012"/>
</g>
<defs>
<clipPath id="clip0_583_3188">
<rect width="187" height="46" fill="white"/>
</clipPath>
</defs>
</svg>
