<svg width="46" height="46" viewBox="0 0 46 46" fill="none" xmlns="http://www.w3.org/2000/svg">
<g clip-path="url(#clip0_583_3343)">
<path fill-rule="evenodd" clip-rule="evenodd" d="M0.126471 25.4773V25.4686L0.123568 25.454L0.126471 25.4759V25.4773ZM24.3465 0.0407386C29.4417 0.342306 34.0505 2.28137 37.6941 5.31453C35.2772 7.80283 31.1749 12.5638 25.1144 15.8592C19.0017 19.1823 10.9656 18.5092 9.70418 24.0336C8.44128 29.558 14.7529 29.9732 14.7529 29.9732C14.7529 29.9732 11.2589 28.6751 12.4317 25.9566C13.6046 23.2396 18.9625 24.5318 18.0756 29.8624C17.1872 35.1916 11.9121 37.6901 7.58628 35.7933C3.26049 33.8979 1.02792 30.2412 0.122117 25.4526C-0.0114313 24.3759 -0.0288506 22.7851 0.0379234 21.6414C0.782598 8.96248 11.6668 -0.709539 24.3465 0.0407386Z" fill="#E50113"/>
<path fill-rule="evenodd" clip-rule="evenodd" d="M37.7146 5.33057C43.1276 9.8468 46.4039 16.7829 45.9583 24.3585C45.2136 37.0389 34.3294 46.7094 21.6496 45.9592C10.3184 45.289 1.38665 36.5217 0.146973 25.6143C1.391 34.1864 7.73017 41.5216 16.81 40.512C14.9592 40.241 14.2145 40.0808 13.1432 39.5345C15.1827 39.9395 16.9769 40.1959 20.5784 39.3684C18.189 39.5709 16.913 39.3189 15.5442 38.8133C18.1788 39.1295 21.4116 38.8337 23.1724 38.0281C20.3911 38.1738 19.0469 38.1053 17.5837 37.559C20.8295 37.6304 23.4162 37.4031 26.1148 36.0366C22.8385 36.5989 20.6364 36.4853 19.2748 36.0249C23.065 35.7671 25.6096 35.534 29.0514 33.5264C25.659 34.5462 21.6772 34.7924 20.6117 34.3379C25.2467 33.946 28.7393 32.9189 31.2927 30.8764C27.0888 32.2954 23.0025 32.7004 21.8137 32.5023C25.8912 31.685 30.1372 29.9586 33.9346 26.586C29.3707 28.8485 26.2106 29.6002 22.8777 29.8144C28.1587 28.0006 33.8649 24.4459 37.3023 18.9725C31.612 23.3838 28.0861 24.9951 23.7908 25.9042C29.6901 22.5928 34.4252 18.7088 38.3504 12.0219C33.8867 15.7398 30.1953 19.4984 23.785 21.3326C29.619 17.1165 32.5193 15.2575 37.7175 5.33057" fill="#005BAB"/>
<path fill-rule="evenodd" clip-rule="evenodd" d="M37.7579 5.24902C35.3497 7.71837 31.2286 12.5347 25.1144 15.8592C19.0017 19.1823 10.967 18.5093 9.70413 24.0336C8.44123 29.558 14.7528 29.9732 14.7528 29.9732C14.7528 29.9732 11.2588 28.6751 12.4303 25.9567C13.6032 23.2396 18.961 24.5319 18.0741 29.8625C17.1857 35.1916 11.9106 37.6901 7.58479 35.7933C3.26045 33.8979 1.02787 30.2398 0.12207 25.4511C1.30949 34.0917 7.67188 41.5275 16.8083 40.5106C14.9575 40.2396 14.2128 40.0794 13.1415 39.533C15.181 39.938 16.9752 40.1944 20.5767 39.367C18.1873 39.5695 16.9114 39.3174 15.5425 38.8119C18.1772 39.128 21.4099 38.8323 23.1707 38.0267C20.3894 38.1723 19.0452 38.1039 17.582 37.5575C20.8278 37.6289 23.4146 37.4017 26.1131 36.0351C22.8368 36.5975 20.6347 36.4839 19.2731 36.0235C23.0633 35.7656 25.6079 35.5325 29.0497 33.525C25.6573 34.5448 21.6755 34.791 20.6101 34.3365C25.245 33.9446 28.7376 32.9175 31.291 30.875C27.0871 32.294 23.0009 32.699 21.812 32.5008C25.8896 31.6835 30.1355 29.9572 33.9329 26.5846C29.3691 28.8471 26.2089 29.5988 22.876 29.8129C28.157 27.9992 33.8632 24.4445 37.3006 18.9711C31.6103 23.3824 28.0844 24.9937 23.7891 25.9028C29.6884 22.5913 34.4236 18.7074 38.3487 12.0204C33.885 15.7383 30.1936 19.497 23.7833 21.3312C29.6333 17.1034 32.5336 15.2459 37.7594 5.24756" fill="#FEFEFE"/>
</g>
<defs>
<clipPath id="clip0_583_3343">
<rect width="46" height="46" fill="white"/>
</clipPath>
</defs>
</svg>
