<svg width="174" height="46" viewBox="0 0 174 46" fill="none" xmlns="http://www.w3.org/2000/svg">
<g clip-path="url(#clip0_583_2267)">
<path d="M66.8934 12.9983H59.4066V6.96313H57.2832V21.005H59.4066V14.862H66.8934V21.005H69.0167V6.96313H66.8934V12.9983Z" fill="#702B91"/>
<path d="M77.1219 13.1008H73.9368V6.96313H71.8135V21.005H73.9368V14.9645L77.0118 14.9619L81.2664 21.0207H83.5077V20.6869L78.7524 14.0813L83.5155 7.28908V6.96313H81.3083L77.1219 13.1008Z" fill="#702B91"/>
<path d="M156.25 9.53647C157.581 9.53647 159.264 9.9623 160.601 10.6326L161.521 7.6071C160.454 7.12344 158.336 6.62927 156.577 6.62927C152.889 6.62927 150.49 8.4351 150.464 11.2319C150.443 13.3505 151.523 14.6727 153.765 15.2773L156.208 15.9213C157.214 16.1841 158.119 16.4812 158.111 17.2461C158.1 18.3974 156.85 18.5446 155.765 18.5446C154.006 18.5446 152.283 17.806 151.298 17.2934L150.648 20.2505C151.447 20.6501 153.332 21.4255 155.896 21.4255C159.377 21.4255 161.469 19.7564 161.495 16.9648C161.516 14.8146 160.515 13.5924 158.25 13.0036L155.563 12.3044C154.525 12.0284 153.896 11.797 153.903 10.9244C153.911 10.0385 154.766 9.53647 156.25 9.53647Z" fill="#702B91"/>
<path d="M170.723 12.9983L168.036 12.2991C166.998 12.0231 166.369 11.7918 166.376 10.9191C166.384 10.0412 167.242 9.53647 168.725 9.53647C170.057 9.53647 171.74 9.9623 173.077 10.6326L173.997 7.6071C172.93 7.12344 170.812 6.62927 169.053 6.62927C165.365 6.62927 162.966 8.4351 162.94 11.2319C162.919 13.3505 163.999 14.6727 166.24 15.2773L168.683 15.9213C169.69 16.1841 170.594 16.4812 170.586 17.2461C170.576 18.3974 169.326 18.5446 168.24 18.5446C166.481 18.5446 164.759 17.806 163.773 17.2934L163.123 20.2505C163.923 20.6501 165.808 21.4255 168.371 21.4255C171.853 21.4255 173.945 19.7564 173.971 16.9648C173.992 14.8094 172.99 13.5871 170.723 12.9983Z" fill="#702B91"/>
<path d="M117.668 6.62665C114.383 6.40848 111.838 8.53762 111.838 8.53762V26.6064H115.437V10.1568C116.024 9.94917 116.632 9.82037 117.199 9.82037C120.048 9.82037 121.223 12.102 121.223 14.26C121.223 16.928 118.874 18.3869 116.688 17.9137L116.682 21.3756C124.075 21.8487 124.945 15.7583 124.953 13.9709C125.032 9.9518 122.31 6.80014 117.668 6.62665Z" fill="#702B91"/>
<path d="M128.465 7.9935C127.115 8.7663 127.021 9.78093 127.016 10.3093V20.9681H130.638V10.7772C130.638 10.7772 132.502 9.47601 135.664 9.82036L135.693 6.98939C135.229 6.78699 134.602 6.70024 133.813 6.6871C131.123 6.63979 129.094 7.6071 128.465 7.9935Z" fill="#702B91"/>
<path d="M140.765 17.3959C140.05 16.8281 139.615 15.9975 139.562 15.0828C139.455 13.2822 140.702 11.7129 140.954 11.3949C142.239 9.97809 143.649 9.76517 144.543 10.0385C145.746 10.4092 145.154 11.2293 144.616 11.7576C143.379 12.9773 141.46 12.9589 141.46 12.9589C140.679 14.2521 140.488 15.4087 141.379 16.2078C143.151 16.5022 145.356 15.9344 147.091 14.3468C148.976 12.5988 148.75 10.814 148.449 9.90449C147.977 8.48506 146.732 7.34426 145.12 6.85009C144.218 6.52152 140.891 6.11409 138.283 9.0134C135.876 11.8785 135.488 15.7373 137.496 18.4868C140.891 23.1551 146.648 21.2441 148.732 19.8326L146.7 16.9096C145.439 17.8428 142.616 18.8627 140.765 17.3959Z" fill="#702B91"/>
<path d="M110.228 7.06563L110.26 6.97889H106.44L106.422 7.01569C105.761 8.36151 104.818 9.80723 103.693 11.2004L100.754 6.97889H96.762L101.454 13.7185C100.201 14.8331 96.5995 17.6377 93.4957 18.1766C91.1836 18.5788 89.3408 17.7403 88.2817 16.3944C87.8832 15.8871 87.6342 15.2694 87.629 14.6228C87.6159 12.9694 88.7981 11.4606 89.021 11.182C89.7969 10.3277 90.6174 9.90974 91.3409 9.77306C91.818 9.68369 92.2532 9.70997 92.6018 9.82826C93.0475 9.97809 93.9702 10.3067 92.628 11.5947C91.3566 12.5988 90.4339 12.6513 89.4902 12.746C88.1769 14.8541 89.2071 15.8976 89.8257 16.0238C92.0959 16.2709 94.0829 15.1248 95.1525 14.1312C95.9625 13.3795 97.2129 11.8049 96.5104 9.68894C96.0385 8.26951 94.7933 7.12871 93.1812 6.63454C92.2794 6.35854 89.1206 5.69877 86.3445 8.79786C86.3445 8.79786 83.3351 12.0468 84.575 16.1684C85.9355 20.6843 90.0092 21.7567 93.8444 21.4308C97.6953 21.1022 101.132 18.5604 103.441 16.5732L106.427 21.0391H110.42L105.811 14.2416C107.864 11.868 109.429 9.32094 110.228 7.06563Z" fill="#702B91"/>
<path d="M62.8888 31.3168L56.9958 23.9358L51.6035 28.4569L57.4965 35.838L62.8888 31.3168Z" fill="#21B9DA"/>
<path d="M49.8913 29.8317C49.8913 29.8317 42.6902 36.5424 35.2952 36.5424C26.5606 36.5424 24.0833 30.3075 23.656 29.0563C21.1421 21.7173 27.7795 13.0798 32.194 10.7404C33.9949 9.78358 36.5404 8.82415 38.4671 9.85193C38.5326 9.8861 39.2955 10.3408 38.0949 12.512C37.3242 13.9026 33.392 19.1991 26.689 20.2742C24.4634 25.0424 25.5487 28.2467 26.4505 29.7844C31.266 29.4322 35.8221 27.5869 40.019 24.2854L40.116 24.2066C43.8122 21.1232 49.7261 14.8856 47.8073 7.74907C46.7351 3.76678 43.4347 0.94107 38.9757 0.189298C33.3134 -0.762244 24.8776 1.67707 18.2952 11.4527C14.308 16.7782 8.01396 35.2045 25.6536 44.0365C41.5132 50.9864 55.6925 37.2522 55.6925 37.2522L49.8913 29.8317Z" fill="#702B91"/>
<path d="M13.4925 16.1684C11.0755 14.402 7.66506 11.1452 6.24162 9.67847L0 16.794C3.34494 21.0392 9.43715 24.9899 11.571 26.1517C11.5395 22.4849 12.3863 18.9757 13.4925 16.1684Z" fill="#702B91"/>
<path d="M154.326 28.3545H153.186V38.6217H154.326V28.3545Z" fill="#702B91"/>
<path d="M151.537 33.7035H152.601C152.761 32.6915 152.837 31.5718 152.845 30.36H151.852C151.857 31.556 151.755 32.6705 151.537 33.7035Z" fill="#702B91"/>
<path d="M156.09 32.8939C155.82 32.1027 155.629 31.2668 155.561 30.36H154.606C154.661 31.3326 154.787 32.2052 155.044 32.8939H156.09Z" fill="#702B91"/>
<path d="M140.711 30.8568L140.732 30.8831H142.247L142.144 30.7675C141.355 29.8895 140.839 28.8118 140.655 28.3886L140.637 28.3466H139.287L139.329 28.4438C139.743 29.3848 140.197 30.1734 140.711 30.8568Z" fill="#702B91"/>
<path d="M140.618 34.2976L139.001 38.5822H140.44L141.997 34.2976H140.618Z" fill="#702B91"/>
<path d="M139.337 31.2144C139.704 32.1449 140.084 33.057 140.587 33.8009H142.084C141.576 33.22 141.085 32.2842 140.674 31.2144H139.337Z" fill="#702B91"/>
<path d="M161.577 34.2451L161.572 31.196C161.572 31.196 161.603 30.6124 160.995 30.3364C160.436 30.1603 159.904 30.0473 159.367 29.9921C159.257 29.9816 159.149 29.9737 159.044 29.9658L159.05 28.3597H157.7V29.9842C156.987 30.0473 156.365 30.1866 155.875 30.3128C155.912 30.6308 155.962 30.9489 156.022 31.2617C156.638 31.0987 157.175 30.9936 157.705 30.941C157.708 31.5666 157.697 32.6759 157.65 33.2962H155.021V34.2425H157.571C157.312 35.7066 156.35 37.1392 154.711 38.4955L154.564 38.6164H156.339L156.358 38.598C157.283 37.7621 157.999 36.6792 158.483 35.3807L160.465 38.6164H161.97L159.225 34.2399H161.577V34.2451ZM159.034 30.92C159.501 30.9541 159.959 31.033 160.431 31.1644V33.2988H159.034V30.92Z" fill="#702B91"/>
<path d="M136.755 33.6563C135.997 33.1464 135.142 32.0529 134.668 31.4299H136.555V30.5047H132.296V29.5636C133.074 29.5373 134.689 29.4191 135.926 29.3218L135.989 29.3165V28.3545L135.913 28.3624C133.79 28.5963 131.035 28.7093 127.493 28.7093H127.425V29.6346C127.425 29.6346 130.253 29.6136 131.108 29.5899V30.5047H126.859V31.4299H128.678C128.269 32.0503 127.632 32.8047 127.071 33.3251C126.948 33.4381 126.833 33.538 126.725 33.6221L126.562 33.7483H127.941C127.905 33.7746 127.865 33.7983 127.831 33.8298C127.572 34.0375 127.425 34.3266 127.425 34.6236L127.456 37.1917C127.464 37.3652 127.506 37.5256 127.585 37.6701C127.669 37.82 127.8 37.9435 127.965 38.025C128.94 38.5087 130.246 38.7768 131.643 38.7768H131.774C133.171 38.7768 134.477 38.5087 135.452 38.025C135.617 37.9435 135.748 37.82 135.832 37.6701C135.911 37.5256 135.952 37.3679 135.96 37.1917L135.992 34.5868C135.992 34.3082 135.866 34.0375 135.633 33.8167C135.617 33.8035 135.601 33.7956 135.585 33.7825H136.949L136.755 33.6563ZM128.699 33.4434C129.247 32.8125 129.766 32.0082 130.091 31.4299H131.108V33.538H128.61C128.641 33.5065 128.67 33.4776 128.699 33.4434ZM128.602 34.7077C128.602 34.6105 128.66 34.4975 128.822 34.4975H134.595C134.71 34.4975 134.815 34.5868 134.815 34.6841V35.4175H128.602V34.7077ZM134.817 36.7633C134.817 36.7896 134.823 37.1024 134.453 37.2575C134.453 37.2575 133.263 37.6859 131.803 37.678H131.617C130.159 37.6885 128.966 37.2575 128.966 37.2575C128.597 37.1024 128.602 36.8027 128.602 36.7633V36.3637H134.815V36.7633H134.817ZM132.298 33.538V31.4299H133.203C133.444 31.8032 134.107 32.7836 134.849 33.538H132.298Z" fill="#702B91"/>
<path d="M164.983 30.9778L165.001 31.012H166.396L166.32 30.9042C165.981 30.4179 165.407 28.9827 165.174 28.3965L165.156 28.3545H163.863L163.903 28.4491C164.144 29.0221 164.618 30.3312 164.983 30.9778Z" fill="#702B91"/>
<path d="M173.059 29.6662L173.054 28.5753H167.276L167.284 29.6741L173.059 29.6662Z" fill="#702B91"/>
<path d="M166.39 36.6976L166.356 32.3972C166.356 32.0424 166.256 31.769 166.06 31.585C165.876 31.401 165.622 31.3116 165.284 31.3116H163.745L163.758 32.3158H164.998C165.121 32.3158 165.15 32.4156 165.155 32.4472V36.8027C164.576 37.8463 163.887 38.6243 163.887 38.6243H165.349C165.349 38.6243 165.761 37.9856 165.929 37.7043C170.162 39.8992 174 38.0487 174 38.0487V36.8737C173.347 37.0235 170.422 38.6795 166.39 36.6976Z" fill="#702B91"/>
<path d="M168.01 32.5339L167.276 35.0284C167.161 35.2992 167.166 35.6146 167.336 35.8433C167.423 35.9563 167.827 36.1771 168.188 36.298C168.6 36.4373 169.237 36.5819 170.099 36.5845C170.833 36.5845 171.499 36.4505 172.244 36.1508C172.33 36.2717 172.425 36.4005 172.493 36.4978L173.67 36.3348C172.962 35.4911 172.432 34.5369 171.987 33.5512L170.904 33.701C171.143 34.2425 171.423 34.7866 171.712 35.3044C171.266 35.4385 170.752 35.562 170.272 35.5699C169.633 35.5804 169.053 35.5095 168.558 35.3465C168.55 35.3465 168.39 35.3018 168.309 35.1993L169.153 32.5365L173.541 32.5313L173.536 31.4457L166.817 31.4404L166.823 32.5339H168.01Z" fill="#702B91"/>
<path d="M144.48 37.4913C144.076 37.3862 144.102 37.076 144.102 37.0155V36.4898C145.806 36.8552 147.185 36.6002 147.982 36.2243C148.344 36.0535 148.396 35.5724 148.415 35.4147H149.78C149.78 35.4147 148.554 34.2976 147.951 32.6705H149.573V31.7347H147.715V30.4835H149.296V29.5372H147.715V28.3439H146.561V29.5372H144.839V28.3439H143.675V29.5372H142.291V30.4835H143.675V31.7347H142.013V32.6705H143.536C142.839 34.387 141.693 35.4147 141.693 35.4147H142.902V37.3204C142.904 37.5596 143.022 37.9145 143.23 38.13C143.431 38.3403 143.646 38.4113 143.935 38.4902C144.635 38.6847 145.476 38.7688 145.966 38.7714C147.78 38.7819 148.986 38.1458 148.986 38.1458V36.8972L148.884 36.9577C148.208 37.3467 147.502 37.5386 146.865 37.6175C145.549 37.7857 144.527 37.5044 144.48 37.4913ZM144.842 30.4862H146.564V31.7374H144.842V30.4862ZM144.797 32.6731H146.758C146.847 32.9176 146.96 33.2251 147.038 33.4275H144.459C144.572 33.2041 144.705 32.9018 144.797 32.6731ZM144.102 34.5158C144.102 34.4553 144.194 34.3633 144.231 34.3633H147.117C147.164 34.3633 147.246 34.429 147.246 34.479V35.42C146.58 35.6329 145.12 35.7486 144.102 35.4147V34.5158Z" fill="#702B91"/>
</g>
<defs>
<clipPath id="clip0_583_2267">
<rect width="174" height="46" fill="white"/>
</clipPath>
</defs>
</svg>
