<svg width="64" height="46" viewBox="0 0 64 46" fill="none" xmlns="http://www.w3.org/2000/svg">
<g clip-path="url(#clip0_583_2447)">
<path fill-rule="evenodd" clip-rule="evenodd" d="M27.678 15.2221C29.36 16.2925 31.0838 16.376 31.626 17.363C32.1542 16.376 33.8919 16.2925 35.574 15.2221C36.8112 14.4298 37.5619 13.401 37.5619 12.0387C37.5619 10.871 36.7834 9.49473 35.574 8.73014C36.2691 9.41132 36.7973 10.4678 36.7973 11.4131C36.7973 12.7894 36.0328 14.0961 33.9197 14.9858C32.891 15.4168 32.0152 15.5697 31.6399 16.0145C31.2646 15.5697 30.3888 15.4168 29.3601 14.9858C27.247 14.11 26.4824 12.8033 26.4824 11.4131C26.4824 10.4678 27.0107 9.41132 27.7058 8.73014C26.4824 9.49473 25.7179 10.871 25.7179 12.0387C25.7179 13.401 26.4824 14.4298 27.7058 15.2221M29.5964 14.1517C30.3888 14.6105 31.2507 14.7634 31.626 15.1526C31.9874 14.7634 32.8632 14.6105 33.6556 14.1517C34.6287 13.5957 35.2126 12.706 35.3794 11.6634C35.7547 9.2445 34.1839 7.56242 33.0439 5.01845C32.0986 2.87762 31.626 0.013916 31.626 0.013916C31.626 0.013916 31.1672 2.87762 30.208 5.01845C29.082 7.56242 27.5112 9.2584 27.8726 11.6634C28.0394 12.706 28.6233 13.5957 29.5964 14.1517ZM31.626 11.7329C32.2377 11.7329 32.7242 12.2333 32.7242 12.8311C32.7242 13.4288 32.2238 13.9432 31.626 13.9432C31.0282 13.9432 30.5278 13.4427 30.5278 12.8311C30.5278 12.2194 31.0282 11.7329 31.626 11.7329ZM40.8705 24.2025C40.5368 23.3267 40.3839 22.6872 40.0642 21.9226C38.6601 18.5029 36.0884 18.3083 34.587 18.5863C32.4879 18.9755 31.6121 20.4352 31.6121 20.4352C31.6121 20.4352 30.7363 18.9755 28.6511 18.5863C27.1636 18.3083 24.5918 18.5029 23.1878 21.9226C22.8681 22.6872 22.7151 23.3267 22.3815 24.2025C22.0201 25.1617 21.5891 25.8568 20.9914 26.2182C20.5743 26.4684 19.9765 26.6631 19.1008 26.7882C20.8801 27.664 23.9385 28.0115 26.2739 26.7604C28.4008 25.6065 29.2071 23.7854 29.7076 22.2702C29.93 21.6029 30.2358 21.2554 30.3888 21.1164C30.5556 20.9634 30.7502 20.8383 30.9726 20.7688C31.1811 20.6854 31.4036 20.6437 31.6399 20.6437C31.8762 20.6437 32.0986 20.6854 32.3072 20.7688C32.5296 20.8383 32.7242 20.9634 32.891 21.1164C33.0439 21.2554 33.3498 21.6168 33.5722 22.2702C34.0866 23.7715 34.8789 25.6065 37.0198 26.7604C39.3552 28.0115 42.3996 27.664 44.1929 26.7882C43.3032 26.677 42.7194 26.4684 42.2884 26.2182C41.6907 25.8568 41.2597 25.1617 40.8983 24.2025M28.6511 19.7123C28.2062 19.7123 27.6502 19.7123 27.2887 20.0042C27.0246 20.2128 26.9829 20.4908 27.0663 20.6854C27.1636 20.9356 27.4694 21.0469 27.7197 20.9495C27.9421 20.8661 28.0533 20.6298 27.9838 20.4213L27.7197 20.185C28.2757 20.2406 28.5677 20.7966 28.3591 21.3249C28.234 21.6307 27.956 21.867 27.5668 21.9644C26.7605 22.1451 26.0515 21.6724 25.8847 21.0747C25.7318 20.5603 25.8569 19.9625 26.4963 19.5177C27.8031 18.628 30.3332 19.2675 31.3341 20.6576C30.7085 20.1433 29.7076 19.7401 28.6372 19.7123M37.3534 21.0747C37.1866 21.6724 36.4776 22.1451 35.6713 21.9644C35.2821 21.8809 35.0041 21.6307 34.8789 21.3249C34.6704 20.7966 34.9623 20.2406 35.5184 20.185L35.2543 20.4213C35.1709 20.6298 35.296 20.8661 35.5184 20.9495C35.7686 21.0469 36.0745 20.9495 36.1718 20.6854C36.2552 20.4769 36.2274 20.1989 35.9494 20.0042C35.574 19.7262 35.0319 19.6984 34.587 19.7123C33.5166 19.7401 32.5157 20.1433 31.8901 20.6576C32.891 19.2675 35.4211 18.628 36.7278 19.5177C37.3673 19.9625 37.4924 20.5464 37.3395 21.0747M42.5665 8.82745C39.9808 9.06378 38.9799 10.5929 38.4794 12.7755C37.7704 15.8477 35.5879 16.5011 33.8224 17.1961C32.0152 17.8912 31.6121 18.8504 31.6121 18.8504C31.6121 18.8504 31.2089 17.8912 29.4018 17.1961C27.6363 16.515 25.4537 15.8477 24.7448 12.7755C24.2443 10.5929 23.2295 9.04988 20.6577 8.82745C18.7532 8.66064 17.2519 9.46692 16.6958 9.80056C16.6958 9.80056 17.3353 9.81446 17.9191 10.2315C18.3501 10.5373 18.7949 10.9961 19.0869 12.1777C19.6429 14.4437 20.1573 15.2499 20.7689 15.9589C21.6725 17.0015 23.4797 18.058 27.0941 17.8773C29.9022 17.7383 31.1533 18.8782 31.6121 19.4482C32.0708 18.8782 33.3359 17.7383 36.1301 17.8773C39.7445 18.058 41.5516 17.0015 42.4552 15.9589C43.0669 15.2638 43.5813 14.4437 44.1373 12.1777C44.4293 10.9961 44.8741 10.5373 45.305 10.2315C45.8889 9.81446 46.5284 9.80056 46.5284 9.80056C45.9723 9.48082 44.471 8.66064 42.5665 8.82745Z" fill="#E60012"/>
<path fill-rule="evenodd" clip-rule="evenodd" d="M6.45026 31.7788C7.54848 31.6815 8.59109 32.2097 8.91083 33.1272C9.81442 35.7407 6.26955 36.964 4.83769 35.3098C3.51705 33.7945 4.74038 31.9317 6.45026 31.7649M6.08883 35.3515C8.28526 36.3524 8.77181 32.0846 6.49197 32.3349L6.45026 32.3766C5.19913 32.5712 4.8933 34.8232 6.08883 35.3515Z" fill="#231815"/>
<path fill-rule="evenodd" clip-rule="evenodd" d="M17.9469 32.0569C17.933 32.2932 17.7384 32.3488 17.6967 32.5713C16.4595 32.0152 14.972 32.5157 14.9164 33.8085C14.8608 34.9206 15.7922 35.713 17.1406 35.4072C17.224 35.0457 17.1545 34.5175 17.1823 34.1004H18.0998V35.8103C16.0841 36.7556 13.0397 35.3516 14.0684 33.0717C14.5967 31.904 16.5151 31.3757 17.9469 32.0708" fill="#231815"/>
<path fill-rule="evenodd" clip-rule="evenodd" d="M24.3972 31.7788C25.9402 31.6398 27.2053 32.599 26.9411 34.3228C26.677 35.9909 24.0357 36.8111 22.7429 35.282C21.7976 34.1559 22.3953 32.4878 23.4658 31.9734C23.716 31.8622 23.8689 31.8205 24.3972 31.7788ZM23.9523 35.3237C26.1626 36.5192 26.8021 32.0012 24.3972 32.3766C23.2155 32.5712 22.8402 34.712 23.9523 35.3237Z" fill="#231815"/>
<path fill-rule="evenodd" clip-rule="evenodd" d="M35.8795 32.0569C35.8656 32.2932 35.671 32.3488 35.6432 32.5713C34.4754 31.9735 32.8768 32.5713 32.8629 33.8363C32.849 34.8511 33.6692 35.713 35.0732 35.3933C35.1705 35.0318 35.0871 34.5036 35.1149 34.0865H36.0463V35.8381C34.3503 36.3247 32.5709 36.0049 32.0149 34.7677C31.0557 32.6686 33.8499 31.0282 35.8795 32.0569Z" fill="#231815"/>
<path fill-rule="evenodd" clip-rule="evenodd" d="M63.1823 32.0569C63.085 32.2515 62.9737 32.4461 62.7791 32.5295C62.5289 32.2932 61.5419 32.1264 61.4863 32.6825C61.4446 33.0856 62.0145 33.3497 62.2926 33.5582C62.5984 33.7946 63.0293 34.0865 63.1823 34.3506C64.0164 35.8659 61.3612 36.5471 60.2769 35.6574C60.3603 35.4628 60.5271 35.3515 60.5966 35.143C61.0414 35.5045 62.3065 35.7269 62.3343 34.9484C62.3621 34.0726 60.5132 33.8502 60.4854 32.8076C60.4576 31.6676 62.2648 31.4869 63.1823 32.0569Z" fill="#231815"/>
<path fill-rule="evenodd" clip-rule="evenodd" d="M0.931399 31.8206V33.4053H2.8637C2.96102 32.9466 2.8637 32.3349 2.90541 31.8206H3.82291V36.0049H2.90541V34.017C2.33545 33.9336 1.59867 34.0031 0.973104 33.9753C0.875793 34.5731 0.973104 35.3376 0.931399 36.0049H0V31.8206H0.931399Z" fill="#231815"/>
<path fill-rule="evenodd" clip-rule="evenodd" d="M12.6642 34.6842V31.8205H13.4288V35.9632C12.7893 36.1995 12.4974 35.6851 12.1776 35.3237C11.5382 34.6008 10.8709 33.7389 10.287 33.1412V35.9632C10.1063 36.0466 9.77269 35.9771 9.52246 36.0049V31.8205C10.1758 31.6676 10.4539 32.1264 10.7736 32.4878C11.3992 33.2246 12.0386 34.0587 12.6642 34.6842Z" fill="#231815"/>
<path fill-rule="evenodd" clip-rule="evenodd" d="M18.7532 31.8206H19.7124V33.5721C20.2406 33.1134 20.8523 32.3905 21.4083 31.8206H22.3675C21.8115 32.46 21.2137 33.0578 20.5882 33.6556C21.2276 34.4618 21.9644 35.1847 22.6456 35.9632C22.2563 35.9632 21.8671 36.0883 21.5613 36.0049C21.1998 35.8937 20.8801 35.2681 20.6299 34.9623C20.2823 34.5452 19.9487 34.2255 19.6985 33.9336V36.0049H18.7393V31.8206H18.7532Z" fill="#231815"/>
<path fill-rule="evenodd" clip-rule="evenodd" d="M30.597 34.6842V31.8205H31.3616V35.9632C30.7222 36.1995 30.4302 35.6851 30.1105 35.3237C29.471 34.6008 28.8038 33.7389 28.206 33.1412V35.9632C28.0253 36.0466 27.6916 35.9771 27.4414 36.0049V31.8205C28.1087 31.6676 28.3728 32.1264 28.6925 32.4878C29.332 33.2107 29.9576 34.0587 30.5831 34.6842" fill="#231815"/>
<path fill-rule="evenodd" clip-rule="evenodd" d="M40.7172 31.8206C41.2594 33.2385 41.8571 34.6009 42.4549 35.9632C42.2047 36.0605 41.7737 35.9632 41.4401 36.0049C41.2872 35.6296 41.1342 35.2403 41.0091 34.8511H39.3548C39.1463 35.2125 39.0073 35.6296 38.8266 36.0049H38.062C38.7015 34.6009 39.3131 33.1829 39.9943 31.8345H40.7172V31.8206ZM39.5495 34.3228H40.8006C40.606 33.7946 40.4114 33.2663 40.2028 32.7659C39.9804 33.2802 39.7441 33.7668 39.5634 34.3228" fill="#231815"/>
<path d="M43.595 31.8206H42.6636V36.0049H43.595V31.8206Z" fill="#231815"/>
<path fill-rule="evenodd" clip-rule="evenodd" d="M46.6953 34.0865C47.0289 34.7259 47.5989 35.3654 47.863 35.9632H46.8204C46.3895 35.4766 46.1393 34.8094 45.7361 34.2811H45.333C45.2357 34.7677 45.333 35.4071 45.2913 35.9632H44.3599V31.8205C45.8473 31.8066 47.5016 31.6398 47.5572 32.891C47.5711 33.447 47.2514 33.8641 46.7092 34.0865M45.2774 32.3766V33.7667C46.876 34.1838 47.0011 31.9039 45.2774 32.3766Z" fill="#231815"/>
<path fill-rule="evenodd" clip-rule="evenodd" d="M48.989 31.8206V35.4071C49.5312 35.5044 50.2401 35.421 50.8379 35.4488V36.0049H48.0576V31.8206H48.989Z" fill="#231815"/>
<path d="M52.0193 31.8206H51.0879V36.0049H52.0193V31.8206Z" fill="#231815"/>
<path fill-rule="evenodd" clip-rule="evenodd" d="M55.9254 34.6842V31.8205H56.6483V36.0049C55.9949 36.1578 55.7447 35.6851 55.4389 35.3237C54.7994 34.5869 54.146 33.7806 53.5483 33.1412C53.451 34.017 53.5483 35.0596 53.5066 36.0049H52.7837V31.8205C53.4927 31.6398 53.6734 32.1681 53.9931 32.5434C54.6187 33.2663 55.3416 34.0448 55.9254 34.6981" fill="#231815"/>
<path fill-rule="evenodd" clip-rule="evenodd" d="M59.9571 31.8205V32.3766H58.3445V33.4887C58.7893 33.586 59.401 33.4887 59.9154 33.5165V34.0726H58.3445V35.3793C58.831 35.4766 59.4844 35.3932 60.0405 35.421V35.9771H57.4131V31.7927H59.9571V31.8205Z" fill="#231815"/>
<path fill-rule="evenodd" clip-rule="evenodd" d="M19.2398 40.2726C18.5308 40.4394 17.7107 40.4811 16.9322 40.5923C16.8488 40.6618 16.9322 40.8982 16.8905 41.0372C17.7802 41.1345 18.8367 41.0511 19.7959 41.0789V41.7184H17.8219C18.1972 42.1771 19.0174 42.5246 19.8793 42.6358C19.7959 42.9139 19.6291 43.0807 19.5595 43.3587C19.351 43.3031 19.1425 43.2336 18.9479 43.1641V46.0278H18.1416L18.0999 45.7081H15.0416C14.9165 45.7081 14.9721 45.9027 14.9582 46.0278H14.1519C14.2492 45.1659 14.1658 44.1372 14.1936 43.2058C13.9573 43.2197 13.8321 43.3448 13.5958 43.3726C13.4846 43.1502 13.3734 42.9278 13.2344 42.7332C13.999 42.4829 14.7635 42.2327 15.2918 41.7323H13.3178V41.0928H16.0564C16.1537 41.0094 16.0564 40.7591 16.0981 40.6062C15.4169 40.6618 14.6523 40.6479 13.9155 40.6479C13.8877 40.4116 13.7765 40.2309 13.7626 39.9668C15.3196 40.1058 17.5716 39.8695 18.8089 39.6053C19.0869 39.5497 19.1564 40.1475 19.2537 40.2865M16.8905 42.8583C17.3353 42.8305 17.8775 42.9139 18.2667 42.8166C17.7107 42.5941 17.2936 42.2327 16.9322 41.8157C16.8488 42.0937 16.9183 42.5107 16.8905 42.8444M14.8747 42.8583H16.0842C16.0564 42.5385 16.1398 42.1215 16.0425 41.8713C15.7505 42.2883 15.2779 42.5524 14.8747 42.8583ZM14.9582 43.5255V43.9287H18.1416V43.4838C17.0434 43.4699 16.0703 43.5533 14.9582 43.5255ZM14.9999 44.5682C14.9026 44.6516 14.986 44.9018 14.9582 45.0408H18.1416V44.5682H14.9999Z" fill="#231815"/>
<path fill-rule="evenodd" clip-rule="evenodd" d="M25.801 39.6749H26.5656V40.3422C26.8436 40.4256 27.3023 40.3561 27.6638 40.3839V39.6749H28.4284V40.3422C28.7203 40.4256 29.1929 40.3561 29.5544 40.3839V40.9817H28.4701C28.3867 41.1068 28.4562 41.3848 28.4284 41.5794H29.6795V42.2189H28.4701C28.7203 42.7333 29.2624 42.9835 29.8046 43.2198C29.7212 43.4839 29.5266 43.6647 29.4432 43.9288C29.0678 43.7342 28.762 43.4839 28.4284 43.2476V44.5682H26.2458L26.2875 45.1243C27.0243 45.0965 27.8723 45.1799 28.5396 45.0826C28.7481 44.9158 28.7203 44.5265 28.7481 44.179C29.04 44.2624 29.3459 44.3319 29.5961 44.457C29.471 45.0548 29.5266 45.7082 28.7481 45.8055C28.0669 45.8889 26.1207 45.9445 25.7315 45.7221C25.0364 45.3467 25.5925 44.3736 25.3978 43.6229C25.2032 43.7064 25.0642 43.8454 24.8835 43.9427C24.6611 43.7898 24.5498 43.5256 24.3969 43.3032C24.9669 43.0808 25.4673 42.7611 25.7732 42.2745C25.3839 42.3301 25.0781 42.1911 24.8001 42.2745C24.5081 42.3579 24.4664 42.7333 24.2301 42.8723C23.8409 42.6637 23.5906 42.3301 23.1875 42.1633C23.3126 41.9548 23.4933 41.7879 23.6323 41.5655C24.0772 41.7323 24.383 42.0243 24.7584 42.2467V41.6072H25.7732C25.8705 41.496 25.7732 41.218 25.8149 41.0512H24.9252L24.8835 40.8566C24.7584 40.8009 24.675 41.1346 24.522 41.1763C24.1328 40.9539 23.8826 40.5785 23.4377 40.4256C23.5906 40.1893 23.7436 39.953 23.9938 39.8278C24.4525 40.1754 24.8418 40.5646 25.7732 40.4256C25.8705 40.2588 25.7732 39.9252 25.8149 39.7166M26.5656 41.5794H27.6638V41.0234H26.5656V41.5794ZM26.3709 42.775H27.8584C27.8028 42.5386 27.6221 42.4274 27.5387 42.2189C26.8575 42.1077 26.4821 42.3023 26.3709 42.775ZM26.2041 43.9288H27.6082V43.3727H26.2041V43.9288Z" fill="#231815"/>
<path fill-rule="evenodd" clip-rule="evenodd" d="M45.9999 39.7583C46.2502 39.661 46.695 39.7444 47.0008 39.7166C47.0704 39.8973 47.2094 40.0224 47.2511 40.231H49.8228V41.7462H48.9332V40.9399C47.5291 40.8426 45.9443 40.9399 44.4569 40.8982V41.7323H43.6089V40.2171H46.1807L45.9721 39.7444" fill="#231815"/>
<path fill-rule="evenodd" clip-rule="evenodd" d="M35.5185 39.7583C35.5185 39.9946 35.4629 40.1475 35.3934 40.3144C35.6158 40.37 36.1024 40.3839 36.3248 40.3144C36.2831 41.5377 36.5055 43.9565 36.3665 45.2494C36.2831 45.9167 35.8383 45.9445 35.032 45.8889C35.032 45.6247 34.9069 45.4857 34.9069 45.2077C35.1154 45.2355 35.31 45.2633 35.5602 45.2494C35.741 44.6655 35.588 43.7758 35.6436 43.0669H34.5871C34.462 44.0956 34.4481 45.2216 34.0311 45.9723C33.8086 45.8332 33.5723 45.7081 33.3916 45.5274C33.6696 44.8601 33.8643 44.0817 33.8364 43.1086C33.7669 43.0112 33.5306 43.0947 33.3916 43.0669V42.4691H33.8364V40.3561C34.0867 40.3422 34.4203 40.3978 34.601 40.3144C34.6983 40.1614 34.7122 39.939 34.7678 39.7583H35.5324H35.5185ZM34.5593 42.4552H35.6575V40.9399H34.5593V42.4552Z" fill="#231815"/>
<path fill-rule="evenodd" clip-rule="evenodd" d="M37.3394 39.7583H38.1874C38.2847 40.0224 38.4237 40.217 38.4654 40.509H39.7583V41.1902H36.4497V40.509H37.5757C37.534 40.2309 37.4089 40.0085 37.3394 39.7583Z" fill="#231815"/>
<path fill-rule="evenodd" clip-rule="evenodd" d="M34.6284 41.2179C34.7396 41.5655 34.8508 41.8713 34.9064 42.2605C35.1706 42.2605 35.3513 42.191 35.5598 42.1354C35.4764 41.7879 35.3513 41.4682 35.2401 41.1484C34.9899 41.1345 34.8786 41.2457 34.6284 41.2318" fill="#231815"/>
<path fill-rule="evenodd" clip-rule="evenodd" d="M46.5283 41.3847C46.0418 42.33 45.1104 42.8444 43.8732 43.0529C43.7619 42.8305 43.6507 42.608 43.5117 42.4134C44.457 42.1771 45.3745 41.913 45.736 41.0928C46.0696 41.1345 46.292 41.2596 46.5422 41.3708" fill="#231815"/>
<path fill-rule="evenodd" clip-rule="evenodd" d="M35.2401 41.1484C35.3513 41.4682 35.4764 41.7879 35.5598 42.1493C35.3513 42.191 35.1706 42.2744 34.9064 42.2744C34.8508 41.8991 34.7257 41.5794 34.6284 41.2318C34.8786 41.2457 34.9899 41.1345 35.2401 41.1484Z" fill="#231815"/>
<path fill-rule="evenodd" clip-rule="evenodd" d="M47.9464 41.1484C47.9603 41.4403 47.9047 41.7879 47.9881 42.0242C48.4885 42.2049 49.2948 42.0659 49.9343 42.1076C50.0177 42.2605 49.9482 42.5663 49.976 42.7749C48.419 42.7471 46.6674 43.1919 47.1123 41.1901C47.3208 41.1067 47.6822 41.1623 47.9603 41.1484" fill="#231815"/>
<path fill-rule="evenodd" clip-rule="evenodd" d="M39.0351 41.6628C39.0351 42.5247 39.0351 43.5534 39.0351 44.4848C39.0351 44.749 38.9378 45.1104 39.2019 45.2355C39.4661 44.9297 39.3549 44.0817 39.3271 43.6091C39.5912 43.6369 39.7441 43.7759 40.0082 43.8037C39.9109 44.4153 40.1611 45.0409 39.9665 45.5136C39.7719 45.9862 38.771 46.1391 38.3957 45.7221C37.8535 45.0965 38.4791 43.2615 38.2427 42.3857C38.1593 42.2884 37.9091 42.3718 37.7562 42.344C37.7979 43.8037 37.6728 45.0965 37.075 45.9306C36.8387 45.7916 36.6441 45.6248 36.4355 45.4579C37.0333 44.61 37.0333 43.1781 37.0055 41.7184C37.6033 41.6211 38.3818 41.7184 39.0629 41.6767" fill="#231815"/>
<path fill-rule="evenodd" clip-rule="evenodd" d="M49.3088 43.2892V43.9704H47.2097C47.1123 44.2623 47.1958 44.7211 47.168 45.0825C48.0437 45.1659 49.0864 45.0825 50.0317 45.1242V45.8054H43.4146V45.1242H46.1948C46.2922 44.8323 46.2087 44.3736 46.2365 44.0121H44.1791C44.1513 43.8036 44.2347 43.4839 44.1374 43.3309C45.7778 43.2336 47.5989 43.317 49.2949 43.2892" fill="#231815"/>
<path fill-rule="evenodd" clip-rule="evenodd" d="M35.5598 44.5265C35.3096 44.5265 35.1706 44.6655 34.9064 44.6516C34.8508 44.2485 34.7118 43.9149 34.6284 43.5395C34.7535 43.4561 34.9899 43.47 35.115 43.3866C35.4069 43.6229 35.4486 44.1095 35.5598 44.5265Z" fill="#231815"/>
<path fill-rule="evenodd" clip-rule="evenodd" d="M24.0633 43.4839C24.3274 43.609 24.4943 43.8036 24.7445 43.9287C24.5082 44.6794 24.2579 45.444 23.7297 45.9166C23.5907 45.6664 23.3265 45.5552 23.2153 45.2772C23.6185 44.7906 23.8687 44.1651 24.0633 43.4839Z" fill="#231815"/>
</g>
<defs>
<clipPath id="clip0_583_2447">
<rect width="63.3352" height="46" fill="white"/>
</clipPath>
</defs>
</svg>
