<svg width="45" height="46" viewBox="0 0 45 46" fill="none" xmlns="http://www.w3.org/2000/svg">
<g clip-path="url(#clip0_586_3575)">
<path fill-rule="evenodd" clip-rule="evenodd" d="M22.5006 39.1487C24.9102 40.6001 27.6787 41.4272 30.6258 41.4272C33.573 41.4272 36.1556 40.6547 38.5085 39.2911C34.4069 43.4367 28.7494 46 22.5006 46C16.2517 46 10.5943 43.4367 6.49268 39.2911C8.84415 40.6547 11.5275 41.4272 14.3754 41.4272C17.2232 41.4272 20.091 40.6001 22.5006 39.1487Z" fill="#00449A"/>
<path fill-rule="evenodd" clip-rule="evenodd" d="M42.7606 26.2085C46.6821 21.8083 44.4342 12.9921 39.9042 9.28806C38.0208 7.74749 35.5998 6.76072 32.6598 6.71469C30.1168 6.67585 27.7398 7.59214 25.7202 9.11114C32.881 16.3566 32.881 29.6435 25.7202 36.8889C27.7398 38.4094 30.1168 39.2782 32.6598 39.2868C39.6546 39.3069 44.42 33.6999 45.0001 25.7956C42.7011 30.4361 37.4194 30.6044 34.7404 26.9464C32.8626 24.3817 33.2398 19.9412 35.2821 17.8195C36.7358 16.3091 39.0306 17.5663 38.9625 19.432C38.8944 21.3135 37.289 21.5292 36.8748 23.2208C36.0352 26.64 40.2659 29.0106 42.7606 26.2099" fill="#00449A"/>
<path fill-rule="evenodd" clip-rule="evenodd" d="M2.24085 19.7916C-1.68631 24.1861 0.567304 33.008 5.09723 36.712C8.41454 39.4249 12.7544 39.8076 16.7667 38.7589C19.806 37.9649 22.2114 36.3236 23.4155 34.4235C26.0719 30.2318 24.1388 25.5022 20.8101 20.3468C19.5394 18.3791 19.684 17.2254 20.9903 16.4587L25.7655 13.6581C26.0492 13.4064 25.991 13.1215 25.5103 13.2539L20.3067 15.4892C18.0502 15.3166 17.0404 16.837 18.0303 18.7804C19.0146 20.7108 20.2783 22.3966 20.8513 24.8923C22.4454 31.8184 15.1584 33.2324 14.2025 26.571C13.3061 20.321 14.8648 13.5775 19.2798 9.10972C17.2602 7.59073 14.8846 6.72047 12.3403 6.71184C5.34543 6.69314 0.580069 12.3002 0 20.2044C2.30042 15.6043 7.45863 15.4662 10.2597 19.0537C12.1956 21.535 11.6368 25.4677 9.37896 27.7146C7.27993 29.8032 4.59375 26.981 6.54669 24.9513C7.15513 24.3198 8.01034 23.9703 8.2869 22.8411C9.12509 19.4219 4.81641 16.9104 2.24085 19.7916Z" fill="#00449A"/>
<path fill-rule="evenodd" clip-rule="evenodd" d="M22.5006 0C28.748 0 34.4069 2.56331 38.5085 6.7089C36.1556 5.3467 33.4737 4.57281 30.6258 4.57281C27.7779 4.57281 24.9102 5.39992 22.5006 6.85131C20.091 5.39992 17.3211 4.57281 14.3754 4.57281C11.4296 4.57281 8.84415 5.34526 6.49268 6.7089C10.5943 2.56331 16.2517 0 22.5006 0Z" fill="#00449A"/>
</g>
<defs>
<clipPath id="clip0_586_3575">
<rect width="44.9996" height="46" fill="white"/>
</clipPath>
</defs>
</svg>
