<svg width="52" height="46" viewBox="0 0 52 46" fill="none" xmlns="http://www.w3.org/2000/svg">
<g clip-path="url(#clip0_583_2143)">
<path fill-rule="evenodd" clip-rule="evenodd" d="M0 24.6089C2.14 24.8315 5 26.1672 8.52 32.1575C10.64 35.7598 13.88 40.6978 18.54 43.3084C24.8 46.7893 30.8 46.5464 37.7 44.6036C33.78 44.6036 32.78 44.5227 28.5 40.4751C21.62 33.9384 21.06 28.2719 16.42 24.8315C15.28 23.9815 12.48 22.6256 8.52 22.6256C6.08 22.6256 3.18 23.1518 0 24.6291L0 24.6089Z" fill="url(#paint0_linear_583_2143)"/>
<path fill-rule="evenodd" clip-rule="evenodd" d="M8.16016 8.80334C8.94016 9.14738 11.1802 11.1104 12.2002 13.883C14.1202 19.0638 13.1602 23.5768 17.1002 31.6516C18.8002 35.1122 23.7002 42.5798 32.7802 43.8143C32.6402 43.7334 32.5002 43.612 32.3802 43.4905C29.1402 40.212 25.3202 37.3383 25.8202 26.1267C26.0802 20.4804 25.2402 16.696 23.9002 14.6115C22.9602 13.1342 19.1402 8.41882 11.8802 8.41882C10.6402 8.41882 9.38016 8.56049 8.16016 8.80334Z" fill="url(#paint1_linear_583_2143)"/>
<path fill-rule="evenodd" clip-rule="evenodd" d="M20.1802 21.9173C20.1802 29.4862 23.3402 38.674 32.3802 43.5108C25.6802 34.4848 36.4602 30.0123 35.4402 13.964C34.9002 5.46417 28.7402 1.15357 22.7002 0.0202637C25.0802 7.67007 20.2002 11.0295 20.2002 21.9376L20.1802 21.9173Z" fill="url(#paint2_linear_583_2143)"/>
<path fill-rule="evenodd" clip-rule="evenodd" d="M34.7398 14.5104C33.5398 15.7246 30.5198 19.1853 29.0198 23.9411C27.3798 29.1624 27.1198 37.3788 32.2198 43.2882C32.1598 43.1668 32.0998 43.0656 32.0398 42.9644C31.6398 42.1347 31.6198 41.2847 31.5798 40.4549C31.3598 34.7075 38.1798 28.5957 42.4398 24.2042C47.2998 19.2055 48.7998 10.8676 43.1398 4.29041C42.4398 8.39863 38.6998 10.5236 34.7398 14.5306V14.5104Z" fill="url(#paint3_linear_583_2143)"/>
<path fill-rule="evenodd" clip-rule="evenodd" d="M43.2001 23.941C38.0401 26.4707 35.0801 29.7492 33.2801 33.1694C30.7001 38.1073 31.4001 42.1751 32.0401 42.9441C31.7001 41.993 31.9401 40.9406 33.0601 40.0299C34.7601 38.6538 37.0001 38.4311 39.7001 37.3586C43.1401 35.9824 46.4001 34.4039 48.9001 31.3075C52.9801 26.2279 52.1401 19.4685 51.3601 16.9388C50.7401 18.5174 48.8401 21.1483 43.2001 23.9208V23.941Z" fill="url(#paint4_linear_583_2143)"/>
</g>
<defs>
<linearGradient id="paint0_linear_583_2143" x1="1.5444" y1="40.0631" x2="11.957" y2="30.1621" gradientUnits="userSpaceOnUse">
<stop stop-color="#FFE100"/>
<stop offset="0.18" stop-color="#FFDC00"/>
<stop offset="0.63" stop-color="#F08000"/>
<stop offset="1" stop-color="#EE7800"/>
</linearGradient>
<linearGradient id="paint1_linear_583_2143" x1="21.1636" y1="28.4481" x2="14.1544" y2="30.0733" gradientUnits="userSpaceOnUse">
<stop stop-color="#EE7800"/>
<stop offset="0.11" stop-color="#EF7E00"/>
<stop offset="1" stop-color="#FFE100"/>
</linearGradient>
<linearGradient id="paint2_linear_583_2143" x1="30.3098" y1="16.8883" x2="28.3153" y2="17.3096" gradientUnits="userSpaceOnUse">
<stop stop-color="#EE7800"/>
<stop offset="1" stop-color="#FFE100"/>
</linearGradient>
<linearGradient id="paint3_linear_583_2143" x1="33.0804" y1="25.67" x2="30.3943" y2="26.707" gradientUnits="userSpaceOnUse">
<stop stop-color="#EE7800"/>
<stop offset="1" stop-color="#FFE100"/>
</linearGradient>
<linearGradient id="paint4_linear_583_2143" x1="45.7721" y1="32.4845" x2="25.2121" y2="32.4845" gradientUnits="userSpaceOnUse">
<stop stop-color="#F08300"/>
<stop offset="1" stop-color="#FFE100"/>
</linearGradient>
<clipPath id="clip0_583_2143">
<rect width="52" height="46" fill="white"/>
</clipPath>
</defs>
</svg>
