<svg width="167" height="46" viewBox="0 0 167 46" fill="none" xmlns="http://www.w3.org/2000/svg">
<path d="M2.08714 22.9709C2.08714 11.4346 11.4068 2.09223 22.944 2.09223C34.4813 2.09223 43.8009 11.4491 43.8009 22.9855C43.8009 34.5218 34.4523 43.8932 22.944 43.8932C11.4358 43.8932 2.08714 34.5218 2.08714 22.9709ZM22.944 1.67088C11.2039 1.67088 1.68131 11.2312 1.68131 22.9709C1.68131 34.7107 11.2184 44.2855 22.944 44.2855C34.6697 44.2855 44.1922 34.7252 44.1922 22.9709C44.1922 11.2167 34.6552 1.67088 22.944 1.67088ZM22.944 44.7069C10.972 44.7069 1.26098 34.9722 1.26098 22.9709C1.26098 10.9697 10.972 1.26406 22.944 1.26406C34.9161 1.26406 44.5981 10.9987 44.5981 22.9709C44.5981 34.9431 34.8871 44.7069 22.944 44.7069ZM22.944 0C10.2618 0 0 10.2868 0 22.9709C0 35.6551 10.2618 45.9855 22.944 45.9855C35.6263 45.9855 45.888 35.6696 45.888 22.9709C45.888 10.2723 35.6118 0 22.944 0ZM22.9005 39.3455C21.5961 40.4207 18.4364 41.4378 14.8854 40.7694C15.5086 41.0019 16.0304 41.1617 16.4362 41.2489C18.5378 41.6557 20.4655 41.4814 22.0309 40.9438C23.7992 40.319 25.5819 38.8806 27.1183 37.4567C28.9011 35.8004 30.5534 34.4201 31.9593 34.2893C33.0319 34.2021 33.7421 34.5944 33.8145 35.2483C33.9015 36.1927 32.742 36.12 32.7999 35.5679C32.4811 35.3645 32.1332 35.4081 31.9303 35.6551C31.6549 35.9747 31.6549 36.7157 31.9303 37.1661C32.2347 37.4858 32.684 37.5584 32.9594 37.5875C33.829 37.6311 34.7856 37.2097 35.206 36.6431C35.4379 36.2798 35.6408 35.626 35.4524 34.8996C35.3219 34.391 34.9451 33.65 33.8725 33.127C32.2637 32.2988 29.3069 32.5894 27.3357 34.5218C26.4951 35.379 25.9008 36.091 25.321 36.7738C24.6108 37.6456 23.9441 38.4447 22.9005 39.331M3.82642 24.976C3.07273 26.1965 3.24666 27.8673 3.89889 29.1169C4.78302 30.7877 6.58028 31.1946 7.4934 31.4561C6.94263 32.2407 6.33388 33.8244 7.29049 35.4226C7.34846 35.5388 7.44992 35.6696 7.53689 35.8294C8.31956 37.0063 9.82694 38.1541 11.4358 39.0985C16.1318 41.6557 20.9438 40.3917 22.6396 39.0259C23.6397 38.1832 24.263 37.4131 25.0022 36.5268C25.5964 35.8294 26.1907 35.103 27.0458 34.2457C28.9445 32.386 32.0463 31.7176 34.0899 32.7492C35.2784 33.374 35.7132 34.2167 35.8727 34.8124C36.0611 35.5243 35.9451 36.3089 35.5538 36.8756C35.0755 37.5584 34.0174 38.0234 33.0029 38.0088C33.4667 38.1687 33.9885 38.1977 34.5682 38.0379C35.7277 37.7328 36.6409 36.7593 36.7133 35.2628C36.8148 33.5629 35.5538 32.0663 34.1044 31.892H34.5247C39.2208 32.2407 42.5399 30.4245 42.6124 26.6759C42.6269 24.8162 41.8297 23.4795 40.6847 22.6804C41.5108 23.6393 41.8442 24.9469 41.7717 26.1819C41.5833 28.9135 39.3802 30.2937 35.2204 30.3373C34.3943 30.3373 28.7416 30.2937 23.2629 30.2356C18.3494 30.2066 13.32 30.163 11.9576 30.163C10.2618 30.163 8.17462 30.6279 8.00069 32.8364C7.95721 33.3594 8.13114 33.9116 8.50798 34.3474C8.9428 34.856 9.56605 35.1756 10.1893 35.2192C10.8995 35.2919 11.5372 35.0303 11.9286 34.5799C12.175 34.2457 12.2764 33.8389 12.1605 33.5047V33.4757C11.8851 32.909 11.3633 32.7637 10.943 33.156C11.0734 33.6355 10.6966 34.0714 10.0878 33.9552C9.72548 33.897 8.94281 33.3304 9.46459 32.415C9.78346 31.8339 10.2907 31.6014 12.3779 31.6304C14.0302 31.6595 23.4513 31.8193 29.5388 31.8629C28.93 32.0227 28.4228 32.2552 28.0459 32.4586C27.0023 33.0834 25.35 34.3474 24.6978 35.5824C24.5818 34.2457 23.7992 32.8945 22.4947 32.5022C21.2482 32.139 20.2047 32.3714 19.422 33.1124C19.2625 33.2577 19.1466 33.4176 19.0306 33.5774C19.5089 33.2142 20.1467 32.9817 20.9149 32.9672C21.9294 32.9236 22.8571 33.374 23.4368 34.2312C24.0021 35.0739 24.0746 36.1346 23.6542 37.0499C23.6107 37.1661 23.4658 37.2097 23.3788 37.1661C23.2629 37.1226 23.2194 36.9918 23.2629 36.8901C23.6252 36.091 23.5673 35.1901 23.0745 34.4782C22.5672 33.7372 21.77 33.3304 20.9149 33.374C20.0017 33.4176 19.2625 33.7663 18.8567 34.3184C18.6538 34.638 18.5378 34.9867 18.5378 35.35C18.5378 35.4662 18.5378 35.5534 18.5668 35.6406C18.5958 35.6841 18.5958 35.7423 18.5958 35.7858C18.5958 35.7858 18.6055 35.8004 18.6248 35.8294C18.7697 36.4251 19.1756 37.0935 19.6394 37.2824C20.1902 37.4858 20.8134 36.9627 20.6974 36.614C20.3786 36.5414 20.1902 36.2072 20.2336 35.9747C20.2771 35.7423 20.567 35.35 21.0018 35.3209C21.4077 35.3064 22.0454 35.5534 22.0454 36.3816C22.0599 36.861 21.6975 37.4567 21.1033 37.849C20.5525 38.2123 19.6829 38.6917 17.2044 38.6045C14.6679 38.5174 12.6968 37.7328 11.7112 37.0644C11.3198 36.7884 10.8125 36.3234 10.5227 36.0474C11.2618 35.844 11.8126 35.4517 12.1025 34.9431C11.6242 35.4226 10.914 35.6841 10.1603 35.626C9.40661 35.5534 8.69641 35.1901 8.18912 34.5944C7.7543 34.0714 7.52239 33.4176 7.59486 32.7492C7.7543 30.8023 9.31965 29.7126 11.9721 29.7126C13.32 29.7126 18.3929 29.7271 23.2774 29.7852C28.7561 29.8288 34.4088 29.8869 35.2349 29.8869C39.1338 29.8433 41.192 28.5793 41.3659 26.1238C41.5108 24.235 40.5687 22.1428 38.2207 21.7069C37.1482 22.2735 35.9307 22.6513 35.177 22.7675C35.061 22.7966 34.9451 22.6949 34.9451 22.5786C34.9161 22.4624 34.9885 22.3462 35.1045 22.3462C35.7712 22.2299 36.8003 21.9394 37.7424 21.4744C38.2062 21.2129 38.641 20.9659 39.7861 20.1958C41.5543 18.9754 42.7863 16.7233 41.5688 14.5584C40.5108 12.6987 38.2932 12.4807 37.1482 13.4397C36.4379 14.0354 36.351 15.0524 36.5974 15.6481C36.8293 16.2293 37.3801 16.7088 37.9453 16.7524C37.8294 16.9558 37.6989 17.1011 37.5105 17.2173C36.2205 18.3942 34.4088 18.4378 31.7274 18.4523L31.1186 18.4814H30.7708C29.2634 18.4814 26.7415 18.4959 25.495 20.2104C24.9732 20.8932 24.8717 21.8086 25.2196 22.506C25.7124 23.4214 26.9154 23.9299 28.6836 23.9299C28.7996 23.9299 28.8866 24.0461 28.8866 24.1623C28.8866 24.2786 28.7996 24.3658 28.6836 24.3658C26.2052 24.3658 25.2486 23.4504 24.8572 22.6949C24.4369 21.8667 24.5529 20.777 25.1471 19.9634C26.524 18.1036 29.2779 18.0891 30.7563 18.06H31.7129C33.5826 18.031 34.974 18.0164 36.0756 17.6241C35.177 17.6968 33.945 17.6677 32.1767 17.6677C28.4228 17.6677 24.6833 17.4352 23.5673 20.7044C22.1613 20.7479 21.4801 20.7479 20.7699 20.7479C21.0453 19.2805 20.4945 17.5515 19.2336 17.2609C19.248 17.29 19.306 17.29 19.3205 17.3045C19.9872 17.9002 20.6105 19.2078 20.0742 21.024C19.5669 22.7675 17.6247 23.6974 15.4651 23.2034C15.3492 23.1744 15.2767 23.0581 15.3057 22.9419C15.3347 22.8256 15.4361 22.753 15.5521 22.7821C17.4943 23.2179 19.2191 22.4043 19.6539 20.8932C20.0887 19.3822 19.6539 18.1617 19.0306 17.6096C18.6393 17.29 18.2045 17.2173 17.8131 17.4062H17.7842C17.3203 17.7113 17.2624 18.2053 17.3058 18.554C17.7262 18.3942 18.3784 18.4378 18.5233 19.1061C18.6683 19.7454 18.0595 20.4138 16.9435 20.1377C16.0014 19.8907 15.5086 18.3942 16.1898 17.0575C16.7841 15.8806 17.8856 15.2704 18.6973 14.8781C18.5089 14.3986 18.5378 13.861 18.7408 13.4106C18.9437 12.9457 19.335 12.5824 19.7988 12.3936C20.2047 12.2628 20.625 12.2628 21.0163 12.4371C21.4077 12.597 21.6975 12.9166 21.8425 13.3089C21.9874 13.6286 21.9584 13.9918 21.8135 14.2969C21.683 14.6166 21.3932 14.8781 21.0743 14.9943C20.8279 15.1105 20.5235 15.0815 20.2481 14.9653C20.0017 14.849 19.7988 14.6456 19.6829 14.3696C19.6104 14.1371 19.6104 13.8901 19.7119 13.6721C19.8278 13.4397 19.9872 13.2798 20.2191 13.1927C20.3351 13.1491 20.4511 13.1927 20.4945 13.3089C20.538 13.4251 20.4655 13.5414 20.3786 13.585C20.2481 13.6286 20.1467 13.7303 20.1032 13.832C20.0597 13.9482 20.0452 14.0935 20.0742 14.1952C20.1467 14.3841 20.2771 14.5003 20.4366 14.5584C20.596 14.6456 20.7844 14.6456 20.9438 14.573C21.1468 14.4858 21.3352 14.326 21.4221 14.1226C21.5091 13.9191 21.5381 13.6576 21.4511 13.4397C21.3352 13.1636 21.1323 12.9311 20.8569 12.8004C20.5525 12.6841 20.2626 12.6841 19.9583 12.7713C19.5959 12.9311 19.2915 13.2072 19.1321 13.5704C18.9727 13.9337 18.9437 14.326 19.0886 14.7183C19.364 15.4738 20.538 15.9823 21.4511 15.6191C22.6831 15.096 23.3064 13.9046 25.0022 13.0619C27.0168 12.0594 28.2343 12.1611 28.8286 12.4807C29.6982 12.9747 29.3794 14.0935 28.8286 14.1807C28.2778 14.2678 28.0169 13.9773 28.0894 13.7012C27.6111 13.6576 27.3212 14.1371 27.4662 14.4567C27.6111 14.7764 28.3358 15.4011 29.5533 15.2558C30.7853 15.096 31.6404 14.0208 31.7274 13.0038C31.8144 11.9431 31.4955 11.2603 31.0317 10.7808C31.7419 10.7372 33.1913 10.8244 33.6696 10.897C34.6552 11.0423 35.2204 11.4637 35.2494 11.9286C35.2494 12.2919 34.8146 12.7132 34.4523 12.3354C33.9885 12.4517 33.8145 12.844 33.945 13.2363C34.1479 13.8756 35.1625 14.0354 35.8727 13.7884C36.5394 13.5559 37.1337 12.8149 37.3366 12.0594C37.612 10.9842 37.3801 9.53127 36.0756 8.47063C34.7711 7.39545 33.0029 7.48263 31.8288 7.39545C30.5679 7.29375 30.9737 7.07581 30.7128 5.89893C30.5244 5.02716 29.7127 4.03917 28.2633 3.76311C26.8284 3.45799 25.8138 3.63234 23.8426 4.63487C21.9149 5.60834 20.3786 6.63992 19.1176 7.11939C17.8566 7.58433 16.7986 7.80227 16.2333 7.52622C15.726 7.27922 15.7985 6.74163 15.9724 6.50916C16.1608 6.27669 16.4942 6.02969 16.8855 5.84081C16.6971 5.44852 16.3637 4.98358 16.1753 4.70752C16.0449 4.73658 15.8564 4.79469 15.6245 4.86734L14.9868 5.18699C14.0012 5.71004 12.9432 7.06128 13.6534 8.49968C14.2331 9.67656 15.9724 10.0398 18.3059 9.48768C20.2771 9.02274 22.2918 7.75869 23.9296 6.7271C24.4514 6.40745 24.9877 6.08781 25.4225 5.82628C26.3791 5.30322 27.3647 5.15793 28.1184 5.47757C28.6981 5.71004 29.0895 6.16046 29.2634 6.78522C29.2924 6.90145 29.2199 7.01769 29.104 7.03222C28.988 7.07581 28.8721 7.01769 28.8431 6.90145C28.7126 6.39292 28.3793 6.04422 27.9445 5.86987C27.3067 5.59381 26.4661 5.71004 25.6109 6.18951C25.1761 6.45104 24.6688 6.74163 24.147 7.09034C22.4802 8.12192 20.4366 9.40051 18.3929 9.8945C15.8564 10.4902 13.9287 10.0253 13.262 8.67404C12.7402 7.61339 13.0591 6.58181 13.6244 5.79722C13.349 6.00063 13.0881 6.21857 12.9142 6.42198C12.1605 7.33733 12.4359 8.67404 12.8707 9.26974C11.8126 9.45862 10.6241 9.67656 9.21819 10.3449C7.82677 10.9842 6.44984 11.9286 5.65266 12.9166C4.79752 13.9046 4.46416 14.82 4.30472 15.8951C4.15978 16.7233 4.3482 17.6968 4.71055 18.2634C5.10189 18.8882 5.89906 19.4548 6.91364 19.5275C7.7398 19.6001 8.68191 19.3386 9.16022 18.7284C9.47908 18.3361 9.63852 17.8711 9.71099 17.3917C9.40661 18.0745 8.88483 18.6121 8.29057 18.8155C7.0296 19.2805 5.78311 18.8591 5.17436 17.7985C4.42067 16.4473 4.92796 14.6311 6.39186 13.367C7.13105 12.6987 9.87042 10.5919 13.6823 10.5629C13.7983 10.5629 13.8853 10.65 13.8853 10.7663C13.8853 10.8825 13.7983 10.9697 13.6823 10.9697C10.0299 10.9987 7.37745 13.0328 6.66725 13.6867C5.3338 14.8054 4.88448 16.4182 5.55121 17.5951C6.0585 18.4668 7.11656 18.7865 8.16013 18.4232C8.68191 18.2344 9.14572 17.7404 9.37763 17.0865C9.53706 16.6507 9.55155 16.2293 9.46459 15.9387C9.30516 15.6627 9.14572 15.4302 9.00078 15.314C8.76888 15.5464 8.49349 15.7789 8.30507 15.8806C8.34855 16.3455 8.45001 16.7088 8.18912 16.9558C7.95721 17.1883 7.52239 17.2754 7.21802 16.9122C6.81219 16.3891 7.08757 15.3285 7.62385 14.7618C8.17462 14.2097 9.00078 13.6286 9.79795 13.2944C10.5806 12.9747 11.3778 12.7713 12.117 12.9311C11.4068 13.8029 10.5661 15.1832 10.2328 16.1276C9.9139 17.072 9.26167 19.6873 10.4212 21.8667C11.8126 24.5256 14.0592 26.4144 19.1466 26.458H20.0162C18.2769 26.1819 16.8131 25.7896 15.639 25.2375C12.9576 24.0025 11.5517 21.9684 11.3343 19.0771C11.0154 14.9362 14.1751 12.5098 17.2479 11.609C17.3638 11.5799 17.4798 11.6526 17.5233 11.7397C17.5522 11.856 17.4798 11.9722 17.3928 12.0158C14.465 12.8585 11.4648 15.1396 11.7546 19.019C12.175 24.3512 16.6826 26.5597 26.8574 26.3999C26.8864 26.3999 26.9009 26.3999 26.9299 26.4289C30.4084 26.3853 33.5681 26.3418 34.4233 26.3418C35.2784 26.3418 36.2785 26.3708 36.2785 27.0537C36.6409 26.9229 36.7858 26.705 36.7858 26.5306C36.7858 26.1674 36.2785 25.7461 35.4813 25.6879C34.4668 25.5862 32.5391 25.6153 30.4809 25.6443C28.0459 25.6589 25.495 25.6879 23.9731 25.5572C23.8571 25.5572 23.7702 25.4409 23.7847 25.3247C23.7847 25.2085 23.9006 25.1358 24.0166 25.1358C25.524 25.2811 28.0459 25.2521 30.4809 25.223C32.5391 25.2085 34.4957 25.1794 35.4958 25.2521C36.4814 25.3392 37.2206 25.8913 37.1916 26.5452C37.1916 26.7776 37.0757 27.446 35.7422 27.6785C35.4524 27.7511 35.032 27.7656 34.4668 27.8092C32.9739 27.9255 14.8564 27.7656 12.5953 27.7947C11.1314 27.8092 8.65292 28.0708 7.89924 27.6058C7.16004 27.1263 6.79769 26.5888 7.10207 25.9495C7.27599 25.5136 8.36304 25.5281 8.40653 26.3127C8.91382 26.6323 9.58054 26.3418 9.71099 25.5572V25.3538C9.65301 24.9179 9.42111 24.5982 9.02977 24.3512C8.36304 23.8863 7.37745 23.7991 6.73972 23.9589C6.15995 24.0897 5.60918 24.5111 5.24683 25.1068C4.82651 25.7461 4.69606 26.5016 4.82651 27.1263C5.13088 28.463 6.21793 29.4656 7.55138 29.6545C7.66733 29.669 7.7543 29.7707 7.7398 29.8724C7.72531 29.9886 7.62385 30.0758 7.5079 30.0613C6.00052 29.8579 4.75404 28.71 4.42067 27.2135C4.26124 26.4725 4.42067 25.6008 4.88448 24.8598C5.3193 24.1769 5.95704 23.6974 6.65275 23.5231C7.24701 23.3923 8.14563 23.4359 8.89932 23.7555C8.4645 23.3632 7.91373 23.0726 7.36296 23.0145C5.87007 22.8838 4.56561 23.6393 3.78294 24.8743M27.3647 8.84839C26.6545 8.96462 25.4225 8.89198 24.0166 8.32533C24.9297 7.49716 25.9878 6.69804 26.6255 6.58181C27.2487 6.46557 28.0169 6.58181 28.2488 7.3228C28.2488 7.3228 28.2488 7.35186 28.2778 7.35186C28.1764 7.23563 28.0459 7.14845 27.9155 7.10486C27.4372 6.87239 26.9009 7.06128 26.727 7.4681C26.5385 7.90398 26.7704 8.41251 27.2487 8.61592C27.4372 8.7031 27.6256 8.73215 27.7995 8.68857C27.6691 8.79027 27.4951 8.83386 27.3647 8.87745M31.7419 22.4479C32.2927 21.8231 33.0898 21.6924 33.6986 22.1282C34.2204 22.4915 34.3653 23.2325 33.974 23.7555C33.6696 24.1914 33.0608 24.3076 32.626 23.988C32.5391 23.9444 32.5101 23.8136 32.5825 23.7119C32.655 23.6248 32.7565 23.5957 32.8869 23.6393C33.1333 23.8282 33.4812 23.7555 33.6406 23.5085C33.887 23.1889 33.8 22.7094 33.4522 22.4769C32.9739 22.1282 32.3941 22.3607 32.0608 22.7385C31.539 23.3342 30.6693 23.7265 29.8867 23.247C29.2489 22.8547 29.0605 22.0556 29.4518 21.4018C29.5968 21.1548 29.8432 20.9804 30.1331 20.9223C30.4084 20.8497 30.7128 20.8932 30.9592 21.0385C31.0607 21.1112 31.0897 21.2419 31.0172 21.3291C30.9592 21.4163 30.8433 21.4744 30.7273 21.4018C30.5824 21.3146 30.4084 21.2855 30.22 21.3146C30.0316 21.3582 29.8722 21.4744 29.7852 21.6342C29.5388 22.0701 29.6692 22.6222 30.0896 22.8983C30.7128 23.2615 31.3795 22.8983 31.7564 22.4624M32.7275 21.1838C32.6115 21.1838 32.4956 21.0967 32.4956 20.9804C32.4956 20.8642 32.568 20.777 32.684 20.777C34.2493 20.6608 35.6263 20.3411 36.9018 19.789C38.5106 19.0771 39.5976 18.278 40.0325 17.4643C40.5108 16.6216 40.4238 15.5755 40.1049 15.0088C39.7861 14.4277 39.0179 13.9627 38.3656 14.2533C37.8873 14.4567 37.6554 15.0088 37.8439 15.4883C38.0033 15.8661 38.4091 16.0404 38.786 15.9097C38.9164 15.837 39.0179 15.7498 39.0903 15.6045C39.1338 15.4738 39.1338 15.3285 39.0903 15.1977C39.0469 15.1105 39.0903 14.9653 39.2063 14.9217C39.2933 14.8781 39.4382 14.9507 39.4817 15.0379C39.5687 15.2849 39.5687 15.5464 39.4817 15.7789C39.3657 16.0114 39.1773 16.1857 38.9454 16.302C38.3801 16.5344 37.7134 16.2584 37.4525 15.6627C37.1771 14.9653 37.5105 14.1661 38.2062 13.861C39.1048 13.4978 40.0614 14.0499 40.4818 14.8054C40.8441 15.4447 40.9891 16.6361 40.4093 17.6822C39.902 18.5685 38.786 19.3967 37.0612 20.1813C35.7277 20.7625 34.3218 21.0967 32.742 21.1984" fill="#C09669"/>
<path fill-rule="evenodd" clip-rule="evenodd" d="M155.274 27.8819C155.956 27.3734 156.463 27.9691 156.999 28.3904C157.811 29.0297 158.695 29.5673 159.594 30.0758C159.681 30.1339 161.246 30.904 160.753 31.0929C159.507 31.5723 156.362 30.8314 155.202 29.9305C154.477 29.3784 154.506 28.4485 155.274 27.8819Z" fill="#801C39"/>
<path fill-rule="evenodd" clip-rule="evenodd" d="M120.909 33.2722C121.141 33.5338 121.315 33.8534 121.46 34.144C121.576 34.391 122.634 36.4687 121.866 36.4687C121.576 36.4687 121.373 36.1636 121.17 35.9747C120.909 35.7277 120.649 35.5098 120.402 35.2628C119.996 34.8705 119.185 34.2021 119.257 33.5628C119.315 33.0688 119.866 32.7056 120.33 32.8654C120.547 32.9526 120.75 33.0979 120.909 33.2868M121.112 27.6639C121.373 27.969 121.402 28.3904 121.504 28.7827C121.591 29.1314 121.866 29.5237 121.866 29.8869C121.866 30.192 121.707 30.3809 121.359 30.3809C120.88 30.3809 120.417 30.1484 120.112 29.6399C119.909 29.3203 119.605 28.9425 119.605 28.4194C119.605 27.8964 119.982 27.5331 120.373 27.4314C120.707 27.3588 120.953 27.475 121.127 27.6784M136.273 25.7315C136.737 25.7315 139.012 25.499 138.983 26.1674C138.969 26.487 138.433 26.9374 138.23 27.0682C137.389 27.6058 136.824 27.2716 134.824 27.2716C130.78 27.2716 128.33 27.3443 127.316 27.6784C126.895 27.7511 126.229 27.8528 126.04 27.3443C125.808 26.6904 126.359 26.0076 126.939 25.8332C127.417 25.6879 127.794 25.717 128.287 25.7315C128.925 25.7606 130.07 25.7315 130.707 25.6879C130.765 25.0777 130.504 24.3512 130.838 23.8281C131.171 23.2906 131.91 23.1162 132.403 23.3196C133.345 23.6974 133.316 24.8307 133.273 25.7315H136.288M118.59 30.8458H123.243C123.286 30.0903 123.344 29.3348 123.373 28.5938C123.373 28.187 123.431 27.6348 123.301 27.2426C123.113 26.6904 122.388 26.6614 121.924 26.6178C121.301 26.5597 120.692 26.5887 120.083 26.6614C119.764 26.705 119.431 26.7631 119.112 26.8503C118.605 26.952 118.547 27.2135 118.605 27.7075C118.706 28.7681 118.634 29.8288 118.605 30.8749M116.837 30.8458C116.837 29.6835 116.75 28.8844 116.547 27.7511C116.445 27.1844 116.358 26.3563 116.909 25.9785C117.605 25.499 118.547 25.7024 119.315 25.6589C120.054 23.9299 119.982 22.6077 120.779 22.4914C121.083 22.4479 121.852 22.7239 122.156 23.5521C122.33 24.0461 121.721 24.6127 121.518 24.8016C121.141 25.1649 120.866 25.4409 120.678 25.6298H123.924C125.243 25.6298 125.403 26.5161 125.171 27.6058C124.46 31.0057 124.692 34.4927 124.895 37.9507C125.243 38.1105 125.533 38.1251 125.91 37.9507C126.881 37.5148 127.693 36.7448 128.084 35.7568C128.736 34.1004 128.388 32.4295 128.388 30.7005C128.388 30.2501 128.345 29.7561 128.649 29.3784C128.997 28.928 129.664 28.928 130.186 28.928C131.171 28.9425 132.171 28.9425 133.157 28.957C133.722 28.957 134.505 28.9715 134.94 29.4074C135.302 29.7561 135.317 30.3083 135.273 30.7877C135.172 31.9065 134.983 32.9817 134.983 34.1149C134.925 36.4396 135.36 36.8901 135.838 37.4567C136.65 38.4156 138.549 38.2122 139.607 37.7037C140.042 37.5003 140.592 37.6892 140.607 38.1977C140.621 39.3601 139.012 39.9267 138.128 40.1882C136.606 40.6241 134.693 40.4352 133.78 38.9678C133.345 38.2703 133.229 37.5148 133.171 36.7012C133.026 34.885 133.403 33.3885 133.258 31.5578C133.157 30.2937 131.794 29.945 130.794 30.4971C130.273 30.7877 130.258 31.4561 130.244 31.9791C130.215 32.7637 130.273 33.5338 130.171 34.3038C129.983 35.9166 129.475 37.3841 128.388 38.6191C127.925 39.1421 127.374 39.5925 126.664 39.6797C125.997 39.7523 125.388 39.4472 124.881 38.9532C124.736 40.0865 123.968 40.9147 122.62 40.8856C121.881 40.8856 121.025 40.4498 120.402 40.0575C120.083 39.8541 119.199 39.3601 119.388 38.8661C119.489 38.6191 119.938 38.7353 120.098 38.7789C120.402 38.8661 120.692 38.9532 121.011 38.9823C121.62 39.0549 122.402 39.1131 122.924 38.6772C123.127 38.5173 123.214 38.2122 123.214 37.9507V32.0954C122.199 32.0954 120.243 32.168 118.561 32.3278C118.228 34.2893 117.808 36.0038 117.286 37.4567C116.953 38.4447 116.474 39.4327 115.532 40.1446C114.764 40.7113 113.981 40.7985 113.01 40.3771C112.445 40.1446 112.401 39.6797 112.749 39.4182C113.691 38.6917 114.778 38.0524 115.271 37.2097C116.213 35.626 116.619 33.9406 116.793 32.3133C115.271 32.4731 114.199 32.7056 113.518 32.8073C113.01 32.8509 112.575 32.5748 112.503 32.0808C112.401 31.2527 112.836 30.8313 113.518 30.8313H116.793L116.837 30.8458Z" fill="#801C39"/>
<path fill-rule="evenodd" clip-rule="evenodd" d="M154.491 22.6367C154.868 22.8256 155.187 23.1598 155.332 23.6392C155.491 24.1478 155.375 24.5691 155.332 25.1067C157.448 25.1067 159.448 25.1358 161.564 25.1067C162.304 25.1067 162.941 25.1357 163.449 25.6152C164.057 26.1964 164.057 27.1699 164.028 27.969C163.999 28.8698 163.869 29.7561 163.768 30.6569C163.71 31.1654 163.724 31.8774 163.42 32.3133C163.086 32.7927 162.666 32.5603 162.376 32.1825C162.028 31.7321 162.086 31.0492 162.043 30.5116C161.97 29.6399 162.086 27.2716 160.97 27.0246C158.811 26.5451 157.39 26.6032 155.375 26.516C152.23 26.4289 149.259 26.487 146.418 27.0246C145.157 27.2716 145.244 29.7416 145.201 30.7296C145.172 31.3543 145.186 31.8483 144.983 32.4586C144.737 33.2141 144.012 32.9671 143.708 31.95C143.403 30.9039 143.258 29.945 143.229 28.8407C143.201 27.8092 143.157 26.487 143.664 25.7024C143.925 25.2956 144.49 25.1939 144.795 25.1939H151.911C152.477 25.1648 151.984 24.3366 152.201 23.6683C152.564 22.5641 153.68 22.2299 154.535 22.6658" fill="#801C39"/>
<path fill-rule="evenodd" clip-rule="evenodd" d="M150.361 28.3758C150.796 27.969 151.303 27.5767 151.854 27.8673C152.637 28.2596 152.869 28.5792 152.332 29.2621C151.709 30.0612 150.854 30.5698 149.941 30.933C149.057 31.2962 148.028 31.6304 147.085 31.4415C146.781 31.3834 146.201 31.3398 146.274 31.0928C146.375 30.7151 147.593 30.2356 148.201 29.8433C148.97 29.3638 149.68 28.9861 150.361 28.3758Z" fill="#801C39"/>
<path fill-rule="evenodd" clip-rule="evenodd" d="M150.013 32.7056H156.695C157.492 32.7056 160.087 32.6039 160 33.2722C159.898 34.1149 159.087 34.3474 158.521 34.3619C157.289 34.391 155.405 34.1876 154.825 34.4782C154.333 34.7252 154.347 37.631 155.057 37.878C155.652 38.096 157.579 37.9943 158.666 38.0088C160.956 38.0233 163.101 37.9507 165.435 38.0088C165.928 38.0088 166.508 37.9797 166.855 38.372C167.319 38.8951 166.522 39.4472 166.174 39.7087C165.247 40.4352 164.087 40.4933 162.957 40.3335C159.681 39.8831 156.42 39.4908 153.101 39.4327C150.289 39.3891 148.318 39.5634 145.535 39.9557C144.738 40.072 143.94 40.2899 143.143 40.3916C142.607 40.4643 142.013 40.3044 141.94 39.6797C141.882 39.1421 142.375 38.6917 142.969 38.3866C143.578 38.0669 144.897 37.9071 145.781 37.9071C147.245 37.9071 147.999 37.9652 149.55 37.9361C150.463 37.9216 152.072 38.2122 152.26 37.4712C152.434 36.7883 152.405 35.626 152.347 34.9286C152.274 33.9551 150.1 34.391 149.39 34.4346C148.796 34.4782 148.057 34.5944 147.433 34.3619C146.825 34.1294 146.883 33.3158 147.419 32.9816C148.057 32.5748 149.187 32.7056 150.013 32.7056Z" fill="#801C39"/>
<path fill-rule="evenodd" clip-rule="evenodd" d="M70.4703 38.2849C72.0212 38.2994 73.5575 38.5319 75.1084 38.59C75.5577 38.6045 76.0505 38.619 76.3404 38.1977C76.6303 37.7909 76.6158 37.2387 76.6303 36.7593C76.6448 36.3089 76.6737 35.8875 76.4708 35.4807C76.2679 35.0884 75.7606 34.9867 75.3693 34.9576C74.746 34.8995 74.1083 34.8705 73.4851 34.8559C73.4851 34.8559 69.1224 34.8123 67.4556 34.8559C66.8468 34.8705 66.2381 34.885 65.6293 34.9576C65.209 35.0157 64.8321 35.0448 64.6147 35.4662C64.3683 35.9311 64.4698 36.3815 64.5423 36.861C64.6147 37.3695 64.6727 38.0379 65.1365 38.3575C65.6438 38.6917 66.412 38.5028 66.9773 38.4447C68.1513 38.3284 69.3108 38.2558 70.4848 38.2703M70.3544 33.2286C74.0938 33.2286 77.8912 33.432 78.1666 33.5047C79.0508 33.7081 79.2827 34.173 79.3117 34.391C79.3841 35.1029 79.0218 35.8875 78.8768 36.5849C78.6015 37.878 78.1666 39.6942 77.8333 40.4497C77.5579 41.06 76.6158 40.9001 75.9491 40.7113C74.4562 40.2899 72.9198 40.072 71.3834 40.0429C69.9485 40.0139 68.4991 40.0284 67.0787 40.2027C66.6584 40.2609 66.2526 40.319 65.8322 40.4207C65.5568 40.4788 65.2815 40.5369 65.0206 40.6386C64.4408 40.8566 63.6146 41.0454 63.1218 40.5514C62.6725 40.101 62.6146 39.4036 62.5131 38.7789C62.3537 37.7909 62.3537 37.6601 62.0638 36.5413C61.9768 36.1781 61.6724 35.4226 61.6145 35.0448C61.5565 34.5944 61.7014 34.0277 62.0493 33.7372C62.3972 33.4466 62.861 33.403 63.2958 33.3739C63.3827 33.3739 66.8323 33.2432 70.3834 33.2286M68.2672 25.746C68.6731 25.746 68.9629 25.4554 68.876 25.005C68.76 24.3657 68.4412 23.1743 69.0354 22.6803C69.2383 22.5205 69.6007 22.4769 69.8471 22.506C70.7167 22.6077 72.2966 23.3341 71.8617 24.3367C71.8617 24.3367 71.4414 25.746 72.1661 25.746C72.1661 25.746 79.9349 25.7169 80.6016 25.746C81.1669 25.7605 82.6888 25.6298 82.8047 26.1383C82.9352 26.7049 82.5728 27.3152 82.1815 27.6784C81.7032 28.1143 81.1379 28.1434 80.5292 28.1434C79.587 28.1434 78.9783 27.8964 78.3985 27.7946C77.2535 27.5912 76.5143 27.4895 74.7316 27.2861C73.3401 27.1408 72.2531 27.0827 71.8183 27.3152C71.4994 27.475 71.4849 27.969 71.4849 28.2886C71.4849 28.6374 71.4414 29.2331 71.7313 29.4801C71.9777 29.6835 72.3111 29.6544 72.6009 29.6689C72.9923 29.6689 73.3691 29.6835 73.7605 29.698C75.1519 29.7271 76.5578 29.6835 77.9492 29.8142C78.442 29.8578 79.5436 29.9014 79.7755 30.4681C79.9349 30.8749 79.4421 31.2381 79.1667 31.3398C78.558 31.5287 77.8043 31.4851 77.1665 31.4706L72.4995 31.3398C72.34 31.3398 68.5861 31.3108 66.8613 31.3979C65.3829 31.4706 63.8466 31.4415 62.4116 31.7902C61.9478 31.9065 61.3971 32.1389 60.9333 31.8774C60.5419 31.6449 60.4405 31.1509 60.5854 30.7296C60.8753 29.9014 61.9333 29.7125 62.5856 29.6835C64.0785 29.6108 65.6003 29.6835 67.0932 29.7125C67.586 29.7125 68.6441 29.8723 68.9195 29.5236C69.2093 29.1749 69.4123 27.475 68.4701 27.3007C67.8034 27.3007 67.1367 27.3733 66.4845 27.4169C64.7887 27.5331 63.0929 27.5912 61.4116 27.8237C60.7158 27.9254 60.0636 28.216 59.3679 28.3177C58.9041 28.3904 58.3243 28.3904 58.1939 27.7946C58.0779 27.2571 58.2808 26.7485 58.9476 26.2691C59.9766 25.5426 64.5568 25.7605 65.6873 25.7605H68.2672V25.746Z" fill="#801C39"/>
<path fill-rule="evenodd" clip-rule="evenodd" d="M100.719 36.0475C100.516 35.8877 100.197 35.9167 99.7626 35.9603C99.0814 36.0184 98.3857 36.0911 97.7045 36.2073C96.6609 36.4107 96.4145 36.3817 95.4724 36.5996C94.8202 36.7449 94.3853 36.8175 94.1534 36.6577C93.9215 36.4979 93.5157 36.2509 93.5882 35.7424C93.7041 34.7834 94.8781 34.6672 95.9797 34.58C97.0957 34.4928 100.154 34.6817 100.748 34.333C101.169 34.0715 101.299 33.0108 101.096 32.4151C101.024 32.2117 100.835 32.0664 100.719 32.0229C100.154 31.834 98.951 31.8921 98.4292 31.8921C97.9074 31.8921 97.2407 31.9502 96.6174 31.8921C96.342 31.8485 96.0956 31.616 96.1101 31.2237C96.1536 30.134 98.1248 30.5263 99.0234 30.4827C99.3278 30.4827 100.603 30.5699 100.821 30.3229C101.067 30.0323 101.038 29.6836 101.024 29.3204C101.024 28.9426 101.024 28.0709 100.415 28.0709C99.8061 28.0709 97.9219 28.1435 97.3421 28.1435C96.3276 28.1435 95.226 28.2743 95.2115 27.5478C95.1825 26.2402 97.0522 26.6034 98.3132 26.6034C98.777 26.6034 99.2553 26.6034 99.7191 26.6034C99.8496 26.6034 100.009 26.5017 99.6467 26.2837C99.4583 26.1675 99.1104 26.0222 98.9944 25.9496C98.4727 25.6299 97.748 25.2086 97.574 24.5838C97.3566 23.7847 97.4726 22.8548 98.3567 22.7676C100.081 22.5933 100.067 25.0342 100.69 26.0658C100.763 26.1966 100.922 26.4 101.313 26.5307C101.371 26.5453 102.661 26.676 102.908 26.4145C103.038 26.2837 103.444 26.1966 103.966 24.8453C104.14 24.3659 104.372 23.1745 104.502 22.9275C104.618 22.695 104.778 22.5206 105.154 22.4771C105.662 22.4771 106.082 22.7095 106.43 23.189C106.778 23.6539 106.836 24.3949 106.459 24.8017C106.299 24.9761 104.096 26.6179 104.096 26.6179H105.227C106.053 26.6179 106.865 26.6179 107.691 26.6179C108.155 26.6179 108.575 26.6034 109.039 26.7196C109.401 26.8213 109.242 27.6059 108.56 27.9256C107.923 28.2452 105.763 28.1144 104.618 28.0854C104.212 28.0854 103.444 27.9837 103.27 28.4777C103.125 28.87 103.125 29.4076 103.125 29.7999C103.125 30.4682 103.705 30.4827 104.328 30.4827C105.299 30.4827 106.285 30.4246 107.271 30.4537C107.633 30.4537 108.213 30.5699 108.111 31.0494C108.01 31.4998 107.531 31.834 107.097 31.8776C106.154 31.9502 105.386 31.8776 104.589 31.8776C104.256 31.8776 103.299 31.7613 103.154 32.2408C103.038 32.6331 103.082 33.6356 103.154 33.9988C103.256 34.58 104.488 34.4347 105.966 34.4928C107.676 34.5655 110.764 34.1877 111.14 34.6672C111.416 35.0014 111.198 35.4227 110.517 35.9894C109.821 36.5851 109.126 36.5124 107.415 36.3526C106.415 36.2509 103.227 35.3065 103.169 36.527C103.154 37.0064 103.169 37.4568 103.169 37.9363C103.169 37.9363 103.27 38.9243 103.227 39.4038C103.183 39.8832 103.053 40.9729 101.792 40.9729C101.169 40.9729 100.676 39.9849 100.777 39.1132C100.864 38.3867 100.98 37.762 101.038 37.05C101.067 36.5415 100.98 36.2073 100.734 36.0184M94.6317 25.2812C93.9795 25.7607 92.0663 25.7607 89.0805 25.6445C87.6891 25.6445 87.0079 25.3103 87.0369 24.4095C87.0369 24.1334 87.2688 23.7266 87.8485 23.3924C88.2979 23.1309 88.9791 23.0873 89.3704 23.2907C90.8488 24.1043 92.1678 24.6129 93.8346 24.6419C94.7767 24.6419 94.9506 25.0633 94.6317 25.2812ZM92.0808 33.9117C92.1388 35.3791 92.2402 37.3551 92.1678 38.8226C92.1533 39.1858 92.1388 39.5636 92.0083 39.8978C91.7619 40.4789 90.7618 41.0892 90.2835 40.4499C89.6748 39.6217 89.9357 38.6918 90.0806 37.7474C90.2111 36.8757 90.6459 32.7493 90.0516 32.7493C89.7038 32.7493 89.3559 33.345 88.1094 34.1877C86.834 35.0595 86.2977 35.539 85.1092 35.6261C84.6019 35.6697 84.0076 35.6697 83.5293 35.4227C83.196 35.2484 82.8771 34.9287 82.7901 34.551C82.6887 34.1296 82.9061 33.7809 83.3699 33.7518C84.9787 33.6792 85.7759 33.4903 86.9934 32.9091C87.8341 32.5168 88.5443 32.0955 89.3269 31.587C90.0082 31.1366 90.6604 30.3956 91.0807 29.6691C91.2691 29.3494 91.2981 29.0007 90.9793 28.7392C90.6024 28.4341 86.1817 29.611 85.602 28.7392C85.2686 28.2452 85.4136 27.8239 85.7324 27.4752C86.2252 26.9376 87.3558 27.0247 88.1094 27.0393C89.3849 27.0683 91.8489 26.9666 92.4721 26.9376C93.0084 26.9085 93.8201 26.8795 94.1824 27.3734C94.5448 27.8674 94.0375 28.4922 93.7186 28.8845C93.6607 28.9572 92.8055 30.0759 92.8635 30.1195C93.4432 30.5409 93.6751 30.7443 94.1824 31.0203C94.6897 31.2964 95.5014 31.4853 95.6028 32.0664C95.6608 32.4151 95.3275 32.6621 94.9796 32.6767C94.1969 32.6912 92.9649 31.9211 92.762 31.8485C92.3562 31.7613 92.0953 32.0374 92.0373 32.4878L92.0808 33.9262V33.9117Z" fill="#801C39"/>
<path d="M129.258 17.4499C125.866 17.4499 123.591 14.9653 123.591 11.2749C123.591 7.58441 125.997 4.92554 129.461 4.92554C133.418 4.92554 135.186 8.00576 135.186 11.0715C135.186 15.0089 132.91 17.4499 129.258 17.4499ZM129.403 7.10494C127.475 7.10494 126.171 8.57241 126.171 11.2313C126.171 13.8902 127.432 15.4012 129.403 15.4012C131.374 15.4012 132.592 13.8756 132.592 11.1732C132.592 8.4707 131.316 7.10494 129.403 7.10494Z" fill="#801C39"/>
<path d="M110.372 5.15796L107.719 9.96718C107.719 9.96718 107.632 10.1125 107.545 10.1125C107.458 10.1125 107.401 10.0544 107.401 10.0544L104.734 5.15796H102.371L106.169 12.2919V17.2609H107.908C108.357 17.2609 108.719 16.8977 108.719 16.4473V12.2919L112.691 5.15796H110.372Z" fill="#801C39"/>
<path d="M164.101 11.7251L163.71 11.5653L164.232 11.3619C165.261 10.9841 166.304 9.95253 166.304 8.48507C166.304 7.40989 165.942 6.56719 165.217 6.00054C164.464 5.40484 163.261 5.14331 161.231 5.14331H157.753V17.2463H159.202C159.724 17.2463 160.159 16.8104 160.159 16.2873V12.2336H161.188C163.493 12.2336 164.29 16.3455 164.464 17.2463H166.942C166.71 16.2438 165.696 12.2482 164.116 11.7106M161.449 10.6935H160.144V6.78513H161.608C163.043 6.78513 163.869 7.48254 163.869 8.70301C163.869 9.92347 162.942 10.6935 161.434 10.6935" fill="#801C39"/>
<path d="M88.5152 5.15796V14.0063H88.4862C88.2978 14.0063 88.1239 13.9046 88.0369 13.7303L83.8337 5.66649C83.6163 5.33231 83.3119 5.15796 82.9495 5.15796H80.4131V17.2609H82.6452V8.13648H82.8191C82.935 8.13648 83.051 8.20913 83.0945 8.31083L87.5876 16.7815C87.7326 16.9994 88.0079 17.2609 88.4428 17.2609H90.6459V5.15796H88.5152Z" fill="#801C39"/>
<path d="M152.173 6.39296V17.2609H154.593V5.15796H153.405C152.724 5.15796 152.173 5.71008 152.173 6.39296Z" fill="#801C39"/>
<path d="M76.5289 5.15796C75.8476 5.15796 75.2969 5.71008 75.2969 6.39296V12.3355C75.3114 14.4568 74.6011 15.3285 72.8329 15.3285C71.0646 15.3285 70.3834 14.3986 70.3834 12.3355V5.15796H69.1949C68.5137 5.15796 67.9629 5.71008 67.9629 6.39296V12.3064C67.9629 15.8661 69.4413 17.4643 72.7459 17.4643C76.0505 17.4643 77.7463 15.837 77.7463 12.35V5.15796H76.5289Z" fill="#801C39"/>
<path d="M64.0347 5.15796C63.3535 5.15796 62.8027 5.71008 62.8027 6.39296V12.8295C62.8027 14.9072 61.9621 15.3285 60.7011 15.3285H58.0342V17.4498H61.0199C63.9043 17.4498 65.2377 15.9823 65.2377 12.844V5.15796H64.0347Z" fill="#801C39"/>
<path d="M101.037 6.34937V5.15796H93.5586V17.2609H100.313C100.719 17.2609 101.052 16.9268 101.052 16.5199V15.3285H95.7762V12.1466H99.7765C100.182 12.1466 100.516 11.8124 100.516 11.4056V10.2287H95.7762V7.09037H100.327C100.733 7.09037 101.066 6.75619 101.066 6.34937" fill="#801C39"/>
<path d="M118.996 5.15796H116.619C116.083 5.15796 115.605 5.50666 115.445 6.02972L112.039 17.2609H114.416L115.3 14.2098H119.344L120.243 17.2609H122.765L118.996 5.15796ZM115.619 12.4808L116.938 7.68607C116.982 7.51172 117.141 7.39548 117.329 7.38095H117.518L118.967 12.4808H115.619Z" fill="#801C39"/>
<path d="M146.549 5.15796H144.172C143.636 5.15796 143.157 5.50666 142.998 6.02972L139.592 17.2609H141.969L142.853 14.2098H146.897L147.795 17.2609H150.317L146.549 5.15796ZM143.186 12.4808L144.505 7.7006C144.563 7.51172 144.723 7.38095 144.911 7.38095H145.085L146.534 12.4808H143.186Z" fill="#801C39"/>
</svg>
