<svg width="70" height="46" viewBox="0 0 70 46" fill="none" xmlns="http://www.w3.org/2000/svg">
<g clip-path="url(#clip0_586_3576)">
<path d="M0.376559 14.6336C1.8828 14.6336 7.55808 15.1205 11.9961 20.7468C13.2334 22.3156 14.6858 24.8041 14.363 31.5394C14.1748 35.3533 16.999 39.2484 21.6252 40.2763C29.264 41.9534 36.8221 39.7624 38.678 39.1673L38.947 39.0861L39.1083 39.032C37.3869 40.5468 31.0392 41.6829 29.7751 41.8993C28.6723 42.0616 27.1123 42.1157 25.9826 42.1157H25.2295C25.0143 42.1157 24.826 42.1157 24.6915 42.1157C23.9115 42.1157 21.437 41.737 21.2756 41.737C21.1142 41.737 20.9259 41.737 20.9259 41.737L21.1949 41.8993C21.1949 41.8993 21.6252 42.0886 21.7059 42.1427C21.7866 42.1968 21.9211 42.2239 22.0556 42.2509C22.1901 42.2509 22.2439 42.2509 22.3784 42.2509C22.5129 42.2509 22.5397 42.2509 22.6473 42.3321C22.7549 42.4132 23.4811 42.4132 23.5618 42.4673C23.6425 42.5214 23.9384 42.4673 23.9384 42.4673L24.5839 42.6025H24.7722C24.7722 42.6025 24.8798 42.6025 25.0681 42.6025C25.2832 42.6025 25.5522 42.7648 26.0902 42.7648C26.6012 42.7648 28.7261 42.7648 29.2102 42.7919C29.6944 42.7919 29.8558 42.6837 30.0171 42.6566C30.1785 42.6296 30.2323 42.6296 30.2323 42.6296H30.5551L30.7972 42.7648H31.2275C31.2275 42.7648 31.4158 42.7107 31.5234 42.6837C31.6579 42.6837 32.4379 42.5214 33.0296 42.4673C33.6213 42.3861 35.4234 41.8722 35.4234 41.8722L35.5041 41.9534L35.1545 42.0886L34.9931 42.1968L34.6434 42.2509L34.1055 42.4402C34.1055 42.4402 33.8096 42.6296 33.702 42.6566C33.5944 42.6566 32.7068 42.8189 32.3572 42.873C32.0075 42.9271 31.362 43.0624 30.9854 43.1165C30.6358 43.1706 29.3447 43.3329 29.2102 43.3599C29.0757 43.3599 28.484 43.4411 28.484 43.4411L28.2957 43.5222L28.484 43.6575L28.8068 43.6034C28.8068 43.6034 28.9413 43.6034 29.2909 43.5493C29.5061 43.5493 29.9902 43.5222 30.313 43.5222H30.6089H30.6627L31.2544 43.2788L31.362 43.3599L31.1737 43.4681L31.2275 43.6034C31.2275 43.6034 31.2544 43.6845 31.2813 43.7657C31.2813 43.8468 31.1737 43.8468 31.1737 43.8468L30.9854 43.9821L30.6896 44.0632L30.4206 43.928C30.4206 43.928 30.1247 43.955 30.0171 44.0091C29.8827 44.0632 29.8289 44.1173 29.7482 44.0903C29.6675 44.0903 29.4792 44.0903 29.4792 44.0903L29.2102 44.0091C29.2102 44.0091 28.995 44.0632 28.9413 44.0903C28.8606 44.1173 28.8337 44.2525 28.8337 44.2525L28.6992 44.496C28.6992 44.496 28.5647 44.5501 28.484 44.5771C28.3764 44.5771 28.3226 44.5771 28.3226 44.5771H28.2957L28.2688 44.6583L28.2957 44.7124V44.7935L28.3764 44.8747C28.3764 44.8747 28.6454 44.8747 28.8068 44.8747C28.9682 44.8747 29.0219 44.7665 29.2909 44.7394V44.6853L29.3178 44.6583H29.3447H29.3716H29.3985L29.6406 44.7394C29.6406 44.7394 29.9095 44.7394 30.1785 44.7124H30.313L30.6358 44.6042C30.7972 44.5771 30.9316 44.523 30.9316 44.523C30.9316 44.523 30.7972 44.6042 30.582 44.6583C30.3668 44.7124 29.8289 44.8747 29.6137 44.9288C29.3985 44.9829 28.5647 45.1181 28.5647 45.1181C28.5647 45.1181 28.1881 45.1181 27.973 45.1722C27.7578 45.2263 27.0047 45.3616 27.0047 45.3616H26.7088H26.0902C26.0902 45.3616 25.7943 45.3886 25.7405 45.4157C25.6867 45.4157 25.8481 45.5509 25.8481 45.5509L26.0902 45.6862C26.0902 45.6862 26.0095 45.7403 25.875 45.7403C25.7405 45.7403 25.7136 45.6862 25.7136 45.6862L25.5522 45.578C25.5522 45.578 25.4715 45.6321 25.3639 45.6591C25.2833 45.7132 25.095 45.6591 25.095 45.6591L24.8529 45.5239C24.8529 45.5239 24.7184 45.5239 24.5301 45.605C24.315 45.6862 24.1536 45.7403 23.8846 45.7132C23.6963 45.7132 21.5984 45.9025 19.6349 45.9837C12.3996 46.2271 9.1988 43.7116 8.09602 40.628C5.83667 34.3255 10.8664 29.9706 10.2747 25.5886C9.14501 16.5812 0.887603 14.823 0.0537941 14.6607H0C0 14.6607 0.0537942 14.6607 0.134485 14.6607H0.376559V14.6336ZM67.0544 11.0361L66.9737 11.2525C66.9468 11.3066 66.8392 11.3607 66.7854 11.4148C66.7316 11.4689 66.651 11.6041 66.651 11.6041L66.4627 11.8476L66.3551 12.0099C66.3551 12.0099 66.1668 12.064 66.113 12.091C66.0592 12.091 66.0592 12.091 66.0323 12.1722C65.9785 12.2263 65.9247 12.2263 65.9247 12.2263V12.3345L66.0054 12.3886L66.1399 12.4426V12.5508H65.6558L65.4944 12.6049V12.7943L65.5482 12.8754L65.6558 12.9295L65.7096 13.0377L65.6558 13.0918L65.3599 13.2271H65.1716L65.064 13.3623V13.5517L65.1447 13.6328H65.2792L65.4137 13.5787L65.2792 13.741L65.1178 13.8492L64.7413 14.0927L64.6068 14.2008C64.6068 14.2008 64.553 14.1468 64.4992 14.0656C64.4454 14.0115 64.3647 14.2549 64.3109 14.282C64.2571 14.309 64.015 14.4443 64.015 14.4443L63.8537 14.5254L63.6116 14.6877L63.4502 14.7689L63.2888 14.9041L63.1274 14.9582L63.0736 15.0664L62.9392 15.1746C62.9392 15.1746 62.8854 15.1205 62.6702 15.1746C62.4819 15.2287 62.5626 15.2558 62.5088 15.364C62.455 15.4451 62.2129 15.6345 62.2129 15.6345C62.2129 15.6345 61.9978 15.7427 61.9171 15.7697C61.8364 15.7968 61.4329 16.0943 61.2984 16.1213C61.164 16.1754 60.0881 16.6894 60.0881 16.6894L59.9267 16.7435H59.846C59.7922 16.7435 59.7653 16.8246 59.7653 16.8246C59.7653 16.8246 59.7922 16.9599 59.8729 16.9599C59.9536 16.9599 60.0612 16.8246 60.0612 16.8246L60.1957 16.7164C60.1957 16.7164 60.2763 16.6623 60.3839 16.6082C60.4915 16.5541 60.5453 16.5541 60.5453 16.5541C60.5453 16.5541 60.7336 16.5 60.5991 16.5541C60.4377 16.6082 60.895 16.5541 60.895 16.5541L61.0026 16.473C61.0026 16.473 61.0564 16.4189 61.1102 16.4189C61.1639 16.4189 61.2984 16.3377 61.2984 16.3377L61.5136 16.2295L61.7019 16.1484C61.7019 16.1484 61.7019 16.0402 61.8095 15.959C61.8902 15.8779 62.0247 15.959 62.0247 15.959L62.2129 15.8509C62.2129 15.8509 62.3474 15.7968 62.455 15.7697C62.5626 15.7156 63.2081 15.4722 63.3964 15.364C63.5847 15.2558 63.9343 15.2017 63.9343 15.2017C63.9343 15.2017 63.8268 15.2828 63.6654 15.391L63.3695 15.6074C63.3695 15.6074 63.1812 15.7427 63.1543 15.7697C62.9929 15.8779 62.1322 16.3377 61.8633 16.4459C61.5943 16.5812 61.0833 16.8787 61.0833 16.8787C61.0833 16.8787 60.895 16.9058 60.7874 16.9599C60.6798 17.014 60.0881 17.4738 60.0881 17.4738C60.0881 17.4738 58.6356 18.0689 56.2956 18.6099C51.0506 19.9894 42.605 20.5574 41.556 20.6386H41.4753H42.4705C47.5002 20.5845 51.0775 19.9894 53.7942 19.6107C56.6721 19.232 62.455 17.2574 62.455 17.2574C58.9046 20.2869 52.8528 21.0714 50.8624 21.3418C49.0334 21.5853 46.1016 21.5582 40.4532 22.1804C33.9979 22.8837 20.6032 26.9681 20.2535 34.1902C20.0921 37.9501 23.7232 39.573 23.7232 39.573C19.9576 38.3829 16.4879 34.8665 17.9135 30.6197C19.3121 26.346 22.9163 23.641 25.7943 21.8017C28.8875 19.8271 33.8634 17.041 51.8038 16.3648C55.4887 16.2295 60.895 14.7418 60.895 14.7418L61.1371 14.4713L61.5405 14.3902L62.0516 14.309L62.4012 14.0927L62.6164 13.8492L62.9123 13.741L63.2619 13.4976L63.504 13.1189C63.504 13.1189 63.6385 13.0918 63.8537 13.0107C64.0688 12.9295 64.1764 12.8213 64.1764 12.8213L64.3916 12.659L64.6068 12.4967L64.8488 12.3074L65.602 11.9828L65.8171 11.9017H66.0323C66.0323 11.9017 66.1668 11.523 66.3551 11.4418C66.4089 11.4418 66.4896 11.3877 66.5703 11.3336C66.7854 11.1984 67.0006 10.982 67.0006 10.982L67.0544 11.0361ZM35.3697 30.9984C35.3697 30.9984 37.2256 31.4042 37.118 33.1894C37.0104 34.6771 35.2352 35.3263 33.9979 35.3263C32.8413 35.3263 31.362 34.0279 32.3841 32.9189C32.3841 32.9189 32.4648 33.9738 33.2717 33.9738C34.1862 33.9738 34.5627 32.0263 32.3572 31.8099C30.0171 31.5935 29.1833 33.2976 29.3447 34.0279C29.4792 34.6771 30.0171 36.4353 34.1324 36.1919C38.2476 35.9484 41.6098 32.4861 49.0603 34.1632C49.0603 34.1632 46.0209 34.3255 42.0401 35.4886C39.9153 36.1107 38.2207 36.8411 36.2304 37.0574C35.8807 37.2197 34.7779 38.1124 33.1103 38.3017C30.6627 38.5722 30.1247 37.4361 30.044 37.3279C29.2371 37.5443 27.9461 37.4902 27.4081 36.6517C26.3591 35.0288 27.2736 33.9738 27.2736 33.9468C27.1929 33.6763 26.4667 32.2697 27.8385 30.9984C29.1026 30.1328 30.0171 30.5656 30.3668 30.5927C30.3668 30.5927 31.0392 29.5378 32.5724 29.4566C33.4062 29.3755 34.5358 29.5107 35.3428 30.9984H35.3697ZM62.993 19.3402V19.4214C62.993 19.4214 62.9123 19.5025 62.8854 19.5295C62.8585 19.5566 62.724 19.6648 62.724 19.6648C62.724 19.6648 62.6164 19.7189 62.6164 19.773C62.6164 19.8 62.5895 19.8271 62.5626 19.8812C62.5626 19.9082 62.4819 19.9623 62.4819 19.9623C62.4819 19.9623 62.3474 19.9623 62.2667 19.9894C62.186 20.0164 62.1591 20.1246 62.1591 20.1246C62.1591 20.1246 62.1322 20.2058 62.1053 20.2599C62.1053 20.314 62.0784 20.4222 62.0247 20.5033C61.9978 20.5845 61.8902 20.6656 61.8364 20.7738C61.7826 20.882 61.675 20.9091 61.6212 20.9361C61.5943 20.9632 61.3253 21.2607 61.1908 21.3959C61.0564 21.5312 60.7336 21.6935 60.7067 21.7205C60.6529 21.7205 60.4915 21.8287 60.4377 21.8558C60.357 21.8558 60.0074 22.0722 59.8998 22.1263C59.7922 22.1804 59.6577 22.2886 59.6577 22.2886L59.5232 22.4238L59.4425 22.505V22.5861L59.6039 22.6132C59.6039 22.6132 59.7384 22.5591 59.7653 22.5591C59.7922 22.5591 59.8998 22.505 59.9536 22.4779C59.9805 22.4779 60.0343 22.4509 60.0343 22.4238C60.0343 22.3968 60.5184 22.2886 60.5184 22.2886L59.9536 22.7214C59.9536 22.7214 59.6308 22.8566 59.5232 22.9648C59.3887 23.073 57.8825 23.9656 57.8825 23.9656L57.8287 24.0197C57.8287 24.0197 57.748 24.1009 57.6942 24.155C57.5597 24.2902 57.3984 24.2091 57.3984 24.2091C55.1121 25.3722 49.8672 25.3451 48.9258 25.3451C47.9844 25.3451 41.8518 25.1287 35.5848 26.4271C28.5647 27.8878 24.9605 30.1599 24.9605 30.1599C24.9605 30.1599 26.1709 28.023 33.191 25.6697C41.4215 22.7755 48.4954 24.0197 54.3321 22.8837C60.4108 21.7205 62.8854 19.4214 62.8854 19.4214L62.9661 19.3673L62.993 19.3402ZM69.7172 0.0811477C69.7172 0.0811477 69.6365 0.243443 69.5827 0.297542C69.5558 0.35164 69.6634 0.270492 69.6634 0.270492L69.5827 0.568034V0.757379C69.5827 0.757379 69.3945 0.865575 69.3407 0.919674C69.2869 0.946723 69.3138 0.946723 69.2869 1.02787C69.2869 1.10902 69.2062 1.10902 69.2062 1.10902V1.21722H69.3407L69.5289 1.16312L69.4751 1.32541C69.4751 1.32541 69.2869 1.43361 69.2331 1.46066C69.1793 1.46066 69.1255 1.51476 69.1255 1.51476L68.991 1.62295C68.991 1.62295 69.0448 1.7582 69.0717 1.8123C69.0717 1.8664 69.1524 1.89345 69.1524 1.89345H69.2869L69.3676 1.97459V2.05574L69.2062 2.29918L69.0448 2.40738L68.991 2.54263C68.991 2.54263 69.0448 2.65082 69.0448 2.70492C69.0448 2.75902 69.1524 2.75902 69.1524 2.75902L69.2869 2.67787L69.3945 2.56968L69.3407 2.81312L69.2062 2.97542L68.9372 3.32706L68.8296 3.4082C68.8296 3.4082 68.8296 3.48935 68.7758 3.4623C68.7758 3.4623 68.7489 3.4623 68.722 3.4623L68.6144 3.6246L68.48 3.75984L68.3186 3.97624L68.211 4.11148L68.1034 4.30083L67.9689 4.40903V4.51722L67.8882 4.67952C67.8882 4.67952 67.8075 4.65247 67.6461 4.76067C67.4848 4.86886 67.5655 4.89591 67.5386 5.00411C67.5386 5.11231 67.3503 5.35575 67.3503 5.35575C67.3503 5.35575 67.1889 5.54509 67.1351 5.59919C67.0813 5.65329 66.8123 6.08608 66.7047 6.16723C66.5972 6.24837 65.7902 7.11395 65.7902 7.11395C65.7902 7.11395 65.7365 7.16805 65.6827 7.22215L65.3061 7.73608L65.7902 7.30329L65.8709 7.141C65.8709 7.141 65.9247 7.05985 66.0054 6.9787C66.0861 6.89755 66.1399 6.87051 66.1399 6.87051C66.1399 6.87051 66.3013 6.73526 66.1668 6.87051C66.0323 6.9787 66.4358 6.76231 66.4358 6.76231L66.5165 6.65411C66.5165 6.65411 66.5165 6.60001 66.5972 6.57296C66.651 6.54591 66.7585 6.43772 66.7585 6.43772L66.9199 6.24837L67.0813 6.11313C67.0813 6.11313 67.0813 6.00493 67.0813 5.89673C67.1351 5.78854 67.2965 5.84263 67.2965 5.84263L67.431 5.68034C67.431 5.68034 67.5386 5.59919 67.6192 5.51804C67.6999 5.4369 68.1841 4.97706 68.3455 4.78771C68.4262 4.67952 68.5068 4.65247 68.5606 4.65247H68.6144C68.6144 4.65247 68.48 4.97706 68.3724 5.11231C68.2648 5.2746 67.5117 6.11313 67.3234 6.32952C67.1082 6.54591 66.7585 7.00575 66.7585 7.00575C66.7585 7.00575 66.5972 7.11395 66.5165 7.1951C66.4896 7.22215 66.382 7.38444 66.3013 7.51969C66.3282 7.51969 66.4358 7.41149 66.651 7.27624C66.9199 7.0869 67.6999 6.65411 67.6999 6.65411L68.0496 6.19427H68.1841L68.0765 6.38362L68.1841 6.46477C68.1841 6.46477 68.2379 6.51887 68.2917 6.57296C68.3455 6.62706 68.2379 6.68116 68.2379 6.68116L68.1303 6.87051L67.942 7.05985H67.673C67.673 7.05985 67.4579 7.22215 67.3772 7.30329C67.2965 7.41149 67.2696 7.46559 67.1889 7.49264C67.1082 7.51969 66.9737 7.60083 66.9737 7.60083L66.7316 7.65493C66.7316 7.65493 66.5972 7.79018 66.5434 7.84428C66.4896 7.89838 66.5434 8.00657 66.5434 8.00657V8.25002C66.5434 8.25002 66.4627 8.35821 66.4089 8.41231C66.3551 8.46641 66.2744 8.46641 66.2744 8.46641V8.57461L66.3551 8.62871H66.4358C66.4358 8.62871 66.651 8.54756 66.7585 8.49346C66.893 8.43936 66.893 8.30411 67.0813 8.16887V8.11477V8.06067H67.1082H67.1351H67.162L67.3772 8.00657C67.3772 8.00657 67.5924 7.87133 67.7806 7.73608C67.9689 7.60083 68.2917 7.27624 68.2917 7.27624C68.2917 7.27624 68.211 7.38444 68.0765 7.54674L67.942 7.68198L67.5923 8.03362L67.4579 8.16887C67.4579 8.16887 67.3503 8.27707 67.2427 8.35821L66.9468 8.57461C66.8123 8.6828 66.7047 8.76395 66.7047 8.76395C66.7047 8.76395 66.4089 8.92625 66.2744 9.06149C66.2206 9.11559 66.113 9.19674 65.9785 9.27789C65.6827 9.52133 65.333 9.79182 64.7682 10.1705L64.7951 10.2246H64.9564C64.9564 10.2246 64.9026 10.2787 64.7951 10.3599C64.7144 10.414 64.6606 10.3599 64.6606 10.3599H64.4723C64.4723 10.3599 64.4185 10.441 64.3647 10.4951C64.3109 10.5763 64.1764 10.6303 64.1764 10.6303H64.0419C64.0419 10.6303 63.7999 10.7656 63.6923 10.8467H63.6654C62.7509 11.3877 61.6481 11.9558 60.4377 12.3345C57.0487 13.4435 52.5031 14.2008 50.432 14.309C41.1794 14.7959 33.4062 15.4451 26.144 19.5295C20.9528 22.4509 18.1555 26.914 17.9672 27.1845C17.9672 27.1845 19.3928 23.3705 22.1632 20.8279C24.6646 18.5017 30.5282 14.2008 38.8932 12.4967C47.2582 10.7926 56.5377 11.5771 62.1053 7.54674C62.1053 7.54674 62.2129 7.60083 62.2667 7.60083C62.3205 7.60083 62.4281 7.49264 62.4281 7.49264H62.5895C62.7509 7.35739 62.9123 7.22215 63.0736 7.11395H63.0467C63.0467 7.11395 63.0467 7.0869 62.993 7.0869C62.9392 7.0869 62.9123 7.0869 62.9123 7.0869C62.9123 7.0869 62.9123 7.05985 62.8854 7.0328C62.8854 7.0328 62.8854 7.0328 62.8854 7.00575L62.9392 6.9787L63.1274 6.78936L63.2619 6.70821H63.4502H63.5578C63.5578 6.70821 63.6116 6.70821 63.6923 6.70821C63.7461 6.68116 63.773 6.70821 63.7999 6.62706C63.7999 6.57296 63.7999 6.43772 63.7999 6.43772C63.7999 6.43772 64.0419 6.30247 64.0419 6.27542V6.19427L64.1226 6.11313C64.1226 6.11313 64.3647 5.97788 64.4723 5.86968C64.5799 5.76149 64.8757 5.76149 64.8757 5.76149H64.9564C65.5213 5.3287 65.7096 5.05821 65.7096 5.05821L66.1399 4.73362L66.3551 4.46312L66.7854 4.21968L67.0275 3.86804L67.162 3.5705L67.3772 3.35411L67.431 3.30001L67.5386 2.84017C67.5386 2.84017 67.6461 2.75902 67.8344 2.59673C67.9958 2.43443 68.0765 2.29918 68.0765 2.29918L68.1841 2.00164L68.3724 1.83935L68.5337 1.56886L68.991 0.973772L69.1524 0.811477L69.3407 0.70328C69.3407 0.70328 69.2062 0.595083 69.3407 0.459837C69.3676 0.432788 69.4482 0.35164 69.502 0.270492C69.5827 0.162295 69.6903 0.0540985 69.771 0L69.7172 0.0811477ZM9.76364 14.7148V14.7689C9.84433 14.9853 9.97881 15.7697 8.92983 16.0131C7.98843 16.2295 6.13253 15.3369 6.13253 15.3369C6.13253 15.3369 9.14501 16.0672 9.76364 14.6877V14.7148ZM8.84914 12.5779C8.84914 12.5779 9.81743 14.0386 7.90774 14.8771C6.4553 15.4722 3.55041 14.6607 3.55041 14.6607C3.55041 14.6607 3.60421 14.6607 3.658 14.6607H3.98077C5.16424 14.6607 8.33809 14.4172 8.82224 12.5508L8.84914 12.5779ZM5.62149 12.7131C5.62149 12.7131 6.26702 13.4435 5.27183 14.0927C4.51871 14.5254 2.7435 14.4443 2.7435 14.4443C2.7435 14.4443 5.46011 14.0656 5.62149 12.7402V12.7131ZM69.8517 0.0270492C69.8517 0.0270492 69.7979 0.0540985 69.7172 0.135246C69.7172 0.0540985 69.8517 0.0270492 69.8517 0.0270492Z" fill="#BD1D26"/>
</g>
<defs>
<clipPath id="clip0_586_3576">
<rect width="69.8517" height="46" fill="white"/>
</clipPath>
</defs>
</svg>
