<svg width="119" height="46" viewBox="0 0 119 46" fill="none" xmlns="http://www.w3.org/2000/svg">
<path fill-rule="evenodd" clip-rule="evenodd" d="M9.16911 24.7797C9.03574 25.8195 9.06432 26.8737 9.25009 27.9087C9.52159 29.2982 10.0789 30.6112 10.8886 31.7707C12.7654 34.4541 15.5137 36.3947 18.6622 37.262C19.9531 37.6405 21.282 37.8753 22.6253 37.9616C26.2453 38.2395 29.8844 37.6693 33.2473 36.2941C34.2523 35.8676 35.2097 35.3453 36.11 34.732C38.7393 32.9495 41.0733 30.7645 43.0214 28.2489C43.5025 27.6595 43.9741 27.027 44.4552 26.4041C44.4409 26.4472 44.4266 26.4903 44.4076 26.5287C43.6121 28.062 42.7214 29.5426 41.7306 30.9562C41.0066 31.9912 40.2016 32.9639 39.3156 33.8599C39.2204 33.9509 39.0394 34.042 39.1442 34.2049C39.249 34.363 39.4252 34.2049 39.5252 34.1522C39.9206 33.8743 40.2969 33.5628 40.7017 33.2705C40.7494 33.237 40.7827 33.1795 40.8542 33.1651C40.6446 33.4382 40.4302 33.7162 40.2111 33.9797C39.1632 35.2591 37.9534 36.3899 36.6149 37.3482C36.5149 37.4201 36.4291 37.5064 36.3577 37.6022V37.7843C36.4053 37.7939 36.4577 37.7939 36.5053 37.7843C38.1201 37.0895 39.5776 36.088 40.8065 34.8278C41.2257 34.4062 41.5829 33.9222 41.9831 33.467C42.0212 33.4143 42.0688 33.3712 42.126 33.3424C42.0497 33.4718 41.9735 33.6012 41.883 33.7257C41.2972 34.5643 40.7065 35.4124 40.0778 36.2414C39.8253 36.5528 39.5586 36.8547 39.2728 37.1422C39.2728 37.1709 39.2061 37.1949 39.1918 37.2332C39.1775 37.2812 39.168 37.3291 39.1632 37.377H39.2966C39.4967 37.1949 39.6967 37.008 39.8825 36.8259C39.9301 36.7684 39.9682 36.7062 40.0016 36.6391L40.0778 36.7109C39.8491 36.9649 39.6205 37.2093 39.3966 37.4632C38.0724 38.8528 36.5101 39.9884 34.781 40.8174C34.6477 40.8941 34.5286 40.9947 34.4286 41.1049C34.3857 41.1576 34.3857 41.2391 34.4286 41.2918C34.4714 41.3445 34.5476 41.3637 34.6096 41.3301C35.2669 41.0618 35.9337 40.8174 36.5673 40.4964C37.4342 40.0507 38.2296 39.4709 38.9203 38.7762C39.1537 38.5462 39.368 38.2922 39.6062 38.0239C39.5967 38.0622 39.5824 38.1005 39.5633 38.1341C38.9917 39.0732 38.3011 39.9405 37.5056 40.7024C36.5292 41.6703 35.3622 42.4274 34.0856 42.9257C33.9332 42.9784 33.776 43.0168 33.6283 43.0695C33.5521 43.1078 33.4759 43.1509 33.4045 43.1989C33.4902 43.2132 33.5759 43.2132 33.6569 43.1989C33.9094 43.1414 34.1571 43.0647 34.4095 42.9928L34.5381 42.9497V42.9976L33.6426 43.4193C32.3994 43.9703 31.0848 44.3345 29.7415 44.5022C29.5653 44.5022 29.3843 44.5597 29.2081 44.6076C29.1223 44.622 29.0509 44.6699 28.9985 44.737C28.9508 44.8328 28.9127 44.9334 28.8889 45.0389C28.9747 45.0628 29.0699 45.0772 29.1604 45.082C29.8463 45.0005 30.5322 44.9239 31.2134 44.8089C31.6183 44.7418 32.0184 44.6268 32.4375 44.5597C32.3375 44.5932 32.2422 44.6412 32.1422 44.6699C31.0895 44.9526 30.0416 45.2593 28.9794 45.5132C28.1316 45.6953 27.2694 45.7816 26.412 45.887C25.145 45.9589 23.8732 45.7912 22.6681 45.3887C19.029 44.4878 15.7186 42.5759 13.1083 39.8639C11.4221 38.067 10.1694 35.9012 9.45014 33.5341C8.84521 31.6845 8.588 29.7391 8.68802 27.7984C8.73089 26.8257 8.87855 25.8626 9.13101 24.9234C9.14053 24.842 9.15959 24.842 9.17387 24.7749L9.16911 24.7797Z" fill="url(#paint0_linear_597_3591)"/>
<path fill-rule="evenodd" clip-rule="evenodd" d="M40.2492 15.9008C40.2492 16.2314 40.2015 16.5572 40.1587 16.8878C39.9491 18.9578 39.3394 20.9703 38.3534 22.8008C37.3579 24.4874 36.0718 25.9776 34.5571 27.2043C33.0186 28.522 31.2705 29.5714 29.389 30.3141C28.1124 30.8076 26.793 31.1766 25.445 31.421C23.5826 31.7612 21.6868 31.881 19.7958 31.7803C18.2811 31.7612 16.7807 31.4641 15.3755 30.8987C14.0133 30.3524 12.851 29.3845 12.0651 28.1387C10.8648 26.2268 11.2935 23.7064 13.0654 22.3072C13.9561 21.6076 15.0516 21.2195 16.1805 21.2147C15.9043 21.2914 15.6709 21.3441 15.4375 21.4351C15.1993 21.531 14.9707 21.6364 14.742 21.761C13.8894 22.2689 13.5417 23.3326 13.9323 24.2526C14.1181 24.6599 14.4324 24.9953 14.8278 25.2062C15.5137 25.5703 16.2758 25.7764 17.0474 25.7955C18.7908 25.853 20.5246 25.4937 22.1012 24.7414C24.0685 23.9316 25.8166 22.6666 27.2027 21.0518C28.222 19.8108 28.9365 18.3493 29.289 16.7824C30.3226 12.7574 29.5795 8.47846 27.2551 5.04284C25.6975 2.60388 23.1539 0.979503 20.296 0.59617C19.5434 0.495545 18.7813 0.438045 18.0191 0.42367L18.243 0.356587L18.4764 0.299087C19.9054 -0.00757992 21.3725 -0.0794549 22.8205 0.0882534C24.5495 0.236795 26.231 0.749503 27.7457 1.59763C28.5792 2.05763 29.3366 2.63742 29.9987 3.31784C30.4179 3.74909 30.7656 4.24263 31.0275 4.78409C31.0466 4.82721 31.0847 4.86075 31.1323 4.87513C31.1371 4.78888 31.1371 4.70742 31.1323 4.62117C30.8704 3.7443 30.3607 2.96325 29.6605 2.37388C28.6459 1.46825 27.4408 0.807003 26.1357 0.433253L25.8023 0.303878L25.7499 0.270337C27.236 0.438045 28.6459 1.01305 29.8272 1.93305L29.8701 1.88513C29.8082 1.80846 29.7462 1.73659 29.6748 1.66471C29.2175 1.28617 28.7126 0.974712 28.1696 0.73992L27.9743 0.648878C27.9743 0.648878 27.9743 0.615337 27.9743 0.600962C28.3077 0.735128 28.6555 0.859712 28.9936 1.00825C30.8704 1.88034 32.4518 3.29388 33.5378 5.0668C34.2427 6.10659 34.8191 7.22305 35.2621 8.4018C35.3907 8.66055 35.5574 8.89534 35.7574 9.10138C35.8003 9.1445 35.8861 9.1493 35.9527 9.17325C35.9766 9.10138 35.9861 9.0295 35.9813 8.95284C35.7289 7.9993 35.3764 7.0793 34.9286 6.20242C34.1237 4.59242 32.9757 3.17888 31.5706 2.06242C31.4181 1.9618 31.2752 1.8468 31.1466 1.71742L31.3229 1.79888C33.2567 2.79075 34.8477 4.34325 35.8956 6.25034C36.329 7.05534 36.7434 7.86513 37.1674 8.67013L37.296 8.89055H37.3674C37.3674 8.79471 37.4008 8.70367 37.4246 8.58867C37.4674 8.66055 37.5151 8.73242 37.5675 8.79471C37.6246 8.82346 37.6818 8.84742 37.7437 8.8618C37.7675 8.80909 37.7771 8.75159 37.7866 8.69409C37.7723 8.60305 37.7485 8.512 37.7151 8.42096C37.2007 6.87805 36.4576 5.42138 35.5145 4.09888C35.4431 3.99346 35.3811 3.88805 35.3145 3.77784L35.3621 3.73471C35.6098 3.94555 35.8622 4.15638 36.0909 4.38159C36.9959 5.292 37.7532 6.33659 38.3344 7.4818C39.1632 9.13492 39.7157 10.9174 39.9634 12.7574C40.0729 13.4666 40.111 14.1949 40.1825 14.9089C40.1825 14.9855 40.1825 15.0574 40.2158 15.1293L40.2397 15.896L40.2492 15.9008Z" fill="url(#paint1_linear_597_3591)"/>
<path fill-rule="evenodd" clip-rule="evenodd" d="M36.8712 7.10333C36.9045 7.16083 36.9426 7.22312 36.9807 7.28062C37.0236 7.33812 37.0998 7.45792 37.1617 7.53937C37.1951 7.58729 37.2284 7.63521 37.257 7.68792C37.3285 7.89875 37.3904 8.09521 37.4523 8.27729C37.4618 8.33 37.4618 8.38271 37.4523 8.43542C37.3999 8.43542 37.3285 8.39229 37.3094 8.35875C37.1379 7.98979 36.9807 7.62083 36.8236 7.25187C36.814 7.19917 36.814 7.14646 36.8236 7.09375H36.8712V7.10333Z" fill="#E60013"/>
<path fill-rule="evenodd" clip-rule="evenodd" d="M25.6399 45.9493C20.8243 46.2512 16.0134 45.2929 11.6741 43.175C9.68308 42.2023 7.84924 40.9277 6.2345 39.4039C5.02464 38.2779 3.99578 36.9746 3.1765 35.5371C2.63825 34.6075 2.21909 33.6156 1.92853 32.5806C1.75705 31.996 1.61892 31.4066 1.50936 30.8077C1.37123 29.8829 1.31884 28.9485 1.34265 28.0141C1.37599 26.8114 1.57129 25.6135 1.92853 24.4683C2.39533 23.026 3.10981 21.6796 4.03388 20.4816C5.4438 18.6991 7.1157 17.1371 8.98765 15.8577C9.60211 15.4552 9.95935 14.7508 9.91648 14.0129C9.89267 13.2318 9.53066 12.5035 8.93049 12.0148C7.854 11.0612 6.5584 10.3904 5.16277 10.0646C4.6531 9.87768 4.08151 9.96393 3.65282 10.2946C3.36226 10.5581 3.20508 10.9414 3.21937 11.3343C3.07647 11.1571 2.96215 11.0277 2.8526 10.8839C2.22861 10.0741 1.76182 9.15414 1.47602 8.17185C1.4141 7.96581 1.36647 7.75497 1.32836 7.54414C1.25215 7.26622 1.33789 6.96435 1.55223 6.76789C1.76658 6.57143 2.06666 6.51393 2.33817 6.61456C3.36226 6.83977 4.34826 7.20393 5.27709 7.69747C6.02968 8.08081 6.76322 8.49768 7.51105 8.88102L7.64442 8.9481L7.69205 8.90497C7.66347 8.84268 7.62536 8.78518 7.58726 8.73247C6.91088 8.10477 6.16781 7.55852 5.36759 7.1081C4.83887 6.80143 4.29586 6.5331 3.7338 6.29831C3.26224 6.12102 2.77162 5.99643 2.27148 5.92456C1.86661 5.85268 1.78563 5.92456 1.6856 6.35102C1.33789 6.02997 1.0378 5.65143 0.804406 5.23935C0.41382 4.59247 0.161368 3.87372 0.056577 3.12143C-0.0196348 2.67581 -0.0196348 2.2206 0.0613402 1.77977C0.104209 1.57852 0.23758 1.4156 0.418583 1.32935C0.604349 1.2431 0.813932 1.24789 0.994935 1.34372C1.05686 1.36768 1.11402 1.40122 1.17117 1.43956C1.66655 1.79893 2.20956 2.08164 2.78591 2.28289C4.40065 3.03039 5.9487 3.91685 7.41102 4.93747C7.51105 4.99497 7.61584 5.04289 7.72063 5.08122C7.73968 4.95664 7.73968 4.82727 7.72063 4.70268C7.64918 4.40081 7.64918 4.08456 7.72063 3.77789C7.77779 3.5431 7.93021 3.34185 8.14456 3.22685C8.3589 3.11185 8.60659 3.09747 8.83523 3.18372C9.51161 3.41852 10.1213 3.82581 10.5976 4.36727C11.8218 5.56039 13.165 6.62893 14.6083 7.55372C15.78 8.35393 17.0328 9.02477 18.3474 9.56622C19.1905 9.93039 20.0765 10.1843 20.9863 10.3185C21.5721 10.3904 22.1628 10.4527 22.7486 10.4718C23.2774 10.5006 23.8108 10.4048 24.2967 10.1891C24.4063 10.1412 24.4539 10.1891 24.5015 10.2658C24.6539 10.5246 24.5873 10.8504 24.3539 11.0325C23.8156 11.526 23.163 11.8806 22.4533 12.0483C21.6483 12.2831 20.8005 12.3598 19.9669 12.2735C19.1572 12.1825 18.3569 12.0148 17.5567 11.8662C17.3043 11.8231 17.0709 11.7225 16.8232 11.6602C16.747 11.6506 16.666 11.6506 16.5898 11.6602C16.6422 11.7608 16.6708 11.8279 16.7089 11.8854C17.3043 12.8341 17.5377 13.9698 17.3662 15.0766C17.1947 16.0302 16.6565 16.8783 15.8658 17.4293C14.8369 18.22 13.8033 19.0106 12.7935 19.8252C11.6265 20.7308 10.6453 21.8568 9.90696 23.141C9.50208 23.9268 9.22581 24.7702 9.08292 25.6423C8.84952 26.8977 8.7733 28.1771 8.85428 29.4516C8.97336 31.4785 9.45445 33.4671 10.2785 35.3166C10.8167 36.62 11.536 37.8418 12.4124 38.9487C13.8795 40.6737 15.6514 42.1208 17.6329 43.2133C19.7097 44.3777 21.958 45.2066 24.2872 45.681L25.6399 45.9493Z" fill="#E60013"/>
<path d="M61.8545 17.276H52.8996V6.27438C52.8996 6.27438 52.8996 5.25854 53.5284 5.25854H49.4701V18.7471C49.4796 19.1783 49.1938 19.5569 48.7842 19.6623H61.2639V18.2631C61.2639 18.2631 61.221 17.4485 61.8497 17.276H61.8545Z" fill="#E60013"/>
<path d="M68.8857 5.25854H73.063C73.063 5.25854 72.4057 5.32563 72.4057 6.26959V14.861C72.4962 17.0796 71.0243 19.0585 68.8809 19.5904C68.8809 19.5904 64.1176 20.6685 62.7744 18.1721C62.7744 18.1721 66.3373 19.0777 67.7901 17.3815C68.3617 16.7585 68.7285 15.9727 68.838 15.1294L68.8904 5.25854H68.8857Z" fill="#E60013"/>
<path fill-rule="evenodd" clip-rule="evenodd" d="M93.5347 19.6815L87.9284 5.25854H84.9657L78.7354 19.6815H81.0884L82.2649 16.725H88.8382L90.0147 19.6815H93.5395H93.5347ZM83.2319 14.1998L85.6182 8.05688L85.8802 8.0473L87.9332 14.2046H83.2319V14.1998Z" fill="#E60013"/>
<path d="M95.2979 19.6815H99.4847V6.19292C99.4847 6.19292 99.4371 5.36396 100.18 5.25854H95.9647V18.7663C96.0266 19.2023 95.7313 19.6096 95.3026 19.6815H95.2979Z" fill="#E60013"/>
<path d="M103.723 5.25838H110.582C110.582 5.25838 115.646 5.10504 115.531 9.02463C115.531 9.02463 115.874 12.5178 110.611 12.604L112.488 15.7042C112.488 15.7042 114.841 19.4848 118.837 18.2486C118.837 18.2486 119.709 19.6861 117.075 19.6861C114.436 19.7436 111.916 18.5984 110.216 16.5715L109.858 16.0684L107.115 11.4732H109.93C110.482 11.4636 111.006 11.2288 111.383 10.8167C111.754 10.4094 111.945 9.86317 111.907 9.30733C111.907 9.30733 112.035 7.70692 109.944 7.57275H106.457V19.6813H102.971C102.971 19.6813 103.723 19.6334 103.723 18.9578V5.25838Z" fill="#E60013"/>
<path d="M48.9943 27.9613V26.3944H53.0193V24.1951H55.4247V26.3944H59.5925V24.5497H61.6455V26.3944H64.9655V27.9613H59.1686V33.2178C60.5023 32.4176 61.5883 31.2628 62.3076 29.878H64.4987C63.5365 32.3074 61.6264 34.2336 59.2067 35.2015V37.4776C59.1591 38.3784 59.5592 38.8001 60.3832 38.7569H61.8646C62.5696 38.7569 62.8982 38.4263 62.8506 37.7651V36.9217H64.6559V37.9903C64.7035 39.5044 63.8985 40.2376 62.2504 40.1897H59.4925C57.7301 40.2855 56.8537 39.4565 56.9537 37.7076V35.858C56.3678 36.0017 55.701 36.1167 55.0437 36.2126V34.7224C55.701 34.5786 56.3393 34.4157 56.9537 34.2192V27.9709H55.3485C55.3009 33.6538 53.1336 37.8705 48.8467 40.6209V38.9199C51.5903 36.2174 52.9812 32.5661 53.0145 27.9757H48.9896L48.9943 27.9613Z" fill="#010100"/>
<path fill-rule="evenodd" clip-rule="evenodd" d="M67.2273 24.5544C67.8465 25.6709 68.3181 26.864 68.6372 28.1003H70.8283C70.5092 26.8592 70.0329 25.6661 69.4136 24.5544H67.2273ZM69.0612 33.3567C68.7658 35.7622 68.0514 38.0957 66.9463 40.2519H69.3612C70.3091 38.0717 70.8569 35.7334 70.9712 33.3567H69.0612ZM68.7754 32.5326C68.4419 31.2772 67.9656 30.0601 67.3654 28.9053H69.4803C70.1186 30.0505 70.6187 31.2676 70.9712 32.5326H68.7754ZM72.1668 25.6134V27.209L76.1012 27.1755V38.0574H71.3999V39.4757H83.1985V38.0574H78.5352V27.1755H82.5554V25.6134H72.1668Z" fill="#010100"/>
<path fill-rule="evenodd" clip-rule="evenodd" d="M84.823 31.4401V32.8584H85.7328V34.9955C85.7804 36.9361 85.4756 38.3353 84.8135 39.1882V40.6736C86.6997 39.5428 87.5714 37.5303 87.4285 34.6361V32.8632H89.7815V38.2682C89.8292 38.7905 89.591 39.0253 89.0766 38.9774H88.4431V40.3957H89.572C90.939 40.4436 91.6011 39.8063 91.5535 38.479V25.6134H89.2004C89.4005 25.1534 89.5672 24.679 89.6958 24.1951H87.7191C87.5762 24.7174 87.438 25.1869 87.2904 25.6134H85.7375V31.4449H84.8182L84.823 31.4401ZM87.438 31.4257V26.9503L89.7911 26.9694V31.4305H87.438V31.4257ZM88.2144 36.6822C88.1668 35.7334 87.9715 34.7942 87.6286 33.9078H88.8051C89.129 34.8038 89.3433 35.7334 89.4386 36.6822H88.2144ZM87.7191 27.9422C87.9953 28.7951 88.1573 29.6767 88.2144 30.5728H89.4862C89.3481 29.6815 89.1337 28.7999 88.8527 27.9422H87.7238H87.7191ZM91.8202 40.6592V39.0349C92.7586 37.9951 93.1825 35.9107 93.092 32.7769V29.4467H99.0984V38.1915C99.0651 38.3544 99.1175 38.5269 99.2366 38.6467C99.3556 38.7665 99.5224 38.8192 99.6891 38.7857C100.118 38.8336 100.304 38.618 100.275 38.1484V37.4392H101.451V38.4311C101.499 39.5667 100.908 40.1082 99.6891 40.0651H98.9127C97.6885 40.113 97.0741 39.5188 97.0741 38.2922V30.9465H95.1688V32.7913C95.3402 36.6774 94.2256 39.308 91.825 40.6784V40.6592H91.8202ZM92.1012 25.8961V27.3767H100.742V25.8865H97.4932V24.2526H95.1402V25.8961H92.1012Z" fill="#010100"/>
<path fill-rule="evenodd" clip-rule="evenodd" d="M103.381 28.6706V25.5416H109.811V24.2527H112.426V25.5321H118.857V28.661H116.666V27.0366H105.496V28.6754H103.381V28.6706ZM103.195 31.3491V32.5806C106.73 32.0631 109.135 30.5873 110.407 28.1531H107.863C106.92 29.6721 105.363 30.7358 103.195 31.3539V31.3491ZM105.22 32.6477V34.2098H109.921V38.4073H103.338V39.8256H118.881V38.4073H112.307V34.2098H116.975V32.6477H105.22ZM111.793 28.1723C113.07 30.5873 115.475 32.0583 119 32.5758V31.3683C116.737 30.7502 115.184 29.6816 114.337 28.1675H111.793V28.1723Z" fill="#010100"/>
<defs>
<linearGradient id="paint0_linear_597_3591" x1="8.66421" y1="35.3405" x2="44.4552" y2="35.3405" gradientUnits="userSpaceOnUse">
<stop offset="0.08" stop-color="#831B20"/>
<stop offset="0.09" stop-color="#861A20"/>
<stop offset="0.16" stop-color="#A8111B"/>
<stop offset="0.23" stop-color="#C30918"/>
<stop offset="0.31" stop-color="#D70415"/>
<stop offset="0.39" stop-color="#E20114"/>
<stop offset="0.47" stop-color="#E60013"/>
<stop offset="0.54" stop-color="#E92915"/>
<stop offset="0.66" stop-color="#ED6217"/>
<stop offset="0.77" stop-color="#F09019"/>
<stop offset="0.87" stop-color="#F2B01B"/>
<stop offset="0.95" stop-color="#F4C41C"/>
<stop offset="1" stop-color="#F4CB1C"/>
</linearGradient>
<linearGradient id="paint1_linear_597_3591" x1="15.1088" y1="30.6303" x2="34.248" y2="3.1945" gradientUnits="userSpaceOnUse">
<stop stop-color="#831B20"/>
<stop offset="0.02" stop-color="#871A1F"/>
<stop offset="0.21" stop-color="#A9111B"/>
<stop offset="0.4" stop-color="#C40917"/>
<stop offset="0.59" stop-color="#D70415"/>
<stop offset="0.79" stop-color="#E20113"/>
<stop offset="1" stop-color="#E60013"/>
</linearGradient>
</defs>
</svg>
