<svg width="48" height="46" viewBox="0 0 48 46" fill="none" xmlns="http://www.w3.org/2000/svg">
<g clip-path="url(#clip0_583_2134)">
<path fill-rule="evenodd" clip-rule="evenodd" d="M8.30723 8.2217C9.30398 8.67157 13.6467 9.68914 18.4338 8.34105C19.7833 7.95392 20.8401 7.77183 22.0726 8.01207C23.5692 8.28138 24.686 9.38769 24.2147 11.1229C23.9219 12.3195 22.4839 13.2774 21.31 13.6951C19.4321 14.3822 16.9657 14.7433 14.9392 15.4609C7.36752 18.0959 2.672 25.8432 5.34101 34.5208C3.05029 31.0794 2.37478 25.8141 3.69877 21.8938C4.95972 18.2137 7.01476 16.5979 8.1301 15.5206C9.27395 14.3837 8.62697 13.816 7.27896 14.324C6.19214 14.7433 5.10533 15.9384 4.16712 17.1671C2.96322 18.7829 2.11208 20.128 0 20.6084C2.52339 18.8426 2.64348 15.4609 5.28396 13.0968C7.30748 11.3019 9.39404 11.152 11.1834 11.4213C12.5029 11.6018 13.7068 11.9905 15.1178 12.1099C16.3217 12.1986 18.8451 12.0808 18.8737 10.9133C18.8737 10.1665 17.8454 10.315 17.377 10.3747C15.7333 10.6746 14.1781 10.644 12.5029 10.2844C9.56968 9.6264 8.30723 8.1911 8.30723 8.22017" fill="#E40D17"/>
<path fill-rule="evenodd" clip-rule="evenodd" d="M19.7536 24.5899C22.1013 24.0513 25.7716 24.469 24.8904 27.7008C29.7916 20.5503 25.4488 15.9414 19.635 16.2428C11.2422 16.6912 6.19238 23.1837 6.19238 29.5568C6.2209 36.4686 10.948 41.7339 16.8474 44.1868C21.3087 46.0429 27.2667 46.4606 31.698 45.5043C28.3235 45.3253 24.0978 44.6964 20.5431 43.0208C16.8759 41.3162 13.7355 37.9651 13.1171 34.2254C12.3845 30.0343 14.7023 25.788 19.7506 24.5899" fill="#E40D17"/>
<path fill-rule="evenodd" clip-rule="evenodd" d="M43.3525 0.264768C45.0833 1.0421 44.8491 3.19658 43.8223 4.45285C41.5046 7.20562 38.0415 8.79088 34.7525 9.60034C32.6405 10.1084 30.8196 10.9775 29.8514 12.5918C29.0888 13.8787 29.5001 15.8832 31.1438 16.48C33.346 17.2879 36.3092 16.0607 38.2757 17.3185C39.361 18.0362 39.4195 19.3827 38.8626 20.3697C38.2757 21.4469 37.2189 21.9871 36.0165 22.2258C36.8391 21.7453 37.3975 20.6987 36.9862 20.0713C36.6049 19.5021 35.6667 18.6941 33.7558 19.0537C31.965 19.3827 30 19.5021 28.2992 18.7538C25.7443 17.6781 24.3648 14.9865 25.6557 11.9629C26.5654 9.77937 29.2389 8.40222 32.3477 8.01355C36.7806 7.44433 40.0665 4.96086 41.5647 2.11934C41.8574 1.52104 41.9444 0.264768 40.8591 0.384122C40.8591 0.384122 41.8859 -0.393205 43.354 0.264768" fill="#E40D17"/>
<path fill-rule="evenodd" clip-rule="evenodd" d="M25.6527 6.27831C24.713 6.48642 24.3332 5.47038 24.3332 5.47038C24.099 6.21711 24.3602 7.2056 25.1843 7.74422C26.4167 8.52154 28.2076 8.25223 29.4986 7.11532C30.6739 6.03808 31.0837 3.73517 29.8498 2.24019C28.8516 1.01299 26.8265 0.385623 23.9204 1.61129C21.7497 2.5095 20.0159 3.76577 17.3454 4.63338C13.4425 5.88965 8.21709 6.27831 4.54834 4.84148C9.48104 8.76178 17.6096 7.62639 22.9807 4.96237C24.4187 4.24471 25.5356 3.67702 26.2696 4.45435C26.6809 4.87362 26.6509 6.03808 25.6527 6.27984" fill="#E40D17"/>
<path fill-rule="evenodd" clip-rule="evenodd" d="M41.239 14.0271C42.2957 13.2804 42.5584 12.0853 42.0015 11.0662C41.4446 9.98897 39.6823 9.71966 38.8912 10.6775C38.2457 11.4839 38.8612 12.2322 38.8612 12.2322C38.6855 11.3646 39.8594 10.8566 40.2992 11.5452C40.652 12.1128 40.3293 12.6224 39.918 12.8305C39.4766 13.0692 38.8912 12.9805 38.3928 12.8626C35.6638 11.9935 33.313 12.1725 31.1709 13.9399C34.6055 12.1434 37.306 13.9077 40.035 15.6751C42.1471 17.0522 44.4378 18.2167 46.58 16.6314C48.0481 15.5542 48.5765 13.1319 47.1969 11.5758C46.7571 11.0677 46.0816 10.7388 45.3761 10.6485C45.4646 10.3486 45.4646 10.0502 45.3761 9.80994C45.1404 9.12289 44.4964 8.55367 43.7023 8.70362C42.5569 8.94233 42.1186 10.0502 42.7341 10.829C42.7626 10.8887 42.4699 10.4404 42.7941 10.0808C43.0568 9.80994 43.4381 9.80994 43.6738 10.0196C43.908 10.2583 43.938 10.5888 43.6738 10.9178L43.4096 11.2468C43.2039 11.4564 43.0568 11.6951 42.9397 12.0241C42.674 12.832 43.2039 13.4609 43.8194 13.5787C43.6137 13.2207 43.6137 12.832 43.908 12.4724C44.3478 11.9338 45.1119 12.1434 45.4931 12.5627C46.0516 13.2207 45.5817 14.2979 44.9347 14.7157C44.3193 15.0753 43.3781 15.1043 42.027 14.4173C41.7343 14.2673 41.4701 14.148 41.2359 14.0271" fill="#E40D17"/>
</g>
<defs>
<clipPath id="clip0_583_2134">
<rect width="48" height="46" fill="white"/>
</clipPath>
</defs>
</svg>
