<svg width="82" height="46" viewBox="0 0 82 46" fill="none" xmlns="http://www.w3.org/2000/svg">
<g clip-path="url(#clip0_583_2479)">
<path fill-rule="evenodd" clip-rule="evenodd" d="M20.5604 43.9145C20.8953 43.8305 21.2498 43.786 21.6832 43.8256C22.1067 43.8651 22.5696 43.8947 22.9488 44.1072C23.2542 44.2802 23.4905 44.6262 23.8648 44.6607C24.1357 44.6855 24.3819 44.5125 24.5838 44.3494C24.7956 44.1764 24.963 43.9491 25.2339 43.87C25.5934 43.7613 25.9233 43.7168 26.204 43.4401C26.465 43.1782 26.7014 42.8273 26.8442 42.4863C26.9082 42.3331 26.8885 42.081 26.9624 41.8982C27.0412 41.7005 27.2677 41.6066 27.3317 41.3842C27.4007 41.1519 27.3317 40.5885 27.3859 40.292C27.6568 38.5821 27.4893 36.6448 27.4056 34.9201C27.3761 34.248 27.77 33.6599 27.8735 33.0125C27.9227 32.6863 27.8882 32.3651 27.7306 32.0785C27.5435 31.7375 27.706 31.5645 27.7848 31.2235C27.839 30.9962 27.8636 30.7589 27.8833 30.5267C27.9227 30.0127 27.903 29.4987 27.9079 28.9848C27.9129 28.5054 27.9129 27.9766 28.0704 27.5219C28.164 27.2501 28.1443 26.9981 28.0901 26.7411C28.0507 26.5434 27.9916 26.3408 27.9572 26.1234C27.8636 25.5254 28.1492 24.9768 28.0113 24.364C27.8587 23.6771 27.0018 22.6047 26.5389 22.0808C25.8593 21.3099 25.4604 21.216 26.2828 20.2473C26.6325 19.8322 26.9033 19.3281 27.2776 18.8488C27.509 18.5473 27.5731 18.7104 27.6223 18.3694C27.6469 18.1915 27.3613 18.1322 27.3416 17.979C27.317 17.7319 27.6371 17.6923 27.6715 17.4798C27.7602 16.9411 27.4647 16.4519 27.3859 15.928C27.2776 15.2115 27.248 14.4949 27.3022 13.7733C27.3465 13.1951 27.5386 12.5873 27.5435 12.014C27.5534 11.4308 27.317 10.8427 27.1742 10.2744C26.9378 9.32061 26.7556 8.43105 26.9427 7.46242C27.6568 3.76581 25.0172 1.97682 21.5355 2.0806C20.654 2.10531 19.7971 1.83844 18.9156 1.83844C18.0833 1.83844 17.2757 2.07071 16.4532 2.15473C16.0691 2.19426 16.1282 1.91257 15.8426 1.88292C14.8035 2.1992 13.2325 1.22563 12.548 2.06083L9.44057 2.27828L7.51997 2.50561C6.68278 2.13002 4.99856 2.11025 4.00871 2.77247C3.37835 3.19749 3.21584 3.63238 3.24539 4.36379C3.27001 4.92718 3.53594 4.65043 3.09272 4.95683C2.85634 5.11992 2.28016 4.74433 2.34418 5.46586C2.37373 5.80685 2.69383 5.96994 3.01393 5.92052C2.61011 5.98477 2.13242 7.36358 2.07333 7.69963C1.93051 8.52495 2.48207 8.8956 2.54609 9.64678C2.56086 9.80492 2.33433 10.0174 2.30478 10.2695C2.24076 10.734 2.50177 11.2826 2.42297 11.6087C2.26539 12.2907 2.01423 12.4192 2.44267 12.9628C2.69875 13.289 3.15182 13.0567 2.85634 13.6844C2.65443 14.1242 2.32941 13.9216 2.25554 14.48C2.20137 14.8606 2.47715 15.5376 2.53624 15.9231C2.63966 16.61 2.73323 17.3069 2.80217 17.9987C2.90559 19.0267 2.88589 19.511 2.60026 20.4944C2.3885 21.2209 2.62981 22.239 2.65443 22.9901C2.6889 24.107 2.84649 25.2239 2.76277 26.3408C2.67906 27.433 2.32941 28.451 2.30971 29.558C2.29001 30.4476 2.3688 31.3322 2.45252 32.2168C2.45745 32.2712 2.45252 32.3404 2.47222 32.3947C2.56579 32.7407 2.34418 33.0323 2.29986 33.3535C2.28016 33.5017 2.28508 33.6747 2.32448 33.818C2.37865 34.0108 2.48207 34.1887 2.52639 34.3814C2.56579 34.5544 2.55594 34.7224 2.59534 34.8954C2.6889 35.3056 2.73323 35.7355 2.77262 36.1506C2.84649 36.9068 2.87112 37.6827 3.06318 38.424C3.26509 39.1999 3.79202 39.6249 3.69353 40.4502C3.59011 41.2903 3.13212 42.0711 3.16659 42.936C3.22076 44.2308 5.18569 44.2654 6.1066 44.3692C7.35253 44.5075 8.60338 44.552 9.85424 44.5916C11.5089 44.6459 13.1439 44.7794 14.7936 44.8733C15.3994 44.9078 15.488 44.7645 16.0051 44.5125C16.9605 44.0381 18.034 44.557 19.1125 44.3296C19.669 44.211 20.0975 44.0282 20.5555 43.9145" fill="#C22628"/>
<path fill-rule="evenodd" clip-rule="evenodd" d="M27.1991 19.7828C27.012 20.1831 27.1499 21.5965 27.5291 21.8881C28.1447 21.6608 27.7901 19.8372 27.1991 19.7828Z" fill="#C22628"/>
<path fill-rule="evenodd" clip-rule="evenodd" d="M0.723783 15.4338C0.723783 15.4338 0.748406 14.1193 0.748406 14.0402C0.758255 13.4571 0.768104 12.869 0.777954 12.2809C0.797652 11.1294 0.812426 9.9779 0.822275 8.82642C0.768104 8.84618 0.718858 8.86595 0.664687 8.87584C0.576044 9.4244 0.452928 9.96307 0.246094 10.4672C0.339662 11.5396 0.403682 12.612 0.448004 13.6844C0.452928 13.8623 0.329812 15.5277 0.718858 15.4338" fill="#C22628"/>
<path fill-rule="evenodd" clip-rule="evenodd" d="M0.655033 7.1709C1.18197 7.58603 0.384179 5.93046 1.01453 5.83162C0.423576 3.78564 1.46267 3.51383 2.56086 2.43153C3.1272 1.87309 3.35373 1.35912 3.91021 1.0626C3.91021 1.02307 3.91021 0.988475 3.91021 0.948939C3.87082 0.909403 3.84127 0.864925 3.81172 0.815505C3.50639 0.780911 3.19614 0.756202 2.91544 0.850099C2.3688 1.03295 2.21122 1.51727 1.60549 2.18444C0.669807 3.22225 0.315234 3.44464 0.295535 5.58946C0.290611 6.15779 0.137947 6.99793 0.650109 7.1709" fill="#C22628"/>
<path fill-rule="evenodd" clip-rule="evenodd" d="M11.1198 0.850081C13.6658 0.682053 16.1774 0.345998 18.7333 0.365766C18.684 0.30152 18.6348 0.232332 18.5904 0.168087C18.2309 0.128551 17.8764 0.074189 17.5415 -0.00488281H10.5239C9.22872 0.00994314 7.88922 0.281752 6.59404 0.518968C6.59404 0.598039 6.57927 0.677111 6.55957 0.751241C8.01726 0.780893 9.59314 0.94892 11.1149 0.845139" fill="#C22628"/>
<path fill-rule="evenodd" clip-rule="evenodd" d="M5.05274 45.7036C5.05274 45.7036 5.04782 45.7036 5.04289 45.7036C5.04289 45.6937 5.04289 45.6888 5.04289 45.6789C5.01335 45.669 4.97887 45.6591 4.94933 45.6492C3.87083 45.0166 2.63967 44.5323 1.76802 43.6823C1.72369 43.5835 1.6843 43.4846 1.6449 43.3858C1.39374 42.6989 1.18691 41.9823 1.03425 41.2706C0.989924 41.0631 1.00962 40.0598 0.600878 40.4848C0.438365 40.6529 0.438365 41.1273 0.477762 41.3398C0.610727 42.1058 0.896356 42.7236 1.16721 43.4352C1.22631 43.5934 1.29525 43.7515 1.37897 43.9047C1.58088 44.1419 1.79264 44.3692 2.03887 44.5867C2.47224 45.0117 2.97455 45.3379 3.52611 45.5257C3.85606 45.7283 4.18108 45.8815 4.47164 45.9606C4.67355 46.0347 4.83606 46.0248 4.95425 45.9359C5.0035 45.9902 5.0035 45.9704 4.9641 45.8716C5.0232 45.8766 5.04782 45.8222 5.03797 45.7085H5.04782L5.05274 45.7036Z" fill="#C22628"/>
<path fill-rule="evenodd" clip-rule="evenodd" d="M29.6714 15.9577C29.6172 15.7304 29.5039 15.513 29.43 15.2856C29.2971 14.8705 29.2232 14.4356 29.1789 14.0007C29.1641 13.4917 29.1493 12.9876 29.1346 12.4835C29.1444 12.0041 29.174 11.5149 29.2035 11.0355C29.2922 9.55786 29.3759 8.04067 28.9573 6.73599C28.9573 6.61244 28.9671 6.48889 28.9721 6.35546C29.1099 6.06882 29.1198 5.65864 29.1247 5.25339C29.1346 4.96182 29.1395 4.66036 29.1937 4.42314V4.39843C29.1198 4.06732 29.041 3.74115 28.9277 3.41992C28.8145 3.10363 28.6421 2.94055 28.4057 2.70827C28.1447 2.45129 27.9231 2.14489 27.6523 1.89285C27.1696 1.44312 26.6082 0.948926 25.9779 0.726537C25.1653 0.439901 24.2937 0.350946 23.4417 0.31141C22.9591 0.2867 22.4814 0.281758 21.9988 0.276816C21.851 0.276816 21.4965 0.202686 21.4078 0.326236C21.1567 0.662291 22.0431 0.632639 22.1859 0.657349C22.6636 0.741363 23.1364 0.840202 23.6042 0.963752C24.3774 1.16637 25.1505 1.38876 25.8991 1.66551C26.2734 1.80389 26.6476 1.94721 26.9973 2.135C27.2632 2.27338 27.7114 2.48588 27.8492 2.75769C28.0216 3.08881 27.8197 3.33096 28.1349 3.62254C28.258 3.74115 28.3811 3.85481 28.4106 4.05249C28.3811 4.26006 28.2826 4.39843 28.1792 4.54175C28.1496 4.58128 28.1201 4.62082 28.0905 4.6653L28.0758 4.68507V4.70978C28.189 5.08537 28.1004 5.49061 28.2777 5.85632C28.3516 6.00458 28.4648 6.054 28.5436 6.18249C28.6569 6.3604 28.6224 6.71622 28.5978 6.92379C28.583 7.05228 28.5485 7.20548 28.4993 7.33397C28.4451 7.48223 28.3023 7.59095 28.2531 7.73427C28.0758 8.26801 28.6323 8.76221 28.652 9.27617C28.6717 9.80991 28.6963 10.3486 28.716 10.8823C28.6667 11.2283 28.5879 11.5643 28.5141 11.8954C28.3466 12.5972 28.194 13.2644 28.2974 14.0254C28.3466 14.3565 28.4599 14.6778 28.583 15.0089C28.6914 15.3054 28.7997 15.6118 28.8588 15.9281C29.0164 16.7485 28.6914 17.5589 28.7554 18.3645C28.8145 19.1404 28.9622 19.8323 28.9228 20.618C28.8834 21.4582 28.7898 22.3032 28.9327 23.1384C28.977 23.3954 29.0361 23.6771 29.2725 23.4251C29.5532 23.1236 29.435 22.2439 29.4202 21.8782C29.3808 20.6526 29.3316 19.427 29.2971 18.2014C29.3069 18.2014 29.3119 18.1965 29.3119 18.2014C29.3119 17.5491 29.632 16.9115 29.6911 16.2641C29.7009 16.1554 29.6911 16.0516 29.6664 15.9528" fill="#C22628"/>
<path fill-rule="evenodd" clip-rule="evenodd" d="M29.3067 33.2448C29.3067 33.2448 29.287 33.2448 29.2771 33.2399C29.3805 32.1922 29.3707 31.1445 29.3116 30.0968C29.2574 29.8497 29.2131 29.5828 29.1244 29.3456C29.0851 29.2319 29.0457 28.9898 28.9718 28.9058C28.9373 28.8662 28.9028 28.8465 28.8782 28.8415C28.7945 28.8267 28.7453 28.9552 28.7059 29.0491C28.5827 29.3555 28.4892 29.6718 28.4301 29.9979C28.2725 30.8924 28.3858 31.8018 28.4941 32.6963C28.5335 33.0175 28.568 33.3437 28.6024 33.6649C28.6024 36.3632 28.5286 39.1604 28.3464 41.918C28.4202 44.0134 25.9185 44.5274 24.4214 44.9277C24.2983 45.0562 22.3285 45.2044 20.1468 45.2489C20.1075 45.5059 20.1468 45.6492 20.2503 45.669C22.0478 45.7431 23.5596 45.7184 23.5596 45.669C23.5596 45.7283 24.515 45.6443 24.5987 45.6344C24.7612 45.6097 24.9139 45.58 25.0666 45.5158C25.2094 45.4565 25.3276 45.4565 25.4851 45.4565C25.6772 45.4565 25.7856 45.4466 25.9628 45.3823C26.145 45.3131 26.3223 45.2538 26.4947 45.155C26.6671 45.0611 26.8296 44.9474 26.9822 44.8239C27.125 44.7102 27.2285 44.5274 27.3713 44.4236C27.9228 44.0134 28.0016 43.7416 28.435 43.1584C29.5086 41.6956 29.4249 39.4075 29.3362 37.9051C29.4298 36.2891 29.415 34.7027 29.3116 33.2399" fill="#C22628"/>
<path fill-rule="evenodd" clip-rule="evenodd" d="M0.0100345 34.2579C-0.00966397 34.846 0.0100345 35.4439 0.0888286 36.0617C0.118376 36.289 0.236568 37.5196 0.596065 37.5443C0.916166 37.569 0.788126 36.5954 0.783201 36.4175C0.763503 35.3748 0.955563 34.332 1.24612 33.3337C1.32984 33.0471 1.31506 32.7555 1.37416 32.4738C1.43325 32.2069 1.62531 32.1476 1.70411 31.9104C1.77305 31.693 1.62039 31.4558 1.58592 31.2433C1.53667 30.9616 1.57607 30.7095 1.64994 30.4377C1.76813 29.9929 1.67948 29.6964 1.52682 29.2813C1.36923 28.8464 1.36431 28.4263 1.37908 27.9717C1.38401 27.6998 1.39386 27.428 1.35938 27.1562C1.31999 26.8844 1.19687 26.7065 1.08853 26.4644C0.857071 25.9652 1.08853 25.5946 1.20179 25.1251C1.24119 24.9669 1.28551 24.7149 1.123 24.6111C0.965413 24.5073 0.86692 24.6803 0.719181 24.5271C0.522196 24.3195 0.694558 23.7957 0.660086 23.5387C0.211944 23.7759 0.507422 24.5815 0.492648 24.9669C0.482799 25.2536 0.47295 25.5501 0.300588 25.7922C0.0543562 26.1283 0.167623 26.5978 0.20702 26.9783C0.256266 27.4775 0.330135 27.9717 0.394156 28.4708C0.359683 29.5679 0.33506 30.67 0.305512 31.7671C0.162698 32.627 0.0543562 33.4424 0.0248084 34.2628" fill="#C22628"/>
<path fill-rule="evenodd" clip-rule="evenodd" d="M16.6748 45.669C17.0195 45.8518 18.2458 45.7629 18.5117 45.4268C18.3295 44.8634 16.7437 45.1352 16.6748 45.669Z" fill="#C22628"/>
<path d="M15.8527 18.9278C16.1137 18.9179 16.3747 18.8833 16.6357 18.8734C17.0937 18.8537 17.5468 18.9624 18.0048 18.9921C18.4529 19.0168 18.8961 18.908 19.3443 18.9031C19.3492 19.1897 19.2802 19.4615 19.2655 19.7432C19.2507 19.9854 19.2753 20.2276 19.2852 20.4747C19.2999 20.9194 19.3344 21.3741 19.2901 21.8139C19.2655 22.061 19.2113 22.3378 19.359 22.5602C19.3443 22.5404 19.3295 22.5206 19.3196 22.5009C19.4674 22.7331 19.5708 22.8419 19.8515 22.9061C20.0879 22.9605 20.3341 22.9555 20.5754 22.9555C20.6542 22.9555 20.733 22.9555 20.802 22.9456C21.0236 22.9259 21.2402 22.8023 21.3338 22.5997C21.4569 22.3279 21.3781 22.0215 21.3535 21.7349C21.3338 21.5026 21.3683 21.2753 21.388 21.0479C21.4225 20.6921 21.3535 20.3412 21.319 19.9903C21.2846 19.6543 21.3535 19.2985 21.2846 18.9673C21.2747 18.9179 21.7179 18.908 22.0774 18.908C22.2941 18.908 22.4813 18.908 22.5207 18.913C22.826 18.9229 23.1165 18.8784 23.4219 18.8734C23.6336 18.8734 23.8454 18.8734 24.0571 18.8982C24.2147 18.9179 24.4856 19.0514 24.6333 19.0266C24.8402 18.997 25.0125 19.0415 25.3031 18.9624C25.5936 18.8784 25.766 18.5769 25.8103 18.3397C25.8596 18.0926 25.8694 17.8702 25.8152 17.5984C25.7857 17.465 25.7266 17.3167 25.6084 17.1882C25.3031 16.8621 24.6826 16.7632 24.1015 16.7731C23.6484 16.783 23.215 16.8917 22.7718 16.9708C22.6093 17.0004 22.4419 17.0054 22.2793 16.9955C22.0824 16.9856 21.6687 17.1141 21.5259 16.9312C21.4225 16.8028 21.4865 16.5606 21.4816 16.4074C21.4717 16.1208 21.4569 15.8391 21.4422 15.5574C21.4274 15.2905 21.4126 15.0236 21.4225 14.7568C21.4274 14.5047 22.038 14.569 22.2006 14.5937C22.4419 14.6233 22.6536 14.6678 22.9048 14.6728C23.5154 14.6826 24.1261 14.7123 24.7367 14.7172C25.0568 14.7172 25.3671 14.6777 25.5739 14.5146C25.8694 14.2823 25.9285 13.8919 25.8891 13.541C25.8596 13.3187 25.7955 13.0468 25.5591 12.8541C25.4065 12.7306 25.2292 12.7009 25.0716 12.7009C24.978 12.7009 24.8894 12.7059 24.8205 12.7108C24.5841 12.7207 24.3428 12.7207 24.1064 12.7207C23.87 12.7207 23.6287 12.7207 23.3923 12.7207C22.9048 12.7157 22.4222 12.7009 21.9346 12.691C21.8361 12.691 21.7376 12.7009 21.6391 12.696C21.5653 12.696 21.521 12.6465 21.4865 12.5872C21.2107 12.0683 21.4077 11.3715 21.4471 10.818C21.4471 10.8081 21.4471 10.7982 21.4471 10.7834C21.4569 10.5907 21.4471 10.5116 21.6539 10.4968C21.8017 10.4869 21.9494 10.5264 22.0922 10.5314C22.4763 10.5413 22.8605 10.5561 23.2446 10.5709C23.2938 10.5709 23.348 10.5709 23.3972 10.5759C23.5991 10.5857 23.7961 10.5956 23.9931 10.5956C24.1901 10.5956 24.3822 10.5857 24.5791 10.5462C24.9928 10.4622 25.5099 10.566 25.7463 10.136C26.0024 9.67147 26.0171 8.6386 25.3769 8.45574C25.3868 8.45574 25.3966 8.45574 25.4065 8.45574C25.0765 8.35196 24.8057 8.3569 24.5151 8.37667H24.5053C24.0818 8.41127 23.5351 8.49034 23.1756 8.20864C22.7767 7.8973 22.8457 7.22519 22.9688 6.79524C23.0574 6.47895 23.1855 6.17749 23.5056 6.04405C23.7912 5.92545 24.1359 5.93533 24.4363 5.9551C24.9386 5.98475 25.7118 6.13795 25.8645 5.47078C25.9334 5.15944 25.7906 4.76902 25.6626 4.48733C25.4804 4.10185 25.0962 3.99313 24.6973 3.98325C24.2492 3.96842 23.7567 4.0722 23.3972 4.12162C22.565 4.23529 21.7918 4.3539 21.3781 5.18415C21.1024 5.74259 21.0039 6.37023 20.9595 6.98797C20.9497 7.10164 20.9103 8.51999 20.9251 8.51505L19.5905 8.53482L19.6003 7.92695L19.62 7.21036C19.6299 6.83971 19.5708 6.4493 19.4969 6.08853C19.4034 5.63387 19.2852 5.11496 18.9503 4.77396C18.4628 4.27482 17.8226 4.0722 17.138 4.08209C16.6357 4.09197 16.1285 4.18093 15.6409 4.20564C15.0894 4.23035 14.8924 4.4132 14.8924 5.0013C14.8924 5.26816 14.9515 5.54986 15.2027 5.68329C15.4243 5.80684 15.705 5.80684 15.9512 5.82661C16.4584 5.87109 17.2415 5.73271 17.5812 6.21702C17.7782 6.50366 17.8078 6.87925 17.8176 7.21531C17.8324 7.60078 17.857 7.98625 17.862 8.37173C17.862 8.61389 17.8127 8.64354 17.5616 8.64354C17.3055 8.64354 17.0543 8.57435 16.7933 8.56447C16.3008 8.5447 15.5474 8.3569 15.114 8.69296C14.6954 9.01913 14.8235 9.4985 14.8235 9.96305C15.0352 10.1558 15.1189 10.2596 15.4193 10.3139C15.7296 10.3732 16.0497 10.3979 16.3649 10.4029C17.0888 10.4276 17.8127 10.4325 18.5366 10.4523C18.7188 10.4572 18.8961 10.4375 19.0783 10.4424C19.1374 10.4424 19.1965 10.4474 19.2605 10.4572C19.5905 10.5116 19.3984 11.6977 19.3886 11.9201C19.3787 12.1326 19.4674 12.4192 19.4132 12.6218C19.3541 12.8492 19.034 12.8195 18.8469 12.8195C18.3199 12.8195 17.793 12.7997 17.2661 12.78C17.0888 12.775 16.9164 12.7652 16.7391 12.7602C16.4338 12.7503 16.0989 12.6762 15.7739 12.6713C15.5769 12.6713 15.3898 12.691 15.2125 12.7652C14.7102 12.9777 14.7397 13.4768 14.8579 13.9216C15.0204 14.5344 15.1633 14.5492 15.7838 14.569C16.0989 14.5789 16.419 14.6036 16.7391 14.6184C17.2316 14.6382 17.7339 14.6777 18.2313 14.6876C18.4283 14.6925 18.6203 14.653 18.8173 14.6283C18.9109 14.6184 19.0094 14.6085 19.103 14.6085C19.3246 14.6085 19.1965 15.2361 19.2113 15.3844C19.231 15.6315 19.2458 15.8835 19.2408 16.1306C19.2408 16.353 19.2704 16.6347 19.1621 16.8374C19.0291 17.0943 18.6597 17.04 18.4135 17.04C18.1673 17.04 17.9161 17.04 17.6699 17.035C17.0592 17.0103 16.4584 16.9263 15.8429 16.956C15.4637 16.9757 15.0451 17.0894 14.8629 17.4551C14.7003 17.7763 14.6511 18.2359 14.7693 18.5819C14.8678 18.8833 15.3652 18.9229 15.6212 18.9328C15.705 18.9328 15.7936 18.9328 15.8773 18.9328" fill="#EACD2E"/>
<path d="M13.5031 21.0629C13.5425 20.8059 13.4933 20.5538 13.5031 20.2919C13.5179 19.8916 13.4391 19.4962 13.3899 19.1009C13.3406 18.7105 13.3948 18.3299 13.3652 17.9395C13.3258 17.5392 13.3012 17.1093 13.316 16.709C13.3406 16.0517 13.3554 15.3845 13.3603 14.7272C13.3603 14.0848 13.3603 13.4423 13.3308 12.8048C13.316 12.5528 13.2618 12.2809 13.2914 12.0289C13.3258 11.7176 13.4687 11.3766 13.2865 11.08C12.9959 10.6155 11.8435 10.4821 11.6022 11.0553C11.4693 11.3766 11.6121 12.0684 11.6072 12.4243C11.5973 12.9926 11.5875 13.5609 11.5776 14.1292C11.553 15.2659 11.5185 16.3976 11.4939 17.5343C11.4791 18.1273 11.4742 18.7204 11.4643 19.3183C11.4594 19.9262 11.4446 20.4945 11.5234 21.1024C11.5678 21.4483 11.5185 21.7547 11.484 22.0957C11.4496 22.4021 11.5333 22.6393 11.8288 22.7728C12.203 22.9408 12.5478 22.9013 12.9319 22.8222C13.0008 22.8074 13.0648 22.7827 13.1289 22.753C13.6509 22.5257 13.4391 21.5274 13.5179 21.0925C13.5179 21.0826 13.5179 21.0727 13.5228 21.0629" fill="#EACD2E"/>
<path d="M4.92994 21.5768C4.92501 21.8931 4.97426 22.3971 5.18602 22.6195C5.52089 22.9803 6.17094 22.9852 6.59446 22.8123C7.20019 22.5701 7.10662 21.8486 7.04753 21.3346C6.94903 20.4253 7.15094 19.5061 7.17064 18.6017C7.18542 17.9148 7.05738 17.2328 7.07708 16.5409C7.10662 15.5723 7.1411 14.6333 7.11647 13.6597C7.1017 13.0864 6.97366 12.4885 6.98843 11.9251C6.99828 11.6285 7.08692 11.3024 6.89486 11.0454C6.64371 10.7192 6.25466 10.6995 5.88531 10.7637C5.63416 10.8082 5.40763 10.7686 5.25004 11.0108C4.95456 11.4704 5.13677 12.187 5.13185 12.701C5.122 13.6745 5.05305 14.653 5.0432 15.6266C5.03335 16.5211 4.93979 17.4156 4.91516 18.3101C4.91516 18.404 4.91516 18.493 4.92994 18.5819C4.94964 18.7697 4.98903 18.9476 4.99396 19.1453C5.00873 19.5654 4.82652 19.9706 4.84622 20.3956C4.86592 20.7959 4.93486 21.1666 4.92994 21.5718" fill="#EACD2E"/>
<path d="M5.72228 5.9107C6.01775 5.96012 6.28368 6.03919 6.59394 6.02436C7.3671 5.99471 8.14027 6.04907 8.91344 6.01448C9.47977 5.98977 10.0461 6.03919 10.6075 5.94529C11.036 5.87116 11.4742 5.88105 11.9076 5.9107C12.1932 5.93046 12.3558 6.07872 12.6611 6.00954C12.9073 5.95023 13.1979 5.94035 13.3702 5.72784C13.6362 5.40661 13.9907 4.6159 13.6805 4.23536C13.4195 3.91413 12.8384 3.91908 12.4641 3.90919C11.1443 3.86966 9.7851 4.15629 8.47022 3.96355C8.01715 3.89931 7.63796 3.98826 7.17997 3.98826C6.75645 3.98826 6.30338 4.07228 5.87986 4.11676C5.43665 4.15629 5.05745 4.45775 4.95896 4.83829C4.90479 5.04585 4.93434 5.27812 5.07715 5.5104C5.23474 5.74267 5.4465 5.87116 5.72228 5.91564M5.17072 4.51212C5.17072 4.51212 5.16579 4.52694 5.16579 4.53683C5.16579 4.52694 5.16579 4.522 5.16579 4.51212C5.16579 4.51212 5.17072 4.51212 5.17564 4.51212" fill="#EACD2E"/>
<path d="M10.2635 22.3082C10.2635 22.3082 10.2734 22.2884 10.2734 22.2785C10.3226 22.1649 10.3571 22.0215 10.3669 21.893C10.3768 21.7201 10.3669 21.5471 10.3472 21.3741C10.3325 21.2654 10.2832 21.132 10.3128 21.0233C10.3275 20.9689 10.362 20.9294 10.3669 20.87C10.3669 20.8256 10.3472 20.786 10.3472 20.7416C10.3472 20.6971 10.3472 20.6526 10.3374 20.6032C10.3374 20.623 10.3423 20.6378 10.3472 20.6575C10.2192 19.9162 10.4113 19.1651 10.3325 18.4188C10.2783 17.9444 10.4605 17.465 10.4703 16.9906C10.4753 16.3877 10.3472 15.7897 10.4359 15.1868C10.5541 14.3367 10.4113 13.3829 10.4113 12.5181C10.4113 11.9547 10.49 11.4012 10.5097 10.8378C10.5245 10.5018 10.4851 10.1707 10.4605 9.8346C10.4457 9.66657 10.3275 9.40464 10.4703 9.26627C10.6821 9.04882 11.1499 9.24156 11.406 9.24156C12.0906 9.24156 13.1346 9.22179 13.5335 8.54968C13.7403 8.20374 13.6221 7.49704 13.238 7.29442C12.9031 7.1165 12.4107 7.22029 12.0512 7.22523C11.4553 7.23511 10.8348 7.21534 10.2241 7.22523C9.41155 7.245 8.59899 7.26476 7.78643 7.24994C7.29889 7.24005 6.81135 7.18075 6.32381 7.22029C5.90029 7.25488 5.25517 7.35372 5.1025 7.82815C5.05326 7.97641 5.0631 8.13455 5.08773 8.28776C5.10743 8.41625 5.1419 8.77701 5.23054 8.86597C5.5211 9.13778 6.15637 9.1526 6.52572 9.16249C6.94924 9.17237 7.36783 9.12789 7.78643 9.09824C8.00803 9.07847 8.23457 9.08836 8.28874 9.3404C8.36753 9.70116 8.23949 10.1311 8.26904 10.5067C8.31336 11.0652 8.40693 11.6236 8.43648 12.182C8.4611 12.8245 8.31336 13.4818 8.31336 14.1292C8.31336 14.915 8.41185 15.7205 8.32813 16.5013C8.25919 17.1734 8.141 17.8208 8.11638 18.5127C8.08683 19.2936 8.25427 20.0497 8.26411 20.8206C8.26411 21.211 8.21487 21.6064 8.22472 21.9919C8.22472 22.155 8.23949 22.3378 8.32813 22.4811C8.40693 22.6146 8.55467 22.6936 8.67778 22.7777C8.72703 22.8073 8.7812 22.8221 8.83045 22.8468C8.87477 22.8716 8.91909 22.8963 8.97326 22.9111C9.02743 22.9259 9.08653 22.9358 9.1407 22.9407C9.1801 22.9407 9.26874 22.9605 9.30321 22.9457C9.29829 22.9457 9.29336 22.9556 9.28844 22.9605C9.30814 22.9407 9.43125 22.9605 9.4608 22.9506C9.51989 22.9457 9.58391 22.9309 9.64301 22.916C9.7612 22.8814 9.87447 22.832 9.97296 22.7579C10.0567 22.6986 10.1355 22.6146 10.1847 22.5207C10.2192 22.4515 10.2389 22.3774 10.2684 22.3032" fill="#EACD2E"/>
<path d="M25.5594 29.9535C25.3181 29.9189 25.0374 30.0227 24.8059 30.082C24.5597 30.1462 24.3036 30.1709 24.0475 30.1907C23.6732 30.2203 23.3088 30.2994 22.9395 30.3439C22.5357 30.3933 22.1318 30.3241 21.7231 30.3093C21.2109 30.2895 20.6397 30.3686 20.1571 30.1759C20.0192 30.1215 19.9601 30.0474 19.9945 29.8892C20.0586 29.5729 20.3737 29.6372 20.6298 29.6273C20.9598 29.6174 21.2897 29.6273 21.6147 29.6372C21.9742 29.6471 22.3387 29.6668 22.6982 29.657C23.2497 29.6421 23.7717 29.6421 24.2593 29.3555C24.6877 29.1035 25.0965 28.7279 25.3279 28.288C25.6923 27.5961 25.6677 26.756 25.6283 25.9999C25.6234 25.8714 25.5988 25.733 25.5692 25.6095C25.4954 25.3377 25.4264 25.0708 25.2787 24.8336C25.1359 24.5964 24.9635 24.3542 24.7468 24.1812C24.7764 24.1911 24.801 24.2059 24.8305 24.2208C24.7074 24.1516 24.407 23.9539 24.3676 23.9292C23.7373 23.43 22.7228 23.351 21.9546 23.3164C21.3439 23.2867 20.6052 23.3806 19.9945 23.4646C19.4134 23.5487 18.5369 23.1286 18.0592 23.6129C17.8129 23.8649 17.7489 24.29 17.9016 24.6013C18.069 24.9522 18.4433 25.056 18.7929 25.14C19.2854 25.2635 19.7532 25.3723 20.2605 25.3278C20.7923 25.2784 21.3143 25.1449 21.8511 25.1696C22.3387 25.1894 23.5501 25.2388 23.8111 25.7281C23.9638 26.0197 24.1017 26.3755 24.0623 26.6868C24.0229 26.9932 23.9884 27.3589 23.7717 27.5961C23.5698 27.8185 23.166 27.8729 22.8853 27.9273C22.5012 28.0014 22.1466 28.036 21.792 28.0508C21.3587 28.0706 20.9302 28.0607 20.4575 28.0607C19.837 28.0607 18.8668 28.0903 18.4285 28.6142C18.1084 29.0046 18.0296 29.5729 18.0542 30.0622C18.069 30.3291 18.1035 30.6058 18.1971 30.8579C18.2759 31.0704 18.4778 31.3521 18.6944 31.441C18.9013 31.53 19.1475 31.5003 19.3691 31.5201C19.8714 31.5695 20.3737 31.4707 20.8761 31.4954C21.2946 31.5151 21.7231 31.5201 22.1515 31.5201C23.3285 31.5201 24.6385 31.6387 25.8056 31.53C26.0321 31.4114 26.0321 31.2631 26.0765 31.0506C26.1257 30.7986 26.0814 30.5515 25.9484 30.334C25.8943 30.245 25.8204 30.1907 25.7564 30.1166C25.6923 30.0424 25.6628 29.9683 25.5545 29.9535M19.9158 29.8942H19.901L19.8911 29.8892C19.8911 29.8892 19.9108 29.8892 19.9207 29.8892C19.9207 29.8892 19.9158 29.8892 19.9108 29.8942" fill="#EACD2E"/>
<path d="M18.1426 33.7983C18.4528 33.7884 18.7631 33.8329 19.0733 33.818C19.6495 33.7884 20.2208 33.8526 20.792 33.8526C21.3387 33.8526 21.8952 33.7884 22.4418 33.8329C22.8555 33.8675 23.2741 33.8576 23.6877 33.8526C24.1162 33.8526 24.5446 33.8675 24.9681 33.7983C25.2882 33.7439 25.7955 33.6797 26.0466 33.4474C26.2091 33.2991 26.3372 32.9433 26.3076 32.6913C26.3076 32.6567 26.2978 32.627 26.2879 32.5974C26.2042 32.37 25.958 32.3453 25.7511 32.2811C25.1799 32.1032 24.5939 32.1773 24.0078 32.1773C23.5449 32.1773 23.0721 32.1575 22.6092 32.1724C22.0331 32.1921 21.4519 32.1921 20.8758 32.1724C20.3981 32.1575 19.9204 32.1328 19.4427 32.1328C19.0044 32.1328 18.571 32.1921 18.1327 32.1625C17.9161 32.1477 17.4925 32.1081 17.3891 31.8808C17.2709 31.6238 17.335 31.2779 17.3497 31.0011C17.3793 30.5563 17.4679 30.077 17.3694 29.6371C17.2956 29.3011 17.335 28.9403 17.3448 28.5993C17.3497 28.3917 17.3448 28.1891 17.3399 27.9816C17.3399 27.8185 17.3596 27.6702 17.3694 27.517C18.0047 27.4528 18.6794 27.4676 19.3147 27.4379C19.9943 27.4033 20.6788 27.3737 21.3584 27.3737C21.9099 27.3737 22.7816 27.5615 23.2248 27.1167C23.9537 26.3853 23.1509 26.0295 22.7274 25.9306C21.7622 25.6984 20.0435 25.896 19.0684 25.9405C18.5612 25.9603 17.4236 26.1036 17.3103 25.392C17.2069 24.7248 17.5122 23.7512 16.8474 23.2867C16.4928 23.0396 16.0743 23.1088 15.7985 23.4448C15.567 23.7314 15.6261 24.2207 15.6507 24.5617C15.7 25.214 15.6606 25.8614 15.636 26.5138C15.6113 27.1464 15.6754 27.774 15.6655 28.4016C15.6655 28.6092 15.6409 28.8118 15.6458 29.0194C15.6458 29.39 15.6458 29.7607 15.636 30.1313C15.631 30.5168 15.5769 30.8973 15.5769 31.2779C15.5769 31.777 15.5769 32.2761 15.5916 32.7802C15.6015 33.1558 15.6163 33.5314 15.6261 33.9021C15.6409 34.5 15.5966 35.098 15.6803 35.696C15.7049 35.864 15.7197 36.0172 15.764 36.1754C15.8674 36.5361 16.0496 36.9414 16.2466 37.2577C16.9114 38.3251 18.4528 38.1769 19.5166 38.1571C19.8711 38.1472 20.2159 38.167 20.5704 38.1966C20.7576 38.2115 21.053 38.1818 21.1023 38.4289C21.1565 38.7106 20.861 38.676 20.6788 38.7057C20.3981 38.7452 20.1223 38.7847 19.8367 38.7847C19.2605 38.7847 18.6794 38.7946 18.0983 38.8193C17.5664 38.844 17.069 38.8391 16.5519 38.9379C15.9708 39.0516 15.7197 39.4272 15.567 39.9461C15.4734 40.2574 15.4981 40.5984 15.5276 40.9197C15.5818 41.4485 15.4291 41.9822 16.0496 42.1848C16.419 42.3084 16.8868 42.1749 17.1675 41.913C17.3842 41.7104 17.2857 41.5522 17.2956 41.2903C17.3153 40.8851 17.266 40.4008 17.7831 40.3859C17.9111 40.3859 18.0983 40.3316 18.2115 40.4156C18.4085 40.5589 18.2066 40.9345 18.2066 41.1272C18.2066 41.3595 18.1721 41.7054 18.2953 41.918C18.4922 42.2639 19.0389 42.1749 19.3639 42.1453C19.7874 42.1107 20.1469 41.9822 20.2454 41.5226C20.2947 41.2903 20.2996 41.0185 20.2602 40.7862C20.2306 40.6133 20.1666 40.3761 20.3735 40.2871C20.5212 40.2278 20.925 40.2822 21.0235 40.4354C21.122 40.5984 21.0826 41.0333 21.0727 41.1964C21.058 41.5078 21.0826 41.9031 21.3584 42.1008C21.58 42.259 21.8952 42.2837 22.1562 42.2342C22.7274 42.1354 22.9589 41.7648 22.9737 41.2063C22.9786 40.8752 22.9638 40.5391 22.9343 40.208C22.9047 39.8967 22.8358 39.5804 22.8899 39.2691C22.949 38.9478 22.8949 38.5722 22.821 38.2559C22.7274 37.8161 22.5255 37.4207 22.3581 37.1786C22.1168 36.8327 21.7031 36.6251 21.2944 36.5608C20.9841 36.5114 20.6788 36.6152 20.3685 36.5806C20.0189 36.5411 19.6594 36.6152 19.3097 36.6152C18.8714 36.6152 18.0539 36.7091 17.7092 36.3533C17.6107 36.2544 17.6058 36.0518 17.7585 36.0024C17.9456 35.9431 18.182 35.9678 18.3741 35.948C18.8764 35.9036 19.3738 35.948 19.8761 35.9579C20.8758 35.9777 21.8705 35.9925 22.8555 36.1951C22.949 36.2446 23.0524 36.2841 23.1509 36.3335C23.5301 36.5262 23.7025 36.8524 23.801 37.2527C23.8847 37.6085 23.8404 38.0681 23.8059 38.2559C23.7665 38.4685 23.8207 38.7403 23.8207 38.9626C23.8207 39.2097 23.8207 39.4568 23.8108 39.7039C23.801 40.1883 23.7714 40.6726 23.8207 41.1569C23.8502 41.4435 23.865 41.8636 24.126 42.0415C24.4658 42.2738 24.9435 42.2639 25.2932 42.0662C25.5345 41.9328 25.7511 41.6807 25.7511 41.3842C25.7511 41.3002 25.7462 41.2113 25.761 41.1272C25.8004 40.9246 25.7511 40.7665 25.761 40.5589C25.7758 40.2772 25.8004 39.9906 25.7905 39.7089C25.761 38.9923 25.7905 38.2807 25.7216 37.5591C25.6822 37.1242 25.6231 36.7289 25.436 36.3286C25.3227 36.0815 25.2193 35.8245 25.0666 35.5972C24.8401 35.2611 24.387 35.0189 24.0226 34.8559C23.7419 34.7274 23.4661 34.6483 23.1657 34.584C22.6486 34.4753 22.1069 34.5297 21.5849 34.4407C20.7083 34.2875 19.8367 34.3567 18.9552 34.3617C18.7729 34.3617 17.4187 34.4308 17.4433 34.08C17.463 33.8032 17.9752 33.7834 18.1672 33.7785" fill="#EACD2E"/>
<path d="M14.9369 36.2297C14.9369 34.9152 14.8039 33.6055 14.8335 32.291C14.8482 31.5596 14.8236 30.838 14.7842 30.1066C14.7645 29.7656 14.8285 29.4246 14.8285 29.0836C14.8285 28.6438 14.7941 28.199 14.799 27.7592C14.799 27.3984 14.8236 27.0475 14.799 26.6868C14.7694 26.3458 14.6709 26.0097 14.6463 25.6737C14.6118 25.1696 14.4001 24.7495 14.1785 24.3097C14.08 24.112 13.9372 23.9884 13.7353 23.9044C13.3758 23.7611 12.9522 23.6672 12.5632 23.6573C11.9427 23.6474 11.3961 23.855 10.9627 24.2998C10.9627 24.2899 10.9627 24.28 10.9676 24.2751C10.8347 24.5518 10.682 24.7594 10.5983 25.0658C10.5146 25.387 10.4653 25.7181 10.3964 26.0394C10.3225 26.3655 10.2585 26.6423 10.2536 26.9783C10.2437 27.774 10.2043 28.5697 10.2043 29.3653C10.2043 29.8496 10.2536 30.3339 10.2585 30.8232C10.2585 31.3273 10.224 31.8363 10.1945 32.3404C10.1551 32.968 10.2289 33.6006 10.2437 34.2282C10.2585 34.7718 10.1698 35.3105 10.1304 35.8492C10.0861 36.4027 10.1698 36.9513 10.16 37.5048C10.1551 38.0237 10.0861 38.503 10.1452 39.017C10.2142 39.5952 10.3274 40.2179 10.2043 40.7764C10.1403 41.0729 10.0713 41.404 10.1452 41.7055C10.2289 42.0464 10.6377 42.3084 10.9824 42.1601C11.204 42.0662 11.4995 42.1799 11.7162 42.0366C11.8639 41.9427 11.9328 41.745 11.9722 41.5868C12.0707 41.1964 11.987 40.7813 12.0166 40.3859C12.0707 39.6249 11.9772 38.8589 11.9181 38.0978C11.9033 37.8754 11.7211 37.1045 11.9575 36.9562C12.2726 36.7536 12.5386 36.9364 12.8833 36.8821C12.9325 37.2972 12.8636 37.737 12.8833 38.1571C12.9178 39.0318 13.0901 40.0103 12.8981 40.8752C12.8291 41.1915 12.7405 41.5967 12.9178 41.8932C13.0409 42.1008 13.2428 42.1749 13.4693 42.2095C13.686 42.2441 13.9667 42.3281 14.1834 42.3034L14.1736 42.3133C14.4296 42.2886 14.7202 42.1651 14.8433 41.8883C14.9467 41.6461 14.9024 41.3694 14.8876 41.1174C14.8679 40.7961 14.8876 40.4749 14.8975 40.1537C14.9123 39.7929 14.8384 39.4568 14.8088 39.101C14.7251 38.1373 14.9369 37.1786 14.9369 36.2149M11.9181 26.9635V26.9487C11.9181 26.9487 11.9181 26.9536 11.923 26.9586C11.923 26.9586 11.923 26.9586 11.9181 26.9586M12.7159 25.2733C12.7159 25.2733 12.7109 25.2832 12.706 25.2882C12.706 25.2931 12.7011 25.2981 12.6962 25.3079C12.706 25.2981 12.7109 25.2882 12.7159 25.2733ZM12.9325 34.9695C12.8538 34.9745 12.0707 34.9695 12.0707 34.93C12.056 34.6582 12.0855 34.3814 12.0707 34.1096C12.051 33.8082 12.0215 33.5067 12.0166 33.2052C12.0166 32.6122 12.0757 32.0093 12.0609 31.4212C12.0609 31.268 11.987 31.1543 11.9919 30.9962C12.2136 30.9863 12.445 30.9863 12.6715 30.9863C12.9572 30.9863 12.8784 31.3816 12.8784 31.5991C12.8784 31.9599 12.8341 32.3157 12.8291 32.6764C12.8242 32.9779 12.8784 33.2744 12.9079 33.5759C12.9375 33.8675 12.9079 34.1393 12.8981 34.4308C12.8882 34.6137 12.9375 34.7966 12.9276 34.9794M13.0015 27.7246C12.9916 27.9914 12.9522 28.2287 12.8932 28.4856C12.8242 28.7673 12.9276 29.0787 12.9079 29.3703C12.7553 29.3752 12.6124 29.3604 12.4598 29.3357C12.312 29.3159 12.1594 29.3554 12.0116 29.3357C11.9525 28.5598 12.0855 27.7987 12.1052 27.0278C12.1101 26.7757 12.1052 26.5237 12.1052 26.2716C12.1052 26.0838 12.0313 25.6885 12.12 25.5204C12.2431 25.2832 12.775 25.471 12.8735 25.7132C12.9473 25.901 12.9572 26.069 12.9769 26.2617C12.9966 26.494 13.0507 26.7016 13.0409 26.9339C13.0261 27.1958 13.0064 27.4577 13.0015 27.7196" fill="#EACD2E"/>
<path d="M9.54379 39.8819C9.52902 39.4717 9.50932 39.0566 9.47977 38.6513C9.37635 37.0798 9.58811 35.4984 9.56349 33.9219C9.55364 33.4672 9.54872 33.0125 9.54872 32.5579C9.54872 31.8907 9.58319 31.2285 9.52409 30.5613C9.47485 29.9979 9.52409 29.5581 9.55857 28.9996C9.58811 28.4313 9.51424 27.863 9.52409 27.2996C9.54379 26.3161 9.31233 25.0559 8.68691 24.2652C8.41605 23.9242 8.12057 23.7216 7.69213 23.6821C7.33263 23.6475 6.92389 23.6722 6.56439 23.7167C6.40188 23.7364 6.23444 23.8056 6.09163 23.8797C5.56469 24.1516 5.28399 24.6556 5.12147 25.2042C4.91464 25.906 4.8063 26.6374 4.82107 27.3688C4.83092 28.0162 4.82107 28.6636 4.82107 29.3159C4.82107 29.6372 4.77183 29.9534 4.76198 30.2747C4.73735 30.9369 4.80137 31.5991 4.79152 32.2663C4.78168 32.721 4.75213 33.1707 4.75705 33.6253C4.76198 34.1195 4.83585 34.6137 4.79152 35.1129C4.67826 36.4027 4.72258 37.7025 4.72258 38.9923C4.72258 39.3679 4.7275 39.7435 4.75213 40.1142C4.77183 40.4403 4.70288 40.7715 4.69303 41.0976C4.66841 41.8192 5.34801 42.6791 6.0867 42.0415C6.60379 41.5918 6.34278 40.5244 6.37233 39.9066C6.40188 39.358 6.13102 36.8623 6.95344 36.8673C6.99776 36.8673 7.49022 36.9118 7.49022 36.8969C7.55917 38.0632 7.48037 39.2444 7.57887 40.4206C7.64289 41.1816 7.94821 43.1584 9.23846 42.17C9.60289 41.8883 9.58319 41.3348 9.57334 40.9247C9.56842 40.5787 9.55857 40.2278 9.54379 39.877M6.53977 26.9438C6.53977 26.4249 6.58409 25.1103 7.12087 25.2932C7.38188 25.3821 7.51977 26.0443 7.53947 26.2816C7.56902 26.6522 7.54932 27.0377 7.50007 27.4034C7.41635 28.036 7.59856 28.6735 7.47545 29.306C7.15535 29.3851 6.61364 29.484 6.54469 29.0392C6.49545 28.7427 6.58409 28.4165 6.58409 28.12C6.58409 27.7839 6.53977 27.4479 6.53977 27.1118C6.53977 27.0772 6.53977 27.0179 6.53977 26.9388M7.37203 34.9251C7.29324 34.9498 7.21444 34.9498 7.13565 34.9498C6.91404 34.9498 6.72198 34.9844 6.70228 34.7175C6.68751 34.5347 6.68258 34.3568 6.68258 34.1739C6.68258 33.8428 6.73183 33.4969 6.70228 33.1657C6.68751 32.9878 6.66781 32.8149 6.64319 32.632C6.60379 32.3701 6.57424 32.1279 6.57424 31.8611C6.57424 31.7573 6.57917 31.6535 6.58409 31.5497C6.58901 31.4459 6.61856 31.3471 6.61364 31.2433C6.61364 31.1692 6.57424 31.0852 6.64319 31.0259C6.75153 30.9369 6.98791 30.9418 7.11595 30.9666C7.25384 30.9913 7.43605 30.9666 7.50007 31.1198C7.57394 31.2977 7.53454 31.5645 7.51977 31.7474C7.51977 31.7573 7.51977 31.7622 7.51977 31.7721C7.49515 32.0834 7.505 32.3849 7.4853 32.6963C7.46067 33.057 7.54932 33.4079 7.53947 33.7687C7.52962 34.0108 7.56902 34.248 7.56902 34.4902C7.56902 34.6236 7.51977 34.8757 7.36711 34.9251" fill="#EACD2E"/>
<path fill-rule="evenodd" clip-rule="evenodd" d="M40.7613 24.799H37.0038L36.6689 25.8565H40.4264L40.7613 24.799Z" fill="#D02B27"/>
<path fill-rule="evenodd" clip-rule="evenodd" d="M36.0833 26.6226L35.7484 27.6801H37.5114L35.3643 34.4803H36.4822L38.974 26.6226H36.0833Z" fill="#D02B27"/>
<path fill-rule="evenodd" clip-rule="evenodd" d="M35.9061 28.4263C35.3693 29.8793 34.7538 31.3124 33.9658 32.9186L34.936 33.0767C35.586 31.777 36.3641 29.9188 36.9107 28.4214H35.9061V28.4263Z" fill="#D02B27"/>
<path fill-rule="evenodd" clip-rule="evenodd" d="M38.7329 28.4263C38.3586 29.6421 37.807 31.777 37.6445 32.7605L38.6147 32.6468C38.8018 31.6139 39.2647 29.7557 39.6882 28.4214H38.7378L38.7329 28.4263Z" fill="#D02B27"/>
<path fill-rule="evenodd" clip-rule="evenodd" d="M76.2085 31.268H79.375L79.7247 30.161H72.0915L71.7419 31.2779H74.9872L74.4258 33.0471H70.1807L69.8262 34.164H79.38L79.7345 33.0471H75.6471L76.2085 31.268Z" fill="#D02B27"/>
<path fill-rule="evenodd" clip-rule="evenodd" d="M78.0603 25.4018L78.2376 24.8137H77.0212L76.839 25.4018H72.7663L71.998 27.8333H73.175L73.6084 26.4792H80.4881L80.0597 27.8333H81.2317L82 25.4018H78.0603Z" fill="#D02B27"/>
<path fill-rule="evenodd" clip-rule="evenodd" d="M78.4298 27.8926L78.7449 26.8894H77.5729L77.2429 27.9569C77.0607 28.5351 77.0361 28.9502 77.2084 29.1677C77.3759 29.3802 77.7403 29.479 78.2771 29.479H80.7099L81.0447 28.4165H78.8089C78.4298 28.4165 78.3116 28.2435 78.4248 27.8877" fill="#D02B27"/>
<path fill-rule="evenodd" clip-rule="evenodd" d="M71.7623 29.9189C73.6336 29.6174 75.2785 28.7822 76.5293 27.2947L76.5884 27.2255L75.6035 26.7659L75.5542 26.8202C74.5447 27.947 73.4219 28.5796 71.5751 28.8168L71.4668 28.8267L71.7081 29.9238H71.7623V29.9189Z" fill="#D02B27"/>
<path fill-rule="evenodd" clip-rule="evenodd" d="M55.3233 31.4459H52.6197L52.3242 32.3849H55.0328L55.3233 31.4459Z" fill="#D02B27"/>
<path fill-rule="evenodd" clip-rule="evenodd" d="M45.9717 27.5566L46.3213 26.4595H45.2527L46.4641 24.799H45.3068L44.0954 26.4595H42.9282L42.7165 24.799H41.5592L41.7709 26.4595H40.8254L40.4807 27.5566H42.6229L42.2683 28.6834H40.3822L40.0473 29.7459H41.9384L41.4853 31.1642H39.3086L38.959 32.2663H41.1357L40.4364 34.4754H41.5986L42.293 32.2663H44.5731L44.9227 31.1642H42.6426L43.0907 29.7459H44.9769L45.3118 28.6834H43.4256L43.7802 27.5566H45.9717Z" fill="#D02B27"/>
<path fill-rule="evenodd" clip-rule="evenodd" d="M49.1378 24.9768L47.4092 30.4575C46.9069 32.0389 46.2618 33.2299 45.6807 34.0997L46.4785 34.4802C47.1285 33.4968 47.7786 32.1575 48.2612 30.6304H48.8423L47.6554 34.4802H48.5468L51.5459 24.9768H49.1427H49.1378ZM49.1427 29.6915H48.5665L49.0639 28.1051H49.6351L49.1378 29.6915H49.1427ZM49.3643 27.171L49.7632 25.9158H50.3344L49.9355 27.171H49.3594H49.3643Z" fill="#D02B27"/>
<path fill-rule="evenodd" clip-rule="evenodd" d="M51.9208 24.9768L50.1923 30.4575C50.1578 30.5761 48.9808 34.3666 48.9414 34.4802H49.8131C49.8475 34.3765 51.0098 30.7392 51.0442 30.6304H51.6253L50.4385 34.4802H51.3299L54.329 24.9768H51.9257H51.9208ZM51.9257 29.6915H51.3495L51.8519 28.1051H52.4231L51.9257 29.6915ZM52.1473 27.171L52.5413 25.9158H53.1126L52.7137 27.171H52.1424H52.1473Z" fill="#D02B27"/>
<path fill-rule="evenodd" clip-rule="evenodd" d="M68.4775 25.7082L68.7877 24.8137H67.6304L67.3202 25.7082H65.6064L65.2666 26.7806H70.0829L70.4227 25.7082H68.4775Z" fill="#D02B27"/>
<path fill-rule="evenodd" clip-rule="evenodd" d="M65.1625 29.4098C64.5568 31.3273 63.828 32.6864 62.9809 33.4968L62.9268 33.5512L63.6113 34.3567L63.6802 34.2876C64.7045 33.2151 65.5171 31.7029 66.1327 29.7706L66.502 28.5944H67.7233L66.2066 33.3931C66.0391 33.9317 66.2066 34.1986 66.8911 34.1986H68.1419L68.4522 33.2003C68.4522 33.2003 68.4325 33.2003 68.4226 33.2003H67.6199C67.4722 33.2003 67.4328 33.1361 67.5017 32.9236L69.1712 27.6258L69.186 27.5516H65.7486L65.1625 29.4049V29.4098Z" fill="#D02B27"/>
<path fill-rule="evenodd" clip-rule="evenodd" d="M65.4834 25.4117H64.006L64.464 24.8137H63.3067L62.8438 25.4117H61.5831L60.5194 28.7821H59.8102L59.5 29.7755H60.2091L60.1894 29.8348C59.692 31.4162 59.0518 32.6912 58.2787 33.6648L58.2393 33.7192L58.9977 34.416L59.0617 34.332C59.9235 33.1904 60.6474 31.6831 61.2581 29.7705H61.7801L61.2531 31.5052H62.0558L62.5828 29.7705H63.0654L62.0558 32.968C62.0017 33.1459 61.8884 33.2349 61.6668 33.2349L60.7557 33.1854L60.6819 34.2974H61.5782C61.9967 34.2974 62.3316 34.2134 62.5532 34.0108C62.7699 33.8131 62.9472 33.4671 63.0999 32.9828L65.4883 25.4117H65.4834ZM62.8783 28.7821L63.3559 27.2056H62.5532L62.0755 28.7821H61.5634L62.3218 26.3853H64.1291L63.3707 28.7821H62.8783Z" fill="#D02B27"/>
<path fill-rule="evenodd" clip-rule="evenodd" d="M57.0122 26.1431L56.0814 29.138H57.086L58.3172 25.2041H56.7906L57.091 24.8137H55.9337L55.6333 25.2041H54.5991L52.9346 30.4822H56.0026L55.2688 32.795C55.1556 33.1607 54.9192 33.3386 54.5302 33.3485H53.5551L53.5255 34.327H54.3627C55.3132 34.327 55.9386 33.8576 56.2341 32.9334L57.3175 29.5037H54.2445L54.668 28.1594H56.0666L56.3227 27.3539H54.9241L55.3082 26.1382H57.022L57.0122 26.1431Z" fill="#D02B27"/>
<path d="M38.265 14.0748H36.8516L34.542 21.5471H39.8704L40.2644 20.2622H36.3493L38.265 14.0748Z" fill="#D02B27"/>
<path d="M74.0567 15.9429L72.3232 21.5471H73.776L75.5095 15.9429H74.0567Z" fill="#D02B27"/>
<path d="M76.0857 14.0748H74.633L74.1553 15.6167H75.608L76.0857 14.0748Z" fill="#D02B27"/>
<path d="M78.8637 15.9429C78.4106 15.9429 77.795 16.0516 77.5734 16.0911C77.0219 16.185 76.8397 15.6661 76.8397 15.6661L75.0225 21.5471H76.426L77.534 17.9592C77.6916 17.4453 78.1496 17.213 78.6962 17.213H80.3017L80.6956 15.9379H78.8637V15.9429Z" fill="#D02B27"/>
<path d="M52.2953 19.6643H50.8967L50.7933 19.8175C50.7391 19.8965 50.68 19.9707 50.6111 20.03C50.4535 20.1733 50.2466 20.2524 49.9758 20.2771C49.7099 20.2919 49.4538 20.3018 49.2174 20.3018C48.981 20.3018 48.7397 20.287 48.4886 20.2573C48.1389 20.2178 48.0847 20.0745 48.065 20.025C48.001 19.8669 48.0059 19.6544 48.065 19.3875C48.1143 19.1898 48.1734 18.9625 48.2423 18.7154C48.3063 18.4831 48.3802 18.2657 48.459 18.0779C48.5378 17.9 48.6215 17.7567 48.7052 17.6479C48.784 17.5442 48.8727 17.4651 48.9712 17.4008C49.0697 17.3415 49.178 17.2921 49.2962 17.2674C49.4341 17.2378 49.5917 17.218 49.7739 17.213C49.9659 17.2032 50.1777 17.1933 50.4141 17.1933C50.6505 17.1933 50.8573 17.2081 51.0444 17.2378C51.3054 17.2723 51.3892 17.3811 51.4236 17.4552C51.4483 17.5046 51.463 17.5639 51.4729 17.6282L51.4877 17.8357H52.8321L52.8715 17.5491C52.8813 17.4849 52.8862 17.4255 52.8862 17.3662C52.901 17.1439 52.8665 16.9314 52.7878 16.7485C52.704 16.5212 52.5464 16.3284 52.3248 16.1851C52.1082 16.0467 51.8127 15.9677 51.4433 15.943C51.1626 15.9331 50.8671 15.9232 50.5717 15.9133C50.2663 15.9084 49.9561 15.9182 49.6458 15.9528C49.1041 16.0171 48.6117 16.195 48.1832 16.4816C47.74 16.7781 47.4002 17.2229 47.1786 17.8061C47.0801 18.068 46.9816 18.3398 46.888 18.6166C46.7896 18.8983 46.7157 19.1898 46.6566 19.4765C46.6024 19.7582 46.5827 20.0102 46.5876 20.2375C46.5926 20.4846 46.6517 20.7021 46.7502 20.88C46.8585 21.0678 47.0161 21.2161 47.2278 21.3248C47.4248 21.4286 47.6809 21.4977 47.9862 21.5225C48.2423 21.5422 48.5279 21.5571 48.8284 21.562C48.9268 21.562 49.0253 21.562 49.1189 21.562C49.311 21.562 49.4932 21.562 49.6606 21.5472C49.9856 21.5225 50.286 21.4681 50.552 21.3742C50.8228 21.2754 51.0691 21.1469 51.2857 20.9838C51.5369 20.796 51.7487 20.5835 51.9112 20.3512C51.985 20.2425 52.054 20.1288 52.1131 20.0152L52.2953 19.6593V19.6643Z" fill="#D02B27"/>
<path d="M45.6569 15.933L44.3518 20.1534C44.209 20.1584 44.0564 20.1781 43.8742 20.2029C43.6132 20.2424 43.3226 20.2819 42.973 20.2819H42.7957C42.6972 20.2819 42.5839 20.2819 42.4903 20.2819C42.1062 20.2622 41.988 20.1683 41.9536 20.1139C41.9191 20.0595 41.8797 19.9063 41.9979 19.506L43.101 15.933H41.7369L40.6042 19.5901C40.4269 20.1633 40.4565 20.6279 40.6928 20.9738C40.9243 21.3148 41.3232 21.5125 41.8748 21.557C42.1161 21.5767 42.3721 21.5817 42.6332 21.5718C42.8695 21.5619 43.1059 21.5471 43.3423 21.5224L43.4999 21.5075C43.5048 21.5075 43.5147 21.5075 43.5196 21.5075H43.5541V21.5026C43.8692 21.4581 44.145 21.4334 44.3765 21.4334C44.731 21.4334 44.8739 21.4878 44.9034 21.5075L45.2186 21.7892L45.7504 20.0694L45.7603 20.0348C45.7603 20.0348 45.7603 20.0249 45.7652 20.0151L47.0259 15.9379H45.6519L45.6569 15.933Z" fill="#D02B27"/>
<path d="M63.4835 15.9429L60.8636 19.5357L60.3908 15.9429H57.6183L55.5696 17.4947C55.2052 17.7714 54.7521 17.9148 54.4567 17.979L55.6632 14.0748H54.2794L51.9697 21.5471H53.3535L54.2548 18.6313C54.5699 18.7302 54.9147 18.8982 54.9885 19.0959L56.0178 21.5471H57.6626L56.4117 18.5572C56.392 18.5028 56.3674 18.4435 56.3231 18.3842C56.397 18.3348 56.4659 18.2805 56.5299 18.231L58.9578 16.442L59.5832 21.2802L57.963 23.4992H59.4453L65.0348 15.9429H63.4884H63.4835Z" fill="#D02B27"/>
<path d="M70.0137 20.1485V21.5471H71.4615V18.1865L70.0137 20.1485Z" fill="#D02B27"/>
<path d="M73.6532 16.7238C73.6532 16.7238 72.3974 16.7781 70.7772 18.9476C70.7772 18.9476 69.8908 20.3314 68.8911 19.8471C68.3789 19.595 68.4134 18.4436 69.6396 18.3892C69.7381 18.2755 69.2014 18.0927 68.9256 18.1668C68.6547 18.2459 67.6846 18.5572 67.6846 19.1009C67.6846 19.6445 67.7978 20.2622 68.1327 20.5884C68.4627 20.9146 68.7877 20.9195 69.3294 20.8305C69.8711 20.7416 71.053 19.6544 71.3977 19.1107C71.7375 18.5671 72.9047 16.9066 73.6532 16.7336" fill="#EACD2E"/>
<path d="M71.1611 19.002C69.6148 21.2308 68.2605 20.5983 68.0586 19.7581C67.8764 19.007 68.4821 18.3596 69.2503 18.3348C69.6197 18.325 69.9595 18.4584 70.2156 18.6907H70.4076C70.0186 18.1767 69.403 17.8505 68.7185 17.8752C67.5809 17.9049 66.9358 18.7895 67.0589 19.9212C67.1475 20.7169 67.8173 21.4532 68.9499 21.4236C71.496 21.3544 72.0377 17.6677 73.648 16.7238C73.648 16.7238 72.6188 16.8967 71.1611 19.002Z" fill="#D02B27"/>
<path d="M70.683 17.8703C70.2348 18.2014 69.6833 18.3793 69.6833 18.3793C69.3878 18.3793 69.1514 18.6264 69.1563 18.918C69.1563 19.2145 69.4026 19.4517 69.698 19.4467C69.7325 19.4467 69.7621 19.4467 69.7965 19.4369C69.8409 19.4319 69.895 19.4122 69.9443 19.3825H69.9541C69.9541 19.3776 69.964 19.3776 69.9689 19.3726C69.9935 19.3578 70.0132 19.343 70.0329 19.3281C70.3235 19.1206 70.7618 18.488 71.3084 17.9147C71.9535 17.2377 72.574 16.9313 72.574 16.9313C72.1308 17.0351 70.9144 17.7072 70.683 17.8801" fill="#D02B27"/>
<path d="M70.0136 19.175L71.4615 17.6874V14.0748H69.2798L63.6953 21.5471H65.6061L70.0136 15.4833V19.175Z" fill="#D02B27"/>
</g>
<defs>
<clipPath id="clip0_583_2479">
<rect width="82" height="46" fill="white"/>
</clipPath>
</defs>
</svg>
