<svg width="238" height="46" viewBox="0 0 238 46" fill="none" xmlns="http://www.w3.org/2000/svg">
<g clip-path="url(#clip0_583_3102)">
<mask id="mask0_583_3102" style="mask-type:luminance" maskUnits="userSpaceOnUse" x="0" y="0" width="67" height="47">
<path d="M32.4128 10.9886C32.4128 10.9886 32.0951 14.3295 32.4696 15.0909L31.834 13.8068C30.3246 10.7159 26.2049 8.38636 22.9932 7.34091C21.6199 6.82955 19.9857 7.02273 19.9857 7.02273C18.3628 7.19318 17.6137 7.40909 17.6137 7.40909C19.8722 8 21.9831 9.85227 23.3336 12.0909C24.775 14.4659 25.1835 17.25 24.4799 19.7273C24.4799 19.7273 24.3777 20.1136 24.3664 20.0795C24.3664 20.0795 20.4623 8.85227 12.8926 8.28409C8.85231 7.95455 5.96966 9.65909 4.27866 11.1477C1.80458 13.2955 0.193021 16.3977 0.0341349 19.2386C-0.294986 23.7159 1.91807 27.4205 2.59901 28.4545C4.56239 31.5227 9.86237 36.8636 14.8673 40.5568C14.8673 40.5568 25.9893 48.8636 33.457 44.9659C26.9313 42.4091 20.3148 37.6705 15.8433 32.0682C14.3225 29.8523 12.5748 26.6477 12.7904 23.9205C13.0514 20.6932 15.9 18.2955 19.1572 18.5568C21.3476 18.7273 23.2542 20.0795 24.1054 22.0795C25.1495 28.6705 31.4595 36.2045 37.7128 40.7273C37.7128 40.7273 40.1075 42.8977 43.7846 41.8523L54.9066 38.4432L50.8777 36.3409C45.3621 33.3977 40.5955 29.6591 37.3951 25.7386C33.3889 20.4659 33.2527 17.0341 33.2527 17.0341C33.2413 16.0455 33.3775 14.9886 34.0244 14.0795C34.9891 12.7386 37.0092 11.8864 38.7683 11.8409C38.7683 11.8409 40.6522 11.8182 41.8325 12.4886C45.8728 14.375 48.4036 21.4886 48.8462 22.3068C48.8462 22.3068 56.2004 38.25 66.5393 34.9545C62.726 32.7386 58.4929 22.4432 58.4929 22.4432C57.4601 19.625 56.3479 15.3295 55.8485 12.2727C54.6909 5.40909 52.5119 0.625 45.2713 0.0454545C44.9421 0.0227273 44.6244 0 44.3066 0C38.1554 0 32.9235 4.75 32.4242 10.9886" fill="white"/>
</mask>
<g mask="url(#mask0_583_3102)">
<path d="M0.136291 -5.36094L-4.19434 48.5331L66.1125 54.1971L70.4432 0.303113L0.136291 -5.36094Z" fill="url(#paint0_linear_583_3102)"/>
</g>
<path d="M89.1012 46H91.144V38.75C91.144 37.4205 90.4291 36.8409 88.7494 36.8409H82.4734C82.1102 36.8409 81.3272 37.0228 81.0775 37.7159L80.7711 38.5569H83.8807V46H85.9235V38.5569H89.0899V46H89.1012ZM78.7169 38.3409V46H80.7143V36.8409C78.6034 36.8409 78.7169 38.3409 78.7169 38.3409Z" fill="#005EAA"/>
<path d="M81.7581 14.7273L79.6699 17.9773H83.1427L84.6748 15.9091L86.3091 17.9773H89.4868L86.1275 13.3409H84.3911C82.6207 13.3409 81.7695 14.7273 81.7695 14.7273" fill="#005EAA"/>
<path d="M98.0101 14.7273L95.9219 17.9773H99.3947L100.915 15.9091L102.538 17.9773H105.716L102.357 13.3409H100.62C98.8499 13.3409 97.9987 14.7273 97.9987 14.7273" fill="#005EAA"/>
<path d="M78.6377 25.5568H90.5314V27.1591H95.0711V25.5568H104.162C105.512 25.0909 106.329 24.375 106.715 23.0909H95.0711V21.5341H104.173C105.501 21.2727 106.352 20.5568 106.715 19.0909H95.0711V12.2386H104.173C105.546 12.0909 106.386 11.375 106.726 9.77271H81.055C79.1144 9.77271 78.649 12.2386 78.649 12.2386H90.5428V19.0909H81.0437C78.9782 19.0909 78.649 21.5341 78.649 21.5341H90.5428V23.0909H81.3161C79.0122 23.0909 78.6604 25.5568 78.6604 25.5568" fill="#005EAA"/>
<path d="M95.8194 38.5L92.0742 46.0114H94.3781L95.2633 44.1023H97.8963C98.702 44.0227 99.2127 43.5341 99.4057 42.6591H95.9215L97.9303 38.2273L99.8142 42.6591H99.7802L101.278 46.0114H103.798L99.5192 36.8523H97.9417C96.5798 36.7045 95.808 38.5 95.808 38.5" fill="#005EAA"/>
<path d="M128.743 38.5L124.998 46.0114H127.291L128.164 44.1023H130.809C131.615 44.0227 132.125 43.5341 132.318 42.6591H128.845L130.854 38.2273L132.738 42.6591H132.704L134.202 46.0114H136.722L132.443 36.8523H130.865C129.504 36.7045 128.732 38.5 128.732 38.5" fill="#005EAA"/>
<path d="M172.267 38.5L168.521 46.0114H170.814L171.699 44.1023H174.332C175.138 44.0227 175.649 43.5341 175.842 42.6591H172.369L174.378 38.2273L176.261 42.6591H176.227L177.726 46.0114H180.245L175.966 36.8523H174.389C173.027 36.7045 172.255 38.5 172.255 38.5" fill="#005EAA"/>
<path d="M210.479 27.0568L217.016 27.034L234.731 26.9999C236.173 26.8295 237.205 25.9431 237.909 24.284H226.231V19.9318H234.516C236.127 19.5909 237.069 18.7045 237.387 17.1818H213.372C211.364 17.1818 210.479 19.9318 210.479 19.9318H221.725V24.284H213.372C211.477 24.2159 210.479 27.0568 210.479 27.0568Z" fill="#005EAA"/>
<path d="M138.287 6.18185H133.532C131.33 6.18185 130.922 8.65912 130.922 8.65912H147.185C148.74 8.55685 149.636 7.77276 149.988 6.18185H142.782V4.96594H139.695C138.049 4.96594 138.287 6.18185 138.287 6.18185Z" fill="#005EAA"/>
<path d="M184.978 6.61366H182.946C181.051 6.68184 181.323 8.87502 181.323 8.87502H191.549C193.16 8.68184 194.079 7.92048 194.261 6.61366H188.995V4.97729H186.93C184.773 4.97729 184.978 6.61366 184.978 6.61366Z" fill="#005EAA"/>
<path d="M225.607 10.2841V13.1591C225.607 14.5454 226.481 15.25 228.206 15.25H233.608C235.81 15.25 237.081 14.3522 237.501 12.5H230.998C230.226 12.5 230.113 12.0227 230.113 11.7386V10.2954H225.607V10.2841Z" fill="#005EAA"/>
<path d="M131.274 12.6932H147.174C148.491 12.6136 149.353 11.9205 149.864 10.4886H133.601C132.001 10.4886 131.274 12.6932 131.274 12.6932Z" fill="#005EAA"/>
<path d="M98.3053 6.12505H86.6499C86.6499 4.9546 84.7546 4.97733 84.7546 4.97733H82.1671L82.9501 6.10233H81.3045C79.239 6.2046 78.8418 8.31824 78.8418 8.31824H104.388C105.433 7.90914 106.068 7.25005 106.533 6.10233H102.164L102.856 4.97733H100.621C98.1124 4.97733 98.2826 6.12505 98.2826 6.12505" fill="#005EAA"/>
<path d="M131.274 16.9205H147.186C148.468 16.8636 149.365 16.0909 149.875 14.625H133.499C131.91 14.625 131.286 16.9205 131.286 16.9205" fill="#005EAA"/>
<path d="M124.964 8.65906L122.672 14.0341H124.669V27.0568H128.21V9.28406L130.015 5.07952H128.744C126.179 4.95452 124.964 8.6477 124.964 8.6477" fill="#005EAA"/>
<path d="M131.07 27.0569H149.796V21.6932C149.796 19.9319 149.093 19.0455 147.526 18.8182H131.07V27.0682V27.0569ZM144.678 24.6705H135.269V21.1364H145.597V23.7501C145.597 24.3637 145.291 24.6705 144.678 24.6705Z" fill="#005EAA"/>
<path d="M215.631 12.0455L211.273 15.2387H217.05L222.827 10.2728H219.694C217.799 10.1364 215.631 12.0341 215.631 12.0341" fill="#005EAA"/>
<path d="M181.493 13.2273V20.9659C181.493 24.1364 180.529 26.0682 180.12 26.8864V26.9091C180.12 26.9091 180.075 26.9659 180.063 27H183.536C183.627 26.9091 183.718 26.8295 183.809 26.7386C184.739 25.8864 185.522 25.2159 185.522 20.6932V13.4545H188.927V27H191.447C193.671 26.8864 194.567 26.1477 194.704 24.2841C194.409 24.2841 194.114 24.2841 193.864 24.2045C193.399 24.0795 193.296 23.7955 193.296 23.5795V15.2273C193.296 13 192.343 11.7273 190.357 11.3409C189.971 11.2955 189.449 11.2273 188.893 11.25H183.4C181.459 11.25 181.493 13.2159 181.493 13.2159" fill="#005EAA"/>
<path d="M214.712 8.65912H233.12L233.176 10.6591H237.671L237.557 8.30685C237.228 6.67049 235.798 5.90912 233.074 5.90912H226.208V4.96594H223.916C221.623 4.96594 221.703 5.90912 221.703 5.90912H212.828C209.968 5.95458 210.183 8.44322 210.183 8.44322V10.6591H214.689V8.65912" fill="#005EAA"/>
<path d="M196.804 38.3409V46H202.013C203.023 45.9432 203.613 45.3977 203.795 44.3182H199.005V36.8523C196.804 36.8523 196.804 38.3523 196.804 38.3523" fill="#005EAA"/>
<path d="M229.829 44.3182V46H235.674C237.717 46 238 45.0909 238 44.125V42.3068C238 41.0455 237.807 40.5227 236.616 40.5227H231.974V38.5341H236.741C237.467 38.4432 237.864 37.8977 237.989 36.8523H232.167C232.031 36.8523 231.883 36.875 231.724 36.8978H231.611C230.794 37.1137 229.829 37.7046 229.829 38.7273V40.3409C229.829 41.1818 229.965 41.9546 231.6 42.0909C231.668 42.0909 231.758 42.0909 231.849 42.1023C231.963 42.1023 232.054 42.125 232.156 42.125H235.867V44.3296H229.829" fill="#005EAA"/>
<path d="M220.523 38.3523V46.0114H226.572C227.378 45.9659 227.832 45.4432 228.048 44.3296H222.657V42.125H226.572C227.571 41.9659 227.877 41.2727 228.048 40.5341H222.657V36.8637C220.421 36.8637 220.523 38.3637 220.523 38.3637M222.816 38.5341H226.572C227.571 38.375 227.889 37.6364 228.048 36.8523H224.007C223.485 36.9318 223.168 37.2046 223.031 37.7159L222.816 38.5455V38.5341Z" fill="#005EAA"/>
<path d="M166.944 7.10233V15.1364H166.093V17.7046H166.944V21.6932C166.944 23.5114 166.831 24.6591 165.832 27.0569H169.112C170.281 25.7046 170.701 24.2273 170.701 21.4205V17.7046H172.256V24.0682C172.993 23.8182 173.515 23.3751 173.754 22.7955V17.6932H175.411V26.9773H179.122V17.6932H179.905V15.1251H179.122V8.98869C178.917 7.26142 177.885 6.38642 175.933 6.31824H171.688L172.267 5.06824H170.621C167.512 5.06824 166.944 7.0796 166.944 7.0796M175.399 15.1364H172.812L173.198 14.8069C173.198 14.8069 173.288 14.7273 173.334 14.6932C173.81 14.2955 173.844 14.2614 173.742 10.9773L172.233 10.9319V15.1478H170.678V9.09096H175.388V15.1478L175.399 15.1364Z" fill="#005EAA"/>
<path d="M148.377 38.3409V46H150.601V36.8409C148.184 36.8068 148.377 38.3409 148.377 38.3409Z" fill="#005EAA"/>
<path d="M205.428 38.3409V46H207.653V36.8409C205.236 36.8068 205.428 38.3409 205.428 38.3409Z" fill="#005EAA"/>
<path d="M181.527 38.3409V46H183.752V36.8409C181.334 36.8068 181.527 38.3409 181.527 38.3409Z" fill="#005EAA"/>
<path d="M140.081 38.3523H143.951V40.4659H140.183L144.19 46.0114H146.618L143.679 41.5796H145.245C146.051 41.5 146.3 41.1591 146.425 40.6364V38.5569C146.425 37.5909 145.676 36.8637 144.7 36.8637H141.67C140.422 36.8637 140.081 38.3637 140.081 38.3637M140.002 36.8523C137.755 36.8523 137.868 38.4887 137.868 38.4887V46H140.002V36.8409V36.8523Z" fill="#005EAA"/>
<path d="M188.519 38.3523H192.389V40.4659H188.621L192.627 46.0114H195.056L192.116 41.5796H193.682C194.5 41.5 194.738 41.1591 194.863 40.6364V38.5569C194.863 37.5909 194.114 36.8637 193.138 36.8637H190.108C188.859 36.8637 188.519 38.3637 188.519 38.3637M188.428 36.8523C186.181 36.8523 186.283 38.4887 186.283 38.4887V46H188.428V36.8409V36.8523Z" fill="#005EAA"/>
<path d="M114.546 38.5796V46.0114H119.448C120.3 45.9773 120.901 45.9546 121.276 45.8864C121.707 45.8068 122.172 45.6364 122.535 45.3978C123.182 45.0341 123.647 44.5228 123.954 43.8978C124.294 43.25 124.453 42.4887 124.453 41.5455C124.453 40.6023 124.294 39.7841 123.954 39.1137C123.625 38.4546 123.114 37.9205 122.479 37.5568C122.025 37.2841 121.593 37.1023 121.105 37C120.788 36.9318 120.243 36.8523 119.448 36.8523H118.994L118.155 36.9091C117.723 36.9091 117.326 37.3523 117.088 37.7614L116.736 38.3978V36.8523C114.25 36.8523 114.534 38.5796 114.534 38.5796M118.631 44.3182H116.747V38.5682H118.631C118.915 38.5682 119.233 38.6023 119.471 38.6364C120.209 38.7273 120.81 38.9546 121.264 39.3182C121.877 39.8182 122.183 40.5682 122.183 41.5341C122.183 42.5 121.877 43.2273 121.321 43.6591C120.844 44.0114 120.277 44.2046 119.471 44.3068C119.221 44.3409 118.938 44.3409 118.631 44.3409" fill="#005EAA"/>
<path d="M110.505 46H112.525V38.75C112.525 37.6478 112.525 36.8409 111.197 36.8409H108.167C107.872 36.8409 107.418 37.2046 107.225 37.7159L106.919 38.5569H110.539V38.75L110.516 46H110.505ZM104.774 38.5114V46H106.851V36.8409C104.649 37 104.774 38.5114 104.774 38.5114Z" fill="#005EAA"/>
<path d="M154.732 38.5227H158.251V45.9545H160.248V38.6931C160.248 37.5909 160.225 36.7954 158.897 36.8068H156.06C154.71 36.8068 154.732 38.5227 154.732 38.5227ZM152.497 38.5681V45.9886H154.574V36.8181C152.406 36.8181 152.497 38.5681 152.497 38.5681Z" fill="#005EAA"/>
<path d="M212.851 38.5227H216.369V45.9545H218.367V38.6931C218.367 37.5909 218.332 36.7954 217.016 36.8068H214.179C212.828 36.8068 212.851 38.5227 212.851 38.5227ZM210.627 38.5909V45.9886H212.703V36.8181C210.536 36.8181 210.627 38.5909 210.627 38.5909Z" fill="#005EAA"/>
</g>
<defs>
<linearGradient id="paint0_linear_583_3102" x1="2.17149" y1="23.3814" x2="69.5043" y2="28.7919" gradientUnits="userSpaceOnUse">
<stop stop-color="#F1CF00"/>
<stop offset="1" stop-color="#DD960F"/>
</linearGradient>
<clipPath id="clip0_583_3102">
<rect width="238" height="46" fill="white"/>
</clipPath>
</defs>
</svg>
