<svg width="43" height="46" viewBox="0 0 43 46" fill="none" xmlns="http://www.w3.org/2000/svg">
<g clip-path="url(#clip0_583_3570)">
<path fill-rule="evenodd" clip-rule="evenodd" d="M38.1303 24.403C33.9455 22.9302 31.7781 25.5636 31.157 26.4712C30.0123 28.1367 29.7548 32.3638 33.1105 33.6913C34.6262 34.2896 36.299 33.2914 36.5957 32.0085C36.9055 30.763 36.2495 28.7537 33.9425 29.0083C34.2175 28.6128 35.4713 28.374 36.2495 28.7149C37.0481 29.0644 38.7935 30.3229 37.7477 33.3389C36.699 36.3549 33.0393 35.8285 32.0269 35.1626C31.0145 34.4967 30.2494 33.7244 30.2494 31.974C29.5192 31.9035 28.5781 31.833 28.1926 31.4159C27.8115 30.9916 27.5701 30.5717 27.4275 28.7839C27.2893 26.9962 25.9628 24.5784 24.4311 23.0021C25.9628 21.4229 27.2908 19.0052 27.4275 17.2174C27.5701 15.4325 27.8115 15.0125 28.1926 14.5882C28.5795 14.1712 29.5207 14.0978 30.2494 14.0273C30.2494 12.277 31.0145 11.506 32.0269 10.8387C33.0393 10.1742 36.7004 9.64781 37.7477 12.6624C38.7935 15.677 37.0481 16.9384 36.2495 17.2879C35.4698 17.6273 34.216 17.39 33.9425 16.9945C36.2495 17.249 36.9055 15.2369 36.5957 13.9942C36.3004 12.7113 34.6262 11.7103 33.1105 12.3115C29.7548 13.6376 30.0123 17.8646 31.157 19.5316C31.7767 20.4377 33.9455 23.0711 38.1303 21.5998C42.1812 20.1759 42.8692 16.166 42.8692 16.166C43.8104 10.3511 39.5601 6.00181 33.8742 5.96873C28.1926 5.93421 26.7293 9.86067 26.7293 9.86067C24.6377 10.0347 23.5933 10.8401 22.7191 12.2424C21.8493 13.6447 21.0812 16.6234 20.1052 18.3033C19.1278 19.9889 17.871 21.2143 16.1299 23.0021C17.8725 24.7899 19.1292 26.0124 20.1052 27.698C21.0812 29.3808 21.8507 32.3594 22.7191 33.7617C23.5918 35.1626 24.6377 35.9666 26.7293 36.1435C26.7293 36.1435 28.1912 40.07 33.8742 40.0355C39.5601 40.0009 43.8104 35.6545 42.8692 29.8367C42.8692 29.8367 42.1812 25.8297 38.1303 24.4044" fill="#E95506"/>
<path fill-rule="evenodd" clip-rule="evenodd" d="M28.3205 39.5968C26.9823 39.1409 25.5684 39.2257 24.7597 39.4918C23.5393 39.8931 23.2949 40.4195 22.9153 40.9272C21.8811 42.3252 20.6622 41.4478 19.8665 40.2627C19.0316 39.0172 18.2752 37.4768 17.7952 34.478C17.2817 31.2707 14.7624 26.3144 10.9354 23.0021C14.7624 19.6883 17.2817 14.7292 17.7952 11.5233C18.2752 8.52742 19.0316 6.98416 19.8665 5.7415C20.6622 4.55637 21.8811 3.67903 22.9153 5.07415C23.2935 5.58186 23.5378 6.10826 24.7597 6.51241C25.5684 6.77849 26.9823 6.85903 28.3205 6.40598C28.9401 6.19743 30.047 5.65377 30.2492 4.89724C30.5023 3.98826 29.2979 2.84915 29.0201 2.5917C26.8761 0.559437 23.5655 -0.148189 20.5822 0.0258413C17.6614 0.196995 14.073 1.49862 11.7107 4.50603C9.85907 6.86047 9.05905 10.3339 7.58703 13.8015C5.69318 18.2645 2.58185 20.7829 0.0814457 22.9316L0.0756274 22.9345C0.0101717 22.9964 -0.00146484 23.0021 -0.00146484 23.0021L0.0479905 23.0424V23.0453C2.55858 25.1998 5.68154 27.7196 7.58557 32.2027C9.05905 35.6703 9.85761 39.1394 11.7093 41.4953C14.0715 44.5013 17.6599 45.8043 20.5807 45.9741C23.564 46.151 26.8746 45.4419 29.0172 43.4125C29.295 43.1551 30.4994 42.016 30.2463 41.1041C30.0427 40.3476 28.9372 39.8068 28.3176 39.5982" fill="#E95506"/>
</g>
<defs>
<clipPath id="clip0_583_3570">
<rect width="43" height="46" fill="white"/>
</clipPath>
</defs>
</svg>
