<svg width="48" height="46" viewBox="0 0 48 46" fill="none" xmlns="http://www.w3.org/2000/svg">
<g clip-path="url(#clip0_590_3582)">
<path d="M7.48791 29.0508C7.37193 28.8304 7.053 28.5953 7.053 28.5292L7.08199 27.8828C6.88628 27.5669 7.00951 27.6477 6.61808 27.4787C6.48036 27.42 6.07444 27.3612 5.85698 27.3612H5.45831C5.23361 27.3612 5.0089 27.4053 4.86393 27.4787C5.31334 28.3456 5.45831 27.6257 5.45831 28.9773C5.25535 29.0801 4.92917 29.1977 4.67547 29.2711C3.96511 29.4842 4.2768 29.2491 3.86363 29.2124C3.85638 29.3373 3.82014 29.3519 3.82014 29.4989C3.82014 29.8441 4.32029 30.5052 4.61748 30.5052C5.0089 30.5052 5.0379 30.3436 5.37133 30.3436V30.5052C5.37133 30.6595 4.69721 30.8285 4.53774 30.8725C4.05209 30.9974 4.04484 30.9827 3.58093 30.8725V31.4382C3.58093 32.0405 3.82014 32.0626 4.01585 32.3711C3.84188 32.6062 1.68181 33.2232 1.18891 33.3408C1.08018 33.1718 0.978699 32.6503 0.753993 32.6503C0.601773 32.6503 0.384317 33.1718 0.152362 33.2967C0.152362 33.7595 -0.057846 33.9872 0.0871254 34.4133C0.181357 34.6851 0.427808 35.0744 0.753993 35.0744H0.913462C1.16716 35.0744 2.50815 34.3986 2.78359 34.259C3.07353 34.1121 4.41452 33.5244 4.70446 33.495L4.16807 34.619L3.82739 34.5749H3.70416L4.11008 35.0671L3.79114 37.4104L3.82739 37.7777C3.82739 38.1156 3.94336 38.3139 3.94336 38.6298L4.36378 38.9751C4.73346 38.7106 4.57399 38.6151 4.77695 38.4682C4.92192 38.5637 5.08864 38.8355 5.2771 39.0044C5.45106 39.1661 5.58879 39.3497 5.7845 39.504C5.92222 39.6289 6.85004 40.3267 6.96601 40.3267H7.04575C7.27045 40.3267 7.29945 39.7758 7.45892 39.5848C7.68362 39.3203 7.68362 39.1808 7.68362 38.7547C7.68362 38.2037 7.71262 36.9256 7.66188 36.6758C7.50966 36.0147 7.44442 35.3756 7.44442 34.5896C7.44442 34.2002 7.27045 34.0313 7.00226 33.9064C6.82104 33.8109 6.45861 33.5832 6.20491 33.5832H6.16142C6.03095 33.5832 5.92222 33.7962 5.74826 33.8476C5.58154 33.8991 5.35683 34.0313 5.2481 34.0313C5.05964 34.0313 5.28435 33.0616 6.16867 33.0616L6.60359 32.9147L6.72681 32.8486L8.64768 32.5254L8.76366 32.4446L8.77816 32.5033L10.0104 32.2756C9.98867 32.0038 9.41603 31.6439 9.24931 31.6365L7.25596 31.5631L6.93702 31.5998C7.00951 31.3206 7.49516 31.2398 7.49516 30.9166C7.49516 30.5052 7.14723 30.3877 6.82104 30.3143C6.79205 30.2261 6.77755 30.2188 6.77755 30.1159C6.77755 29.8808 6.95152 29.6605 7.09649 29.5576C7.31394 29.4181 7.37193 29.2858 7.49516 29.0581M5.89323 34.7512C6.12518 34.6924 5.93672 34.5896 6.13243 34.5896C6.29915 34.5896 6.24841 34.7438 6.32814 34.9936C6.34264 35.0671 6.32814 35.1993 6.29915 35.214C6.2774 35.2287 6.16867 35.045 6.14693 35.0377C5.99471 34.9862 5.82799 34.8908 5.70476 34.8173L5.89323 34.7512ZM6.44412 35.8457L6.5311 36.4554C6.40787 36.4922 6.19767 36.404 6.08894 36.3159L6.44412 35.8457ZM4.94366 36.5362C4.97991 36.5436 5.44382 37.1239 5.56704 37.2341C5.95122 37.5573 6.11068 37.4912 6.53835 37.5793V38.0274L6.48761 38.4682C6.42237 38.5196 6.42237 38.549 6.33539 38.549C5.89323 38.549 5.28435 38.0348 4.90017 37.9393V37.6969L4.94366 36.5215V36.5362Z" fill="#141839"/>
<path d="M27.0662 31.2765L27.4214 31.3279H28.023C28.2477 31.6512 28.3782 32.7383 28.3782 33.2966C28.0447 33.3774 28.255 33.113 28.0882 32.753C28.023 32.6135 27.6751 32.4151 27.5373 32.4151L27.2836 32.4298C27.0155 31.8348 26.8342 31.8275 26.6458 31.541L27.0589 31.2839L27.0662 31.2765ZM27.2474 33.4436C27.2474 33.4436 27.2039 33.6125 27.2619 33.6345C27.2619 33.6345 27.4286 33.6419 27.4649 33.5684C27.4649 33.5684 27.4649 33.5097 27.3779 33.495L27.3561 33.4656L27.2474 33.4509V33.4436ZM27.5084 34.5161C27.7331 34.4646 28.3999 33.9872 28.4579 34.1928C28.5521 34.5234 28.5159 35.1258 28.5159 35.5224C28.5159 35.6253 28.5232 35.6473 28.5377 35.8016C28.5014 35.8016 28.3854 35.7869 28.3637 35.7649L28.4362 35.9779C28.4869 36.1542 28.5449 36.235 28.5449 36.3966V36.7712C28.4072 37.5719 25.9064 35.662 27.9578 37.8805C28.11 38.0494 28.7334 38.5563 28.9798 38.5563C29.103 38.593 29.3712 37.9392 29.3785 37.6674V36.8594C29.3785 36.7198 29.3495 36.7051 29.3422 36.5729H29.6177C29.7482 36.5803 30.3643 35.4931 30.4585 35.2874C30.5383 35.1331 31.1616 33.9872 31.2849 33.9872H31.5023C31.4806 34.9935 31.2486 36.0587 31.6835 36.7786C32.1184 37.4911 32.8071 37.7115 33.9233 37.7115H34.2423C34.9744 37.7115 36.4676 37.2047 36.4676 36.5362V36.4921C36.4676 35.9779 36.3371 35.5151 36.0689 35.0817L35.4093 34.4499L35.3948 34.7511C35.4093 35.4269 35.1411 36.1028 34.9236 36.4921C34.6917 36.9182 33.7204 36.9402 33.1985 36.9402H33.1115C32.9013 36.9402 32.4736 36.6464 32.3794 36.5068C32.2054 36.2423 32.1547 35.9852 32.1547 35.5665C32.1547 35.3168 32.3649 35.0009 32.4736 34.8393C32.6621 34.2516 32.7926 34.0239 32.7926 33.5023C32.7926 33.3481 32.7563 33.2379 32.7128 33.1938L32.6476 33.1718L32.5751 33.135C32.4011 33.0763 32.1692 33.0322 32.0025 33.0322L31.6763 33.0469C31.8285 32.3931 32.9955 31.4969 32.9955 31.2765V31.2398C32.9955 30.8798 32.6041 30.9386 32.3939 30.799L31.6763 30.7476C31.7053 30.4317 31.959 30.0424 31.959 29.7559C31.959 29.5429 31.8357 29.5135 31.7125 29.4254L30.5238 29.227L30.4005 29.2637C30.4585 29.3886 30.56 29.5796 30.56 29.7118C30.56 30.1673 30.4005 30.8798 30.2483 31.4014C30.1976 31.563 30.1976 31.6291 30.0816 31.776H29.9584C29.8134 31.7613 29.8931 31.6658 29.6757 31.6658C29.5814 31.6658 29.5597 31.754 29.5524 31.8128L29.5742 31.9817L30.2411 32.7016H30.5238C30.5817 32.7016 30.7775 32.5841 30.8644 32.5474L30.5455 33.4582H30.2411C30.2846 33.6345 30.3643 33.6199 30.3643 33.6786C30.3643 33.8255 29.422 35.3829 29.2987 35.4784L29.19 34.5307L29.2045 33.113C29.2045 32.6575 29.3567 31.7393 29.3277 31.4602C29.277 31.0855 29.0813 31.2177 28.8276 31.0782C28.5594 30.9313 28.5666 30.8872 28.4144 30.6448L28.1752 30.6668C28.0955 30.6448 28.1245 30.6668 28.0158 30.6962L28.4507 29.6604L28.4217 29.6384L28.0158 29.4621C27.8925 29.3886 27.2619 29.1168 27.1459 29.1168C27.1459 29.1168 26.7545 29.3299 26.711 29.4033L27.1169 29.5135C27.0734 29.8367 26.9937 30.1159 26.8922 30.4244C26.7038 30.9827 26.6385 30.8505 26.6385 31.2986L26.624 31.4969L26.3848 31.3941C26.4066 31.7467 26.653 31.8862 26.653 32.0993V32.327C26.653 32.4225 26.6168 32.4592 26.5225 32.4592H26.2399C26.2399 32.5033 26.2544 32.5327 26.2906 32.5694C26.4283 32.6575 26.6095 32.7457 26.653 32.8485C26.5515 33.8549 26.8125 34.0092 25.8629 34.2369C25.5367 34.3177 24.5872 34.5601 24.203 34.5601C24.058 34.5601 24.0725 34.5601 23.9276 34.5307C23.9276 34.4206 23.9058 34.2589 23.8043 34.2589C23.7246 34.2589 23.6304 34.4793 23.6304 34.5528C23.6304 34.5528 23.7391 34.9862 23.9276 35.2286C24.0508 35.449 24.087 35.6326 24.4422 35.6326C24.4929 35.6326 25.3483 35.4123 25.4643 35.3755C25.6165 35.3241 26.3123 35.0303 26.3558 35.0303C26.3558 35.2727 26.3051 35.6179 26.2616 35.8604C26.2254 36.0734 26.0804 36.5362 26.0804 36.6023C26.0804 36.7345 26.4646 37.7336 26.595 37.7336C26.7907 37.7336 27.0082 37.1165 27.0517 36.8594C27.1024 36.5729 27.1532 35.9632 27.1532 35.6694V35.067C27.3924 35.1331 27.5373 35.8383 27.878 35.7942L28.3129 35.7502L28.3927 35.7355L28.3782 35.7134C28.2187 35.471 28.2622 34.8025 27.5156 34.6262V34.5528L27.5084 34.5161Z" fill="#141839"/>
<path d="M17.3529 29.6458C17.2224 29.5871 16.6425 29.3446 16.5411 29.3446C16.6643 29.1022 16.7803 29.1757 16.7803 28.8598C16.7803 28.4631 15.6277 28.2354 15.345 28.0885L14.9826 28.1767L15.3378 28.6321C15.1856 28.9774 15.1058 29.5724 14.7869 29.7854L14.0693 29.6679V29.7854C14.0693 29.9544 14.3665 30.0425 14.3882 30.4318C14.41 30.7551 14.4317 30.9828 14.4317 31.328V31.4456L14.1273 33.7448L14.149 34.1121C14.149 34.6117 14.5332 34.9936 14.5477 35.2067L14.0331 35.3389L13.8953 35.1332L13.7504 34.8981L13.7141 34.9275C13.7141 35.2214 13.6344 35.1038 13.6344 35.2507C13.6489 35.5079 14.2143 36.2718 14.352 36.1837C14.4607 36.1837 14.4607 36.1176 14.6347 36.0955C14.6347 36.6538 14.5042 36.9844 13.9533 36.9844C13.6561 36.9844 13.4024 36.9623 13.2357 36.7052C13.2647 36.6391 13.272 36.6465 13.272 36.5436V36.4996C13.272 36.1102 13.1125 35.6034 12.8733 35.4491C12.808 35.6988 12.4746 36.1102 12.4746 36.3379V36.7787C12.4746 37.0505 12.6848 37.6235 12.808 37.7777C12.9893 38.0202 13.0327 38.4242 13.4387 38.4315C14.1925 38.1818 14.8594 37.8145 15.6422 37.6382C15.8669 37.5867 16.1061 37.55 16.3236 37.5133C16.5411 37.4766 16.686 37.6235 16.947 37.6235C17.0412 37.6235 17.1644 37.3443 17.3094 37.3443H17.3456C17.4399 37.3443 17.882 37.9687 18.056 38.0863C18.201 38.1891 18.8099 38.5564 18.9838 38.5564C19.7522 38.5564 19.9261 37.7337 20.1726 37.168C20.2596 36.9697 20.7017 35.7429 20.7017 35.5666V35.0451C20.7017 34.7953 20.2886 34.641 20.1073 34.5602C20.0421 34.5309 19.397 34.237 19.3897 34.237C19.368 34.237 18.8244 34.4207 18.7881 34.4427H17.1137L17.3456 34.3105V33.9138C17.3456 33.4216 19.426 33.9652 19.426 33.473C19.426 33.238 19.0346 32.9294 18.8606 32.8339C18.3677 32.5842 18.317 32.8193 17.9545 32.8193H17.3529V32.5842C17.3529 31.8863 17.5124 31.1664 17.5559 30.52C17.5776 30.1307 17.6646 29.8001 17.3674 29.6532M16.0264 29.7634C16.1569 29.8148 16.2656 29.8662 16.2946 30.0352C16.3163 30.1307 16.3816 30.4539 16.3816 30.4686V30.6743L15.9394 30.5273L15.4248 30.4318L15.2726 29.969L16.0264 29.7707V29.7634ZM16.3816 31.2399H16.4251L16.4831 31.8496L15.9032 31.7761C15.8814 31.5337 16.1786 31.6219 16.3816 31.2399ZM15.2218 33.4216C15.2218 33.1719 15.6132 33.0102 15.7872 32.9441C16.0337 32.856 16.2511 32.687 16.4613 32.5768V33.0176L15.2218 33.429V33.4216ZM14.8666 34.3105C15.4248 34.5823 15.8234 34.0387 16.3816 33.9873L16.5048 34.5529C16.0699 34.5896 15.548 34.8761 15.2291 34.8761C15.2218 34.8761 14.8231 34.7659 14.7507 34.7512L14.8739 34.3031L14.8666 34.3105ZM18.7664 35.1993L19.2085 35.2434C19.2085 35.6842 19.0273 36 18.8751 36.3159C18.7446 36.595 18.6649 37.0946 18.288 37.0946H18.2082C17.9618 37.0946 17.8748 37.0725 17.6863 37.0578C17.4109 37.0431 17.4979 36.977 17.5486 36.7493C17.5921 36.5289 17.6863 36.0074 17.6863 35.809C17.6863 35.6988 17.1862 35.4124 17.0122 35.3977V35.3095L18.085 35.1773L18.7591 35.1993H18.7664ZM15.4393 30.7844C15.4393 30.7844 15.5335 30.7991 15.5408 30.9607C15.5408 30.9607 15.5045 31.3133 15.4538 31.4015C15.4538 31.4015 15.4175 31.4456 15.4175 31.3648L15.4393 30.9681V30.7844ZM15.3813 31.9377C15.3813 31.9377 15.4175 32.1361 15.3813 32.2463C15.3378 32.3638 15.316 32.2316 15.316 32.2316C15.316 32.2316 15.3233 32.0847 15.3305 32.0479L15.345 31.9892V31.9598C15.345 31.9598 15.3595 31.9304 15.3813 31.9377ZM15.8234 36.0074C15.8234 35.5813 16.0482 35.4785 16.4613 35.4785C16.5193 35.4785 16.628 35.6695 16.657 35.7209C16.657 36.5069 16.5628 36.382 15.8234 36.4481V36V36.0074Z" fill="#141839"/>
<path d="M43.3027 36.6538C43.4985 36.573 44.1436 35.6694 44.1436 35.3609C44.1436 35.1111 43.5854 34.8173 43.5057 34.472C43.8681 34.3839 44.8612 33.3334 44.8612 32.8927C44.8612 32.5474 43.8101 32.1581 43.4187 32.114L43.1723 32.3858C43.339 32.4372 43.513 32.5915 43.513 32.7678V32.8045C43.513 33.7301 42.1865 34.5455 41.3964 34.5455C41.2949 34.5455 41.0412 34.3398 40.9107 34.3031C40.86 34.4133 40.8745 34.2737 40.8745 34.428V34.4647C40.9035 34.8981 41.1572 35.8237 41.4689 36.0808C41.5558 36.1543 41.7516 36.2424 41.7516 36.3673V36.5289C41.7516 37.0945 41.1572 36.9256 41.0774 37.7042C41.0267 38.1376 41.0774 38.2185 41.1064 38.5123C41.1282 38.7253 41.3239 39.0779 41.4254 39.0779C41.4399 39.0779 43.1215 38.5784 43.2375 38.527C43.6362 38.3654 44.9482 38.2919 45.0496 38.0275C45.1004 37.9173 44.5785 37.2121 44.4408 37.1092C44.0711 36.8448 43.368 36.9182 43.2955 36.6464" fill="#141839"/>
<path d="M41.4257 29.2932C41.6867 29.3666 42.1143 30.0792 42.1433 30.4244C41.9041 30.4832 41.3532 30.6668 41.1068 30.6668C40.8893 30.6668 40.7081 30.4465 40.3892 30.4244C40.5051 30.946 40.8458 31.5851 41.4619 31.5998C41.4475 32.1948 41.0633 32.4299 41.0633 33.0983V33.2599C41.0633 33.4362 41.346 33.7448 41.4474 33.8329C41.5634 33.8256 41.7664 33.7448 42.1941 33.3114C42.3245 33.1498 42.6797 32.7604 42.7015 32.518L42.1868 32.6135C42.1868 32.3417 42.3825 32.2021 42.3825 32.0479C42.3825 31.8936 42.2086 31.6292 42.1433 31.5263C42.3318 31.5116 42.3463 31.4455 42.5492 31.4455C42.687 31.4455 42.7594 31.5704 42.8609 31.5704C43.2089 31.5704 43.4191 31.159 43.8032 30.9974C44.1004 30.8652 44.8978 30.7476 44.934 30.4612L45.4487 30.4758V30.5567C45.1732 30.6154 45.0137 30.8284 44.76 30.9386C44.4339 31.0709 44.3469 31.2031 44.3686 31.563C44.6368 31.5851 45.3254 31.8055 45.4487 31.8055H46.1663L47.8842 31.5263C47.9204 31.4602 48.0002 31.3794 48.0002 31.2839C48.0002 30.968 46.9129 29.8735 46.6012 29.8735C46.4635 29.8735 46.0793 30.0351 46.043 30.0351H45.7241C45.4632 30.0351 45.2529 29.8735 44.9268 29.8735H44.2889C43.9192 29.8735 43.6003 30.0277 43.2886 30.0351C43.1871 29.5943 42.1071 29.1462 41.6504 29.1462H41.5707C41.4547 29.1462 41.433 29.2197 41.404 29.3079" fill="#141839"/>
<path d="M38.8304 30.5126L38.8738 30.6742C38.8738 31.137 38.4969 32.4225 38.4389 32.9735C38.3737 33.5538 38.4462 34.9569 38.9898 34.9569H39.1565C39.2218 34.7144 39.5335 34.4353 39.5842 34.3031C39.6277 34.1782 39.8669 33.5832 39.8669 33.5464L39.6422 33.686L39.6784 33.0616L39.6639 32.9735C39.6639 32.4299 39.577 31.9671 39.3957 31.5851C39.2508 31.2619 39.1565 30.5934 38.8231 30.5052" fill="#141839"/>
<path d="M2.50076 43.8748C2.50076 43.4267 2.39928 43.0594 2.20356 42.7729C2.00785 42.4864 1.7614 42.3395 1.46421 42.3395C1.20326 42.3395 1.00755 42.4423 0.848082 42.6333C0.695862 42.839 0.616128 43.1035 0.616128 43.4267C0.616128 43.8821 0.717608 44.2494 0.906071 44.5286C1.09453 44.8151 1.34098 44.9546 1.63818 44.9546C1.89912 44.9546 2.10933 44.8591 2.26155 44.6608C2.41377 44.4625 2.50076 44.198 2.50076 43.8674M0.869828 45.1236C0.587134 44.9693 0.369677 44.7636 0.224706 44.5065C0.0724857 44.2494 0 43.9556 0 43.6177C0 43.1475 0.137723 42.7656 0.427665 42.4791C0.710359 42.1926 1.08728 42.0457 1.55119 42.0457C1.73241 42.0457 1.90637 42.075 2.06584 42.1265C2.22531 42.1779 2.37028 42.2587 2.50076 42.3615C2.68922 42.5158 2.83419 42.7141 2.93567 42.9492C3.0444 43.1916 3.08789 43.4414 3.08789 43.7205C3.08789 44.1613 2.95741 44.5212 2.68922 44.8077C2.42102 45.0869 2.06584 45.2411 1.61643 45.2705C1.86288 45.3807 2.07309 45.4688 2.2688 45.535C2.45726 45.6011 2.58774 45.6304 2.65298 45.6304C2.69647 45.6304 2.73996 45.6231 2.7762 45.6084C2.81244 45.5937 2.84869 45.5643 2.87768 45.535C2.89218 45.5129 2.91392 45.4835 2.95017 45.4468C3.00091 45.3807 3.03715 45.3366 3.08789 45.3366C3.13863 45.3366 3.15313 45.3513 3.17487 45.3733C3.18937 45.3954 3.19662 45.4248 3.19662 45.4762C3.19662 45.6158 3.12413 45.7333 2.97191 45.8435C2.83419 45.9537 2.65297 46.0051 2.44277 46.0051C2.31954 46.0051 2.18907 45.9904 2.05859 45.9537C1.92087 45.9169 1.7614 45.8582 1.58019 45.77C1.47871 45.7259 1.34823 45.6672 1.18152 45.5937C0.891574 45.4541 0.724857 45.388 0.681365 45.388C0.623377 45.388 0.55814 45.4174 0.500151 45.4762C0.492902 45.4762 0.485654 45.4909 0.478405 45.4909C0.478405 45.4909 0.478405 45.4982 0.471157 45.5129C0.413168 45.5717 0.362428 45.6084 0.311688 45.6084C0.260948 45.6084 0.231954 45.5937 0.210208 45.5717C0.181214 45.5423 0.173966 45.5129 0.173966 45.4688C0.173966 45.366 0.224706 45.2852 0.326185 45.2191C0.427665 45.153 0.55814 45.1236 0.717608 45.1236C0.739354 45.1236 0.761099 45.1236 0.790094 45.1236C0.811839 45.1236 0.840834 45.1309 0.862579 45.1383" fill="#141839"/>
<path d="M4.09538 43.6323C4.09538 43.3018 4.09538 43.03 4.07363 42.8169C4.05914 42.6113 4.04464 42.4937 4.03739 42.4643C4.02289 42.4423 3.97215 42.4129 3.89967 42.3835C3.82718 42.3542 3.79094 42.3101 3.79094 42.2513C3.79094 42.1925 3.81993 42.1558 3.88517 42.1338C3.95041 42.1117 4.11713 42.097 4.36358 42.097C4.61003 42.097 4.77674 42.1044 4.83473 42.1338C4.89272 42.1558 4.92896 42.1925 4.92896 42.2513C4.92896 42.3101 4.87822 42.3615 4.79849 42.3909C4.74775 42.4056 4.71876 42.4203 4.69701 42.435C4.66802 42.457 4.65352 42.5378 4.63902 42.6847C4.63177 42.8316 4.62452 43.0667 4.62452 43.3899C4.62452 43.8307 4.62452 44.1759 4.63902 44.4183C4.63902 44.6681 4.66077 44.8077 4.67526 44.8371C4.68976 44.8591 4.7405 44.8811 4.81299 44.9179C4.88547 44.9473 4.92896 44.9913 4.92896 45.0501C4.92896 45.1162 4.89272 45.1603 4.81299 45.1823C4.73325 45.2044 4.58828 45.2191 4.34908 45.2191C4.13162 45.2191 3.9794 45.2117 3.89967 45.1823C3.81993 45.1603 3.78369 45.1089 3.78369 45.0501C3.78369 44.9913 3.82718 44.9473 3.91417 44.9105C3.95766 44.8958 3.98665 44.8811 4.00115 44.8664C4.03014 44.8371 4.05189 44.7416 4.06639 44.5726C4.08088 44.3963 4.08813 44.0878 4.08813 43.6323" fill="#141839"/>
<path d="M6.2338 42.8023C6.2338 42.8463 6.22656 42.8904 6.22656 42.9492V43.4487C6.22656 44.0804 6.2338 44.4771 6.2483 44.6387C6.27005 44.8003 6.29904 44.8738 6.34253 44.8738C6.37878 44.8738 6.42227 44.8958 6.46576 44.9252C6.502 44.9619 6.531 44.9913 6.531 45.0354C6.531 45.1015 6.49475 45.1456 6.42952 45.175C6.35703 45.197 6.24105 45.2117 6.07434 45.2117C5.90762 45.2117 5.78439 45.197 5.71916 45.175C5.65392 45.1456 5.61768 45.1015 5.61768 45.0354C5.61768 44.984 5.64667 44.9399 5.7264 44.9105C5.80614 44.8738 5.84238 44.8518 5.86413 44.8297C5.88587 44.8077 5.90037 44.6828 5.90762 44.4845C5.91487 44.2788 5.92212 43.9849 5.92212 43.625C5.92212 43.2944 5.92212 43.03 5.90762 42.8169C5.89312 42.6039 5.88587 42.479 5.86413 42.457C5.84963 42.435 5.80614 42.4056 5.7264 42.3762C5.64667 42.3468 5.61768 42.3027 5.61768 42.2513C5.61768 42.1999 5.64667 42.1485 5.70466 42.1338C5.7699 42.1044 5.88587 42.097 6.06709 42.097C6.19031 42.097 6.2628 42.097 6.30629 42.1044C6.34978 42.1044 6.37153 42.1191 6.39327 42.1338C6.42952 42.1632 6.531 42.288 6.69046 42.5084C6.85718 42.7288 6.9949 42.9124 7.12538 43.0594L7.60378 43.6617C7.73426 43.8307 7.84299 43.9629 7.92997 44.0657C8.01695 44.1686 8.08944 44.2494 8.15467 44.3229C8.15467 44.3008 8.15467 44.2714 8.15467 44.2347V44.0731C8.15467 43.647 8.15467 43.2944 8.14018 43.0006C8.14018 42.7068 8.12568 42.5378 8.11118 42.4864C8.10393 42.4717 8.08944 42.457 8.08219 42.4423C8.06769 42.4276 8.04595 42.4203 8.03145 42.4129C7.95171 42.3835 7.90097 42.3615 7.88648 42.3395C7.87198 42.3174 7.85748 42.288 7.85748 42.2587C7.85748 42.1999 7.88648 42.1558 7.94447 42.1411C8.0097 42.1191 8.12568 42.1044 8.32139 42.1044C8.49536 42.1044 8.61133 42.1117 8.66932 42.1411C8.72731 42.1558 8.7563 42.1999 8.7563 42.2587C8.7563 42.288 8.74906 42.3174 8.73456 42.3321C8.71281 42.3542 8.68382 42.3762 8.64758 42.3909C8.64033 42.3982 8.62583 42.4056 8.61133 42.4129C8.55334 42.435 8.5171 42.4643 8.50261 42.4937C8.48811 42.5525 8.47361 42.7288 8.46636 43.0153C8.45911 43.2944 8.45186 43.7352 8.45186 44.3155C8.45186 44.4404 8.45186 44.5726 8.45186 44.7269C8.45186 44.8811 8.45186 44.9693 8.45186 44.9987C8.45186 45.1015 8.44462 45.175 8.43012 45.2044C8.41562 45.2264 8.39388 45.2411 8.35039 45.2411C8.20541 45.2411 7.87923 44.9179 7.36458 44.2714L7.29934 44.1833L6.82819 43.5883C6.61073 43.3091 6.47301 43.1255 6.38602 43.03C6.31354 42.9418 6.25555 42.8684 6.21206 42.8243" fill="#141839"/>
<path d="M11.5323 42.1485C11.583 42.1338 11.6265 42.1191 11.6628 42.1118C11.699 42.1118 11.7208 42.1044 11.7425 42.1044C11.7787 42.1044 11.8077 42.1191 11.8367 42.1485C11.8657 42.1779 11.8875 42.2293 11.9165 42.2954C11.9455 42.3836 11.9745 42.4791 11.9962 42.5746C12.0179 42.6701 12.0252 42.7509 12.0252 42.8023C12.0252 42.8464 12.0107 42.8905 11.9889 42.9125C11.96 42.9419 11.931 42.9566 11.8947 42.9566C11.844 42.9566 11.7715 42.9051 11.699 42.8023C11.6773 42.7803 11.6628 42.7582 11.6555 42.7509C11.6483 42.7362 11.6338 42.7288 11.6265 42.7068C11.5323 42.5966 11.4526 42.5158 11.3801 42.4644C11.3076 42.4203 11.2206 42.3836 11.1264 42.3542C11.0249 42.3322 10.9162 42.3175 10.7929 42.3175C10.503 42.3175 10.2783 42.413 10.1188 42.6187C9.9521 42.8243 9.87237 43.1035 9.87237 43.4634C9.87237 43.8968 9.98109 44.2494 10.1913 44.5212C10.4015 44.8004 10.6625 44.94 10.9814 44.94C11.1699 44.94 11.3148 44.8885 11.4091 44.7783C11.5105 44.6682 11.5613 44.5139 11.5613 44.3229C11.5613 44.2568 11.5468 44.2054 11.525 44.176C11.5033 44.1393 11.4598 44.1172 11.4018 44.0952C11.3728 44.0952 11.3366 44.0805 11.2931 44.0658C11.1699 44.0364 11.1119 43.9997 11.1119 43.9409C11.1119 43.8675 11.1481 43.8234 11.2351 43.8013C11.3221 43.7793 11.5468 43.7646 11.9092 43.7646C12.1412 43.7646 12.2861 43.772 12.3514 43.8013C12.4166 43.8234 12.4456 43.8675 12.4456 43.9336C12.4456 43.9703 12.4456 43.9997 12.4166 44.0144C12.4021 44.0364 12.3659 44.0511 12.3079 44.0658C12.3079 44.0658 12.2861 44.0658 12.2716 44.0805C12.1992 44.1025 12.1484 44.1319 12.1339 44.1686C12.1194 44.198 12.1049 44.2568 12.0832 44.3523C12.0832 44.3817 12.0759 44.3964 12.0687 44.4111C12.0397 44.5433 12.0107 44.6461 11.9744 44.7122C11.9455 44.7783 11.902 44.8371 11.8657 44.8959C11.7642 45.0134 11.6338 45.1089 11.4743 45.175C11.3076 45.2411 11.1191 45.2705 10.9017 45.2705C10.4233 45.2705 10.0318 45.1163 9.73464 44.8077C9.43745 44.4992 9.29248 44.0952 9.29248 43.5957C9.29248 43.1329 9.4302 42.7582 9.7129 42.4717C9.99559 42.1852 10.358 42.0383 10.8074 42.0383C10.9162 42.0383 11.0321 42.0457 11.1481 42.0677C11.2713 42.0898 11.3946 42.1118 11.5323 42.1412" fill="#141839"/>
<path d="M15.2874 43.6985C15.2874 43.2724 15.1932 42.9419 15.0119 42.7215C14.8235 42.4938 14.5553 42.3836 14.2001 42.3836C14.0914 42.3836 13.9971 42.3983 13.9391 42.4203C13.8739 42.4423 13.8304 42.4717 13.8159 42.5232C13.8014 42.5746 13.7869 42.6848 13.7724 42.8537C13.7652 43.0153 13.7579 43.2357 13.7579 43.5075C13.7579 43.8381 13.7579 44.1099 13.7724 44.3376C13.7869 44.558 13.8014 44.6975 13.8159 44.7416C13.8232 44.7857 13.8812 44.8224 13.9826 44.8518C14.0769 44.8812 14.1928 44.9032 14.3161 44.9032C14.6423 44.9032 14.8887 44.8004 15.0554 44.602C15.2221 44.3964 15.3019 44.1025 15.3019 43.6985M13.3085 45.2044C13.1346 45.2044 13.0258 45.1897 12.9678 45.1677C12.9099 45.1456 12.8809 45.1016 12.8809 45.0428C12.8809 44.9914 12.9244 44.9473 12.9968 44.9179C13.0693 44.8885 13.1128 44.8591 13.1346 44.8371C13.1563 44.8077 13.1708 44.6902 13.1781 44.4698C13.1925 44.2494 13.1925 43.9776 13.1925 43.6324C13.1925 43.3239 13.1925 43.0521 13.1781 42.839C13.1708 42.6186 13.1491 42.4938 13.1346 42.4717C13.1201 42.4497 13.0766 42.4203 12.9968 42.3909C12.9244 42.3615 12.8809 42.3175 12.8809 42.2587C12.8809 42.1999 12.9171 42.1632 12.9751 42.1338C13.0331 42.1118 13.1491 42.0971 13.3158 42.0971C13.352 42.0971 13.41 42.0971 13.497 42.0971C13.584 42.0971 13.6565 42.0971 13.7144 42.0971C13.7869 42.0971 13.8739 42.0971 13.9899 42.0897C14.1131 42.0897 14.1928 42.0824 14.2436 42.0824C14.7727 42.0824 15.1787 42.222 15.4758 42.5011C15.7658 42.7803 15.9108 43.1769 15.9108 43.6838C15.9108 44.1907 15.7658 44.558 15.4686 44.8224C15.1787 45.0795 14.7437 45.2117 14.1784 45.2117C14.1276 45.2117 14.0479 45.2117 13.9319 45.2044C13.8159 45.2044 13.7289 45.2044 13.6637 45.2044C13.6202 45.2044 13.5622 45.2044 13.4897 45.2044C13.41 45.2117 13.352 45.2117 13.3085 45.2117" fill="#141839"/>
<path d="M18.1287 43.9336C18.0562 43.7205 17.9765 43.5222 17.904 43.3386C17.8315 43.1549 17.7663 42.986 17.6938 42.8317H17.6431C17.5633 43.008 17.4909 43.1843 17.4184 43.3679C17.3459 43.5516 17.2806 43.7426 17.2082 43.9336C17.2806 43.9336 17.3604 43.9262 17.4329 43.9189C17.5126 43.9189 17.5923 43.9189 17.6793 43.9189C17.7518 43.9189 17.8243 43.9189 17.904 43.9189C17.9765 43.9189 18.0562 43.9189 18.1287 43.9262M17.0559 43.4855C17.0704 43.4414 17.0994 43.3753 17.1357 43.2945C17.3386 42.7803 17.4691 42.413 17.5126 42.1999C17.5271 42.1338 17.5488 42.0898 17.5778 42.0677C17.6068 42.0457 17.6648 42.0383 17.7373 42.0383C17.788 42.0383 17.8315 42.0457 17.8678 42.0677C17.8968 42.0898 17.9258 42.1265 17.9548 42.1779C18.0345 42.3395 18.1432 42.5746 18.2809 42.8905C18.4187 43.2063 18.5564 43.5516 18.7014 43.9115C18.7304 43.9703 18.7594 44.0585 18.8028 44.1686C18.9623 44.5874 19.0928 44.8151 19.187 44.8665C19.1943 44.8812 19.2233 44.8885 19.2595 44.9032C19.3465 44.9253 19.39 44.9767 19.39 45.0281C19.39 45.0942 19.3465 45.1456 19.2595 45.1677C19.1725 45.1897 19.0058 45.2044 18.7521 45.2044C18.4984 45.2044 18.3317 45.1971 18.252 45.1677C18.165 45.1456 18.1215 45.0942 18.1215 45.0281C18.1215 44.9767 18.1722 44.9326 18.2737 44.8959C18.2882 44.8959 18.2954 44.8885 18.3099 44.8812C18.3462 44.8665 18.3824 44.8518 18.3897 44.8298C18.4042 44.8077 18.4114 44.7857 18.4114 44.749C18.4114 44.7122 18.3969 44.6461 18.3824 44.5653C18.3607 44.4845 18.3317 44.4111 18.3027 44.3376C18.2882 44.3009 18.2737 44.2788 18.2664 44.2715C18.2664 44.2641 18.252 44.2568 18.2375 44.2568C18.2157 44.2568 18.1577 44.2421 18.0707 44.2348C17.991 44.2348 17.8823 44.2348 17.7518 44.2348H17.6431C17.4329 44.2348 17.2879 44.2348 17.2082 44.2494C17.1357 44.2568 17.0994 44.2715 17.0777 44.2935C17.0487 44.3302 17.0124 44.3964 16.9835 44.4772C16.9545 44.558 16.9327 44.6241 16.9327 44.6829C16.9327 44.7269 16.94 44.7637 16.9617 44.8004C16.9835 44.8298 17.0197 44.8592 17.0632 44.8665C17.0777 44.8738 17.0994 44.8885 17.1357 44.8959C17.2227 44.9253 17.2734 44.9693 17.2734 45.0281C17.2734 45.0942 17.2299 45.1456 17.1647 45.1677C17.0922 45.1897 16.9472 45.2044 16.7298 45.2044C16.5123 45.2044 16.3746 45.1971 16.3021 45.1677C16.2296 45.1456 16.1934 45.0942 16.1934 45.0281C16.1934 44.9693 16.2369 44.9253 16.3166 44.8959C16.3528 44.8812 16.3891 44.8665 16.4036 44.8592C16.5123 44.793 16.6138 44.6388 16.7008 44.389C16.7225 44.3376 16.7443 44.2935 16.7515 44.2641L17.0559 43.4855Z" fill="#141839"/>
<path d="M21.8833 43.8748C21.8833 43.434 21.7891 43.0594 21.5934 42.7802C21.3904 42.4938 21.1512 42.3468 20.8468 42.3468C20.5931 42.3468 20.3901 42.4497 20.2306 42.6407C20.0784 42.8464 19.9987 43.1108 19.9987 43.434C19.9987 43.8895 20.0929 44.2568 20.2886 44.5359C20.4843 44.8224 20.7308 44.962 21.028 44.962C21.2889 44.962 21.4919 44.8665 21.6514 44.6681C21.8036 44.4698 21.8833 44.2053 21.8833 43.8748ZM20.97 45.2778C20.796 45.2778 20.6293 45.2485 20.4698 45.197C20.3176 45.1456 20.1654 45.0722 20.0349 44.9767C19.8247 44.8224 19.6725 44.6314 19.5638 44.3963C19.455 44.1686 19.4043 43.9042 19.4043 43.6103C19.4043 43.1402 19.5493 42.7656 19.832 42.4791C20.1219 42.1926 20.4916 42.0457 20.9555 42.0457C21.1367 42.0457 21.3034 42.075 21.4701 42.1265C21.6296 42.1779 21.7746 42.2587 21.9051 42.3615C22.0863 42.5158 22.2385 42.7141 22.34 42.9492C22.4414 43.1916 22.4994 43.4414 22.4994 43.7205C22.4994 43.8968 22.4777 44.0658 22.4269 44.22C22.3762 44.3816 22.311 44.5286 22.224 44.6534C22.079 44.8444 21.8978 44.9987 21.6876 45.1089C21.4629 45.2191 21.2237 45.2705 20.9772 45.2705" fill="#141839"/>
<path d="M27.0734 43.9336C26.9937 43.7205 26.9212 43.5222 26.8487 43.3386C26.7762 43.1549 26.7037 42.986 26.6385 42.8317H26.5732C26.5008 43.008 26.4283 43.1843 26.3558 43.3679C26.2833 43.5516 26.2181 43.7426 26.1456 43.9336C26.2253 43.9336 26.2978 43.9262 26.3775 43.9189C26.45 43.9189 26.5298 43.9189 26.6167 43.9189C26.6892 43.9189 26.769 43.9189 26.8414 43.9189C26.9212 43.9189 26.9937 43.9189 27.0662 43.9262M26.0079 43.4855C26.0224 43.4414 26.0441 43.3753 26.0803 43.2945C26.2833 42.7803 26.4138 42.413 26.4573 42.1999C26.4718 42.1338 26.4935 42.0898 26.5298 42.0677C26.5588 42.0457 26.6095 42.0383 26.6892 42.0383C26.74 42.0383 26.7835 42.0457 26.8197 42.0677C26.8487 42.0898 26.8777 42.1265 26.9139 42.1779C26.9864 42.3395 27.1024 42.5746 27.2401 42.8905C27.3778 43.2063 27.5156 43.5516 27.6533 43.9115C27.6823 43.9703 27.7113 44.0585 27.7548 44.1686C27.9142 44.5874 28.0447 44.8151 28.1389 44.8665C28.1534 44.8812 28.1679 44.8885 28.2114 44.9032C28.2984 44.9253 28.3419 44.9767 28.3419 45.0281C28.3419 45.0942 28.3057 45.1456 28.2114 45.1677C28.1244 45.1897 27.9577 45.2044 27.704 45.2044C27.4503 45.2044 27.2836 45.1971 27.2039 45.1677C27.1169 45.1456 27.0806 45.0942 27.0806 45.0281C27.0806 44.9767 27.1314 44.9326 27.2329 44.8959C27.2474 44.8959 27.2546 44.8885 27.2619 44.8812C27.2981 44.8665 27.3343 44.8518 27.3488 44.8298C27.3633 44.8077 27.3706 44.7857 27.3706 44.749C27.3706 44.7122 27.3633 44.6461 27.3343 44.5653C27.3126 44.4845 27.2909 44.4111 27.2546 44.3376C27.2329 44.3009 27.2256 44.2788 27.2184 44.2715C27.2039 44.2641 27.2039 44.2568 27.1894 44.2568C27.1604 44.2568 27.1096 44.2421 27.0227 44.2348C26.9357 44.2348 26.8269 44.2348 26.6892 44.2348H26.595C26.3775 44.2348 26.2326 44.2348 26.1601 44.2494C26.0948 44.2568 26.0441 44.2715 26.0224 44.2935C25.9861 44.3302 25.9571 44.3964 25.9281 44.4772C25.8991 44.558 25.8774 44.6241 25.8774 44.6829C25.8774 44.7269 25.8846 44.7637 25.9064 44.8004C25.9281 44.8298 25.9571 44.8592 26.0006 44.8665C26.0224 44.8738 26.0441 44.8885 26.0731 44.8959C26.1601 44.9253 26.2108 44.9693 26.2108 45.0281C26.2108 45.0942 26.1746 45.1456 26.1021 45.1677C26.0296 45.1897 25.8846 45.2044 25.6672 45.2044C25.4497 45.2044 25.3047 45.1971 25.2323 45.1677C25.1598 45.1456 25.1235 45.0942 25.1235 45.0281C25.1235 44.9693 25.167 44.9253 25.2468 44.8959C25.283 44.8812 25.312 44.8665 25.3265 44.8592C25.4352 44.793 25.5367 44.6388 25.6309 44.389C25.6527 44.3376 25.6672 44.2935 25.6817 44.2641L25.9861 43.4855H26.0079Z" fill="#141839"/>
<path d="M29.1608 43.6323C29.1608 43.3018 29.1463 43.03 29.1391 42.8169C29.1318 42.6113 29.1101 42.4937 29.0956 42.4643C29.0811 42.4423 29.0376 42.4129 28.9651 42.3835C28.8854 42.3542 28.8491 42.3101 28.8491 42.2513C28.8491 42.1925 28.8781 42.1558 28.9434 42.1338C29.0086 42.1117 29.1681 42.097 29.4218 42.097C29.6755 42.097 29.8349 42.1044 29.9002 42.1338C29.9582 42.1558 29.9944 42.1925 29.9944 42.2513C29.9944 42.3101 29.9509 42.3615 29.8639 42.3909C29.8204 42.4056 29.7842 42.4203 29.7697 42.435C29.7479 42.457 29.7262 42.5378 29.7117 42.6847C29.7045 42.8316 29.6972 43.0667 29.6972 43.3899C29.6972 43.8307 29.6972 44.1759 29.7117 44.4183C29.7117 44.6681 29.7334 44.8077 29.7479 44.8371C29.7624 44.8591 29.8059 44.8811 29.8784 44.9179C29.9582 44.9473 29.9944 44.9913 29.9944 45.0501C29.9944 45.1162 29.9582 45.1603 29.8712 45.1823C29.7987 45.2044 29.6392 45.2191 29.4218 45.2191C29.2043 45.2191 29.0521 45.2117 28.9723 45.1823C28.8926 45.1603 28.8491 45.1089 28.8491 45.0501C28.8491 44.9913 28.8926 44.9473 28.9796 44.9105C29.0231 44.8958 29.0593 44.8811 29.0738 44.8664C29.1028 44.8371 29.1246 44.7416 29.1391 44.5726C29.1536 44.3963 29.1608 44.0878 29.1608 43.6323Z" fill="#141839"/>
<path d="M31.4227 43.4781C31.488 43.4781 31.5387 43.4855 31.5967 43.4928H31.7489C31.9954 43.4928 32.1621 43.4488 32.278 43.3533C32.394 43.2578 32.4448 43.1108 32.4448 42.9125C32.4448 42.7289 32.394 42.5819 32.278 42.4864C32.1621 42.3909 31.9954 42.3395 31.7706 42.3395C31.6619 42.3395 31.5822 42.3469 31.5459 42.3616C31.5024 42.3763 31.4735 42.4056 31.459 42.4424C31.4517 42.4791 31.4445 42.5452 31.4372 42.6334C31.4372 42.7215 31.43 42.8684 31.43 43.0668V43.4708L31.4227 43.4781ZM32.4085 43.6471V43.6838C32.5607 43.7132 32.6767 43.772 32.7637 43.8675C32.8507 43.9556 32.9232 44.1246 33.0029 44.3596C33.0101 44.4111 33.0319 44.4845 33.0536 44.58C33.1116 44.8004 33.1841 44.9106 33.2639 44.9106C33.2711 44.9106 33.2928 44.9106 33.3291 44.9106C33.3581 44.9106 33.3871 44.9106 33.4088 44.9106C33.4306 44.9106 33.4596 44.9253 33.4813 44.94C33.5031 44.962 33.5103 44.9914 33.5103 45.0208C33.5103 45.0869 33.4741 45.1457 33.3943 45.1824C33.3146 45.2191 33.2059 45.2485 33.0754 45.2485C32.7927 45.2485 32.5825 45.0281 32.4593 44.5874V44.5727C32.3505 44.2274 32.2491 44.007 32.1476 43.9115C32.0461 43.8234 31.9011 43.772 31.6982 43.772H31.5097C31.5097 43.772 31.4517 43.7793 31.4372 43.8014C31.43 43.8161 31.4227 43.8675 31.4227 43.9483V44.0291C31.4227 44.3596 31.4227 44.5727 31.4372 44.6755C31.4445 44.7784 31.4662 44.8371 31.4952 44.8592C31.5097 44.8665 31.5459 44.8886 31.5894 44.9032C31.6764 44.9326 31.7199 44.9767 31.7199 45.0355C31.7199 45.1016 31.6764 45.1457 31.6039 45.175C31.5169 45.1971 31.3647 45.2118 31.14 45.2118C30.9153 45.2118 30.7703 45.2044 30.6906 45.175C30.6109 45.153 30.5674 45.1016 30.5674 45.0355C30.5674 44.9767 30.6109 44.9326 30.7051 44.8959C30.7558 44.8812 30.7776 44.8665 30.7993 44.8518C30.8283 44.8224 30.8501 44.7269 30.8646 44.558C30.8718 44.3817 30.8791 44.0732 30.8791 43.6177C30.8791 43.2798 30.8791 43.0153 30.8646 42.8023C30.8501 42.5966 30.8356 42.4791 30.8138 42.4497C30.7993 42.4277 30.7558 42.4056 30.6761 42.3689C30.6036 42.3395 30.5674 42.2954 30.5674 42.244C30.5674 42.1926 30.5891 42.1559 30.6326 42.1265C30.6689 42.1045 30.7413 42.0898 30.8283 42.0898H31.2995C31.4082 42.0898 31.5532 42.0898 31.7199 42.0824C31.8939 42.0824 32.0171 42.0751 32.0678 42.0751C32.3795 42.0751 32.6115 42.1412 32.7782 42.2734C32.9449 42.4056 33.0246 42.604 33.0246 42.8537C33.0246 43.0447 32.9739 43.2063 32.8652 43.3459C32.7565 43.4855 32.6042 43.581 32.4085 43.6397" fill="#141839"/>
<path d="M35.2861 44.8739C35.4165 44.8739 35.518 44.8592 35.5978 44.8225C35.6702 44.7857 35.7427 44.7123 35.808 44.6021C35.8225 44.5727 35.8442 44.5286 35.8732 44.4698C35.9312 44.3597 35.9819 44.3082 36.0399 44.3082C36.0762 44.3082 36.1052 44.3229 36.1196 44.3597C36.1414 44.3964 36.1486 44.4478 36.1486 44.5066C36.1486 44.5947 36.1414 44.6976 36.1196 44.7931C36.1052 44.8959 36.0762 44.9914 36.0399 45.0869C36.0182 45.1383 35.9964 45.1897 35.9674 45.2191C35.9457 45.2412 35.9094 45.2559 35.8732 45.2559C35.7355 45.2191 35.6195 45.2044 35.5398 45.2044H34.2858C34.0756 45.2044 33.9523 45.2044 33.9016 45.1751C33.8508 45.153 33.8291 45.1163 33.8291 45.0649C33.8291 44.9988 33.8726 44.9473 33.9668 44.9179C34.0103 44.8959 34.0393 44.8886 34.0538 44.8739C34.0828 44.8518 34.1045 44.7563 34.119 44.6021C34.119 44.4405 34.1335 44.1172 34.1335 43.6471C34.1335 43.3018 34.1263 43.0301 34.119 42.8244C34.1118 42.6187 34.0973 42.5011 34.0756 42.4791C34.0538 42.4571 34.0103 42.4277 33.9378 42.3983C33.8653 42.3689 33.8291 42.3248 33.8291 42.2661C33.8291 42.2073 33.8581 42.1706 33.9233 42.1485C33.9886 42.1265 34.148 42.1118 34.4017 42.1118C34.6554 42.1118 34.8222 42.1192 34.8801 42.1485C34.9454 42.1632 34.9744 42.2073 34.9744 42.2661C34.9744 42.3248 34.9309 42.3763 34.8439 42.4057C34.7932 42.4203 34.7642 42.435 34.7424 42.4497C34.7207 42.4718 34.6989 42.5526 34.6844 42.6995C34.6699 42.8464 34.6699 43.0668 34.6699 43.3606C34.6699 43.7279 34.6699 44.0291 34.6699 44.2642C34.6772 44.4992 34.6917 44.6461 34.6989 44.6976C34.7207 44.7637 34.7569 44.8225 34.8222 44.8371C34.8874 44.8665 35.0106 44.8739 35.1918 44.8739H35.2716H35.2861Z" fill="#141839"/>
<path d="M37.1056 43.6323C37.1056 43.3018 37.1056 43.03 37.0911 42.8169C37.0766 42.6113 37.0621 42.4937 37.0403 42.4643C37.0258 42.4423 36.9823 42.4129 36.9098 42.3835C36.8301 42.3542 36.7866 42.3101 36.7866 42.2513C36.7866 42.1925 36.8229 42.1558 36.8881 42.1338C36.9533 42.1117 37.1128 42.097 37.3665 42.097C37.6202 42.097 37.7797 42.1044 37.8377 42.1338C37.9029 42.1558 37.9319 42.1925 37.9319 42.2513C37.9319 42.3101 37.8884 42.3615 37.8014 42.3909C37.7507 42.4056 37.7217 42.4203 37.7072 42.435C37.6782 42.457 37.6564 42.5378 37.6492 42.6847C37.6347 42.8316 37.6347 43.0667 37.6347 43.3899C37.6347 43.8307 37.6347 44.1759 37.6492 44.4183C37.6564 44.6681 37.6709 44.8077 37.6854 44.8371C37.6999 44.8591 37.7434 44.8811 37.8232 44.9179C37.8956 44.9473 37.9319 44.9913 37.9319 45.0501C37.9319 45.1162 37.8957 45.1603 37.8159 45.1823C37.7362 45.2044 37.584 45.2191 37.3593 45.2191C37.1346 45.2191 36.9823 45.2117 36.9098 45.1823C36.8301 45.1603 36.7866 45.1089 36.7866 45.0501C36.7866 44.9913 36.8374 44.9473 36.9243 44.9105C36.9678 44.8958 36.9968 44.8811 37.0186 44.8664C37.0476 44.8371 37.0693 44.7416 37.0838 44.5726C37.0983 44.3963 37.1056 44.0878 37.1056 43.6323Z" fill="#141839"/>
<path d="M39.3813 42.8023C39.3813 42.8463 39.3813 42.8904 39.3813 42.9492V43.4487C39.3813 44.0804 39.3813 44.4771 39.403 44.6387C39.4175 44.8003 39.4465 44.8738 39.4972 44.8738C39.5335 44.8738 39.577 44.8958 39.6132 44.9252C39.6567 44.9619 39.6712 44.9913 39.6712 45.0354C39.6712 45.1015 39.635 45.1456 39.5697 45.175C39.4972 45.197 39.3813 45.2117 39.2145 45.2117C39.0478 45.2117 38.9319 45.197 38.8666 45.175C38.8014 45.1456 38.7651 45.1015 38.7651 45.0354C38.7651 44.984 38.8086 44.9399 38.8811 44.9105C38.9536 44.8738 38.9971 44.8518 39.0188 44.8297C39.0333 44.8077 39.0478 44.6828 39.0551 44.4845C39.0623 44.2788 39.0696 43.9849 39.0696 43.625C39.0696 43.2944 39.0696 43.03 39.0551 42.8169C39.0478 42.6039 39.0333 42.479 39.0188 42.457C38.9971 42.435 38.9536 42.4056 38.8811 42.3762C38.8086 42.3468 38.7651 42.3027 38.7651 42.2513C38.7651 42.1999 38.7941 42.1485 38.8666 42.1338C38.9246 42.1044 39.0478 42.097 39.229 42.097C39.345 42.097 39.4248 42.097 39.461 42.1044C39.5045 42.1044 39.5262 42.1191 39.5407 42.1338C39.577 42.1632 39.6785 42.288 39.8452 42.5084C40.0119 42.7288 40.1569 42.9124 40.2728 43.0594L40.7585 43.6617C40.889 43.8307 40.9977 43.9629 41.0847 44.0657C41.1717 44.1686 41.2441 44.2494 41.3166 44.3229V44.0731C41.3166 43.647 41.3166 43.2944 41.3021 43.0006C41.3021 42.7068 41.2876 42.5378 41.2731 42.4864C41.2731 42.4717 41.2586 42.457 41.2441 42.4423C41.2296 42.4276 41.2152 42.4203 41.2007 42.4129C41.1209 42.3835 41.0702 42.3615 41.0484 42.3395C41.0267 42.3174 41.0194 42.288 41.0194 42.2587C41.0194 42.1999 41.0484 42.1558 41.1064 42.1411C41.1644 42.1191 41.2949 42.1044 41.4833 42.1044C41.6573 42.1044 41.7733 42.1117 41.8385 42.1411C41.8965 42.1558 41.9255 42.1999 41.9255 42.2587C41.9255 42.288 41.9255 42.3174 41.9038 42.3321C41.882 42.3542 41.8603 42.3762 41.8168 42.3909C41.8168 42.3982 41.795 42.4056 41.7805 42.4129C41.7226 42.435 41.6791 42.4643 41.6718 42.4937C41.6573 42.5525 41.6428 42.7288 41.6356 43.0153C41.6211 43.2944 41.6211 43.7352 41.6211 44.3155C41.6211 44.4404 41.6211 44.5726 41.6283 44.7269V44.9987C41.6283 45.1015 41.6283 45.175 41.6138 45.2044C41.5993 45.2264 41.5703 45.2411 41.5341 45.2411C41.3819 45.2411 41.0557 44.9179 40.5555 44.2714L40.483 44.1833L40.0119 43.5883C39.8017 43.3091 39.6567 43.1255 39.577 43.03C39.5045 42.9418 39.4393 42.8684 39.3958 42.8243" fill="#141839"/>
<path d="M42.955 45.1897C42.7448 45.1897 42.6216 45.1897 42.5636 45.1603C42.5129 45.1383 42.4839 45.1015 42.4839 45.0501C42.4839 44.984 42.5274 44.9399 42.6216 44.9032C42.6651 44.8811 42.7013 44.8738 42.7158 44.8591C42.7376 44.8371 42.7593 44.7342 42.7738 44.5506C42.7883 44.3669 42.7883 44.0584 42.7883 43.6323C42.7883 43.3238 42.7883 43.052 42.7738 42.839C42.7593 42.6186 42.7448 42.4937 42.7303 42.4717C42.7158 42.4497 42.6724 42.4203 42.5926 42.3909C42.5201 42.3615 42.4839 42.3174 42.4839 42.2587C42.4839 42.1999 42.5201 42.1632 42.5781 42.1411C42.6434 42.1191 42.8028 42.1044 43.0493 42.1044H44.354C44.4193 42.1044 44.4845 42.0971 44.5642 42.0824C44.6295 42.0677 44.6657 42.053 44.6657 42.053C44.6947 42.053 44.7019 42.0603 44.7237 42.0677C44.7454 42.075 44.7527 42.0897 44.7599 42.1044C44.7889 42.1558 44.8179 42.2293 44.8397 42.3321C44.8687 42.4276 44.8832 42.5158 44.8832 42.5819C44.8832 42.648 44.8687 42.6921 44.8469 42.7288C44.8252 42.7655 44.7962 42.7802 44.7527 42.7802C44.7019 42.7802 44.6512 42.7361 44.586 42.6333C44.5642 42.5892 44.5425 42.5598 44.528 42.5305C44.499 42.4864 44.4482 42.4497 44.383 42.4276C44.3178 42.4056 44.238 42.3909 44.1511 42.3909H43.8539C43.7161 42.3909 43.6074 42.3982 43.5422 42.4129C43.4697 42.4276 43.419 42.457 43.3972 42.4864C43.3755 42.5158 43.3537 42.5745 43.3465 42.67C43.3392 42.7655 43.3247 42.9051 43.3247 43.0887V43.2651C43.3247 43.3312 43.332 43.3752 43.3465 43.3973C43.361 43.412 43.39 43.4193 43.4262 43.4193H43.8031C43.9191 43.4193 43.9988 43.3973 44.0423 43.3679C44.0931 43.3312 44.1221 43.2724 44.1293 43.1842C44.1293 43.1696 44.1293 43.1549 44.1366 43.1328C44.1583 42.9933 44.2018 42.9124 44.2743 42.9124C44.3468 42.9124 44.383 42.9492 44.4048 43.03C44.4265 43.1108 44.441 43.2871 44.441 43.5662C44.441 43.8454 44.4338 44.0143 44.4048 44.0951C44.383 44.1759 44.3395 44.2127 44.2743 44.2127C44.209 44.2127 44.1583 44.1392 44.1366 43.9996C44.1366 43.9776 44.1366 43.9556 44.1293 43.9482C44.1148 43.8601 44.0858 43.8013 44.0423 43.7646C43.9988 43.7278 43.9191 43.7205 43.8031 43.7205H43.4262C43.39 43.7205 43.361 43.7278 43.3465 43.7499C43.332 43.7793 43.3175 43.8307 43.3175 43.9262V44.1245C43.3175 44.3155 43.3175 44.4551 43.332 44.5432C43.332 44.6314 43.3537 44.6975 43.3682 44.7342C43.39 44.7857 43.4334 44.815 43.5059 44.8371C43.5857 44.8591 43.6944 44.8665 43.8466 44.8665H44.1221C44.2743 44.8665 44.3903 44.8444 44.4627 44.8077C44.5425 44.771 44.615 44.6975 44.6657 44.5947C44.6875 44.5653 44.7092 44.5139 44.7382 44.4477C44.7744 44.3449 44.8252 44.2861 44.8759 44.2861C44.9122 44.2861 44.9412 44.3008 44.9556 44.3376C44.9774 44.3743 44.9919 44.4184 44.9919 44.4845C44.9919 44.5506 44.9774 44.6461 44.9556 44.7489C44.9339 44.8591 44.9049 44.962 44.8687 45.0721C44.8397 45.1236 44.8252 45.1676 44.7962 45.197C44.7672 45.2264 44.7454 45.2338 44.7164 45.2338C44.7092 45.2338 44.6947 45.2338 44.6585 45.2191C44.5642 45.197 44.47 45.1823 44.3758 45.1823H42.9405L42.955 45.1897Z" fill="#141839"/>
<path d="M47.4199 42.1338C47.4199 42.1338 47.4779 42.0898 47.5069 42.0751C47.5359 42.0604 47.5576 42.053 47.5866 42.053C47.6156 42.053 47.6446 42.0604 47.6736 42.0898C47.7026 42.1118 47.7316 42.1485 47.7606 42.2C47.8113 42.2881 47.8476 42.3836 47.8766 42.4718C47.9056 42.5673 47.9201 42.6481 47.9201 42.7215C47.9201 42.7729 47.9056 42.8023 47.8838 42.8317C47.8621 42.8537 47.8331 42.8684 47.7896 42.8684C47.7171 42.8684 47.6374 42.817 47.5649 42.7142C47.5576 42.6995 47.5431 42.6848 47.5359 42.6701C47.4562 42.5673 47.3692 42.4865 47.2749 42.435C47.1807 42.3836 47.0792 42.3616 46.956 42.3616C46.7965 42.3616 46.6661 42.3983 46.5791 42.4718C46.4848 42.5452 46.4414 42.6481 46.4414 42.7803C46.4414 42.8978 46.4776 42.9933 46.5501 43.0741C46.6298 43.1549 46.8183 43.2578 47.13 43.39C47.1517 43.39 47.1807 43.412 47.217 43.4267C47.4707 43.5369 47.6591 43.6471 47.7678 43.7426C47.8476 43.8234 47.9056 43.9042 47.9491 43.9997C47.9853 44.1025 48.007 44.2054 48.007 44.3156C48.007 44.6094 47.9056 44.8371 47.7026 45.0061C47.4996 45.175 47.217 45.2559 46.8618 45.2559C46.6878 45.2559 46.5211 45.2338 46.3689 45.2044C46.2094 45.1677 46.0862 45.1236 45.9774 45.0649C45.9267 45.0281 45.8687 44.9547 45.8397 44.8224C45.8035 44.6976 45.7817 44.558 45.7817 44.3964C45.7817 44.3229 45.789 44.2788 45.818 44.2421C45.847 44.2127 45.876 44.1907 45.9267 44.1907C45.9919 44.1907 46.0572 44.2568 46.1297 44.3817C46.1514 44.4258 46.1659 44.4552 46.1804 44.4772C46.2674 44.6315 46.3689 44.749 46.4776 44.8224C46.5863 44.8959 46.7096 44.9326 46.8618 44.9326C47.014 44.9326 47.1517 44.8812 47.2604 44.7931C47.3619 44.6976 47.4199 44.5874 47.4199 44.4478C47.4199 44.2495 47.2097 44.0511 46.782 43.8601C46.7603 43.8528 46.7313 43.8381 46.7168 43.8381C46.3689 43.6838 46.1442 43.5443 46.0354 43.412C45.9195 43.2798 45.8615 43.1182 45.8615 42.9199C45.8615 42.6554 45.9557 42.4497 46.1442 42.2734C46.3326 42.1118 46.5718 42.031 46.8763 42.031C46.956 42.031 47.043 42.031 47.13 42.053C47.217 42.0677 47.3184 42.0898 47.4199 42.1192" fill="#141839"/>
<path d="M24.0291 14.7189C24.0726 14.5867 25.2541 10.8991 30.6978 6.68252C30.6978 6.68252 29.1104 -2.34559 25.1309 0.585421C25.0077 0.673572 24.667 0.960062 24.551 1.07025C24.4785 1.1584 24.3988 1.2539 24.348 1.31266C24.2321 1.44489 24.1668 1.49631 24.0364 1.51835C23.9059 1.49631 23.8406 1.44489 23.7247 1.31266C23.6739 1.2539 23.5942 1.16575 23.5145 1.07025C23.4057 0.960062 23.065 0.673572 22.9346 0.585421C18.9551 -2.34559 17.3677 6.68252 17.3677 6.68252C22.8113 10.8991 24.0001 14.5867 24.0364 14.7189" fill="#CF1630"/>
<path d="M23.2172 15.2185C22.9055 12.7503 20.9628 10.7008 20.9628 10.7008C16.9544 5.49253 13.939 5.76433 13.939 5.76433C11.0976 5.5366 11.8152 8.87164 11.8152 8.87164C11.547 8.72472 11.0758 8.65861 10.7206 8.65126C6.34974 9.01856 9.87979 15.314 9.87979 15.314C12.5328 21.0218 16.8167 23.2108 16.8167 23.2108C17.2226 19.6481 18.3534 17.1358 18.3534 17.1358C20.2452 12.3389 23.2172 15.2111 23.2172 15.2111" fill="#CF1630"/>
<path d="M37.3373 8.65126C36.9822 8.65126 36.511 8.72472 36.2356 8.87164C36.2356 8.87164 36.9604 5.5366 34.119 5.76433C34.119 5.76433 31.0963 5.49253 27.0951 10.7008C27.0951 10.7008 25.1598 12.7576 24.8408 15.2185C24.8408 15.2185 27.82 12.3389 29.7119 17.1431C29.7119 17.1431 30.8426 19.6481 31.2413 23.2108C31.2413 23.2108 35.518 21.0218 38.1782 15.314C38.1782 15.314 41.7082 9.01856 37.3373 8.65126Z" fill="#CF1630"/>
<path d="M26.1961 15.3948C25.8265 15.505 25.4858 15.7107 25.0219 16.0633C24.8986 16.1588 24.6232 16.4159 24.4782 16.5114C24.239 16.6656 24.0361 16.673 24.0288 16.673C24.0216 16.673 23.8186 16.6656 23.5722 16.5114C23.4344 16.4159 23.1662 16.1588 23.043 16.0633C22.5791 15.7107 22.2384 15.505 21.8615 15.3948C18.1285 14.2782 17.0267 23.3871 17.0122 23.3577C17.7226 23.8132 19.107 24.3862 19.107 24.3862C21.3758 22.3661 23.9853 22.4689 24.0216 22.4689C24.0578 22.4689 26.6673 22.3661 28.9361 24.3862C28.9361 24.3862 30.3206 23.8132 31.0309 23.3577C31.0237 23.3871 29.9147 14.2782 26.1816 15.3948" fill="#CF1630"/>
<path d="M21.0065 9.04053C21.0065 9.04053 22.0648 10.2893 22.8331 12.3903L22.4924 11.8981C22.1518 11.1415 21.7023 10.1571 21.05 9.31233C20.9992 9.2609 20.9412 9.15806 20.8978 9.09929C20.8978 9.09929 20.8905 9.04053 20.8978 9.12133C20.8905 9.04053 21.0065 9.04053 21.0065 9.04053Z" fill="#FFE100"/>
<path d="M20.8322 8.48962C20.9989 8.50432 21.1222 8.65858 21.1077 8.83488C21.0932 9.01118 20.9482 9.13606 20.7815 9.12872C20.6148 9.11403 20.4915 8.95976 20.506 8.79081C20.5205 8.6145 20.6655 8.48228 20.8322 8.49697" fill="#FFE100"/>
<path d="M21.4631 7.42449C21.6298 7.41714 21.7675 7.54937 21.782 7.72567C21.782 7.89462 21.6588 8.04889 21.4921 8.05623C21.3181 8.06358 21.1804 7.93135 21.1731 7.75505C21.1659 7.57875 21.2964 7.43183 21.4631 7.42449Z" fill="#FFE100"/>
<path d="M22.5575 8.10767C22.7315 8.10767 22.8692 8.23255 22.8765 8.40885C22.8765 8.58515 22.7532 8.73207 22.5865 8.73941C22.427 8.73941 22.2821 8.60719 22.2676 8.43823C22.2676 8.26193 22.3908 8.11501 22.5575 8.10767Z" fill="#FFE100"/>
<path d="M23.3551 9.29763C23.5218 9.29028 23.6668 9.42986 23.6668 9.60616C23.6668 9.77511 23.5436 9.92203 23.3768 9.92938C23.2029 9.93672 23.0652 9.8045 23.0579 9.62819C23.0507 9.45189 23.1811 9.30497 23.3478 9.29028" fill="#FFE100"/>
<path d="M24.0143 6.99841C24.181 6.99841 24.3187 7.13064 24.326 7.30694C24.326 7.48324 24.2028 7.63016 24.036 7.63016C23.8693 7.63751 23.7243 7.50528 23.7171 7.32898C23.7099 7.15268 23.8331 7.0131 24.007 6.99841" fill="#FFE100"/>
<path d="M23.478 9.91466C23.478 9.91466 23.8404 12.6253 23.8187 14.1826L23.6954 13.9108C23.6954 13.6023 23.6737 12.3462 23.3475 9.92935L23.333 9.75305L23.478 9.91466Z" fill="#FFE100"/>
<path d="M21.637 8.01215C21.5863 7.98277 22.8548 11.0827 23.1882 12.9633L22.9345 12.5519C22.9345 12.5519 22.9852 12.0891 21.5065 8.05623L21.4775 7.74036L21.637 8.01215Z" fill="#FFE100"/>
<path d="M22.7027 8.70995C22.7027 8.70995 23.3913 11.6703 23.5362 13.595L23.442 13.4187L23.3623 13.2644C23.3623 13.2644 23.3478 13.1175 23.3333 12.9853C23.297 12.5665 23.2028 11.5602 22.5649 8.73933L22.5794 8.42346L22.7027 8.70995Z" fill="#FFE100"/>
<path d="M23.9565 7.6228V14.5133L24.029 14.7263L24.1015 14.5206V7.6228H23.9565Z" fill="#FFE100"/>
<path d="M27.0663 9.04053C27.0663 9.04053 26.0008 10.2893 25.2324 12.3903L25.5659 11.8981C25.8993 11.1415 26.3487 10.1498 27.0156 9.31233C27.0663 9.25356 27.1243 9.15806 27.175 9.09929C27.175 9.09929 27.175 9.04053 27.175 9.12133C27.175 9.04053 27.0663 9.04053 27.0663 9.04053Z" fill="#FFE100"/>
<path d="M27.2327 8.48964C27.0659 8.50433 26.9427 8.6586 26.9572 8.8349C26.9717 9.0112 27.1167 9.13608 27.2834 9.12139C27.4501 9.1067 27.5733 8.95978 27.5588 8.78348C27.5443 8.60717 27.3994 8.47495 27.2327 8.48964Z" fill="#FFE100"/>
<path d="M26.6024 7.42449C26.4357 7.41714 26.2908 7.54937 26.2835 7.72567C26.2763 7.90197 26.3995 8.04889 26.5662 8.05623C26.7329 8.05623 26.8779 7.93135 26.8851 7.75505C26.8924 7.57875 26.7619 7.43183 26.6024 7.42449Z" fill="#FFE100"/>
<path d="M25.5006 8.10759C25.3339 8.10025 25.1961 8.23247 25.1816 8.40877C25.1816 8.58507 25.3049 8.73199 25.4716 8.73934C25.6383 8.74668 25.7833 8.61446 25.7905 8.43816C25.7978 8.26186 25.6673 8.11494 25.5006 8.10759Z" fill="#FFE100"/>
<path d="M24.7031 9.29764C24.5364 9.29029 24.3987 9.42987 24.3914 9.60617C24.3842 9.77512 24.5074 9.92204 24.6814 9.92939C24.8553 9.93673 24.9858 9.80451 24.993 9.62821C25.0003 9.4519 24.8771 9.30499 24.7031 9.29764Z" fill="#FFE100"/>
<path d="M24.5799 9.91468C24.5799 9.91468 24.2247 12.618 24.2392 14.1753L24.3624 13.9035C24.3624 13.5876 24.3842 12.3315 24.7104 9.92203L24.7249 9.74573L24.5799 9.90734V9.91468Z" fill="#FFE100"/>
<path d="M26.4281 8.01218C26.4789 7.98279 25.2031 11.0828 24.877 12.9633L25.1307 12.5446C25.1307 12.5446 25.0799 12.0818 26.5586 8.04891L26.5876 7.73303L26.4281 8.00483V8.01218Z" fill="#FFE100"/>
<path d="M25.3701 8.70995C25.3701 8.70995 24.6743 11.6703 24.5293 13.595L24.6235 13.4187L24.7033 13.2644C24.7033 13.2644 24.725 13.1175 24.7395 12.9779C24.783 12.5592 24.87 11.5528 25.5006 8.73933L25.4861 8.42346L25.3629 8.70995H25.3701Z" fill="#FFE100"/>
</g>
<defs>
<clipPath id="clip0_590_3582">
<rect width="48.0075" height="46.0051" fill="white"/>
</clipPath>
</defs>
</svg>
