<svg width="35" height="46" viewBox="0 0 35 46" fill="none" xmlns="http://www.w3.org/2000/svg">
<g clip-path="url(#clip0_583_2298)">
<path d="M4.075 27.3444C6.15 29.5678 7 29.6955 7.575 29.7978C9.55 30.2066 11.55 28.6989 11.55 28.6989L25.8 19.4478C25.35 20.1378 24.825 20.93 24.325 21.6711C23.575 22.77 23.075 23.5366 22.325 24.4566C21.325 25.7344 18.625 26.91 18.625 26.91L12.6 29.3889C7.525 31.7144 6.025 30.2066 4.2 28.1622C2.9 26.7055 1.975 26.2455 1.3 26.0666C0.875 25.99 0.45 25.9389 0 25.9389C1.475 25.7344 2.975 26.2455 4.05 27.3444" fill="#EF845D"/>
<path d="M0.599902 26.0155C2.8749 26.4244 3.7749 28.1367 5.7249 29.9511C8.0999 32.1233 11.6499 30.7433 11.6499 30.7433L19.6499 28.4178C18.7249 29.8489 17.9249 31.1778 17.1999 32.4044C16.5749 33.4778 16.0249 34.4744 15.5749 35.42C15.5749 35.42 11.0249 35.2155 6.2999 31.3567C5.0499 30.2322 3.8999 28.98 2.8749 27.6C2.1749 26.68 1.1499 26.0922 0.0249023 25.99C0.224902 25.99 0.399902 25.99 0.599902 26.0155Z" fill="#F5B090"/>
<path d="M15.0501 45.1823C16.1001 45.6167 17.2251 45.8723 18.3501 45.9234C15.0251 42.6523 11.9001 39.1511 8.9751 35.4967C8.9751 35.4967 13.3501 44.6456 15.0501 45.1823Z" fill="#E60012"/>
<path d="M31.6002 43.9555C31.6002 43.9555 15.1252 40.0966 8.8252 35.1899C8.8252 35.1899 17.1752 43.3166 21.3752 45.9999C21.3752 45.9999 24.3502 46.3577 31.5752 43.981" fill="#E60012"/>
<path d="M15.0498 45.1822C14.6998 45.0033 14.3748 44.7477 14.1498 44.4155C13.1498 43.01 13.1998 40.8122 14.7748 37.0555C6.9998 33.8611 4.4998 29.9511 4.4998 29.9511C1.8248 26.2455 1.0498 26.3988 1.0498 26.3988C1.0498 26.3988 2.4498 27.0633 5.8998 33.2477C8.4248 37.72 12.2748 44.3133 15.0498 45.2077" fill="#F9D0BA"/>
<path d="M2.9499 25.6833C4.2749 26.0922 5.4749 27.0378 6.4999 27.6256C8.2499 28.6733 9.9999 26.7822 9.9999 26.7822L34.9749 0C34.9749 0 35.1749 1.30333 33.9749 4.6C33.2249 6.21 32.1499 7.64111 30.8249 8.79111C27.2249 12.0111 10.5999 27.1656 10.5999 27.1656C10.5999 27.1656 8.4499 29.3889 6.4999 28.06C6.4999 28.06 5.0999 27.0633 4.8749 26.8589C4.2749 26.3733 3.5999 25.9644 2.8999 25.6833" fill="#E60012"/>
<path d="M2.95 25.8366C4.85 26.6288 5.6 27.9322 7.275 28.6477C8.875 29.0822 10.35 27.7277 10.35 27.7277L31.9 9.71106C31.225 11.0399 30.4 12.5477 29.4 14.2344C28.325 16.0744 25.175 18.1955 25.175 18.1955L12.275 27.4977C7.475 31.4588 5.95 28.8266 4.125 27.1399C2.975 26.1433 1.475 25.7088 0 25.9388C0.925 25.4788 1.975 25.4533 2.925 25.8622" fill="#EA5532"/>
</g>
<defs>
<clipPath id="clip0_583_2298">
<rect width="35" height="46" fill="white"/>
</clipPath>
</defs>
</svg>
