<svg width="126" height="46" viewBox="0 0 126 46" fill="none" xmlns="http://www.w3.org/2000/svg">
<g clip-path="url(#clip0_597_3583)">
<path d="M56.9747 24.7712H55.3076V39.3251H56.9747V24.7712Z" fill="#060001"/>
<path d="M79.1148 39.4908H77.031V37.0652H71.2051V35.3114H77.031V32.7985H72.7853V30.9575H77.031V28.4533H71.6218V26.6908H77.031V24.4309H79.1148V26.6908H84.524V28.4533H79.1148V30.9575H83.3605V32.7985H79.1148V35.3114H84.9407V37.0652H79.1148V39.4908Z" fill="#060001"/>
<path d="M52.1471 24.7712H50.5669V35.1457C50.5669 36.6552 50.3151 37.4055 49.7334 37.8243L50.4801 39.3338C51.3136 38.8278 52.0603 37.8244 52.1471 35.739V24.78V24.7712Z" fill="#060001"/>
<path d="M62.2185 35.643V30.2072H60.6382V35.643C60.5514 36.5679 60.5514 37.6499 58.1377 37.6499V39.3251H58.2158C59.8829 39.2466 60.8814 38.7405 61.3849 38.1559C61.9667 38.7405 62.9651 39.2466 64.5454 39.3251H64.7103V37.6499C62.2966 37.6499 62.2098 36.5679 62.2098 35.643" fill="#060001"/>
<path d="M57.7207 26.4465V24.8497H65.1268V26.4465H61.8015L61.2979 27.6157H62.1314H64.7969V36.2276H63.0517V29.2037H59.8045V36.2276H58.0506V27.6157H59.6308L60.1344 26.4465H57.7207Z" fill="#060001"/>
<path d="M54.5606 25.7747H52.8936V37.1525H54.5606V25.7747Z" fill="#060001"/>
<path d="M100.734 29.1949H104.467V37.2746C104.467 37.5015 104.693 37.7283 104.918 37.7283H105.257V39.3251H103.894C102.991 39.3251 102.539 38.9848 102.539 38.0773V30.9051H100.612V37.9639C100.612 38.8713 100.16 39.3338 99.136 39.3338H98.1201V37.7371H98.5716C98.6845 37.7371 98.6845 37.5102 98.6845 37.3968V29.2037H100.725L100.734 29.1949Z" fill="#060001"/>
<path d="M100.499 24.9807H102.774V26.1237H105.266V27.9473H98.1289V26.1237H100.499V24.9807Z" fill="#060001"/>
<path d="M94.726 37.7283H94.6131V39.3251H94.726V37.7283ZM94.726 34.0899H94.0488L94.5003 35.4598C94.6131 35.5732 94.6131 35.6866 94.726 35.8V34.0899ZM94.726 28.2875H94.0488L94.5003 29.6487C94.6131 29.7621 94.6131 29.989 94.726 30.1024V28.2788V28.2875ZM94.726 24.8672V27.2579H93.5886L93.4757 31.3501H94.726V33.0603H93.4757V37.9552C93.4757 38.8626 93.0242 39.3251 92.2255 39.3251H90.9839V37.7283H91.5482C91.5482 37.7283 91.6611 37.6149 91.6611 37.3881V33.0603H90.8623V31.3501H91.6611V25.5478H93.5886L93.9272 24.8672H94.7173H94.726ZM94.726 35.8V35.9135V34.0899V35.8ZM94.726 24.8672H96.3149L95.9763 25.5478H97.7909V37.9552C97.7909 38.8626 97.3394 39.3251 96.3236 39.3251H94.7347V37.7283H95.6377C95.8634 37.7283 95.9763 37.6149 95.9763 37.5015V36.1316H95.299C95.0733 36.1316 94.8476 36.0182 94.7347 35.9047V34.0811H95.6377V34.4214C95.7505 34.5349 95.8634 34.5349 95.8634 34.5349H95.9763V33.0603H94.7347V31.3501H95.9763V30.4427H95.299C95.0733 30.4427 94.8476 30.2158 94.7347 30.1024V28.2788H95.6377V28.6191C95.7505 28.7325 95.8634 28.8459 95.8634 28.8459H95.9763V27.2579H94.7347V24.8672H94.726Z" fill="#060001"/>
<path d="M115.694 31.5858H112.751V29.8756H115.694V31.5858ZM115.694 25.7834V27.4936H114.791V28.7413H112.751V25.7834H115.694ZM115.694 34.3168H113.09V32.6066H115.694V34.3168ZM115.694 39.3251H112.751V37.615H115.694V39.3251ZM115.694 31.5858V29.8756H115.807C116.146 29.8756 116.484 29.195 116.719 28.2789H118.638C118.299 29.7622 117.96 30.6696 117.622 31.0099C117.283 31.3502 116.832 31.577 116.493 31.577H115.703L115.694 31.5858ZM123.057 29.8756V31.5858H122.38C121.928 31.5858 121.59 31.3589 121.251 31.0186C120.912 30.6783 120.574 29.7622 120.227 28.2876H122.154C122.38 29.195 122.718 29.8843 123.066 29.8843M123.057 25.7834V27.4936H115.694V25.7834H118.412V24.876H120.339V25.7834H123.057ZM123.057 34.3168H120.339V37.615H123.057V39.3251H115.694V37.615H118.412V34.3168H115.694V32.6066H123.057V34.3168ZM123.057 27.4849V25.7747H126V28.7326H124.073V27.4849H123.048H123.057ZM123.057 29.8756H126V31.5858H123.057V29.8756ZM123.057 37.615H126V39.3251H123.057V37.615ZM125.662 34.3168H123.057V32.6066H125.662V34.3168Z" fill="#060001"/>
<path d="M124.584 13.5243C124.003 13.1054 123.499 12.8524 123.004 12.6866L122.501 12.4423C120.834 11.7705 120 11.3517 120 10.4355C120 9.8509 120.582 9.01326 121.832 9.01326C123.325 9.01326 124.411 9.68512 125.079 10.1825L125.331 10.2697V7.338L125.166 7.25075C124.333 6.91918 123.499 6.50037 121.589 6.50037C117.847 6.50037 116.597 8.67298 116.597 10.8543C116.597 13.3672 118.429 14.1961 119.505 14.7894L120.174 15.121C121.589 15.7056 122.587 16.2117 122.587 17.2936C122.587 18.044 121.919 18.9689 120.252 18.9689C118.42 18.9689 117.343 18.1312 116.753 17.6339L116.588 17.5466V20.7314H116.675C116.84 20.8099 117.091 20.9844 117.256 20.9844C117.76 21.1502 118.923 21.569 120.417 21.569C120.999 21.569 122.501 21.4818 123.664 20.8972C125.331 20.0595 125.991 18.4715 125.991 16.7963C125.991 15.6271 125.574 14.3706 124.576 13.533" fill="#060001"/>
<path d="M73.6101 13.0182C73.1065 13.3497 72.3598 13.437 71.3613 13.437V9.42331C71.6913 9.33606 71.9431 9.33606 72.1949 9.33606C72.9415 9.33606 74.5304 9.50184 74.5304 11.1771C74.5304 11.7617 74.3655 12.5993 73.6188 13.0182M75.2685 15.1995C76.1801 14.7807 78.0121 13.943 78.0121 11.1858C78.0121 10.2697 77.769 8.50715 76.102 7.66952C75.1035 7.08492 74.0182 6.83189 71.6913 6.91914H67.8623V21.3945H71.3613V16.0371L72.273 15.9499C73.6101 18.2883 73.94 18.7071 75.2685 21.3858H79.2624C78.5157 20.3823 75.7634 16.0284 75.2685 15.1908" fill="#060001"/>
<path d="M106.751 6.91919H115.659V9.51062H110.163V12.6081H114.991V15.1995H110.163V18.6286H115.659V21.3858H106.751V6.91919Z" fill="#060001"/>
<path d="M102.913 6.91918V15.662L97.2607 6.90173H96.8179L93.918 6.91918V21.3858H96.8179V11.9973L102.904 21.3858H102.913H105.813V6.90173L102.913 6.91918Z" fill="#060001"/>
<path d="M54.6476 16.1419L56.1496 11.5L57.6517 16.1419H54.6389H54.6476ZM59.3622 21.3858H62.5747L57.8688 6.91046H57.643V6.90173H56.1496H54.6563L54.4305 6.91046L49.7246 21.3858H52.9371L53.8488 18.585H58.4418L59.3535 21.3945L59.3622 21.3858Z" fill="#060001"/>
<path d="M66.5167 7.04138H63.1045V21.5254H66.5167V7.04138Z" fill="#060001"/>
<path d="M92.5812 6.90173H89.1689V21.3858H92.5812V6.90173Z" fill="#060001"/>
<path d="M88.3527 18.7246H83.3516V6.90173H79.9307V21.3858H81.4675H83.3516H88.3527V18.7246Z" fill="#060001"/>
<path d="M32.2992 25.8619C30.9013 25.8619 29.8594 24.8061 29.8594 23.4711C29.8594 22.1361 30.9013 21.0193 32.2992 21.0193C33.697 21.0193 34.6781 22.1274 34.6781 23.4711C34.6781 24.8148 33.5755 25.8619 32.2992 25.8619Z" fill="#C6191E"/>
<path d="M22.835 5.07815C27.3065 5.07815 31.4914 6.30842 35.0339 8.4025L39.2709 5.07815C34.565 1.86722 28.9301 0 22.835 0C16.7399 0 11.0963 1.86722 6.45117 5.07815L10.6361 8.4025C14.2393 6.2997 18.4156 5.07815 22.835 5.07815Z" fill="#060001"/>
<path d="M10.6361 37.6586L6.45117 40.9306C11.0963 44.1415 16.792 46.0087 22.835 46.0087C28.878 46.0087 34.565 44.1415 39.2709 40.9306L35.0339 37.6586C31.4914 39.7614 27.3065 40.9306 22.835 40.9306C18.3635 40.9306 14.2393 39.7614 10.6361 37.6586Z" fill="#060001"/>
<path d="M5.0011 23C5.0011 18.5675 6.21665 14.3619 8.30912 10.7409L5.0011 6.53528C1.85805 11.2121 0 16.8748 0 23C0 29.1252 1.85805 34.7967 5.0011 39.5258L8.30912 35.2678C6.21665 31.6555 5.0011 27.5023 5.0011 23.0087" fill="#060001"/>
<path d="M37.4131 35.2592L40.6603 39.5171C43.8555 34.788 45.7135 29.1252 45.7135 22.9913C45.7135 16.8574 43.8555 11.2034 40.6603 6.52661L37.4131 10.7322C39.5056 14.3532 40.6603 18.5501 40.6603 22.9913C40.6603 27.4325 39.4969 31.6381 37.4131 35.2504" fill="#060001"/>
<path d="M15.4549 34.0375C13.128 34.0375 11.0963 33.4005 9.29906 32.0481H9.23828V27.5546L9.5248 27.8425C9.99366 28.4882 11.9646 30.4688 15.1597 30.4688C17.5995 30.4688 17.8339 28.6627 17.8339 27.8425C17.8339 26.2719 16.2103 25.3907 14.4044 24.5094L14.2915 24.4571C11.9038 23.2879 9.23828 22.0053 9.23828 18.5587C9.23828 15.4089 11.8517 13.0705 15.4549 12.896H15.9151C19.0495 12.896 20.621 14.0652 20.9075 14.3008L20.9683 14.3619V18.2097L20.6818 17.9741C19.5791 16.9795 17.7731 16.3949 16.0888 16.3949C15.3334 16.3949 14.6388 16.517 14.1699 16.7439C13.4145 17.0929 13.0673 17.6775 13.0673 18.55C13.0673 19.5971 14.3436 20.2427 15.9151 21.0629L16.2103 21.1763C18.2507 22.2845 21.7324 24.0383 21.7324 28.0083C21.7324 29.701 21.0378 31.4548 19.9351 32.4495C18.8324 33.4442 17.2001 34.0288 15.4636 34.0288" fill="#060001"/>
<path d="M27.8272 34.151H23.9375V14.2398L24.0591 14.1787C24.1719 14.1176 27.4279 12.8438 30.8487 12.8438C34.5648 12.8438 36.4316 14.2398 36.4316 14.2398L36.4924 14.3009V18.1488L36.2579 17.9743C35.9106 17.7387 34.287 16.5782 31.2655 16.5171H31.0919C29.5203 16.5171 28.4177 16.8661 27.8967 17.0406L27.8359 17.1017V34.151H27.8272Z" fill="#060001"/>
</g>
<defs>
<clipPath id="clip0_597_3583">
<rect width="126" height="46.0088" fill="white"/>
</clipPath>
</defs>
</svg>
