<svg width="147" height="46" viewBox="0 0 147 46" fill="none" xmlns="http://www.w3.org/2000/svg">
<mask id="mask0_597_3588" style="mask-type:luminance" maskUnits="userSpaceOnUse" x="0" y="0" width="147" height="46">
<path d="M147 0H0V46H147V0Z" fill="white"/>
</mask>
<g mask="url(#mask0_597_3588)">
<path d="M40.3353 6.99378H42.8451L38.4351 19.7555H41.5902C41.8053 19.8276 41.9846 19.6834 42.128 19.3229L45.9644 8.11134H48.4024L44.3868 19.7555C43.9566 21.1975 43.0602 21.8464 41.7695 21.8104L28.9697 21.9185L33.6666 8.25554H36.248L32.2683 19.8276H35.8895L40.2995 7.02983L40.3353 6.99378ZM49.2988 19.8637H50.5178C50.8046 19.8637 51.1631 19.6474 51.5217 19.2148L52.5973 17.7728H55.0353L52.7048 20.7649C52.2029 21.3417 51.5575 21.6301 50.7329 21.7022H48.6534L49.2988 19.8637ZM59.8397 7.24613L60.0548 6.66933H62.4929L62.2778 7.24613H68.3012L67.6558 9.08469H61.6683L61.4531 9.7336H67.0822L65.1102 15.4295C64.68 16.7273 63.7119 17.3762 62.2778 17.3402H58.8358L57.3658 21.6662H54.8561L56.3261 17.3762H50.6253L53.2427 9.8057H59.0151L59.2302 9.15679H53.2785L53.9239 7.31823H59.8756L59.8397 7.24613ZM53.7446 15.3574H57.0431L57.3658 14.4201H54.0673L53.7446 15.3574ZM58.298 11.6803H54.9995L54.6768 12.6176H57.9753L58.298 11.6803ZM62.7439 15.069L62.9948 14.348H59.8397L59.517 15.2853H62.4929C62.4929 15.2853 62.708 15.1772 62.7797 15.069M59.9114 20.4405L59.6246 17.7007H62.0627L62.2778 19.2869C62.2419 19.6834 62.4212 19.8276 62.8873 19.7195H63.8553L63.21 21.558H61.3097C60.3775 21.4859 59.9114 21.0894 59.8756 20.4405M63.927 11.6082H60.7361L60.4134 12.5455H63.5685L63.8912 11.6082H63.927ZM73.5358 7.39033H75.0775L75.5078 6.74143H77.5156L77.157 7.39033H80.3839L78.2327 13.627H78.5553L77.8741 15.5737H77.4797L75.9739 19.9358H76.2248C76.4758 19.9718 76.6551 19.8276 76.7268 19.5392L80.0253 9.9499H86.1563L82.7861 19.6834C82.7144 19.8637 82.7861 19.9358 83.037 19.9358H83.2522L82.6426 21.7022H81.7822C80.6707 21.7022 80.2763 21.1975 80.7066 20.1521L83.5748 11.8245H81.3878L78.5553 20.0439C78.1609 21.1254 77.4797 21.7022 76.44 21.7022H75.3285L75.8305 20.2602C75.4002 21.2696 74.6473 21.7383 73.6075 21.7022H71.6714L72.2809 19.9358H73.5717C73.8944 19.9358 74.1453 19.7916 74.2887 19.3229L75.5795 15.5377H72.4244L70.8468 20.116C70.4524 21.1254 69.8429 21.6301 69.0183 21.7022H67.9785L68.6239 19.8637H68.8748C69.0541 19.8637 69.1975 19.7195 69.2692 19.4671L70.6317 15.5377H70.2014L70.8468 13.6631H71.3487L73.5358 7.35428V7.39033ZM72.2092 17.9891L72.8187 16.2226H74.4322L74.1095 17.1239C73.9661 17.3762 74.0019 17.5204 74.217 17.5204H74.3963L73.8227 19.2148H72.998C72.1017 19.2869 71.8507 18.8543 72.2092 17.9891ZM74.719 9.26494L73.2131 13.627H76.3324L77.8383 9.26494H74.719ZM74.4322 11.6803L75.0058 9.98595H76.6192L76.3683 10.743C76.2607 11.1035 76.2966 11.2477 76.5117 11.2117H76.7268L76.1531 12.906H75.2568C74.3605 12.9781 74.1095 12.5455 74.4322 11.6803ZM80.7783 7.28218H82.9653L83.1446 6.74143H85.2958L85.1166 7.24613H87.8414L87.1602 9.19284L80.1329 9.26494L80.8141 7.31823L80.7783 7.28218ZM95.9802 15.6458H90.0285L90.6739 13.8073L105.051 13.6991L104.406 15.5737H98.4541L97.1634 19.395H103.294L102.649 21.1975L87.8773 21.3057L88.5227 19.4671H94.7253L96.0161 15.6458H95.9802ZM95.4424 10.5627L96.1236 9.33704H98.6334L97.2351 11.8606C96.6973 12.8339 95.8009 13.3026 94.5102 13.1944H90.638L91.3551 11.1756H94.3668C94.7612 11.1756 95.1197 10.9954 95.4066 10.5627M99.0278 6.77748L99.2429 6.12858H101.896L101.681 6.77748H107.74L106.342 9.7336H104.155L104.585 8.50789L94.6895 8.57999L94.2234 9.8778H91.857L92.8968 6.84958H99.0278V6.77748ZM99.8524 11.8606L100.211 9.30099H102.613V10.5627C102.577 11.0314 102.864 11.2838 103.438 11.2117H106.091L105.446 13.0142H101.251C100.139 13.1584 99.6731 12.7258 99.8883 11.8245M110.501 18.3856L117.313 11.1035H120.361L113.656 18.3496H119.285L118.496 20.5847L108.35 20.6568L109.139 18.3496H110.501V18.3856ZM110.716 12.0408H111.433C111.72 12.1129 112.114 11.8966 112.545 11.3919L114.122 9.69755H117.098L113.979 13.2665C113.226 14.0236 112.437 14.3841 111.469 14.3841H109.927L110.752 12.0408H110.716ZM113.764 8.83234L114.552 6.56118L123.588 6.48908C123.839 6.48908 123.982 6.63328 124.125 6.99378L124.842 9.33704C125.058 9.91385 125.344 10.1301 125.703 10.1301H126.133L125.344 12.4013H123.659C122.978 12.4734 122.548 12.1129 122.333 11.3919L121.58 9.26494C121.472 8.97654 121.293 8.83234 121.042 8.83234H113.728H113.764ZM120.074 19.8276L118.496 14.8888H121.472L122.691 18.4217C122.691 18.5659 122.799 18.6019 123.014 18.6019H123.265L122.584 20.5847H121.293C120.683 20.5847 120.253 20.2963 120.074 19.8276ZM137.248 20.116L127.89 20.1881L130.579 12.3653L141.371 12.2932L139.148 18.674C138.861 19.6834 138.216 20.1521 137.248 20.116ZM130.866 11.428L131.547 9.44519L142.447 9.37309L141.765 11.3198L130.866 11.3919V11.428ZM138.359 14.3841H132.408L131.081 18.2775H136.638C136.889 18.2775 137.068 18.1333 137.176 17.8449L138.359 14.3841ZM143.845 8.11134L131.834 8.21949L132.515 6.20068L147 6.09253L142.698 18.6019C142.303 20.1521 141.443 20.8731 140.152 20.7649H138.61L139.256 18.8903H139.829C140.044 18.9264 140.188 18.8182 140.295 18.4938L143.881 8.14739L143.845 8.11134Z" fill="#E86D26"/>
<path d="M35.603 31.3637C35.0293 32.986 33.5235 34.1035 31.8025 34.1035C30.4042 34.1035 29.6871 33.3825 29.8305 32.0487L30.942 31.5439C30.8344 32.6255 31.2288 33.1662 32.1252 33.1662C33.2008 33.1662 34.133 32.4813 34.4915 31.5079C34.7783 30.7148 34.4915 30.138 33.7386 29.7414L32.8422 29.2728C31.8383 28.8041 31.5515 28.011 31.91 26.9295C32.3403 25.6678 33.7027 24.7305 35.1727 24.7305C36.2483 24.7305 36.8579 25.1631 36.9654 26.0643L35.8898 26.6411C35.7464 25.9562 35.3878 25.6317 34.7425 25.6317C33.9537 25.6317 33.2008 26.1725 32.9498 26.9295C32.7347 27.5784 32.9498 28.011 33.631 28.3715L34.7066 28.9123C35.7105 29.417 35.9974 30.2101 35.603 31.3637Z" fill="#0E3665"/>
<path d="M39.4747 24.9467L40.5503 24.9107L39.3313 28.3354L44.0281 28.2994L45.2472 24.8746H46.2869L43.1318 33.8151H42.0921L43.6696 29.3088L38.9728 29.3809L37.3952 33.8511H36.3555L39.4747 24.9467Z" fill="#0E3665"/>
<path d="M52.3105 33.7069H51.1632L50.9839 31.0031H47.542L45.4266 33.779H44.2793L51.5576 24.478L52.3105 33.7069ZM48.1515 30.1379H50.9839L50.733 26.8573L48.1515 30.1379Z" fill="#0E3665"/>
<path d="M56.6846 24.442L60.5926 31.5078L62.9948 24.7665L64.0346 24.7304L60.7719 33.9953L56.828 27.0016L54.4616 33.7069H53.4219L56.6846 24.442Z" fill="#0E3665"/>
<path d="M66.3651 24.7304H68.0502C69.6995 24.7304 70.9902 24.6943 71.779 25.5235C72.4961 26.2805 72.6036 27.5423 72.03 29.1285C71.4563 30.7147 70.4883 31.9765 69.1975 32.7335C67.8709 33.5627 66.7236 33.5987 65.2895 33.5987H63.21L66.3651 24.6943V24.7304ZM65.2895 32.6254C66.7953 32.6254 67.8351 32.6254 68.8031 31.9765C69.7353 31.3636 70.4883 30.3903 70.9185 29.1285C71.3487 27.8667 71.3129 26.9294 70.8109 26.3166C70.309 25.7037 69.2692 25.7037 67.7275 25.7037H67.0463L64.6083 32.6254H65.2895Z" fill="#0E3665"/>
<path d="M80.4551 32.373C79.2361 33.2743 77.8378 33.779 76.6188 33.779C75.3639 33.779 74.36 33.3104 73.7505 32.4452C73.141 31.5799 73.0693 30.4263 73.5354 29.1646C74.0015 27.9028 74.862 26.7132 76.081 25.848C77.2642 24.9467 78.6266 24.4781 79.8815 24.442C81.1364 24.442 82.1761 24.9107 82.7498 25.7759C83.3234 26.6411 83.3951 27.7947 82.9649 29.0564C82.5347 30.3182 81.6383 31.4718 80.4193 32.373M79.9173 31.652C80.8495 30.9671 81.5308 30.0298 81.8893 29.0564C82.2478 28.0831 82.212 27.1458 81.7459 26.4608C81.2798 25.7759 80.5269 25.4154 79.5588 25.4154C78.5908 25.4154 77.551 25.8119 76.6188 26.4969C75.6866 27.2179 74.9695 28.1191 74.611 29.1285C74.2525 30.1379 74.3242 31.0031 74.7544 31.7241C75.2205 32.4091 75.9734 32.8057 76.9415 32.8057C77.9095 32.8057 78.9493 32.4091 79.8815 31.6881" fill="#0E3665"/>
<path d="M86.6221 24.2257L90.5301 31.2555L92.8964 24.5141L93.9721 24.4781L90.7094 33.7429L86.7655 26.7492L84.3991 33.4545H83.3594L86.6221 24.2257Z" fill="#0E3665"/>
<path d="M103.259 28.7319L103.151 29.0203C102.147 31.8683 99.8168 33.5627 97.1277 33.5987C96.2673 33.5987 95.5502 33.4185 95.0841 33.094C93.9009 32.3009 93.6141 30.8589 94.2594 29.0564C94.7614 27.5783 95.6577 26.3526 96.9485 25.4514C98.0241 24.6583 99.2073 24.2617 100.498 24.2617C102.183 24.2617 103.223 24.8385 103.581 26.1003L102.47 26.8213C102.219 25.7398 101.43 25.199 100.175 25.2351C98.1316 25.2351 96.1597 26.8213 95.3709 29.0564C94.618 31.1834 95.5143 32.6975 97.558 32.6614C99.3148 32.6614 101.036 31.4357 101.789 29.7053H99.279L99.6016 28.768H103.259V28.7319Z" fill="#0E3665"/>
<path d="M39.1162 45.8918H37.9689L37.7896 43.188H34.3476L32.2323 45.9639H31.085L38.3633 36.663L39.1162 45.8918ZM34.9572 42.2868H37.7537L37.5028 39.0062L34.9572 42.2868Z" fill="#0E3665"/>
<path d="M43.3827 36.9514H44.4583L41.3031 45.8558H40.2275L43.3827 36.9514Z" fill="#0E3665"/>
<path d="M46.7889 36.9154H48.8684C49.6931 36.9154 50.3384 36.9154 50.7328 37.348C51.0913 37.7446 51.1631 38.4656 50.8762 39.3308C50.3743 40.7728 49.2628 41.5659 47.6853 41.5659H47.506L49.3704 45.7837H48.0438L46.3228 41.5659H46.1794L44.6735 45.8198H43.6338L46.7889 36.9154ZM46.4662 40.7728H47.255C48.6533 40.7728 49.4062 40.5565 49.8365 39.3308C50.3026 38.033 49.7289 37.7806 48.3306 37.8167H47.5418L46.5021 40.8088L46.4662 40.7728Z" fill="#0E3665"/>
<path d="M53.6017 36.8433H54.6773L51.8807 44.7382H55.2151L54.8566 45.7476L50.4824 45.7837L53.6017 36.8433Z" fill="#0E3665"/>
<path d="M59.4813 36.8073H60.521L57.3659 45.7116L56.3262 45.7477L59.4813 36.8073Z" fill="#0E3665"/>
<path d="M62.9951 36.4467L66.9032 43.5125L69.3053 36.7351H70.3451L67.0824 45.9999L63.1385 39.0062L60.7722 45.7115H59.7324L62.9951 36.4467Z" fill="#0E3665"/>
<path d="M72.6756 36.699L77.3366 36.663L76.9781 37.6363L73.3927 37.6724L72.4605 40.2319L76.0817 40.1959L75.7232 41.1692L72.1378 41.2053L70.9188 44.63L74.54 44.594L74.1815 45.5674L69.5205 45.6395L72.6756 36.699Z" fill="#0E3665"/>
<path d="M82.0336 43.0078C81.46 44.6301 79.9541 45.7476 78.2331 45.7476C76.8349 45.7476 76.1178 45.0266 76.2612 43.6928L77.3727 43.2241C77.2651 44.3056 77.6595 44.8824 78.5558 44.8464C79.5956 44.8464 80.5636 44.1614 80.9222 43.1881C81.209 42.395 80.9222 41.8182 80.1692 41.4216L79.2729 40.953C78.269 40.4483 77.9822 39.6912 78.3407 38.6097C78.771 37.3479 80.1334 36.4106 81.6034 36.4106C82.679 36.4106 83.2885 36.8432 83.3961 37.7445L82.3205 38.3213C82.177 37.6363 81.8185 37.3119 81.1731 37.3119C80.3844 37.3119 79.6314 37.8526 79.3805 38.6097C79.1653 39.2586 79.3805 39.6912 80.0617 40.0517L81.1373 40.5925C82.1412 41.0972 82.428 41.8903 82.0336 43.0078Z" fill="#0E3665"/>
<path d="M13.2307 19.6113C19.2541 13.4107 9.53775 8.39969 19.8277 2.19906C19.5051 1.98276 19.1824 1.80251 18.8597 1.62226C9.14336 9.37304 18.0709 11.7884 13.2307 19.6473M17.1029 19.7555C22.8036 14.0235 14.6648 9.98589 23.1263 5.40752C22.9112 5.11912 22.696 4.79467 22.4451 4.54232C14.1629 10.2382 21.6921 13.627 17.1029 19.7555ZM24.919 9.04859C22.0507 10.6708 22.9829 12.5455 22.9829 13.1944C23.8792 19.7915 18.4295 21.9545 18.4295 21.9545L5.05604 22.0627C18.6087 15.9702 3.2275 9.19279 14.9158 0.180251C14.1629 0.0721003 13.4099 0 12.6212 0C5.59384 0.0721003 -0.071034 5.84013 0.000673328 12.906C0.036527 19.9718 5.80897 25.6677 12.8363 25.5956C19.8636 25.5596 25.5285 19.7555 25.4926 12.6897C25.4926 11.4279 25.2775 10.2022 24.919 9.04859Z" fill="#103D69"/>
</g>
</svg>
