<svg width="251" height="47" viewBox="0 0 251 47" fill="none" xmlns="http://www.w3.org/2000/svg">
<path d="M207.875 33.6761C207.668 33.6761 207.428 33.9508 207.428 33.9508H208.253C208.253 33.9508 208.081 33.6761 207.84 33.6761" fill="#E6002D"/>
<path d="M232.937 0L202.168 35.5642C192.783 45.1418 185.941 46.0343 185.941 46.0343H235.79L250.023 0.0343284H232.937V0ZM207.84 32.3373C208.391 32.3373 208.837 33.0925 208.837 33.0925H206.843C206.843 33.0925 207.29 32.3373 207.84 32.3373ZM233.212 33.9851C236.271 34.294 236.443 33.2642 236.443 33.2642L237.234 33.5388C236.718 34.5 235.206 34.4657 235.206 34.4657H204.437C204.437 34.4657 205.847 34.5687 206.912 33.6418C207.84 32.8866 208.15 33.2642 208.837 33.6075C209.388 33.8821 209.938 33.9851 212.103 33.7791C216.16 33.4015 216.16 32.5433 219.77 27.291C220.939 25.609 222.658 22.691 224.583 19.7731C226.508 16.8552 228.502 16.5463 230.599 16.1343C232.696 15.7224 239.228 16.0313 239.022 16.0313C233.624 16.4433 232.249 18.7433 232.249 18.7433L223.001 32.2687L223.483 32.3373C223.483 32.3373 230.736 21.9015 232.387 19.4299C234.002 16.9925 237.818 16.5463 237.818 16.5463C237.062 17.2672 236.237 18.0567 235.653 18.8119L226.164 32.8522C226.164 32.8522 230.152 33.6418 233.212 33.9507" fill="#E6002D"/>
<path d="M168.855 34.397L168.58 37.1432H162.22C162.22 37.1432 161.12 37.0059 160.879 37.8641C160.57 38.9283 161.498 38.791 161.498 38.791H166.517C166.517 38.791 168.821 39.5806 168.786 41.9835C168.752 44.2492 167.652 45.9313 165.864 45.9313H157.613L157.785 43.288H165.761C165.761 43.288 167.205 42.1552 165.761 41.4343H160.054C160.054 41.4343 158.301 41.3313 158.232 38.7567C158.198 36.6283 158.61 36.0791 159.47 35.3238C160.501 34.397 161.979 34.397 161.979 34.397H168.821H168.855Z" fill="#E6002D"/>
<path d="M12.0201 34.397L11.745 37.1432H5.41941C5.41941 37.1432 4.3193 37.0059 4.07865 37.8641C3.76924 38.9283 4.66308 38.791 4.66308 38.791H9.68234C9.68234 38.791 11.9857 39.5806 11.9513 41.9835C11.9513 44.2492 10.8168 45.9313 8.99477 45.9313H0.77832L0.950213 43.288H8.92601C8.92601 43.288 10.3355 42.1552 8.92601 41.4343H3.21919C3.21919 41.4343 1.43151 41.3313 1.39713 38.7567C1.39713 36.6283 1.77529 36.0791 2.63476 35.3238C3.70049 34.397 5.14438 34.397 5.14438 34.397H11.9857H12.0201Z" fill="#E6002D"/>
<path d="M157.579 34.3627H148.709L147.85 46H157.029L157.201 43.3567H150.806L150.875 41.606H157.063L157.201 38.9283H151.081L151.219 37.1089H157.441L157.579 34.3627Z" fill="#E6002D"/>
<path d="M147.402 34.397L146.577 46H143.896L139.461 39.1L138.98 46H136.264L137.158 34.397H139.805L144.205 41.7432L144.755 34.397H147.402Z" fill="#E6002D"/>
<path d="M135.404 34.397L134.579 46H131.829L132.757 34.397H135.404Z" fill="#E6002D"/>
<path d="M126.431 34.397L125.847 43.2537H131.107L130.763 45.9313H122.925L123.75 34.397H126.431Z" fill="#E6002D"/>
<path d="M111.993 34.397L111.168 45.9656H113.815L114.503 37.3149H118.766C118.766 37.3149 119.453 37.2119 119.281 38.2761C119.144 39.1343 118.594 38.9283 118.594 38.9283H115.225L118.903 46H121.997L119.35 41.0223C119.35 41.0223 121.963 40.885 121.963 37.8298C121.963 34.7746 119.831 34.397 119.109 34.397H111.959H111.993Z" fill="#E6002D"/>
<path d="M102.092 34.397H99.3762L92.9131 45.9656H96.2134L97.6573 43.4253H102.195L102.986 45.9656H106.011L102.092 34.397ZM98.7574 41.6059L100.545 38.2761L101.611 41.6059H98.7574Z" fill="#E6002D"/>
<path d="M78.474 34.397H75.7581L69.2949 45.9656H72.5609L74.0391 43.4253H78.5427L79.3334 45.9656H82.3587L78.4396 34.397H78.474ZM75.1393 41.6059L76.9269 38.2761L77.9927 41.6059H75.1393Z" fill="#E6002D"/>
<path d="M110.205 34.397L109.38 46H106.664L107.592 34.397H110.205Z" fill="#E6002D"/>
<path d="M86.4502 34.397L85.6251 46H82.9092L83.803 34.397H86.4502Z" fill="#E6002D"/>
<path d="M31.8226 34.397H29.1067L22.6436 45.9656H25.9095L27.3878 43.4253H31.8914L32.6821 45.9656H35.7417L31.8226 34.397ZM28.4879 41.6059L30.2756 38.2761L31.3413 41.6059H28.4879Z" fill="#E6002D"/>
<path d="M70.4636 34.397L69.5698 45.9656H66.9226L67.232 41.7089H62.4534L62.0409 45.9656H59.3594L60.2532 34.397H63.0379L62.6941 39.0313H67.4039L67.8165 34.397H70.4636Z" fill="#E6002D"/>
<path d="M23.8462 34.397L22.9524 45.9656H20.3052L20.6146 41.7089H15.836L15.4235 45.9656H12.7764L13.6358 34.397H16.4205L16.0767 39.0313H20.7865L21.1991 34.397H23.8462Z" fill="#E6002D"/>
<path d="M58.9129 34.397H51.8653C51.8653 34.397 47.9462 34.5686 47.7399 38.0014C47.568 41.4343 47.6024 42.4298 47.6024 42.4298C47.6024 42.4298 47.5337 45.9656 50.6621 45.9656H58.2254L58.5004 38.8253H53.2749L53.1717 41.4343H55.8189L55.647 43.2537H51.0403C51.0403 43.2537 50.2496 43.3567 50.2496 42.4298C50.2496 41.5029 50.4558 38.3447 50.4558 38.3447C50.4558 38.3447 50.4558 37.0746 52.2091 37.0746H58.7066L58.9129 34.4313V34.397Z" fill="#E6002D"/>
<path d="M46.8458 34.3627L46.0895 45.9313H43.3049L38.9044 39.1686L38.4231 45.9657H35.6729L36.5323 34.3627H39.1795L43.6143 41.7089L44.2675 34.3627H46.8458Z" fill="#E6002D"/>
<path d="M30.0344 27.5314C29.5187 29.1105 31.4783 30.6552 32.3034 29.3851C35.3975 24.5448 34.9849 20.9403 34.9849 20.9403C34.9849 20.9403 30.4126 26.2955 30.0344 27.5314Z" fill="#E6002D"/>
<path d="M109.312 23.206C108.968 23.9269 107.043 24.2702 107.043 24.2702V21.7299C107.043 21.7299 111.168 20.2194 108.727 19.4299C106.286 18.6403 102.367 21.3523 102.367 21.3523C102.883 22.5881 105.117 22.2448 105.117 22.2448L105.049 24.5448C105.049 24.5448 102.023 25.0254 101.198 25.0254C99.9262 25.0254 99.1699 25.712 99.1699 26.3299C99.1699 26.9478 100.923 27.2911 100.923 27.2911C101.336 26.5702 104.877 26.3299 104.877 26.3299C104.877 26.3299 110.274 25.5747 110.824 24.8194C111.649 23.7553 109.655 22.5194 109.312 23.206Z" fill="#E6002D"/>
<path d="M138.464 20.0477L137.949 22.3134C137.364 21.7985 134.511 23.4806 134.511 23.4806C134.511 23.4806 133.858 23.7209 133.754 23.2059C133.686 22.691 136.848 19.6358 136.848 18.6403C136.848 17.6447 134.923 18.194 134.923 18.194L130.488 23.7209C130.488 23.7209 129.973 25.0597 131.589 25.4716C134.201 26.1925 138.395 23.5149 138.395 23.5149C138.395 23.5149 139.083 25.3686 139.839 25.0253C140.596 24.6821 141.971 23.4462 141.249 21.6612C139.908 18.3313 138.499 19.9791 138.499 19.9791" fill="#E6002D"/>
<path d="M15.9396 19.1552C14.1519 20.0477 12.5361 19.9448 12.5361 19.9448L13.0518 13.7313H15.8364C18.6555 12.5642 16.0083 10.7104 16.0083 10.7104H10.7484C9.71708 8.65073 8.58259 9.64625 8.03254 10.8821C7.27621 12.5642 9.47643 20.7 9.47643 20.7C9.47643 20.7 8.10129 21.1463 7.00118 21.2492C5.90107 21.3179 0.434903 22.5194 0.125497 23.5492C-0.562072 25.7119 1.74128 25.7806 3.01329 26.0552C4.28529 26.3298 17.6241 23.206 18.3804 22.9313C19.1368 22.6567 19.9962 21.9701 19.8931 20.4597C19.8243 18.9492 16.7303 18.8119 15.9052 19.1895" fill="#E6002D"/>
<path d="M35.3975 13.5597C34.8131 8.75373 32.0972 10.0925 32.0972 10.0925C32.0972 10.0925 30.4814 10.7104 31.6847 12.5642C34.2287 15.3448 35.4319 13.5597 35.4319 13.5597" fill="#E6002D"/>
<path d="M33.1971 19.6359C32.5783 14.8299 29.8968 16.1687 29.8968 16.1687C29.8968 16.1687 28.281 16.7866 29.4499 18.6747C31.9939 21.4553 33.1971 19.6702 33.1971 19.6702" fill="#E6002D"/>
<path d="M51.0404 19.7045C50.1122 19.1552 48.3933 20.2194 48.3933 20.2194C48.3933 20.2194 49.1496 15.9283 48.2901 15.7567C47.4307 15.5851 44.1304 17.6104 44.0272 16.6492C43.9585 15.6537 48.7027 12.1865 48.7027 12.1865C48.7027 12.1865 49.2871 11.6373 48.5308 11.294C46.8463 10.5045 40.7956 14.6925 40.4519 14.8642C40.1081 15.0358 40.0393 14.5895 40.0393 14.5895C40.0393 14.5895 44.646 7.10595 44.9898 6.14475C45.3336 5.14923 44.3022 4.18804 42.7896 4.80595C41.2426 5.42386 42.2052 7.92983 42.2052 7.92983C42.6177 8.47908 40.2456 11.3283 40.2456 11.3283C40.2456 11.3283 37.5985 15.5164 37.5297 16.2373C37.4609 16.9582 38.2173 18.1254 38.7329 17.4045C39.2486 16.6836 43.4772 15.688 43.4772 15.688L39.8331 21.9358C39.8331 21.9358 37.1172 22.0388 36.1202 22.5537C35.0888 23.0686 35.6045 24.2358 35.6045 24.2358C35.6045 24.2358 38.6298 23.8239 38.0798 24.5104C35.8795 27.0851 36.2921 29.1448 36.2921 29.1448L43.4428 28.0806C43.4428 28.0806 42.5833 32.1657 43.374 32.097C46.365 31.7537 46.5025 28.0119 46.5025 28.0119L47.2588 27.1194C47.2588 27.1194 47.7745 23.103 47.7745 22.3134C47.7745 21.5239 50.731 21.9701 51.4186 21.7642C52.1062 21.5925 52.003 20.2537 51.0748 19.7388M41.8614 20.3224C41.8614 20.3224 42.5489 20.597 42.4458 21.1462H41.4832L41.827 20.3224H41.8614ZM38.4579 26.3985C37.7703 26.1925 40.7613 22.8283 40.7613 22.8283C40.7613 22.8283 43.2365 24.5448 43.1334 25.1627C42.9615 26.1239 39.9018 26.8791 38.4579 26.3985ZM43.7178 19.0179C43.4428 19.6701 43.2365 19.0522 42.9615 19.0179C42.102 18.8462 43.3053 17.7477 43.3053 17.7477C43.3053 17.7477 44.1991 17.8507 43.7178 19.0179ZM44.6804 23.9955C44.096 24.5104 42.8927 22.1074 44.6804 21.9358C44.6804 21.9358 46.1243 22.7254 44.6804 23.9955ZM45.368 20.8716C45.0586 21.4552 43.6491 18.8462 45.368 18.5716C45.368 18.5716 46.5368 18.5716 45.368 20.8716Z" fill="#E6002D"/>
<path d="M115.019 8.2045C113.231 9.54331 110.103 10.1955 109.656 10.0926C109.243 9.98957 106.012 6.79704 106.012 6.79704C103.124 6.28211 103.468 7.9642 103.468 8.58211C103.468 9.20002 105.668 11.3284 105.668 11.3284C104.98 11.9463 99.7203 12.5642 99.7203 12.5642C99.7203 12.5642 97.0044 11.8776 96.3168 12.5642C94.2541 14.6239 95.7324 18.1941 96.248 18.8463C96.7637 19.4642 97.5201 18.2284 97.7951 17.8508C98.0357 17.5075 97.52 15.1732 97.7263 14.7269C97.8982 14.2806 102.23 13.2851 102.23 13.2851C102.746 17.5761 100.614 18.0911 100.614 18.0911L100.545 18.7433C100.545 18.7433 101.13 19.3612 101.645 18.8463C105.702 14.5896 103.949 12.4955 104.361 12.5642C104.774 12.6672 108.59 11.706 108.59 11.706C108.59 11.706 113.781 9.64629 114.022 10.3672C114.503 11.7746 111.89 13.0448 111.89 13.0448C112.303 13.4911 113.919 12.7015 113.919 12.7015C113.919 12.7015 116.703 13.2508 117.391 11.0881C117.838 9.71495 115.706 7.68957 115.019 8.23883" fill="#E6002D"/>
<path d="M111.958 15.3448C111.718 15.6881 111.099 15.5164 111.099 15.5164C111.89 14.2806 110.927 11.9463 110.067 11.9463C109.208 11.9463 108.349 15.4135 108.967 16.9239C109.586 18.4343 112.955 17.8164 112.955 17.8164C112.955 17.8164 113.265 17.4732 113.712 16.5806C114.399 15.2418 112.199 15.0015 111.924 15.3448" fill="#E6002D"/>
<path d="M132.207 14.7269C132.826 14.006 131.795 11.9463 130.076 12.2552C128.391 12.5298 126.328 16.9239 126.947 17.7478C127.704 18.8463 131.623 15.4478 132.207 14.7269Z" fill="#E6002D"/>
<path d="M143.174 9.71495C140.287 10.9851 142.59 15.6881 143.003 16.306C143.415 16.9239 145.272 16.7179 145.443 15.9627C145.959 14.109 145.1 8.89107 143.174 9.71495Z" fill="#E6002D"/>
<path d="M170.196 5.08063C169.955 5.35526 163.561 7.65526 163.561 7.65526C163.561 7.65526 160.57 6.76272 160.433 9.09705C161.292 11.9463 163.664 10.0582 163.664 10.0582C167.377 7.20899 169.096 7.48362 169.096 7.48362L169.268 23.1717C169.268 23.1717 166.655 25.7463 167.996 27.6344C169.199 29.3508 170.471 27.6344 170.987 27.0165C171.502 26.3985 171.846 7.41496 171.846 6.62541C171.846 5.83586 170.505 4.84033 170.23 5.11496" fill="#E6002D"/>
<path d="M158.301 15.0015L156.272 15.0702C156.032 16.512 157.991 17.0269 159.16 16.512C164.42 14.212 165.211 12.3926 165.211 12.3926C164.454 10.8821 158.301 15.0015 158.301 15.0015Z" fill="#E6002D"/>
<path d="M162.701 16.5119C161.601 16.6149 156.685 20.7686 156.685 20.7686C157.028 24.3388 160.844 23.5492 161.704 23.1716C162.563 22.8283 164.523 18.6059 164.832 18.091C165.176 17.5761 163.801 16.4089 162.701 16.5119ZM161.085 21.4208C159.813 22.2104 158.61 22.4164 158.472 21.0776C158.472 21.0776 161.704 18.0567 161.876 18.5029C162.048 18.9492 162.391 20.6313 161.085 21.4552" fill="#E6002D"/>
<path d="M85.6242 20.4597C85.6242 20.4597 85.6242 20.1508 85.2805 20.3224C83.9397 21.112 84.5929 25.0254 82.1864 25.5403C79.2642 26.1582 78.1641 24.2702 77.8891 23.0343C77.5797 21.4896 79.5736 17.7134 79.883 16.5463C80.2268 15.3791 77.6485 15.3105 77.6485 15.3105C78.7829 13.4567 79.7112 12.2552 80.8113 12.5299L80.88 11.5343H80.1237C80.1237 11.5343 80.2956 9.303 77.8891 7.8612C76.5483 7.03732 75.1732 8.17016 75.1044 8.44479C74.3137 11.4657 77.9922 11.1567 77.9922 12.1522C77.9922 12.8731 74.2106 13.2851 73.523 13.6627C73.0074 13.9373 72.973 14.7612 73.4199 15.0702C74.3825 15.6194 76.514 13.8 76.9609 13.3881C77.3734 13.2851 77.1328 13.903 77.064 14.212C76.6859 15.5508 73.6606 19.1896 71.0478 24.1672C70.9103 24.4075 71.0822 25.3343 71.5635 24.9224C72.0448 24.5105 75.0013 18.9493 76.067 17.9194C77.5453 16.512 78.1297 17.1642 78.0954 17.5761C78.061 18.812 75.5514 24.4761 77.4766 26.5702C78.8517 28.0806 84.2835 27.3597 85.5899 26.6388C85.8993 26.4672 86.3462 25.8149 85.4867 24.9911C84.8679 24.3731 85.6586 20.4254 85.6586 20.4254" fill="#E6002D"/>
<path d="M70.3602 17.6105C70.1883 17.0269 71.7697 15.5508 71.0821 14.4179C70.8415 13.7314 69.3976 13.8344 69.3976 13.8344C69.3976 13.8344 70.7727 11.5344 71.0134 10.3672C71.2884 9.20004 69.2944 8.61646 69.2944 8.61646C66.166 11.0881 62.5906 17.8508 62.5906 17.8508C62.5906 17.8508 62.9688 18.7776 63.2094 18.0911C63.4845 17.3702 66.716 15.3448 66.716 15.3448C67.7818 17.2672 69.0882 15.6538 69.0882 15.6538C69.0882 15.6538 69.0882 16.9582 69.0882 17.3015C69.0882 17.5418 67.5068 16.615 66.8192 16.7179C65.3409 16.9239 66.7504 18.4687 66.7504 18.4687C66.7504 18.9836 66.716 19.2582 66.7504 19.4642C66.441 19.7388 65.7535 19.5672 65.7535 19.5672C65.7535 19.5672 66.0285 16.8896 65.6159 16.8553C65.2378 16.8209 64.7565 17.7135 64.7565 17.7135C64.7565 17.7135 64.4471 19.3956 64.3783 20.5284C58.9121 21.7299 58.5684 22.5194 58.5684 22.5194C58.5684 22.5194 58.6371 23.4463 59.2903 23.7896C59.9091 24.1329 60.5623 24.3045 61.1124 23.3776C61.5593 22.6911 64.2752 21.4553 64.2752 21.4553L64.1033 26.4672C64.1033 26.4672 64.1377 28.1493 65.0315 27.7717C66.2347 27.2568 65.9253 21.4553 65.9253 21.4553H66.3035C66.6817 24.2359 68.5381 24.0299 68.5381 24.0299C68.5381 24.0299 68.9506 24.7508 68.8131 25.1971C68.6412 25.6433 67.5755 25.506 67.5755 25.506C68.1256 26.2956 68.5037 25.8493 68.8475 28.115C68.985 28.8359 70.3602 28.012 70.6008 27.3941C70.8071 26.8105 70.3945 19.9791 70.3945 19.9791C72.801 17.4388 70.5321 17.7478 70.4289 17.6791M68.4693 21.215L68.1599 21.112C68.1599 21.112 68.0568 20.2538 68.2631 20.1508C68.4693 20.0135 68.5725 20.0821 68.5725 20.0821C68.5725 20.0821 68.6412 21.1463 68.4693 21.1806" fill="#E6002D"/>
</svg>
