<svg width="151" height="46" viewBox="0 0 151 46" fill="none" xmlns="http://www.w3.org/2000/svg">
<g clip-path="url(#clip0_597_3586)">
<mask id="mask0_597_3586" style="mask-type:luminance" maskUnits="userSpaceOnUse" x="0" y="0" width="151" height="46">
<path d="M151 0H0V46H151V0Z" fill="white"/>
</mask>
<g mask="url(#mask0_597_3586)">
<path d="M121.537 40.8483C119.513 43.8501 118.461 43.7284 116.64 43.5255C116.235 43.485 116.235 43.5256 116.033 43.8501L115.547 44.6208C115.345 44.9453 115.345 44.9859 115.831 45.1887C119.271 46.6084 122.387 46.3651 124.896 42.552L136.512 25.0282C137.685 23.2839 138.171 22.3509 139.79 22.2698C140.802 22.2293 141.49 22.8783 141.692 23.6896C141.773 24.0952 142.016 24.0952 142.259 24.0547L145.294 23.1622C145.294 23.1622 145.577 22.8783 145.577 22.5943C145.618 21.7019 145.092 20.4039 144.282 19.7548C141.975 17.97 138.495 18.5785 135.864 19.0652C131.695 19.8765 126.596 21.5397 122.185 23.7301C121.051 24.298 119.756 24.9065 119.028 25.9612C117.814 27.7866 114.414 33.0194 113.119 34.8042C110.933 37.7654 110.003 37.6437 108.181 37.4409C107.898 37.4409 107.858 37.4409 107.736 37.6843L107.17 38.5767C106.967 38.9012 107.008 38.9418 107.251 39.0229C110.731 40.5644 113.766 40.5238 116.397 36.589L121.901 28.3139C122.711 27.097 124.046 26.3668 125.099 26.0017L117.288 37.7654C115.304 40.7672 114.252 40.6455 112.431 40.4427C112.026 40.4021 112.026 40.4427 111.824 40.7672L111.338 41.5785C111.176 41.8218 111.095 41.903 111.541 42.1058C115.264 43.6878 118.218 43.2416 120.647 39.5097L130.279 24.9065C130.805 24.1358 131.979 23.5273 133.152 23.2839L121.456 40.8483H121.537ZM141.247 4.78658C140.235 5.31391 138.13 5.59787 137.281 4.66488C136.35 6.1252 138.13 7.50439 140.235 6.73367C141.449 6.28746 142.744 5.71956 144.08 5.51674C145.456 5.31391 147.156 5.51674 147.722 6.1252C142.542 6.44972 135.905 9.28922 130.967 12.7778C127.122 15.4956 124.734 17.9294 121.82 21.8236C121.416 22.3915 121.497 22.7972 122.185 22.4321C125.584 20.6878 129.955 19.2681 133.719 18.3351C136.754 17.5644 139.952 16.8748 143.028 17.7266C144.565 18.1323 146.022 19.1464 146.549 20.7284C147.277 22.716 146.71 25.1093 144.323 25.4744C143.149 25.6367 142.34 25.1905 141.894 24.582C141.692 24.298 141.571 24.2575 141.409 24.298L138.333 25.231C138.333 25.231 137.928 25.515 138.05 25.8395C138.333 26.5291 138.98 27.4621 139.709 28.03C141.652 29.4903 144.201 29.6525 146.427 28.7601C149.503 27.5838 151.122 24.3386 150.677 20.9312C150.272 17.8077 147.965 15.2116 145.051 14.1975C142.097 13.1834 138.09 13.6296 134.812 14.806C133.962 15.1305 133.76 15.2522 134.245 14.806C136.552 12.94 141.166 10.7495 145.011 9.6543C147.641 8.88358 150.11 8.72132 150.798 9.28922C151.527 4.86771 147.844 1.98764 143.392 3.12344C144.97 2.10933 143.716 -0.0811463 141.449 -0.040582C137.685 -0.040582 134.124 1.70369 130.643 2.06877C128.66 2.27159 126.353 1.90651 124.815 1.09522C124.532 4.17811 128.296 6.44972 131.857 5.71956C134.367 5.19222 136.714 3.97529 139.021 3.44795C141.085 3.00175 142.137 4.25924 141.166 4.74601" fill="#C51724"/>
<path d="M99.6009 37.1975L99.8842 35.5749C99.8842 35.5749 99.0748 35.2098 97.7392 35.2504C96.1608 35.291 95.4323 36.1428 95.23 36.5079C94.9062 37.0352 94.8252 37.6843 94.9871 38.2116C95.23 38.9418 95.9584 39.1851 96.6869 39.3474C97.0917 39.4285 98.2249 39.4691 97.9416 40.1587C97.8202 40.4426 97.4559 40.5238 96.9298 40.5238C96.0799 40.5238 95.1895 40.3615 94.5824 39.8342L94.2991 41.335C94.2991 41.335 94.6229 41.5784 95.1085 41.7407C95.5942 41.903 96.606 41.9841 97.1726 41.903C97.7392 41.7813 98.4677 41.619 99.0343 41.0511C99.3581 40.7266 99.7628 39.9964 99.7223 39.3474C99.7223 38.7795 99.3581 38.3333 98.8319 38.0899C98.2249 37.7654 97.4154 37.8059 96.8893 37.4409C96.5655 37.238 96.606 36.8324 97.3345 36.6701C97.7392 36.589 98.3058 36.6296 98.7105 36.7513C99.1962 36.9135 99.52 37.1975 99.52 37.1975M81.9957 35.3721H84.0193L83.9383 36.1428C85.0311 35.007 86.7309 34.9259 87.2975 36.1428C87.4999 36.5079 87.4189 36.9541 87.3784 37.4003L86.569 41.7813H84.6264L85.3549 37.8465C85.4358 37.3192 85.4358 37.0352 84.8692 37.0352C84.505 37.0352 83.6955 37.4003 83.6146 37.8871L82.8861 41.7813H80.8625L82.0362 35.3721H81.9957ZM90.8995 36.8324C90.8995 36.8324 91.5066 36.6701 91.8303 36.8324C92.0732 36.9541 92.2351 37.3192 92.1946 37.6843H90.2115C90.2924 37.2786 90.6971 36.9541 90.8995 36.873M89.9282 39.0229H93.8134C94.0968 37.8465 94.1777 36.4673 93.2873 35.7372C92.3565 35.007 90.7781 35.0881 89.6449 35.8589C89.6449 35.8589 88.3902 36.6296 88.1069 38.7389C87.9855 39.8342 88.1069 40.97 89.1187 41.4973C90.0091 41.9841 91.3042 41.9841 92.3565 41.5784C92.5993 41.4973 92.8017 41.4162 93.004 41.2945L93.2468 39.9559C93.2468 39.9559 91.8303 40.5238 90.7781 40.2398C90.2115 40.0776 89.8472 39.5908 89.9282 38.9823M74.6299 35.4127L74.3466 36.9947C73.4966 36.6701 72.5658 37.4003 72.0801 38.1305L71.3921 41.8218H69.4899L70.6636 35.4127H72.4849L72.2825 36.4268H72.323C72.6467 35.8994 73.0515 35.4938 73.6585 35.3315C73.9418 35.2504 74.468 35.3315 74.5894 35.4127M47.8376 35.3721H49.8612L49.7397 36.1428C50.8325 35.007 52.5323 34.9259 53.1394 36.1428C53.3013 36.5079 53.2608 36.9541 53.1798 37.4003L52.4109 41.7813H50.4278L51.1563 37.8465C51.2372 37.3192 51.2372 37.0352 50.6706 37.0352C50.3064 37.0352 49.4969 37.4003 49.416 37.8871L48.6875 41.7813H46.6639L47.8376 35.3721ZM43.3452 36.8324C43.3452 36.8324 43.9523 36.6701 44.2761 36.8324C44.5189 36.9541 44.6808 37.3192 44.6403 37.6843H42.6572C42.7381 37.2786 43.1429 36.9541 43.3452 36.873M42.3739 39.0229H46.2996C46.5829 37.8465 46.7044 36.4673 45.733 35.7372C44.8022 35.007 43.2643 35.0881 42.0906 35.8589C42.0906 35.8589 40.7955 36.6296 40.5527 38.7389C40.4313 39.8342 40.5527 40.97 41.5645 41.4973C42.4548 41.9841 43.7499 41.9841 44.8022 41.5784C45.045 41.4973 45.2474 41.4162 45.4497 41.2945L45.6926 39.9559C45.6926 39.9559 44.2761 40.5238 43.2238 40.2398C42.6572 40.0776 42.2929 39.5908 42.3334 38.9823M34.8866 33.8306H36.9102L36.5055 36.1428C37.5982 35.007 39.298 34.9259 39.8646 36.1428C40.0265 36.5079 40.0265 36.9541 39.9456 37.4003L39.1766 41.7813H37.1935L37.922 37.8465C38.0434 37.3192 38.0029 37.0352 37.4363 37.0352C37.0721 37.0352 36.2627 37.4003 36.1817 37.8871L35.4532 41.7813H33.4296L34.8866 33.8306ZM21.45 35.3721H23.4736L23.3522 36.1428C24.4449 35.007 26.1447 34.9259 26.7113 36.1428C26.8732 36.5079 26.8328 36.9541 26.7518 37.4003L25.9828 41.7813H23.9997L24.7282 37.8465C24.8092 37.3192 24.8092 37.0352 24.2426 37.0352C23.8783 37.0352 23.0689 37.4003 22.9879 37.8871L22.2594 41.7813H20.2359L21.4095 35.3721H21.45ZM16.9981 36.8324C16.9981 36.8324 17.6052 36.6701 17.929 36.8324C18.1718 36.9541 18.3337 37.3192 18.2932 37.6843H16.3101C16.391 37.2786 16.7958 36.9541 16.9981 36.873M16.0268 39.0229H19.9526C20.2359 37.8465 20.3168 36.4673 19.386 35.7372C18.4551 35.007 16.9172 35.0881 15.7435 35.8589C15.7435 35.8589 14.4889 36.6296 14.2056 38.7389C14.0842 39.8342 14.2056 40.97 15.2174 41.4973C16.0673 41.9841 17.4028 41.9841 18.4146 41.5784C18.6575 41.4973 18.8598 41.4162 19.0622 41.2945L19.305 39.9559C19.305 39.9559 17.8885 40.5238 16.8362 40.2398C16.2696 40.0776 15.9459 39.5908 15.9459 38.9823M8.49906 33.8306H10.5226L10.1179 36.1428C11.2107 35.007 12.9105 34.9259 13.4771 36.1428C13.639 36.5079 13.5985 36.9541 13.5176 37.4003L12.7486 41.7813H10.7655L11.494 37.8465C11.5749 37.3192 11.5749 37.0352 11.0083 37.0352C10.6441 37.0352 9.83463 37.4003 9.75369 37.8871L9.02519 41.7813H7.00161L8.45859 33.8306H8.49906ZM6.47548 36.0211L6.79925 34.1146C6.79925 34.1146 5.82793 33.6278 4.16859 33.709C2.26642 33.7495 1.33557 34.8042 1.09274 35.2098C0.688019 35.8589 0.566604 36.589 0.849906 37.1975C1.17368 37.9276 2.02359 38.2927 2.91396 38.4955C3.39962 38.6172 4.85661 38.7795 4.53283 39.5908C4.37095 39.9559 3.88529 40.1587 3.27821 40.1587C2.22594 40.1587 1.05226 39.9964 0.323774 39.388L0 41.1728C1.21415 42.1058 3.80434 42.1869 5.3018 41.2945C6.23264 40.7672 6.71831 39.8342 6.63736 38.9012C6.59689 37.9682 5.90887 37.4814 5.13991 37.1975C4.45189 36.9541 3.64245 36.8324 3.11632 36.4268C2.79255 36.1834 2.83302 35.5343 3.84481 35.3315C4.33047 35.2098 4.97802 35.3315 5.50415 35.4938C6.07076 35.6966 6.47548 36.0617 6.47548 36.0617M78.7984 35.4127H80.7006L80.9839 33.8712H79.0817L78.7984 35.4127ZM77.6248 41.7813H79.5269L80.5792 36.0211H78.677L77.6248 41.7813ZM74.4275 41.7813H76.3297L77.7866 33.8306H75.8845L74.4275 41.7813ZM60.6266 38.6984L62.2455 35.3315L62.5693 38.6984H60.5862H60.6266ZM56.9032 41.7813H59.1292L59.8981 40.2804H62.7716L62.974 41.7813H65.119L64.0263 33.8306H60.9909L56.9437 41.7813H56.9032ZM67.4259 35.4127H69.3281L69.6114 33.8712H67.7092L67.4259 35.4127ZM66.2522 41.7813H68.1544L69.2066 36.0211H67.3045L66.2522 41.7813ZM28.3302 35.3721H33.6725L30.2324 40.2804H32.7821L32.4988 41.7407H26.9137L30.3133 36.9541H28.0064L28.2897 35.3315L28.3302 35.3721Z" fill="#040000"/>
<path d="M73.9015 16.672L71.9994 26.9753C71.878 27.5432 72.9707 27.5432 73.0921 26.9753L73.5373 24.6226L75.6014 25.3527L74.9943 27.4215C74.6705 28.2734 74.0634 28.8007 73.0112 28.8818H71.0685C69.9353 28.8007 69.3687 28.1111 69.4496 27.1781L71.109 18.2945H69.3687L68.3164 23.933C67.9117 26.1235 66.738 28.4356 64.2288 29.2875L63.0146 28.3545C64.7549 27.381 65.2001 26.4074 65.5644 24.3792L66.9809 16.7531H73.942L73.9015 16.672ZM60.0197 16.1446H61.8005L61.072 19.9171H61.8814L62.6909 15.4956H59.3317L58.4818 20.0388H59.2508L59.9793 16.1446H60.0197ZM1.90234 27.3404L6.27329 21.8642L7.64933 22.8377L3.9664 28.8818L1.90234 27.3404ZM4.08782 17.0776C5.62574 17.4833 7.1232 18.0917 8.45876 18.7813L6.88037 20.8095C5.86857 19.836 4.81631 19.0653 3.48074 18.4568L4.08782 17.0776ZM13.3154 29.1252L14.2057 24.4603C12.6273 26.0423 10.28 27.6243 7.85169 28.7601L7.00178 27.2593C9.67291 25.9612 11.8584 24.3386 13.5582 22.5538H8.45876L8.74206 21.0529H14.7724L15.0557 19.5115H17.6458L17.3221 21.0529H23.7166L23.4333 22.5538H17.9291C18.8195 24.2169 21.1669 26.3669 23.1905 27.4215L21.8954 28.8413C19.9527 27.7055 17.8482 25.9206 16.6745 24.3792L15.8246 29.1252H13.2749H13.3154ZM40.7552 26.7725L43.3454 12.8589H45.976L43.3859 26.7725H40.7552ZM41.767 12.8589L40.2695 20.8095C39.5006 24.9877 38.165 26.5697 34.4821 29.0847L32.6204 28.3545C35.6153 26.4074 36.7485 25.1499 37.3151 22.1076L39.0554 12.8589H41.767ZM89.4832 15.8607L88.9975 18.0917C88.3095 21.134 83.6957 21.2152 81.065 21.3369L80.458 19.9982C83.1696 19.836 85.8002 19.1464 86.1645 17.5644L86.5287 15.8607H89.4832ZM94.8254 15.8607L94.2588 18.7002C94.1779 19.1464 94.4207 19.5115 94.9873 19.5115H95.9991C96.5252 19.5115 96.9299 19.1464 97.1728 18.7002L97.6989 17.5238L99.9249 18.6191C99.1964 19.9982 98.306 21.0529 96.4443 21.0529H93.1256C91.6686 21.0529 91.1425 20.1605 91.3448 19.0247L91.9924 15.8607H94.7849H94.8254ZM81.9959 21.9048H97.8203L97.4966 23.6896H91.0615L90.414 27.097H99.2773L98.9535 28.8818H78.8391L79.1629 27.097H87.3381L87.9857 23.6896H81.6721L81.9959 21.9048ZM92.7614 12.6967L92.559 13.4268H101.058L100.37 16.9154H97.6584L98.0227 14.8871H84.4242L83.979 17.2399H81.2269L81.9554 13.4268H90.0093V12.6967H92.8018H92.7614ZM72.5255 12.6967L72.0398 14.2381H76.3298L76.0465 15.7795H65.5644L65.8477 14.2381H69.7329L69.8948 12.6967H72.5255ZM62.1647 12.6967L61.2744 13.9542H65.3215L64.2693 19.6737L65.6048 19.5926L65.362 21.0529L63.986 21.2152L62.9742 26.6508C62.6909 27.9894 61.841 28.963 60.0197 28.963H57.6319L57.3486 27.1376C58.239 27.2187 60.4649 27.9489 60.7078 26.7725L61.6791 21.5397L60.9101 21.6208L60.1816 25.5556H58.4009L59.0889 21.8642L58.3199 21.9453L58.158 22.8377C57.5914 25.8395 56.1344 27.8677 54.0299 29.2064L52.6944 28.3545C54.1109 27.4215 55.2036 25.8395 55.5274 24.1764L55.8916 22.1887L54.0704 22.3915L54.4346 20.3633L56.2559 20.2416L57.4295 13.9542H59.0079L59.5341 12.6967H62.2862H62.1647ZM50.2256 12.6967L47.2307 29.1658H44.6L47.5949 12.6967H50.2256ZM35.9795 12.6967L35.1296 17.2399H37.0723L36.789 18.7813H34.8463L33.9155 23.8113L35.4534 23.4462L35.1701 25.0688L28.2899 27.4621L27.6019 25.4744L31.2039 24.5415L32.2561 18.8219H29.6255L29.9088 17.2804H32.5394L33.3489 12.7372H36.02L35.9795 12.6967ZM24.8903 12.6967L24.2832 15.9012H21.693L22.0168 14.1164H20.6408L19.9932 17.4427C19.9527 17.7266 20.1146 17.9295 20.4789 17.9295H20.7622C21.2074 17.9295 21.3692 17.6861 21.5311 17.3616L21.9358 16.5503L24.0808 17.4833C23.3524 18.6191 22.5024 19.5115 20.8026 19.5115H19.1838C17.8887 19.5115 17.2007 18.7002 17.403 17.6049L18.0506 14.157H16.5126L16.1889 15.9418C15.7032 18.7407 13.0725 19.552 10.1181 20.2822L9.30867 18.903C11.2108 18.4162 13.3154 17.7266 13.7606 15.9012L14.1248 14.1164H12.7083L12.3845 15.8607H9.87527L10.4823 12.6967H24.8498H24.8903ZM6.96131 12.6967C7.85169 13.0212 8.66112 13.3862 9.5515 13.8325L7.9731 15.8607C6.96131 14.8871 6.19235 14.2787 4.89725 13.6296L5.34244 12.6967H6.96131Z" fill="#040000"/>
<path d="M90.0491 12.6966L90.1705 11.1146L93.125 11.5203L92.8012 12.7372H90.0896L90.0491 12.6966ZM69.8537 12.6966L69.9751 11.6014L72.7272 11.9665L72.4844 12.6966H69.8537ZM59.412 12.6966L59.9786 11.3174L62.6498 12.0476L62.2046 12.6966H59.4525H59.412ZM47.5943 12.6966L47.7157 12.0476H50.3463L50.2249 12.6966H47.5943ZM33.3482 12.6966V12.4938H36.0598V12.6966H33.3482ZM10.4817 12.6966V12.6155H24.8896V12.6966H10.4817ZM5.3418 12.6966L5.54416 12.291C6.02982 12.4127 6.51548 12.5749 6.96067 12.6966H5.3418Z" fill="#040000"/>
</g>
</g>
<defs>
<clipPath id="clip0_597_3586">
<rect width="151" height="46" fill="white"/>
</clipPath>
</defs>
</svg>
