<svg width="165" height="46" viewBox="0 0 165 46" fill="none" xmlns="http://www.w3.org/2000/svg">
<g clip-path="url(#clip0_583_2680)">
<path d="M79.3244 15.9282L79.1921 14.9369L78.9936 14.0116L78.4644 12.7558L78.0012 11.6984L77.3397 10.9053L76.6781 10.2443L76.0826 9.45123L75.4211 8.92249L74.3625 8.39376L73.5686 7.99721L72.3116 7.53456L71.5177 7.40238H71.0546L70.9884 7.33629H70.1284L69.0698 7.2041L68.4744 7.46847H66.9527L66.1588 7.79893L65.2326 8.12939L64.2402 8.26157L63.4463 8.72422L62.4539 9.05468L61.66 9.25295H60.9984L60.2045 9.51732H58.0213L57.2274 9.6495H56.4335L55.5734 10.1121L55.1765 11.2357L54.8457 12.0288L54.6472 12.9541V14.0777L54.3164 14.8708V17.2501L54.4487 17.9771L54.8457 19.0346V20.0259L55.1765 21.2817L55.6396 22.207V23.0662L55.9704 23.661L56.4335 24.4541L56.9628 24.9828L57.3597 25.3794L57.5582 25.9742V26.3708L57.6905 26.7012L58.0213 27.0978L58.4844 27.5604L59.0137 27.6926L59.6091 27.4943L59.9399 27.0317L60.2707 26.569L60.4692 26.0403L60.6015 25.3794L60.4692 24.1236V23.661L60.0722 22.4053L59.7414 21.7443L59.3445 20.819V20.1581L58.8814 19.365L58.5506 18.5058V17.2501L58.0875 16.3909V14.6725L58.5506 14.1438L59.146 13.8133L59.7414 13.4167L60.5353 12.8219L61.4616 12.4254L62.1231 12.0288L62.2555 12.5575L62.1231 13.3507V13.9455L61.9908 14.6064L61.66 15.069L61.2631 15.5317L61.0646 15.9943V17.0518L61.2631 17.9771L61.5277 18.5058L61.8585 19.0346L62.4539 19.5633L63.0494 19.8938L63.4463 19.5633L63.8433 19.0346L64.2402 18.5058L64.4387 17.9771L64.571 17.0518L64.968 16.457L65.1664 15.9943L65.5634 15.1351L66.1588 14.6064H66.8204L67.1512 15.069L67.482 15.3334L67.879 15.73L68.0113 16.3248V17.8449L67.879 18.3075L67.7466 18.9024L67.5482 19.365L67.0851 19.8277L66.225 20.6869C66.225 20.6869 65.2988 21.6121 64.7695 21.9426C64.3064 22.207 63.8433 22.8679 63.8433 22.8679L63.2478 23.3305L62.917 23.7932L62.5863 24.1897L62.2555 24.6524L62.057 25.2472L61.7923 26.1064L62.1893 26.9656L62.5863 27.2961L63.3802 27.5604L63.8433 27.8909L64.3725 28.2874L65.2326 28.5518L65.7619 28.8162H66.4235L67.3497 28.5518L68.1436 28.2213L68.8052 27.7587L69.6652 27.2961L70.5915 26.7673L70.7899 26.8995L71.2531 27.23H72.1131H72.9732L73.7671 26.7673L74.4948 26.2386L75.2887 25.7098L75.9503 25.115L76.9427 24.5863L77.3397 24.1897L78.0674 23.7271L78.5305 23.2644L78.7952 22.5374L78.9936 21.8765L79.3244 21.2817L79.4567 20.4225V17.184L79.2583 16.1926L79.3244 15.9282ZM77.0089 19.8938L76.2811 21.2156L75.6857 22.1409L75.1564 22.6035L74.3625 23.0001L73.5686 23.1984L72.5762 23.7932L72.2454 24.1236L71.7162 24.388L71.3854 23.9915H71.3192L70.8561 23.5288H70.3268L69.7976 23.1984H69.0037L68.1436 23.5288L67.2174 23.9254C67.2174 23.9254 67.3497 23.5949 67.0189 23.7932C66.5558 23.8593 69.4006 20.092 70.8561 18.9024C70.9884 18.7702 71.1207 18.7041 71.1869 18.5719C71.2531 18.5719 71.2531 18.5058 71.3192 18.5058C72.1131 17.5805 71.65 15.5978 71.65 15.5978L71.3192 15.003L70.8561 14.2098L69.996 12.6897L69.0037 11.8305L68.3421 12.0949L67.482 12.4254L65.5634 13.6811L64.5049 13.9455L64.3064 12.8219V11.3679C64.3064 11.3679 68.0113 9.12077 70.4591 9.25295C70.5253 9.25295 70.7238 9.31904 70.9223 9.45123C71.0546 9.51732 71.2531 9.58341 71.3854 9.58341C71.5177 9.7156 71.7162 9.7156 71.7162 9.7156L72.7085 10.2443L73.7671 10.9053L74.6271 11.5001L75.6857 12.3593C78.0012 13.9455 77.7366 18.638 77.0089 20.0259" fill="#D7000F"/>
<path d="M90.2403 8.19546L89.9095 7.73282C89.9095 7.73282 89.9757 7.73282 89.5126 7.53454C89.248 7.44642 88.9833 7.49048 88.7187 7.66672C88.2556 7.865 87.4617 9.5173 87.594 9.64948C87.5278 9.64948 87.3293 11.2357 87.5278 12.8219C87.6601 14.2098 87.4617 15.6639 87.4617 16.1265C87.5278 16.9196 87.2632 18.8363 87.0647 19.6955C86.9324 20.4886 85.5431 24.5202 85.4769 24.5202C85.4107 24.5863 84.9476 25.115 84.5507 26.1725C84.3522 28.023 86.0062 28.8161 86.2046 28.8822C86.337 28.8822 86.4693 28.8822 86.6016 28.8162C86.6678 28.8162 87.594 26.7012 87.9248 25.5776C87.9248 25.4455 89.0495 22.8018 89.1818 22.0087C89.6449 21.2817 89.248 19.2989 90.1742 18.1753C90.505 17.7788 90.505 15.5978 90.5711 15.5317C90.4388 15.3995 90.3726 12.4253 90.5711 11.7644C90.9019 11.1035 90.5711 11.9627 90.9681 11.0374C91.365 10.046 91.2989 9.84776 91.1004 9.45121C90.9019 9.12075 90.3727 8.45983 90.1742 8.26155" fill="#D7000F"/>
<path d="M97.3859 9.84759C96.6581 9.7154 96.3273 10.4424 96.1289 10.5746C95.9304 10.7068 95.6657 11.9625 95.6657 11.9625C95.6657 11.9625 95.5996 14.2757 95.5996 14.7384C95.5334 15.3332 95.335 16.589 95.0703 16.8533C94.7395 17.0516 94.8718 17.316 94.8718 17.316L95.0703 18.3734V20.4884C95.0703 20.4884 94.938 21.4137 95.2688 21.7441C95.6657 22.2068 96.3273 21.8763 96.3273 21.8763L96.8566 20.7528C96.8566 20.7528 97.1212 20.2901 97.2536 19.9597C97.1874 19.2987 97.5843 17.2499 97.5843 17.2499C97.5843 17.2499 98.1136 15.6637 98.3783 13.8792C98.709 12.0947 98.3121 10.7068 98.3121 10.7068C98.3121 10.6407 98.1798 10.0459 97.3859 9.78149" fill="#D7000F"/>
<path d="M104.068 17.9769C103.737 16.3907 104.267 14.1436 104.267 14.1436C104.267 14.1436 104.796 12.8218 104.664 12.0947C104.597 11.4999 104.597 8.65797 104.597 8.65797C104.664 8.65797 105.127 7.00567 104.134 5.88211C103.076 4.75854 101.686 6.47693 101.686 6.47693V8.32751L101.819 11.1034V13.3505L101.356 17.316L100.628 23.1982C100.628 23.1982 100.694 26.1723 100.826 27.6924C100.959 29.2126 101.753 29.8074 101.951 30.4022C102.15 30.931 102.745 30.997 102.745 30.997C102.745 30.997 103.34 30.27 104.068 28.9482C104.862 27.7585 104.994 24.3879 104.664 23.3965C104.333 22.4051 104.201 19.431 104.002 17.8447" fill="#D7000F"/>
<path d="M136.221 26.7012C136.221 26.7012 135.626 27.4943 134.567 27.0316C133.509 26.5029 133.376 24.0575 133.178 22.6695C132.979 21.2155 133.972 17.8448 133.972 17.8448C133.972 17.8448 134.369 15.3994 134.369 15.1351C134.369 14.8707 132.979 14.6063 132.715 14.5402C132.649 14.5402 132.119 14.5402 131.524 14.5402H131.193C130.267 14.6063 129.341 14.6724 129.076 14.7385C128.878 14.7385 128.679 14.7385 128.415 14.7385C128.216 14.7385 127.951 14.6063 127.554 14.7385C126.959 14.7385 126.893 15.2672 126.893 15.2672L127.29 16.3908V17.7126C127.29 17.7126 127.29 18.704 126.364 22.3391C125.504 26.0402 124.114 26.569 124.114 26.569L124.313 20.158L126.43 18.7701V18.2414L124.643 17.3161C124.643 17.3161 124.842 16.3908 125.107 13.8793C125.437 11.3017 124.71 11.1035 124.577 10.773C124.445 10.4425 122.923 9.97989 122.659 9.78161C122.46 9.64943 122.196 8.59196 122.129 7.66667C122.063 6.74138 121.336 6.27874 121.137 6.21265H120.939C120.939 6.21265 120.74 6.21265 120.608 6.21265C120.475 6.21265 120.277 6.21265 120.145 6.21265C119.88 6.34483 119.483 6.74138 119.351 7.46839C118.888 9.8477 116.44 11.0374 116.374 11.0374C116.241 11.0374 116.043 11.8966 116.043 11.8966C116.043 11.8966 116.44 14.8707 116.704 15.4655C116.903 15.9943 116.506 17.4483 116.506 17.4483C116.506 17.4483 114.72 17.9109 114.323 18.2414C113.992 18.6379 114.587 19.2328 114.587 19.2328L115.911 19.9598C115.911 19.9598 116.903 20.3563 116.771 21.1494C116.969 25.7098 113.396 30.3362 113.396 30.3362L113.793 30.7328C113.793 30.7328 113.529 30.931 114.786 30.2701C115.977 29.7414 117.498 27.0316 118.16 25.5115C118.755 23.9914 119.152 23.3966 119.152 23.3966L120.211 23.8592L120.674 24.1236H120.806C120.806 24.1236 120.872 24.1236 121.005 24.1236C121.203 23.9253 121.468 23.4626 121.203 22.4713C121.137 22.2069 121.071 21.9425 121.005 21.8103C120.939 21.6782 120.806 21.4799 120.674 21.3477C120.542 21.1494 120.343 21.0833 120.211 21.0172C119.748 20.819 119.218 20.8851 119.086 20.6868C118.689 20.2241 118.888 19.4971 118.888 19.4971L120.211 19.6293H120.674L121.005 19.6954H121.997C121.997 19.6954 122.46 20.9512 122.526 21.2816C122.725 21.8103 122.725 25.4454 122.262 26.3707C121.997 26.7672 121.468 27.0316 121.005 27.2299C120.872 27.2299 120.806 27.2299 120.674 27.3621C120.542 27.3621 120.343 27.4943 120.211 27.5603C120.012 27.5603 119.88 27.5603 119.88 27.5603V29.2126C119.88 29.2126 119.88 29.6753 120.211 30.204C120.277 30.4023 120.475 30.6006 120.674 30.7328C120.806 30.7328 120.872 30.7328 121.005 30.7328C121.269 30.8649 121.534 30.8649 121.997 30.7989C123.585 30.0718 124.313 27.4282 124.313 27.4282C124.247 27.0977 124.974 27.8908 125.504 28.2213C125.768 28.2213 127.488 27.0977 128.348 25.1149C128.481 24.7845 128.613 24.0575 128.679 23.5948C129.275 20.9512 129.341 18.5057 129.341 17.3161C129.407 16.1264 131.326 16.4569 131.326 16.4569L131.59 16.7213C131.59 16.7213 131.59 16.8535 131.656 17.0517V17.7787C131.59 18.8362 131.458 21.3477 131.458 21.3477C131.458 21.3477 131.392 21.546 131.326 21.8103C131.127 22.6035 130.73 25.2471 131.259 27.0316C131.259 27.0977 131.326 27.1638 131.326 27.296C131.458 27.4943 131.524 27.6925 131.656 27.8908C132.781 29.5431 134.237 30.0058 135.097 30.204C136.155 30.4684 137.214 29.8736 137.875 29.6753C138.669 29.477 139.198 28.2213 138.405 27.1638C137.677 26.1063 136.221 26.7012 136.221 26.7012ZM122.99 16.9195C122.99 16.9195 121.402 17.25 121.203 17.5805C121.137 17.5805 121.071 17.7126 121.005 17.7126C120.939 17.7787 120.806 17.7787 120.674 17.7787C120.542 17.7787 120.343 17.7787 120.211 17.7787C119.748 17.7787 119.285 17.7787 119.285 17.7787C119.285 17.7787 118.755 17.5805 118.689 16.8535C118.557 16.0603 118.425 15.069 118.425 15.069V12.4914C118.425 12.4914 118.491 11.3678 119.417 11.3017C119.682 11.3017 119.946 11.3017 120.277 11.3017H121.137C121.468 11.3017 121.799 11.5 121.997 11.6322C122.262 12.0948 122.593 12.5575 122.99 13.8132C123.254 15.069 123.188 16.9856 123.188 16.9856" fill="#D7000F"/>
<path d="M135.824 10.046C135.824 10.046 132.119 10.2443 131.92 10.1782C131.722 9.38506 132.185 8.65805 132.185 8.65805C132.185 8.65805 132.913 7.4023 132.383 6.80747C132.053 6.47701 131.788 6.27874 131.457 6.14655C131.325 6.08046 131.259 6.01437 131.126 5.94828C130.068 5.48563 129.274 5.75 129.34 5.75C129.406 5.75 128.877 5.88219 128.414 6.34483C128.281 6.54311 128.149 6.80747 128.149 7.07184C128.017 7.53449 128.215 7.93104 128.414 8.39368C128.811 9.12069 129.472 9.71552 129.472 9.71552V9.97989H126.098C126.098 9.97989 125.106 10.3764 125.437 11.5661C125.767 12.8218 128.083 12.7557 128.083 12.7557C128.083 12.7557 128.215 12.6236 128.414 12.5575C128.745 12.4914 129.274 12.3592 129.869 12.227C130.2 12.0948 130.729 12.0287 131.126 11.9626C131.259 11.9626 131.325 11.9626 131.457 11.9626C132.053 11.9626 132.846 11.9626 133.442 11.9626C134.633 12.0948 135.559 12.4253 135.559 12.4253L136.617 12.6897C136.617 12.6897 137.676 12.1609 137.544 11.3017C137.213 10.3764 135.824 9.97989 135.824 9.97989" fill="#D7000F"/>
<path d="M121.005 14.6062C121.005 14.6062 120.806 14.474 120.674 14.4079C120.475 14.2097 120.343 14.0775 120.145 13.9453C120.012 13.8131 119.946 13.747 119.946 13.747C119.946 13.747 119.88 13.6809 119.748 14.2097C119.549 14.7384 119.615 15.7959 119.681 16.2585C119.814 16.5229 119.946 16.6551 120.145 16.7873C120.277 16.8534 120.409 16.9194 120.541 16.9194H120.938C121.269 16.9194 121.534 16.9194 121.534 16.7873C121.798 16.589 122.063 15.135 121.931 14.9367C121.6 14.9367 121.269 14.6723 120.872 14.5401" fill="#D7000F"/>
<path d="M160.369 6.8075C160.369 6.8075 159.906 6.8075 159.112 6.8075C157.855 6.8075 156.135 6.8075 155.01 6.60923C153.423 4.82474 152.364 5.81612 152.364 5.81612C152.364 5.81612 151.901 5.75003 151.107 7.6667C151.107 7.6667 151.107 7.73279 151.041 7.79888C150.776 7.93107 150.379 7.99716 150.115 7.99716C149.585 8.06325 149.056 7.99716 148.659 7.93107C147.733 7.6667 147.071 7.20406 147.071 7.20406C147.071 7.20406 145.748 7.40233 145.947 7.99716C146.013 8.32762 145.748 9.25291 145.55 10.1121C145.484 11.3678 145.021 11.9627 145.021 12.0288L145.881 12.7558L148.262 11.8305C148.262 11.8305 148.461 10.046 149.321 9.18681C149.519 8.92245 149.85 8.72417 150.115 8.65808C150.578 8.52589 150.909 8.52589 151.173 8.59199C151.306 8.59199 151.372 8.65808 151.438 8.65808C151.769 8.72417 151.901 9.12072 152.827 10.046C155.209 10.046 155.275 8.85635 156.466 8.19543C157.723 8.12934 158.517 8.19543 159.178 8.32762C160.171 8.52589 160.502 8.92245 160.7 9.319C161.362 9.71555 161.097 10.7069 161.097 10.7069L160.369 11.2357C160.369 11.2357 160.436 11.4339 160.568 11.5C160.832 11.6322 161.163 11.6983 161.494 11.8966C161.626 11.9627 162.288 12.0949 162.817 12.0949C163.677 12.0949 164.868 11.7644 165.067 10.5747C164.207 6.67532 160.369 6.8736 160.436 6.8075" fill="#D7000F"/>
<path d="M159.244 26.9655C159.244 26.9655 159.178 26.8994 159.112 26.8994C158.847 26.8994 158.384 26.8994 157.656 27.2299C156.73 27.6925 154.878 27.7586 154.878 27.7586C154.878 27.7586 157.061 21.9425 157.193 21.8103C157.326 21.6121 157.326 21.0172 156.796 20.5546C156.267 20.092 156.002 20.092 155.341 20.3563C154.679 20.5546 153.951 19.8276 152.893 19.5632C152.231 19.431 151.636 19.5632 151.107 19.7615C150.776 19.9598 150.511 20.2241 150.511 20.2241C150.511 20.2241 150.313 20.6868 150.048 21.0172C150.048 21.0172 149.982 21.4799 150.048 21.6121C150.048 21.7443 150.114 21.8103 150.114 21.8103L150.577 22.0747H151.636H152.761C152.827 22.0747 153.422 22.0747 153.819 22.273C154.216 22.4713 154.084 24.3879 154.018 24.5862C153.951 24.7845 153.687 26.3707 153.687 26.3707C153.687 26.3707 153.687 27.3621 153.621 27.4943C153.554 27.6264 153.224 27.6925 153.091 27.6925H151.437C151.437 27.6925 151.305 27.6264 151.04 27.6264C150.842 27.5603 150.379 27.4943 150.048 27.3621C149.386 27.2299 148.725 27.0316 148.659 27.0316C148.394 26.9655 148.196 26.8994 147.732 27.6925C147.203 28.4195 147.402 30.204 147.402 30.3362C147.402 30.4023 148.526 30.9971 149.519 31.1293H151.04C152.033 31.0632 152.959 30.9971 153.29 30.8649C153.687 30.7328 156.995 30.4684 156.995 30.4684C156.995 30.4684 158.119 30.5345 159.112 30.3362L159.575 30.1379C160.7 29.6753 160.964 29.0805 161.03 28.2213C161.03 27.3621 159.509 26.9655 159.244 26.9655Z" fill="#D7000F"/>
<path d="M159.972 13.2846C159.972 13.2846 159.509 13.1524 159.112 13.0202C158.516 12.6897 157.789 12.4915 157.789 12.4915C157.789 12.4915 157.259 14.4742 157.061 15.3334C156.862 16.0604 157.722 17.2501 157.855 17.3823C158.053 17.4484 158.649 17.4484 159.112 17.4484H159.31C159.773 17.3162 161.229 16.5231 161.163 15.4656C161.163 14.342 160.038 13.2185 159.972 13.2185" fill="#D7000F"/>
<path d="M152.231 12.6896C151.768 12.4252 151.437 12.2269 151.04 12.2269C150.445 12.0947 150.048 12.3591 149.982 12.4252C149.982 12.4913 149.916 12.4913 149.916 12.4913C149.916 12.4252 149.453 13.5488 149.32 13.8131C149.188 13.9453 148.99 16.3907 148.99 16.3907C148.99 16.3907 148.791 16.8534 149.519 16.8534C149.651 16.7212 149.783 16.4568 150.048 16.3246C150.313 16.1264 150.71 15.7959 151.107 15.5976C151.768 15.135 152.364 14.9367 152.364 14.9367C152.364 14.9367 152.628 15.0028 152.893 14.8706C153.29 14.7384 153.158 13.2183 153.158 13.2183C153.158 13.2183 153.819 13.6149 152.298 12.6235" fill="#D7000F"/>
<path d="M63.9752 36.4166C63.9752 35.6896 63.9752 34.7643 63.9752 33.9712C63.3136 33.9712 62.9167 33.9712 62.7844 33.9712C62.5859 33.9712 62.1228 33.9712 61.5273 33.9712V34.8304C61.6597 36.4166 61.5935 38.7959 61.5273 41.704C62.1889 41.704 62.652 41.704 62.8505 41.704H63.9752C63.9752 41.1091 63.9752 40.1838 63.9752 39.2585C63.9752 38.3994 63.9752 37.408 63.9752 36.4166Z" fill="#D7000F"/>
<path d="M69.7972 40.0518C69.3341 40.0518 68.9372 39.9857 68.6064 39.7875C68.2756 39.6553 68.011 39.3909 67.8125 39.1265C67.614 38.8622 67.4817 38.4656 67.4817 38.0691C67.4817 37.6064 67.5478 37.2099 67.7463 36.8133C67.9448 36.4168 68.2756 36.1524 68.6064 35.9541C69.0033 35.7558 71.0543 35.7558 71.5174 35.7558L71.3851 33.9053H69.4665C68.871 33.9053 68.3417 33.9714 67.7463 34.1035C67.2171 34.2357 66.7539 34.5001 66.2908 34.8967C65.8277 35.2271 65.4969 35.6898 65.2984 36.2185C65.1 36.7472 64.9677 37.3421 65.0338 38.003C65.0338 38.5317 65.1661 39.0604 65.3646 39.5231C65.5631 39.9857 65.8939 40.3823 66.357 40.7127C66.8201 41.0432 67.2832 41.3076 67.8125 41.4398C68.3418 41.5719 68.871 41.638 69.4665 41.638H71.5835L71.4512 39.9857H69.7311L69.7972 40.0518Z" fill="#D7000F"/>
<path d="M79.589 33.9712H78.2658C78.2658 33.9712 78.2658 34.4999 78.2658 34.6321C78.2658 34.8304 78.2658 35.1608 78.2658 35.6896C78.2658 36.2183 78.2658 36.6149 78.2658 36.8792H75.2887C75.2887 36.0861 75.2887 35.0287 75.2887 33.9712C74.7594 33.9712 74.3625 33.9712 74.0978 33.9712C73.8332 33.9712 73.3701 33.9712 72.8408 33.9712V34.6321C72.8408 34.6321 72.8408 35.1608 72.8408 35.4252V36.4166V38.5976V41.704C73.3701 41.704 73.767 41.704 73.8994 41.704H75.1564V38.5315H78.1335C78.1335 39.6551 78.1335 40.8448 78.1335 41.704C78.7951 41.704 79.2582 41.704 79.3905 41.704H80.5814C80.5814 40.4482 80.5152 39.1925 80.5152 38.2672C80.5152 37.3419 80.5152 35.8218 80.5814 33.9712C79.9198 33.9712 79.589 33.9712 79.4567 33.9712" fill="#D7000F"/>
<path d="M88.3217 33.9712H86.9985C86.9985 33.9712 86.9985 34.4338 86.9985 35.0287C86.9985 35.6235 86.9985 36.2844 86.9985 37.0114C86.9985 37.8706 86.9985 38.3994 86.9985 38.6637C86.9985 38.9281 86.9985 39.0603 86.8662 39.2585C86.8662 39.3907 86.7339 39.5229 86.6677 39.6551C86.6677 39.7212 86.5354 39.7873 86.4692 39.8534C86.4031 39.9195 86.2708 39.9856 86.1385 39.9856C86.0061 39.9856 85.8077 40.0517 85.6753 40.0517C85.4769 40.0517 85.2784 40.0517 85.0799 39.9856C84.8814 39.9195 84.7491 39.7873 84.6168 39.7212C84.4845 39.589 84.4183 39.4568 84.3522 39.2585C84.3522 39.0603 84.286 38.862 84.2199 38.5315C84.2199 38.3994 84.2199 38.135 84.2199 37.7384C84.2199 37.3419 84.2199 36.9453 84.2199 36.4827V34.0373C83.7567 34.0373 83.3598 34.0373 83.0952 34.0373C82.8305 34.0373 82.4336 34.0373 81.9043 34.0373V36.3505C81.9043 36.8131 81.9043 37.1436 81.9043 37.3419V38.2011C81.9043 38.5315 81.9043 38.7959 81.9043 38.9942C81.9043 39.1925 81.9043 39.3246 81.9043 39.3907C81.9043 39.6551 81.9043 39.9195 82.0366 40.1177C82.1028 40.316 82.1689 40.5143 82.3012 40.6465C82.4336 40.7787 82.5659 40.9108 82.7644 41.043C82.9628 41.1752 83.2275 41.3074 83.4921 41.4396C83.7567 41.5718 84.0875 41.6379 84.4845 41.704C84.8814 41.704 85.2784 41.77 85.6753 41.77C86.1385 41.77 86.6016 41.77 86.9985 41.6379C87.4616 41.5718 87.7924 41.4396 88.1894 41.2413C88.5202 41.043 88.7848 40.8448 88.9171 40.6465C89.1156 40.3821 89.1818 40.1177 89.2479 39.8534C89.2479 39.5229 89.3141 38.9942 89.2479 38.2672C89.2479 38.2672 89.2479 38.135 89.2479 38.0689V34.0373H88.1894L88.3217 33.9712Z" fill="#D7000F"/>
<path d="M107.574 35.7558V33.9714C107.045 33.9714 106.648 33.9714 106.516 33.9714C106.251 33.9714 105.854 33.9714 105.457 33.9714C105.457 34.3679 105.59 36.8794 105.656 38.003C105.722 39.2587 105.193 38.3334 105.193 38.3334L102.612 33.9053C102.083 33.9053 101.62 33.9053 101.289 33.9053C100.826 33.9053 100.363 33.9053 99.7676 33.9053V34.8967L99.8337 36.4829V40.3823V41.7041C100.363 41.7041 100.76 41.7041 100.958 41.7041C101.223 41.7041 101.554 41.7041 102.017 41.7041L101.885 38.1352C101.885 37.4081 101.818 36.615 102.48 37.8047C102.745 38.2673 103.076 38.73 103.406 39.2587L104.399 40.8449C104.399 40.8449 104.663 41.4398 104.862 41.7702C105.457 41.7702 105.92 41.7702 106.317 41.7702C106.714 41.7702 107.177 41.7702 107.64 41.7702V40.3162V35.8219L107.574 35.7558Z" fill="#D7000F"/>
<path d="M150.842 35.7558V33.8391C150.313 33.8391 149.916 33.8391 149.783 33.8391C149.519 33.8391 149.122 33.8391 148.725 33.8391C148.725 34.2357 148.857 36.8793 148.923 38.0029C148.989 39.2587 148.46 38.3334 148.46 38.3334L145.88 33.8391C145.351 33.8391 144.888 33.8391 144.557 33.8391C144.094 33.8391 143.631 33.8391 143.035 33.8391V34.9627L143.101 36.5489V40.4483V41.7701C143.631 41.7701 144.028 41.7701 144.226 41.7701C144.491 41.7701 144.821 41.7701 145.285 41.7701L145.152 38.2012C145.152 37.4742 145.086 36.6811 145.748 37.8707C146.012 38.3334 146.343 38.796 146.674 39.3247L147.666 40.911C147.666 40.911 147.931 41.5058 148.129 41.8362C148.725 41.8362 149.188 41.8362 149.585 41.8362C149.982 41.8362 150.445 41.8362 150.908 41.8362V40.3822V35.888L150.842 35.7558Z" fill="#D7000F"/>
<path d="M94.6733 33.9712C94.6733 33.9712 93.9456 33.9712 93.3502 33.9712C93.2178 34.3017 89.8438 41.704 89.8438 41.704C90.4392 41.704 90.8361 41.704 91.1008 41.704C91.2331 41.704 91.6962 41.704 92.3578 41.704L93.2178 39.5229H96.0627L96.7904 41.704C97.3859 41.704 97.849 41.704 98.1136 41.704C98.2459 41.704 98.6429 41.704 99.2383 41.704L96.0627 33.9712C95.5996 33.9712 95.1365 33.9712 94.6072 33.9712M93.8133 37.8706L94.4749 36.0861C94.8057 35.4252 94.8718 35.954 95.4672 37.8706H93.8133Z" fill="#D7000F"/>
<path d="M115.711 33.9053C115.711 33.9053 114.984 33.9053 114.388 33.9053C114.256 34.2357 110.882 41.638 110.882 41.638C111.477 41.638 111.874 41.638 112.139 41.638C112.271 41.638 112.734 41.638 113.396 41.638L114.256 39.457H117.101L117.829 41.638C118.424 41.638 118.887 41.638 119.152 41.638C119.284 41.638 119.681 41.638 120.276 41.638L117.101 33.9053C116.638 33.9053 116.175 33.9053 115.711 33.9053ZM114.851 37.8047L115.513 36.0202C115.844 35.3593 115.91 35.888 116.505 37.8047H114.851Z" fill="#D7000F"/>
<path d="M123.254 36.4168C123.254 35.6898 123.254 34.7645 123.254 33.9053C122.592 33.9053 122.195 33.9053 122.063 33.9053C121.864 33.9053 121.401 33.9053 120.806 33.9053V34.7645C120.938 36.3507 120.872 38.73 120.806 41.638C121.467 41.638 121.93 41.638 122.129 41.638H123.254C123.254 41.0432 123.254 40.1179 123.254 39.1926C123.254 38.2673 123.254 37.3421 123.254 36.3507" fill="#D7000F"/>
<path d="M130.135 38.9281C129.804 38.2672 129.738 38.5315 130.664 37.8045C130.862 37.6723 130.995 37.5402 131.127 37.3419C131.259 37.1436 131.326 36.9453 131.392 36.7471C131.392 36.5488 131.458 36.2844 131.392 36.0861C131.392 35.8879 131.392 35.6896 131.259 35.4913C131.127 35.293 130.796 34.4338 130.002 34.1034C129.804 33.9712 129.539 33.9712 129.275 33.9712C128.878 33.9712 128.481 33.9712 128.018 33.9712C127.621 33.9712 127.224 33.9712 126.827 33.9712C126.43 33.9712 126.033 33.9712 125.768 33.9712C125.504 33.9712 125.107 33.9712 124.644 33.9712C124.644 34.4338 124.644 35.2269 124.71 36.02C124.71 36.7471 124.71 37.4741 124.71 38.135C124.71 38.7959 124.71 39.3907 124.71 39.9195C124.71 40.4482 124.71 41.1752 124.71 41.77C125.239 41.77 125.636 41.77 125.834 41.77C126.033 41.77 126.43 41.77 127.025 41.77C127.025 40.7126 126.959 39.5229 126.893 38.4654C126.893 37.408 126.893 36.4827 126.893 35.7557C127.091 35.7557 127.224 35.7557 127.356 35.7557C127.488 35.7557 127.621 35.7557 127.753 35.7557C128.15 35.7557 128.415 35.7557 128.613 35.8218C128.812 35.8218 128.944 35.954 129.01 36.0861C129.076 36.2183 129.142 36.3505 129.142 36.4827C129.142 36.681 129.142 36.8792 129.01 37.0114C128.878 37.1436 128.745 37.2758 128.547 37.408C128.348 37.4741 128.084 37.5402 127.819 37.5402C127.091 37.5402 127.356 37.7384 127.885 39.0603L129.076 41.8361C129.672 41.8361 130.135 41.8361 130.399 41.8361C130.598 41.8361 130.995 41.8361 131.59 41.8361C131.524 41.6379 131.458 41.5057 131.392 41.4396L130.069 39.1264L130.135 38.9281Z" fill="#D7000F"/>
<path d="M134.963 39.1926V36.0862V33.8391C134.5 33.8391 134.103 33.8391 133.839 33.8391C133.442 33.8391 133.045 33.8391 132.516 33.8391C132.516 34.4339 132.516 35.5575 132.516 36.4828C132.516 37.4742 132.516 38.4655 132.516 39.4569C132.648 41.9684 131.986 41.7041 135.559 41.7041C136.419 41.7041 137.544 41.7041 138.47 41.7041V39.9196C138.007 39.9196 137.081 39.9196 136.154 39.9196C134.699 39.9196 134.963 39.9857 134.897 39.1265" fill="#D7000F"/>
<path d="M152.231 33.839V34.3017C152.231 34.6321 152.298 35.6235 152.298 36.681C152.298 37.7385 152.298 38.5977 152.298 39.1925C152.298 39.8534 152.298 40.7787 152.298 41.704H158.384C158.384 41.1092 158.384 40.5804 158.384 40.0517C157.987 40.0517 157.789 40.0517 157.59 40.0517H156.466C155.87 40.0517 155.473 40.0517 155.341 40.0517H154.679V38.5977C155.275 38.5977 155.87 38.5977 156.333 38.5977C156.664 38.5977 157.127 38.5977 157.789 38.5977C157.789 37.9367 157.789 37.408 157.789 36.9454C156.929 36.9454 156.333 36.9454 156.135 36.9454C155.539 36.9454 155.076 36.9454 154.613 36.9454V35.4252C155.01 35.4252 155.275 35.4252 155.473 35.4252C155.672 35.4252 156.002 35.4252 156.532 35.4252C156.995 35.4252 157.59 35.4252 158.318 35.4252C158.318 35.2931 158.318 35.1609 158.318 35.0287V33.7729C157.458 33.7729 156.466 33.7729 155.341 33.7729C154.15 33.7729 153.092 33.7729 152.231 33.7729" fill="#D7000F"/>
<path d="M60.2705 38.7959C60.2705 38.7959 60.1382 38.5976 60.0059 38.4654C59.8735 38.3333 59.7412 38.2011 59.6089 38.0689C59.4766 37.9367 59.3443 37.8045 59.212 37.7384L58.815 37.408C58.815 37.408 58.2857 37.0114 58.1534 36.9453C58.0211 36.8131 57.8888 36.7471 57.8226 36.6149C57.7565 36.5488 57.6903 36.4166 57.6242 36.3505C57.6242 36.2844 57.6242 36.2183 57.6242 36.1522C57.6242 36.02 57.6903 35.8879 57.8888 35.7557C58.0873 35.6235 58.2857 35.6235 58.6165 35.6235C58.815 35.6235 59.0796 35.6235 59.3443 35.6896C59.6089 35.6896 60.4028 35.954 60.4028 35.954V34.1695C60.4028 34.1695 58.6165 33.9712 58.0211 33.9712C57.6903 33.9712 57.4257 33.9712 57.0949 34.0373C56.8302 34.0373 56.4995 34.1695 56.301 34.3017C56.0363 34.4338 55.8379 34.6321 55.7055 34.7643C55.5732 34.9626 55.4409 35.1608 55.3748 35.3591C55.3086 35.5574 55.3086 35.7557 55.3086 36.02C55.3086 36.2183 55.3086 36.3505 55.4409 36.5488C55.4409 36.681 55.5732 36.8792 55.7055 37.0114C55.8379 37.1436 55.9702 37.3419 56.1687 37.5402C56.2348 37.6062 56.4333 37.8045 56.6979 38.0028L57.7565 38.9281C57.7565 38.9281 57.955 39.1264 58.0211 39.1925C58.0211 39.2585 58.0873 39.3246 58.1534 39.3907C58.1534 39.3907 58.1534 39.5229 58.1534 39.589C58.1534 39.7873 58.0873 39.9195 57.8888 39.9856C57.6903 40.0517 57.4257 40.1177 57.161 40.1177C56.8964 40.1177 56.6318 40.1177 56.301 39.9856C55.9702 39.9195 55.3086 39.589 55.3086 39.589V41.4396C55.3086 41.4396 57.0949 41.704 57.6903 41.704C58.0873 41.704 58.4181 41.704 58.7489 41.5718C59.0796 41.5057 59.4104 41.3735 59.6751 41.1752C59.9397 40.9769 60.1382 40.7126 60.2705 40.4482C60.4028 40.1838 60.469 39.8534 60.469 39.5229C60.469 39.3907 60.469 39.2585 60.469 39.1925C60.469 39.0603 60.4028 38.9942 60.3367 38.862" fill="#D7000F"/>
<path d="M141.844 36.4167C141.844 35.6897 141.844 34.6322 141.844 33.8391C141.183 33.8391 140.786 33.8391 140.654 33.8391C140.455 33.8391 139.992 33.8391 139.396 33.8391V34.8305C139.463 36.4167 139.463 38.796 139.396 41.7701C140.058 41.7701 140.521 41.7701 140.72 41.7701H141.844C141.844 41.1092 141.844 40.25 141.778 39.3247C141.778 38.4655 141.778 37.4742 141.778 36.4828" fill="#D7000F"/>
<path d="M164.934 39.1265C164.934 39.1265 164.868 38.9283 164.802 38.7961C164.736 38.6639 164.669 38.5317 164.537 38.4656C164.405 38.3995 164.339 38.2013 164.14 38.0691C164.008 37.9369 163.876 37.8047 163.743 37.7386L163.346 37.4081C163.346 37.4081 162.817 37.0116 162.685 36.8794C162.552 36.7472 162.42 36.6811 162.354 36.549C162.288 36.4829 162.222 36.3507 162.155 36.2846C162.155 36.2185 162.155 36.1524 162.155 36.0863C162.155 35.9541 162.222 35.8219 162.42 35.6898C162.619 35.5576 162.817 35.5576 163.148 35.5576C163.346 35.5576 163.611 35.5576 163.876 35.6237C164.14 35.6237 164.934 35.888 164.934 35.888V34.1035C164.934 34.1035 163.148 33.9053 162.552 33.9053C162.222 33.9053 161.957 33.9053 161.626 33.9714C161.361 33.9714 161.097 34.1035 160.832 34.2357C160.568 34.3679 160.369 34.5662 160.237 34.6984C160.104 34.8967 159.972 35.0949 159.906 35.2932C159.84 35.4915 159.84 35.7558 159.84 35.9541C159.84 36.1524 159.84 36.3507 159.972 36.4829C159.972 36.615 160.104 36.8133 160.237 36.9455C160.369 37.0777 160.501 37.276 160.7 37.4742C160.832 37.5403 160.965 37.7386 161.229 37.9369L162.288 38.8622C162.288 38.8622 162.486 38.9944 162.552 39.1265C162.552 39.1926 162.619 39.2587 162.685 39.3248C162.685 39.3248 162.685 39.457 162.685 39.5231C162.685 39.7214 162.619 39.8535 162.42 39.9196C162.222 39.9857 161.957 40.0518 161.692 40.0518C161.428 40.0518 161.163 40.0518 160.832 39.9196C160.501 39.7875 159.84 39.5231 159.84 39.5231V41.4398C159.84 41.4398 161.758 41.7702 162.288 41.7702C162.685 41.7702 163.015 41.7702 163.346 41.638C163.677 41.5719 163.942 41.3737 164.206 41.1754C164.471 40.9771 164.669 40.7127 164.802 40.4484C164.934 40.1179 165 39.8535 165 39.5231C165 39.3909 165 39.2587 165 39.1926" fill="#D7000F"/>
<path d="M9.39453 9.91389C12.2394 10.7731 12.4378 14.5403 15.2165 15.8622C17.7967 17.0518 20.2446 17.3162 21.1046 17.7788C21.7662 18.1093 22.1632 18.638 22.2293 18.9685C21.8985 18.9685 20.9062 18.9024 20.2446 19.4972C20.1123 19.6294 19.583 19.5633 19.583 19.6955C19.583 19.8277 19.9799 19.8277 20.3769 20.026C21.0385 20.4886 22.3617 20.8191 23.2217 20.753C24.3464 20.753 25.1403 20.2242 25.405 20.1581C25.8019 20.026 26.1989 20.026 26.7281 20.4225L27.3236 20.0921C27.522 19.4972 24.2803 19.4311 25.5373 18.5719C26.8604 17.7127 28.6467 14.276 32.1532 13.1524C32.1532 13.1524 34.2702 12.8219 35.7257 13.8133C36.0565 13.6811 37.7766 12.888 37.7105 10.3104C37.1812 10.6409 35.2626 12.4915 31.5577 12.4915H31.3592C25.4711 12.4915 23.0232 17.7127 23.0232 17.7127C17.2674 15.5317 15.9443 10.9053 13.1656 9.64953C12.2394 9.18688 10.2546 9.64953 9.46069 9.78171C9.46069 9.78171 9.46069 9.78171 9.46069 9.8478C9.46069 9.8478 9.46069 9.8478 9.46069 9.91389H9.39453Z" fill="#D7000F"/>
<path d="M23.089 0.859131C10.8496 0.859131 0.925781 10.7729 0.925781 22.9999C0.925781 35.2269 10.8496 45.1407 23.089 45.1407C35.3283 45.1407 45.2522 35.2269 45.2522 22.9999C45.2522 10.7729 35.3283 0.859131 23.089 0.859131ZM41.0842 33.2442C39.4302 32.5172 34.9314 34.1034 30.168 34.9626C23.6182 36.1522 20.7734 33.5746 21.8981 29.6091C22.0966 28.816 22.9567 27.6925 22.5597 27.362C22.1627 27.0315 20.7734 28.4856 20.5088 28.6838C18.3917 30.4683 17.9286 30.8649 15.6792 32.2528C12.2389 34.3678 7.40934 34.1695 5.2261 33.6407C4.76299 32.9137 4.36604 32.1206 4.03524 31.2614C9.19563 32.2528 13.6283 33.3764 20.5088 27.9568C21.1704 27.4281 23.5521 25.6436 23.8167 26.1723C23.949 26.4367 23.2213 27.2959 22.6259 28.816C21.1042 32.9137 23.7506 35.293 30.3003 33.9712C34.9314 33.0459 40.0256 30.2701 42.2089 30.8649C41.8781 31.7241 41.4811 32.5172 41.018 33.3103M35.3945 30.0718C34.0713 30.7988 25.4707 35.0948 23.4859 31.2614C22.2289 28.816 25.0737 26.4367 24.4121 25.5775C23.949 24.9827 22.692 25.7097 21.3688 26.3045C17.3332 28.2212 11.3127 32.4511 2.64591 26.635C2.51359 25.7758 2.38127 24.9166 2.31512 24.0574C4.49836 26.0402 7.14471 27.362 10.8496 27.8246C16.87 28.5517 23.8167 23.4626 25.1399 24.7183C25.6692 25.181 24.4783 27.0976 24.1475 27.9568C22.4274 32.385 26.9262 32.385 30.0356 30.931C37.0485 27.8246 40.6211 23.3965 43.6644 24.454C43.5982 25.2471 43.4659 26.0402 43.3336 26.8333C40.9518 26.3706 38.5701 28.2873 35.2622 30.0057M23.089 2.31315C33.5421 2.31315 42.2089 10.112 43.5982 20.158C40.9518 20.158 34.5344 25.908 30.1018 28.9482C27.6539 30.6666 23.4198 31.8563 25.1399 27.8246C25.7353 26.5028 26.3969 25.181 25.7353 24.3879C24.9414 23.4626 23.2213 24.1235 23.089 24.1235C9.92337 28.4856 4.96147 23.2643 2.91054 18.1752C5.09378 9.12062 13.2975 2.31315 23.089 2.31315ZM12.6359 40.8448C14.356 39.8534 16.7377 38.0028 18.2594 34.9626C18.8548 33.6407 19.3179 32.7815 19.9134 31.7241C19.9134 31.7241 19.9134 31.658 19.9795 31.658C19.9795 31.658 19.9795 31.658 19.9795 31.7241C19.9134 32.385 19.3841 35.3591 21.435 37.408C24.346 40.3821 30.6311 40.8448 32.3512 41.5057C29.5725 42.8936 26.3969 43.6867 23.089 43.6867C19.2518 43.6867 15.6792 42.6292 12.6359 40.8448ZM36.7838 38.5315C35.3283 38.2011 31.8219 38.135 29.3079 38.135C25.0076 38.135 21.2365 36.7471 20.5749 33.5086C20.3103 32.1867 20.8396 30.7327 20.4426 30.6005C19.9795 30.4683 19.1194 32.0545 18.2594 33.1781C14.8191 37.7384 11.2466 38.5315 9.32795 38.3333C8.73252 37.8045 8.13709 37.2097 7.60782 36.6149C9.85722 36.6149 14.356 35.8218 17.7301 32.385C18.4579 31.658 21.7658 27.6925 22.0966 28.0229C22.2289 28.1551 21.3027 29.543 21.1042 31.0632C20.2441 36.4827 26.3308 36.9453 30.3664 36.8132C34.0713 36.7471 37.0485 35.8879 38.5701 36.681C38.0409 37.2758 37.4454 37.8706 36.7838 38.3994" fill="#D7000F"/>
<path d="M45.9142 23C45.9142 35.6897 35.6596 46 22.9571 46C10.2546 46 0 35.6897 0 23C0 10.3103 10.2546 0 22.9571 0C35.6596 0 45.9142 10.3103 45.9142 23ZM23.2217 1.12356C11.4455 1.12356 1.85245 10.9052 1.85245 23.0661C1.85245 35.227 11.3793 45.0086 23.2217 45.0086C35.0642 45.0086 44.591 35.1609 44.591 23.0661C44.591 10.9713 34.998 1.12356 23.2217 1.12356Z" fill="#D7000F"/>
</g>
<defs>
<clipPath id="clip0_583_2680">
<rect width="165" height="46" fill="white"/>
</clipPath>
</defs>
</svg>
