<svg width="191" height="46" viewBox="0 0 191 46" fill="none" xmlns="http://www.w3.org/2000/svg">
<g clip-path="url(#clip0_583_3209)">
<path d="M24.5979 0C31.2349 0 36.6091 5.3779 36.6091 12.0195C36.6091 13.4658 36.3144 14.9402 35.8514 16.232L29.3266 13.8028C29.5371 13.2411 29.6494 12.6514 29.6494 12.0195C29.6494 9.22528 27.3902 6.95055 24.5839 6.95055C21.7776 6.95055 19.5184 9.22528 19.5184 12.0195C19.5184 12.9744 19.785 13.873 20.2481 14.6313C20.2481 14.6453 20.2621 14.6734 20.2902 14.7155C20.7813 15.4457 21.3706 16.1056 22.0582 16.6673C22.2967 16.8919 22.7177 17.1166 23.2369 17.4817C27.2359 20.29 32.4136 21.4835 37.6334 21.7924C37.9 21.8346 38.1105 21.8626 38.2648 21.8767C38.349 21.8767 38.4473 21.8907 38.5174 21.9048C38.6156 21.9048 38.6998 21.9328 38.7981 21.9469C38.8963 21.9609 38.9805 21.975 39.0787 21.989C39.1629 21.989 39.2611 22.0171 39.3453 22.0311C39.4435 22.0452 39.5417 22.0733 39.64 22.1013C39.7241 22.1154 39.8224 22.1294 39.9066 22.1575C40.0048 22.1856 40.103 22.2137 40.2012 22.2277C40.2854 22.2558 40.3696 22.2698 40.4678 22.2979C40.566 22.326 40.6643 22.3541 40.7625 22.3962C40.8467 22.4243 40.9309 22.4524 41.001 22.4664C41.0993 22.4945 41.2115 22.5366 41.3097 22.5788C41.3518 22.5788 41.3799 22.6068 41.422 22.6068C41.45 22.6068 41.4641 22.6209 41.4921 22.6349C41.5763 22.663 41.6605 22.6911 41.7447 22.7192C41.8429 22.7613 41.9552 22.8175 42.0534 22.8596C42.1236 22.8877 42.1937 22.9158 42.2639 22.9438C42.3902 23 42.5024 23.0562 42.6007 23.1123C42.6708 23.1404 42.7269 23.1685 42.7971 23.1966C42.9655 23.2949 43.1479 23.3791 43.3163 23.4774C43.5267 23.5897 43.7232 23.7161 43.9196 23.8565C43.9758 23.8987 44.0319 23.9408 44.088 23.9829C44.2283 24.0672 44.3546 24.1795 44.4949 24.2637C44.5651 24.3059 44.6212 24.348 44.6773 24.4042C44.8177 24.5024 44.9439 24.6148 45.0702 24.7131C45.1123 24.7552 45.1685 24.7973 45.2106 24.8394C45.3789 24.9939 45.5473 25.1343 45.7157 25.3028C49.5464 29.0519 50.5286 35.0617 47.7222 39.92C44.4107 45.677 37.0581 47.6429 31.3051 44.315C30.0563 43.5989 28.9478 42.6441 28.0778 41.605L33.4379 37.1538C33.8168 37.6032 34.2658 37.9823 34.785 38.2912C37.2125 39.6954 40.3135 38.8669 41.7026 36.4377C43.1058 34.0085 42.2639 30.9054 39.8504 29.5012C39.0226 29.0238 38.1105 28.8132 37.2265 28.8413C37.1984 28.8413 37.1704 28.8413 37.1283 28.8413C36.2443 28.8974 35.3883 29.08 34.5605 29.3889C34.2518 29.4872 33.8448 29.7259 33.2695 29.9927C28.0357 32.5201 25.2153 35.9463 22.3388 40.3132C22.1704 40.5238 22.0442 40.6923 21.96 40.8046C21.9038 40.8748 21.8617 40.9451 21.8056 41.0153C21.7495 41.0855 21.6934 41.1697 21.6372 41.2399C21.5811 41.3101 21.525 41.3944 21.4689 41.4646C21.4127 41.5348 21.3566 41.605 21.3005 41.6752C21.2303 41.7454 21.1742 41.8156 21.104 41.8999C21.0479 41.9701 20.9918 42.0403 20.9216 42.0965C20.8515 42.1667 20.7813 42.2369 20.7111 42.3071C20.655 42.3632 20.5849 42.4335 20.5147 42.4896C20.4445 42.5598 20.3744 42.63 20.2902 42.7002C20.22 42.7564 20.1639 42.8266 20.0937 42.8687C20.0657 42.9109 20.0236 42.9249 19.9815 42.967C19.9815 42.967 19.9815 42.967 19.9675 42.9811C19.8973 43.0513 19.7991 43.1215 19.7289 43.1917C19.6588 43.2338 19.6026 43.304 19.5325 43.3602C19.4343 43.4304 19.336 43.5006 19.2518 43.5708C19.1957 43.6129 19.1256 43.6691 19.0694 43.7112C18.9572 43.7814 18.8449 43.8657 18.7467 43.9359C18.6906 43.978 18.6344 44.0061 18.5783 44.0482C18.4099 44.1606 18.2416 44.2589 18.0732 44.3571C17.8627 44.4695 17.6663 44.5818 17.4558 44.6801C17.3856 44.7222 17.3295 44.7363 17.2593 44.7784C17.105 44.8486 16.9647 44.9188 16.8103 44.975C16.7402 45.0031 16.684 45.0311 16.5998 45.0733C16.4455 45.1294 16.2911 45.1996 16.1228 45.2558C16.0666 45.2839 16.0105 45.2979 15.9544 45.326C15.7439 45.3962 15.5334 45.4664 15.3089 45.5226C10.1452 46.9829 4.46239 44.8205 1.65604 39.9481C-1.65545 34.2051 0.308996 26.8474 6.06201 23.5195C7.31083 22.7894 8.62982 22.312 9.96283 22.0733L11.1134 28.9536C10.5662 29.0659 10.047 29.2485 9.54188 29.5433C7.11439 30.9475 6.28652 34.0507 7.68969 36.4799C9.07883 38.895 12.1939 39.7375 14.6073 38.3333C15.4352 37.8559 16.0807 37.1679 16.5016 36.3956C16.5157 36.3675 16.5437 36.3535 16.5577 36.3254C16.9506 35.525 17.1611 34.6404 17.3014 33.7698C17.3435 33.4469 17.3997 33.0256 17.4558 32.3938C17.8487 28.5885 17.2172 23.323 14.018 17.7625C13.1761 15.9933 12.9235 14.7015 12.9095 14.5891C12.8814 14.5049 12.8674 14.4206 12.8674 14.3364C12.8393 14.2241 12.8253 14.1258 12.7972 14.0134C12.7972 13.9292 12.7692 13.8449 12.7551 13.7747C12.7411 13.6624 12.7271 13.536 12.7131 13.4237C12.699 13.3394 12.685 13.2692 12.685 13.185C12.671 13.0586 12.6569 12.9322 12.6569 12.7918C12.6569 12.7357 12.6429 12.6654 12.6429 12.5952C12.6429 12.3987 12.6429 12.2021 12.6429 12.0055C12.6429 11.7808 12.6429 11.5281 12.671 11.3034C12.671 11.2332 12.671 11.163 12.671 11.0928C12.671 10.9243 12.699 10.7558 12.7271 10.6013C12.7271 10.5311 12.7411 10.4469 12.7551 10.3767C12.7692 10.2082 12.7972 10.0397 12.8253 9.88523C12.8253 9.82906 12.8534 9.75885 12.8674 9.70269C12.9095 9.49206 12.9656 9.2674 13.0217 9.04274C14.3407 3.83333 19.0554 0 24.6681 0" fill="#157E52"/>
<path d="M74.8593 14.7155C76.4449 15.6984 77.806 17.0043 78.9566 18.605C79.2933 19.0824 80.472 19.9389 82.5206 21.1746C84.5552 22.3962 86.4074 23.337 88.0632 23.9689C89.7329 24.6007 90.5608 25.3168 90.5608 26.1172C90.5608 26.3278 90.4626 26.5244 90.2662 26.721C90.0697 26.9176 89.775 27.0159 89.3541 27.0159C88.9331 27.0159 88.1193 26.9316 86.9266 26.7631C85.7199 26.5806 84.6956 26.2576 83.8116 25.7943C82.9416 25.3309 82.0576 24.6148 81.1736 23.6599C80.2896 22.7051 79.2512 21.4133 78.0445 19.7845C77.9323 20.1215 77.8621 20.6129 77.8621 21.2308L78.0445 25.8083C78.0445 26.9035 77.7919 28.0971 77.2728 29.3468C76.7536 30.6105 76.2625 31.2424 75.7714 31.2424C75.4907 31.2424 75.182 31.0037 74.8453 30.5403C74.5085 30.0769 74.2419 29.5433 74.0314 28.9396C73.835 28.3498 73.6947 27.9988 73.5965 27.9145C73.5123 27.8303 73.4 27.7741 73.2597 27.7741C72.5581 27.7741 71.8144 28.1111 71.0006 28.7991C70.7901 28.9817 70.5937 29.08 70.4112 29.08C70.2288 29.08 69.878 28.7149 69.3589 27.9847C68.8397 27.2546 68.5029 26.5104 68.3766 25.71C68.2363 24.9237 68.1942 23.3651 68.2083 21.0201C65.3598 25.036 63.0586 27.1142 61.3046 27.2546C60.9539 27.2686 60.575 27.395 60.1821 27.5916C59.7892 27.8022 59.4946 27.9005 59.3262 27.9005C59.1578 27.9005 59.0596 27.8303 59.0596 27.7179C59.0596 27.5916 59.242 27.395 59.5928 27.1422C61.2205 25.9908 62.6096 24.7271 63.7602 23.337C64.9108 21.9469 66.1877 20.1074 67.6049 17.8187C67.2681 17.8187 67.0015 17.917 66.8191 18.1276C66.6227 18.3382 66.328 18.4365 65.9351 18.4365C65.5422 18.4365 65.2756 18.3803 65.1213 18.268C64.7144 17.9731 64.3776 17.8187 64.111 17.8187C63.9707 17.8187 63.8444 17.7063 63.7602 17.4957C63.662 17.2711 63.6199 17.0464 63.6199 16.8217C63.6199 16.1618 63.7602 15.8248 64.0408 15.8248L64.546 15.8669C65.0792 15.8669 65.6685 15.7265 66.328 15.4316C66.9875 15.1367 67.8434 14.7015 68.8958 14.1117C67.8715 13.4658 67.2401 13.0446 67.0296 12.8199C66.8191 12.5952 66.7069 12.2863 66.7069 11.9072C66.7069 11.163 66.9454 10.7979 67.4085 10.7979C67.8715 10.7979 68.6994 10.4188 69.864 9.66056C68.98 9.11294 68.2644 8.56532 67.7031 7.98961C67.1278 7.42795 66.8612 7.07692 66.8612 6.95054C66.8612 6.81013 66.9033 6.72588 66.9594 6.71184C67.0436 6.68375 67.1278 6.66971 67.2541 6.66971H67.6189C68.8678 6.66971 70.3271 6.27655 71.9968 5.50427C72.1091 5.40598 72.2213 5.23748 72.3196 4.98473C72.4178 4.73198 72.5721 4.19841 72.7686 3.35592C72.965 2.51342 73.0773 2.02197 73.0773 1.86751C73.0773 1.71306 73.0071 1.64285 72.8668 1.64285C72.7265 1.64285 72.5441 1.71306 72.3196 1.86751C72.1091 2.02197 71.9828 2.09218 71.9267 2.09218C71.7022 2.09218 71.6039 1.92368 71.6039 1.5586C71.6039 1.19352 71.646 0.982899 71.7302 0.884609C71.8144 0.786318 71.9547 0.659944 72.1231 0.477405C72.3055 0.280823 72.4879 0.168491 72.6984 0.112325C72.8949 0.0561592 73.1194 0.0280762 73.3579 0.0280762C74.0034 0.0280762 74.5225 0.15445 74.9154 0.407197C75.3083 0.659944 75.5048 1.05311 75.5048 1.57264C75.5048 1.74114 75.4767 1.8956 75.4346 2.05005C75.0557 3.03296 74.8874 3.90353 74.9295 4.63369C75.3645 4.22649 75.7293 4.01587 76.0239 4.01587C76.3186 4.01587 76.8658 4.22649 77.6797 4.63369C78.4795 5.05494 78.8864 5.49023 78.8864 5.98168C78.8864 6.47313 78.5497 6.82417 77.8761 7.06288C77.2026 7.30158 76.3467 7.79303 75.3224 8.52319C76.1081 8.73382 76.6694 8.88827 76.9921 9.01465C77.3149 9.12698 77.5253 9.25335 77.6236 9.36568C77.7218 9.47802 77.7779 9.71672 77.7779 10.0678C77.7779 10.4188 77.6797 10.6575 77.4692 10.7839C77.2728 10.8962 76.2344 11.6966 74.3963 13.185C75.1399 13.2131 75.5188 13.1288 75.5609 12.9463C75.603 12.7637 75.6451 12.6374 75.7152 12.5812C75.7854 12.525 75.9538 12.4969 76.2204 12.4969C77.2307 12.4969 78.1287 12.6093 78.9145 12.848C79.7143 13.0726 80.0931 13.3956 80.0931 13.8028C80.0931 14.0275 79.9107 14.224 79.5459 14.3785C79.1951 14.533 78.8163 14.6032 78.4234 14.6032C78.0305 14.6032 77.6797 14.5751 77.385 14.533C77.0904 14.4908 76.7396 14.4628 76.3607 14.4628C75.9818 14.4628 75.4627 14.547 74.8453 14.7436M75.3224 17.3413C75.168 17.0183 74.6629 16.6813 73.7929 16.3303C72.9229 15.9792 72.3617 15.7967 72.1091 15.7967C71.8565 15.7967 71.5338 15.8809 71.1269 16.0354C69.878 17.8468 69.2185 19.1386 69.1203 19.8828C69.1905 19.9811 69.2606 20.0232 69.3308 20.0232C69.5413 20.0232 70.2709 19.4334 71.4917 18.268C72.2354 17.5519 73.1474 17.2008 74.2279 17.2008C74.5927 17.2008 74.9575 17.243 75.3364 17.3413M71.0146 25.724C71.4356 25.7521 71.8565 25.71 72.2494 25.5836C72.6423 25.4713 72.8808 25.4151 72.951 25.4151C73.4 25.4151 73.7227 25.5696 73.9192 25.8645C74.1156 26.1593 74.27 26.3138 74.4103 26.3138C74.5506 26.3138 74.6348 26.2295 74.705 26.0891C74.7611 25.9487 74.8312 25.4432 74.9295 24.6007C75.0277 23.7723 75.0698 22.9438 75.0698 22.1154C75.0698 21.2869 75.0277 20.6129 74.9575 20.1074C74.8874 19.5879 74.7751 19.3352 74.6348 19.3352C74.4945 19.3352 74.3401 19.3913 74.1998 19.4756C72.6423 20.3321 71.6601 20.7534 71.2531 20.7534C71.183 20.7534 71.0988 20.7253 70.9865 20.6691C70.8743 20.6129 70.7199 20.5849 70.5235 20.5849C70.313 20.5849 70.0745 20.627 69.7798 20.6831C70.0464 21.0482 70.2709 21.5397 70.4674 22.1294C70.9164 22.1294 71.5338 21.9188 72.2634 21.4976C72.53 21.3712 72.8107 21.2869 73.1053 21.2869C73.4 21.2869 73.7227 21.4976 74.0455 21.9328C74.3682 22.3541 74.5366 22.6911 74.5366 22.9298C74.5366 23.1685 74.3822 23.3089 74.0595 23.3229C73.414 23.3932 73.0492 23.4914 72.951 23.6038C72.8528 23.7161 72.5721 23.8706 72.081 24.0391C71.6039 24.2076 71.1549 24.3199 70.7199 24.362C70.7199 24.8254 70.8182 25.2747 71.0006 25.7381" fill="#221714"/>
<path d="M112.297 17.566C113.195 18.0013 114.247 18.8297 115.454 20.0513C116.015 20.5989 116.969 21.2729 118.316 22.0873C119.677 22.8877 121.067 23.6179 122.498 24.2638C124.35 25.1624 125.276 25.8645 125.276 26.384C125.276 26.5385 125.206 26.6508 125.08 26.721C124.939 26.8053 124.561 26.8895 123.929 26.9738C123.284 27.058 122.694 27.1002 122.133 27.1002C119.088 27.1002 116.675 25.8926 114.879 23.4634C113.756 21.975 112.76 20.7394 111.89 19.7564C111.848 21.4555 111.202 22.7894 109.968 23.7583C108.719 24.7271 107.33 25.2186 105.786 25.2186C105.337 25.2186 104.916 25.1765 104.509 25.0782C104.116 24.9799 103.906 24.8816 103.906 24.7552C103.906 24.6289 104.074 24.5165 104.411 24.4042C107.428 23.3651 109.35 21.4836 110.15 18.7174C109.967 18.6191 109.547 18.5489 108.915 18.5068C108.508 19.6582 108.171 20.2339 107.891 20.2339C107.61 20.2339 107.315 19.9952 107.035 19.4756C106.74 18.9701 106.6 18.268 106.6 17.3553C106.6 16.4427 106.698 15.9091 106.909 15.7406C107.316 15.3615 107.512 14.8419 107.512 14.196C107.512 13.7186 107.428 13.3816 107.245 13.185C107.063 12.9884 106.909 12.6655 106.782 12.2021C106.137 12.3706 105.632 12.6234 105.281 12.9463C104.93 13.2693 104.649 13.8169 104.425 14.6173C104.888 15.1649 105.197 15.895 105.323 16.8218C105.519 16.6533 105.772 16.2882 106.067 15.7406C106.137 15.6002 106.221 15.53 106.319 15.53C106.417 15.53 106.474 15.6563 106.474 15.895C106.474 16.4005 105.491 17.917 103.555 20.4585C103.485 21.1746 103.457 21.9188 103.457 22.649C103.457 23.3792 103.499 24.334 103.583 25.4573C103.681 26.5806 103.723 27.1704 103.723 27.2125C103.723 27.6478 103.597 28.1111 103.345 28.6307C103.078 29.1502 102.867 29.403 102.685 29.403C102.503 29.403 102.208 28.9677 101.787 28.1112C101.366 27.2406 101.142 26.1032 101.142 24.6991C101.142 24.1795 101.17 23.6179 101.24 23.0141C100.187 23.8847 99.3595 24.5867 98.7561 25.1343C98.5316 25.359 98.2931 25.4573 98.0546 25.4573C97.816 25.4573 97.5775 25.1624 97.353 24.5586C97.1285 23.9549 97.0162 23.3792 97.0162 22.8175C97.0162 22.2558 97.0864 21.8206 97.2126 21.5116C97.353 21.2027 97.5213 21.0202 97.7178 20.9781C98.5878 20.8096 99.4718 20.2619 100.356 19.3352C101.24 18.4225 101.829 17.2851 102.152 15.9372C101.52 16.0776 100.749 16.6954 99.8085 17.7626C99.3314 18.2961 98.4895 18.5629 97.2547 18.5629C96.6233 18.5629 95.9638 18.4646 95.2342 18.254C94.5186 18.0574 93.9994 17.5941 93.6767 16.906C93.3539 16.218 93.1855 15.5861 93.1855 15.0104C93.1855 14.4347 93.2838 14.1679 93.4521 14.1679C93.5363 14.1679 93.6486 14.2522 93.7608 14.4207C94.0555 14.856 94.3923 15.0666 94.7992 15.0666C94.9535 15.0666 95.0798 15.0525 95.1781 15.0104C95.2763 14.9823 96.2585 14.4066 98.1247 13.3254C100.005 12.2302 101.464 11.4439 102.545 10.9665C102.545 10.7418 102.545 10.461 102.559 10.1099C102.573 9.74485 102.559 9.46402 102.545 9.23935C102.517 9.02873 102.573 8.83215 102.699 8.66365C102.825 8.49515 102.966 8.36878 103.12 8.28453C103.274 8.20028 103.485 8.15816 103.723 8.15816C103.962 8.15816 104.257 8.29857 104.593 8.5794C104.93 8.87427 105.323 9.3236 105.8 9.96951C106.277 10.6014 106.642 10.9665 106.923 11.0788C107.203 11.1911 107.315 11.3315 107.273 11.5141C107.231 11.6966 107.217 11.837 107.245 11.9634C108.663 12.5672 109.392 13.2552 109.462 14.0135C110.29 13.5501 111.02 12.9884 111.651 12.3144L112.114 8.39686C111.778 7.38587 111.469 6.31872 111.216 5.1954C110.964 4.07208 110.823 3.34192 110.823 3.01896C110.823 2.69601 110.992 2.41518 111.343 2.20455C111.679 1.96585 111.988 1.85352 112.227 1.85352C112.676 1.85352 113.125 2.20455 113.574 2.87855C114.023 3.55254 114.247 4.42311 114.247 5.44814C114.247 6.47317 114.093 7.87733 113.784 9.64656C114.738 10.6014 115.706 11.135 116.661 11.2613C117.222 11.3315 117.741 11.6685 118.218 12.2864C118.695 12.8901 118.948 13.3956 118.948 13.7888C118.948 14.182 118.822 14.4909 118.597 14.6875C118.358 14.884 118.022 14.9823 117.573 14.9823C117.124 14.9823 116.689 14.884 116.268 14.6594C115.847 14.4347 114.851 13.7046 113.279 12.4689C112.9 14.0977 112.577 15.7827 112.311 17.5379M105.449 3.34192C105.576 3.34192 105.716 3.38404 105.842 3.48233C105.982 3.58062 106.277 3.91762 106.754 4.49332C107.217 5.06902 107.554 5.53239 107.75 5.85535C107.933 6.19234 108.031 6.45913 108.031 6.64167C108.031 7.14717 107.652 7.51225 106.895 7.77903C106.137 8.03178 105.477 8.15816 104.944 8.15816C104.411 8.15816 103.962 8.10199 103.611 7.98966C103.26 7.89137 103.05 7.8352 102.994 7.8352C102.727 7.8352 102.208 7.91945 101.45 8.08795C100.314 8.35474 99.1911 8.48111 98.0826 8.48111C96.9741 8.48111 96.4269 8.42494 96.4269 8.32665C96.4269 8.22836 96.5532 8.13007 96.7917 8.05986C98.672 7.428 100.468 6.62763 102.18 5.63068C103.892 4.63374 104.804 3.98783 104.916 3.67891C104.986 3.45425 105.169 3.35596 105.463 3.35596M111.23 14.0837C110.992 14.196 110.697 14.5892 110.36 15.221C110.024 15.8529 109.827 16.4286 109.757 16.9201C110.164 16.9622 110.445 17.0184 110.599 17.0605C110.894 15.9091 111.104 14.9121 111.244 14.0837M112.269 5.85535C112.283 5.32177 112.269 4.95669 112.213 4.74607C112.156 4.53545 112.1 4.42311 112.03 4.42311C111.96 4.42311 111.932 4.56353 111.932 4.81628C111.932 5.22348 112.044 5.57452 112.269 5.85535Z" fill="#221714"/>
<path d="M147.025 17.0323C148.555 15.937 149.565 15.0524 150.042 14.4065C150.323 13.9712 150.814 13.7606 151.501 13.7606C152.189 13.7606 152.792 13.9291 153.353 14.2801C153.901 14.6171 154.181 15.1367 154.181 15.8107C154.181 16.1477 154.083 16.4285 153.887 16.6391C153.41 17.1446 152.862 18.4785 152.217 20.6409C151.585 22.8033 151.263 24.2215 151.263 24.8955C151.263 26.2575 152.512 26.9456 154.995 26.9456C156.791 26.9456 157.689 26.2014 157.689 24.727C157.689 23.7722 157.338 22.4944 156.609 20.8796C156.553 20.7533 156.539 20.655 156.539 20.5567C156.539 20.4584 156.581 20.4163 156.665 20.4163C156.749 20.4163 156.847 20.5005 156.974 20.669C158.391 22.7191 159.555 24.2777 160.496 25.3448C160.846 25.752 161.029 26.1873 161.029 26.6788C161.029 27.1702 160.903 27.5494 160.636 27.8864C160.369 28.2093 159.668 28.5463 158.531 28.9114C157.395 29.2765 156.23 29.445 155.037 29.445C153.438 29.445 152.034 29.1641 150.856 28.6025C149.663 28.0408 149.074 26.9877 149.074 25.4572C149.074 24.8955 149.242 23.6739 149.551 21.8345C149.874 19.981 150.112 18.7453 150.28 18.1135C150.435 17.4816 150.519 17.1165 150.519 17.0323C150.519 16.948 150.477 16.9059 150.407 16.9059C150.21 16.9059 149.467 17.3833 148.148 18.3522C148.274 18.619 148.316 18.8717 148.316 19.0964C148.316 19.6019 147.979 20.6831 147.292 22.34C146.604 23.9969 145.959 25.2466 145.355 26.1171C144.738 26.9737 144.247 27.4089 143.868 27.4089C143.489 27.4089 143.293 27.1422 143.293 26.6226C143.293 24.6849 143.882 22.6629 145.061 20.5848C145.271 20.1916 145.383 19.8967 145.383 19.658C145.383 19.4193 145.327 19.2227 145.201 19.0262C144.892 18.5768 144.738 17.945 144.738 17.1586C144.738 16.8919 144.78 16.6531 144.864 16.4425C144.948 16.2179 144.991 15.9511 144.991 15.6141C144.991 15.2771 144.962 14.9822 144.92 14.7154C144.036 14.2801 143.377 13.7887 142.942 13.1989C142.83 14.2099 142.745 15.4175 142.689 16.8497C142.633 18.282 142.619 19.6159 142.619 20.8656L142.661 24.0671C142.661 26.061 142.423 27.437 141.96 28.2374C141.483 29.0237 141.048 29.4169 140.641 29.4169C140.472 29.4169 140.318 29.3186 140.178 29.122C140.023 28.9114 139.743 28.3778 139.322 27.5353C138.901 26.6788 138.536 25.8363 138.199 25.0078C137.989 25.2746 137.694 25.401 137.343 25.401C136.992 25.401 136.6 25.1061 136.179 24.5024C135.758 23.8986 135.547 23.5194 135.547 23.3509C135.547 23.1824 135.631 23.0842 135.8 23.0561C136.207 23.014 136.445 22.8314 136.515 22.5085C136.586 22.1855 136.614 21.2728 136.586 19.7563C136.136 20.0231 135.575 20.3039 134.902 20.6269C135.281 24.0249 135.477 25.9767 135.477 26.4822C135.477 27.5915 135.252 28.1391 134.789 28.1391C134.326 28.1391 133.976 27.6196 133.625 26.5805C133.274 25.5274 133.078 23.8986 133.035 21.666C132.39 22.1013 132.825 21.8204 131.801 22.3961C131.211 22.7191 131.127 22.7612 130.931 22.7752C130.369 22.8174 130.243 22.1293 130.243 20.4724C130.243 20.1354 130.271 19.8546 130.355 19.644C130.426 19.4334 130.524 19.2789 130.636 19.2087C130.762 19.1385 130.903 19.1806 131.169 19.1806C131.997 19.1806 133.204 18.4645 133.204 18.4645C133.204 18.4645 133.386 15.9511 133.597 13.7466C133.807 11.528 134.186 9.91322 134.691 8.87415C135.196 7.83508 135.687 7.10492 136.122 6.66963C136.571 6.2203 136.782 5.8131 136.782 5.46206C136.782 5.11102 136.698 4.81615 136.529 4.60553C135.744 3.5805 135.351 2.78013 135.351 2.23251C135.351 1.99381 135.421 1.86743 135.561 1.86743C135.702 1.86743 135.842 1.93764 135.954 2.07805C136.543 2.75205 137.217 3.2435 137.989 3.5805C138.746 3.90345 139.266 4.31065 139.588 4.81615C139.897 5.32164 140.051 5.72885 140.051 6.03776C140.051 6.54326 139.743 6.9645 139.083 7.28746C137.484 8.15803 136.501 8.90223 136.179 9.52006C135.842 10.1379 135.631 10.9663 135.533 11.9914L136.543 11.8931C136.922 10.4608 137.413 9.3656 138.003 8.63544C138.578 7.90528 139.195 7.52616 139.841 7.52616C140.388 7.52616 141.062 7.93337 141.861 8.74777C142.647 9.56218 143.026 10.517 142.97 11.6263C143.138 11.7386 143.419 11.8088 143.84 11.8088C144.85 11.8088 146.155 11.528 147.769 10.9944C149.382 10.4608 150.856 9.75876 152.175 8.90223C152.75 8.52311 153.353 8.31249 154.013 8.31249C154.672 8.31249 155.178 8.52311 155.584 8.94435C155.991 9.3656 156.202 9.80089 156.202 10.2643C156.202 10.7276 156.048 11.0787 155.739 11.3595C155.416 11.6403 155.093 11.7807 154.743 11.7807C154.392 11.7807 154.125 11.7527 153.929 11.7105C153.732 11.6544 153.536 11.6403 153.311 11.6403C152.554 11.6403 151.642 11.879 150.589 12.3564C149.537 12.8339 148.512 13.4798 147.502 14.2942C146.969 14.7295 146.464 14.9401 145.959 14.9401C145.917 15.2069 145.889 15.4456 145.889 15.6843C145.889 15.923 145.987 16.1477 146.169 16.3302C146.366 16.5268 146.66 16.7655 147.039 17.0463M136.67 17.0603C136.74 16.274 136.782 15.6702 136.782 15.2771C136.782 14.5188 136.642 14.1257 136.375 14.1257C136.108 14.1257 135.73 14.238 135.281 14.4486C135.07 16.2179 134.944 17.3412 134.916 17.7905C135.477 17.5518 136.052 17.3131 136.684 17.0744M140.346 15.6C140.374 14.6171 140.388 13.6483 140.388 12.6934C140.388 11.7386 140.332 11.0506 140.22 10.6434C140.107 10.2362 139.897 10.0396 139.588 10.0396C138.915 10.0396 138.255 10.6715 137.582 11.9352C138.985 12.1458 139.602 13.5078 139.406 15.9932C139.715 15.8247 140.023 15.6983 140.346 15.6ZM140.304 17.9028L139.083 18.5488L138.508 22.9999C138.929 24.0109 139.392 24.5164 139.869 24.5164C140.136 24.5164 140.262 24.3339 140.262 23.9407C140.262 21.7502 140.276 19.7563 140.29 17.9028M147.208 2.62567C147.881 2.62567 149.004 2.72396 150.589 2.9065C152.175 3.10308 153.059 3.42604 153.255 3.90345C153.452 4.36682 153.536 4.84423 153.536 5.32164C153.536 5.79906 153.466 6.13605 153.311 6.34667C153.157 6.54326 152.862 6.66963 152.427 6.7258C151.235 6.86621 150.084 7.31554 149.018 8.05974C148.274 8.56523 147.488 8.94436 146.674 9.22519C145.846 9.50602 145.369 9.64643 145.215 9.64643C145.061 9.64643 145.005 9.59026 145.005 9.47793C145.005 9.3656 145.089 9.26731 145.257 9.16902C146.281 8.56523 147.165 7.96145 147.881 7.35766C148.597 6.75388 148.962 6.30455 148.962 6.02372C148.962 5.74289 148.891 5.56035 148.737 5.46206C148.372 5.26548 147.951 4.81615 147.46 4.07195C146.969 3.34179 146.73 2.92055 146.73 2.79417C146.73 2.68184 146.899 2.61163 147.236 2.61163" fill="#221714"/>
<path d="M180.21 6.29049C181.824 6.06582 183.353 5.91137 184.784 5.82712C186.216 5.72883 187.142 5.6867 187.563 5.6867C187.984 5.6867 188.377 5.88328 188.727 6.29049L190.102 7.76485C190.636 8.36863 190.916 8.832 190.916 9.15496C190.916 9.47791 190.846 9.77278 190.72 10.0255C190.608 10.2783 190.383 10.4749 190.032 10.6153C189.71 10.7416 189.05 10.8961 188.11 11.0506C187.17 11.205 186.202 11.2752 185.233 11.2752C184.265 11.2752 183.437 11.0786 182.75 10.6714C182.946 10.9242 183.044 11.1208 183.044 11.2612C183.044 11.4016 182.932 11.6684 182.694 12.0615C182.455 12.4407 182.343 12.7496 182.343 12.9742C182.343 13.1989 182.525 13.3393 182.876 13.3815C183.676 13.4938 184.279 13.8027 184.686 14.3222C185.079 14.8418 185.29 15.2209 185.29 15.4596C185.29 15.8668 184.883 16.2319 184.083 16.5689L175.117 20.5847C175.341 20.6269 175.594 20.655 175.86 20.655C177.291 20.655 178.596 20.1916 179.775 19.2789C180.14 19.0121 180.505 18.8717 180.856 18.8717C181.206 18.8717 181.754 19.1385 182.455 19.6721C183.157 20.2197 183.508 20.6128 183.508 20.8937C183.508 21.1745 183.353 21.4834 183.03 21.8064C181.74 23.1965 180.673 24.404 179.817 25.4291C181.894 25.1342 183.704 24.9938 185.276 24.9938C186.103 24.9938 186.889 25.3308 187.675 26.0188C188.447 26.6928 188.826 27.3808 188.826 28.0829C188.826 28.5884 188.517 28.8412 187.899 28.8412C187.282 28.8412 186.384 28.6305 185.191 28.2093C183.999 27.788 182.638 27.5634 181.122 27.5634C178.667 27.5634 175.622 28.2514 171.959 29.6134C171.609 29.7398 171.3 29.81 171.019 29.81C170.416 29.81 169.939 29.5152 169.588 28.9254C169.251 28.3357 169.069 27.9004 169.069 27.6476C169.069 27.3949 169.125 27.1983 169.223 27.1141C169.321 27.0298 169.448 26.9877 169.602 26.9877H170.107C170.402 26.9877 170.725 26.9315 171.103 26.8192C172.156 26.5103 173.587 26.2435 175.425 26.0188C176.716 25.0219 177.628 23.8985 178.175 22.6769C177.572 22.8314 177.025 23.0561 176.506 23.3509C176.323 23.4633 176.043 23.5194 175.664 23.5194C175.285 23.5194 174.822 23.3931 174.275 23.1543C173.727 22.9016 173.447 22.5646 173.447 22.1012C173.447 21.6379 173.573 21.2447 173.798 20.9077C174.036 20.5707 174.415 20.2899 174.948 20.0512C175.481 19.8125 176.365 19.307 177.586 18.5206C178.821 17.7203 179.929 16.9199 180.94 16.0915C179.986 15.6702 179.508 14.7014 179.508 13.213L179.579 11.6965C179.579 11.1208 179.368 10.6434 178.933 10.2642C178.807 10.1519 178.737 9.99745 178.737 9.80087C178.737 9.60428 178.849 9.4077 179.074 9.22516C179.298 9.04262 179.621 8.95837 180.028 8.95837C180.435 8.95837 180.898 9.09879 181.389 9.37962C181.88 9.66045 182.231 10.0115 182.427 10.4327C182.497 10.1659 182.708 9.99745 183.03 9.92724C183.83 9.77278 184.616 9.4077 185.388 8.86008C186.16 8.29842 186.538 7.90526 186.538 7.63847C186.538 7.37168 186.23 7.25935 185.64 7.25935C184.293 7.25935 182.525 7.49806 180.336 7.94739C178.147 8.41076 176.674 8.81796 175.916 9.18304C175.173 9.54812 174.639 9.73066 174.331 9.73066C174.162 9.73066 173.826 9.64641 173.349 9.47791C172.857 9.30941 172.465 9.22516 172.156 9.22516C171.847 9.22516 171.538 9.37962 171.258 9.68853C171.118 10.4047 170.725 11.528 170.065 13.0866C169.42 14.6311 168.971 15.5719 168.732 15.9089C168.508 16.2459 168.297 16.4144 168.143 16.4144C167.988 16.4144 167.764 16.3021 167.469 16.0774C167.189 15.8528 166.978 15.6562 166.88 15.5017C166.782 15.3332 166.726 14.8699 166.726 14.1397C166.726 13.4095 166.782 12.7636 166.894 12.216C167.006 11.6684 167.217 11.2752 167.525 11.0084C167.834 10.7557 168.185 10.2221 168.578 9.43579C168.971 8.64946 169.167 8.11588 169.167 7.86314C169.167 7.59635 169.111 7.32956 168.999 7.04873C168.886 6.75386 168.83 6.52919 168.83 6.36069C168.83 6.1922 168.957 6.10795 169.195 6.10795C169.434 6.10795 169.728 6.24836 170.065 6.51515C170.402 6.78194 170.683 7.31552 170.935 8.12992C172.675 7.59635 174.654 7.14702 176.885 6.78194C176.955 6.50111 176.983 6.20624 176.983 5.93945C176.983 5.67266 176.786 5.3497 176.407 4.98463C175.79 4.40892 175.313 3.74897 175.004 3.00477C174.696 2.27461 174.541 1.82528 174.541 1.68487C174.541 1.54445 174.583 1.46021 174.668 1.46021C174.752 1.46021 174.878 1.50233 175.032 1.58658C175.608 1.89549 176.534 2.24653 177.811 2.62565C178.428 2.80819 179.003 3.29964 179.494 4.11405C180 4.92846 180.21 5.65862 180.154 6.30453M174.19 10.0817C174.457 10.0817 174.906 10.2923 175.538 10.6855C176.169 11.0927 176.506 11.4437 176.548 11.7246C176.59 12.0054 176.73 12.3143 176.997 12.6373C177.263 12.9602 177.39 13.213 177.39 13.3955C177.39 13.8589 176.885 14.6452 175.846 15.7264C174.822 16.8076 173.98 17.5518 173.32 17.9449C172.661 18.3521 172.128 18.5487 171.721 18.5487C171.314 18.5487 171.103 18.1556 171.103 17.3692C171.103 17.0322 171.132 16.6953 171.202 16.3442C171.272 16.0072 171.356 15.7264 171.454 15.5158C171.553 15.3192 171.651 15.1928 171.735 15.1366C171.819 15.0805 172.03 15.0664 172.338 15.0664C172.647 15.0664 173.026 14.7154 173.475 14.0414C173.924 13.3674 174.148 12.9321 174.148 12.7355C174.148 12.539 174.12 12.4126 174.078 12.3143C173.84 11.8509 173.713 11.3033 173.713 10.6714C173.713 10.2783 173.868 10.0677 174.176 10.0677" fill="#221714"/>
<path d="M62.8629 44.9608L62.5682 45.6489H62.0771L61.165 42.4053L61.6982 42.2368C62.1613 43.1635 62.7366 43.8796 63.4241 44.3711C64.1117 44.8625 64.8694 45.1012 65.6973 45.1012C66.3989 45.1012 66.9742 44.9047 67.4513 44.5115C67.9143 44.1183 68.1528 43.6269 68.1528 43.0512C68.1528 42.6159 68.0266 42.2789 67.7459 42.0402C67.4793 41.8015 66.904 41.5768 65.992 41.3522C65.8516 41.31 65.6692 41.2539 65.4307 41.1977C63.9995 40.8467 63.1014 40.5377 62.7366 40.3131C62.3718 40.0744 62.1052 39.7935 61.9228 39.4846C61.7403 39.1757 61.6561 38.8387 61.6561 38.4456C61.6561 37.7154 61.9508 37.1116 62.5682 36.6342C63.1716 36.1708 63.9714 35.9321 64.9536 35.9321C65.3325 35.9321 65.7254 35.9883 66.1182 36.1006C66.5111 36.213 66.9181 36.3815 67.325 36.6061L67.5495 36.1428H68.0266L68.8685 38.6281L68.3633 38.7685C67.9424 38.0664 67.4513 37.5329 66.876 37.1537C66.3007 36.7746 65.6973 36.578 65.0659 36.578C64.4344 36.578 63.9574 36.7185 63.5925 36.9993C63.2137 37.2801 63.0313 37.6452 63.0313 38.0945C63.0313 38.7826 63.9153 39.3442 65.6973 39.7935C65.8236 39.8216 65.9078 39.8497 65.9639 39.8638C66.1182 39.9059 66.3427 39.962 66.6234 40.0182C67.5074 40.2288 68.1248 40.4535 68.4615 40.6782C68.7983 40.9169 69.0649 41.1977 69.2473 41.5487C69.4157 41.8998 69.5139 42.2789 69.5139 42.6861C69.5139 43.5426 69.1491 44.2728 68.4335 44.8625C67.7038 45.4663 66.8339 45.7612 65.7815 45.7612C65.2483 45.7612 64.7431 45.691 64.2661 45.5506C63.789 45.4101 63.3259 45.1995 62.8629 44.9047" fill="#221714"/>
<path d="M74.326 45.649H70.4111V45.1997C70.9022 45.1576 71.225 45.0453 71.3934 44.8487C71.5617 44.6521 71.66 44.2589 71.66 43.6832V38.1228C71.66 37.5471 71.5758 37.168 71.3934 36.9714C71.225 36.7748 70.9022 36.6625 70.4111 36.6344V36.1851H74.0874C74.8171 36.1851 75.3784 36.2131 75.7713 36.2693C76.1641 36.3255 76.5149 36.4097 76.8236 36.5361C77.3147 36.7327 77.7217 37.0416 78.0023 37.4769C78.297 37.8981 78.4373 38.3896 78.4373 38.9232C78.4373 39.8359 78.0725 40.5239 77.3428 40.9732C76.6132 41.4225 75.5047 41.6472 74.0313 41.6472C73.8489 41.6472 73.5542 41.6472 73.1614 41.6332C73.1193 41.6332 73.0912 41.6332 73.0772 41.6332V43.7113C73.0772 44.3011 73.1614 44.6802 73.3297 44.8768C73.4981 45.0733 73.8349 45.1857 74.312 45.2278V45.6771L74.326 45.649ZM73.0772 40.9732C73.2596 40.9732 73.442 41.0013 73.6244 41.0013C73.8068 41.0013 73.9752 41.0013 74.1436 41.0013C75.1679 41.0013 75.9116 40.8328 76.3887 40.4818C76.8517 40.1307 77.0762 39.5691 77.0762 38.8108C77.0762 38.1368 76.8517 37.6313 76.4167 37.2943C75.9817 36.9573 75.3222 36.7888 74.4663 36.7888C73.8629 36.7888 73.4841 36.8591 73.3157 36.9854C73.1614 37.1258 73.0772 37.4769 73.0772 38.0666V40.9732Z" fill="#221714"/>
<path d="M79.1117 45.649V45.1997C79.6028 45.1576 79.9255 45.0453 80.0939 44.8487C80.2623 44.6521 80.3465 44.273 80.3465 43.6832V38.1228C80.3465 37.5471 80.2623 37.168 80.0939 36.9714C79.9255 36.7748 79.6028 36.6625 79.0977 36.6344V36.1851H83.7281C85.0752 36.1851 86.0855 36.3816 86.773 36.7888C87.4606 37.182 87.8114 37.7718 87.8114 38.544C87.8114 39.218 87.6009 39.7656 87.1799 40.2009C86.759 40.6222 86.1276 40.917 85.2716 41.0855L87.0817 43.7254C87.4185 44.2308 87.7412 44.5959 88.0218 44.8346C88.3165 45.0593 88.6112 45.1857 88.9199 45.1997V45.635H86.6608L83.658 41.24H81.7777V43.6692C81.7777 44.2589 81.8619 44.6381 82.0303 44.8346C82.1987 45.0312 82.5214 45.1435 83.0125 45.1857V45.635H79.0977L79.1117 45.649ZM81.7918 40.6362H83.0686C83.686 40.6362 84.1491 40.6222 84.4718 40.5801C84.7945 40.552 85.0471 40.4818 85.2576 40.3975C85.5943 40.2711 85.861 40.0605 86.0574 39.7376C86.2538 39.4286 86.3521 39.0636 86.3521 38.6564C86.3521 38.0105 86.1276 37.533 85.6785 37.2241C85.2295 36.9152 84.5139 36.7748 83.5317 36.7748C82.7599 36.7748 82.2829 36.845 82.0864 36.9854C81.89 37.1258 81.7918 37.4769 81.7918 38.0385V40.6362Z" fill="#221714"/>
<path d="M93.1988 36.1709V36.6202C92.7077 36.6624 92.3709 36.7747 92.2166 36.9572C92.0482 37.1538 91.964 37.5329 91.964 38.1086V43.6831C91.964 44.2729 92.0482 44.652 92.2166 44.8486C92.3849 45.0451 92.7217 45.1575 93.1988 45.1996V45.6489H89.2559V45.1996C89.747 45.1575 90.0697 45.0451 90.2381 44.8486C90.4065 44.652 90.4906 44.2729 90.4906 43.6831V38.1086C90.4906 37.5329 90.4065 37.1538 90.2381 36.9572C90.0697 36.7606 89.7329 36.6483 89.2559 36.6202V36.1709H93.1988Z" fill="#221714"/>
<path d="M93.9991 45.649V45.1997C94.4902 45.1576 94.813 45.0453 94.9814 44.8487C95.1497 44.6521 95.2339 44.273 95.2339 43.6832V38.1228C95.2339 37.5471 95.1497 37.168 94.9814 36.9573C94.813 36.7748 94.4762 36.6484 93.9851 36.6204V36.171H97.03L101.464 43.6832V38.1088C101.464 37.533 101.38 37.1399 101.211 36.9433C101.043 36.7467 100.72 36.6344 100.243 36.6063V36.157H103.555V36.6063C103.064 36.6344 102.727 36.7608 102.558 36.9433C102.39 37.1399 102.306 37.519 102.306 38.1088V45.635H101.057L96.0618 37.4488V43.6832C96.0618 44.273 96.146 44.6521 96.3144 44.8487C96.4827 45.0453 96.8195 45.1576 97.2966 45.1997V45.649H93.957H93.9991Z" fill="#221714"/>
<path d="M111.075 41.0574H114.738V41.5488C114.331 41.6612 114.036 41.8156 113.882 42.0263C113.727 42.2369 113.643 42.5739 113.643 43.0372V45.6911H112.942L112.563 44.8065C112.058 45.1575 111.567 45.4243 111.061 45.6068C110.57 45.7753 110.065 45.8736 109.546 45.8736C109.027 45.8736 108.55 45.8034 108.073 45.663C107.61 45.5226 107.161 45.312 106.754 45.0311C106.094 44.5959 105.589 44.0061 105.238 43.304C104.887 42.5879 104.705 41.8016 104.705 40.917C104.705 40.2289 104.817 39.5971 105.042 38.9792C105.266 38.3755 105.589 37.8559 106.01 37.3926C106.445 36.9292 106.95 36.5781 107.525 36.3394C108.101 36.1007 108.732 35.9744 109.42 35.9744C109.869 35.9744 110.304 36.0586 110.739 36.199C111.174 36.3535 111.595 36.5781 112.03 36.873L112.324 36.1569H112.745L113.447 39.555L112.984 39.6392C112.521 38.6142 112.016 37.8559 111.426 37.3364C110.837 36.8169 110.206 36.5501 109.532 36.5501C108.564 36.5501 107.778 36.9573 107.189 37.7436C106.599 38.544 106.319 39.5971 106.319 40.9451C106.319 42.293 106.613 43.304 107.203 44.0763C107.792 44.8486 108.592 45.2277 109.602 45.2277C110.416 45.2277 111.09 45.0031 111.609 44.5678C112.128 44.1184 112.394 43.5708 112.394 42.8968C112.394 42.4896 112.282 42.1807 112.058 41.9701C111.833 41.7454 111.496 41.6191 111.047 41.5769V41.0574H111.075Z" fill="#221714"/>
<path d="M123.353 45.649V45.1997C123.662 45.1716 123.928 45.0733 124.167 44.9048C124.405 44.7363 124.574 44.4976 124.686 44.1887L127.815 36.1851H129.106L132.067 44.1747C132.193 44.5117 132.347 44.7504 132.544 44.9048C132.74 45.0733 133.007 45.1576 133.329 45.1997V45.649H129.583V45.1997H129.765C130.06 45.1997 130.285 45.1576 130.425 45.0453C130.579 44.947 130.635 44.7925 130.635 44.5819C130.635 44.5117 130.635 44.4415 130.607 44.3572C130.593 44.273 130.565 44.1887 130.523 44.0764L129.85 42.1527H126.398L125.808 43.8096C125.78 43.8939 125.752 43.9781 125.738 44.0623C125.738 44.1466 125.71 44.2449 125.71 44.3432C125.71 44.5959 125.794 44.7785 125.935 44.9048C126.103 45.0453 126.412 45.1435 126.861 45.2418V45.649H123.339H123.353ZM129.625 41.4787L128.152 37.3786L126.65 41.4787H129.625Z" fill="#221714"/>
<path d="M137.483 36.1709V36.6202C136.992 36.6624 136.669 36.7747 136.487 36.9572C136.319 37.1538 136.234 37.5329 136.234 38.1086V43.6831C136.234 44.2729 136.319 44.652 136.487 44.8486C136.655 45.0451 136.992 45.1575 137.469 45.1996V45.6489H133.526V45.1996C134.003 45.1575 134.34 45.0451 134.509 44.8486C134.677 44.652 134.761 44.2729 134.761 43.6831V38.1086C134.761 37.5329 134.677 37.1538 134.509 36.9572C134.34 36.7606 134.003 36.6483 133.526 36.6202V36.1709H137.469H137.483Z" fill="#221714"/>
<path d="M138.283 45.649V45.1997C138.774 45.1576 139.097 45.0453 139.279 44.8487C139.448 44.6521 139.532 44.273 139.532 43.6832V38.1228C139.532 37.5471 139.448 37.168 139.279 36.9714C139.111 36.7748 138.774 36.6625 138.283 36.6344V36.1851H142.9C144.247 36.1851 145.257 36.3816 145.959 36.7888C146.646 37.182 146.997 37.7718 146.997 38.544C146.997 39.218 146.786 39.7656 146.365 40.2009C145.945 40.6222 145.313 40.917 144.457 41.0855L146.267 43.7254C146.604 44.2308 146.927 44.5959 147.221 44.8346C147.502 45.0593 147.797 45.1857 148.105 45.1997V45.635H145.846L142.844 41.24H140.963V43.6692C140.963 44.2589 141.047 44.6381 141.23 44.8346C141.398 45.0312 141.735 45.1435 142.212 45.1857V45.635H138.297L138.283 45.649ZM140.949 40.6362H142.226C142.844 40.6362 143.321 40.6222 143.629 40.5801C143.952 40.552 144.219 40.4818 144.415 40.3975C144.752 40.2711 145.018 40.0605 145.215 39.7376C145.411 39.4286 145.51 39.0636 145.51 38.6564C145.51 38.0105 145.285 37.533 144.836 37.2241C144.387 36.9152 143.671 36.7748 142.703 36.7748C141.931 36.7748 141.454 36.845 141.258 36.9854C141.061 37.1258 140.963 37.4769 140.963 38.0385V40.6362H140.949Z" fill="#221714"/>
<path d="M148.428 36.6202V36.1709H152.343V36.6202C151.851 36.6483 151.529 36.7747 151.346 36.9572C151.178 37.1538 151.094 37.5329 151.094 38.1086V43.5146C151.094 44.1886 151.164 44.6098 151.318 44.8064C151.473 44.989 151.767 45.0873 152.202 45.0873C152.96 45.0873 153.662 44.8766 154.307 44.4554C154.952 44.0482 155.598 43.3742 156.257 42.4475L156.664 42.616L155.57 45.6489H148.428V45.1996C148.919 45.1575 149.242 45.0451 149.41 44.8486C149.578 44.652 149.677 44.2588 149.677 43.6831V38.1227C149.677 37.547 149.592 37.1678 149.424 36.9713C149.256 36.7747 148.919 36.6624 148.442 36.6343" fill="#221714"/>
<path d="M161.309 36.1709V36.6202C160.818 36.6624 160.481 36.7747 160.313 36.9572C160.144 37.1538 160.06 37.5329 160.06 38.1086V43.6831C160.06 44.2729 160.144 44.652 160.327 44.8486C160.495 45.0451 160.818 45.1575 161.309 45.1996V45.6489H157.366V45.1996C157.843 45.1575 158.18 45.0451 158.362 44.8486C158.531 44.652 158.615 44.2729 158.615 43.6831V38.1086C158.615 37.5329 158.531 37.1538 158.362 36.9572C158.194 36.7606 157.857 36.6483 157.366 36.6202V36.1709H161.309Z" fill="#221714"/>
<path d="M162.094 45.649V45.1997C162.586 45.1576 162.908 45.0453 163.091 44.8487C163.259 44.6521 163.343 44.273 163.343 43.6832V38.1228C163.343 37.5471 163.259 37.168 163.091 36.9573C162.922 36.7748 162.586 36.6484 162.094 36.6204V36.171H165.139L169.573 43.6832V38.1088C169.573 37.533 169.489 37.1399 169.335 36.9433C169.166 36.7467 168.844 36.6344 168.367 36.6063V36.157H171.678V36.6063C171.187 36.6344 170.864 36.7608 170.682 36.9433C170.514 37.1399 170.429 37.519 170.429 38.1088V45.635H169.18L164.171 37.4488V43.6832C164.171 44.273 164.255 44.6521 164.424 44.8487C164.592 45.0453 164.929 45.1576 165.406 45.1997V45.649H162.066H162.094Z" fill="#221714"/>
<path d="M172.437 45.6489V45.1996C172.914 45.1575 173.25 45.0451 173.419 44.8486C173.601 44.666 173.671 44.2729 173.671 43.6831V38.1367C173.671 37.561 173.587 37.1678 173.419 36.9713C173.25 36.7747 172.928 36.6624 172.437 36.6202V36.1709H180.336L181.262 38.6562L180.827 38.8528C180.252 38.1508 179.607 37.6312 178.919 37.2942C178.232 36.9572 177.446 36.7887 176.548 36.7887C176.001 36.7887 175.622 36.887 175.425 37.0836C175.215 37.2802 175.103 37.6312 175.103 38.1367V40.2851H176.043C176.66 40.2851 177.095 40.1727 177.334 39.92C177.572 39.6813 177.726 39.2319 177.811 38.572H178.302V42.6862H177.811C177.741 42.0122 177.586 41.5628 177.334 41.3241C177.095 41.0854 176.66 40.9731 176.043 40.9731H175.103V43.7252C175.103 44.2588 175.215 44.6239 175.453 44.8064C175.678 44.989 176.113 45.0873 176.758 45.0873C177.656 45.0873 178.47 44.8766 179.186 44.4835C179.915 44.0763 180.631 43.4163 181.347 42.5177L181.754 42.7002L180.547 45.6489H172.437Z" fill="#221714"/>
<path d="M184.363 44.9608L184.054 45.6489H183.563L182.665 42.4053L183.198 42.2368C183.661 43.1635 184.237 43.8796 184.924 44.3711C185.598 44.8625 186.355 45.1012 187.183 45.1012C187.885 45.1012 188.46 44.9047 188.937 44.5115C189.4 44.1183 189.639 43.6269 189.639 43.0512C189.639 42.6159 189.499 42.2789 189.232 42.0402C188.965 41.8015 188.376 41.5768 187.478 41.3522C187.338 41.31 187.141 41.2539 186.903 41.1977C185.471 40.8467 184.587 40.5377 184.223 40.3131C183.858 40.0744 183.577 39.7935 183.395 39.4846C183.212 39.1757 183.128 38.8387 183.128 38.4456C183.128 37.7154 183.437 37.1116 184.04 36.6342C184.644 36.1708 185.443 35.9321 186.412 35.9321C186.79 35.9321 187.183 35.9883 187.576 36.1006C187.969 36.213 188.376 36.3815 188.797 36.6061L189.021 36.1428H189.513L190.354 38.6281L189.849 38.7685C189.442 38.0664 188.937 37.5329 188.362 37.1537C187.773 36.7746 187.169 36.578 186.552 36.578C185.934 36.578 185.443 36.7185 185.078 36.9993C184.7 37.2801 184.517 37.6452 184.517 38.0945C184.517 38.7826 185.401 39.3442 187.183 39.7935C187.31 39.8216 187.394 39.8497 187.45 39.8638C187.604 39.9059 187.815 39.962 188.095 40.0182C188.979 40.2288 189.597 40.4535 189.933 40.6782C190.284 40.9169 190.537 41.1977 190.719 41.5487C190.902 41.8998 190.986 42.2789 190.986 42.6861C190.986 43.5426 190.635 44.2728 189.905 44.8625C189.176 45.4663 188.306 45.7612 187.267 45.7612C186.734 45.7612 186.215 45.691 185.752 45.5506C185.275 45.4101 184.812 45.1995 184.349 44.9047" fill="#221714"/>
<path d="M44.7896 1.43213C43.1199 1.43213 41.7588 2.79416 41.7588 4.4651C41.7588 6.13604 43.1199 7.49806 44.7896 7.49806C46.4594 7.49806 47.8205 6.13604 47.8205 4.4651C47.8205 2.79416 46.4594 1.43213 44.7896 1.43213ZM44.7896 7.11894C43.3163 7.11894 42.1236 5.92541 42.1236 4.45105C42.1236 2.9767 43.3163 1.78317 44.7896 1.78317C46.263 1.78317 47.4557 2.9767 47.4557 4.45105C47.4557 5.92541 46.263 7.11894 44.7896 7.11894Z" fill="#157E52"/>
<path d="M43.5264 2.49951H44.6349C45.589 2.49951 46.0661 2.83651 46.0661 3.49646C46.0661 4.05812 45.7995 4.39512 45.2523 4.50745H45.1821L45.2523 4.53553C45.5329 4.60574 45.7294 4.68999 45.8135 4.80232C45.8977 4.91465 46.01 5.18144 46.1503 5.60269L46.3047 6.13626C46.3327 6.22051 46.3608 6.3188 46.4029 6.43114H45.8556C45.8276 6.33285 45.7995 6.26264 45.7714 6.19243L45.6031 5.60269C45.5048 5.26569 45.3786 5.04103 45.2242 4.91465C45.0699 4.78828 44.8173 4.71807 44.4946 4.71807H44.0455V6.41709H43.5264V2.49951ZM44.0455 2.97692V4.28278H44.6068C45.2242 4.28278 45.5329 4.07216 45.5329 3.63687C45.5329 3.20159 45.1961 2.99096 44.5226 2.99096H44.0315L44.0455 2.97692Z" fill="#157E52"/>
</g>
<defs>
<clipPath id="clip0_583_3209">
<rect width="191" height="46" fill="white"/>
</clipPath>
</defs>
</svg>
