<svg width="242" height="46" viewBox="0 0 242 46" fill="none" xmlns="http://www.w3.org/2000/svg">
<g clip-path="url(#clip0_583_2255)">
<path d="M116.566 22.9895H94.2315C93.8969 22.9895 93.625 23.2619 93.625 23.5972V25.4414C93.625 25.7767 93.8969 26.0492 94.2315 26.0492C94.2315 26.0492 102.241 26.0492 102.262 26.0492C102.596 26.0492 102.868 26.3216 102.868 26.6569V45.3922C102.868 45.7275 103.14 46 103.475 46H107.344C107.678 46 107.95 45.7275 107.95 45.3922V26.6569C107.95 26.3216 108.222 26.0492 108.557 26.0492H116.587C116.922 26.0492 117.193 25.7767 117.193 25.4414V23.5972C117.193 23.2619 116.922 22.9895 116.587 22.9895" fill="#3F454B"/>
<path d="M83.9638 32.3153H76.7072C71.8973 32.3153 71.5 31.6866 71.5 29.3604C71.5 26.0073 73.2357 26.3636 78.4847 26.3426C78.5266 26.3426 91.095 26.3426 91.095 26.3426C91.4087 26.3426 91.6806 26.0911 91.6806 25.7768V23.5763C91.6806 23.262 91.4296 23.0105 91.1159 23.0105H76.0798C70.0361 23.0105 66.7528 23.8278 66.7528 29.1718C66.7528 35.2283 69.9315 35.7731 79.0285 35.7731H83.0646C86.7661 35.7731 87.7072 36.2551 87.7072 38.8957C87.7072 41.9763 86.5361 42.4164 82.2699 42.4164H66.941C66.6273 42.4164 66.3555 42.6679 66.3555 42.9823V45.4342C66.3555 45.7485 66.6064 46.021 66.941 46.021H83.441C88.0209 46.021 92.4962 45.5599 92.4962 40.0064V38.0784C92.4962 34.2014 89.7775 32.3362 83.9429 32.3362" fill="#3F454B"/>
<path d="M159.73 36.4648C159.542 36.2342 159.5 36.0456 159.563 35.9199C159.604 35.8151 159.709 35.6894 160.127 35.5427C160.19 35.5427 165.753 34.1176 165.753 29.4443C165.753 27.621 164.54 25.8187 162.407 24.5404C160.002 23.0944 157.032 23.0525 156.656 23.0525C156.447 23.0525 156.133 23.0315 155.715 23.0315C155.715 23.0315 143.167 23.0315 143.146 23.0315C142.77 23.0315 142.456 23.3458 142.456 23.7231C142.456 23.7231 142.456 23.7231 142.456 23.744C142.456 23.744 142.456 23.744 142.456 23.765V45.4133C142.456 45.7486 142.728 46.021 143.063 46.021H146.91C147.245 46.021 147.517 45.7486 147.517 45.4133V26.8666C147.517 26.3217 147.935 26.0912 148.291 26.0912H154.439C155.045 26.0912 156.007 26.1331 156.614 26.175C157.262 26.2379 158.538 26.4265 159.291 26.8037C160.441 27.3695 161.068 28.3335 161.005 29.4443C160.838 32.1686 157.869 32.9859 156.279 33.0488C155.422 33.1117 154.502 33.1117 154.146 33.1117H152.013L160.566 45.3294C160.901 45.8114 161.507 46.0001 162.114 46.0001H167.028C167.028 46.0001 166.568 45.4133 159.751 36.4648" fill="#3F454B"/>
<path d="M189.551 42.7307H174.327C173.992 42.7307 173.72 42.4583 173.72 42.123V23.9954C173.72 23.4505 173.26 22.9895 172.716 22.9895H169.705C169.161 22.9895 168.701 23.4505 168.701 23.9954V44.9941C168.701 45.5389 169.161 46 169.705 46H189.572C189.907 46 190.178 45.7275 190.178 45.3922V43.3385C190.178 43.0032 189.907 42.7307 189.572 42.7307" fill="#3F454B"/>
<path d="M214.06 22.8009H211.028C210.463 22.8009 210.024 23.262 210.024 23.8068V37.6383C210.024 40.656 207.368 42.5421 203.123 42.5421C198.877 42.5421 196.222 40.656 196.222 37.6383V23.8068C196.222 23.262 195.761 22.8009 195.218 22.8009H192.185C191.642 22.8009 191.182 23.262 191.182 23.8068V38.0155C191.182 42.626 196.201 45.979 203.123 45.979C210.045 45.979 215.064 42.626 215.064 38.0155V23.8068C215.064 23.262 214.625 22.8009 214.06 22.8009Z" fill="#3F454B"/>
<path d="M231.899 34.4738C231.794 34.348 231.794 34.0756 231.899 33.9499L240.348 24.1212C240.452 23.9954 240.515 23.8487 240.515 23.6811C240.515 23.3039 240.201 22.9895 239.825 22.9895H236.772C236.102 22.9895 235.35 23.2829 234.994 23.6811L229.076 30.5549C229.076 30.5549 228.867 30.7016 228.741 30.7016C228.616 30.7016 228.49 30.6387 228.407 30.5549L222.488 23.702C222.154 23.3248 221.401 23.0105 220.732 23.0105H217.678C217.302 23.0105 216.988 23.3248 216.988 23.702C216.988 23.8697 217.051 24.0164 217.156 24.1421L225.604 33.9708C225.73 34.0966 225.73 34.369 225.604 34.4947L215.524 46.0209H220.083C221.066 46.0209 221.526 45.7066 221.84 45.3294L228.365 37.743C228.448 37.6382 228.595 37.5544 228.741 37.5544C228.867 37.5544 229.013 37.6173 229.097 37.7221L235.642 45.3503C235.977 45.7485 236.416 46.0419 237.399 46.0419H241.958L231.878 34.5157L231.899 34.4738Z" fill="#3F454B"/>
<path d="M135.889 46H140.176L128.214 23.5134C128.214 23.5134 128.214 23.5134 128.193 23.4925C128.005 23.1991 127.67 22.9895 127.294 22.9895H124.366C123.99 22.9895 123.655 23.1991 123.467 23.4925L111.505 45.979H115.771C116.419 45.979 116.963 45.6228 117.256 45.0779C118.594 42.3535 125.6 28.1658 125.6 28.1658C125.642 28.061 125.746 27.9982 125.851 27.9982C125.955 27.9982 126.039 28.061 126.081 28.1449C126.081 28.1449 133.254 42.7307 134.446 45.1408C134.739 45.6437 135.262 45.979 135.889 45.979" fill="#3F454B"/>
<path d="M24.2786 19.6364L40.3813 3.49977C42.117 1.90706 44.1037 0.670615 46.5714 0H30.4478C30.2596 0 30.0505 0 29.8623 0C29.7786 0 29.674 0 29.5695 0.0209567C29.5067 0.0209567 29.4231 0.0209567 29.3604 0.0209567C28.8585 0.0628702 28.3566 0.146697 27.8547 0.272437C27.8337 0.272437 27.8128 0.272437 27.7919 0.272437C27.6874 0.293394 27.6037 0.314351 27.4991 0.356264C25.9516 0.775399 24.5296 1.48793 23.3166 2.47289C22.982 2.74533 22.6474 3.03872 22.3337 3.33212L2.71777 23.0105H16.1855C19.3432 23.0105 22.2083 21.7112 24.2786 19.6364Z" fill="#94674B"/>
<path d="M22.3551 26.3635L6.35701 42.4164C4.68401 43.9672 2.61366 45.2874 0.0205078 46H16.2068C16.395 46 16.6042 46 16.7924 46C16.8969 46 16.9806 46 17.0851 45.979C17.1479 45.979 17.2315 45.979 17.2943 45.979C17.7962 45.9371 18.2981 45.8533 18.8 45.7275C18.8209 45.7275 18.8418 45.7275 18.8627 45.7275C18.9673 45.7275 19.0509 45.6856 19.1555 45.6647C20.703 45.2455 22.1251 44.512 23.338 43.548C23.6726 43.2756 24.0072 42.9822 24.3209 42.6888L43.9159 23.0524H30.4483C27.2905 23.0524 24.4254 24.3307 22.3551 26.4054" fill="#83744D"/>
<path d="M50.6494 12.6579C50.6494 12.6579 50.6494 12.616 50.6494 12.595C50.6494 12.5321 50.6912 12.4693 50.754 12.4483C52.5525 11.9034 57.6342 11.3795 57.6342 11.3795C57.6342 11.3795 52.5315 11.0442 50.7331 10.4993C50.7331 10.4993 50.6285 10.4155 50.6285 10.3526C50.6285 10.3526 50.6285 10.3107 50.6285 10.2898C50.8376 9.68203 52.4688 7.54444 52.4688 7.54444L49.7502 9.4515C49.7502 9.4515 49.7293 9.4515 49.7084 9.4515C49.6247 9.4515 49.562 9.38863 49.562 9.32576C49.0182 6.62235 48.6418 1.59273 48.6418 1.57178C48.6418 1.61369 48.2863 6.62235 47.7217 9.34672C47.7217 9.34672 47.638 9.47246 47.5753 9.47246H47.5334L44.8148 7.5654C44.8148 7.5654 46.4669 9.68203 46.676 10.2688C46.676 10.2688 46.676 10.3107 46.676 10.3317C46.676 10.3946 46.6342 10.4574 46.5715 10.4784C44.7939 11.0233 39.6494 11.4005 39.6494 11.4005C39.6494 11.4005 44.7521 11.9454 46.5506 12.4902C46.6133 12.5112 46.6551 12.5741 46.6551 12.6369C46.6551 12.6369 46.6551 12.6788 46.6551 12.6998C46.4251 13.3075 44.8148 15.2565 44.8148 15.2565L47.5544 13.58H47.5962C47.6798 13.58 47.7426 13.6428 47.7426 13.7057C48.3072 16.4091 48.6418 21.4387 48.6418 21.4807C48.6418 21.4387 49.0182 16.4301 49.562 13.7057C49.562 13.7057 49.6456 13.58 49.7084 13.58C49.7084 13.58 49.7502 13.58 49.7711 13.58L52.4688 15.2565C52.4688 15.2565 50.8585 13.2866 50.6494 12.6788" fill="#94674B"/>
</g>
<defs>
<clipPath id="clip0_583_2255">
<rect width="242" height="46" fill="white"/>
</clipPath>
</defs>
</svg>
