<svg width="118" height="46" viewBox="0 0 118 46" fill="none" xmlns="http://www.w3.org/2000/svg">
<path d="M117.905 16.3464H45.835V16.5618H117.905V16.3464Z" fill="#D71718"/>
<path d="M117.977 27.9541H45.835V28.1695H117.977V27.9541Z" fill="#D71718"/>
<path fill-rule="evenodd" clip-rule="evenodd" d="M15.7078 28.1457C21.7236 25.9677 24.9702 23.8616 27.8587 21.4683C31.3202 18.5963 34.161 14.7669 36.7153 8.68783C38.1953 5.14568 39.2696 0 39.2696 0C39.3173 0.335068 39.4128 2.82414 38.7205 6.55775C36.9063 16.3465 32.8719 22.5692 28.6465 25.9917C23.8959 29.821 18.6918 31.0656 14.3948 32.1426C8.9281 33.4828 4.96532 34.8949 3.22266 36.1873C6.85122 32.1665 8.66551 30.7305 15.7078 28.1696" fill="#D71718"/>
<path fill-rule="evenodd" clip-rule="evenodd" d="M29.3386 31.1134C25.0893 33.8897 18.5961 34.2726 16.376 34.2248C24.8028 31.4246 29.4102 28.0021 31.9645 24.9865C34.6143 21.8273 36.357 18.9552 38.1235 12.924C38.7919 10.6982 39.341 7.68262 39.341 7.68262C39.341 9.88449 38.9829 15.078 37.8132 18.6202C35.5692 25.4891 33.1103 28.6722 29.3624 31.1374" fill="#D71718"/>
<path fill-rule="evenodd" clip-rule="evenodd" d="M36.4764 29.0072C33.3491 34.0333 27.596 34.2247 26.4023 34.2247C30.007 32.7408 34.2563 30.18 36.8822 24.3163C38.0042 21.8033 38.8159 18.6201 39.3172 15.4849C39.2933 16.9927 39.9617 22.9521 36.4764 28.9833" fill="#D71718"/>
<path fill-rule="evenodd" clip-rule="evenodd" d="M13.1774 40.0645C14.562 39.7055 15.684 40.1124 15.9466 40.3278C15.7317 40.2799 15.3498 40.2321 14.944 40.2799C13.822 40.3996 13.2968 40.9261 13.2968 41.692C13.2968 42.2903 14.0129 42.8887 14.8962 43.0083C15.7795 43.128 16.6866 42.9605 17.2596 42.3861C17.6415 42.0031 18.119 41.0697 17.2596 39.9688C16.6389 39.1551 15.3259 38.3653 13.4639 37.7909C10.9096 37.025 6.87518 36.6181 1.98139 36.7378L0 36.9293C0 36.9293 0.143233 36.9053 1.76654 36.5224C2.53045 36.3549 5.60995 35.3257 11.7451 35.589C18.0235 35.8523 21.103 37.8627 22.1056 40.256C22.965 42.3382 21.7236 45.0666 18.2383 45.8086C16.4956 46.1915 14.1323 45.9761 12.7716 45.1624C11.3393 44.3247 10.9334 43.3913 10.9812 42.4818C11.0051 41.692 11.6496 40.4953 13.249 40.0885" fill="#D71718"/>
<path fill-rule="evenodd" clip-rule="evenodd" d="M88.8046 33.0519H87.2529V33.0998L85.6535 38.9396C84.9373 41.5962 83.3379 43.5108 83.3379 43.5348V43.5826L84.3644 44.5639L84.4121 44.4921C84.4121 44.4921 84.8418 43.9177 85.2715 43.0561C85.7251 42.1945 86.6561 39.8969 87.0619 38.413L88.2078 34.2007H90.4279L88.351 41.8116C88.1601 42.5056 88.0884 42.6014 87.611 42.8886C87.1097 43.1758 86.6322 43.2954 86.6322 43.2954H86.5606L86.9187 44.3724H86.9665C86.9665 44.3724 87.611 44.2049 88.4465 43.798C89.2343 43.4151 89.3059 43.08 89.4492 42.5056L89.5208 42.2663L92.0035 33.0759V33.028H91.9557H90.3563L90.8815 31.9271V31.8792H90.8576L89.473 31.7356H89.4253V31.7835L88.8046 33.0519Z" fill="#D71718"/>
<path fill-rule="evenodd" clip-rule="evenodd" d="M91.7164 37.3362H85.0084H84.9367V37.384L84.6264 38.485L84.6025 38.5329H84.6742H91.4061H91.4538V38.485L91.7642 37.384L91.788 37.3362H91.7164Z" fill="#D71718"/>
<path fill-rule="evenodd" clip-rule="evenodd" d="M89.4725 34.7273L88.3743 34.9906L88.3266 35.0145V35.0624L88.3027 36.7138V36.7616H88.3743L89.4725 36.5223L89.5202 36.4984V36.4505V34.7752V34.7273H89.4725Z" fill="#D71718"/>
<path fill-rule="evenodd" clip-rule="evenodd" d="M88.3035 38.8918L87.2054 39.1551H87.1338V39.203V40.8783V40.9262H87.1815L88.2797 40.6629H88.3274V40.615L88.3513 38.9397V38.8918H88.3035Z" fill="#D71718"/>
<path fill-rule="evenodd" clip-rule="evenodd" d="M99.7382 33.77H92.2662H92.2184L92.1946 33.8179L91.8842 34.9906L91.8604 35.0385H91.932H99.4039H99.4517L99.4756 34.9906L99.7859 33.8179V33.77H99.7382Z" fill="#D71718"/>
<path fill-rule="evenodd" clip-rule="evenodd" d="M96.2286 31.5203L94.9872 32.0468L94.9395 32.0707V32.1186L95.3692 33.7939V33.8418L95.4169 33.8179L96.6583 33.3153L96.706 33.2913V33.2435L96.3002 31.5442L96.2763 31.4963L96.2286 31.5203Z" fill="#D71718"/>
<path fill-rule="evenodd" clip-rule="evenodd" d="M95.8703 41.5963L96.1806 40.4475L96.4193 39.5619L97.3742 35.9959V35.948H97.3265H93.2443V35.9959C93.2443 35.9959 92.743 37.8387 92.4566 38.9397C92.1462 40.0885 91.8836 40.9261 91.072 41.9792C90.2842 43.0084 89.6396 43.511 89.6396 43.511L90.7378 44.2529C90.7378 44.2529 90.6662 44.4204 92.4088 42.1707C93.1489 41.2133 93.4592 40.0885 93.6979 39.179L94.1992 37.2643H95.7032L94.5096 41.6681L94.1037 43.128C93.9605 43.6785 94.2947 44.1332 94.8676 44.1332H96.3238C96.7058 44.1332 97.1116 43.7742 97.5413 43.1041C98.0188 42.3143 98.1859 41.6202 98.1859 41.6202V41.5723L97.2071 40.7107L97.1355 40.6629V40.7586C97.1355 40.7586 96.849 41.6681 96.5626 42.2904C96.2761 42.8887 96.2045 42.9844 96.0851 42.9844H95.6077C95.6077 42.9844 95.7032 42.2425 95.8464 41.6681" fill="#D71718"/>
<path fill-rule="evenodd" clip-rule="evenodd" d="M106.351 33.1716H104.99L104.25 35.9479H105.611L106.351 33.1716Z" fill="#D71718"/>
<path fill-rule="evenodd" clip-rule="evenodd" d="M116.401 34.2726H104.799L105.085 33.1716H116.687L116.401 34.2726Z" fill="#D71718"/>
<path fill-rule="evenodd" clip-rule="evenodd" d="M116.042 35.613H114.682L115.302 33.3633H116.639L116.042 35.613Z" fill="#D71718"/>
<path fill-rule="evenodd" clip-rule="evenodd" d="M108.403 35.1104L109.477 35.8762L104.369 38.9636L103.748 37.7191C103.748 37.7191 104.679 37.384 105.944 36.6182C107.21 35.8523 108.379 35.1104 108.379 35.1104" fill="#D71718"/>
<path fill-rule="evenodd" clip-rule="evenodd" d="M110.839 36.1395L114.085 38.7961L114.109 38.82L114.157 38.7961L115.565 37.5755L115.637 37.5516L115.589 37.5037L112.247 35.0864L112.223 35.0625L112.176 35.0864L110.863 36.0677L110.791 36.1156L110.839 36.1395Z" fill="#D71718"/>
<path fill-rule="evenodd" clip-rule="evenodd" d="M113.44 38.5806H105.491H105.443L105.419 38.6284L105.109 39.7533L105.085 39.8012H105.157H113.106H113.154L113.178 39.7533L113.488 38.6284L113.512 38.5806H113.44Z" fill="#D71718"/>
<path fill-rule="evenodd" clip-rule="evenodd" d="M113.989 42.8169H102.984H102.912V42.8648L102.602 43.9896L102.578 44.0375H102.65H113.655H113.703L113.726 43.9896L114.013 42.8648L114.037 42.8169H113.989Z" fill="#D71718"/>
<path fill-rule="evenodd" clip-rule="evenodd" d="M109.955 39.7056H108.666H108.618L108.594 39.7774L107.759 42.8169V42.8648H107.807H109.096H109.143L109.167 42.8169L109.979 39.7774L110.003 39.7056H109.955Z" fill="#D71718"/>
<path fill-rule="evenodd" clip-rule="evenodd" d="M111.865 33.1957L110.457 33.8897L109.884 31.9751L111.292 31.281L111.865 33.1957Z" fill="#D71718"/>
<path d="M74.1708 44.3247L74.2663 42.9605H75.7941C76.5103 42.9605 76.8922 42.7211 77.0832 42.0271C77.2503 41.5963 77.4651 40.7825 77.7755 39.6337H74.123L75.9851 32.693H77.298C77.5368 32.2622 77.7277 31.8314 77.9187 31.4246L79.3033 31.5921C79.0885 31.9511 78.8736 32.3101 78.6349 32.693H80.664C80.2343 34.2487 79.924 35.3736 79.7091 36.0676C79.4465 37.1925 78.7781 37.743 77.7516 37.6951C77.5129 37.719 77.1309 37.743 76.5819 37.743C76.6535 37.3361 76.6774 36.9532 76.6774 36.5942H77.7755C78.2052 36.5942 78.4916 36.3788 78.611 35.948C78.6588 35.8044 78.7304 35.4932 78.8497 35.0146C79.0407 34.4402 79.1601 34.0572 79.2078 33.8658H76.8683L75.6509 38.3892H79.4704C79.2078 39.3704 78.8259 40.615 78.3484 42.1467C77.9903 43.6067 77.1548 44.3007 75.818 44.2768H74.2424L74.1708 44.3247Z" fill="#D71718"/>
<path d="M77.3455 36.0677C77.2739 35.8762 77.1784 35.613 77.0113 35.254C76.9158 35.0386 76.8681 34.871 76.8203 34.7753L77.7513 34.3445C77.9662 34.7514 78.181 35.1582 78.3481 35.5412L77.3216 36.0916L77.3455 36.0677Z" fill="#D71718"/>
<path d="M70.4944 43.4631C70.4944 43.4631 71.3538 43.1998 71.5925 42.41L72.2132 40.1603H71.2822C70.8764 41.692 70.1363 43.0801 69.2053 44.4683L68.4414 43.7742C69.2292 42.7211 69.7066 42.0749 70.7809 38.1977L72.4042 32.1426H75.4121L72.5235 42.9605C72.3564 43.5827 71.9984 43.9178 70.8525 44.3965M73.0965 33.3871L72.5235 35.5172H73.4546L74.0275 33.3871H73.0965ZM71.8074 38.1977L71.6164 38.9157H72.5474L73.1203 36.7857H72.1893L71.8074 38.1977Z" fill="#D71718"/>
<path d="M66.6511 43.4631C66.6511 43.4631 67.5344 43.1998 67.7492 42.41L68.3699 40.1603H67.4389C67.0331 41.692 66.293 43.0801 65.3381 44.4683L64.5742 43.7742C65.362 42.7211 65.8394 42.0749 66.9137 38.1977L68.537 32.1426H71.5449L68.6564 42.9605C68.4893 43.5827 68.1312 43.9178 66.9853 44.3965M69.277 33.3871L68.7041 35.5172H69.6351L70.208 33.3871H69.277ZM67.9879 38.1977L67.797 38.9157H68.728L69.3009 36.7857H68.3699L67.9879 38.1977Z" fill="#D71718"/>
<path d="M73.2393 41.8595L73.5496 40.6389H76.9394L76.6052 41.8595H73.2393Z" fill="#D71718"/>
<path d="M60.8977 36.9053C60.6112 36.7856 60.2054 36.642 59.728 36.4266L59.2983 36.2112L59.0834 37.025H56.0039L55.5981 38.5088H60.0861L59.7518 39.7534H55.2639L54.4522 42.7929H59.728L59.3938 44.0375H47.0996L47.4338 42.7929H52.7334L53.5451 39.7534H49.0094L49.3436 38.5088H53.8793L54.2613 37.025H51.0863L51.3011 36.2591C50.7282 36.5224 50.1075 36.7856 49.4152 37.0728C49.3675 36.9532 49.1049 36.0198 48.9139 35.565C52.1366 34.512 54.5477 33.1478 56.0994 31.4485L57.9376 31.616L57.484 32.0947C58.4627 33.6504 60.0144 34.7274 62.1152 35.3496C61.5423 36.0437 61.1364 36.5702 60.8977 36.9292M50.394 42.6733L50.1552 42.1946C49.821 41.5723 49.5584 41.0937 49.3675 40.7346L50.752 39.9688C50.8714 40.1842 51.0385 40.4474 51.2295 40.7825C51.516 41.2851 51.7547 41.6681 51.8979 41.9313L50.394 42.6733ZM56.2665 33.2196C55.0968 34.2008 53.8077 35.0385 52.3515 35.7565H58.6537C57.6511 35.0624 56.8394 34.2248 56.2665 33.2196ZM56.7201 42.6733L55.6697 41.9313C56.4097 41.2851 57.1498 40.6389 57.8659 39.9927L58.9641 40.6868C58.3673 41.2612 57.6272 41.9313 56.6962 42.6733" fill="#D71718"/>
<path fill-rule="evenodd" clip-rule="evenodd" d="M71.0433 24.388L70.5898 26.0873H69.2529L70.3749 21.899H71.7118L71.5208 22.6409C71.9027 22.1383 72.595 21.7793 73.2157 21.7554L72.8815 23.0238C72.046 23.0478 71.2582 23.5982 71.0672 24.388" fill="#D71718"/>
<path fill-rule="evenodd" clip-rule="evenodd" d="M67.2717 25.9199V25.6087L67.3194 25.4651L67.2001 25.5608C66.7704 25.872 66.2691 26.0395 65.6006 26.0395C64.6696 26.0395 64.1206 25.5609 64.2638 24.8428C64.4786 23.9094 65.4097 23.6222 65.8632 23.5265C66.1019 23.4786 66.5555 23.4068 67.1046 23.359L67.5343 23.2632L67.8446 22.9282C67.9162 22.617 67.773 22.3538 67.2478 22.3538C66.7226 22.3538 66.4123 22.5931 66.2929 22.9282H65.0993C65.4574 21.8272 66.5555 21.54 67.5343 21.54C68.704 21.54 69.4202 22.0187 69.1098 23.1675L68.4892 25.513L68.4414 25.7763V25.8959H67.2956L67.2717 25.9199ZM66.8181 24.0291L66.46 24.1009L66.1258 24.2206C65.911 24.3163 65.72 24.4838 65.6484 24.771C65.5768 25.1061 65.7916 25.2736 66.2691 25.2736C66.8659 25.2736 67.391 24.8907 67.5343 24.3642L67.6775 23.8137L67.582 23.8616C67.3194 23.9573 67.0568 24.0052 66.8181 24.053" fill="#D71718"/>
<path fill-rule="evenodd" clip-rule="evenodd" d="M80.6877 25.9198V25.6087L80.7354 25.489L80.6161 25.5848C80.1864 25.8959 79.6851 26.0874 79.0167 26.0874C78.0856 26.0874 77.5366 25.6087 77.6798 24.8907C77.8947 23.9573 78.8257 23.6701 79.2792 23.5744C79.518 23.5265 79.9715 23.4547 80.5206 23.4068L80.9503 23.3111L81.2606 22.976C81.3322 22.6649 81.189 22.4016 80.6638 22.4016C80.1625 22.4016 79.8283 22.641 79.7089 22.976H78.5153C78.8734 21.8751 79.9715 21.5879 80.9503 21.5879C82.12 21.5879 82.8362 22.0666 82.5259 23.2154L81.9052 25.5608L81.8574 25.8241V25.9438H80.7116L80.6877 25.9198ZM80.2341 24.0291L79.8761 24.1009L79.5418 24.2206C79.327 24.3163 79.136 24.4838 79.0644 24.771C78.9928 25.1061 79.2076 25.2736 79.6851 25.2736C80.2819 25.2736 80.8071 24.8668 80.9503 24.3642L81.0935 23.8137L80.998 23.8616C80.7354 23.9573 80.4728 24.0052 80.2341 24.053" fill="#D71718"/>
<path fill-rule="evenodd" clip-rule="evenodd" d="M75.0783 21.899L74.9828 22.4494L75.1022 22.3298C75.4125 22.0665 75.9377 21.7554 76.5106 21.7554C77.4655 21.7554 77.8475 22.4494 77.6565 23.1674L76.8687 26.0873H75.5557L76.248 23.5025C76.3674 23.0956 76.2003 22.7127 75.7228 22.7127C75.2454 22.7127 74.8634 23.0717 74.768 23.4786L74.0757 26.0873H72.7627L73.8847 21.899H75.0783Z" fill="#D71718"/>
<path d="M90.9294 26.0875H89.521L89.3539 24.6515H86.7995L85.8685 26.0875H84.5078L88.7571 19.793H90.1178L90.9294 26.0875ZM89.2584 23.5984L89.0196 21.2768L87.5157 23.5984H89.2584Z" fill="#D71718"/>
<path d="M91.6211 26.0875L92.8863 21.5401H94.1038L92.8386 26.0875H91.6211ZM93.0534 20.9178L93.3638 19.793H94.5812L94.2709 20.9178H93.0534Z" fill="#D71718"/>
<path d="M95.2741 26.0874H94.0566L95.3219 21.5401H96.4677L96.2768 22.1863C96.5632 21.8751 96.7781 21.6837 96.969 21.5879L97.542 21.4443C97.8284 21.4443 98.0672 21.5161 98.282 21.6597L97.6136 22.7128L97.0884 22.5213L96.611 22.6649C96.4677 22.7607 96.3245 22.9282 96.1813 23.1675C96.038 23.4069 95.8709 23.9095 95.6561 24.6993L95.2741 26.1113V26.0874Z" fill="#D71718"/>
<path d="M97.5654 26.0875L99.3081 19.793H100.549L98.7829 26.0875H97.5654Z" fill="#D71718"/>
<path d="M100.048 26.0875L101.313 21.5401H102.531L101.265 26.0875H100.048ZM101.48 20.9178L101.791 19.793H103.008L102.698 20.9178H101.48Z" fill="#D71718"/>
<path d="M106.733 26.0874H105.515L106.16 23.7659C106.303 23.2633 106.351 22.9521 106.351 22.8085L106.184 22.4735L105.802 22.3538L105.181 22.5213L104.704 22.9761C104.584 23.1675 104.465 23.5026 104.322 24.0291L103.749 26.0874H102.531L103.796 21.5401H104.942L104.751 22.2102C105.3 21.6837 105.873 21.4443 106.494 21.4443C106.757 21.4443 106.995 21.4922 107.186 21.5879L107.592 21.9469L107.688 22.4495C107.688 22.641 107.616 22.9043 107.521 23.2633L106.733 26.0874Z" fill="#D71718"/>
<path d="M111.053 24.5318L112.223 24.7233C111.937 25.1541 111.603 25.4891 111.197 25.7285C110.791 25.9678 110.337 26.0635 109.836 26.0635C109.024 26.0635 108.499 25.8003 108.26 25.2977C108.069 24.8908 108.069 24.3643 108.26 23.7181C108.475 22.9761 108.833 22.3778 109.359 21.947C109.884 21.5162 110.433 21.3008 111.053 21.3008C111.746 21.3008 112.223 21.5162 112.51 21.9709C112.772 22.4257 112.772 23.0958 112.51 24.0292H109.43C109.335 24.3882 109.359 24.6754 109.502 24.8669C109.645 25.0583 109.836 25.1541 110.122 25.1541L110.648 24.9865C110.815 24.8908 110.958 24.7233 111.077 24.4839M111.483 23.3112C111.579 22.9522 111.555 22.6889 111.435 22.5214C111.316 22.3299 111.125 22.2581 110.886 22.2581C110.624 22.2581 110.361 22.3539 110.146 22.5453C109.908 22.7368 109.764 23.0001 109.669 23.3351H111.507L111.483 23.3112Z" fill="#D71718"/>
<path d="M112.987 24.6754L114.276 24.4839C114.276 24.7233 114.323 24.8908 114.443 25.0105C114.562 25.1301 114.777 25.2019 115.064 25.2019C115.374 25.2019 115.636 25.1541 115.827 25.0344L116.066 24.7233V24.4839L115.684 24.3164C114.753 24.101 114.18 23.9095 113.965 23.7181C113.679 23.4787 113.583 23.1197 113.703 22.6889C113.822 22.306 114.061 21.9709 114.467 21.6837C114.849 21.4205 115.398 21.2769 116.042 21.2769C116.687 21.2769 117.117 21.3726 117.379 21.588C117.642 21.7795 117.761 22.0906 117.761 22.4975L116.544 22.7129L116.376 22.306C116.376 22.306 116.09 22.1624 115.827 22.1624C115.493 22.1624 115.254 22.2103 115.087 22.2821L114.873 22.5214L114.92 22.7368C114.92 22.7368 115.35 22.9283 115.971 23.0719C116.591 23.2155 116.997 23.4069 117.188 23.5984C117.379 23.8138 117.427 24.101 117.331 24.4839C117.212 24.8908 116.949 25.2498 116.496 25.5609C116.066 25.8721 115.493 26.0157 114.801 26.0157C114.18 26.0157 113.703 25.896 113.416 25.6327C113.13 25.3695 112.963 25.0344 112.987 24.6036" fill="#D71718"/>
<path d="M56.0999 25.7523V25.5369C55.7896 25.8959 55.2883 26.0873 54.6676 26.0873C53.6888 26.0873 53.3069 25.6326 53.5456 24.771L54.4527 21.6836H55.7418L54.9302 24.4599C54.7392 25.0343 54.9302 25.3215 55.4554 25.2975C55.9567 25.2975 56.2909 25.0103 56.458 24.4599L57.2696 21.6836H58.5587L57.4845 25.3933C57.4845 25.3933 57.4129 25.7044 57.3413 25.9677H56.076V25.7523" fill="#D71718"/>
<path d="M60.4923 22.3538C60.9936 21.9708 61.7814 21.6357 62.3543 21.6118C63.8582 21.6597 64.4073 22.4256 64.0015 23.8855C63.4763 25.2736 62.4975 26.0156 61.0652 26.0874C60.3968 26.1352 59.9193 25.7284 59.6806 25.2497L59.0122 27.5952H57.6992L59.1077 22.5931C59.2032 22.3059 59.2987 22.0187 59.3464 21.7315H60.6594L60.4923 22.3538ZM60.8742 25.2497C61.5904 25.2497 62.1156 24.795 62.4259 23.8616C62.7124 22.976 62.4975 22.5213 61.8052 22.4734C61.0652 22.5213 60.54 22.976 60.2297 23.8616C59.9671 24.771 60.1819 25.2258 60.8981 25.2497" fill="#D71718"/>
<path d="M50.0601 25.178C50.8479 25.178 51.3014 24.8908 51.4447 24.3403C51.6356 23.9574 51.2537 23.6463 50.2988 23.4548C49.0575 23.1915 48.58 22.5693 48.8665 21.6119C49.2007 20.3913 50.1794 19.7691 51.8266 19.7451C53.1635 19.7451 53.6887 20.3913 53.3783 21.6119H52.1608C52.3041 21.0136 52.0415 20.7025 51.4208 20.7025C50.824 20.7503 50.442 21.0615 50.2511 21.6119C50.1078 22.0188 50.3943 22.2821 51.1105 22.4017C52.6383 22.6889 53.2112 23.3351 52.8054 24.3403C52.5667 25.537 51.564 26.1114 49.7975 26.0875C48.2458 26.0875 47.6729 25.4173 48.0548 24.0292H49.3439C49.1291 24.819 49.3678 25.2019 50.0601 25.178Z" fill="#D71718"/>
</svg>
