<svg width="123" height="46" viewBox="0 0 123 46" fill="none" xmlns="http://www.w3.org/2000/svg">
<g clip-path="url(#clip0_583_2643)">
<path fill-rule="evenodd" clip-rule="evenodd" d="M45.6822 22.9963C45.6822 35.6959 35.4566 46 22.8447 46C10.2329 46 0 35.7033 0 22.9963C0 10.2894 10.2256 0 22.8447 0C35.4639 0 45.6822 10.2967 45.6822 22.9963Z" fill="#D71618"/>
<path fill-rule="evenodd" clip-rule="evenodd" d="M37.9085 9.15433C34.2487 6.781 30.0398 5.98497 26.3434 6.51565C22.7421 7.0316 18.7236 10.1715 18.7236 14.4685C18.7236 17.0188 16.6082 18.8541 14.0976 18.8541C10.672 18.8541 8.84203 16.1417 5.67261 16.1417C3.19855 16.1417 1.6541 17.3357 0.819657 18.0949C0.636664 18.257 0.548828 18.4192 0.548828 18.5813C0.548828 18.7435 0.687902 18.9425 0.892853 19.0162C2.40803 19.5469 4.30383 20.3577 6.56561 21.9571C9.48616 24.0282 11.521 26.1657 13.2558 28.6201C20.3047 38.6368 31.4891 38.1282 35.3173 36.5656C39.2919 34.9441 42.3955 31.7674 43.8301 28.2516C43.9326 27.9936 43.5813 27.8167 43.4202 28.0673C42.981 28.7675 40.7485 31.7674 36.5983 31.7674C32.0088 31.7674 28.3344 28.0084 28.3344 23.4975C28.3344 19.6575 31.2183 15.2425 36.8106 15.2425C41.5098 15.2425 45.5722 19.311 45.6454 23.9103C45.682 16.5692 41.5244 11.5056 37.9158 9.1617" fill="#F4E127"/>
<path d="M74.1115 34.4723C74.1481 34.4649 74.2066 34.4502 74.2725 34.4502C74.4189 34.4502 74.5214 34.4944 74.5799 34.5755C74.6458 34.6566 74.6531 34.804 74.6019 35.0104C74.536 35.2536 74.4043 35.4452 74.192 35.5779C74.0236 35.6811 73.848 35.7769 73.6796 35.8727C73.5845 35.8506 73.4966 35.8138 73.4015 35.7843C73.3063 35.7179 73.2917 35.5926 73.3136 35.401C73.3868 35.1504 73.482 34.944 73.621 34.7892C73.7674 34.6271 73.9358 34.5239 74.1115 34.4649" fill="#D71618"/>
<path d="M59.7141 34.9147C59.8385 34.782 59.9922 34.6715 60.1606 34.5756C60.3362 34.4798 60.4973 34.4282 60.6437 34.4282C60.7754 34.4282 60.8706 34.4724 60.9291 34.5535C60.9877 34.6272 60.995 34.7746 60.9731 34.9736C60.9291 35.2169 60.8193 35.438 60.6437 35.637C60.5266 35.777 60.3655 35.9245 60.1459 36.0866C60.0654 36.1529 59.9922 36.1824 59.919 36.1824C59.8751 36.1824 59.7946 36.1603 59.6921 36.1161C59.6043 36.0571 59.5457 36.0276 59.5238 36.0203C59.5164 35.7697 59.5238 35.5043 59.5238 35.239C59.553 35.1211 59.6189 35.0179 59.7141 34.9147Z" fill="#D71618"/>
<path d="M58.9233 38.0177C58.9233 38.0177 59.0184 38.0324 59.1209 38.0177C59.2234 38.0103 59.2966 38.0029 59.2966 38.0029C59.421 38.0029 59.4503 38.1135 59.3844 38.3199C59.2673 38.5041 59.1648 38.7031 59.0916 38.9243C59.0477 39.0569 59.0038 39.2338 58.9526 39.4476C58.8501 39.934 58.7696 40.2583 58.7183 40.4131C58.7256 40.59 58.7842 40.7153 58.872 40.8038C58.9745 40.8848 59.0916 40.9438 59.238 40.9512C59.4576 40.9659 59.6845 40.8848 59.9041 40.7301L59.992 40.6416C59.992 40.7522 59.97 40.8554 59.9407 40.9512C59.8675 41.1723 59.7284 41.3639 59.5381 41.5261C59.3551 41.6809 59.1648 41.7693 58.9965 41.7914C58.8135 41.8946 58.6598 41.9462 58.4987 41.9388C58.345 41.9315 58.184 41.8651 58.0083 41.7472C57.9058 41.6882 57.8253 41.6219 57.7375 41.5556C57.5618 41.3713 57.5106 41.0544 57.5765 40.6048C57.6277 40.2952 57.7302 39.8824 57.8912 39.3886C57.9644 39.1749 58.0083 39.0201 58.0449 38.9169C58.206 38.681 58.3377 38.4968 58.4475 38.3862C58.6012 38.2167 58.7622 38.0914 58.9233 38.0177Z" fill="#D71618"/>
<path d="M65.8996 38.106C66.0387 38.0471 66.1777 38.0176 66.2875 38.0176C66.5144 38.0176 66.6901 38.1502 66.7926 38.4082C66.8804 38.6515 66.917 38.9684 66.8951 39.3664C66.9024 39.4033 66.8951 39.4991 66.8658 39.6686C66.8292 39.8307 66.8438 39.9339 66.9024 39.9782C67.0268 39.8823 67.4001 39.4843 68.0077 38.7841C68.4468 38.2829 68.8201 38.0323 69.1276 38.0323C69.2008 38.0323 69.2813 38.0471 69.3252 38.0618C69.3472 38.0839 69.5887 38.7915 70.0498 40.1845C70.2328 40.6857 70.4597 40.9437 70.7672 40.9437C70.877 40.9437 71.016 40.9142 71.1917 40.8405C71.1917 40.929 71.1917 41.0174 71.1624 41.0838C71.1258 41.2533 71.016 41.4081 70.8696 41.5555C70.7452 41.6587 70.6061 41.7545 70.4378 41.8282C70.3646 41.865 70.2475 41.8945 70.123 41.924C69.9986 41.9461 69.9035 41.9609 69.8376 41.9609C69.5448 41.9609 69.2959 41.8356 69.0763 41.585C68.8933 41.3712 68.725 41.0469 68.5639 40.6268C68.5273 40.2435 68.4981 39.956 68.4761 39.757C68.4395 39.3811 68.3151 39.1969 68.1028 39.1969C67.81 39.477 67.5026 39.8971 67.1659 40.472C66.9024 40.9511 66.6315 41.4154 66.3754 41.8945C66.3388 41.8945 66.2729 41.9019 66.1777 41.9019C66.024 41.9019 65.8996 41.865 65.7825 41.7766C65.6873 41.7029 65.6361 41.5628 65.6507 41.3565C65.6727 41.2164 65.7532 40.811 65.8996 40.1624C66.046 39.5064 66.0753 39.02 66.0021 38.703L65.3799 38.7325C65.4311 38.5851 65.497 38.4746 65.5775 38.3787C65.6287 38.3271 65.7312 38.2387 65.8849 38.1208" fill="#D71618"/>
<path d="M74.1115 34.4723C74.1481 34.4649 74.2066 34.4502 74.2725 34.4502C74.4189 34.4502 74.5214 34.4944 74.5799 34.5755C74.6458 34.6566 74.6531 34.804 74.6019 35.0104C74.536 35.2536 74.4043 35.4452 74.192 35.5779C74.0236 35.6811 73.848 35.7769 73.6796 35.8727C73.5845 35.8506 73.4966 35.8138 73.4015 35.7843C73.3063 35.7179 73.2917 35.5926 73.3136 35.401C73.3868 35.1504 73.482 34.944 73.621 34.7892C73.7674 34.6271 73.9358 34.5239 74.1115 34.4649" fill="#D71618"/>
<path d="M74.1779 35.0252C74.0754 35.0473 73.9729 35.062 73.8778 35.0694C73.7533 35.1136 73.6728 35.2168 73.6289 35.3642C73.7387 35.379 73.8485 35.3642 73.9437 35.32C74.0388 35.2684 74.1193 35.1652 74.1706 35.0178" fill="#D71618"/>
<path d="M75.934 34.9147C76.0584 34.782 76.2121 34.6715 76.3731 34.5756C76.5561 34.4798 76.7172 34.4282 76.8636 34.4282C76.9953 34.4282 77.0905 34.4724 77.1417 34.5535C77.2076 34.6272 77.2149 34.7746 77.1929 34.9736C77.1417 35.2169 77.0392 35.438 76.8636 35.637C76.7464 35.777 76.5854 35.9245 76.3585 36.0866C76.2853 36.1529 76.2194 36.1824 76.1389 36.1824C76.0877 36.1824 76.0145 36.1603 75.912 36.1161C75.8242 36.0571 75.7656 36.0276 75.7363 36.0203C75.7363 35.7697 75.7363 35.5043 75.7436 35.239C75.7729 35.1211 75.8388 35.0179 75.934 34.9147Z" fill="#D71618"/>
<path d="M75.6192 38.0176C75.6192 38.0176 75.7144 38.025 75.8169 38.0029C75.9193 37.9808 75.9852 37.9734 75.9852 37.9734C76.1097 37.9734 76.1463 38.0766 76.0877 38.2903C75.9706 38.482 75.8827 38.6883 75.8315 38.9095C75.7949 39.0495 75.7583 39.219 75.7217 39.4475C75.6485 39.9413 75.5826 40.2583 75.5387 40.4204C75.568 40.59 75.6266 40.7153 75.7217 40.8037C75.8315 40.8848 75.9486 40.9216 76.1023 40.9216C76.3219 40.9216 76.5342 40.8406 76.7538 40.6637L76.827 40.5678C76.8343 40.6784 76.827 40.7816 76.7977 40.8774C76.7318 41.1059 76.6147 41.3049 76.4317 41.4818C76.2487 41.6366 76.0804 41.7398 75.8974 41.7766C75.7364 41.8946 75.5753 41.9535 75.4216 41.9535C75.2679 41.9535 75.0922 41.8946 74.9165 41.7914C74.8141 41.7398 74.7262 41.6808 74.6311 41.6145C74.4481 41.4376 74.3749 41.128 74.4115 40.6784C74.4408 40.3615 74.5213 39.9487 74.653 39.4475C74.7189 39.2264 74.7555 39.0642 74.7848 38.9684C74.9312 38.7104 75.0556 38.5262 75.1435 38.4083C75.2899 38.2314 75.4436 38.0987 75.6046 38.0176" fill="#D71618"/>
<path d="M78.2546 38.106C78.401 38.0471 78.5327 38.0176 78.6425 38.0176C78.884 38.0176 79.0524 38.1502 79.1476 38.4082C79.2354 38.6515 79.2793 38.9684 79.2574 39.3664C79.2574 39.4033 79.25 39.4991 79.2208 39.6686C79.1915 39.8307 79.1988 39.9339 79.2574 39.9782C79.3818 39.8823 79.7478 39.4843 80.3626 38.7841C80.8018 38.2829 81.1751 38.0323 81.4825 38.0323C81.5704 38.0323 81.6362 38.0471 81.6875 38.0618C81.7021 38.0839 81.9437 38.7915 82.4195 40.1845C82.5878 40.6857 82.822 40.9437 83.1295 40.9437C83.2319 40.9437 83.3783 40.9142 83.5467 40.8405C83.554 40.929 83.5467 41.0174 83.5247 41.0838C83.4735 41.2533 83.3783 41.4081 83.2173 41.5555C83.0929 41.6587 82.9538 41.7545 82.7854 41.8282C82.7122 41.865 82.6024 41.8945 82.4707 41.924C82.3463 41.9461 82.2511 41.9609 82.1852 41.9609C81.8998 41.9609 81.6509 41.8356 81.4313 41.585C81.2483 41.3712 81.0726 41.0469 80.9262 40.6268C80.8896 40.2435 80.8604 39.956 80.8384 39.757C80.7872 39.3811 80.67 39.1969 80.4578 39.1969C80.165 39.477 79.8576 39.8971 79.5282 40.472C79.2574 40.9511 78.9938 41.4154 78.723 41.8945C78.6864 41.8945 78.6205 41.9019 78.5327 41.9019C78.379 41.9019 78.2472 41.865 78.1374 41.7766C78.035 41.7029 77.9837 41.5628 77.9984 41.3565C78.0276 41.2164 78.1008 40.811 78.2472 40.1624C78.3936 39.5064 78.4302 39.02 78.3497 38.703L77.7275 38.7325C77.7788 38.5851 77.8447 38.4746 77.9325 38.3787C77.9764 38.3271 78.0789 38.2387 78.2326 38.1208" fill="#D71618"/>
<path d="M96.993 34.9147C97.1248 34.782 97.2712 34.6715 97.4395 34.5756C97.6225 34.4798 97.7836 34.4282 97.93 34.4282C98.0544 34.4282 98.1496 34.4724 98.2081 34.5535C98.2667 34.6272 98.2813 34.7746 98.2594 34.9736C98.2081 35.2169 98.1056 35.438 97.9373 35.637C97.8202 35.777 97.6518 35.9245 97.4322 36.0866C97.359 36.1529 97.2858 36.1824 97.2126 36.1824C97.1541 36.1824 97.0882 36.1603 96.9857 36.1161C96.8906 36.0571 96.832 36.0276 96.8174 36.0203V35.239C96.854 35.1211 96.9199 35.0179 97.0077 34.9147" fill="#D71618"/>
<path d="M96.6856 38.0176C96.6856 38.0176 96.7808 38.025 96.8833 38.0029C96.9858 37.9808 97.0443 37.9734 97.0443 37.9734C97.1761 37.9734 97.2054 38.0766 97.1468 38.2903C97.0443 38.482 96.9565 38.6883 96.8979 38.9095C96.8613 39.0495 96.8247 39.219 96.7955 39.4475C96.7076 39.9413 96.6491 40.2583 96.6125 40.4204C96.6344 40.59 96.693 40.7153 96.7955 40.8037C96.8979 40.8922 97.0224 40.9216 97.1688 40.9216C97.3883 40.9216 97.6079 40.8406 97.8275 40.6637L97.908 40.5678C97.908 40.6784 97.908 40.7816 97.8788 40.8774C97.8129 41.1059 97.6958 41.3049 97.5128 41.4818C97.3371 41.6366 97.1541 41.7398 96.9858 41.7766C96.8174 41.8946 96.6491 41.9535 96.51 41.9535C96.349 41.9535 96.1879 41.8946 95.9976 41.7914C95.8951 41.7398 95.8073 41.6808 95.7121 41.6145C95.5291 41.4376 95.456 41.128 95.4925 40.6784C95.5218 40.3615 95.595 39.9487 95.7341 39.4475C95.7853 39.2264 95.8219 39.0642 95.8512 38.9684C96.0049 38.7104 96.1294 38.5262 96.2245 38.4083C96.3709 38.2314 96.5173 38.0987 96.6856 38.0176Z" fill="#D71618"/>
<path d="M101.729 37.8113C101.758 37.8481 101.846 37.8702 101.978 37.885C102.117 37.885 102.197 37.9513 102.227 38.0693L101.422 39.5286C101.356 39.5286 101.26 39.5139 101.143 39.477C100.865 39.3665 100.69 39.3149 100.609 39.3149C100.492 39.3149 100.382 39.3665 100.28 39.4549C100.177 39.5581 100.104 39.735 100.023 39.993L99.394 41.7988C99.3134 41.902 99.2037 41.9609 99.0719 41.9609C99.0719 41.9609 98.9841 41.9609 98.9182 41.9315C98.8596 41.9167 98.8157 41.8946 98.7718 41.8799C98.7279 41.6882 98.7938 41.0543 98.9694 39.9709C99.1012 39.1748 98.9767 38.7621 98.5961 38.7621C98.5376 38.7695 98.501 38.7768 98.4717 38.7768C98.5302 38.5999 98.6327 38.4673 98.8084 38.3788C98.9548 38.3346 99.0865 38.2904 99.2402 38.2314C99.2549 38.224 99.2988 38.2167 99.3574 38.2167C99.5477 38.2167 99.7087 38.2977 99.8258 38.4599C99.9429 38.622 100.009 38.8432 100.023 39.1159C100.514 38.2461 101.085 37.8113 101.722 37.8113" fill="#D71618"/>
<path d="M104.013 33.669C104.239 33.669 104.437 33.8164 104.583 34.0965C104.715 34.3176 104.803 34.6198 104.854 34.981L103.061 40.7079C103.039 40.8553 103.054 40.9512 103.09 41.0028C103.127 41.0543 103.193 41.0765 103.281 41.0765C103.398 41.0691 103.471 41.0543 103.522 41.0543C103.625 41.0543 103.683 41.0912 103.683 41.1649C103.69 41.2386 103.676 41.3492 103.625 41.4892C103.398 41.6366 103.2 41.7472 103.032 41.8356C102.863 41.9167 102.695 41.9536 102.534 41.9536C102.431 41.9536 102.336 41.9315 102.219 41.8872C102.109 41.5998 102.066 41.2976 102.095 40.9659C102.131 40.6342 102.212 40.2141 102.351 39.7276C102.395 39.5729 102.431 39.4181 102.468 39.2633C102.505 39.1085 102.556 38.9537 102.607 38.7842C102.658 38.5926 102.695 38.4304 102.724 38.283C102.761 38.1356 102.783 37.9882 102.797 37.8334C102.863 37.6786 102.922 37.5386 102.959 37.3985C103.002 37.2585 103.054 37.0963 103.09 36.9268C103.149 36.7131 103.222 36.3814 103.31 35.9539C103.405 35.5116 103.486 35.1873 103.537 34.9736C103.617 34.6935 103.683 34.4724 103.734 34.3102C103.8 34.1333 103.888 33.927 104.013 33.6616" fill="#D71618"/>
<path d="M106.047 34.9147C106.172 34.782 106.318 34.6715 106.494 34.5756C106.669 34.4798 106.83 34.4282 106.977 34.4282C107.109 34.4282 107.204 34.4724 107.255 34.5535C107.321 34.6272 107.328 34.7746 107.299 34.9736C107.255 35.2169 107.145 35.438 106.977 35.637C106.867 35.777 106.691 35.9245 106.472 36.0866C106.399 36.1529 106.325 36.1824 106.26 36.1824C106.201 36.1824 106.128 36.1603 106.025 36.1161C105.937 36.0571 105.872 36.0276 105.85 36.0203C105.85 35.7697 105.85 35.5043 105.857 35.239C105.886 35.1211 105.945 35.0179 106.047 34.9147Z" fill="#D71618"/>
<path d="M105.74 38.0176C105.74 38.0176 105.828 38.025 105.938 38.0029C106.04 37.9808 106.099 37.9734 106.099 37.9734C106.231 37.9734 106.26 38.0766 106.201 38.2903C106.099 38.482 106.011 38.6883 105.953 38.9095C105.916 39.0495 105.879 39.219 105.843 39.4475C105.755 39.9413 105.704 40.2583 105.66 40.4204C105.682 40.59 105.748 40.7153 105.843 40.8037C105.945 40.8848 106.07 40.9216 106.216 40.9216C106.436 40.9216 106.655 40.8406 106.875 40.6637L106.948 40.5678C106.948 40.6784 106.941 40.7816 106.919 40.8774C106.853 41.1059 106.736 41.3049 106.553 41.4818C106.37 41.6366 106.194 41.7398 106.018 41.7766C105.85 41.8946 105.696 41.9535 105.535 41.9535C105.374 41.9535 105.221 41.8946 105.038 41.7914C104.935 41.7398 104.847 41.6808 104.752 41.6145C104.569 41.4376 104.496 41.128 104.533 40.6784C104.555 40.3615 104.635 39.9487 104.774 39.4475C104.825 39.2264 104.877 39.0642 104.891 38.9684C105.045 38.7104 105.169 38.5262 105.265 38.4083C105.411 38.2314 105.565 38.0987 105.726 38.0176" fill="#D71618"/>
<path d="M108.141 38.106C108.287 38.0471 108.412 38.0176 108.529 38.0176C108.763 38.0176 108.931 38.1502 109.041 38.4082C109.129 38.6515 109.166 38.9684 109.151 39.3664C109.151 39.4033 109.151 39.4991 109.122 39.6686C109.085 39.8307 109.1 39.9339 109.158 39.9782C109.283 39.8823 109.649 39.4843 110.264 38.7841C110.703 38.2829 111.069 38.0323 111.369 38.0323C111.457 38.0323 111.53 38.0471 111.581 38.0618C111.596 38.0839 111.837 38.7915 112.313 40.1845C112.481 40.6857 112.716 40.9437 113.008 40.9437C113.126 40.9437 113.265 40.9142 113.44 40.8405C113.44 40.929 113.44 41.0174 113.411 41.0838C113.367 41.2533 113.265 41.4081 113.118 41.5555C112.994 41.6587 112.855 41.7545 112.686 41.8282C112.613 41.865 112.496 41.8945 112.364 41.924C112.24 41.9461 112.152 41.9609 112.086 41.9609C111.793 41.9609 111.544 41.8356 111.325 41.585C111.142 41.3712 110.974 41.0469 110.82 40.6268C110.783 40.2435 110.754 39.956 110.732 39.757C110.688 39.3811 110.571 39.1969 110.359 39.1969C110.066 39.477 109.758 39.8971 109.422 40.472C109.151 40.9511 108.887 41.4154 108.617 41.8945C108.58 41.8945 108.514 41.9019 108.426 41.9019C108.273 41.9019 108.148 41.865 108.031 41.7766C107.936 41.7029 107.885 41.5628 107.899 41.3565C107.914 41.2164 108.002 40.811 108.148 40.1624C108.287 39.5064 108.316 39.02 108.243 38.703L107.636 38.7325C107.687 38.5851 107.753 38.4746 107.833 38.3787C107.885 38.3271 107.98 38.2387 108.141 38.1208" fill="#D71618"/>
<path d="M118.521 39.0642C118.872 38.7546 119.231 38.5114 119.604 38.3345C119.977 38.1502 120.336 38.0618 120.687 38.0618C121.038 38.0618 121.324 38.165 121.565 38.3566C121.558 38.4303 121.551 38.4819 121.544 38.5114C121.514 38.6219 121.456 38.7325 121.368 38.8357C121.331 38.902 121.251 38.9831 121.148 39.0642C121.038 38.9389 120.899 38.8504 120.731 38.7841C120.57 38.7178 120.409 38.6956 120.233 38.6956C119.962 38.6956 119.684 38.7546 119.406 38.8725C118.945 39.0494 118.74 39.2116 118.572 39.3737C118.499 39.5433 118.521 39.5654 118.608 39.5949C118.696 39.5949 118.769 39.617 118.857 39.6243C119.004 39.6243 119.245 39.5875 119.597 39.5138C119.941 39.4327 120.189 39.4032 120.358 39.4032C120.555 39.4032 120.724 39.4327 120.848 39.499C120.98 39.5506 121.141 39.6243 121.192 39.8528C121.192 39.9265 121.192 40.0297 121.156 40.1403C121.134 40.2435 121.097 40.3245 121.06 40.3983C121.031 40.472 120.929 40.6562 120.746 40.9289C120.504 41.209 120.211 41.4228 119.86 41.5776C119.45 41.725 119.15 41.8282 118.982 41.8945C118.916 41.8945 118.791 41.8945 118.63 41.9166C118.455 41.9387 118.359 41.9461 118.345 41.9461C118.184 41.9461 118.059 41.9166 117.964 41.8576C117.876 41.7913 117.81 41.666 117.774 41.4891C117.767 41.4523 117.752 41.4007 117.737 41.3269C117.737 41.2459 117.752 41.1869 117.759 41.1427C117.789 41.0616 117.825 41.0174 117.906 41.0026C118.03 41.0026 118.155 41.0026 118.286 41.0174H118.667C119.106 41.0174 119.296 41.0174 119.618 40.951C119.955 40.8921 120.248 40.8036 120.409 40.5014C120.448 40.4277 120.468 40.3417 120.468 40.2435C120.468 40.0371 120.145 40.1698 119.567 40.155C118.982 40.1255 118.564 40.0371 118.286 39.8823C118.235 39.8012 118.191 39.7128 118.22 39.5949C118.235 39.5138 118.279 39.4327 118.316 39.3516C118.367 39.2705 118.469 39.1821 118.528 39.0863" fill="#D71618"/>
<path d="M54.034 34.9883H55.9372C56.2592 34.9441 56.6618 34.9146 57.1669 34.9146L57.8476 34.8483C58.543 34.6935 58.7333 34.6124 59.0627 34.5535C59.07 34.6198 59.0627 34.7009 59.0553 34.7893C59.0187 34.8999 58.9456 35.062 58.8284 35.2684C58.7113 35.4748 58.6381 35.6075 58.6088 35.6664C58.3673 35.8949 58.0818 36.0644 57.5036 36.2119L57.0278 36.2782H56.6545C56.5374 36.2782 56.4495 36.3593 56.4056 36.514C56.3178 36.8678 56.1934 37.3543 56.0323 37.9734C55.8713 38.5926 55.7103 39.2117 55.5565 39.8308C55.3955 40.45 55.3223 40.6711 55.2345 41.0249C55.2125 41.1133 55.2271 41.2386 55.2857 41.386C55.3443 41.5408 55.3589 41.644 55.3443 41.7103C55.315 41.8062 55.2345 41.8946 55.0808 41.9757C54.9636 41.9904 54.8392 42.0125 54.7294 42.0125C54.4513 42.0125 54.1585 41.9609 53.9828 41.784C53.6754 41.4745 54.0048 40.6195 54.0194 40.5458C54.0267 40.4868 54.7001 38.423 54.8026 38.0471C54.9197 37.6712 55.0222 37.3617 55.0954 37.1111C55.1832 36.8605 55.2857 36.6246 55.4101 36.3887V36.3445C55.4101 36.3445 55.3809 36.315 55.3589 36.2856C55.3369 36.2634 55.3296 36.2487 55.3223 36.234H54.5025C53.873 36.234 53.3972 36.175 53.0532 36.0644C52.9288 35.9465 52.8922 35.7844 52.958 35.5559C52.98 35.4527 53.0459 35.2979 53.1264 35.121C53.2142 34.9367 53.2728 34.8262 53.2874 34.7893C53.3606 34.7451 53.4119 34.723 53.4558 34.723C53.4851 34.723 53.5217 34.7304 53.5436 34.7525C53.5729 34.7746 53.6022 34.8114 53.6534 34.863C53.6973 34.9146 53.7413 34.9515 53.7632 34.981C53.7998 35.0031 53.851 35.0178 53.895 35.0178C53.9389 35.0178 53.9828 35.0104 54.0487 34.9883" fill="#D71618"/>
<path d="M64.4861 40.5309C64.552 40.0739 64.6106 39.7496 64.6691 39.5654C64.7423 39.2558 64.8521 39.0126 64.9766 38.8209C64.918 38.5998 64.8009 38.4377 64.6252 38.3197C64.5593 38.2755 64.3837 38.1871 64.0982 38.0618C63.9591 38.0323 63.8274 38.0249 63.6737 38.0249C63.1613 38.0249 62.6416 38.1649 62.1365 38.445C61.6315 38.7177 61.1703 39.1305 60.7897 39.698C60.6726 39.8823 60.5774 40.1329 60.4896 40.4277C60.4603 40.5457 60.431 40.7078 60.3944 40.8994C60.3578 41.1058 60.3359 41.2164 60.3432 41.2311C60.3798 41.268 60.4091 41.3417 60.4164 41.4375C60.4237 41.4817 60.4237 41.5628 60.4237 41.6512C60.6653 41.8576 60.9434 41.9682 61.2582 41.9682C61.5729 41.9682 61.9462 41.865 62.3268 41.6734C62.7294 41.467 63.11 41.2016 63.4833 40.8847C63.5199 40.9363 63.5346 41.0026 63.5346 41.069C63.5273 41.1058 63.5126 41.1795 63.476 41.3048L63.4248 41.5186C63.4101 41.5554 63.4028 41.6144 63.3882 41.7102C63.3662 41.7987 63.3882 41.865 63.4248 41.9092C63.7029 41.9092 63.9152 41.8503 64.0616 41.7102C64.1933 41.5554 64.3105 41.3564 64.3837 41.0837C64.4129 40.9731 64.4422 40.7889 64.4788 40.5383M63.6224 39.9044C63.3955 40.0297 63.1613 40.155 62.9417 40.2877C62.788 40.2877 62.5684 40.3393 62.2756 40.4498C61.9828 40.553 61.7705 40.612 61.6388 40.612C61.5802 40.612 61.507 40.5899 61.4338 40.5678C61.368 40.5383 61.3021 40.5088 61.2655 40.4572C61.6827 40.0371 62.0706 39.7054 62.4293 39.4695C62.8685 39.1895 63.2638 39.0494 63.6151 39.0494C63.7908 39.0494 63.9591 39.0863 64.1348 39.1747C64.0689 39.4695 63.9079 39.7128 63.6297 39.9044" fill="#D71618"/>
<path d="M94.0796 39.9339C94.1528 39.9339 94.2406 39.9413 94.3358 39.956C94.4309 39.9634 94.4968 39.9708 94.4968 39.9708C94.5993 39.9708 94.6725 39.9486 94.7164 39.9118C94.6944 39.7349 94.6579 39.5875 94.5993 39.4917C94.5407 39.3811 94.4529 39.2558 94.3358 39.1084C94.3065 39.0642 94.2479 39.0494 94.1748 39.0494H94.1015L94.0357 39.0568C93.9112 39.0568 93.8454 38.9978 93.8307 38.8799C93.8307 38.5556 93.838 38.2165 93.8527 37.8849C93.86 37.5458 93.8893 37.1552 93.9186 36.7203C93.9552 36.2854 93.9844 35.8801 94.0137 35.4968C94.0503 35.1209 94.0723 34.745 94.0869 34.3617C94.0137 34.3101 93.9259 34.229 93.8088 34.1259C93.699 34.0227 93.5965 33.9416 93.5087 33.8826C93.4208 33.8237 93.3257 33.7794 93.2159 33.7573C92.6596 34.6049 92.1106 35.4673 91.5836 36.3592C91.0492 37.251 90.4271 38.3271 89.7024 39.5801C89.6292 39.5949 89.5121 39.6022 89.3511 39.6022C89.1827 39.6022 89.0437 39.6243 88.9192 39.6612C88.8094 39.6759 88.6996 39.7349 88.5825 39.816C88.5752 40.0002 88.6118 40.1771 88.685 40.3393C88.7582 40.5014 88.868 40.5973 88.9997 40.6488C88.9997 40.7078 88.9924 40.7741 88.9705 40.8405C88.9412 40.9363 88.8753 41.0763 88.7728 41.2606C88.6703 41.4449 88.5898 41.5923 88.5605 41.6955C88.5971 41.7471 88.6557 41.7987 88.7216 41.8724C88.7801 41.9387 88.846 41.9903 88.9192 42.0345C88.9924 42.0714 89.0802 42.0935 89.19 42.0935C89.4682 41.8134 89.7463 41.4449 89.9952 40.9805C90.0538 40.9805 90.127 40.9805 90.2148 40.9953C90.3026 41.01 90.3685 41.0174 90.3685 41.0174C91.1444 41.4965 92.2131 41.8945 93.6258 42.2262C93.7575 42.2262 93.8673 42.1009 93.9332 41.865C93.86 41.7323 93.8161 41.5849 93.8088 41.4154C93.8014 41.2459 93.8014 41.0174 93.8088 40.7373C93.8234 40.4498 93.8307 40.2435 93.8161 40.1182C93.8966 40.0002 93.9771 39.9486 94.0576 39.9486M91.6202 38.165C91.9349 37.6048 92.1765 37.1847 92.3375 36.9046C92.4985 36.6171 92.7035 36.3297 92.9231 36.0275H93.0036C93.0475 36.2707 93.0622 36.5729 93.0475 36.9341C93.0256 37.2878 93.0182 37.649 93.0036 38.0102C92.9816 38.3713 93.0036 38.6735 93.0475 38.9168C93.0256 38.9757 93.0109 39.0126 92.9816 39.0347C92.9524 39.0568 92.9158 39.0715 92.8645 39.0863C92.8133 39.0863 92.784 39.101 92.7547 39.1158C92.5644 39.1158 92.4107 39.1231 92.3009 39.1452C92.1765 39.1747 91.9496 39.2263 91.6202 39.2927C91.2835 39.3664 91.0492 39.4106 90.8955 39.418C91.0712 39.1379 91.3127 38.7177 91.6202 38.165ZM92.9963 41.408C92.9963 41.408 92.9377 41.408 92.9011 41.4006C92.8572 41.3933 92.8279 41.3859 92.8279 41.3859C92.5351 41.3859 92.2643 41.3638 92.0008 41.3122C91.7373 41.2606 91.4811 41.2016 91.2396 41.1206C90.9907 41.0395 90.7125 40.951 90.4051 40.8479L90.4344 40.7373C90.632 40.7078 90.9394 40.6415 91.3713 40.553C91.7885 40.4646 92.1252 40.3982 92.3668 40.354C92.6083 40.3024 92.8426 40.2656 93.0841 40.2435C93.1207 40.3245 93.1354 40.4204 93.1427 40.5383C93.1427 40.6488 93.15 40.7741 93.15 40.9068C93.15 41.0395 93.1646 41.15 93.1939 41.2311C93.1573 41.3564 93.0914 41.408 92.9963 41.408Z" fill="#D71618"/>
<path d="M117.437 40.5163C117.181 40.5752 116.961 40.6489 116.742 40.7153C116.207 40.8848 115.827 40.9732 115.585 40.9732C115.424 40.9732 115.278 40.9511 115.139 40.9069C115.014 40.8627 114.89 40.7742 114.795 40.6637C114.882 40.5826 115.073 40.5236 115.336 40.4868C115.622 40.4426 115.79 40.4057 115.863 40.3762C116.207 40.2141 116.559 40.0519 116.903 39.8824C117.305 39.6318 117.583 39.278 117.744 38.8284C117.679 38.5852 117.62 38.4083 117.554 38.2977C117.459 38.1061 117.342 38.0103 117.195 38.0103C116.61 38.0103 116.076 38.1356 115.57 38.364C114.934 38.6662 114.421 39.1306 114.041 39.7497C113.858 40.1182 113.806 40.3467 113.806 40.7521C113.762 41.1796 113.828 41.5334 114.107 41.7398C114.377 41.8577 114.663 41.9535 115.036 41.9535C115.622 41.9535 116.193 41.7987 116.756 41.4818C116.903 41.4155 117.034 41.3197 117.159 41.1796C117.283 41.0469 117.371 40.8922 117.408 40.7153C117.437 40.6563 117.444 40.59 117.444 40.5163M115.527 39.138C115.841 38.939 116.163 38.8284 116.5 38.7768C116.573 38.7694 116.727 38.7694 116.807 38.7768C116.873 38.7842 117.005 38.7768 117.005 38.9242C117.005 39.0716 116.317 39.5065 115.907 39.6981C115.512 39.8824 115.131 39.9856 114.787 39.9856C114.963 39.6023 115.204 39.3222 115.527 39.1306" fill="#D71618"/>
<path d="M74.0459 40.0813C73.819 40.1845 73.5847 40.2803 73.3578 40.3835C73.3212 40.3319 73.2993 40.2508 73.2993 40.155C73.3066 40.0518 73.3358 39.9339 73.3724 39.7865C73.3944 39.7128 73.4237 39.6096 73.4676 39.4622C73.5188 39.3147 73.5408 39.2116 73.5554 39.1526C73.5774 39.0641 73.5994 38.9536 73.6286 38.8283C73.5774 38.5113 73.4969 38.2681 73.3724 38.0912C73.248 37.9217 73.0797 37.8333 72.8527 37.8333C72.7796 38.1428 72.6844 38.5556 72.5746 39.0863C72.355 40.1329 72.194 40.8331 72.0915 41.209C71.7987 41.5038 71.5572 41.8281 71.3742 42.1745C71.1839 42.5283 71.0448 42.9042 70.935 43.317C70.8545 43.5971 70.8032 43.8477 70.774 44.0762C70.7447 44.3046 70.752 44.4815 70.8032 44.6068C70.8618 44.7395 70.935 44.8059 71.0521 44.8059C71.1107 44.8059 71.1546 44.8059 71.1985 44.7837C71.5206 44.371 71.8573 43.7519 72.194 42.9411C72.6332 41.8945 72.9113 41.2385 73.0431 40.9952C73.0504 40.9805 73.3139 40.8257 73.8043 40.5383C73.9727 40.4351 74.0971 40.3098 74.2069 40.155C74.163 40.1181 74.1044 40.1034 74.0459 40.1034M71.3449 43.1917C71.3156 43.0222 71.3229 42.86 71.3669 42.7052C71.3961 42.6168 71.4254 42.5357 71.4693 42.462C71.5279 42.3883 71.5938 42.3146 71.6596 42.2482C71.7255 42.1819 71.7768 42.1377 71.8207 42.1229L71.44 43.6192C71.3669 43.3538 71.3303 43.2064 71.3376 43.1991" fill="#D71618"/>
<path d="M96.0416 6.53764H96.6711L97.2347 7.17889L97.1688 7.80539C97.1322 8.18129 96.5393 8.46137 95.4048 8.64564H94.9876L94.6143 8.22551L94.6362 8.01177L96.0489 6.53027L96.0416 6.53764Z" fill="#D71618"/>
<path d="M101.063 6.53764C101.868 6.92092 102.226 7.40738 102.161 8.01914C100.104 10.3114 99.0424 11.8592 98.9546 12.6553H99.1595C100.045 12.2351 100.799 11.6676 101.436 10.9748C102.248 11.2548 102.607 11.815 102.512 12.6553L100.096 17.7189H101.143C101.919 18.279 102.292 18.7655 102.241 19.193H102.453L104.935 15.3971L105.791 13.2891H106.201L106.142 13.9156C105.228 19.1119 103.903 21.7137 102.183 21.7137L100.638 18.5517L99.8256 18.338C99.1009 19.4141 98.3983 20.188 97.7029 20.6524L97.3223 20.2249L97.4174 19.3846C97.9298 18.0284 98.7935 16.4069 100.023 14.5348L100.038 14.321L99.811 14.5348H99.1888L98.4495 13.4808L98.5812 12.2204L99.7524 9.05839C99.057 9.05839 98.713 8.91835 98.7496 8.63827L98.7716 8.43189C99.1888 8.43189 99.423 8.21814 99.4669 7.79802L101.07 6.53027L101.063 6.53764Z" fill="#D71618"/>
<path d="M97.3882 9.70708H97.1759C96.2317 9.8029 95.1264 10.3704 93.8601 11.4023L92.9232 10.341L92.2571 10.7684C91.1665 15.4046 90.3027 17.7263 89.6513 17.7263L89.5342 18.7729H90.3613L90.2369 20.0333L89.9148 21.0873C90.1856 22.0676 90.4857 22.5614 90.8151 22.5614H91.2323L91.4593 22.3477L91.3934 18.9793L91.4812 18.1317L92.1327 17.9179H92.3376L92.0009 19.1783C92.2351 20.0702 93.0842 21.1905 94.5774 22.5467H94.7897L95.0166 22.3329L94.841 20.0186L94.9068 19.3921C94.9727 18.6919 95.2289 18.2644 95.6681 18.1243L95.3533 17.0703L95.368 16.8639C96.0853 16.3038 96.4732 15.8099 96.5757 15.3898L96.4952 14.1221C96.5538 13.6061 96.971 12.9059 97.7615 12.0141L97.8786 10.9675C97.9591 10.2672 97.7835 9.83975 97.3809 9.69971M92.5352 16.0311L91.8838 16.2374H91.6715L92.5426 13.9231H92.7548L92.5352 16.0311ZM95.0532 13.9231H94.841C94.5189 13.9231 94.3652 13.3629 94.3945 12.2426L95.4631 12.0288H95.6681L95.0532 13.9304V13.9231Z" fill="#D71618"/>
<path d="M114.993 6.26511C117.093 6.19877 117.964 7.10536 117.591 8.99961C119.758 8.31414 121.405 8.09302 122.51 8.33625C123.081 8.81534 123.147 9.25758 122.751 9.65559C122.568 9.77352 121.976 9.96516 120.995 10.2158C120.585 10.3411 120.329 10.4 120.212 10.4074C119.919 10.5253 119.904 10.4737 120.16 10.2452C120.351 10.1273 120.658 9.81038 121.083 9.29443C121.28 9.12491 121.266 9.07331 121.024 9.13228C119.992 9.39762 118.85 9.73667 117.613 10.1642C114.729 11.1518 112.899 11.5498 112.101 11.3508C111.933 11.3582 111.86 11.3066 111.882 11.1961C111.882 11.1961 111.977 11.1592 112.145 11.1002C112.145 11.1002 112.204 11.1002 112.306 11.1002C113.485 10.7243 114.341 10.3853 114.897 10.0905C114.685 10.0462 114.531 10.0241 114.422 10.0315H114.253C114.268 9.97253 114.341 9.89882 114.473 9.77352C115.725 8.6753 115.768 7.73186 114.605 6.94321C114.385 6.95795 114.319 6.84739 114.422 6.6189C114.509 6.44938 114.692 6.33145 114.985 6.26511" fill="#D71618"/>
<path d="M117.144 12.5964C118.279 12.449 119.333 12.5227 120.328 12.8175C120.474 13.2008 120.431 13.562 120.196 13.901C119.45 14.3654 118.235 14.8002 116.566 15.1909C116.163 15.3162 116.141 15.2646 116.515 15.0213C117.137 14.6676 117.737 14.1 118.337 13.304C118.491 13.0755 118.462 12.9355 118.242 12.8912C116.888 12.8249 115.578 13.3408 114.319 14.4391C113.975 14.7855 113.711 15.0435 113.506 15.2203C113.126 16.068 112.723 16.407 112.313 16.2596C111.998 16.2154 111.757 15.8911 111.596 15.2867C111.618 14.896 111.793 14.7044 112.123 14.6823C112.408 14.6749 112.701 14.5865 113.008 14.4022C114.582 13.6283 115.973 13.0313 117.144 12.5964Z" fill="#D71618"/>
<path d="M112.123 18.0876C112.284 18.1392 112.752 17.9549 113.557 17.5422C114.333 17.24 114.992 16.9673 115.526 16.724C116.061 16.5398 116.654 16.4955 117.29 16.584C117.466 16.7977 117.532 17.0189 117.488 17.24C117.005 18.036 116.171 19.09 114.977 20.402C115.695 20.3725 116.273 20.3504 116.727 20.343C117.166 20.3283 117.488 20.343 117.7 20.3946C118.257 20.6526 118.396 21.2275 118.11 22.1267C117.898 22.3478 117.364 22.6721 116.515 23.0922C116.478 23.0407 116.119 23.1365 115.475 23.3797C114.934 23.6156 114.516 23.7998 114.216 23.9251C113.923 23.9841 113.909 23.9251 114.165 23.7556C115.058 23.1144 115.775 22.5394 116.317 22.0235C116.405 21.854 116.449 21.7655 116.449 21.7655C116.397 21.7139 116.324 21.6845 116.207 21.6918C115.556 21.9351 115.007 22.0898 114.553 22.1635C114.026 22.2962 113.557 22.3404 113.118 22.2962C112.642 22.2078 112.525 21.795 112.782 21.058C113.294 20.6526 113.872 20.004 114.48 19.09C113.287 19.5765 112.416 19.3848 111.867 18.5151C111.779 18.4119 111.764 18.3235 111.83 18.2645C111.845 18.2129 111.932 18.1466 112.108 18.0876" fill="#D71618"/>
<path d="M111.208 13.466C110.732 14.2104 110.256 14.3873 109.781 14.0114C109.371 13.0312 109.334 12.5005 109.678 12.4341C110.344 11.5275 110.857 10.8716 111.215 10.4735C111.347 10.304 111.457 10.2156 111.515 10.2156C111.625 10.2156 111.684 10.2893 111.713 10.4588C111.75 11.4022 111.581 12.4046 111.215 13.466" fill="#D71618"/>
<path d="M73.4379 8.43938C73.9137 9.15433 73.3282 11.5129 72.7499 12.1542V12.2647H72.8524C73.1452 11.4171 74.2212 9.76609 74.8946 9.31649L74.9531 9.25752L75.1654 9.47864L75.2166 9.53023L75.3411 9.41967C75.4143 8.93321 75.7144 8.60891 75.5899 8.05611C75.3777 7.1569 73.6063 5.28476 72.3693 5.27002C72.3034 5.30687 72.3107 5.30687 72.2009 5.32161C72.0399 5.54273 71.469 6.07342 71.7398 6.53039C71.7691 7.16427 73.1159 7.93818 73.4379 8.43938Z" fill="#D71618"/>
<path d="M85.2446 7.51808C85.391 7.39278 85.5301 7.26011 85.6838 7.13481C85.8522 6.90632 85.8961 6.61887 86.0864 6.42723C86.0864 6.27245 86.0791 6.19137 85.9986 6.10293C85.8961 5.95551 85.2227 5.66069 84.8347 5.82284L84.6444 6.04396C84.4248 6.13978 84.2711 6.06607 84.0588 6.15452C83.5099 6.38301 82.8657 6.65572 82.3387 6.92106C82.1484 7.00951 82.1118 6.89158 81.9288 7.03162H81.8117C81.8849 6.184 81.9947 4.931 82.3241 3.86963C82.4998 3.33158 82.2802 2.89671 82.6754 2.61663C82.6242 2.49133 82.5876 2.4987 82.5217 2.39551C81.8703 2.40288 81.4238 2.52081 80.9041 2.61663C80.9992 2.80089 81.0505 2.72719 81.2408 2.72719L81.292 2.77878C81.2115 2.90408 81.109 2.89671 81.0358 2.9999C81.0065 3.1252 80.9773 3.25787 80.948 3.38317L80.7723 3.43476C80.765 3.56006 80.7504 3.69274 80.7357 3.81804C80.7357 3.83278 80.6186 4.02441 80.6479 4.14971C80.6552 4.19394 80.8309 4.32661 80.8016 4.4298C80.7504 4.59195 80.5747 4.8794 80.5161 5.02682C80.3185 5.53539 80.0403 7.49597 80.1355 7.92347C79.3157 8.292 78.5105 8.80057 77.7346 9.23544C77.2369 9.50815 76.7538 9.64082 76.3 9.94302C76.0877 10.0904 75.9779 10.3779 75.7876 10.5474C75.751 10.8717 75.7876 11.0412 75.8315 11.255C76.0804 11.1076 76.4098 10.9749 76.7318 10.8717C76.9002 10.8496 77.0686 10.8349 77.2442 10.8201C78.1445 10.4368 79.2791 9.92827 79.9305 9.44919H79.9891C79.9159 9.60397 79.8573 9.92828 79.8281 9.99461C79.5426 10.5474 78.3129 10.8717 77.881 11.3582V11.4687C77.4492 11.4466 76.9368 11.9478 76.5562 12.1763C75.9267 12.5522 75.3045 12.8249 74.697 13.2156C74.1773 13.5472 73.7893 14.0116 73.233 14.3138C73.0354 14.5275 72.4279 13.7463 72.2156 13.5988C72.2449 13.4441 72.2815 13.3114 72.362 13.2156L72.3766 13.105C72.1936 13.1861 72.1936 13.3556 72.0619 13.4367H71.7764L71.7032 13.6578C71.6007 13.7315 71.4324 13.6652 71.3519 13.7684C71.2201 13.9084 71.2714 14.0411 71.0884 14.1516C71.125 14.9919 71.4544 15.7658 71.6007 16.5545C71.6007 17.1588 71.6007 17.7559 71.6081 18.3603C71.5422 19.1047 71.4617 19.8491 71.3958 20.5936C71.308 20.8442 70.9932 21.2495 71.0884 21.4707L71.0664 21.6328C71.2201 21.6623 71.3592 21.7065 71.5129 21.736C71.6593 21.8244 71.7618 22.0603 71.9301 22.1193C72.2522 22.2298 72.4279 22.0456 72.6109 22.1782C73.072 22.0235 73.1818 21.3896 73.4014 20.9768C73.7088 20.3872 74.0821 19.6943 74.3749 19.0605C74.5286 18.7288 74.514 18.4192 74.7409 18.1907L74.7628 17.977H74.7043C74.6604 18.0875 74.6604 18.117 74.5725 18.1907V18.2423H74.514C74.675 17.5569 74.7263 16.5766 74.8946 16.009C75.0264 15.5373 74.9312 14.9477 75.1947 14.5939C75.2094 14.4022 75.224 14.2253 75.2533 14.0411C75.4436 13.9895 75.6339 13.9305 75.8315 13.8789C76.3073 13.6947 77.01 13.3777 77.3906 13.0608H77.5077V13.1124C77.1125 13.3335 76.9368 13.7757 76.5635 13.9821C76.5635 14.2327 76.4903 14.3875 76.5635 14.6381C77.0612 14.8297 78.7082 14.3359 79.1254 14.0337H79.1839L79.1254 14.0927C78.9643 14.417 77.5809 15.9058 77.2369 16.0017C77.1783 16.3628 77.1857 16.8861 77.4126 17.1441C77.5443 17.2989 78.4593 16.4808 78.6203 16.3776C78.7082 16.326 78.7667 16.3407 78.9058 16.3776L79.0595 16.5397C79.0302 16.6503 79.0009 16.7535 78.9717 16.864C78.4959 16.9746 78.1299 17.7264 77.8371 18.0654C77.5443 18.2866 77.2589 18.5077 76.9807 18.7214C76.8929 18.8541 76.9222 18.9868 76.8343 19.1047C76.6074 19.3995 76.2487 19.6427 76.0145 19.9228C75.8974 20.0629 75.9194 20.1955 75.8022 20.3651C75.6412 20.4904 75.4802 20.6157 75.3118 20.741C75.1362 20.9916 75.0922 21.4264 74.8287 21.7213C74.858 21.9203 74.9898 22.0161 75.1362 22.1045C75.3191 22.1193 75.8901 21.7876 76.1389 21.6697C76.3073 21.5886 76.4391 21.6918 76.5415 21.6697C76.7538 21.6181 78.6276 20.6599 78.7594 20.5198H78.8765C78.7155 22.2593 78.9717 23.8071 78.43 25.2665C78.3641 25.436 78.5032 25.4287 78.5252 25.5319C78.6057 26.1584 78.3715 27.0797 78.2177 27.5588C77.9762 28.2885 78.3715 28.9002 78.1519 29.5267C77.9616 30.0574 77.8371 30.1827 77.7493 30.8313H77.9176L77.9689 30.8903C77.903 31.1483 77.8078 31.3252 77.742 31.5463C77.8884 31.5463 78.1372 31.5168 78.1885 31.5979C78.247 31.6937 78.086 31.8411 78.1006 31.8706C78.1738 32.0106 78.3202 32.0991 78.3495 32.3128C78.452 32.3276 78.5691 32.3423 78.6862 32.3644C78.8985 32.1433 79.4694 31.5242 79.7915 31.4873L79.6304 31.3252C79.9159 30.8829 79.6963 30.3154 79.6963 30.0722C79.7183 29.8289 79.7402 29.6004 79.7549 29.3572C79.689 29.0476 79.85 27.9421 79.9013 27.2345C79.9452 26.4974 80.1282 25.3255 80.033 24.6105C79.9305 23.9103 80.2233 24.102 80.1355 23.4681C80.033 22.7753 80.4795 21.3748 80.2526 20.9547C80.2965 20.424 80.3478 19.9007 80.399 19.37C80.5234 19.1858 81.3725 18.7583 81.6141 18.6109C82.2143 18.235 82.7413 17.6379 83.2317 17.1367C83.4879 16.8714 84.0442 16.3628 83.9271 15.7732C83.8246 15.2425 83.3415 14.8666 83.0853 14.4612C82.8731 14.1295 82.7413 13.7684 82.4924 13.4735C82.2509 13.2082 81.8922 13.2451 81.7458 12.8691H81.636C81.7019 13.2303 81.8703 13.6357 82.1777 13.7978C82.0313 13.8789 81.8922 13.7463 81.7751 13.7978V13.8494C81.5628 13.9821 81.109 14.1074 80.9333 14.2917H80.8162C80.7796 13.9821 80.8455 13.621 80.9041 13.304C81.3213 12.9207 81.7385 12.5375 82.1557 12.1542C82.4339 11.9773 82.6608 12.0879 82.917 11.9405C83.1658 11.8373 83.1585 11.6014 83.3562 11.4466C83.3708 11.2329 83.3635 11.1223 83.2756 11.0118C83.2171 10.798 83.0121 10.7317 82.7999 10.6874C83.3635 9.78823 84.5566 9.36811 85.2666 8.60894H85.4423C85.5228 8.31411 85.7058 8.20355 85.8375 7.95295C85.6472 7.73183 85.6911 7.54757 85.252 7.51808M73.3794 17.6674C73.1891 18.0212 72.9476 18.8615 72.6841 19.0899V19.1415H72.6182C72.4425 17.461 73.1086 15.928 73.277 14.4981C73.3721 14.5497 73.4014 14.6528 73.6137 14.6086L75.0849 14.0632H75.202C74.5579 15.2572 74.0089 16.5323 73.3868 17.6674M78.796 19.4143C78.4959 19.9523 76.644 20.4535 76.1024 20.8884H75.9926C76.3 20.2471 76.6294 19.7091 77.0612 19.2005C77.1344 19.1121 77.3394 19.0826 77.4199 18.9868C77.5077 18.8836 77.5224 18.7435 77.6175 18.6625L77.8518 18.5519L77.9396 18.2792C78.2763 17.9549 78.6862 17.7632 78.8838 17.2915L78.9863 17.4021C78.9204 18.0728 78.8619 18.7435 78.796 19.4216M79.4767 11.992C79.5792 12.0289 79.5353 12.0068 79.5938 12.051L79.4621 12.1542H79.3523C79.4182 12.0436 79.4109 12.0805 79.4767 11.992ZM79.4255 15.0509H79.3157C79.3962 14.8666 79.506 14.8076 79.5865 14.616L79.6963 14.675C79.6304 14.8961 79.5499 14.8961 79.4255 15.0509ZM78.5032 13.3556H78.4447C78.8253 12.8323 79.3523 12.508 79.7549 12.051H79.8208C79.7329 12.9281 78.9351 12.8692 78.5032 13.3556ZM81.7166 15.5447C81.8556 15.6036 82.1338 15.6258 82.2875 15.5447C82.3607 15.4931 82.4851 15.2056 82.5656 15.0509H82.734C82.7633 15.2277 82.8072 15.3383 82.9243 15.4341C82.9243 15.67 82.9243 15.9058 82.917 16.1417C82.573 17.0483 81.131 17.6011 80.56 18.3234H80.3844C80.5381 17.9622 80.2819 16.7756 80.6186 16.3039C80.7064 15.9722 81.3359 15.7289 81.7166 15.5373M81.1163 11.5498L81.0139 11.4982H80.9553C81.1383 11.314 81.3725 11.1813 81.5775 11.0044L81.68 11.056C81.4896 11.2181 81.3066 11.3803 81.1163 11.5498ZM82.6901 9.31651C82.3021 9.44919 81.819 9.91353 81.5262 10.1936H81.3579C81.636 9.83246 82.0972 9.64819 82.3973 9.31651C82.5217 9.2944 82.5071 9.2944 82.5803 9.25755H82.6974V9.31651H82.6901ZM82.895 7.73183C82.6828 8.15933 81.9801 8.37308 81.6653 8.71212H81.5482C81.5702 8.53523 81.5848 8.35096 81.5994 8.1667C81.9361 8.10036 82.5876 7.87924 82.8438 7.67287H82.9609L82.9023 7.72446L82.895 7.73183Z" fill="#D71618"/>
<path d="M65.3138 20.6157C64.5086 20.3503 64.0914 19.3921 63.4765 18.9204C62.6641 18.2939 61.8735 17.6748 61.0318 17.063L60.9879 16.9082H60.7609C60.4828 16.6945 60.3144 16.2523 59.9777 16.0311C60.1388 15.1835 60.922 14.6897 61.5149 14.2843C61.7491 14.1148 62.9349 12.8028 63.03 12.5375C63.235 12.0215 62.9861 11.7857 62.9642 11.4466C62.5543 11.3066 61.9175 11.5498 61.6539 11.4982C61.3392 11.4392 61.1855 11.1223 60.8415 11.0633C61.2367 10.5621 61.7418 10.0757 62.1663 9.58922C62.3347 9.39021 62.6714 9.29439 62.8471 9.09539C63.03 8.88901 63.3448 8.57944 63.4765 8.38781C63.6595 8.11509 63.7035 7.83501 63.945 7.62126C63.9962 6.87683 63.4253 6.6336 62.9202 6.36826C61.9906 5.88917 60.4023 5.49853 58.8798 5.71227L58.7553 5.87443C58.7553 6.36089 59.1945 6.58201 59.4507 6.86209C60.1973 7.636 60.9513 8.3141 62.4957 8.38781C62.2688 9.32388 61.3172 9.87667 60.8122 10.5769C60.6951 10.4 60.7243 10.0388 60.7097 9.92089C60.5706 9.23543 60.2998 8.9406 59.6191 8.71211C59.3775 8.63841 59.0555 8.51311 58.8944 8.60893C58.7334 8.60893 58.6456 8.63104 58.5504 8.66789C58.5724 8.94797 58.7114 9.13224 58.77 9.37547C58.7553 9.75874 58.7334 10.142 58.7114 10.5253L58.8651 10.798C58.8944 10.9675 58.7334 11.6456 58.7114 11.7267C58.6822 12.1026 58.6456 12.4859 58.609 12.8691C58.5065 13.1197 58.1478 13.363 57.9795 13.5841C57.2402 14.4759 56.4789 15.3309 55.747 16.208C55.2785 16.7535 54.6783 17.9549 53.9244 18.1244C53.8658 18.832 54.0342 19.0826 54.2977 19.5911C55.0296 19.5838 56.457 19.1784 56.8669 18.832H56.9913C56.8888 19.0457 56.801 19.2668 56.6985 19.488C56.596 19.6059 56.3838 19.7754 56.3106 19.9228C56.2008 20.1439 56.2227 20.2913 56.091 20.4682C55.9446 20.6599 55.6591 20.8663 55.5274 21.0653C54.6856 22.3551 53.9829 23.2764 52.4824 23.8514L52.4092 23.9545V24.0651C52.8191 24.0135 53.0606 23.844 53.39 23.8514L53.1485 23.9545C53.0972 24.0209 53.1119 24.0135 53.0826 24.1167C54.6124 24.0651 56.6985 22.1561 57.3426 21.1169C57.5403 20.7778 57.5549 20.542 57.8184 20.2987C57.8135 20.225 57.7965 20.171 57.7672 20.1366C57.6794 20.0776 57.7672 20.1366 57.5988 20.1366L57.7891 19.9154C57.8916 19.7459 57.8404 19.8491 58.0307 19.8639C58.1259 19.6501 58.3162 19.5101 58.4186 19.3184C58.5504 19.0605 58.5504 18.7435 58.6016 18.5519L58.8505 18.3381C58.8798 18.2939 58.8285 17.9696 58.9017 17.7927C59.0555 17.4094 59.275 16.9156 59.4727 16.5397L59.5971 16.4881C59.9704 17.4021 60.4682 18.2644 61.0098 19.0531C61.427 19.6648 62.2322 20.2324 62.4811 20.9694H62.6567C62.7153 21.4633 63.2789 21.7802 63.5058 22.1709C63.7254 22.1856 63.945 22.333 64.0621 22.333C64.8234 22.3477 65.365 21.6623 65.8554 21.3969C66.2727 21.1832 66.646 21.1316 67.0412 20.9031C67.2901 20.7557 67.3633 20.5567 67.7073 20.4682V20.3061C66.9827 20.3651 66.2214 20.9326 65.2991 20.6304M60.6585 11.2845C60.8854 11.4024 60.9073 11.7414 61.0464 11.9404C60.9805 12.3606 60.7317 12.5669 60.4096 12.707L60.3437 12.766C60.2998 12.5006 60.5926 11.852 60.6585 11.2918M58.3454 14.7192C58.2576 14.9182 58.0307 15.014 57.8989 15.154C57.2036 15.9795 56.5375 16.6797 55.7543 17.3947H55.6445C56.4862 15.9795 57.6354 14.7118 58.4699 13.2966C58.5504 13.444 58.4333 14.4907 58.3381 14.7118M59.8679 16.1417H59.7508V16.0311L59.8679 16.0827V16.1417ZM59.9119 16.1933C60.2046 16.3333 60.4389 16.6355 60.5926 16.9082C60.3657 16.665 60.1461 16.4291 59.9119 16.1933Z" fill="#D71618"/>
</g>
<defs>
<clipPath id="clip0_583_2643">
<rect width="123" height="46" fill="white"/>
</clipPath>
</defs>
</svg>
