<svg width="26" height="45" viewBox="0 0 26 45" fill="none" xmlns="http://www.w3.org/2000/svg">
<g clip-path="url(#clip0_583_2590)">
<path d="M25.8548 12.8551C25.8548 19.9544 20.0989 25.7102 12.9996 25.7102C5.90036 25.7102 0.144531 19.9544 0.144531 12.8551C0.144531 5.75583 5.90036 0 12.9996 0C20.0989 0 25.8548 5.75583 25.8548 12.8551Z" fill="#E60012"/>
<path d="M21.4817 5.11048C19.427 3.78019 17.043 3.33236 14.9751 3.6353C12.9468 3.92507 10.6813 5.67684 10.6813 8.08718C10.6813 9.50967 9.48273 10.537 8.07341 10.537C6.15041 10.537 5.10988 9.02233 3.33176 9.02233C1.93561 9.02233 1.07948 9.69407 0.60532 10.1155L0.447266 10.3921L0.644834 10.6292C1.50096 10.919 2.56783 11.38 3.83227 12.2756C5.47867 13.4347 6.62457 14.6333 7.59924 16.0031C11.5638 21.6009 17.8596 21.3243 20.0197 20.4418C22.2588 19.533 23.9974 17.7549 24.814 15.7923C24.8799 15.6475 24.6691 15.5553 24.5901 15.687C24.3399 16.0821 23.0886 17.7549 20.7441 17.7549C18.1626 17.7549 16.0947 15.6475 16.0947 13.1318C16.0947 10.9848 17.7147 8.52183 20.8627 8.52183C23.5101 8.52183 25.7887 10.8004 25.8282 13.3688C25.8546 9.25942 23.5101 6.4276 21.4817 5.12365" fill="#F4E028"/>
<path d="M7.99434 40.8308L8.04703 40.8176L8.16557 40.8703V41.0284L8.02069 41.2259L7.82312 41.3445L7.73092 41.305L7.69141 41.1733L7.80995 40.9493L7.99434 40.8308Z" fill="#D71718"/>
<path d="M2.68597 40.9888L2.8572 40.8571L3.02843 40.8044L3.1338 40.8571L3.14697 41.0152L3.02843 41.2523L2.84403 41.4235L2.765 41.4498L2.6728 41.4235L2.62012 41.3971V41.1074L2.68597 40.9888Z" fill="#D71718"/>
<path d="M2.39649 42.1216H2.52821L2.55455 42.2401L2.44918 42.464L2.39649 42.6616C2.35698 42.8328 2.33064 42.9514 2.3043 43.0172L2.37015 43.1621L2.50186 43.2148L2.73895 43.1358L2.76529 43.1094V43.2148L2.60723 43.4255L2.40967 43.5177L2.22527 43.5704L2.04087 43.5046L1.9355 43.4387C1.9355 43.4387 1.85647 43.2543 1.86964 43.0963C1.89599 42.9777 1.92233 42.8328 1.98819 42.6484L2.04087 42.4772L2.18575 42.2796L2.35698 42.1479" fill="#D71718"/>
<path d="M4.9647 42.1611L5.10958 42.1216L5.29398 42.2665C5.32032 42.3587 5.33349 42.464 5.33349 42.6221V42.7275V42.8328C5.373 42.7933 5.51789 42.6484 5.7418 42.3982C5.89985 42.2138 6.04474 42.1216 6.15011 42.1216H6.21596C6.21596 42.1216 6.30816 42.3982 6.47939 42.9119C6.54524 43.0963 6.62427 43.1885 6.74281 43.1885L6.90087 43.1489V43.2411L6.78232 43.4124L6.62427 43.5046L6.50573 43.5441H6.40036L6.12376 43.4124C6.05791 43.3333 5.99205 43.2148 5.93937 43.0567C5.92619 42.9119 5.91302 42.8065 5.91302 42.7406C5.89985 42.6089 5.84717 42.5431 5.78131 42.5431C5.67594 42.6484 5.5574 42.8065 5.43886 43.0041C5.33349 43.1753 5.24129 43.3465 5.14909 43.5177H5.08324L4.93835 43.4782L4.89884 43.3202C4.89884 43.3202 4.93835 43.1226 4.99104 42.8855C5.04372 42.6484 5.05689 42.464 5.03055 42.3587H4.80664L4.88567 42.2401L5.00421 42.1479" fill="#D71718"/>
<path d="M7.99434 40.8308L8.04703 40.8176L8.16557 40.8703V41.0284L8.02069 41.2259L7.82312 41.3445L7.73092 41.305L7.69141 41.1733L7.80995 40.9493L7.99434 40.8308Z" fill="#D71718"/>
<path d="M8.02129 41.0283L7.90275 41.0415L7.81055 41.1469L7.92909 41.1337L8.02129 41.0283Z" fill="#D71718"/>
<path d="M8.66594 40.9888L8.824 40.8571L9.00839 40.8044L9.10059 40.8571L9.12693 41.0152L9.00839 41.2523L8.824 41.4235L8.7318 41.4498L8.65277 41.4235L8.58691 41.3971L8.60009 41.1074L8.66594 40.9888Z" fill="#D71718"/>
<path d="M8.54732 42.1216H8.62635L8.6922 42.1084L8.73172 42.2269L8.63952 42.4509L8.6 42.6484C8.57366 42.8328 8.54732 42.9514 8.53415 43.004L8.6 43.1358L8.73172 43.1753L8.9688 43.0831L8.99514 43.0436V43.1621L8.85026 43.386L8.65269 43.4914L8.48146 43.5572L8.29707 43.4914L8.1917 43.4255C8.12584 43.3597 8.0995 43.2543 8.11267 43.0831C8.12584 42.9645 8.15218 42.8196 8.20487 42.6352L8.25755 42.464L8.38926 42.2533L8.56049 42.1084" fill="#D71718"/>
<path d="M9.52279 42.1611L9.66767 42.1216L9.85207 42.2665C9.89158 42.3587 9.90475 42.464 9.89158 42.6221V42.7275V42.8328C9.9311 42.7933 10.076 42.6484 10.2999 42.3982C10.4579 42.2138 10.6028 42.1216 10.7082 42.1216H10.7872C10.7872 42.1216 10.8794 42.3982 11.0638 42.9119C11.1297 43.0963 11.2087 43.1885 11.3272 43.1885L11.4853 43.1489V43.2411L11.3668 43.4124L11.2087 43.5046L11.0902 43.5441H10.9848L10.7082 43.4124C10.6423 43.3333 10.5765 43.2148 10.5238 43.0567C10.5238 42.9119 10.4975 42.8065 10.4975 42.7406C10.4843 42.6089 10.4316 42.5431 10.3526 42.5431C10.2472 42.6484 10.1287 42.8065 10.0101 43.0041C9.90475 43.1753 9.81256 43.3465 9.70719 43.5177H9.64133L9.49645 43.4782L9.44376 43.3202C9.44376 43.3202 9.48327 43.1226 9.53596 42.8855C9.58864 42.6484 9.60182 42.464 9.57547 42.3587H9.35156L9.43059 42.2401L9.54913 42.1479" fill="#D71718"/>
<path d="M16.4238 40.9888L16.5818 40.8571L16.7662 40.8044L16.8584 40.8571L16.8847 41.0152L16.7662 41.2523L16.5686 41.4235L16.5028 41.4498L16.4106 41.4235L16.3447 41.3971V41.1074L16.4238 40.9888Z" fill="#D71718"/>
<path d="M16.3056 42.1216H16.3846L16.4373 42.1084L16.4768 42.2269L16.3846 42.4509L16.3451 42.6484C16.3188 42.8328 16.2924 42.9514 16.2793 43.004L16.3451 43.1358L16.4768 43.1753L16.7139 43.0831L16.7403 43.0436V43.1621L16.5954 43.386L16.3978 43.4914L16.2266 43.5572L16.0422 43.4914L15.9368 43.4255C15.871 43.3597 15.8446 43.2543 15.8578 43.0831C15.8578 42.9645 15.8973 42.8196 15.95 42.6352L15.9895 42.464L16.1212 42.2533L16.2924 42.1084" fill="#D71718"/>
<path d="M18.1624 42.0425L18.2546 42.0688L18.3468 42.1347L18.0439 42.6747H17.9385L17.741 42.5957L17.6224 42.6483L17.5302 42.8459L17.2931 43.5045L17.1746 43.5572H17.1219L17.0692 43.5308C17.0561 43.465 17.0692 43.2279 17.1483 42.8327C17.2009 42.543 17.1483 42.3849 17.0166 42.3849H16.9639L17.0824 42.24L17.2405 42.1874H17.28L17.4512 42.2664L17.5171 42.5035C17.7015 42.1874 17.9122 42.0293 18.1493 42.0293" fill="#D71718"/>
<path d="M19.0052 40.5278L19.2159 40.6859C19.2686 40.7649 19.2949 40.8703 19.3081 41.002L18.6495 43.0962V43.2016L18.7286 43.2279H18.8208L18.8735 43.2543L18.8471 43.3728L18.6232 43.5045L18.4388 43.544L18.3203 43.5177C18.2807 43.4123 18.2676 43.3069 18.2676 43.1752C18.2676 43.0567 18.3071 42.8986 18.3598 42.7274L18.3993 42.5562L18.452 42.385L18.4915 42.2006L18.5178 42.0293L18.5705 41.8713L18.6232 41.7001C18.6495 41.621 18.6759 41.5025 18.7022 41.3444C18.7417 41.1864 18.7681 41.0678 18.7813 40.9888L18.8603 40.7517L18.9657 40.5146" fill="#D71718"/>
<path d="M19.7568 40.9888L19.9148 40.8571L20.0992 40.8044L20.1914 40.8571L20.2178 41.0152L20.0992 41.2523L19.9016 41.4235L19.8226 41.4498L19.7436 41.4235L19.6777 41.3971V41.1074L19.7568 40.9888Z" fill="#D71718"/>
<path d="M19.6381 42.1216H19.704L19.7567 42.1084L19.7962 42.2269L19.704 42.4509L19.6645 42.6484C19.6381 42.8328 19.6118 42.9514 19.5986 43.004L19.6645 43.1358L19.7962 43.1753L20.0464 43.0831L20.0728 43.0436V43.1621L19.9279 43.386L19.7303 43.4914L19.5459 43.5572L19.3615 43.4914L19.2561 43.4255C19.1903 43.3597 19.1639 43.2543 19.1771 43.0831C19.1771 42.9645 19.2166 42.8196 19.2693 42.6352L19.3088 42.464L19.4405 42.2533L19.6118 42.1084" fill="#D71718"/>
<path d="M20.5199 42.1611L20.6647 42.1216L20.8491 42.2665C20.8755 42.3587 20.8887 42.464 20.8887 42.6221V42.7275V42.8328C20.9413 42.7933 21.0731 42.6484 21.297 42.3982C21.455 42.2138 21.5867 42.1216 21.7053 42.1216H21.7843C21.7843 42.1216 21.8765 42.3982 22.0609 42.9119C22.1136 43.0963 22.2058 43.1885 22.3111 43.1885L22.4692 43.1489V43.2411L22.3507 43.4124L22.1926 43.5046L22.0741 43.5441H21.9687L21.6921 43.4124C21.6262 43.3333 21.5604 43.2148 21.5077 43.0567C21.5077 42.9119 21.4814 42.8065 21.4814 42.7406C21.4682 42.6089 21.4155 42.5431 21.3365 42.5431C21.2311 42.6484 21.1126 42.8065 20.994 43.0041C20.9018 43.1753 20.7965 43.3465 20.7043 43.5177H20.6384L20.4935 43.4782L20.4408 43.3202C20.4408 43.3202 20.4803 43.1226 20.533 42.8855C20.5857 42.6484 20.5989 42.464 20.5725 42.3587H20.3486L20.4145 42.2401L20.533 42.1479" fill="#D71718"/>
<path d="M24.3533 42.5036C24.485 42.385 24.6167 42.306 24.7484 42.2401C24.8801 42.1743 25.0118 42.1348 25.1435 42.1348C25.2753 42.1348 25.3806 42.1743 25.4728 42.2401V42.2928L25.407 42.4114L25.3279 42.4904L25.1699 42.385L24.9855 42.3587L24.6825 42.4245C24.5113 42.4904 24.4323 42.5431 24.3796 42.6089V42.688H24.485C24.5377 42.688 24.6299 42.6748 24.7616 42.6484C24.8933 42.6221 24.9723 42.6089 25.0382 42.6089L25.2226 42.6484L25.3543 42.7802V42.8855L25.3016 42.9777L25.1831 43.1753C25.0909 43.2807 24.9855 43.3597 24.8538 43.4124C24.7089 43.4651 24.5903 43.5046 24.5377 43.5309H24.406L24.3006 43.5441L24.1557 43.5177L24.0898 43.386V43.3333V43.2675L24.1425 43.2148H24.2874H24.4323C24.5903 43.2148 24.6694 43.2148 24.7879 43.1885C24.9065 43.1621 25.025 43.1358 25.0777 43.0304L25.104 42.9382C25.104 42.8592 24.9855 42.9119 24.7747 42.8987C24.564 42.8987 24.406 42.8592 24.3006 42.8065L24.2742 42.7011L24.3138 42.6089L24.3928 42.5167" fill="#D71718"/>
<path d="M0.592427 41.0152H1.2905C1.40904 41.0021 1.55393 40.9889 1.73832 40.9889L1.98858 40.9625C2.23883 40.9099 2.31786 40.8703 2.4364 40.8572V40.9494L2.3442 41.1206L2.26517 41.2655C2.18615 41.3445 2.0676 41.4104 1.85686 41.4631L1.68564 41.4894H1.55393L1.46173 41.5816C1.43539 41.7133 1.3827 41.8845 1.33002 42.1084C1.26416 42.3324 1.21147 42.5694 1.15879 42.7933C1.1061 43.0173 1.06659 43.0963 1.04025 43.228V43.3597L1.07976 43.4782L0.987564 43.5705H0.855852L0.579256 43.5046V43.0568C0.579256 43.0568 0.84268 42.2797 0.882194 42.1348C0.921708 42.0031 0.961222 41.8845 0.987564 41.7923L1.1061 41.5289L1.09293 41.4894L0.789996 41.4762C0.552913 41.4762 0.381688 41.4499 0.263146 41.4104L0.223633 41.226L0.289489 41.0679L0.342174 40.9494L0.40803 40.923H0.434372L0.473886 40.9757L0.5134 41.0152H0.566085H0.61877" fill="#D71718"/>
<path d="M4.12241 42.8065L3.87216 42.9514L3.6219 43.0173L3.38482 43.0831H3.30579L3.23994 43.0304C3.39799 42.8724 3.5297 42.7539 3.66142 42.6748C3.81947 42.5695 3.96435 42.5168 4.09607 42.5168L4.29364 42.5563L4.10924 42.8197M4.45169 43.0436C4.47803 42.8724 4.4912 42.7538 4.51755 42.688L4.62292 42.4114L4.4912 42.227L4.29364 42.1348H4.13558C3.95118 42.1216 3.75362 42.1743 3.56922 42.2797C3.38482 42.3851 3.21359 42.5299 3.06871 42.7407L2.96334 43.0041L2.92383 43.1753V43.2939V43.3729V43.4519L3.22677 43.5705C3.34531 43.5705 3.47702 43.531 3.6219 43.4651C3.76679 43.3861 3.91167 43.2939 4.04338 43.1753V43.2412V43.3334V43.4124L4.01704 43.4783V43.5441L4.26729 43.4783L4.38583 43.2544L4.42535 43.0568" fill="#D71718"/>
<path d="M14.9491 43.3597H14.9096H14.8833L14.5803 43.3333L14.3037 43.2675L14.0008 43.1621V43.1226C14.0798 43.1226 14.1984 43.0831 14.3564 43.0567C14.5145 43.0172 14.633 43.004 14.7252 42.9777L14.9887 42.9382L15.015 43.0435V43.1753L15.0282 43.2938L14.9491 43.3597ZM14.4355 42.1742C14.554 41.9767 14.6462 41.8186 14.6989 41.7133L14.9096 41.3971H14.936C14.9491 41.4893 14.9623 41.5947 14.9491 41.7264C14.9491 41.8581 14.9491 41.9898 14.936 42.1216C14.936 42.2533 14.936 42.3586 14.9491 42.4508L14.9228 42.4904H14.8833L14.8438 42.5167H14.6725C14.6725 42.5167 14.5408 42.5562 14.4223 42.5826C14.3037 42.6089 14.2115 42.6221 14.1589 42.6221C14.2247 42.5167 14.3169 42.3718 14.4223 42.1611M15.3443 42.8196H15.4365L15.5023 42.8328L15.5814 42.8065L15.5418 42.6616L15.4365 42.5167L15.3706 42.4904H15.3443H15.3179L15.2389 42.4245C15.2389 42.306 15.2389 42.1874 15.2389 42.0557C15.2389 41.9372 15.2521 41.7923 15.2652 41.6342C15.2784 41.4762 15.2916 41.3313 15.3048 41.1864C15.3048 41.0415 15.3179 40.9098 15.3311 40.7649L15.2257 40.6727L15.1204 40.5805L15.015 40.541C14.8174 40.8571 14.6067 41.1732 14.4091 41.4893C14.2115 41.8186 13.9876 42.2138 13.711 42.6616H13.5793L13.4213 42.6879L13.3027 42.7406L13.3422 42.9382L13.4608 43.0567V43.1226L13.3818 43.2806L13.3027 43.4387L13.3554 43.5045L13.4344 43.5704L13.5398 43.5967C13.6452 43.4914 13.7506 43.3597 13.8428 43.1884H13.9218L13.9745 43.2016C14.2642 43.3728 14.6594 43.5177 15.173 43.6494L15.2784 43.5177L15.2389 43.3597V43.1094V42.8855L15.3311 42.8196" fill="#D71718"/>
<path d="M23.2472 42.5299C23.3657 42.464 23.4842 42.4113 23.6028 42.3982H23.7213L23.8004 42.4509C23.8004 42.5035 23.5501 42.6616 23.392 42.7274C23.2472 42.7933 23.1154 42.8328 22.9837 42.8328C23.0496 42.6879 23.1418 42.5826 23.2603 42.5167M23.9452 43.0304L23.6818 43.1094C23.4842 43.1753 23.3394 43.2016 23.2603 43.2016L23.1023 43.1753L22.9706 43.0831L23.1681 43.0172L23.3657 42.9777C23.4974 42.9118 23.616 42.8592 23.7477 42.7933C23.8926 42.7011 23.9979 42.5694 24.0506 42.4113L23.9847 42.2138L23.853 42.1084C23.6423 42.1084 23.4316 42.1479 23.2603 42.2401C23.0232 42.3455 22.8389 42.5167 22.694 42.7406C22.6281 42.8723 22.6018 42.9645 22.6018 43.1094C22.5886 43.2675 22.6018 43.3992 22.7203 43.465C22.8257 43.5045 22.9179 43.5441 23.0628 43.5441C23.2735 43.5441 23.4842 43.4782 23.695 43.3728L23.8399 43.2675L23.9321 43.0962V43.0172" fill="#D71718"/>
<path d="M6.9671 44.0182V43.8338L7.01978 43.7416L7.08564 43.6626L7.13833 43.6099L7.00661 44.1631L6.9671 44.005M7.96811 42.8723L7.71786 42.9777L7.69152 42.8986L7.71786 42.7537L7.75737 42.6352L7.79689 42.5298L7.82323 42.4113L7.73103 42.1479L7.54663 42.0557C7.52029 42.1742 7.48078 42.3191 7.44126 42.5167C7.36224 42.8986 7.29638 43.162 7.25687 43.2938C7.1515 43.3991 7.0593 43.5177 6.99344 43.6494C6.92759 43.7811 6.8749 43.9128 6.83539 44.0709L6.76953 44.3475V44.545L6.8749 44.6241H6.92759C7.04613 44.466 7.16467 44.2289 7.29638 43.9391C7.45444 43.5572 7.55981 43.3201 7.61249 43.2279C7.61249 43.2279 7.70469 43.162 7.88909 43.0567L8.03397 42.9118L7.98128 42.8855" fill="#D71718"/>
<path d="M16.0684 30.6099H16.3054L16.5162 30.8469L16.4898 31.0709C16.4767 31.2026 16.2528 31.3079 15.8445 31.3738H15.6864L15.5547 31.2289V31.1499L16.0815 30.6099H16.0684Z" fill="#D71718"/>
<path d="M17.9123 30.6099C18.202 30.7547 18.3338 30.926 18.3206 31.1499C17.5698 31.9928 17.1747 32.5592 17.1352 32.849H17.2142C17.5435 32.6909 17.8201 32.4933 18.0572 32.2299C18.3601 32.3353 18.4918 32.546 18.4523 32.849L17.5567 34.7061H17.9386C18.2284 34.9037 18.3601 35.0881 18.3469 35.2461H18.426L19.3479 33.8631L19.664 33.086H19.8221L19.7958 33.31C19.4533 35.2066 18.966 36.1681 18.3338 36.1681L17.7674 35.009L17.4645 34.93C17.201 35.3252 16.9376 35.6017 16.6742 35.773L16.5293 35.6149L16.5688 35.312C16.7532 34.8115 17.0693 34.2188 17.5303 33.5339V33.4548L17.4513 33.5339H17.2274L16.9508 33.1519L17.0035 32.6909L17.4381 31.5318C17.1747 31.5318 17.0561 31.4792 17.0693 31.3738V31.2948C17.2274 31.2948 17.3196 31.2157 17.3327 31.0577L17.9254 30.5967L17.9123 30.6099Z" fill="#D71718"/>
<path d="M23.0487 30.5046C23.8258 30.4783 24.142 30.8076 23.9971 31.5057C24.8005 31.2554 25.4064 31.1764 25.8147 31.2686C26.0254 31.4398 26.0518 31.611 25.9069 31.7559C25.841 31.7954 25.6171 31.8613 25.2615 31.9666C25.1166 32.0193 25.0113 32.0325 24.9717 32.0325V31.9798C24.9717 31.9798 25.143 31.8218 25.301 31.6242L25.2747 31.5715C24.8927 31.6637 24.4712 31.7954 24.0234 31.9535C22.9565 32.3091 22.2848 32.4671 21.995 32.3881L21.916 32.3354L22.0082 32.2959H22.0741C22.5087 32.151 22.8248 32.0325 23.0224 31.9271L22.8512 31.9008H22.7853L22.8643 31.8086C23.3253 31.4135 23.3385 31.0578 22.917 30.7681L22.8512 30.6495L23.0619 30.5178" fill="#D71718"/>
<path d="M23.8394 32.8227C24.2609 32.77 24.6428 32.7964 25.0116 32.9018C25.0643 33.0466 25.0511 33.1784 24.9589 33.2969C24.6824 33.4681 24.2477 33.6262 23.6287 33.7711C23.4838 33.8106 23.4706 33.7974 23.6155 33.7052C23.8394 33.5735 24.0633 33.3628 24.2872 33.073L24.2477 32.9149C23.7472 32.8886 23.273 33.0862 22.7989 33.4813C22.6672 33.613 22.575 33.7052 22.4959 33.7711C22.351 34.0872 22.2062 34.2057 22.0613 34.153C21.9427 34.1399 21.8637 34.0213 21.7979 33.7974C21.7979 33.6525 21.8769 33.5867 21.9954 33.5735L22.3247 33.4681C22.9042 33.1915 23.4179 32.9676 23.8526 32.8096" fill="#D71718"/>
<path d="M21.995 34.8247C21.995 34.8247 22.2321 34.7852 22.5219 34.6271C22.8117 34.5218 23.0487 34.4164 23.2463 34.3242C23.4439 34.2583 23.6546 34.2452 23.8917 34.2715L23.9707 34.5086C23.7995 34.7984 23.4834 35.1935 23.0487 35.6677C23.3122 35.6677 23.5229 35.6545 23.6941 35.6413C23.8522 35.6413 23.9707 35.6413 24.0498 35.6677C24.2605 35.7599 24.3 35.9706 24.2078 36.2999C24.1288 36.3789 23.9312 36.4974 23.6151 36.6555C23.6019 36.6423 23.4702 36.6687 23.2331 36.7609C23.0356 36.8531 22.8775 36.9189 22.7721 36.9584V36.8926C23.0883 36.6555 23.3517 36.4448 23.5492 36.2604L23.6019 36.1682L23.5097 36.1418C23.2727 36.234 23.0619 36.2867 22.9039 36.313C22.7063 36.3657 22.5351 36.3789 22.377 36.3657C22.2058 36.3262 22.1663 36.1813 22.2585 35.9179C22.4429 35.773 22.6536 35.5359 22.8775 35.2067C22.4429 35.3779 22.1136 35.312 21.916 34.9959V34.9037L22.0082 34.8379" fill="#D71718"/>
<path d="M21.6532 33.1388C21.482 33.4154 21.2976 33.468 21.1264 33.3363C20.9683 32.9807 20.9552 32.7831 21.0869 32.7568C21.3371 32.4275 21.5215 32.1904 21.6532 32.0324L21.7586 31.9402L21.8376 32.0324C21.8508 32.3748 21.7849 32.7436 21.6532 33.1256" fill="#D71718"/>
<path d="M7.74373 31.308C7.91495 31.5714 7.70421 32.4275 7.49347 32.6646V32.7041H7.53299C7.63836 32.4012 8.03349 31.7953 8.28375 31.6241V31.5977L8.37594 31.6768H8.38912L8.42863 31.6504C8.45497 31.466 8.56034 31.3475 8.52083 31.1499C8.4418 30.8206 7.78324 30.1357 7.33542 30.1357H7.26956C7.20371 30.2411 6.99297 30.4255 7.09834 30.5967C7.09834 30.8338 7.59884 31.1104 7.71738 31.2948" fill="#D71718"/>
<path d="M11.221 31.0445C11.142 31.2026 10.8786 31.2816 10.76 31.4002H10.7205V31.2026C10.8654 31.1762 11.1025 31.0972 11.1947 31.0182H11.2342H11.2079L11.221 31.0445ZM11.142 31.6241C10.9971 31.6768 10.8259 31.848 10.7205 31.9402H10.6547C10.76 31.8085 10.9313 31.7426 11.0366 31.6241L11.1025 31.5977H11.142V31.6241ZM10.5625 32.4407H10.523L10.4966 32.4275L10.7205 32.2431H10.76L10.5493 32.4407M10.7864 33.9027H10.9971L11.1025 33.7183H11.1683L11.2342 33.8632V34.1266C11.1025 34.4559 10.5756 34.6534 10.3649 34.93H10.299C10.3517 34.7983 10.2595 34.3637 10.3912 34.1925C10.4176 34.0739 10.6547 33.9817 10.7995 33.9159M9.61414 33.0992H9.60097C9.74585 32.9017 9.93025 32.7831 10.0751 32.6251H10.1015C10.0751 32.9412 9.77219 32.928 9.61414 33.0992ZM9.94342 33.7183H9.90391L9.99611 33.5602H10.0356L9.93025 33.7183M9.96976 32.5987H10.0093L9.96976 32.6514H9.93025L9.98293 32.5987M9.71951 35.312C9.61414 35.5096 8.92924 35.694 8.73167 35.852H8.69215C8.81069 35.6149 8.92924 35.4174 9.08729 35.233L9.219 35.154L9.28486 35.0354L9.37706 34.9959L9.4034 34.8905C9.52194 34.772 9.68 34.7061 9.74585 34.5349L9.78536 34.5744C9.75902 34.8247 9.73268 35.0618 9.70634 35.312M7.71748 34.6798C7.65163 34.8115 7.55943 35.1144 7.46723 35.1935V35.2198H7.44089C7.37503 34.6139 7.62528 34.0476 7.67797 33.5207L7.79651 33.5602L8.33653 33.3627H8.37604C8.13896 33.7973 7.94139 34.2715 7.70431 34.6798M12.0903 30.9655L12.2484 30.8206L12.4064 30.5572L12.3801 30.4387C12.3801 30.4387 12.0903 30.2806 11.9454 30.3333L11.8796 30.4123L11.6689 30.4518C11.4713 30.5309 11.2342 30.6362 11.0366 30.7284L10.8917 30.7679H10.8522C10.8786 30.4518 10.9181 30.004 11.0366 29.6089C11.1025 29.4113 11.0235 29.2532 11.1683 29.1479L11.1157 29.0688C10.8786 29.0688 10.7074 29.1084 10.523 29.1479L10.6415 29.1874H10.6547L10.5625 29.2796L10.523 29.4245H10.4571L10.4439 29.5825L10.4176 29.7011L10.4703 29.8064L10.3649 30.0303C10.299 30.2147 10.1937 30.926 10.22 31.084C9.91708 31.2158 9.62731 31.4002 9.33754 31.5582C9.15315 31.6636 8.98192 31.7031 8.81069 31.8216L8.6263 32.0455V32.309C8.73167 32.2563 8.85021 32.2036 8.96875 32.1773H9.15315C9.48243 32.0192 9.90391 31.8348 10.141 31.6504H10.1673L10.1146 31.848C10.0093 32.0455 9.54828 32.1641 9.39023 32.3485V32.388C9.23217 32.388 9.04778 32.5592 8.90289 32.6514C8.66581 32.7831 8.4419 32.8885 8.21799 33.0334C8.03359 33.1519 7.88871 33.3232 7.67797 33.4285L7.296 33.1651L7.34869 33.0202V32.9807L7.24332 33.0992H7.13795L7.11161 33.1783L6.97989 33.2178L6.8877 33.3627C6.90087 33.6656 7.01941 33.9554 7.07209 34.2451C7.07209 34.4691 7.07209 34.6798 7.07209 34.9037C7.04575 35.1803 7.01941 35.4437 6.99307 35.7203L6.8877 36.0364V36.1023L7.04575 36.1418L7.2038 36.2735C7.32235 36.313 7.3882 36.2472 7.45406 36.2999C7.62528 36.2472 7.6648 36.0101 7.74383 35.8652C7.8492 35.6545 7.99408 35.391 8.09945 35.1671C8.15213 35.0486 8.15213 34.93 8.23116 34.851V34.772L8.17848 34.851V34.8774H8.15213C8.21799 34.6271 8.23116 34.2715 8.29702 34.0607C8.3497 33.8895 8.31019 33.6656 8.40239 33.5471V33.3495L8.63947 33.2836C8.81069 33.2178 9.07412 33.0992 9.219 32.9807H9.25852C9.11363 33.0861 9.04778 33.2441 8.91606 33.3232V33.5734C9.10046 33.6393 9.70634 33.468 9.85122 33.3495C9.79854 33.4944 9.28486 34.0344 9.15315 34.0739C9.13997 34.2056 9.13998 34.4032 9.219 34.4954L9.66682 34.2188H9.77219L9.82488 34.2847L9.79854 34.4032C9.62731 34.4427 9.4956 34.7193 9.37706 34.8378L9.06095 35.0749L9.00826 35.2198L8.70532 35.5227L8.6263 35.6808L8.4419 35.8257L8.27067 36.1813L8.37604 36.313L8.74484 36.155H8.88972L9.70634 35.7335H9.74585C9.69317 36.3657 9.78537 36.9452 9.5878 37.4721L9.62731 37.5775C9.65365 37.8014 9.57463 38.1438 9.50877 38.315C9.41657 38.5785 9.56145 38.8024 9.48243 39.0395C9.41657 39.237 9.36389 39.2765 9.32437 39.5136H9.39023V39.54L9.32437 39.7771H9.4956L9.46926 39.8956L9.56145 40.0537L9.68 40.08L10.0883 39.7507L10.0356 39.698C10.141 39.54 10.062 39.3292 10.062 39.237L10.0883 38.9736C10.062 38.8682 10.1278 38.4599 10.141 38.1965C10.1542 37.9199 10.22 37.4984 10.1937 37.235C10.1542 36.9716 10.2595 37.0506 10.2332 36.8135C10.1937 36.5633 10.3649 36.0496 10.2727 35.8915C10.2859 35.694 10.3122 35.5096 10.3254 35.312L10.7732 35.0354C10.9971 34.8905 11.1947 34.6798 11.3659 34.4954C11.4581 34.4032 11.6689 34.2188 11.6162 33.9949C11.5767 33.7973 11.4054 33.6656 11.3001 33.5207C11.221 33.4022 11.1683 33.2705 11.0761 33.1651C10.9839 33.0597 10.8522 33.0861 10.7995 32.9412H10.76C10.7864 33.0729 10.8522 33.2178 10.9576 33.2836H10.8127L10.5098 33.468H10.4703L10.4966 33.1124C10.6547 32.9675 10.7995 32.8358 10.9576 32.6909L11.2342 32.6119L11.3923 32.4275L11.3659 32.2695L11.1815 32.1509C11.3923 31.8216 11.8269 31.6636 12.0903 31.387H12.1562L12.3011 31.1499C12.2352 31.0709 12.2484 31.005 12.0903 30.9918" fill="#D71718"/>
<path d="M2.73914 34.1267H2.69963V34.0872L2.73914 34.1004V34.1267ZM2.18595 33.5999L2.02789 33.7579C1.77764 34.0609 1.52739 34.3111 1.23762 34.5745H1.19811C1.51422 34.0609 1.93569 33.5999 2.23863 33.073L2.18595 33.5867M3.04208 32.3486L3.18696 32.5857C3.16062 32.7437 3.06842 32.8096 2.94988 32.8623L2.92354 32.8886C2.91037 32.7964 3.01573 32.5462 3.04208 32.3486ZM4.75434 35.76C4.46457 35.6546 4.30651 35.3121 4.0826 35.1409C3.77967 34.9038 3.4899 34.6799 3.18696 34.456V34.4033H3.09476C2.98939 34.3243 2.92354 34.1662 2.805 34.0872C2.85768 33.7711 3.14745 33.5999 3.37136 33.455L3.93772 32.8096C4.01675 32.6252 3.92455 32.533 3.91138 32.4145C3.75332 32.3618 3.52941 32.454 3.42404 32.4276C3.3055 32.4013 3.25282 32.2828 3.1211 32.2696C3.26599 32.0852 3.45039 31.914 3.60844 31.7296L3.85869 31.5452L4.09578 31.2817L4.267 31.0051C4.28017 30.7285 4.0826 30.6495 3.89821 30.5442C3.55576 30.3729 2.96305 30.228 2.40986 30.3071L2.35717 30.3598C2.35717 30.531 2.51523 30.6232 2.6206 30.7154C2.89719 31.0051 3.17379 31.2422 3.74015 31.2686C3.66112 31.611 3.3055 31.8086 3.1211 32.072L3.08159 31.8349C3.02891 31.5847 2.92354 31.4793 2.68645 31.4003L2.42303 31.3608L2.29132 31.3871L2.37034 31.6505C2.37034 31.7954 2.35717 31.9271 2.344 32.072L2.39669 32.1774L2.344 32.5198C2.344 32.6647 2.31766 32.7964 2.30449 32.9413L2.06741 33.2047C1.79081 33.534 1.51422 33.8501 1.25079 34.1662C1.07956 34.3638 0.855654 34.8116 0.579058 34.8643C0.552716 35.1277 0.618572 35.2199 0.71077 35.4043C0.987366 35.4043 1.50104 35.2463 1.6591 35.1277H1.69861L1.59324 35.3648L1.44836 35.5229L1.36933 35.7204L1.15859 35.9444C0.855654 36.4185 0.592229 36.7478 0.0390378 36.9585L0.0126953 36.9981V37.0376C0.17075 37.0244 0.249777 36.9585 0.38149 36.9585L0.289291 36.9981L0.262949 37.0639C0.81614 37.0376 1.59324 36.3395 1.83032 35.9707C1.90935 35.8522 1.90935 35.76 2.00155 35.6678V35.6019H1.92252L1.98838 35.5229H2.08058L2.22546 35.299L2.29132 35.0224L2.38352 34.9433V34.7458C2.46254 34.6009 2.54157 34.4297 2.60743 34.2848L2.66011 34.2584C2.79182 34.6009 2.97622 34.9038 3.18696 35.1936C3.34502 35.4175 3.63478 35.6282 3.72698 35.8917H3.79284C3.81918 36.0761 4.02992 36.1946 4.10895 36.3263L4.30651 36.3922C4.58311 36.3922 4.78068 36.1419 4.96508 36.0497C5.12313 35.9707 5.25484 35.9575 5.39973 35.8653C5.49192 35.8126 5.51827 35.7336 5.64998 35.7073V35.6414C5.38656 35.6678 5.09679 35.8785 4.76751 35.76" fill="#D71718"/>
<path d="M15.6993 33.3101H15.6202C15.5017 33.3101 15.449 33.0993 15.449 32.691L15.8442 32.612H15.9232L15.6993 33.3101ZM14.7773 34.074L14.5402 34.153H14.4612L14.7773 33.3101H14.8563L14.7773 34.0872V34.074ZM16.5686 31.769H16.4895C16.1471 31.8086 15.7388 32.0061 15.2646 32.3881L14.9222 32.0061L14.6719 32.1642C14.2768 33.8633 13.9475 34.7062 13.7104 34.7062L13.6709 35.0882H13.9738L13.9343 35.5492L13.8158 35.9312C13.9212 36.2868 14.0265 36.4712 14.1451 36.4712H14.3031L14.3821 36.3921L14.3558 35.154L14.3821 34.8379L14.6192 34.7589H14.6983L14.5665 35.2199C14.6587 35.5492 14.9617 35.9575 15.5149 36.458H15.5939L15.6861 36.379L15.6202 35.536L15.6466 35.3121C15.6729 35.0487 15.7651 34.9038 15.9232 34.8511L15.8046 34.4691V34.3901C16.0681 34.1794 16.2129 33.995 16.2525 33.8501L16.2261 33.3891C16.2393 33.2047 16.3973 32.9413 16.6871 32.612L16.7266 32.23C16.753 31.9666 16.6871 31.8217 16.5422 31.769" fill="#D71718"/>
</g>
<defs>
<clipPath id="clip0_583_2590">
<rect width="26" height="44.5978" fill="white"/>
</clipPath>
</defs>
</svg>
