<svg width="81" height="46" viewBox="0 0 81 46" fill="none" xmlns="http://www.w3.org/2000/svg">
<g clip-path="url(#clip0_583_2360)">
<path d="M8.42658 36.3956C8.90225 32.3516 12.8435 29.8915 17.1246 28.7794C19.1632 28.2739 21.4396 27.7685 22.4589 27.5663C23.5121 27.3304 25.3469 27.0945 26.0264 26.9934C24.7353 26.8923 23.5801 26.0835 23.2743 25.6791C21.0319 25.9487 20.3523 26.0498 19.1971 26.2857C15.9014 26.8586 4.62121 28.9816 4.927 37.2718C5.23279 44.1802 17.4983 45.326 22.4249 45.5282C22.7647 45.5282 22.9685 45.5282 23.1384 45.4608C11.7563 44.6857 7.91693 40.8776 8.46055 36.3956" fill="#0C68AE"/>
<path d="M1.76669 37.0359C-0.713591 28.5436 11.484 21.9722 19.8762 18.5348C23.6136 17.0183 26.4336 15.7714 29.5595 14.2886C29.5595 14.2886 30.3749 13.8505 30.3749 13.8168C34.4181 10.8513 39.0049 7.85201 39.5486 0.0336914C35.6073 5.39193 27.317 8.8293 17.3279 13.9853C7.50872 19.0403 -0.883474 26.0498 0.0678684 33.767C0.781375 42.5289 9.81913 44.8542 16.4106 45.3934C10.5326 44.5846 3.39757 42.4615 1.76669 37.0022" fill="#D3171A"/>
<path d="M3.15995 34.8455C3.39779 28.948 13.149 24.8704 22.9343 22.1407C23.7157 19.5458 27.1474 16.8162 30.3751 13.7832C27.2493 15.2997 23.5798 16.9847 19.8764 18.5012C11.4842 21.9722 -0.713368 28.5436 1.76692 37.036C3.36381 42.4953 10.5329 44.6184 16.4108 45.4272C17.4641 45.5283 18.4834 45.562 19.4007 45.562C11.8919 45.0228 2.85417 42.7649 3.19393 34.8455" fill="#F4D924"/>
<path d="M22.4244 45.4945C17.9734 45.2923 8.15424 44.2476 6.08167 39.1252C5.84383 38.586 5.67395 38.2827 5.57202 37.3392C5.43612 36.1934 5.67395 35.1824 5.97974 34.2725C7.98435 28.6446 16.4105 26.8586 19.2646 26.3531C20.9974 26.0498 21.0993 25.9487 23.2738 25.6454C22.9 25.1399 22.6622 24.23 22.6962 23.556C22.6962 23.1516 22.7981 22.5787 22.934 22.1743C12.6731 24.7018 3.4315 28.9816 3.15969 34.8791C2.81992 42.7648 11.8577 45.0564 19.3665 45.5619C20.6576 45.5619 21.7109 45.5619 22.3904 45.4945" fill="#6CAB2F"/>
<path d="M74.1028 38.6535L75.36 37.5077L74.9183 37.2381C73.899 36.5304 73.2874 36.7326 72.1322 37.5077V36.2608H78.5198C79.0294 36.2608 79.0974 36.2271 79.0974 36.6315V37.9458L80.7283 38.0469V36.3956C80.6943 36.0249 80.7622 35.5868 80.9321 35.1487H76.3793C76.2434 34.8454 76.2094 34.5758 76.2094 34.5758H74.3067C74.3747 34.778 74.4766 34.9465 74.6125 35.1487H71.5886L70.5693 36.2271L70.5013 39.3612C71.0789 39.0242 72.2341 38.3165 72.8797 38.2154C73.4573 38.1143 73.831 38.4513 74.1368 38.7209M77.5685 36.7326L75.7677 37.6088C76.787 38.7883 77.1268 39.159 79.709 38.7883C80.1846 38.7209 80.0487 38.5187 79.7769 38.5187C78.18 38.4176 78.0101 37.811 77.6024 36.7663M80.9661 45.2586L80.8302 44.1465C80.6943 43.0344 80.0148 42.5964 78.6557 42.529C77.8403 42.4953 76.9908 42.4616 76.1075 42.4616C76.1414 41.855 76.2094 41.2147 76.3793 40.6755H79.3013L79.8109 39.4623H71.8944L71.4187 40.6755H74.5785V42.4953C73.5252 42.4953 72.472 42.5626 71.3168 42.63L70.7052 44.3824C73.0156 43.7421 75.9376 43.7758 77.6364 43.8432C79.2333 43.9443 79.8109 44.0454 80.3885 44.8205L80.7622 45.326C80.8982 45.5619 81.0001 45.4608 80.9661 45.2586ZM60.852 40.6755H59.9007L59.8327 42.0909H60.9539L60.818 40.6755H60.852ZM69.4481 43.6073C69.2442 42.6974 68.7346 42.6637 67.6473 42.4953L67.5114 38.0469L67.8851 36.9685H63.706L63.808 44.8542C63.808 45.4945 64.0458 44.3824 64.3176 43.6747C64.5894 43.0344 65.0991 42.8322 65.0991 41.855L65.167 38.1143H66.1184V43.8432C67.8851 43.7084 68.9724 43.4051 69.3801 44.5846C69.584 45.1575 69.6179 45.1238 69.55 44.5846C69.516 44.1802 69.482 43.9443 69.4141 43.6073M68.6666 35.115H66.2883V34.6769L64.9292 34.441V35.115H63.0605L62.6867 36.2608H68.2929L68.7006 35.115H68.6666ZM60.886 39.2264L61.0219 38.0806H59.9007V39.2264H59.1532C59.1532 38.6872 59.1532 38.148 59.1532 37.6762H61.7354V39.2264H60.92H60.886ZM59.1532 36.5304C59.1532 36.2945 59.1532 36.0923 59.1532 35.8901C59.1532 35.8901 60.3763 35.9912 61.3956 35.8901L61.6674 34.4747C60.9539 34.778 59.8327 34.8454 58.8134 34.9128L57.93 35.7553L57.8621 39.2601H56.9447L57.3524 40.4059H57.8281L57.7262 45.3934C57.7262 45.3934 57.7941 46.0674 57.8961 45.1575C57.998 44.4161 58.2358 44.0791 58.7455 43.6747C59.2211 43.2703 59.1532 43.2366 59.1532 42.8322C59.1532 42.0235 59.1192 41.2147 59.0852 40.4059H61.6674V42.6974C60.5802 42.5964 59.9346 42.7985 59.9346 42.7985C59.6628 42.8659 59.6289 42.9333 59.9346 42.967C61.0219 43.1018 61.9053 43.5399 62.6188 44.1802C62.9246 44.4498 63.1624 44.8205 63.1284 44.4498L62.8226 37.6425L63.2304 36.5304H59.1532ZM51.0328 36.8674H48.7224V36.2608H51.0328V36.8674ZM48.0429 41.5854C48.2127 41.9898 48.6205 42.192 49.1301 42.2594V42.63H47.839C47.839 42.63 47.907 42.1583 48.0768 41.5854M49.0622 39.4623H49.4699L49.3679 40.0689C48.9942 40.1363 48.6884 40.2711 48.4166 40.4733C48.5865 40.1026 48.7903 39.7319 49.0622 39.496M50.4552 40.6418C50.8969 41.2147 49.4699 41.9898 49.1641 41.5854C48.8243 41.0799 50.0815 40.17 50.4552 40.6418ZM55.6876 43.5736C55.4497 42.8322 54.6003 42.7648 54.1247 42.6637L53.8189 41.181C54.3285 40.8103 54.7023 40.3722 54.8721 39.5634L55.042 38.5524H53.649L53.5471 39.3275C53.5471 39.3275 53.5471 39.5297 53.4791 39.5971L53.1393 38.0132H55.11L54.7702 36.5304H53.3092L53.3772 36.8674H52.4598V36.2608H55.144L55.5177 35.115H52.4598V34.6769L51.0668 34.441V35.115H48.7564V34.6769L47.3633 34.441V35.115H44.6112L44.2035 36.2608H47.3633V36.8674H46.9896C46.0722 36.8674 45.5626 37.1033 45.5626 38.1817V39.6308H45.2568V38.2491H44.0676V39.7656C44.0676 40.1026 43.9317 40.6418 43.9317 40.6418H45.6305V41.2484H44.6112C44.1016 41.2484 44.0336 41.2821 44.0336 42.2594V44.6183C44.0336 45.2249 44.2035 45.0564 44.3394 44.6183L45.0529 42.3605H45.6305V45.326C45.6985 46.1011 45.8684 46.0674 46.0043 45.326L46.9216 39.3949H47.6012C46.9556 40.6755 46.9896 42.3605 46.9216 43.7421H51.3046V42.5627H49.9795L50.0815 42.1583C50.0815 42.1583 50.3193 42.1246 50.4552 42.0909C51.2367 41.855 51.8822 41.3495 51.8143 40.6755C51.7463 40.1026 51.2027 39.9004 50.5571 39.8667L50.727 39.3612H51.5424L51.3726 38.2828H47.0915C47.1934 37.9795 47.3973 37.9121 47.805 37.9121H51.7123L52.3239 41.0125C52.3239 41.0125 52.2899 41.0462 52.256 41.0799C51.9162 41.518 51.6444 41.855 51.6784 42.6637C51.6784 43.2366 51.6783 44.1128 51.7463 44.6857C51.7463 45.326 51.8143 46.3033 52.0181 45.1238C52.12 44.4498 52.222 43.7084 52.3239 43.1018C52.3579 42.7311 52.4258 42.3942 52.5617 42.1583L52.8336 43.5062C52.8675 43.7758 52.9015 43.8095 53.2413 43.8095C53.7169 43.8095 54.0567 43.8095 54.3965 43.8095C55.076 43.9106 55.4158 44.0454 55.7555 44.8542C55.9254 45.2586 56.0273 45.3597 55.9594 44.8542C55.8914 44.4161 55.8235 43.8769 55.6876 43.4725M34.3164 41.4843C33.9766 41.6528 33.5349 41.4843 33.433 41.2147C33.1272 40.4733 34.0106 39.9678 34.7241 40.0689C34.758 40.5407 34.826 41.3158 34.3164 41.518M36.0492 40.3385C36.7966 40.9114 37.0005 41.181 37.5441 41.9898C38.0198 41.855 38.6653 41.6528 38.9032 41.6191V38.5524H39.7866V42.8322C37.782 42.3268 35.6754 42.2931 33.1272 42.8659V41.6191C34.2824 42.8659 35.8793 41.7876 36.0492 40.3385ZM36.0831 38.5187H37.5441V40.3048C37.1364 39.9341 36.6268 39.6308 36.0831 39.4286V38.5187ZM36.0831 36.2608H37.5441V37.4066H36.0831V36.2608ZM32.9913 38.5187H34.7241V39.2264C34.4523 39.2264 34.1465 39.2938 33.8407 39.3612C33.4669 39.4623 33.1951 39.6645 33.0252 39.9004V38.5187H32.9913ZM30.7148 36.2608H34.7241V37.4066H31.5303L31.1226 38.5524H31.7341L31.5643 44.3824C31.5643 44.5846 31.5982 44.5846 31.7341 44.5172L33.1612 43.7421V43.5399C37.0345 42.7985 39.8205 44.1465 40.8738 44.7194C41.3495 44.989 41.3495 44.7868 41.3495 44.5172L41.2136 38.5187L41.6213 37.3729H38.9032V36.2271H41.7232L42.1309 35.0813H31.1565L30.7488 36.2271L30.7148 36.2608Z" fill="#040000"/>
<path d="M35.3011 27.1619L35.0293 27.6337H35.8108C35.5729 27.937 35.403 28.2403 35.2671 28.5773C35.1312 28.8806 35.0633 29.2176 35.0293 29.5545C35.2332 29.4871 35.437 29.4534 35.6069 29.4197C35.8108 29.4197 36.0146 29.386 36.2185 29.386C36.4563 29.386 36.6941 29.4534 36.898 29.5882C37.1019 29.723 37.2717 29.9252 37.4416 30.1611C37.5775 30.3633 37.6795 30.5992 37.7814 30.8688C37.8833 31.1384 37.9853 31.4754 38.0532 31.8124C38.1212 32.1831 38.1891 32.4864 38.2571 32.756C38.291 33.0256 38.359 33.2615 38.393 33.43C38.393 33.4637 38.393 33.4974 38.4269 33.4974C38.4269 33.4974 38.4609 33.4974 38.4949 33.4974C38.5629 33.4974 38.5629 33.43 38.5629 33.3289C38.359 32.3516 38.1212 31.2732 37.8493 30.1274C37.6455 29.2512 37.1698 28.8132 36.4223 28.8132H35.9467C35.9467 28.8132 35.6748 28.8132 35.505 28.8806C35.7088 28.3077 36.0826 27.9033 36.6262 27.6H38.359L38.5629 27.1282H35.2671L35.3011 27.1619Z" fill="#040000"/>
<path d="M39.1072 27.1619L38.9033 27.7348H39.2091C39.2091 27.7348 39.311 27.7348 39.311 27.8359C39.311 27.8359 39.311 27.8696 39.311 27.9033C39.311 27.9033 39.311 27.937 39.311 27.9707C39.5149 27.8696 39.6508 27.5663 39.7867 27.1619H39.1412H39.1072Z" fill="#040000"/>
<path d="M44.815 27.1619L44.5771 27.6337H45.1547C44.8829 28.0718 44.747 28.7458 44.747 29.6894C44.9169 29.6557 45.0868 29.5883 45.2567 29.5883C45.4266 29.5883 45.5625 29.5546 45.7324 29.5546C45.9702 29.5546 46.174 29.5546 46.3779 29.6557C46.8536 29.7905 47.3632 30.1275 47.9068 30.6329C47.9748 30.7003 48.0088 30.7003 48.0767 30.6666C48.0767 30.5992 48.0767 30.5655 48.0428 30.4981C47.8049 30.1948 47.5671 29.9253 47.3292 29.6894C47.0914 29.4872 46.8536 29.3187 46.6157 29.1839C46.4459 29.1165 46.31 29.0491 46.1401 29.0154C45.9702 28.9817 45.8003 28.948 45.6644 28.948C45.5625 28.948 45.4605 28.948 45.3586 28.948C45.2567 28.948 45.1548 28.948 45.0528 28.9817C45.1887 28.3077 45.4266 27.8022 45.8343 27.5663H47.8049L48.0428 27.0945H44.849L44.815 27.1619Z" fill="#040000"/>
<path d="M49.0621 27.1619L48.8242 27.6337H49.4358C49.13 28.0381 48.9261 28.5435 48.8242 29.1838C48.9941 29.1838 49.164 29.1838 49.2999 29.2175C49.4358 29.2175 49.6057 29.2849 49.7416 29.3523C49.8435 29.4197 49.9794 29.4871 50.1153 29.5882C50.2512 29.6893 50.3871 29.7904 50.4891 29.9252C50.523 29.9252 50.557 29.9589 50.591 29.9252C50.591 29.9252 50.591 29.8915 50.591 29.8578C50.591 29.8578 50.591 29.8241 50.591 29.7904C50.4211 29.4534 50.2173 29.1838 49.9794 28.9816C49.7416 28.7794 49.4698 28.6783 49.13 28.6109C49.198 28.4761 49.2659 28.3414 49.4018 28.2066C49.5037 28.0718 49.6397 27.937 49.7756 27.8359C50.0813 28.0718 50.4551 28.4088 50.7949 28.8468C51.1686 29.2849 51.5763 29.8578 51.984 30.5318C51.984 30.5655 52.018 30.5992 52.052 30.5992C52.052 30.5992 52.052 30.5655 52.052 30.4981V27.6674L52.2219 27.1956H51.6103L51.4064 27.6674C51.7122 27.7348 51.8821 28.5435 51.8821 30.1274C51.6443 29.5882 51.3725 29.1164 51.1346 28.712C50.8628 28.3077 50.625 27.9707 50.3532 27.6674H50.9987L51.2026 27.1956H48.9601L49.0621 27.1619Z" fill="#040000"/>
<path d="M52.8669 27.1619L52.6631 27.7348H52.9689C52.9689 27.7348 53.0708 27.7348 53.0708 27.8359C53.0708 27.8359 53.0708 27.8696 53.0708 27.9033C53.0708 27.9033 53.0708 27.937 53.0708 27.9707C53.2747 27.8696 53.4106 27.5663 53.5465 27.1619H52.9009H52.8669Z" fill="#040000"/>
<path d="M54.1925 27.1619L54.0226 27.6337H55.2798C55.2798 27.6337 55.4157 27.8022 55.4496 27.9033C55.4836 28.0044 55.5176 28.1392 55.5516 28.2403C55.3477 28.1729 55.1439 28.1392 54.94 28.1392C54.7361 28.1392 54.5663 28.2066 54.4304 28.3077C54.1246 28.5099 53.9547 28.8132 53.9887 29.2176C53.9887 29.8241 54.3284 30.1274 54.974 30.1274C55.2118 30.1274 55.4157 30.06 55.5856 29.8915C55.7554 29.7567 55.9253 29.5208 56.0612 29.2176C56.2991 29.4534 56.5029 29.6893 56.7068 29.9589C56.9106 30.1948 57.1145 30.4644 57.3184 30.7677L57.3863 30.8014C57.3863 30.8014 57.3863 30.8014 57.3863 30.734V27.6L57.5902 27.1282H56.9446L56.7068 27.6C57.0126 27.6 57.1825 28.5436 57.1825 30.3296C56.435 29.1165 55.9253 28.4088 55.6195 28.3077C55.6195 28.2066 55.6875 28.1055 55.6875 28.0044C55.6875 27.9033 55.6875 27.7685 55.6875 27.6H56.1971L56.367 27.1282H54.0566L54.1925 27.1619ZM54.906 28.6447C55.1099 28.6447 55.3137 28.6784 55.4836 28.7458C55.6195 28.8132 55.7894 28.948 55.9593 29.1165C55.6875 29.4871 55.3817 29.6893 54.974 29.6893C54.4643 29.6893 54.1925 29.5208 54.1925 29.2513C54.1925 28.8806 54.4304 28.6784 54.906 28.6784" fill="#040000"/>
<path d="M59.1193 27.1619C58.6097 27.2967 58.3379 27.9033 58.3379 28.9479V31.7113C58.3379 31.7113 58.3379 31.8461 58.4398 31.8461C58.5078 31.8461 58.5417 31.7787 58.5417 31.7113V30.7677C58.5417 30.7677 58.5417 30.4981 58.5417 30.397C58.5417 30.2959 58.5417 30.1948 58.5417 30.1274C58.5417 29.8915 58.5417 29.723 58.5417 29.5545C58.5417 29.4197 58.5417 29.2849 58.5417 29.2175C58.5757 28.2066 58.8815 27.6674 59.3912 27.6H60.1047C59.9688 27.8022 59.8329 28.0718 59.7309 28.3414C59.629 28.6109 59.561 28.9142 59.5271 29.2512C59.663 29.2512 59.7649 29.2512 59.8668 29.2512C59.9688 29.2512 60.0707 29.2512 60.1386 29.2512C60.3085 29.2512 60.4444 29.3186 60.6143 29.386C60.7502 29.4534 60.9201 29.5545 61.124 29.6893C61.3278 29.8241 61.5317 30.0263 61.7695 30.2622C61.7695 29.8915 61.7695 29.5545 61.7695 29.2849V28.8805C61.7695 28.8805 61.7695 28.6446 61.7695 28.5772C61.7695 28.2066 61.7695 27.8696 61.7016 27.6337L61.8714 27.1619H59.1533H59.1193ZM61.09 27.6337C61.3958 27.937 61.5317 28.6783 61.5657 29.7904C60.9541 29.049 60.4105 28.6783 59.8668 28.6783C59.9348 28.4762 60.0367 28.3077 60.1386 28.1055C60.2406 27.937 60.3765 27.7685 60.5464 27.6H61.09V27.6337Z" fill="#040000"/>
<path d="M63.8421 27.1619C63.1626 27.4989 62.7888 27.9707 62.6189 28.6109C62.6189 28.7457 62.585 28.9142 62.585 29.049C62.585 29.2175 62.585 29.386 62.6529 29.5545C62.7209 29.723 62.7548 29.8915 62.8568 30.0937C62.9587 30.0263 63.0267 29.9252 63.0946 29.8241C63.1626 29.723 63.1965 29.6219 63.2305 29.5208C63.0946 29.2849 63.0267 29.049 63.0267 28.8131V28.7457C63.0267 28.7457 63.0267 28.712 63.0267 28.6783C63.1286 28.1729 63.3664 27.8022 63.7741 27.6337H64.7255C65.0652 27.8696 65.2351 28.1392 65.2351 28.4761C65.2351 28.5772 65.2351 28.6783 65.2012 28.7794C65.2012 28.8805 65.1332 29.0153 65.0652 29.1164C64.9633 29.0827 64.8954 29.049 64.7934 29.0153C64.6915 29.0153 64.5896 28.9816 64.4876 28.9816C64.0459 29.0153 63.7741 29.2512 63.7402 29.6893C63.8761 29.6556 63.978 29.6219 64.1139 29.5882C64.2158 29.5882 64.3517 29.5882 64.4876 29.5882C64.5216 29.5882 64.5556 29.5882 64.6236 29.5882C64.6575 29.5882 64.7255 29.5882 64.7595 29.5882C65.0313 29.6219 65.2691 29.7567 65.473 29.9926C65.6768 30.1948 65.8467 30.4981 65.9826 30.9025C65.9826 30.9699 66.0166 31.0036 66.0845 30.9699C66.1185 30.9699 66.1525 30.9025 66.1185 30.8351C65.9486 30.0937 65.6768 29.5545 65.2351 29.2849C65.439 28.9816 65.5749 28.6783 65.6089 28.4761C65.6089 28.4761 65.6089 28.4425 65.6089 28.4088C65.6089 28.4088 65.6089 28.3413 65.6089 28.3077C65.6089 28.2066 65.6089 28.1055 65.5749 28.0044C65.5749 27.9033 65.5069 27.8022 65.473 27.6674L65.7448 27.1956H63.8761L63.8421 27.1619Z" fill="#040000"/>
<path d="M66.6277 27.1619L66.4238 27.7348H66.7296C66.7296 27.7348 66.8315 27.7348 66.8315 27.8359C66.8315 27.8359 66.8315 27.8696 66.8315 27.9033C66.8315 27.9033 66.8315 27.937 66.8315 27.9707C67.0354 27.8696 67.1713 27.5663 67.3072 27.1619H66.6617H66.6277Z" fill="#040000"/>
<path d="M69.0403 27.1619C68.3608 27.4989 67.9871 27.9707 67.8172 28.6109C67.8172 28.7457 67.7832 28.9142 67.7832 29.049C67.7832 29.2175 67.7832 29.386 67.8512 29.5545C67.8851 29.723 67.9531 29.8915 68.055 30.0937C68.1569 30.0263 68.2249 29.9252 68.2928 29.8241C68.3608 29.723 68.3948 29.6219 68.4288 29.5208C68.2928 29.2849 68.2249 29.049 68.2249 28.8131V28.7457C68.2249 28.7457 68.2249 28.712 68.2249 28.6783C68.3268 28.1729 68.5647 27.8022 68.9724 27.6337H69.9237C70.2635 27.8696 70.4334 28.1392 70.4334 28.4761C70.4334 28.5772 70.4334 28.6783 70.3994 28.7794C70.3994 28.8805 70.3314 29.0153 70.2635 29.1164C70.1616 29.0827 70.0936 29.049 69.9917 29.0153C69.8897 29.0153 69.7878 28.9816 69.6859 28.9816C69.2442 29.0153 68.9724 29.2512 68.9384 29.6893C69.0743 29.6556 69.1762 29.6219 69.3121 29.5882C69.4141 29.5882 69.55 29.5882 69.6859 29.5882C69.7199 29.5882 69.7538 29.5882 69.8218 29.5882C69.8558 29.5882 69.9237 29.5882 69.9577 29.5882C70.2295 29.6219 70.4673 29.7567 70.6712 29.9926C70.8751 30.1948 71.0449 30.4981 71.1809 30.9025C71.1809 30.9699 71.2488 31.0036 71.2828 30.9699C71.3168 30.9699 71.3507 30.9025 71.3168 30.8351C71.1469 30.0937 70.8751 29.5545 70.4334 29.2849C70.6372 28.9816 70.7731 28.6783 70.8071 28.4761C70.8071 28.4761 70.8071 28.4425 70.8071 28.4088C70.8071 28.4088 70.8071 28.3413 70.8071 28.3077C70.8071 28.2066 70.8071 28.1055 70.7731 28.0044C70.7731 27.9033 70.7052 27.8022 70.6712 27.6674L70.943 27.1956H69.0743L69.0403 27.1619Z" fill="#040000"/>
<path d="M75.53 27.1619H72.2683L72.0984 27.6337H72.71C72.3702 28.1055 72.1663 28.6109 72.0984 29.0827H72.2343C72.2343 29.0827 72.5061 29.0827 72.642 29.1164C72.7779 29.1164 72.9138 29.1838 73.0497 29.2175C73.1856 29.2512 73.3215 29.3523 73.4914 29.4534C73.6613 29.5545 73.8312 29.6893 74.0011 29.8241C74.0011 29.6219 74.0011 29.4197 74.0011 29.2175C74.0011 29.0153 74.0011 28.8468 74.0011 28.6446C74.0011 28.4761 74.0011 28.3077 74.0011 28.1392C74.0011 27.9707 74.0011 27.8022 73.9671 27.6337H74.6466H74.7146C74.9524 27.6337 75.0883 28.8468 75.1223 31.2732C74.8505 31.071 74.5787 30.9025 74.2729 30.734C73.9671 30.5655 73.6613 30.4307 73.3555 30.2959C73.1177 30.1948 72.8798 30.1274 72.71 30.1274C72.3362 30.1274 72.0984 30.3633 72.0644 30.8014C72.2343 30.734 72.4382 30.7003 72.642 30.6666C72.7439 30.6666 72.8459 30.6666 72.9478 30.6666C73.0497 30.6666 73.1856 30.7003 73.2876 30.734C74.0011 30.9025 74.6466 31.1721 75.1903 31.5091C75.2242 31.5091 75.2582 31.5428 75.2922 31.5091C75.2922 31.5091 75.2922 31.4754 75.2922 31.4417V27.6674L75.4621 27.1956L75.53 27.1619ZM73.5594 27.6337C73.7632 27.9707 73.8652 28.5435 73.8312 29.4197C73.6273 29.1838 73.3895 29.0153 73.1517 28.8805C72.9138 28.7457 72.676 28.6446 72.4042 28.6109C72.5741 28.274 72.8459 27.937 73.2196 27.6337H73.5254H73.5594ZM72.0304 31.0036C72.0304 31.0036 71.9965 31.0036 71.9625 31.0036C71.9625 31.0036 71.9285 31.0036 71.8945 31.0036C71.8945 31.071 71.8945 31.1047 71.8945 31.1047C71.9625 31.1384 72.0304 31.2395 72.1663 31.3743C72.3022 31.5091 72.4721 31.6776 72.71 31.8798C72.9138 32.082 73.1177 32.2842 73.2876 32.419C73.4575 32.5538 73.5934 32.6886 73.7293 32.7897C74.103 33.093 74.4088 33.2278 74.6126 33.2278C74.8845 33.2278 75.0883 33.1604 75.2242 33.0256C75.3941 32.8908 75.4621 32.7223 75.4621 32.4864C75.4621 32.2842 75.4621 32.1157 75.3601 32.0146C75.2922 31.8461 75.1563 31.7787 74.9524 31.8124C74.6127 31.8124 74.4428 31.9809 74.4428 32.3179V32.419C74.4428 32.419 74.6806 32.2505 74.8505 32.2505C75.0883 32.2505 75.2242 32.3516 75.2582 32.5538C75.2582 32.7223 75.0543 32.8234 74.6806 32.8234C74.2729 32.8234 73.8991 32.6549 73.5254 32.3179C73.2196 32.0146 72.9138 31.7787 72.676 31.5765C72.4042 31.3743 72.2003 31.1721 71.9965 31.0373" fill="#040000"/>
<path d="M79.7763 27.1619H79.1987L79.0628 27.6337C79.0628 27.6337 79.3006 27.937 79.3686 28.2066C79.3686 28.3414 79.4026 28.5435 79.4365 28.8131C79.4365 29.0827 79.4365 29.386 79.4365 29.7567C79.1987 29.4871 78.9949 29.2512 78.791 29.0827C78.5871 28.9142 78.3833 28.7457 78.1794 28.6783C78.2134 28.5435 78.2474 28.4424 78.2814 28.3414C78.2814 28.2403 78.2814 28.1392 78.2814 28.0381C78.2814 27.9707 78.2814 27.8696 78.2814 27.8022C78.2814 27.7348 78.2474 27.6674 78.1794 27.6L78.3493 27.1619H76.9902C76.7184 27.4315 76.5146 27.6674 76.3787 27.8696C76.2428 28.1055 76.1748 28.3077 76.1748 28.5098C76.1748 28.8468 76.2088 29.1164 76.3107 29.3523L76.7864 29.049C76.7864 29.049 76.6505 28.8131 76.6165 28.712C76.5825 28.6109 76.5485 28.5099 76.5485 28.4088C76.5485 28.1055 76.6845 27.8359 76.9563 27.6337H77.7038C77.7038 27.6337 77.9756 27.8696 78.0095 28.0381C78.0435 28.1729 78.0435 28.3751 78.0095 28.6446C77.9416 28.6446 77.8736 28.6446 77.8397 28.6446C77.7717 28.6446 77.7377 28.6446 77.6698 28.6446C77.33 28.6446 77.1261 28.8805 77.1261 29.2175C77.296 29.1501 77.4659 29.1164 77.7038 29.1164C77.7038 29.1164 77.7717 29.1164 77.8057 29.1164C77.8057 29.1164 77.8736 29.1164 77.9076 29.1164C78.3493 29.1501 78.8929 29.4871 79.4705 30.0937C79.5045 30.1274 79.5385 30.1611 79.6064 30.1611C79.6404 30.1611 79.6744 30.1274 79.6744 30.06V27.7348L79.8103 27.2293L79.7763 27.1619Z" fill="#040000"/>
<path d="M80.2527 27.1619L80.0488 27.6337C80.3206 27.6337 80.4566 28.0044 80.5245 28.6783C80.5245 29.0153 80.5925 29.5882 80.5925 30.3633C80.5925 31.1384 80.5925 32.1494 80.5925 33.3963C80.5925 33.4637 80.5925 33.4974 80.6944 33.5311C80.7623 33.5311 80.7963 33.4974 80.7963 33.43V27.6674L80.9662 27.1956H80.2187L80.2527 27.1619Z" fill="#040000"/>
<path d="M33.3984 27.6337C33.6702 27.9033 33.8401 28.4425 33.8401 29.2849V30.1274C33.6363 29.8578 33.4324 29.6219 33.2285 29.4197C33.0247 29.2175 32.8548 29.0828 32.6509 28.9817C32.3451 28.8132 31.9374 28.7458 31.4618 28.7458H31.2579C31.3258 28.5099 31.4278 28.3077 31.5637 28.1392C31.6996 27.9707 31.9034 27.8022 32.1073 27.6674H33.3984V27.6337ZM32.4471 27.1619C32.4471 27.1619 32.4131 27.0608 32.3791 26.9934C32.3791 26.8923 32.3112 26.8249 32.2772 26.7575C32.3791 26.5216 32.583 26.4205 32.8888 26.4542H33.0586C33.2965 26.4542 33.4664 26.4542 33.6363 26.3868C33.8061 26.3531 33.942 26.2857 34.01 26.2183C34.2139 26.0498 34.3498 25.7128 34.4177 25.2073C34.4177 25.1736 34.4177 25.1399 34.3498 25.1399C34.3498 25.1399 34.3498 25.1399 34.3158 25.1399C34.3158 25.1399 34.3158 25.1399 34.3158 25.1736C34.3158 25.3421 34.2139 25.4432 34.1459 25.5443C34.0779 25.6454 34.01 25.7128 33.9081 25.7802C33.7382 25.8476 33.3984 25.915 32.9227 25.9487C32.583 25.9487 32.3451 26.1509 32.2092 26.5553C32.1073 26.3868 32.0054 26.2183 31.9035 26.1172C31.7675 26.0161 31.6656 25.915 31.5637 25.8476C31.4957 25.8476 31.4278 25.8139 31.3598 25.8139C31.2919 25.8139 31.1899 25.8139 31.122 25.8813C30.9861 25.9487 30.8502 26.0835 30.7822 26.2857C31.4278 26.2857 31.9374 26.589 32.3112 27.1619H31.2579L31.0201 27.6337H31.5297C31.2239 28.1055 31.054 28.6447 31.0201 29.2849C31.3258 29.2512 31.5977 29.2175 31.8695 29.2849C32.1073 29.2849 32.3451 29.3523 32.583 29.4534C32.7868 29.5208 33.0247 29.6556 33.2625 29.8241C33.5003 29.9926 33.7382 30.1948 34.01 30.4644C34.01 30.4981 34.0779 30.4981 34.0779 30.4981C34.0779 30.4981 34.0779 30.4644 34.0779 30.4307V27.6674L34.3158 27.1956H32.4811L32.4471 27.1619Z" fill="#040000"/>
<path d="M42.1312 26.6563C42.1312 26.6563 42.369 26.5889 42.5049 26.5889C42.5389 26.5889 42.5729 26.5889 42.6069 26.5889H42.7088C43.1505 26.5889 43.4563 26.5215 43.6601 26.353C43.7621 26.2519 43.864 26.1508 43.932 25.9824C43.9999 25.8139 44.0339 25.6117 44.0679 25.3421C44.0679 25.3084 44.0679 25.2747 44.0339 25.2747C43.9999 25.2747 43.9659 25.2747 43.932 25.3421C43.864 25.6454 43.7281 25.8476 43.5242 25.9487C43.4223 25.9823 43.3204 26.0161 43.1505 26.0497C42.9806 26.0497 42.7768 26.0834 42.5049 26.1171C42.1652 26.1171 41.9273 26.3193 41.7914 26.7237C41.5876 26.3867 41.3837 26.1171 41.1459 26.016C41.1459 26.016 41.0779 25.9824 41.0439 25.9824C41.01 25.9824 40.976 25.9824 40.942 25.9824C40.8741 25.9824 40.7721 25.9824 40.7042 26.0497C40.6362 26.0834 40.5683 26.1508 40.5003 26.2182C40.4324 26.2856 40.3984 26.353 40.3644 26.4541C40.942 26.4541 41.4177 26.7237 41.7914 27.1955H41.0439C40.8061 27.3977 40.6362 27.5999 40.4663 27.8021C40.3304 27.9706 40.2285 28.1391 40.1945 28.3076C40.1606 28.4424 40.1266 28.5772 40.1606 28.7457C40.1606 28.8131 40.1606 28.8805 40.1606 28.9816C40.1606 29.049 40.1945 29.1164 40.2285 29.1501L40.6702 28.7794C40.6702 28.7794 40.5683 28.5772 40.5683 28.4087V28.3413V28.2739C40.5683 28.1728 40.6362 28.0717 40.7042 27.9706C40.7721 27.8695 40.8401 27.7684 40.942 27.701H41.8594C41.8594 27.701 42.0293 27.9032 42.0293 28.0043C42.0293 28.038 42.0293 28.1054 42.0293 28.1728C42.0293 28.2402 42.0293 28.2739 42.0293 28.3413C41.9953 28.3413 41.9273 28.3413 41.8594 28.3413C41.8254 28.3413 41.7575 28.3413 41.7235 28.3413C41.3497 28.4087 41.1459 28.5772 41.1799 28.8805C41.3158 28.8468 41.5196 28.8131 41.7235 28.8131H41.8254C41.8254 28.8131 41.8934 28.8131 41.9273 28.8131C42.1991 28.8131 42.471 28.9142 42.7088 29.049C42.9127 29.1501 43.1165 29.2849 43.3204 29.4534H41.1459L40.976 29.9252H41.3497C41.3497 29.9252 41.2138 30.1948 41.1799 30.3296C41.1459 30.4644 41.0779 30.5992 41.0779 30.734C41.0779 30.8014 41.0779 30.9025 41.0439 31.0036C41.0439 31.1047 41.0439 31.2058 41.0439 31.3069V31.4754C41.0439 31.4754 41.0439 31.5765 41.0439 31.6439C41.2478 31.6439 41.4177 31.5765 41.5536 31.5765C41.6895 31.5765 41.8254 31.5765 41.9273 31.5765C42.1312 31.5765 42.3351 31.5765 42.5049 31.6776C42.8107 31.745 43.1505 32.0146 43.5582 32.4864C43.5922 32.5201 43.6601 32.5538 43.6941 32.5201C43.6941 32.5201 43.6941 32.4527 43.6941 32.3853C43.3543 31.8461 43.0146 31.4754 42.7088 31.3069C42.5049 31.2058 42.3011 31.1384 42.0972 31.1384C41.8594 31.1047 41.5876 31.1047 41.2478 31.1384C41.2478 31.071 41.2478 31.0036 41.2478 30.9699C41.2478 30.9025 41.2478 30.8688 41.2818 30.8351H43.1845L43.3544 30.3633H41.4177C41.4177 30.3633 41.5876 30.0937 41.7575 29.9926H43.3204L43.4223 29.6556C43.4563 29.6893 43.4903 29.6893 43.5582 29.6556C43.6262 29.6219 43.6262 29.5882 43.6262 29.5208V27.701L43.7281 27.2292H43.0825L42.9466 27.701C43.2184 27.8021 43.3883 28.375 43.4223 29.386C43.2184 29.1501 43.0146 28.9142 42.7768 28.7794C42.5729 28.6109 42.3351 28.4761 42.1312 28.375C42.1312 28.3076 42.1991 28.2402 42.1991 28.1728C42.1991 28.1054 42.1991 28.038 42.1991 28.0043C42.1991 27.8695 42.1992 27.7684 42.0972 27.6673L42.2331 27.2292H41.8594C41.8254 27.1281 41.7914 27.0607 41.7235 26.9596C41.7914 26.8585 41.8594 26.7911 41.9613 26.7237" fill="#040000"/>
</g>
<defs>
<clipPath id="clip0_583_2360">
<rect width="81" height="46" fill="white"/>
</clipPath>
</defs>
</svg>
