<svg width="123" height="46" viewBox="0 0 123 46" fill="none" xmlns="http://www.w3.org/2000/svg">
<g clip-path="url(#clip0_583_2626)">
<path d="M115.511 15.7092C116.152 13.684 118.962 11.9844 120.712 11.9844C122.05 11.9844 123 12.7071 123 14.0811V16.2095C123 17.5835 121.781 18.3062 120.411 18.3062C117.3 18.3062 115.78 20.9747 115.78 24.1753V29.703C115.78 31.0769 115.059 31.7996 113.698 31.7996H111.299C109.929 31.7996 109.209 31.0769 109.209 29.703V14.2637C109.209 12.8898 109.929 12.167 111.299 12.167H113.421C114.79 12.167 115.511 12.8898 115.511 14.2637V15.7012" fill="#5D5B53"/>
<path d="M72.4688 15.7092C73.11 13.684 75.9204 11.9844 77.67 11.9844C79 11.9844 79.9579 12.7071 79.9579 14.0811V16.2095C79.9579 17.5835 78.7387 18.3062 77.3613 18.3062C74.25 18.3062 72.7301 20.9747 72.7301 24.1753V29.703C72.7301 31.0769 72.0096 31.7996 70.6401 31.7996H68.2413C66.8718 31.7996 66.1514 31.0769 66.1514 29.703V14.2637C66.1514 12.8898 66.8718 12.167 68.2413 12.167H70.363C71.7326 12.167 72.453 12.8898 72.453 14.2637V15.7012" fill="#5D5B53"/>
<path d="M103.771 9.99896C101.039 9.99896 98.791 7.74344 98.791 5.00345C98.791 2.26347 101.039 0 103.771 0C106.502 0 108.758 2.18405 108.758 5.00345C108.758 7.82286 106.502 9.99896 103.771 9.99896Z" fill="#F7AE1D"/>
<path d="M18.4533 9.99896C15.722 9.99896 13.4658 7.74344 13.4658 5.00345C13.4658 2.26347 15.722 0 18.4533 0C21.1845 0 23.4328 2.18405 23.4328 5.00345C23.4328 7.82286 21.1845 9.99896 18.4533 9.99896Z" fill="#5D5B53"/>
<path d="M90.9302 19.6961H91.524V19.3625C91.524 17.7424 90.1465 17.2023 88.6423 17.2023C87.3361 17.2023 85.9982 17.6153 84.969 18.0759C83.6628 18.6001 82.6891 18.3777 82.0478 17.1785L81.5807 16.2334C80.987 15.0659 81.2245 14.0414 82.4436 13.4378C83.9874 12.7627 86.3465 11.9368 89.2677 11.9368C94.8648 11.9368 98.3322 14.915 98.3322 19.8549V29.7427C98.3322 31.0928 97.596 31.8156 96.171 31.8156H94.2789C92.8619 31.8156 92.1098 31.1326 92.1098 29.703V29.5521C92.1098 29.3297 92.1494 29.0676 92.1494 29.0676L92.0702 29.1709C92.0702 29.1709 90.1465 32.2603 86.0774 32.2603C82.0082 32.2603 79.4512 29.6951 79.4512 26.3356C79.4512 21.1257 85.919 19.6961 90.9223 19.6961M87.6448 27.6937C89.8931 27.6937 91.6031 25.5811 91.6031 23.7783V23.262H90.8827C88.4998 23.262 85.4361 23.8656 85.4361 25.8908C85.4361 26.9233 86.204 27.6937 87.6448 27.6937Z" fill="#5D5B53"/>
<path d="M2.62039 17.806H2.0504C0.720409 17.806 0 17.0753 0 15.7093V14.7562C0 13.3823 0.728326 12.6596 2.08998 12.6596H2.81039V9.1095C2.81039 7.74347 3.5308 7.02075 4.90037 7.02075H7.10118C8.47075 7.02075 9.19116 7.74347 9.19116 9.1095V12.6596H11.202C12.5715 12.6596 13.2919 13.3823 13.2919 14.7562V15.7093C13.2919 17.0753 12.5715 17.806 11.2416 17.806H9.19116V23.7545C9.19116 25.4303 10.2916 26.0815 11.4711 26.2245C12.9911 26.423 13.5532 26.8837 13.5532 28.3212V30.0366C13.5532 31.5933 12.6032 32.1333 10.8536 32.1333C7.96409 32.1333 2.61247 30.807 2.61247 24.9696V17.806" fill="#5D5B53"/>
<path d="M15.168 14.2717C15.168 12.8978 15.8884 12.175 17.2579 12.175H19.6488C21.0104 12.175 21.7387 12.8978 21.7387 14.2717V29.711C21.7387 31.0849 21.0104 31.8076 19.6488 31.8076H17.2579C15.8884 31.8076 15.168 31.0849 15.168 29.711V14.2717Z" fill="#5D5B53"/>
<path d="M100.493 14.2717C100.493 12.8978 101.214 12.175 102.583 12.175H104.974C106.344 12.175 107.064 12.8978 107.064 14.2717V29.711C107.064 31.0849 106.344 31.8076 104.974 31.8076H102.583C101.214 31.8076 100.493 31.0849 100.493 29.711V14.2717Z" fill="#5D5B53"/>
<path d="M55.7012 11.8574C61.512 11.8574 64.742 15.9714 64.742 21.229C64.742 22.2614 63.8316 23.4051 62.5412 23.4051H52.2417C52.7404 25.8036 54.7037 26.9075 56.8016 26.9075C58.1237 26.9075 59.3825 26.4866 60.372 25.9942C61.6308 25.4223 62.5412 25.5732 63.1824 26.7963L63.7207 27.7891C64.3303 28.9645 64.1324 29.989 62.9924 30.6482C61.5833 31.4503 59.2716 32.4033 56.2712 32.4033C49.2809 32.4033 45.5205 27.3364 45.5205 22.1105C45.5205 16.3526 49.3917 11.8574 55.7012 11.8574ZM58.5354 19.6326C58.5354 17.941 57.4587 16.5511 55.7012 16.5511C53.7142 16.5511 52.7563 17.9886 52.3921 19.6326H58.5275H58.5354Z" fill="#5D5B53"/>
<path d="M37.4849 29.9889V30.0365C37.4849 30.8784 37.4849 32.0379 37.4849 33.1498C37.9758 32.6574 38.6724 32.4032 39.5591 32.4032H41.9657C42.8524 32.4191 43.5332 32.6653 44.0082 33.1656V14.0493C44.0082 12.6833 43.2878 11.9526 41.9182 11.9526H39.5274C38.2924 11.9526 37.5879 12.5482 37.4612 13.6681V13.8031H37.3899C37.3899 13.8031 36.2104 11.8652 32.26 11.8652C27.0588 11.8652 23.3301 15.8998 23.3301 22.1183C23.3301 28.3369 26.8213 32.4112 32.1492 32.4112C35.1495 32.4112 36.8279 30.8148 37.477 30.0047M33.6454 26.9471C31.3575 26.9471 29.7425 25.041 29.7425 22.1104C29.7425 19.1798 31.5871 17.4167 33.6454 17.4167C36.2262 17.4167 37.6274 19.7516 37.6274 22.1104C37.6274 25.4937 35.6166 26.9471 33.6454 26.9471Z" fill="#5D5B53"/>
<path d="M44.0003 37.0256V36.3346C44.0003 34.8813 43.264 34.1982 41.9499 34.1982H39.5907C38.9732 34.1982 38.4112 34.4127 38.0787 34.7859C37.7857 35.1116 37.6037 35.604 37.6037 36.2711C37.6037 37.5498 37.0178 38.4949 36.5428 38.9396C36.0045 39.4479 35.1812 39.71 34.0412 39.7497C32.8616 39.71 32.0383 39.4479 31.5 38.9396C31.025 38.4949 30.4075 37.8118 30.4312 36.287C30.4392 35.6199 30.2571 35.1513 29.98 34.8257C29.6475 34.4286 29.0775 34.2141 28.4521 34.1982H26.085C24.7155 34.2141 24.0267 34.9289 24.0346 36.3426V37.1447C24.0346 37.24 24.0109 37.2559 24.0742 38.1375C24.4067 42.315 29.0379 45.9921 34.0095 45.9921C38.9891 45.9921 43.6678 42.315 43.9765 38.1375C43.9844 38.0104 43.9844 37.5259 43.9765 37.0256" fill="#F7AE1D"/>
<path d="M49.9062 38.9553C49.7083 38.9712 49.5658 38.9315 49.455 38.8442C49.36 38.733 49.3046 38.6218 49.2967 38.4629C49.2808 38.2882 49.3362 38.1453 49.4075 38.042C49.5183 37.9308 49.6767 37.8673 49.8587 37.8435H50.3654C51.165 36.8904 51.925 35.85 52.6375 34.6746C52.7245 34.5237 52.8433 34.4284 52.97 34.3887C53.1045 34.349 53.2391 34.3649 53.3895 34.4364C53.5004 34.5078 53.5875 34.5952 53.635 34.7302C53.6745 34.8811 53.6508 35.0399 53.5637 35.1829C53.1362 35.8977 52.5187 36.7634 51.735 37.7561L58.0128 37.4384L56.6512 36.1677C56.5166 36.0724 56.4295 35.9374 56.4216 35.7865C56.3978 35.6515 56.4374 35.5244 56.5324 35.3894C56.6195 35.2703 56.7383 35.1908 56.8728 35.167C57.0312 35.1591 57.1658 35.2147 57.3241 35.3259C58.2424 36.1598 58.8361 36.7395 59.0816 37.0175C60.1978 38.1056 60.752 38.7647 60.7361 39.0427C60.7282 39.1618 60.6649 39.2889 60.562 39.4001C60.4353 39.4954 60.3007 39.551 60.1582 39.551C60.0078 39.5272 59.8732 39.4398 59.7545 39.3048L58.9074 38.3597L49.9142 38.9474L49.9062 38.9553ZM51.2204 45.444C50.975 45.436 50.7771 45.3566 50.6187 45.2136C50.4367 45.031 50.3496 44.8324 50.3575 44.61V40.8535C50.3496 40.6311 50.4287 40.4087 50.6187 40.2261C50.7771 40.0513 50.975 39.964 51.2204 39.9799H58.7174C58.9786 39.964 59.1686 40.0672 59.3349 40.2499C59.4853 40.4326 59.5566 40.647 59.5645 40.8535V44.61C59.5645 44.8324 59.4932 45.0151 59.3349 45.1898C59.1528 45.3645 58.9549 45.4519 58.7174 45.4519H51.2204V45.444ZM51.8062 41.0203C51.6954 41.0044 51.6004 41.0441 51.5212 41.1156C51.4579 41.187 51.4341 41.2665 51.4341 41.3697V43.9985C51.4341 44.1097 51.4579 44.205 51.5212 44.2924C51.5846 44.3559 51.6796 44.3877 51.8062 44.3877H58.0682C58.1949 44.3718 58.2899 44.34 58.3532 44.2924C58.4245 44.2209 58.4641 44.1176 58.4641 43.9985V41.3697C58.4641 41.2585 58.4245 41.1712 58.3532 41.1156C58.282 41.06 58.1791 41.0203 58.0682 41.0203H51.8062Z" fill="#5D5B53"/>
<path d="M63.2691 40.5598C63.3562 40.4724 63.475 40.4406 63.6254 40.4406C63.7441 40.4565 63.855 40.5121 63.9421 40.5995C64.0291 40.7107 64.0766 40.8298 64.0687 40.9966C63.9975 42.0052 63.8629 42.8471 63.665 43.5142C63.285 44.8484 62.9287 45.5473 62.5962 45.6426C62.4617 45.6665 62.335 45.6426 62.2162 45.5791C61.9312 45.3964 61.8837 45.1502 62.0658 44.8564C62.7308 43.5618 63.095 42.2593 63.1187 40.941C63.1346 40.7821 63.1662 40.6551 63.2691 40.5677M61.9708 38.1454C61.9471 38.0263 61.9867 37.8992 62.0658 37.788C62.1371 37.6689 62.2242 37.6053 62.3587 37.5895C62.4933 37.5736 62.6279 37.6133 62.7546 37.7006C63.5937 38.2883 64.0054 38.7569 64.0054 39.0825C63.9975 39.2017 63.9421 39.3129 63.8312 39.4241C63.7204 39.5194 63.6254 39.5591 63.4908 39.5432C63.3562 39.5273 63.2296 39.4717 63.1346 39.3367C62.7704 38.9396 62.4617 38.6616 62.1925 38.471C62.0658 38.3757 61.9946 38.2645 61.9708 38.1375M62.1529 35.3975C62.1371 35.2783 62.1529 35.1513 62.2242 35.0401C62.2875 34.9209 62.3825 34.8415 62.5171 34.8098C62.6358 34.77 62.7625 34.8098 62.9129 34.8971C63.7204 35.3895 64.1796 35.7946 64.1875 36.1043C64.1875 36.2393 64.1479 36.3664 64.0529 36.4776C63.9579 36.5729 63.8471 36.6126 63.7204 36.6126C63.5937 36.6126 63.475 36.5649 63.3404 36.4379C62.9842 36.1043 62.6675 35.874 62.4221 35.7072C62.2875 35.6198 62.1925 35.5325 62.1529 35.3975ZM64.6229 38.9952C64.6941 38.9316 64.7812 38.9237 64.892 38.9316C64.987 38.9555 65.0741 39.0031 65.1375 39.0905C65.2008 39.1779 65.2087 39.2732 65.185 39.4002C64.9633 40.2341 64.7812 40.7186 64.6466 40.7663C64.5596 40.806 64.4646 40.8139 64.3537 40.7821C64.2587 40.7424 64.1954 40.6868 64.1558 40.5995C64.1162 40.4883 64.1162 40.3771 64.1716 40.2659L64.4566 39.2652C64.4804 39.154 64.5437 39.0587 64.6308 38.9952M64.6308 38.6299C64.4962 38.6457 64.3854 38.606 64.2983 38.5346C64.2112 38.471 64.1796 38.3757 64.1637 38.2486C64.1479 38.1533 64.1875 38.0501 64.235 37.9627C64.3221 37.8754 64.4329 37.8277 64.5675 37.8118H64.8525L65.3275 37.2082C65.0583 36.9144 64.7654 36.6444 64.4804 36.4458C64.3696 36.3823 64.2983 36.287 64.2587 36.1758C64.235 36.0884 64.2429 35.9772 64.3062 35.866C64.3696 35.7787 64.4566 35.7151 64.5516 35.6834C64.6387 35.6595 64.7258 35.6675 64.8208 35.7231L65.3354 34.6191C65.3987 34.508 65.4858 34.4365 65.5966 34.3968C65.6916 34.3571 65.7945 34.3729 65.9054 34.4206C66.0004 34.4841 66.0637 34.5556 66.1033 34.643C66.1508 34.8177 65.9291 35.3498 65.4304 36.2075L65.7629 36.5491L66.1429 35.7628C66.2062 35.6278 66.2695 35.5563 66.3645 35.5166C66.4595 35.4689 66.5704 35.4689 66.6812 35.5007C66.7762 35.5484 66.8554 35.6119 66.9029 35.7072C67.0137 36.0487 66.6812 36.7158 65.8975 37.7245L66.4833 37.6848C66.412 37.5339 66.3725 37.3988 66.3962 37.3194C66.42 37.2321 66.4833 37.1447 66.5783 37.097C66.6733 37.0335 66.7604 37.0256 66.8633 37.0573C66.9741 37.0812 67.0612 37.1447 67.1245 37.2559C67.4966 37.923 67.6391 38.3757 67.5441 38.614C67.4966 38.7013 67.4095 38.7649 67.2987 38.7966C67.2037 38.8363 67.1008 38.8205 67.0137 38.7728C66.9266 38.7252 66.8554 38.6537 66.8079 38.5107V38.471L66.2537 38.5107V40.528C66.2537 40.663 66.23 40.7504 66.1429 40.8377C66.0716 40.9251 65.9687 40.9569 65.85 40.9569C65.7391 40.9569 65.652 40.9171 65.565 40.8457C65.4937 40.7583 65.4541 40.663 65.4541 40.528V38.5663L64.6308 38.614V38.6299ZM71.6449 41.0283C71.827 41.0283 71.9774 41.0998 72.1278 41.2348C72.2624 41.3698 72.3257 41.5207 72.3336 41.7034V42.2196C72.3336 42.4261 72.2624 42.6247 72.1041 42.7756C71.9457 42.9503 71.7478 43.0377 71.5103 43.0377H66.0716C65.945 43.0456 65.8658 43.0853 65.8104 43.1568C65.747 43.2441 65.7233 43.3315 65.7391 43.4189V43.3236L65.747 43.4586L65.8975 43.5301H71.9774C72.1832 43.5459 72.3574 43.6254 72.4841 43.7921C72.5949 43.9033 72.6424 44.0542 72.6186 44.221C72.5711 44.8246 72.4366 45.2455 72.2228 45.452C71.9536 45.7379 71.6449 45.8968 71.2887 45.9365L70.2832 45.9603C68.217 45.8968 67.0929 45.7538 66.9187 45.5156C66.8712 45.4203 66.8554 45.317 66.8712 45.1979C66.9424 44.904 67.1404 44.8167 67.4254 44.8802C69.6974 45.2535 71.0986 45.2535 71.6053 44.8802C71.6528 44.8325 71.7161 44.6816 71.7399 44.4752L71.6924 44.3401L71.542 44.3004H65.4937C65.2879 44.2766 65.1137 44.1813 64.9791 44.0145C64.8445 43.8398 64.805 43.6571 64.8446 43.4348L64.9554 42.9821C65.0029 42.712 65.1295 42.5135 65.3116 42.4023C65.47 42.2911 65.6679 42.2673 65.8658 42.2752H71.2332L71.4074 42.2037L71.4786 42.0449V41.9734L71.4153 41.8384L71.3045 41.7908H65.47C65.3354 41.7908 65.2245 41.7669 65.1612 41.6796C65.09 41.6081 65.0504 41.5207 65.0504 41.4095C65.0662 41.2984 65.0979 41.211 65.1612 41.1475C65.2325 41.076 65.3354 41.0363 65.47 41.0363H71.6449V41.0283ZM66.5149 39.1699C66.5545 39.0825 66.6258 39.0111 66.7366 38.9714C66.8237 38.9316 66.9187 38.9475 67.0216 38.9793C67.1087 39.027 67.1799 39.1143 67.2274 39.2255C67.4333 39.8767 67.4887 40.2977 67.3858 40.4724C67.3224 40.5439 67.2512 40.5915 67.1404 40.6233C67.0295 40.6392 66.9424 40.6233 66.8554 40.5598C66.8158 40.5359 66.7366 40.2738 66.6099 39.8053L66.5149 39.4876C66.4754 39.3605 66.4754 39.2573 66.5149 39.1699ZM69.927 35.604C70.0141 35.604 70.0853 35.6278 70.1487 35.6754C70.212 35.739 70.2357 35.8104 70.2357 35.9058C70.2357 35.9931 70.212 36.0646 70.1487 36.1122C70.0853 36.1758 70.0141 36.2075 69.927 36.2075H67.5283C67.4333 36.2075 67.3541 36.1837 67.2987 36.1202C67.2512 36.0725 67.2274 36.0011 67.2274 35.8978C67.2274 35.8104 67.2512 35.739 67.2987 35.6754C67.362 35.6119 67.4333 35.5881 67.5283 35.5881H69.927V35.604ZM69.6974 34.5953C69.7845 34.5953 69.8478 34.6192 69.9032 34.6668C69.9666 34.7303 69.9903 34.8018 69.9903 34.8971C69.9903 34.9845 69.9666 35.056 69.9032 35.1036C69.8399 35.1671 69.7845 35.1989 69.6974 35.1989H67.8687C67.7816 35.1989 67.7104 35.1751 67.647 35.1116C67.5837 35.048 67.5599 34.9924 67.5599 34.8892C67.5599 34.8018 67.5837 34.7303 67.647 34.6668C67.7104 34.6033 67.7816 34.5794 67.8687 34.5794H69.6974V34.5953ZM68.0745 40.6074C67.9399 40.5915 67.8291 40.5439 67.7658 40.4486C67.6787 40.3374 67.6312 40.2103 67.6391 40.0912V38.9316C67.6391 38.8046 67.6787 38.7013 67.7658 38.6219C67.837 38.5346 67.9478 38.4869 68.0745 38.5028H69.4124C69.5628 38.4869 69.6816 38.5425 69.7924 38.6378C69.8637 38.7013 69.9112 38.7966 69.927 38.9316V40.0912C69.927 40.2103 69.8637 40.3374 69.7687 40.4486C69.6578 40.5439 69.547 40.5995 69.4124 40.6074H68.0745ZM69.642 36.5332C69.7291 36.5332 69.8003 36.557 69.8478 36.6046C69.9112 36.6523 69.9349 36.7238 69.9349 36.827C69.9349 36.9144 69.9112 36.9859 69.8478 37.0494C69.8003 37.1129 69.7212 37.1368 69.642 37.1368H68.0112C67.9162 37.1368 67.837 37.1209 67.7737 37.0653C67.7262 37.0017 67.7024 36.9303 67.7024 36.827C67.7024 36.7397 67.7262 36.6682 67.7737 36.6046C67.837 36.557 67.9083 36.5332 68.0112 36.5332H69.642ZM69.5945 37.5418C69.6816 37.5418 69.7528 37.5656 69.8162 37.6133C69.8637 37.6609 69.8874 37.7324 69.8874 37.8357C69.8874 37.923 69.8637 37.9945 69.8162 38.058C69.7528 38.1216 69.6816 38.1454 69.5945 38.1454H68.0112C67.9162 38.1454 67.837 38.1295 67.7737 38.0739C67.7262 38.0104 67.7024 37.9389 67.7024 37.8357C67.7024 37.7483 67.7262 37.6768 67.7737 37.6292C67.837 37.5656 67.9083 37.5418 68.0112 37.5418H69.5945ZM68.4149 39.1223L68.3278 39.162L68.2883 39.2334V39.8767L68.3278 39.9641L68.4149 40.0038H69.1512L69.2383 39.9641L69.2778 39.8767V39.2334L69.2383 39.162L69.1512 39.1223H68.4149ZM70.5762 38.5266C70.4416 38.5425 70.3466 38.5028 70.2595 38.4313C70.1724 38.3678 70.1249 38.2725 70.1091 38.1454C70.0932 38.0501 70.1328 37.9468 70.1962 37.8595C70.2832 37.7721 70.3782 37.7245 70.5128 37.7086H70.6632L71.2253 37.105L70.4653 36.3902C70.3545 36.3187 70.2912 36.2155 70.2674 36.1043C70.2437 36.0169 70.2516 35.9216 70.3149 35.8104C70.3624 35.7151 70.4495 35.6516 70.5603 35.6119C70.6474 35.596 70.7424 35.6119 70.8295 35.6596L71.2966 34.6827C71.3599 34.5636 71.447 34.5 71.5499 34.4603C71.6449 34.4365 71.7557 34.4444 71.8666 34.5C71.9536 34.5477 72.017 34.635 72.0486 34.7303C72.0882 34.9051 71.8666 35.3816 71.3836 36.1361L71.6924 36.4537L72.1832 35.5642C72.2466 35.4531 72.3178 35.3657 72.4128 35.326C72.5078 35.2863 72.6186 35.2863 72.7295 35.3419C72.8403 35.4054 72.9036 35.4769 72.9432 35.5642C73.0382 35.8819 72.6503 36.5729 71.7636 37.6212L72.3416 37.5815C72.2466 37.4068 72.207 37.2479 72.2307 37.1288C72.2545 37.0573 72.3178 36.9779 72.4049 36.9223C72.4999 36.8747 72.6028 36.8588 72.6899 36.8826C72.8007 36.9223 72.8878 36.9938 72.9511 37.105V37.1209C73.3074 37.9707 73.442 38.4631 73.4024 38.5901C73.3628 38.6616 73.2915 38.7252 73.1807 38.7649C73.0857 38.8046 72.9828 38.7887 72.8957 38.749C72.8086 38.6854 72.7136 38.5663 72.6661 38.3837L72.1991 38.4234V40.528C72.1991 40.663 72.1595 40.7504 72.0724 40.8377C72.0011 40.9251 71.8982 40.9569 71.7874 40.9569C71.6766 40.9569 71.5816 40.9171 71.4945 40.8457C71.4232 40.7583 71.3836 40.663 71.3836 40.528V38.471L70.5603 38.5187L70.5762 38.5266ZM70.5207 38.884C70.592 38.8205 70.6949 38.7887 70.8057 38.7887C70.9007 38.8046 70.9878 38.8363 71.0512 38.9078C71.1145 38.9952 71.1462 39.0905 71.1382 39.2176C71.0432 40.115 70.8928 40.6471 70.7345 40.7583C70.6474 40.806 70.5524 40.8218 70.4416 40.798C70.3545 40.7583 70.2832 40.7265 70.2041 40.6392V40.6154C70.1803 40.5518 70.2437 40.0753 70.3862 39.1858C70.3941 39.0508 70.4337 38.9555 70.5207 38.8919M72.5157 38.9952C72.5632 38.9078 72.6345 38.8443 72.7453 38.8125C72.8403 38.7887 72.9274 38.7966 73.0145 38.8363C73.1095 38.8999 73.1728 38.9872 73.2124 39.1064C73.4103 39.9721 73.442 40.4883 73.3707 40.6312C73.3074 40.7027 73.2203 40.7424 73.1095 40.7583C72.9986 40.7662 72.9116 40.7424 72.8403 40.6948L72.8007 40.6551L72.492 39.3129C72.4524 39.1937 72.4524 39.0905 72.5078 38.9952" fill="#5D5B53"/>
<path d="M79.9573 40.1945C79.9573 40.3454 80.0207 40.4884 80.1315 40.5996C80.2423 40.6949 80.3611 40.7425 80.5352 40.7584H82.9181C83.3377 40.7346 83.5356 40.5837 83.5356 40.3375C83.5356 40.0039 83.599 39.7736 83.7177 39.6624C83.8285 39.5671 83.9394 39.5274 84.0898 39.5512C84.2244 39.575 84.351 39.6386 84.4223 39.7101C84.5173 39.8451 84.5569 39.996 84.5331 40.1548L84.4619 40.7187C84.4619 41.0761 84.2402 41.3858 83.8127 41.632C83.4169 41.7829 82.2056 41.8306 80.1632 41.7511C79.9019 41.7353 79.6882 41.6558 79.4665 41.5129C79.1103 41.2508 78.9282 40.9252 78.9282 40.5122V39.7974H77.2815C77.1311 39.7974 76.9965 39.7498 76.9015 39.6624C76.8065 39.5671 76.7511 39.4321 76.7511 39.2653C76.7511 39.1303 76.7986 39.0032 76.9015 38.9C76.9965 38.8047 77.139 38.7491 77.2815 38.7491H78.9282V37.8755H76.7907C76.5453 37.8596 76.4107 37.9946 76.4186 38.2487V40.679C76.3949 42.0688 76.2365 43.276 75.9753 44.237C75.6665 45.198 75.3578 45.738 75.057 45.8174C74.9066 45.8413 74.7641 45.8174 74.6295 45.7301C74.3207 45.4839 74.2732 45.198 74.4949 44.8644C75.0491 43.8875 75.3578 42.6168 75.3816 41.0522V37.7722C75.3816 37.5339 75.4686 37.3036 75.6507 37.1051C75.809 36.9224 76.0465 36.8192 76.3157 36.8192H78.9282V34.8337C78.9282 34.651 78.9757 34.5239 79.0786 34.4127C79.1657 34.3174 79.2844 34.2618 79.4507 34.2539C79.6011 34.2539 79.7198 34.3016 79.8228 34.4048C79.9336 34.516 79.9811 34.651 79.9811 34.8337V35.0402H84.3906C84.549 35.0402 84.6756 35.0799 84.7706 35.1593C84.8656 35.2546 84.9052 35.3896 84.9052 35.5564C84.9052 35.6914 84.8656 35.8185 84.7706 35.9297C84.6756 36.0409 84.549 36.0806 84.3906 36.0806H79.9811V36.8192H84.6994C85.1031 36.8192 85.4119 36.978 85.5939 37.2877C85.8394 37.7325 85.7523 38.4234 85.3485 39.3368C85.2614 39.5115 85.1506 39.6227 85.016 39.6703C84.8894 39.6942 84.7548 39.6942 84.6202 39.6465C84.3273 39.4718 84.2481 39.2018 84.3906 38.892C84.6123 38.4632 84.6835 38.1693 84.6123 38.0581C84.549 37.931 84.4619 37.8755 84.3431 37.8755H79.9811V38.7491H82.6727C82.8311 38.7491 82.9419 38.7967 83.0448 38.8841C83.1398 38.9794 83.1952 39.1223 83.1952 39.2653C83.1952 39.4083 83.1477 39.5353 83.0448 39.6465C82.9498 39.7418 82.839 39.7974 82.6727 39.7974H79.9811V40.1786L79.9573 40.1945ZM78.5799 42.2356C78.6669 42.1403 78.7857 42.0847 78.9519 42.0768C79.1023 42.0768 79.2211 42.1244 79.324 42.2277C79.4348 42.323 79.4823 42.4739 79.4823 42.6565V43.0854C79.4665 43.6016 79.419 43.9987 79.324 44.2688C79.1023 44.8326 78.659 45.3012 78.0099 45.603C77.1786 45.9604 76.6086 46.0478 76.3236 45.8651C76.2049 45.7936 76.1257 45.6665 76.094 45.4918C76.0703 45.1344 76.2286 44.9041 76.6086 44.8406C77.2974 44.7294 77.7882 44.5229 78.0732 44.2608C78.3028 43.9511 78.4453 43.554 78.4453 43.0933V42.6645C78.4453 42.4818 78.4928 42.3468 78.5957 42.2435M81.509 42.2356C81.5961 42.1403 81.7307 42.0847 81.8811 42.0768C82.0315 42.0768 82.1502 42.1244 82.2611 42.2277C82.3561 42.323 82.4115 42.4739 82.4115 42.6565V44.0464C82.4115 44.2052 82.4748 44.3402 82.5856 44.4673C82.6965 44.5626 82.8311 44.6261 83.0052 44.642H83.8998C84.4777 44.642 84.7706 44.4673 84.7706 44.1655C84.7706 43.7684 84.8577 43.4904 85.016 43.3395C85.1269 43.2522 85.2615 43.2204 85.396 43.2442C85.5385 43.2681 85.6652 43.3157 85.7602 43.4269C85.8473 43.5619 85.8869 43.7128 85.8552 43.8717L85.7602 44.4991C85.6256 45.0074 85.3802 45.3647 85.024 45.5474C84.8181 45.6427 84.2719 45.7063 83.4406 45.7063C82.7044 45.7063 82.1898 45.6109 81.9207 45.4362C81.5565 45.19 81.3586 44.8485 81.3665 44.4117V42.6645C81.3665 42.4818 81.414 42.3468 81.5169 42.2435" fill="#5D5B53"/>
<path d="M90.2257 43.9033C90.2257 44.0621 90.1782 44.1892 90.0911 44.2845C90.004 44.356 89.8932 44.4036 89.7507 44.4195C89.6319 44.4036 89.5052 44.3718 89.4182 44.3004C89.3311 44.2051 89.2836 44.0621 89.2836 43.9033V40.7741L88.6344 40.8377V41.1712C88.6344 41.9098 88.5632 42.712 88.4286 43.5618C88.294 44.4036 88.1357 45.0151 87.9457 45.4122C87.8507 45.6187 87.7398 45.7299 87.6132 45.7696C87.4944 45.8093 87.3519 45.8093 87.2094 45.7537C87.0749 45.6823 86.9799 45.579 86.9244 45.444C86.8611 45.3249 86.8769 45.1581 86.9482 44.9913C87.3915 43.943 87.6132 42.5849 87.6132 40.9409H87.4944C87.3203 40.9488 87.1857 40.925 87.0986 40.8535C86.9878 40.7582 86.9244 40.647 86.9165 40.512C86.9007 40.3532 86.9324 40.2261 87.0115 40.1308C87.0986 40.0196 87.2332 39.9561 87.4074 39.9323H87.629V36.2392C87.6132 36.0089 87.7003 35.7945 87.8903 35.6356C88.0723 35.4768 88.2623 35.3895 88.4761 35.3895H89.0777L89.3707 34.6588C89.4182 34.4999 89.5052 34.3729 89.6319 34.2935C89.7427 34.2299 89.8773 34.222 90.0357 34.2537C90.1861 34.2935 90.2811 34.3729 90.3523 34.5158C90.4236 34.6588 90.3761 34.9606 90.2177 35.3895H91.1281C91.334 35.3895 91.5319 35.4768 91.714 35.6356C91.8881 35.8104 91.9831 36.0169 91.9831 36.2551V39.5193H92.2048C92.3552 39.5034 92.4977 39.5431 92.6086 39.6305C92.7035 39.7178 92.759 39.8131 92.7669 39.972C92.7827 40.107 92.751 40.2182 92.6798 40.3294C92.5848 40.4406 92.4502 40.5041 92.276 40.512L91.9831 40.5517V44.6419C91.9673 44.9595 91.8881 45.2534 91.714 45.4917C91.5952 45.6902 91.3736 45.7776 91.0648 45.7617C90.3523 45.7379 89.9248 45.6426 89.7902 45.5075C89.7032 45.3964 89.6794 45.2693 89.6952 45.1104C89.719 44.7451 89.9407 44.5783 90.3365 44.626C90.6452 44.6895 90.8115 44.6975 90.8669 44.6736C90.954 44.6101 91.0015 44.5148 91.0015 44.3798V40.6312L90.2415 40.7185V43.9112L90.2257 43.9033ZM90.9936 39.6225V36.6522C90.9777 36.5807 90.954 36.5172 90.8986 36.4537C90.8352 36.3901 90.7719 36.3663 90.6927 36.3663H88.9352C88.8482 36.3504 88.7769 36.3901 88.7136 36.4537C88.6503 36.5172 88.6265 36.6046 88.6423 36.6761V39.8211L91.0015 39.6225H90.9936ZM89.1015 37.0652C89.1411 36.9699 89.2123 36.8905 89.3311 36.8269C89.4577 36.7872 89.5765 36.7872 89.6715 36.8269C89.7823 36.8905 89.8694 36.9858 89.9169 37.1208C90.3127 38.2327 90.4315 38.9236 90.2811 39.1698C90.2177 39.2572 90.1307 39.3207 89.9961 39.3446C89.8615 39.3604 89.7507 39.3366 89.6557 39.2731C89.5686 39.2016 89.5052 39.0984 89.4815 38.9395L89.2757 38.0897C89.1252 37.4861 89.0698 37.1287 89.0936 37.0652M94.3106 38.6615V41.0283C94.2869 42.8787 93.8594 44.3957 93.0677 45.5473C92.941 45.6823 92.8065 45.7537 92.664 45.7696C92.5056 45.7855 92.3552 45.722 92.2365 45.5711C91.999 45.2852 92.0306 45.0072 92.284 44.7451C92.9331 43.7206 93.2656 42.3387 93.2656 40.655V38.193C93.2656 37.9071 93.3369 37.6767 93.4952 37.502C93.6535 37.3035 93.899 37.2082 94.2473 37.2161H95.8068C96.076 37.2082 96.3214 37.3035 96.5193 37.502C96.7014 37.6847 96.8043 37.9309 96.8123 38.2327V44.2845C96.8123 44.3718 96.836 44.4592 96.8993 44.5466C96.9627 44.6101 97.0498 44.6419 97.1448 44.6419L97.3506 44.5227C97.4218 44.4354 97.4614 44.3401 97.4614 44.2289V42.7993C97.4614 42.6246 97.5089 42.4896 97.6118 42.3943C97.6989 42.3069 97.8177 42.2672 97.9681 42.2672C98.1185 42.2672 98.2293 42.3069 98.3085 42.3943C98.4035 42.5055 98.4589 42.6405 98.4589 42.7993V44.3639C98.4589 44.6578 98.3956 44.896 98.3006 45.0787C98.0552 45.4837 97.6752 45.6982 97.1606 45.6982H96.8439C96.4639 45.6982 96.1552 45.4996 95.9098 45.166C95.8148 44.9834 95.7594 44.7928 95.7752 44.6101V38.6695C95.7594 38.5742 95.7277 38.4709 95.6643 38.3836C95.5773 38.2962 95.4823 38.2644 95.3556 38.2724H94.7064C94.4373 38.2644 94.3027 38.3915 94.3106 38.6695M94.6114 34.8573C94.6114 34.6985 94.6589 34.5635 94.746 34.4761C94.8331 34.3808 94.9677 34.3252 95.126 34.3252C95.2764 34.3252 95.3873 34.3729 95.4823 34.4761C95.5931 34.5635 95.6564 34.6985 95.6564 34.8573V35.5006H97.6197C97.7781 35.5006 97.8889 35.5483 97.9918 35.6198C98.0868 35.7151 98.1422 35.858 98.1422 36.0169C98.1422 36.1519 98.0947 36.279 97.9918 36.3901C97.8968 36.5013 97.786 36.549 97.6197 36.549H92.7669C92.6165 36.549 92.4819 36.5013 92.3869 36.3981C92.2919 36.3028 92.2365 36.1678 92.2365 36.0169C92.2365 35.866 92.284 35.7468 92.3869 35.6356C92.4819 35.5483 92.6165 35.5006 92.7669 35.5006H94.6114V34.8573Z" fill="#5D5B53"/>
</g>
<defs>
<clipPath id="clip0_583_2626">
<rect width="123" height="46" fill="white"/>
</clipPath>
</defs>
</svg>
