<svg width="162" height="46" viewBox="0 0 162 46" fill="none" xmlns="http://www.w3.org/2000/svg">
<path d="M51.2968 12.575H44.7275V26.2857H51.2968V12.575Z" fill="#139244"/>
<path d="M41.6048 12.575H35.0356V20.1605L28.9125 12.575H22.3838V26.2857H28.9125V18.7813L35.1167 26.2857H41.6048V12.575Z" fill="#139244"/>
<mask id="mask0_597_3592" style="mask-type:luminance" maskUnits="userSpaceOnUse" x="0" y="0" width="162" height="46">
<path d="M162 0H0V46H162V0Z" fill="white"/>
</mask>
<g mask="url(#mask0_597_3592)">
<path d="M12.6924 12.575V21.4585C12.6924 22.1887 11.7597 22.8377 10.6243 22.8377H8.59674C7.46133 22.8377 6.52866 22.2293 6.52866 21.4585V12.575H0V23.5273C0 25.0688 1.82478 26.2857 4.09562 26.2857H15.166C17.4368 26.2857 19.2616 25.0688 19.2616 23.5273V12.575H12.6924Z" fill="#139244"/>
<path d="M66.2602 20.9312L67.9227 17.6049L69.5853 20.9312H66.3007H66.2602ZM72.2211 26.2857H78.6687L71.6534 12.575H64.1515L57.0957 26.2857H63.5838L64.557 24.3386H71.2884L72.2211 26.2857Z" fill="#139244"/>
<path d="M87.1838 12.6155H80.8174V26.2857H87.1838V12.6155Z" fill="#139244"/>
<path d="M100.971 18.0511H96.5104V16.0635H100.971C101.498 16.0635 101.985 16.5097 101.985 17.0776C101.985 17.6455 101.539 18.0511 100.971 18.0511ZM106.445 20.0793C108.067 20.0793 108.027 18.2539 108.027 18.2539V15.9012C108.027 12.8994 104.864 12.6155 104.864 12.6155H90.2656V26.2857H96.6321V21.5802H100.849C101.741 21.5802 101.701 22.4726 101.701 22.4726V26.3262H108.067V22.4726C108.067 20.2416 106.486 20.0793 106.486 20.0793" fill="#139244"/>
<path d="M7.66399 31.2346V32.9789H0.162109V34.926H17.5178V32.9789H10.097V31.2346H7.66399Z" fill="#139244"/>
<path d="M13.4223 43.9718L15.612 35.575H13.0573L10.8676 43.9718H6.81252L4.58223 35.575L2.18974 36.1834L4.25782 43.9718H0V45.9594H17.6395V43.9718H13.4223Z" fill="#139244"/>
<path d="M74.1674 41.3757H81.1016V39.5098H64.9624V41.3757H71.7749V43.9718H64.0703V45.9595H82.0748V43.9718H74.1674V41.3757Z" fill="#139244"/>
<path d="M66.3006 34.3987C66.3006 34.3987 66.3817 34.1959 66.5439 34.1959H79.5607C79.5607 34.1959 79.804 34.277 79.804 34.3987V36.0618H82.0748V32.695C82.0748 32.4516 81.9126 32.3299 81.6288 32.3299H74.208V31.1941H71.8155V32.3299H64.5164C64.2325 32.3299 64.1109 32.4516 64.0703 32.695V36.0618H66.3412V34.3987H66.3006Z" fill="#139244"/>
<path d="M67.7201 36.7107H64.5977V38.5766H69.5043C70.3153 38.5766 70.883 38.1304 71.2885 37.4003L72.5456 35.1287H69.8692L69.0582 36.3456C68.8149 36.6701 68.6527 36.7107 67.7606 36.7107" fill="#139244"/>
<path d="M73.5186 35.1287V37.238C73.5186 38.2116 74.0863 38.5766 75.1811 38.5766H81.4259V36.7107H76.5599C76.276 36.7107 76.1544 36.589 76.1544 36.3456V35.1692H73.5186V35.1287Z" fill="#139244"/>
<path d="M38.6443 32.0052L36.779 31.3967C36.5763 32.0052 36.1708 32.7759 35.5625 33.7089L37.3873 34.3985C37.955 33.5061 38.3605 32.7354 38.6038 32.0052" fill="#139244"/>
<path d="M30.1291 32.2893C30.413 32.7761 30.6563 33.4657 30.9402 34.3581L32.8866 33.9119C32.6027 32.9383 32.2783 32.1271 31.8728 31.478L30.048 32.0054L28.3449 31.478C28.1422 32.0865 27.7367 32.8978 27.1689 33.8308L28.9937 34.5204C29.4803 33.7091 29.8858 32.9789 30.1291 32.3299" fill="#139244"/>
<path d="M24.3709 33.8713C23.9654 32.8978 23.5599 32.0865 23.1138 31.478L21.2891 32.1271C21.6946 32.695 22.0595 33.4657 22.5056 34.4798L24.4115 33.8713H24.3709Z" fill="#139244"/>
<path d="M25.8308 35.4938C26.6012 35.9806 27.3312 36.4674 27.9394 36.9542H23.5194C24.4115 36.5485 25.182 36.0617 25.8308 35.4938ZM33.4138 36.3457C33.7787 36.1023 34.0626 35.8184 34.387 35.5344C35.2385 36.0212 36.0496 36.5079 36.7389 36.9542H32.2378C32.6839 36.7513 33.0894 36.5485 33.4138 36.3457ZM39.2531 40.6861V37.3192C39.2531 37.0759 39.0909 36.9542 38.807 36.9542H38.2393L38.9692 36.1023C37.7121 35.3721 36.4551 34.6826 35.1574 34.1147C35.2385 33.7901 35.3196 33.4656 35.3196 33.1817V31.2751H33.1705V33.1817C33.1705 34.0335 32.6433 34.7231 31.5484 35.291C31.1835 35.4938 30.7374 35.6561 30.2508 35.7778L31.3051 36.9947H28.791L29.7642 35.94C28.7504 35.291 27.7367 34.6826 26.6823 34.1552C26.8446 33.7496 26.9257 33.3439 26.9257 32.9383V31.3157H24.7765V32.9383C24.7765 33.6279 24.4521 34.1958 23.8844 34.642C23.2761 35.1288 22.4245 35.5344 21.2486 35.8184L22.1407 36.9542H21.6541C21.3702 36.9542 21.2486 37.0759 21.208 37.3192V40.6861H23.4788V39.0229C23.4788 39.0229 23.5599 38.8201 23.7221 38.8201H29.1559V39.6314H24.2493V41.3757H28.0205C26.0741 42.3492 23.8438 42.9982 21.3297 43.4039L22.3029 45.1887C24.371 44.8642 26.6012 44.0935 29.1559 42.7954V46H31.4268V42.836C33.0894 43.8095 35.3196 44.5803 37.9554 45.2699L39.2531 43.5662C36.4551 43.0388 34.1437 42.3898 32.5217 41.4162H36.3334V39.672H31.4673V38.8607H36.8606C36.8606 38.8607 37.1039 38.9418 37.1039 39.0635V40.7266H39.3747L39.2531 40.6861Z" fill="#139244"/>
<path d="M59.8529 43.6879C59.4879 43.6879 59.4068 43.4851 59.3663 43.2823V35.7779C59.3663 35.7779 59.2041 35.4534 59.0419 35.4534H53.2837C53.2837 35.4534 52.9593 35.6156 52.9593 35.7779V43.2012C52.9593 43.2012 52.8376 43.6474 52.5132 43.6474H51.6211V45.919C51.6211 45.919 53.2837 45.9595 53.8919 45.8379C53.8919 45.8379 55.1896 45.635 55.2301 43.4446V37.5222C55.2301 37.4005 55.3112 37.3193 55.4734 37.3193H56.8521C56.8521 37.3193 57.0549 37.4005 57.0549 37.4816V43.6474C57.0549 45.4728 58.3525 45.7973 58.3525 45.7973C59.0013 45.9595 60.6639 45.8784 60.6639 45.8784V43.5662C59.8529 43.5662 59.8123 43.5662 59.8123 43.5662" fill="#139244"/>
<path d="M55.0269 31.2346V32.6949H51.5801V34.5609H60.704V32.6949H57.3788V31.2346H55.0269Z" fill="#139244"/>
<path d="M48.7424 36.1022C48.5802 35.8588 48.3774 35.5749 48.2152 35.2909C47.8908 34.8041 47.6475 34.4796 47.5259 34.3174L45.9444 34.9258V34.1957C45.9444 34.1957 46.0255 33.9928 46.1877 33.9928H48.5396C48.5396 33.9928 48.7829 34.074 48.7829 34.1957V36.1022H48.7424ZM48.7424 37.2786L45.9444 37.5219V35.372C46.5121 36.1833 46.8771 36.7918 47.1204 37.1569L48.7424 36.6295V37.238V37.2786ZM52.1081 38.7794L51.8648 36.9946L51.0132 37.0757V32.7353C51.0132 32.3297 50.851 32.208 50.4455 32.208H48.3774C48.4585 31.9646 48.5396 31.6807 48.6207 31.4373L46.431 30.8694C46.3499 31.1939 46.1471 31.6401 45.9038 32.1674H44.2413C43.8358 32.1674 43.6736 32.3703 43.6736 32.7353V37.6842L42.457 37.8059L42.8625 39.5907L43.633 39.5096C43.5925 41.7406 43.2275 43.7283 42.5787 45.432L45.0117 45.8782C45.62 44.0934 45.9444 42.1868 45.9444 40.2398V39.3068H46.431V43.2821H48.2558V39.0634H48.7424V43.8905C48.7424 43.9717 48.6613 44.0528 48.5396 44.0934C48.3774 44.0934 47.7286 44.0934 46.5932 43.8905L46.9582 45.8782C48.418 45.9593 49.2695 45.9593 49.5939 45.9188C49.9184 45.9188 50.2428 45.7159 50.5266 45.5131C50.6483 45.432 50.8105 45.2292 50.8105 45.2292C50.9727 45.0669 51.0132 44.1339 51.0132 44.1339V38.8606L52.1081 38.7389V38.7794Z" fill="#139244"/>
<path d="M158.999 0L142.981 45.9594H145.982L162 0H158.999Z" fill="#DE5511"/>
<path d="M99.3896 45.9594H141.36L157.337 0H135.358L99.3896 45.9594Z" fill="#139244"/>
<path d="M145.496 25.0282L137.913 23.1217L140.224 18.1728L135.237 20.4444L133.371 9.93823L131.465 20.4444L126.478 18.1728L128.789 23.1217L121.206 25.0282L128.789 26.8941L126.518 31.8836L131.465 29.612L133.371 40.0776L135.237 29.5714L140.143 31.843H140.224L137.913 26.8941L145.496 25.0282Z" fill="white"/>
</g>
</svg>
