<svg width="61" height="46" viewBox="0 0 61 46" fill="none" xmlns="http://www.w3.org/2000/svg">
<g clip-path="url(#clip0_583_2529)">
<mask id="mask0_583_2529" style="mask-type:luminance" maskUnits="userSpaceOnUse" x="11" y="12" width="20" height="7">
<path d="M22.6656 14.3682C17.8415 17.1908 13.1096 14.7506 11.7471 14.2953C11.7471 14.2953 15.5032 21.2154 22.4814 18.0467C27.4159 15.8068 29.9753 17.1544 30.5092 17.6097C30.5092 17.6097 30.6197 12.8567 26.9925 12.8567C25.9246 12.8567 24.5068 13.2755 22.6656 14.35" fill="white"/>
</mask>
<g mask="url(#mask0_583_2529)">
<path d="M30.4876 11.4018L11.0693 12.9369L11.8601 22.7212L31.2784 21.1861L30.4876 11.4018Z" fill="url(#paint0_linear_583_2529)"/>
</g>
<mask id="mask1_583_2529" style="mask-type:luminance" maskUnits="userSpaceOnUse" x="11" y="12" width="36" height="10">
<path d="M22.592 14.1132C16.7 17.3183 12.3915 14.7141 11.3605 13.9493C12.3547 14.7688 15.0797 17.4093 18.3755 17.2636C20.5482 17.1726 21.5056 16.6263 23.2916 16.171C28.6496 14.8052 30.8591 19.0483 37.1561 20.6508C42.7166 22.053 46.7857 19.9224 46.7857 19.9224C39.3288 20.9058 35.5358 16.5716 31.4299 14.3135C29.5886 13.2937 28.0788 12.8749 26.7163 12.8749C25.2618 12.8749 23.9545 13.3484 22.592 14.095" fill="white"/>
</mask>
<g mask="url(#mask1_583_2529)">
<path d="M46.5679 10.0737L10.3926 12.9336L11.3564 24.8599L47.5317 22.0001L46.5679 10.0737Z" fill="url(#paint1_linear_583_2529)"/>
</g>
<mask id="mask2_583_2529" style="mask-type:luminance" maskUnits="userSpaceOnUse" x="28" y="0" width="33" height="19">
<path d="M50.3942 12.6928C46.6749 14.5503 43.4896 13.5122 39.9544 12.4742C36.6402 11.4909 33.013 10.5075 28.373 11.9643C37.6897 14.1132 47.8717 22.7815 55.7153 15.9707C58.1458 13.8765 59.0848 11.6001 59.0848 11.6001C58.2194 10.8171 58.1089 9.74265 58.4956 9.01423C59.8397 6.44653 58.1458 4.57084 59.0296 2.33094C59.674 0.710192 60.9997 0.0181885 60.9997 0.0181885C55.1077 2.74978 56.1204 9.85192 50.3942 12.711" fill="white"/>
</mask>
<g mask="url(#mask2_583_2529)">
<path d="M59.0493 -7.65338L22.915 1.36328L30.329 30.4272L66.4632 21.4105L59.0493 -7.65338Z" fill="url(#paint2_linear_583_2529)"/>
</g>
<mask id="mask3_583_2529" style="mask-type:luminance" maskUnits="userSpaceOnUse" x="21" y="11" width="33" height="10">
<path d="M21.5055 14.7506C25.7772 13.1845 30.0304 14.0768 35.7567 17.7553C40.6912 20.9422 47.338 21.9256 53.5798 17.4275C53.5798 17.4275 49.5291 19.1758 42.7165 16.3713C37.9846 14.441 34.2284 11.8551 29.7727 11.8551C27.3238 11.8551 24.654 12.6382 21.5055 14.7506Z" fill="white"/>
</mask>
<g mask="url(#mask3_583_2529)">
<path d="M28.0984 -1.56883L16.6074 19.7161L46.314 35.4042L57.805 14.1193L28.0984 -1.56883Z" fill="url(#paint3_linear_583_2529)"/>
</g>
<mask id="mask4_583_2529" style="mask-type:luminance" maskUnits="userSpaceOnUse" x="9" y="7" width="29" height="9">
<path d="M25.7584 8.5954C22.6651 9.99762 19.9401 12.8931 16.8653 13.8401C13.4406 14.8781 11.1022 13.5487 9.9054 12.9477H9.88698L9.79492 12.9842C9.79492 12.9842 10.4394 13.2937 11.5073 14.2043C14.8399 16.772 19.8112 16.6991 24.9298 12.5471C27.1577 10.7443 29.312 9.61519 31.9818 8.99603C35.1119 8.26761 37.5975 8.75929 37.5975 8.75929C35.4433 7.79413 33.3811 7.33887 31.3926 7.33887C29.404 7.33887 27.618 7.77592 25.7768 8.5954" fill="white"/>
</mask>
<g mask="url(#mask4_583_2529)">
<path d="M34.586 -1.19818L6.83789 8.36963L12.8204 25.3417L40.5685 15.7739L34.586 -1.19818Z" fill="url(#paint4_linear_583_2529)"/>
</g>
<mask id="mask5_583_2529" style="mask-type:luminance" maskUnits="userSpaceOnUse" x="0" y="11" width="30" height="11">
<path d="M0 12.4379C3.47993 12.0008 6.05765 14.5139 8.76426 17.0451C11.4709 19.5764 14.3064 22.1077 18.3203 21.6342C21.4135 21.27 23.1075 19.2122 25.0592 17.9192C26.3112 17.0998 27.7474 16.5717 29.5334 17.0998C27.1029 15.8614 24.9855 16.6991 24.1385 17.0451C22.7944 17.5915 21.1926 18.6659 19.4434 18.8298C16.1844 19.1394 14.7667 16.9541 12.0417 14.5685C11.1579 13.7854 10.2004 12.9477 8.80109 12.2557C7.45699 11.582 6.11289 11.3452 4.87926 11.3452C2.5409 11.3452 0.626019 12.1829 0.0184123 12.4379" fill="white"/>
</mask>
<g mask="url(#mask5_583_2529)">
<path d="M29.3218 9.04736L-0.870117 11.4342L0.180282 24.4315L30.3722 22.0447L29.3218 9.04736Z" fill="url(#paint5_linear_583_2529)"/>
</g>
<path fill-rule="evenodd" clip-rule="evenodd" d="M14.4721 42.3578C14.4721 43.1591 13.9566 43.5233 13.3306 43.5233C12.7045 43.5233 12.1706 43.1773 12.1706 42.3578V38.6064H10.9922V42.2121C10.9922 43.0134 11.1211 43.4869 11.4893 43.8693C11.8944 44.2882 12.4099 44.4885 13.3306 44.4885C14.2512 44.4885 14.7667 44.2699 15.1718 43.8693C15.5584 43.4869 15.6689 43.0134 15.6689 42.2121V38.6064H14.4905V42.3578H14.4721Z" fill="#6B1685"/>
<path fill-rule="evenodd" clip-rule="evenodd" d="M17.7311 40.8282V40.2091H16.6816V44.3975H17.8048V42.54C17.8048 41.6295 17.9889 41.2289 18.394 41.1196C18.7254 41.0285 19.0384 41.2653 19.0937 41.3017L19.4435 40.3365C19.0568 40.118 18.2467 39.8448 17.7311 40.8282Z" fill="#6B1685"/>
<path fill-rule="evenodd" clip-rule="evenodd" d="M49.2897 40.8282V40.2091H48.2402V44.3975H49.3634V42.54C49.3634 41.6295 49.5475 41.2289 49.9526 41.1196C50.284 41.0285 50.597 41.2653 50.6522 41.3017L51.0021 40.3365C50.6154 40.118 49.8053 39.8448 49.2897 40.8282Z" fill="#6B1685"/>
<path fill-rule="evenodd" clip-rule="evenodd" d="M22.4632 42.6674C22.4632 43.2319 22.1133 43.6143 21.6714 43.6508C21.2111 43.6872 20.8429 43.4322 20.8429 42.8495V40.2272H19.7197V43.0862C19.7197 44.0696 20.3642 44.5613 21.2295 44.5249C21.7819 44.5067 22.2606 44.2153 22.5368 43.7965V44.4338H23.5863V40.2454H22.4632V42.7038V42.6674Z" fill="#6B1685"/>
<path fill-rule="evenodd" clip-rule="evenodd" d="M29.2202 40.118C28.7415 40.1726 28.318 40.464 28.0603 40.8646C27.8393 40.3183 27.3054 40.0633 26.6609 40.118C26.2006 40.1726 25.7956 40.4275 25.5194 40.81V40.209H24.4883V44.4157H25.6114V42.0119C25.6114 41.4109 25.906 41.0103 26.3479 40.9556C26.753 40.9192 27.0476 41.1013 27.0476 41.6841V44.3974H28.1707V41.9572C28.1707 41.3927 28.4838 40.9921 28.9072 40.9374C29.3123 40.901 29.6069 41.0831 29.6069 41.6659V44.3792H30.7301V41.4837C30.7301 40.5004 30.0856 40.0087 29.2202 40.0815" fill="#6B1685"/>
<path fill-rule="evenodd" clip-rule="evenodd" d="M34.5601 40.8099C34.2655 40.3729 33.8052 40.1179 33.2528 40.1179C32.1849 40.1179 31.4668 41.0467 31.4668 42.3032C31.4668 43.5597 32.1665 44.4885 33.2528 44.4885C33.7683 44.4885 34.1734 44.2699 34.468 43.9057V45.9817H35.5912V40.1908H34.5601V40.7917V40.8099ZM33.5658 43.6326C32.9582 43.6326 32.6268 43.1045 32.6268 42.3032C32.6268 41.5019 32.9766 40.9738 33.5658 40.9738C34.155 40.9738 34.5048 41.4655 34.5048 42.3032C34.5048 43.1409 34.1734 43.6326 33.5658 43.6326Z" fill="#6B1685"/>
<path d="M37.6534 40.209H36.5303V44.3974H37.6534V40.209Z" fill="#6B1685"/>
<path d="M37.6534 38.6064H36.5303V39.6262H37.6534V38.6064Z" fill="#6B1685"/>
<path d="M47.3194 40.209H46.1963V44.3974H47.3194V40.209Z" fill="#6B1685"/>
<path d="M47.3194 38.6064H46.1963V39.6262H47.3194V38.6064Z" fill="#6B1685"/>
<path fill-rule="evenodd" clip-rule="evenodd" d="M43.287 38.6064H42.1454L39.8623 44.3974H41.0775L41.5747 43.0863H43.9314L44.4286 44.3974H45.6438L43.3606 38.6064H43.2686H43.287ZM41.9429 42.1211L42.753 39.9904L43.5632 42.1211H41.9429Z" fill="#6B1685"/>
<path fill-rule="evenodd" clip-rule="evenodd" d="M55.6786 29.1916V30.4117C55.6786 30.8851 56.1389 31.304 56.6176 31.304H58.9744V30.4299H57.0227C56.8385 30.4299 56.6176 30.266 56.6176 30.0292V29.1733H55.6602L55.6786 29.1916Z" fill="#6B1685"/>
<path fill-rule="evenodd" clip-rule="evenodd" d="M52.3832 28.8456H58.0174V29.9565H58.9748V27.9715H55.679V27.2067H54.6663V27.9715H51.4258V29.9565H52.3832V28.8456Z" fill="#6B1685"/>
<path fill-rule="evenodd" clip-rule="evenodd" d="M54.9792 29.5194L54.0586 29.137C53.543 30.1021 52.7329 30.612 51.2783 30.7941L51.7018 31.7229C53.1564 31.4679 54.3348 30.7395 54.9792 29.5194Z" fill="#6B1685"/>
<path fill-rule="evenodd" clip-rule="evenodd" d="M55.6789 34.2359V32.8154H58.3302V31.9049H52.0885V32.8154H54.6662V34.2359H51.2783V35.1464H59.0851V34.2359H55.6789Z" fill="#6B1685"/>
<path fill-rule="evenodd" clip-rule="evenodd" d="M49.2157 28.19H47.6139V27.2249H46.6012V28.19H45.165V29.0641H49.2157V28.19Z" fill="#6B1685"/>
<path fill-rule="evenodd" clip-rule="evenodd" d="M48.8666 34.2542L48.7193 34.3452H48.6272L48.4615 34.1631V29.7015H45.7549V31.213C45.7549 32.7791 45.4971 33.9446 45 34.6002L45.7549 35.274C46.3441 34.3452 46.6203 33.0887 46.6203 31.5044V30.5392H47.5041V34.4909C47.5041 34.9098 47.8539 35.1283 48.0564 35.1283H48.8298C49.1059 35.1283 49.5294 34.9644 49.7136 34.2906C49.7688 34.0721 49.8056 33.7625 49.8424 33.5804L48.9955 33.3437C48.9586 33.7079 48.9034 34.1267 48.8666 34.2178" fill="#6B1685"/>
<path fill-rule="evenodd" clip-rule="evenodd" d="M43.913 33.4164C43.7842 32.8337 43.6185 32.3238 43.4712 31.9596L42.7715 32.1781C42.9004 32.5241 43.0477 33.034 43.1581 33.6168L43.913 33.4164Z" fill="#6B1685"/>
<path fill-rule="evenodd" clip-rule="evenodd" d="M43.9132 30.3571C43.8027 29.8654 43.6554 29.3919 43.4897 29.0277L42.79 29.1916C42.9189 29.5194 43.1031 30.1386 43.1767 30.5938L43.9132 30.3571Z" fill="#6B1685"/>
<path fill-rule="evenodd" clip-rule="evenodd" d="M43.8585 27.2249L42.9195 27.0974C42.8643 27.3888 42.809 27.7166 42.7538 27.9715H41.8148V30.7031H41.2256V31.5226H41.8148V31.5772C41.8148 32.8702 41.6307 33.9264 41.244 34.7094V34.7459L42.0357 35.3104V35.2376C42.4776 34.3088 42.6802 33.0705 42.6802 31.5044H44.0611V34.1267L43.8033 34.3452H43.0668L43.2878 35.2193H44.1716C44.5766 35.2193 44.9265 34.8916 44.9265 34.4909V27.9715H43.6928C43.7481 27.753 43.8217 27.5163 43.877 27.2249M44.0427 30.7031H42.6617V28.8092H44.0427V30.7031Z" fill="#6B1685"/>
<path fill-rule="evenodd" clip-rule="evenodd" d="M5.08216 28.8274H9.11445C9.11445 29.0824 9.09604 29.3191 9.07763 29.4102C9.05922 29.7015 8.93033 29.8108 8.59891 29.8108H6.7945L7.01545 30.6849H9.00398C9.50111 30.6849 10.0167 30.3753 10.0535 29.7926C10.0719 29.3009 10.164 27.9533 10.164 27.9533H6.97862L7.31005 27.2249L6.13166 27.0974L5.81865 27.9533H4.08789V31.9779H9.86936C9.83253 32.5242 9.79571 33.198 9.7773 33.4711C9.75888 33.9446 9.57476 34.3088 9.0408 34.3088H6.7945L7.03386 35.2558H9.22493C10.0719 35.2558 10.7163 34.8005 10.7716 33.9264C10.8084 33.2344 10.9373 31.122 10.9373 31.122H5.10057V28.8456L5.08216 28.8274Z" fill="#6B1685"/>
<path d="M9.1324 32.7062H2.89062V33.5803H9.1324V32.7062Z" fill="#6B1685"/>
<path fill-rule="evenodd" clip-rule="evenodd" d="M27.2131 29.92H30.0854V29.0095H26.7343V27.2067H25.7033V29.0095H22.3522V29.92H25.2429C24.7274 30.8488 23.862 32.2692 22.0576 33.4165C22.2049 33.6896 22.6468 34.4727 22.6468 34.4727C23.9725 33.4711 25.0404 32.3056 25.7033 30.9398V35.2922H26.7343V30.9398C27.3972 32.3056 28.4835 33.4711 29.7908 34.4727C29.7908 34.4727 30.2511 33.6896 30.38 33.4165C28.5572 32.2692 27.7102 30.8488 27.1947 29.92" fill="#6B1685"/>
<path d="M38.0216 31.996H37.0273V35.2739H38.0216V31.996Z" fill="#6B1685"/>
<path fill-rule="evenodd" clip-rule="evenodd" d="M34.7805 31.996H33.731V32.4877C33.731 33.2161 33.7679 34.1448 32.0371 34.764L32.8657 35.4742C34.8174 34.6001 34.7805 33.125 34.7805 32.5241V32.0142V31.996Z" fill="#6B1685"/>
<path fill-rule="evenodd" clip-rule="evenodd" d="M38.6472 29.0277H39.8808V28.1172H36.6955L36.3273 27.1156L35.1489 27.2431L35.5355 28.1354H31.9083V29.0459H33.1419C33.5838 29.6287 34.1178 30.1568 34.8543 30.6485C34.0625 30.9216 33.0315 31.1401 31.6689 31.304L32.1293 32.2692C33.7495 32.0143 34.9463 31.6683 35.8854 31.2312C36.8244 31.6683 38.0396 32.0143 39.6415 32.2692L40.1018 31.304C38.7393 31.1401 37.7266 30.9216 36.9165 30.6485C37.6529 30.175 38.1685 29.6287 38.6288 29.0459M34.3203 29.0277H37.4504C37.0822 29.4101 36.6219 29.829 35.8854 30.1932C35.1489 29.829 34.6886 29.4101 34.3203 29.0277Z" fill="#6B1685"/>
<path d="M20.9167 31.5226H12.5391V32.2328H20.9167V31.5226Z" fill="#6B1685"/>
<path fill-rule="evenodd" clip-rule="evenodd" d="M13.496 35.2921H14.4902V35.0918H18.9644V35.2921H19.9587V32.5787H13.4775V35.2921H13.496ZM14.4902 33.1797H18.9644V33.5257H14.4902V33.1797ZM14.4902 34.1266H18.9644V34.4726H14.4902V34.1266Z" fill="#6B1685"/>
<path fill-rule="evenodd" clip-rule="evenodd" d="M13.3488 29.2827V31.1766H20.0877V28.6817H18.228L18.6883 28.19V27.6073H15.6687L16.037 27.2249L14.9138 27.1156C14.2878 27.7894 13.4961 28.2811 12.4834 28.7546L13.0542 29.4283L13.3304 29.2827M19.0934 30.5756H17.2154V30.2296H19.0934V30.5756ZM19.0934 29.6287H17.2154V29.2827H19.0934V29.6287ZM14.9138 28.3175H17.4179L17.0312 28.6817H14.4167C14.5824 28.5542 14.7481 28.445 14.9138 28.3175ZM14.3615 29.2827H16.2395V29.6287H14.3615V29.2827ZM14.3615 30.2296H16.2395V30.5756H14.3615V30.2296Z" fill="#6B1685"/>
</g>
<defs>
<linearGradient id="paint0_linear_583_2529" x1="12.8347" y1="20.373" x2="31.2226" y2="18.8869" gradientUnits="userSpaceOnUse">
<stop stop-color="#A50082"/>
<stop offset="1" stop-color="#E4007F"/>
</linearGradient>
<linearGradient id="paint1_linear_583_2529" x1="12.2849" y1="21.2453" x2="47.2255" y2="18.4215" gradientUnits="userSpaceOnUse">
<stop stop-color="#FDD000"/>
<stop offset="1" stop-color="#F39800"/>
</linearGradient>
<linearGradient id="paint2_linear_583_2529" x1="37.9834" y1="12.6752" x2="53.6373" y2="8.68202" gradientUnits="userSpaceOnUse">
<stop stop-color="#920783"/>
<stop offset="1" stop-color="#E4007F"/>
</linearGradient>
<linearGradient id="paint3_linear_583_2529" x1="-1708.94" y1="-907.473" x2="-1723.78" y2="-915.483" gradientUnits="userSpaceOnUse">
<stop stop-color="#920783"/>
<stop offset="1" stop-color="#E4007F"/>
</linearGradient>
<linearGradient id="paint4_linear_583_2529" x1="30.5829" y1="13.8197" x2="13.4295" y2="19.8661" gradientUnits="userSpaceOnUse">
<stop stop-color="#37BEF0"/>
<stop offset="1" stop-color="#009944"/>
</linearGradient>
<linearGradient id="paint5_linear_583_2529" x1="1.05842" y1="19.8607" x2="29.9982" y2="17.5219" gradientUnits="userSpaceOnUse">
<stop stop-color="#F6AB00"/>
<stop offset="0.5" stop-color="#FDD000"/>
<stop offset="1" stop-color="#F6AB00"/>
</linearGradient>
<clipPath id="clip0_583_2529">
<rect width="61" height="46" fill="white"/>
</clipPath>
</defs>
</svg>
