<svg width="159" height="46" viewBox="0 0 159 46" fill="none" xmlns="http://www.w3.org/2000/svg">
<path fill-rule="evenodd" clip-rule="evenodd" d="M9.51301 43.1455H4.79554L4.31599 43.5919H6.17844C6.17844 43.5919 7.01487 43.9936 7.22677 44.0606C7.99628 43.8151 8.73234 43.4915 9.51301 43.1455ZM9.78067 40.4337H4.05948V40.7908C4.05948 40.9136 4.171 41.014 4.29368 41.014H9.56877C9.7026 41.014 9.79182 40.8913 9.79182 40.7685V40.4337H9.78067ZM9.78067 39.1392H4.05948V39.7083H9.79182V39.1392H9.78067ZM4.05948 38.079V38.4027H9.79182V38.079C9.79182 37.9228 9.69145 37.8335 9.53532 37.8335H4.31599C4.1487 37.8335 4.05948 37.9228 4.05948 38.079ZM2.20818 35.7132H11.7435V36.5167H7.80669C7.73978 36.6618 7.65056 36.8515 7.55019 37.0858H9.71375C10.829 37.0858 10.9963 37.7331 10.9963 38.3803V40.4895C10.9963 41.3488 10.4721 41.784 9.71375 41.784H5.96654C5.85502 41.9403 5.73234 42.0742 5.52045 42.3309H10.3717C10.7509 42.3309 11.0743 42.5317 11.1636 42.8554C11.1859 42.9223 11.1859 42.9781 11.1859 43.0562C11.1859 43.3575 10.9963 43.6365 10.6729 43.7816C10.2045 44.0048 8.98885 44.4958 8.48699 44.6855L9.84758 45.277C10.7398 45.6787 11.4312 45.9019 11.7546 45.9912H8.83271C8.5316 45.9019 7.07063 45.2435 7.07063 45.2435L6.69145 45.3774C6.24535 45.5671 5.66543 45.8238 5.21933 45.9801C5.21933 45.9801 5.21933 45.9801 1.92937 45.9801C2.87732 45.7457 5.81041 44.5963 5.81041 44.5963C5.50929 44.4735 5.00743 44.2057 4.63941 44.0048L4.1487 43.737L3.62454 44.2057H1.90706C3.03346 43.4468 4.10409 42.2193 4.43866 41.784H4.04833C3.31227 41.784 2.84387 41.293 2.84387 40.4895V38.3245C2.84387 37.5545 3.22305 37.0858 4.12639 37.0858H6.2119C6.31227 36.885 6.39033 36.7064 6.4684 36.5167H2.20818V35.7132ZM1.80669 34.3182H11.7435V35.2333H2.02974C1.8513 35.2333 1.75093 35.3338 1.75093 35.49V42.0965C1.75093 43.3241 1.5948 44.786 1.32714 46.0024H0C0.390335 44.3284 0.535316 43.0451 0.535316 41.3265V35.5904C0.535316 34.7758 0.947955 34.3294 1.80669 34.3294" fill="#01417E"/>
<path fill-rule="evenodd" clip-rule="evenodd" d="M16.6166 34.0726H17.8434V34.7422C17.8434 34.8984 18.0107 35.01 18.1668 35.01H20.7319V35.9251H17.8099C16.9177 35.9251 16.6055 35.3337 16.6055 34.8092V34.0726H16.6166ZM21.5683 34.0726H26.9549C27.2226 34.0726 27.4902 34.1507 27.7133 34.3181C28.0032 34.5302 28.1482 34.8538 28.1482 35.2444V44.8863C28.1482 45.6675 27.6464 45.9576 26.9549 45.9576H25.3044L24.8248 44.9644H26.6203C26.8099 44.9644 26.9215 44.8417 26.9215 44.6296V35.3895C26.9215 35.2332 26.7876 35.0658 26.598 35.0658H21.5683V34.0726ZM16.6166 36.5501H17.8434V45.9576H16.6166V36.5501Z" fill="#01417E"/>
<path fill-rule="evenodd" clip-rule="evenodd" d="M40.5058 35.5569C40.3385 35.1105 40.1377 34.6864 39.9258 33.9722H41.2418C41.3756 34.374 41.6321 34.9096 41.9333 35.5569H44.5764V36.5613H38.1414V35.5569H40.5058ZM35.2864 38.8378C35.0522 38.0455 34.9295 37.4317 34.8292 36.7733H35.8106C35.911 37.5098 36.1229 38.1794 36.3236 38.8378H35.2864ZM34.8515 34.9319C34.9853 34.6418 35.108 34.307 35.1861 33.9611H36.502C36.4128 34.2847 36.3124 34.6083 36.1675 34.9319H36.5243C37.5392 34.9319 37.7957 35.3114 37.7957 36.0479V44.9645C37.7957 45.4778 37.5058 45.9577 36.7362 45.9577H35.621L35.2084 44.9756H36.3013C36.4686 44.9756 36.5801 44.864 36.5801 44.7078V40.5229H34.5281C34.5058 42.5875 34.3385 44.4065 33.9704 45.9577H32.6768C33.2455 44.1833 33.3459 42.2973 33.3682 40.5229H32.6768V39.5074H33.3682V36.0479C33.3682 35.4007 33.647 34.9319 34.5281 34.9319H34.8403H34.8515ZM34.5392 39.5074H36.6024V36.2488C36.6024 36.0479 36.4686 35.9475 36.2455 35.9475H34.8292C34.5838 35.9475 34.5392 36.0591 34.5392 36.2488V39.4962V39.5074ZM42.134 37.8111C43.0262 37.8111 43.3719 38.3245 43.3719 38.9829V44.6631C43.3719 44.8082 43.4834 44.9198 43.6507 44.9198H44.8106L44.3645 45.9577H43.4054C42.9258 45.9577 42.6024 45.8237 42.4017 45.5448C42.2344 45.3216 42.1452 44.9979 42.1452 44.5627V39.061C42.1452 38.9271 42.0671 38.8378 41.8887 38.8378H40.3162C40.1489 38.8378 40.0931 38.9494 40.0931 39.0722V41.996C40.0931 43.2794 39.8478 44.7524 39.2455 45.9465H37.7734C38.5987 44.8305 38.8552 43.3463 38.8552 41.3822V38.9717C38.8552 38.358 39.1229 37.8 39.9927 37.8H42.1229L42.134 37.8111ZM35.2307 43.5472C34.9853 42.7548 34.8626 42.063 34.7623 41.1925H35.7994C35.8887 42.063 36.0448 42.8218 36.2678 43.5472H35.2195H35.2307Z" fill="#01417E"/>
<path fill-rule="evenodd" clip-rule="evenodd" d="M54.3007 33.9387H55.7505C55.8397 34.1954 56.007 34.586 56.1855 34.8873H59.297C60.4234 34.8873 60.8472 35.635 60.8472 36.338V37.666H59.6539V36.2934C59.6539 36.0591 59.5312 35.9028 59.2747 35.9028H56.9661V37.9673C56.9661 38.1682 57.1111 38.291 57.2338 38.291H60.4568L60.033 39.3177H56.8435C56.52 39.3177 56.1297 39.1614 55.9066 38.8936C55.7171 38.6816 55.6278 38.3356 55.6278 38.0455V35.9028H54.468C54.0777 37.242 53.1074 38.6258 51.7468 39.6636H49.4159C49.4159 39.6636 52.2598 38.2798 53.0516 35.9028H50.7877C50.52 35.9028 50.3974 36.0367 50.3974 36.2934V37.666H49.204V36.338C49.204 35.6573 49.5832 34.8873 50.7208 34.8873H54.691C54.5237 34.5525 54.3788 34.24 54.2895 33.9387M60.0553 40.2997V41.3041H55.6501V44.864H60.9587V45.8572H49.126V44.864H54.4457V41.3041H50.1185V40.2997H60.0553Z" fill="#01417E"/>
<path d="M14.3865 33.9723H13.9404V46.0024H14.3865V33.9723Z" fill="#01417E"/>
<path d="M30.658 33.9723H30.2119V46.0024H30.658V33.9723Z" fill="#01417E"/>
<path d="M47.0857 33.9723H46.6396V46.0024H47.0857V33.9723Z" fill="#01417E"/>
<path d="M76.7841 34.5637H79.115V45.9912H76.7841V34.5637ZM130.996 46.0023H129.524L122.598 38.0344V46.0023H120.267V34.5749H122.464L128.665 41.7505V34.5749H130.996V46.0023ZM63.602 46.0023L67.9403 39.8199L64.2488 34.5749H66.8585L69.2339 37.9674L71.6094 34.5749H74.2191L70.5388 39.8199L74.8771 46.0023H72.2674L69.2339 41.6836L66.2005 46.0023H63.5908H63.602ZM89.1522 43.6811H84.2339L83.3194 46.0023H80.9886L85.483 34.5749H87.8139L92.3975 46.0023H90.0667L89.1522 43.6811ZM84.825 42.1411H88.5499L86.6875 37.4094L84.825 42.1411ZM112.628 44.4623H117.925V46.0023H110.297V34.5749H117.535V36.1037H112.628V39.3735H116.821V40.9024H112.628V44.4623ZM104.241 34.5637H106.773L107.866 45.9912H105.535L104.777 38.0455L100.929 45.9912H100.784L96.8808 38.0455L96.1224 45.9912H93.7916L94.8845 34.5637H97.4161L100.829 41.6612L104.241 34.5637ZM145.84 34.5637H147.156V45.9912H145.84V34.5637ZM141.033 42.8665H135.58L134.319 46.0023H133.003L137.609 34.5749H138.925L143.609 46.0023H142.293L141.033 42.8665ZM135.981 41.8733H140.643L138.312 36.1037L135.981 41.8733ZM154.371 40.5006H151.684V46.0023H150.368V34.5749H154.684C156.58 34.5749 157.896 35.9029 157.896 37.5433C157.896 38.9048 156.992 40.0431 155.609 40.389L158.989 46.0023H157.684L154.371 40.5006ZM151.684 39.5074H154.539C155.799 39.5074 156.691 38.637 156.702 37.5322C156.702 36.4385 155.81 35.5458 154.539 35.5458H151.684V39.5074Z" fill="#01417E"/>
<path d="M99.4907 21.8194C93.6134 22.0761 88.461 19.8553 91.3272 14.2085C94.1822 8.56175 108.223 2.06684 112.829 0.00231103C112.829 0.00231103 88.4387 0.00231103 86.9554 0.00231103C86.0744 0.00231103 84.9703 -0.142764 84.3012 1.86597C83.7993 3.36136 81.4796 9.16437 76.316 10.9722C69.9257 13.2265 64.5948 9.5438 56.4759 3.11585C53.4536 0.705368 52.9517 0.493335 50.0186 0.973199C48.5242 1.21871 45.2565 0.426377 44.3086 0.192025C43.3495 -0.0646468 41.8662 0.0469496 41.8662 0.0581092C41.8662 0.169705 47.7547 1.01784 59.1078 9.15321C63.435 12.2444 71.1302 18.2818 79.1487 21.7636C87.8142 25.5244 100.394 27.5443 111.903 19.5205C111.915 19.3643 111.926 19.208 111.937 19.0406C111.937 19.2527 105.346 21.6632 99.4684 21.8082" fill="#0F83C7"/>
</svg>
