<svg width="661" height="47" viewBox="0 0 661 47" fill="none" xmlns="http://www.w3.org/2000/svg">
<path d="M105.675 40.0645C94.9121 40.5487 85.4443 36.4564 90.7007 26.1005C95.9571 15.7291 121.709 3.82685 130.163 0.0468812C130.163 0.0468812 85.4131 0.0468812 82.6991 0.0468812C81.0769 0.0468812 79.0648 -0.234273 77.8326 3.46759C76.9123 6.21666 72.6542 16.8537 63.1863 20.1807C51.4725 24.3043 41.6927 17.5566 26.7813 5.74807C21.2441 1.31208 20.3238 0.921584 14.9582 1.79629C12.213 2.24926 6.22349 0.781007 4.47654 0.374895C2.714 -0.093696 0 0.0937403 0 0.12498C0 0.328036 10.7936 1.89001 31.6322 16.8224C39.5558 22.508 53.7029 33.5667 68.396 39.9708C84.2901 46.8747 107.359 50.5766 128.478 35.8628C128.51 35.5817 128.525 35.2849 128.541 34.9881C128.541 35.3786 116.453 39.799 105.675 40.0645Z" fill="#008CD6"/>
<path d="M199.697 8.3879H203.659V38.8775H199.697V8.3879ZM215.763 0.359375H233.232C234.121 0.359375 234.964 0.640529 235.697 1.1716C236.633 1.87449 237.116 2.90539 237.116 4.15496V35.41C237.116 37.9247 235.494 38.8932 233.248 38.8932H227.898L226.338 35.6755H232.172C232.78 35.6755 233.139 35.2694 233.139 34.6134V4.62355C233.139 4.1081 232.718 3.56141 232.094 3.56141H215.779V0.359375H215.763ZM199.697 0.374995H203.675V2.53051C203.675 3.04596 204.205 3.40522 204.735 3.40522H213.049V6.37296H203.581C200.68 6.37296 199.697 4.45174 199.697 2.74919V0.374995Z" fill="#004385"/>
<path d="M259.983 31.0676C259.203 28.5059 258.782 26.2567 258.47 23.4295H261.776C262.073 26.2411 262.634 28.7246 263.367 31.0676H259.967H259.983ZM282.506 12.4958C285.423 12.4958 286.39 14.6981 286.39 16.2913V34.6913C286.39 35.1443 286.748 35.5192 287.279 35.5192H291.038L289.603 38.893H286.514C284.97 38.893 283.91 38.4557 283.27 37.5654C282.724 36.8312 282.459 35.7847 282.459 34.3789V16.5413C282.459 16.2757 282.272 15.8228 281.664 15.8228H276.641C276.095 15.8228 275.799 16.182 275.799 16.5881V26.0849C275.799 30.2554 274.988 35.035 273.054 38.9087H268.281C270.963 35.2693 271.806 30.474 271.806 24.1324V16.307C271.806 14.1046 273.428 12.5114 275.409 12.5114H282.506V12.4958ZM257.752 17.9939H264.428V7.24754C264.428 6.88829 264.194 6.48218 263.648 6.48218H258.516C258.251 6.48218 257.752 6.66961 257.752 7.24754V18.0095V17.9939ZM258.782 3.15518C259.234 2.218 259.608 1.14024 259.873 0.015625H264.116C263.835 1.04652 263.523 2.12428 263.024 3.15518H264.865C266.736 3.15518 268.281 4.34228 268.281 6.63837V35.6754C268.281 37.3467 267.36 38.893 264.865 38.893H261.246L259.905 35.691H263.461C264.007 35.691 264.412 35.3318 264.412 34.8319V21.274H257.737C257.69 27.9749 257.128 33.8479 255.943 38.893H251.747C253.588 33.1294 253.915 27.0221 253.993 21.274H251.763V17.9939H253.993V6.76333C253.993 4.5922 255.335 3.15518 257.269 3.15518H258.75H258.782ZM260.17 15.8228C259.421 13.2611 259.016 11.2462 258.688 9.13753H261.854C262.182 11.5117 262.853 13.6985 263.508 15.8228H260.154H260.17ZM277.093 5.17012C276.532 3.73311 275.892 2.32734 275.206 0.015625H279.464C279.901 1.31206 280.712 3.04585 281.71 5.17012H290.289V8.43464H269.435V5.17012H277.109H277.093Z" fill="#004385"/>
<path d="M177.752 22.1486V21.0396H159.191V22.0862C159.191 22.586 159.503 22.8828 160.017 22.8828H177.019C177.424 22.8828 177.752 22.5235 177.752 22.1486ZM176.863 29.7554H161.483C161.047 30.2084 160.579 30.6926 160.048 31.2081H166.054C166.054 31.2081 168.643 32.5045 169.391 32.8325C171.887 31.8797 174.32 30.8957 176.863 29.7554ZM177.752 16.7755H159.191V18.6186H177.752V16.7755ZM159.206 13.2923V14.4013H177.767V13.3547C177.767 12.8393 177.455 12.5581 176.941 12.5581H159.955C159.549 12.5581 159.222 12.9174 159.222 13.2923M153.029 5.66985H183.913V8.27834H171.341L170.483 10.1058H178.173C180.372 10.1058 181.651 11.9333 181.651 13.5266V21.8519C181.651 23.9137 179.998 25.3507 178.282 25.3507H165.336C164.977 25.8349 164.587 26.2879 163.87 27.1313H179.608C180.84 27.1313 181.885 27.7873 182.166 28.8182C182.228 29.0213 182.26 29.24 182.26 29.4586C182.26 30.4271 181.651 31.3174 180.606 31.8172C179.093 32.5357 175.209 34.0665 173.572 34.7537C173.572 34.7537 180.996 38.0339 183.882 39.0179H174.632C173.65 38.7367 169.111 36.55 169.111 36.55C169.111 36.55 164.447 38.4244 162.965 39.0179C162.965 39.0179 162.918 38.9867 152.296 38.9867C155.759 38.0182 164.962 34.535 164.962 34.535C163.059 33.5822 161.234 32.6451 159.503 31.7235C159.003 32.1765 158.426 32.6763 157.771 33.223H152.218C155.868 30.7395 159.331 26.7877 160.423 25.3507H158.66C156.804 25.3507 155.244 23.7418 155.244 21.8987V13.6203C155.244 11.8709 156.508 10.1058 158.754 10.1058H166.178C166.506 9.44982 166.755 8.88751 167.005 8.27834H152.983V5.66985H153.029ZM151.719 1.15576H183.897V4.10788H152.452C151.875 4.10788 151.532 4.42028 151.532 4.95135V26.3659C151.532 30.349 151.033 35.0974 150.144 39.0179H145.87C147.134 33.5979 147.601 29.4118 147.601 23.8356V5.24812C147.601 2.59277 148.927 1.15576 151.719 1.15576Z" fill="#004385"/>
<path d="M340.109 20.6336V23.8981H326.117V35.4411H343.306V38.6431H305.014V35.4411H322.202V23.8981H308.227V20.6336H340.093H340.109ZM321.797 0.0156197H326.492C326.772 0.859083 327.318 2.10866 327.911 3.10832H338.003C341.637 3.10832 343.025 5.52937 343.025 7.82547V12.1521H339.157V7.68489C339.157 6.91952 338.767 6.40408 337.909 6.40408H330.407V13.1205C330.407 13.7766 330.875 14.1671 331.28 14.1671H341.715L340.358 17.4784H330.032C328.987 17.4784 327.724 16.9786 326.991 16.1039C326.383 15.4166 326.086 14.292 326.086 13.3392V6.38846H322.343C321.095 10.7151 317.913 15.2292 313.53 18.6031H305.996C305.996 18.6031 315.199 14.1046 317.788 6.38846H310.426C309.553 6.38846 309.163 6.81019 309.163 7.66927V12.1365H305.294V7.80985C305.294 5.59185 306.527 3.0927 310.208 3.0927H323.076C322.53 2.01494 322.093 0.99966 321.797 0" fill="#004385"/>
<path d="M192.46 0.015625H191.025V39.0336H192.46V0.015625Z" fill="#004385"/>
<path d="M245.43 0.015625H243.995V39.0336H245.43V0.015625Z" fill="#004385"/>
<path d="M298.415 0.015625H296.98V39.0336H298.415V0.015625Z" fill="#004385"/>
<path d="M637.292 17.9782H646.557C650.643 17.9782 653.545 15.151 653.545 11.5897C653.545 8.02845 650.643 5.15442 646.557 5.15442H637.292V17.9938V17.9782ZM646.011 21.1802H637.292V39.0179H633.034V1.95239H647.025C653.155 1.95239 657.413 6.2478 657.428 11.5897C657.428 16.0101 654.512 19.6807 650.035 20.821L660.985 39.0335H656.742L645.995 21.1959L646.011 21.1802ZM586.412 25.6631H601.495L593.946 6.95069L586.412 25.6631ZM602.774 28.8495H585.117L581.015 39.0179H576.773L591.7 1.93677H595.958L611.119 39.0179H606.876L602.774 28.8495ZM618.356 1.95239H622.599V39.0335H618.356V1.95239ZM483.576 1.95239H491.781L495.321 39.0335H487.772L485.308 13.261L472.861 39.0335H472.393L459.743 13.261L457.279 39.0335H449.729L453.286 1.95239H461.474L472.533 24.9602L483.592 1.95239H483.576ZM510.748 34.0509H527.905V39.0335H503.198V1.95239H526.657V6.93507H510.748V17.5565H524.318V22.5235H510.748V34.0665V34.0509ZM420.686 26.5378H432.743L426.723 11.2149L420.702 26.5378H420.686ZM434.693 31.5049H418.737L415.773 39.0335H408.224L422.792 1.95239H430.341L445.19 39.0335H437.641L434.677 31.5049H434.693ZM351.916 39.0335L365.97 18.9779L354.037 1.95239H362.507L370.212 12.933L377.917 1.95239H386.387L374.439 18.9779L388.508 39.0335H380.039L370.212 25.0071L360.386 39.0335H351.932H351.916ZM570.268 39.0335H565.511L543.082 13.1829V39.0335H535.532V1.95239H542.629L562.719 25.2257V1.95239H570.284V39.0335H570.268ZM394.638 1.95239H402.187V39.0335H394.638V1.95239Z" fill="#004385"/>
</svg>
